<svg id="Grupo_997209" data-name="Grupo 997209" xmlns="http://www.w3.org/2000/svg" xmlns:xlink="http://www.w3.org/1999/xlink" width="231.638" height="148.426" viewBox="0 0 231.638 148.426">
  <defs>
    <clipPath id="clip-path">
      <rect id="Rectángulo_349639" data-name="Rectángulo 349639" width="231.638" height="148.425" fill="none"/>
    </clipPath>
  </defs>
  <g id="Grupo_997208" data-name="Grupo 997208" clip-path="url(#clip-path)">
    <path id="Trazado_730775" data-name="Trazado 730775" d="M132.57,113.858c68.468,0,105.552-11.449,109.538-12.748a2.092,2.092,0,0,0,.108-.636c0-7.96-47.477-14.414-106.043-14.414S30.131,92.513,30.131,100.474a2.1,2.1,0,0,0,.115.659c3.735,1.413,35.722,12.725,102.325,12.725" transform="translate(-20.296 -57.969)" fill="#8c4d37"/>
    <path id="Trazado_730776" data-name="Trazado 730776" d="M605.095,46.512l-5.317-2.349c.039-.088,3.918-8.9,7.041-18.293C612.225,9.6,610.554,6.217,610.3,5.832c-.351-.041-2.633-.045-9.211,5.426-6.292,5.233-14.8,14.048-25.279,26.2l-4.4-3.8c11.246-13.035,20.321-22.353,26.975-27.7,4.723-3.793,10.7-7.795,15.03-5.056,4.4,2.786,4.149,10.816-.828,26.039-3.255,9.954-7.318,19.18-7.49,19.567" transform="translate(-384.891 -0.001)" fill="#8c4d37"/>
    <path id="Trazado_730777" data-name="Trazado 730777" d="M11.434,46.512c-.171-.388-4.235-9.614-7.49-19.567C-1.033,11.722-1.289,3.691,3.116.905c4.332-2.739,10.307,1.264,15.03,5.056C24.8,11.3,33.875,20.623,45.121,33.658l-4.4,3.8c-10.482-12.15-18.987-20.964-25.279-26.2C8.865,5.789,6.58,5.789,6.229,5.832,5.974,6.217,4.3,9.6,9.723,25.9c3.124,9.395,6.99,18.17,7.028,18.257Z" transform="translate(0 0)" fill="#8c4d37"/>
    <path id="Trazado_730778" data-name="Trazado 730778" d="M242.217,102.051c0,7.96-47.477,14.414-106.043,14.414S30.131,110.011,30.131,102.051,77.608,87.637,136.174,87.637s106.043,6.453,106.043,14.414" transform="translate(-20.296 -59.031)" fill="#8c4d37"/>
    <path id="Trazado_730779" data-name="Trazado 730779" d="M62.585,122.21a49.623,49.623,0,0,1-12.821-16.043l-.051-.107q-.262-.548-.5-1.095l-.07-.16q-.226-.524-.43-1.044c-.024-.059-.047-.119-.07-.178q-.2-.518-.375-1.031c-.019-.056-.039-.113-.058-.168q-.181-.537-.335-1.067c-.01-.036-.022-.072-.033-.108a22.082,22.082,0,0,1-.716-3.465c0-.039-.007-.076-.011-.115-.036-.32-.064-.638-.082-.952-.006-.1-.007-.19-.01-.285-.01-.254-.017-.507-.015-.756,0-.117.006-.232.009-.348.007-.224.018-.446.036-.666.01-.125.023-.249.036-.373q.033-.309.082-.611c.02-.127.041-.253.065-.377.038-.2.082-.388.129-.578.03-.122.059-.245.094-.366.054-.191.117-.377.181-.562.039-.113.075-.228.118-.339.077-.2.164-.389.253-.581.042-.092.08-.186.125-.276a9.151,9.151,0,0,1,.459-.812c.119-.187.25-.368.388-.544.12-.158.249-.311.382-.462h0c5.684-6.494,22.427-6.5,34.884,1.444a37.319,37.319,0,0,1,7.157,5.827h0c.354.376.688.757,1.012,1.139.071.084.138.167.208.251q.387.468.743.941c.059.079.121.158.18.237.285.387.557.777.812,1.169.02.03.037.06.056.09.23.357.446.717.651,1.078q.08.141.157.282.283.515.532,1.032c.025.052.053.1.077.156q.281.6.516,1.2c.03.076.056.151.085.227q.188.5.345.992c.03.094.06.188.088.282a17.647,17.647,0,0,1,.541,2.4c.014.095.026.19.039.285q.067.494.1.986c.006.08.014.161.019.241.024.4.035.8.03,1.2,0,.053,0,.105-.006.158q-.012.52-.058,1.038-.013.149-.028.3c-.037.353-.084.7-.145,1.056-.008.043-.012.086-.02.13-.071.395-.159.788-.259,1.179-.022.085-.047.169-.07.253q-.129.473-.287.943c-.031.092-.06.184-.093.276-.137.388-.286.774-.452,1.157h0a19.16,19.16,0,0,1-1.418,2.654c-6.244,9.789-20.233,12.744-32.182,2.862" transform="translate(-31.663 -56.603)" fill="#f08f4a"/>
    <path id="Trazado_730780" data-name="Trazado 730780" d="M58.922,125.384a.691.691,0,0,1-.573-.3,15.259,15.259,0,0,1-2.08-11.4.692.692,0,0,1,1.343.334A14.1,14.1,0,0,0,59.494,124.3a.692.692,0,0,1-.572,1.081" transform="translate(-37.68 -76.222)" fill="#ffe09c"/>
    <path id="Trazado_730781" data-name="Trazado 730781" d="M353.33,20.993A49.616,49.616,0,0,1,367.742,6.362l.1-.063q.513-.326,1.028-.628l.151-.088q.493-.286.985-.55l.168-.09q.491-.259.979-.495l.16-.078q.511-.243,1.02-.459l.1-.045a22.059,22.059,0,0,1,3.356-1.121l.113-.024c.314-.074.626-.139.936-.195.094-.017.187-.029.281-.044.251-.04.5-.077.749-.1.117-.013.231-.022.347-.032.223-.02.446-.035.665-.043.125,0,.25-.007.374-.008q.311,0,.617.009c.128,0,.255.011.382.02.2.014.395.035.59.059.125.016.251.03.375.05.2.031.388.071.58.114.117.025.235.048.351.078.205.053.406.117.607.183.1.031.194.057.289.091.292.106.58.225.86.36.2.1.395.2.587.321.172.1.338.211.5.324h0c7.121,4.874,9.111,21.5,2.7,34.809a37.308,37.308,0,0,1-4.938,7.8h0c-.332.4-.67.773-1.011,1.14-.074.08-.15.157-.225.236q-.419.439-.847.849c-.071.069-.142.139-.214.206-.352.329-.705.645-1.065.945-.027.023-.055.044-.083.066-.328.271-.659.527-.993.774-.087.064-.174.127-.262.19q-.477.341-.961.651c-.049.031-.1.065-.146.1q-.56.35-1.129.654c-.072.039-.144.074-.216.111q-.469.245-.943.46c-.09.041-.18.082-.27.121a17.676,17.676,0,0,1-2.322.822c-.093.025-.186.049-.279.072q-.481.124-.967.219c-.079.016-.158.033-.238.048-.4.071-.793.13-1.191.172-.053.006-.105.008-.158.013-.345.033-.691.054-1.038.066l-.3.007c-.355,0-.709,0-1.065-.019-.044,0-.088,0-.132,0-.4-.023-.8-.064-1.2-.118-.087-.011-.173-.026-.259-.039-.324-.048-.647-.106-.97-.173-.095-.02-.19-.038-.285-.06-.4-.091-.8-.192-1.2-.312h0a19.14,19.14,0,0,1-2.8-1.093c-10.46-5.04-15.05-18.581-6.653-31.616" transform="translate(-235.066 -1.545)" fill="#f08f4a"/>
    <path id="Trazado_730782" data-name="Trazado 730782" d="M409.5,16.347a.692.692,0,0,1-.454-1.214,15.26,15.26,0,0,1,11.069-3.415.692.692,0,0,1-.172,1.373,14.1,14.1,0,0,0-9.989,3.086.687.687,0,0,1-.454.17" transform="translate(-275.364 -7.85)" fill="#ffe09c"/>
    <path id="Trazado_730783" data-name="Trazado 730783" d="M453,89.988a49.625,49.625,0,0,1,9.7-18.1l.078-.089q.4-.457.809-.892l.12-.127q.392-.414.79-.806l.136-.134q.4-.387.8-.75l.132-.12q.422-.377.849-.728l.087-.073a22.082,22.082,0,0,1,2.9-2.022l.1-.055c.28-.159.561-.31.842-.45.086-.043.172-.081.258-.122.229-.109.459-.215.689-.311.108-.045.215-.086.323-.128.209-.082.417-.159.626-.229.119-.04.238-.077.357-.114q.3-.091.594-.165c.124-.031.249-.061.373-.088.195-.042.388-.077.582-.109.125-.021.249-.042.373-.058.2-.025.393-.041.589-.055.119-.008.239-.02.358-.024.212-.008.423,0,.634,0,.1,0,.2,0,.3.007a9.2,9.2,0,0,1,.927.1c.219.036.437.086.654.142.193.048.383.107.574.169h0c8.207,2.668,14.8,18.058,12.405,32.636a37.334,37.334,0,0,1-2.539,8.873h0c-.207.473-.424.931-.649,1.379-.049.1-.1.193-.149.29q-.278.54-.573,1.054c-.049.086-.1.174-.148.259-.244.415-.495.818-.755,1.206-.02.03-.041.058-.061.087-.238.353-.484.692-.735,1.023q-.1.129-.2.256-.361.462-.739.9c-.038.043-.075.089-.113.133q-.439.494-.9.946c-.058.057-.117.111-.175.167q-.381.367-.776.707c-.075.065-.149.13-.225.193a17.574,17.574,0,0,1-2,1.444c-.082.051-.164.1-.246.148q-.427.256-.866.483c-.071.037-.142.076-.214.112q-.539.271-1.094.5c-.049.02-.1.037-.148.057q-.483.193-.977.355l-.285.091c-.339.1-.681.2-1.027.282-.043.01-.085.023-.128.033-.391.09-.787.164-1.186.226-.086.013-.173.023-.26.036q-.486.068-.979.108c-.1.008-.193.017-.291.023-.411.026-.824.042-1.242.04h0a19.2,19.2,0,0,1-3-.258c-11.457-1.886-19.68-13.583-15.3-28.457" transform="translate(-304.329 -43.266)" fill="#f08f4a"/>
    <path id="Trazado_730784" data-name="Trazado 730784" d="M490.628,81.906a.692.692,0,0,1-.582-1.065,15.26,15.26,0,0,1,9.657-6.4.692.692,0,0,1,.222,1.366,14.1,14.1,0,0,0-8.713,5.778.69.69,0,0,1-.583.319" transform="translate(-330.013 -50.137)" fill="#ffe09c"/>
    <path id="Trazado_730785" data-name="Trazado 730785" d="M526.244,117.536a49.631,49.631,0,0,1,16.764-11.863l.11-.044q.563-.23,1.123-.437l.164-.06q.536-.2,1.067-.368l.182-.059q.529-.168,1.051-.314l.172-.049q.546-.149,1.085-.272l.11-.026a22.077,22.077,0,0,1,3.5-.512l.115,0c.322-.017.64-.027.955-.026.1,0,.19,0,.285.006.254,0,.507.013.756.029.117.008.231.02.347.03.223.02.444.044.662.074.124.017.247.037.37.058q.307.052.605.118c.125.027.25.056.373.087.193.049.382.1.57.163.12.038.242.074.36.115.187.065.369.139.551.214.111.046.223.088.332.138.193.088.379.187.565.287.089.048.181.091.268.141a9.221,9.221,0,0,1,.784.505c.18.13.353.272.521.419.151.129.3.267.439.407h0c6.151,6.053,5.18,22.769-3.477,34.74a37.34,37.34,0,0,1-6.235,6.8h0c-.4.331-.8.643-1.2.944-.087.066-.175.128-.263.193q-.49.358-.983.687c-.083.055-.165.112-.247.165-.4.262-.808.511-1.214.742l-.094.051c-.37.209-.742.4-1.114.587l-.291.141q-.53.252-1.061.471c-.054.022-.107.047-.16.068q-.613.246-1.227.446c-.077.025-.154.047-.232.071q-.505.158-1.01.286c-.1.024-.191.049-.287.072a17.643,17.643,0,0,1-2.431.4c-.1.009-.191.015-.287.023q-.5.038-.991.046c-.08,0-.161,0-.242,0-.4,0-.8-.012-1.2-.04-.053,0-.1-.011-.157-.015q-.519-.043-1.033-.118c-.1-.014-.2-.029-.3-.046-.35-.058-.7-.125-1.045-.206-.043-.01-.086-.017-.129-.028-.39-.094-.777-.2-1.162-.327-.083-.026-.165-.056-.248-.084q-.465-.157-.924-.341c-.09-.036-.18-.071-.27-.109-.379-.16-.756-.33-1.129-.519h0a19.093,19.093,0,0,1-2.567-1.57c-9.408-6.8-11.541-20.942-.979-32.294" transform="translate(-349.724 -69.716)" fill="#f08f4a"/>
    <path id="Trazado_730786" data-name="Trazado 730786" d="M593.5,115.39a.692.692,0,0,1-.355-1.286,15.258,15.258,0,0,1,11.5-1.411.692.692,0,1,1-.412,1.321,14.1,14.1,0,0,0-10.376,1.278.689.689,0,0,1-.354.1" transform="translate(-399.302 -75.542)" fill="#ffe09c"/>
    <path id="Trazado_730787" data-name="Trazado 730787" d="M165.335,94.934a49.628,49.628,0,0,1-2.225-20.416c0-.039.01-.078.015-.118q.072-.6.163-1.193c.009-.058.018-.115.027-.173q.09-.563.2-1.112.018-.094.037-.188.11-.543.236-1.071c.014-.058.027-.116.041-.174q.135-.549.289-1.08c.01-.036.02-.073.031-.109a22.07,22.07,0,0,1,1.253-3.309c.017-.035.035-.068.052-.1.141-.29.288-.573.441-.848.046-.084.1-.163.144-.245.128-.22.258-.437.393-.646.063-.1.129-.193.195-.289.126-.185.254-.367.387-.543.076-.1.153-.2.23-.3q.194-.243.4-.472c.085-.1.17-.191.257-.284.136-.145.277-.283.419-.419.091-.087.182-.175.276-.259.148-.132.3-.256.455-.378.094-.074.186-.152.282-.223.171-.126.348-.241.525-.354.085-.055.167-.114.254-.166a9.276,9.276,0,0,1,.822-.439c.2-.094.409-.176.62-.252.186-.069.377-.129.57-.185h0c8.279-2.436,22.418,6.534,28.675,19.917a37.316,37.316,0,0,1,2.918,8.755h0c.1.508.176,1.008.244,1.5.015.108.027.215.041.323q.075.6.123,1.193c.008.1.017.2.024.3.033.48.054.954.059,1.422,0,.036,0,.071,0,.106,0,.425-.008.844-.028,1.259-.005.108-.011.215-.018.323q-.037.585-.1,1.156c-.007.057-.011.116-.018.173q-.083.655-.207,1.289c-.015.08-.034.158-.05.237q-.107.519-.241,1.022c-.025.1-.05.191-.077.286a17.725,17.725,0,0,1-.831,2.32c-.039.088-.08.175-.12.261q-.209.452-.441.888c-.038.071-.074.143-.113.214-.195.352-.4.7-.62,1.031-.029.044-.06.086-.089.131q-.289.433-.605.845-.091.119-.183.236-.331.417-.688.813c-.029.033-.057.067-.087.1-.272.3-.556.58-.851.857-.064.06-.13.118-.195.176q-.362.33-.747.642c-.075.061-.15.123-.227.183-.324.254-.656.5-1,.734h0a19.153,19.153,0,0,1-2.619,1.481c-10.518,4.918-23.912-.087-28.7-14.834" transform="translate(-109.686 -39.872)" fill="#f08f4a"/>
    <path id="Trazado_730788" data-name="Trazado 730788" d="M172.147,86.659a.692.692,0,0,1-.691-.67,15.258,15.258,0,0,1,4.352-10.735.692.692,0,1,1,.955,1,14.1,14.1,0,0,0-3.924,9.69.692.692,0,0,1-.67.713h-.022" transform="translate(-115.485 -50.56)" fill="#ffe09c"/>
    <path id="Trazado_730789" data-name="Trazado 730789" d="M317.8,80.709A49.624,49.624,0,0,1,334.09,93.219l.075.092q.386.47.749.943l.106.139q.345.454.667.911l.11.156q.317.455.61.911l.1.15q.3.478.58.956c.019.033.039.065.057.1a22.062,22.062,0,0,1,1.524,3.193c.014.036.025.072.038.109q.167.454.307.9c.028.091.052.182.078.274.071.244.138.488.2.731.027.114.05.227.074.34.046.219.089.437.124.655.02.124.038.247.054.37q.041.308.067.613c.011.128.02.255.027.382.01.2.013.4.013.592,0,.126,0,.253,0,.378-.007.2-.023.394-.042.59-.011.119-.019.239-.034.358-.027.21-.067.417-.107.624-.019.1-.033.2-.055.3a9.229,9.229,0,0,1-.252.9c-.071.21-.155.417-.246.622-.079.182-.168.361-.26.54h0c-3.966,7.665-20.222,11.676-34.217,6.941a37.3,37.3,0,0,1-8.343-3.946h0c-.434-.281-.85-.57-1.255-.864-.089-.064-.175-.129-.262-.194q-.487-.362-.947-.736c-.077-.063-.155-.124-.231-.188-.369-.308-.727-.621-1.068-.941-.026-.024-.05-.05-.076-.074-.309-.292-.6-.59-.89-.891-.074-.079-.148-.158-.22-.237q-.4-.432-.764-.874c-.037-.044-.076-.088-.112-.133q-.416-.513-.788-1.041c-.047-.067-.091-.134-.137-.2q-.3-.436-.572-.881c-.052-.084-.1-.168-.153-.253a17.652,17.652,0,0,1-1.1-2.2c-.037-.089-.071-.178-.106-.267q-.183-.463-.336-.933c-.025-.077-.052-.153-.076-.229-.119-.384-.226-.771-.317-1.161-.012-.052-.021-.1-.032-.155-.075-.338-.139-.679-.192-1.022q-.023-.147-.044-.3c-.048-.351-.087-.7-.112-1.059,0-.044-.009-.087-.011-.131-.025-.4-.034-.8-.031-1.207,0-.087,0-.175.007-.262q.012-.49.053-.984c.008-.1.015-.193.025-.29.041-.409.092-.82.163-1.232h0a19.132,19.132,0,0,1,.742-2.916c3.721-11,16.6-17.213,30.563-10.476" transform="translate(-192.814 -52.482)" fill="#f08f4a"/>
    <path id="Trazado_730790" data-name="Trazado 730790" d="M306.115,97.677a.692.692,0,0,1-.582-1.065,15.26,15.26,0,0,1,9.657-6.4.692.692,0,1,1,.222,1.366,14.1,14.1,0,0,0-8.713,5.778.69.69,0,0,1-.583.319" transform="translate(-205.728 -60.76)" fill="#ffe09c"/>
    <path id="Trazado_730791" data-name="Trazado 730791" d="M214.735,206.764a13.427,13.427,0,0,1-7.948,7.939c-11.552,4.251-38.95,12.872-71.143,12.872-30.065,0-58.825-8.737-70.963-12.957a13.444,13.444,0,0,1-8.193-8.027L29.343,133.372S61,146.241,132.04,146.241c72.582,0,109.9-12.869,109.9-12.869Z" transform="translate(-19.765 -89.837)" fill="#966453"/>
    <path id="Trazado_730792" data-name="Trazado 730792" d="M345.734,363.562c-.88,0-1.758,0-2.641-.012a.277.277,0,0,1-.275-.279A.271.271,0,0,1,343.1,363a263.51,263.51,0,0,0,59.163-5.889c5.769-1.277,10.987-2.68,15.953-4.289a.277.277,0,0,1,.171.527c-4.983,1.614-10.218,3.022-16,4.3a262.767,262.767,0,0,1-56.646,5.914" transform="translate(-230.916 -237.644)" fill="#382118"/>
    <path id="Trazado_730793" data-name="Trazado 730793" d="M171.18,358.36h-.013c-17.184-.777-33.824-5.885-47.834-10.779a.277.277,0,1,1,.183-.523c13.972,4.881,30.563,9.975,47.676,10.749a.277.277,0,0,1-.012.553" transform="translate(-82.95 -233.762)" fill="#382118"/>
    <path id="Trazado_730794" data-name="Trazado 730794" d="M531.624,312a.277.277,0,0,1-.05-.549,229.524,229.524,0,0,0,26.808-6.528.277.277,0,0,1,.164.529A230.108,230.108,0,0,1,531.674,312a.258.258,0,0,1-.05,0" transform="translate(-357.907 -205.383)" fill="#382118"/>
    <path id="Trazado_730795" data-name="Trazado 730795" d="M248.108,334.52a241.438,241.438,0,0,1-39.88-2.835.277.277,0,1,1,.091-.546c21.809,3.649,44.081,2.962,65.62,2.3l4.215-.129a.277.277,0,0,1,.017.554l-4.214.129c-8.526.263-17.166.529-25.849.529" transform="translate(-140.103 -223.047)" fill="#382118"/>
    <path id="Trazado_730796" data-name="Trazado 730796" d="M105.158,308.938a.271.271,0,0,1-.072-.009c-3.42-.917-6.825-1.928-10.121-3.006a.277.277,0,0,1,.172-.526c3.287,1.074,6.683,2.083,10.093,3a.277.277,0,0,1-.071.544" transform="translate(-63.838 -205.7)" fill="#382118"/>
    <path id="Trazado_730797" data-name="Trazado 730797" d="M353.461,282.887q-1.883,0-3.764-.021a.277.277,0,0,1,0-.554h0a346.69,346.69,0,0,0,76.1-7.619.277.277,0,0,1,.116.542,347.366,347.366,0,0,1-72.461,7.652" transform="translate(-235.365 -185.025)" fill="#382118"/>
    <path id="Trazado_730798" data-name="Trazado 730798" d="M154.912,277.8h-.02a255.6,255.6,0,0,1-50.977-8.424.277.277,0,1,1,.15-.533,255.039,255.039,0,0,0,50.865,8.4.277.277,0,0,1-.019.553" transform="translate(-69.86 -181.08)" fill="#382118"/>
    <path id="Trazado_730799" data-name="Trazado 730799" d="M545.792,226.738a.277.277,0,0,1-.044-.55c10.588-1.715,21.476-3.949,32.36-6.64a.277.277,0,1,1,.133.537c-10.9,2.695-21.8,4.932-32.4,6.649a.263.263,0,0,1-.045,0" transform="translate(-367.45 -147.879)" fill="#382118"/>
    <path id="Trazado_730800" data-name="Trazado 730800" d="M251.736,250.272a392.143,392.143,0,0,1-45.338-2.529.277.277,0,1,1,.064-.55,410.621,410.621,0,0,0,63.493,2.168.277.277,0,1,1,.021.553q-9.318.357-18.24.357" transform="translate(-138.861 -166.504)" fill="#382118"/>
    <path id="Trazado_730801" data-name="Trazado 730801" d="M74.808,221.976a.27.27,0,0,1-.066-.008c-4.034-.98-8.095-2.06-12.072-3.211a.277.277,0,0,1,.154-.532c3.969,1.149,8.022,2.227,12.048,3.205a.277.277,0,0,1-.065.546" transform="translate(-42.079 -146.986)" fill="#382118"/>
    <path id="Trazado_730802" data-name="Trazado 730802" d="M145.859,189.625c-61.612,0-97.352-9.574-97.706-9.671a.277.277,0,1,1,.146-.534c.353.1,36.031,9.652,97.56,9.652,62.56,0,102.181-9.557,102.574-9.653a.277.277,0,1,1,.132.537c-.393.1-40.08,9.67-102.706,9.67" transform="translate(-32.298 -120.847)" fill="#382118"/>
    <path id="Trazado_730803" data-name="Trazado 730803" d="M106.351,165.518a.277.277,0,0,1-.114-.024c-.171-.077-17.178-7.8-24.059-15.956a.277.277,0,1,1,.423-.357c6.8,8.056,23.693,15.731,23.863,15.808a.277.277,0,0,1-.114.529" transform="translate(-55.31 -100.42)" fill="#382118"/>
    <path id="Trazado_730804" data-name="Trazado 730804" d="M191.349,177.549a.276.276,0,0,1-.116-.025c-.18-.083-17.995-8.345-23.871-13.768a.277.277,0,0,1,.376-.406c5.812,5.365,23.548,13.589,23.727,13.672a.277.277,0,0,1-.116.528" transform="translate(-112.673 -109.98)" fill="#382118"/>
    <path id="Trazado_730805" data-name="Trazado 730805" d="M284.649,184.031a.279.279,0,0,1-.09-.015c-.164-.056-16.471-5.719-24.145-12.369a.277.277,0,1,1,.363-.418c7.593,6.581,23.8,12.208,23.962,12.264a.277.277,0,0,1-.09.539" transform="translate(-175.346 -115.291)" fill="#382118"/>
    <path id="Trazado_730806" data-name="Trazado 730806" d="M378.75,184.118a.3.3,0,0,1-.056-.006c-.175-.037-17.63-3.713-28.361-10.867a.277.277,0,1,1,.307-.461c10.641,7.093,27.992,10.749,28.166,10.785a.277.277,0,0,1-.056.548" transform="translate(-235.895 -116.354)" fill="#382118"/>
    <path id="Trazado_730807" data-name="Trazado 730807" d="M479.9,179.652l-.033,0c-.193-.023-19.4-2.4-28.617-9.572a.277.277,0,1,1,.34-.437c9.1,7.077,28.152,9.435,28.343,9.459a.277.277,0,0,1-.033.552" transform="translate(-303.88 -114.229)" fill="#382118"/>
    <path id="Trazado_730808" data-name="Trazado 730808" d="M562.928,172.064a.282.282,0,0,1-.043,0c-.7-.111-17.312-2.774-21.793-8.336a.277.277,0,0,1,.431-.347c4.348,5.4,21.278,8.11,21.448,8.137a.277.277,0,0,1-.043.55" transform="translate(-364.429 -109.978)" fill="#382118"/>
    <path id="Trazado_730809" data-name="Trazado 730809" d="M629.261,156.843l-.031,0a37.425,37.425,0,0,1-17.13-7.266.277.277,0,0,1,.346-.433,36.831,36.831,0,0,0,16.845,7.148.277.277,0,0,1-.03.552" transform="translate(-412.23 -100.42)" fill="#382118"/>
    <path id="Trazado_730810" data-name="Trazado 730810" d="M130.795,143.964c-9.351,0-18.446-.179-27.367-.536-26.4-1.123-49.828-4.663-71.617-10.82l-.049-.019a6.8,6.8,0,0,1-2.4-2.006.277.277,0,0,1,.423-.357,6.269,6.269,0,0,0,2.2,1.857c21.741,6.142,45.116,9.672,71.464,10.793,24.11.965,49.528.628,77.7-1.029,22.612-1.739,42.1-5.264,59.576-10.776a1.422,1.422,0,0,0,.38-.856.277.277,0,1,1,.554-.011,2.044,2.044,0,0,1-.584,1.3l-.048.048-.065.02c-17.533,5.537-37.086,9.077-59.775,10.822-17.773,1.046-34.453,1.566-50.4,1.566" transform="translate(-19.734 -87.52)" fill="#382118"/>
    <path id="Trazado_730811" data-name="Trazado 730811" d="M175.174,124.525a.257.257,0,0,1-.041,0,.277.277,0,0,1-.233-.314c.015-.1,1.339-10.23-12.228-18.771a.277.277,0,0,1,.3-.469c7.245,4.562,10.254,9.557,11.5,12.943a13.99,13.99,0,0,1,.979,6.379.277.277,0,0,1-.273.236" transform="translate(-109.485 -70.676)" fill="#382118"/>
    <path id="Trazado_730812" data-name="Trazado 730812" d="M382.455,99.819a.277.277,0,0,1-.254-.165,38.025,38.025,0,0,0-6.8-9.618,40,40,0,0,0-23.228-12.069.277.277,0,1,1,.082-.547,40.552,40.552,0,0,1,23.562,12.251,38.582,38.582,0,0,1,6.891,9.76.277.277,0,0,1-.253.388" transform="translate(-237.058 -52.147)" fill="#382118"/>
    <path id="Trazado_730813" data-name="Trazado 730813" d="M527.911,134.85a.281.281,0,0,1-.1-.02.277.277,0,0,1-.154-.36c.029-.071,2.987-7.239,13.765-13.982a.277.277,0,1,1,.293.469C531.1,127.6,528.2,134.606,528.168,134.676a.277.277,0,0,1-.257.174" transform="translate(-355.405 -81.131)" fill="#382118"/>
    <path id="Trazado_730814" data-name="Trazado 730814" d="M45.042,369.185a49.629,49.629,0,0,1-17.083-11.4l-.081-.087q-.417-.443-.81-.891l-.115-.132q-.374-.43-.726-.865l-.12-.149q-.347-.433-.67-.869l-.107-.143q-.335-.456-.643-.915l-.064-.093a22.037,22.037,0,0,1-1.733-3.085c-.016-.035-.03-.07-.045-.106q-.2-.441-.367-.882c-.034-.089-.064-.179-.1-.268-.087-.239-.169-.478-.243-.716-.035-.112-.065-.223-.1-.334-.061-.216-.118-.431-.168-.645-.028-.122-.054-.245-.079-.366q-.062-.305-.107-.607c-.019-.127-.037-.253-.052-.38-.024-.2-.039-.394-.053-.59-.008-.126-.018-.252-.022-.377-.006-.2,0-.395,0-.591,0-.119,0-.24.01-.359.013-.212.039-.421.065-.63.013-.1.02-.2.036-.3a9.266,9.266,0,0,1,.191-.913c.057-.214.127-.426.2-.637.066-.187.143-.371.223-.556h0c3.447-7.912,19.4-13,33.679-9.2a37.318,37.318,0,0,1,8.587,3.382h0c.451.251.886.512,1.31.778.092.058.182.118.274.176q.51.328.994.671c.081.057.163.114.243.172.389.283.767.571,1.128.868l.081.069c.328.271.642.548.947.83q.119.11.236.221.425.4.82.822c.04.042.082.083.121.125q.449.484.855.986c.052.063.1.127.15.191q.329.415.629.841c.057.081.115.161.17.242a17.7,17.7,0,0,1,1.245,2.126c.042.086.083.173.124.259q.213.45.4.908c.03.075.062.149.091.224q.217.563.393,1.138c.015.05.027.1.042.152.1.333.183.669.26,1.007.022.1.043.195.063.292.071.347.133.7.182,1.049.006.043.014.086.02.13.052.4.087.8.111,1.2.005.087.007.175.01.262q.021.49.013.985c0,.1,0,.194-.005.291-.013.411-.037.824-.08,1.24h0a19.2,19.2,0,0,1-.546,2.959c-2.981,11.222-15.416,18.28-29.8,12.487" transform="translate(-14.522 -222.831)" fill="#f08f4a"/>
    <path id="Trazado_730815" data-name="Trazado 730815" d="M34.915,351.306a.692.692,0,0,1-.559-1.1,15.26,15.26,0,0,1,10.028-5.8.692.692,0,1,1,.138,1.377,14.1,14.1,0,0,0-9.048,5.238.692.692,0,0,1-.56.284" transform="translate(-23.052 -231.984)" fill="#ffe09c"/>
  </g>
</svg>
