<svg id="Grupo_997217" data-name="Grupo 997217" xmlns="http://www.w3.org/2000/svg" xmlns:xlink="http://www.w3.org/1999/xlink" width="210.346" height="163.814" viewBox="0 0 210.346 163.814">
  <defs>
    <clipPath id="clip-path">
      <rect id="Rectángulo_349647" data-name="Rectángulo 349647" width="210.346" height="163.814" fill="none"/>
    </clipPath>
  </defs>
  <g id="Grupo_997216" data-name="Grupo 997216" clip-path="url(#clip-path)">
    <path id="Trazado_731035" data-name="Trazado 731035" d="M205.427,417.807c-28.153,19.823-70.971,25.178-126.242,25.178S12.9,428.379,12.9,416.17s23.486-24.857,78.274-18.014c50.8,6.346,136.054,4.3,114.25,19.651" transform="translate(-10.273 -315.479)" fill="#f2e1bd"/>
    <path id="Trazado_731036" data-name="Trazado 731036" d="M797.865,420.959a40.77,40.77,0,0,1-2.185,9.335c3.785,4.294,2.45,3.744,2.6,3.887s-2.539-1.689-2.539-1.689a2.452,2.452,0,0,1-2.869,2.279c-2.055-.09-2.316,1.091-2.316,1.091-.472-1.16,1.262-2.088,1.262-2.088-9.715-1.343-8.933.394-8.933.394-1.245-2.6,8.013-1.835,8.013-1.835a8.666,8.666,0,0,0-5.006-.741c1.709-1.807,7.187.094,7.187.094a67.114,67.114,0,0,0,2.148-10.654Z" transform="translate(-623.244 -335.169)" fill="#ecc362"/>
    <path id="Trazado_731037" data-name="Trazado 731037" d="M856.008,481.739a7.289,7.289,0,0,1-.735-.47,1.064,1.064,0,0,1,.426-.579c.781,1.17.207.953.309,1.049" transform="translate(-680.972 -382.727)" fill="#a6513c"/>
    <path id="Trazado_731038" data-name="Trazado 731038" d="M820.661,490.812a1.078,1.078,0,0,1,.007-.837,2.452,2.452,0,0,1,.589.1,1.306,1.306,0,0,0-.6.735" transform="translate(-653.349 -390.12)" fill="#a6513c"/>
    <path id="Trazado_731039" data-name="Trazado 731039" d="M783.333,485.767h0" transform="translate(-623.693 -386.77)" fill="#a6513c"/>
    <path id="Trazado_731040" data-name="Trazado 731040" d="M782.887,482.621a.844.844,0,0,1-.023-.805,1.261,1.261,0,0,1,.522.211c-.625.252-.508.571-.5.594" transform="translate(-623.247 -383.624)" fill="#a6513c"/>
    <path id="Trazado_731041" data-name="Trazado 731041" d="M799.084,471.162s0,.005,0,.008a5.455,5.455,0,0,0-.99.1,2.1,2.1,0,0,1,.715-.478.453.453,0,0,1,.277.372" transform="translate(-635.445 -374.845)" fill="#a6513c"/>
    <path id="Trazado_731042" data-name="Trazado 731042" d="M857.577,421.785c-.043,6.825,1.686,9.84,1.686,9.84,3.785,4.294,2.45,3.744,2.6,3.887s-2.539-1.689-2.539-1.689a2.452,2.452,0,0,1-2.869,2.279c-2.055-.09-2.316,1.091-2.316,1.091-.472-1.16,1.262-2.088,1.262-2.088-9.715-1.343-8.933.394-8.933.394-1.245-2.6,8.013-1.835,8.013-1.835a8.665,8.665,0,0,0-5.006-.741c1.709-1.807,7.187.094,7.187.094a58.135,58.135,0,0,0-2.157-10.633Z" transform="translate(-673.869 -335.827)" fill="#ecc362"/>
    <path id="Trazado_731043" data-name="Trazado 731043" d="M919.59,485.043a7.251,7.251,0,0,1-.735-.47,1.063,1.063,0,0,1,.426-.578c.781,1.17.207.953.309,1.049" transform="translate(-731.596 -385.358)" fill="#a6513c"/>
    <path id="Trazado_731044" data-name="Trazado 731044" d="M884.243,494.115a1.077,1.077,0,0,1,.007-.837,2.453,2.453,0,0,1,.589.1,1.306,1.306,0,0,0-.6.735" transform="translate(-703.973 -392.75)" fill="#a6513c"/>
    <path id="Trazado_731045" data-name="Trazado 731045" d="M846.914,489.07h0" transform="translate(-674.316 -389.4)" fill="#a6513c"/>
    <path id="Trazado_731046" data-name="Trazado 731046" d="M846.468,485.924a.844.844,0,0,1-.023-.805,1.26,1.26,0,0,1,.522.211c-.625.252-.508.571-.5.594" transform="translate(-673.871 -386.254)" fill="#a6513c"/>
    <path id="Trazado_731047" data-name="Trazado 731047" d="M862.667,474.465s0,.005,0,.008a5.455,5.455,0,0,0-.99.1,2.1,2.1,0,0,1,.715-.478.453.453,0,0,1,.277.372" transform="translate(-686.069 -377.475)" fill="#a6513c"/>
    <path id="Trazado_731048" data-name="Trazado 731048" d="M632.368,340.933a6.42,6.42,0,0,0-.787-1.19,2.61,2.61,0,0,0-2.659-.478,4.684,4.684,0,0,0-.923,3.647,2.341,2.341,0,0,1-.114,1.034c-.348.81-1.594,1.476-1.194,2.27.23.456.9.619,1.344.949a2,2,0,0,1,.7,1.8c-.044.652-.255,1.293-.266,1.946a1.059,1.059,0,0,0,.152.641,1.6,1.6,0,0,0,.635.455,12.118,12.118,0,0,0,4.039,1.118c1-1.509.734-3.349.607-5.068-.111-1.5.217-3.056.061-4.53-.141-1.329-.835-1.407-1.6-2.6" transform="translate(-498.912 -269.988)" fill="#e34927"/>
    <path id="Trazado_731049" data-name="Trazado 731049" d="M667.711,400.565a3.55,3.55,0,0,1,3.44.551c3.243,4.387,5.257,2.225,5.157.445a4.768,4.768,0,0,0-1.816-3.533c-3.139-1.663-6.573,1.438-6.573,1.438Z" transform="translate(-531.634 -316.522)" fill="#e34927"/>
    <path id="Trazado_731050" data-name="Trazado 731050" d="M648.2,85.106c-4.49-4.1-4.3-9.372-1.757-10.933a24.8,24.8,0,0,0,4.1-3.433,14.59,14.59,0,0,1,3.076-2.342,36.714,36.714,0,0,0,10.2-9.259c1.317-3.82,13.39-12.441,21.1-17.644,5.2-3.51,7.88-9.5,12.571-13.672,9.14-8.122,10.839-23.546,10.839-23.546,2.4-7.224,4.158.586,4.158.586,4.3-2.343,3.9,5.662,3.9,5.662,1.552.517,3.621.775,2.929,4.49-1.385,7.427,2.48,16.4,2.48,16.4,3.71,9.762.586,17.376.586,17.376-1.757,3.319-.781,8.786-.781,8.786,1.171,12.691-12.3,17.571-12.3,17.571-7.224,3.514-8,8-8,8C697.6,92.72,681,85.106,681,85.106c-9.762,1.367-21.281-2.929-21.281-2.929-5.857-2.538-10.543,3.319-10.543,3.319Z" transform="translate(-513.276 -0.964)" fill="#f08f4a"/>
    <path id="Trazado_731051" data-name="Trazado 731051" d="M655.892,378.775a11.627,11.627,0,0,1-2.836-5.452,2.159,2.159,0,0,1,.739-2.132c.531-.486,1.288-.971,1.278-1.784.245,1.007,1.132,1.677,1.586,2.578a5.53,5.53,0,0,1,.4,3.226,4.5,4.5,0,0,0,1.481-.676Z" transform="translate(-519.931 -294.123)" fill="#e34927"/>
    <path id="Trazado_731052" data-name="Trazado 731052" d="M660.162,406.4c-.343,2.2,1.984,4.231,1.984,4.231a8.918,8.918,0,0,1,.661-3.934c-.151-.349.8-1.546.8-1.546a6.489,6.489,0,0,0-2.355.916,1.6,1.6,0,0,1-1.089.334" transform="translate(-525.596 -322.582)" fill="#ecc362"/>
    <path id="Trazado_731053" data-name="Trazado 731053" d="M662.3,412.576c.086,0,.155.121.154.27s-.073.267-.159.266-.155-.121-.154-.269.073-.267.159-.267" transform="translate(-527.203 -328.495)" fill="#382118"/>
    <path id="Trazado_731054" data-name="Trazado 731054" d="M658.434,382.753c.179.3-.406.811-.406.811a1.467,1.467,0,0,0,.024,2.337,2.623,2.623,0,0,1,.7,1.038,4.718,4.718,0,0,1,.692-1.145,1.424,1.424,0,0,0-.322-2.158,2.669,2.669,0,0,1-.691-.882" transform="translate(-523.47 -304.749)" fill="#382118"/>
    <path id="Trazado_731055" data-name="Trazado 731055" d="M659.652,389.712a.689.689,0,1,0,.707-.76.737.737,0,0,0-.707.76" transform="translate(-525.218 -309.686)" fill="#f79854"/>
    <path id="Trazado_731056" data-name="Trazado 731056" d="M662.06,393.037a.293.293,0,1,0,.3-.284.293.293,0,0,0-.3.284" transform="translate(-527.135 -312.712)" fill="#382118"/>
    <path id="Trazado_731057" data-name="Trazado 731057" d="M965.741,36.2a.2.2,0,0,1-.051-.007.194.194,0,0,1-.137-.238c.3-1.127.585-2.259.838-3.364,1.052-4.6,1.95-9.509,1.406-14.2a.194.194,0,0,1,.386-.045c.551,4.752-.353,9.7-1.413,14.334-.254,1.109-.537,2.246-.841,3.378a.194.194,0,0,1-.187.144" transform="translate(-768.772 -14.471)" fill="#382118"/>
    <path id="Trazado_731058" data-name="Trazado 731058" d="M979.649,66.651a.191.191,0,0,1-.065-.011.194.194,0,0,1-.118-.248c.041-.115,4.077-11.581,3.309-20.223a.194.194,0,1,1,.387-.034c.776,8.727-3.288,20.271-3.33,20.387a.194.194,0,0,1-.183.129" transform="translate(-779.846 -36.592)" fill="#382118"/>
    <path id="Trazado_731059" data-name="Trazado 731059" d="M795.417,236.429a.194.194,0,0,1-.018-.387,47.738,47.738,0,0,0,21.419-7.449,11.865,11.865,0,0,0,2.718-2.221,13.894,13.894,0,0,0,1.573-2.523c2.792-5.283,5.957-11.27,5.8-17.689a.194.194,0,0,1,.388-.009c.156,6.52-3.034,12.555-5.848,17.88a14.208,14.208,0,0,1-1.62,2.592,12.215,12.215,0,0,1-2.8,2.3,48.128,48.128,0,0,1-21.594,7.51h-.018" transform="translate(-633.16 -163.987)" fill="#382118"/>
    <path id="Trazado_731060" data-name="Trazado 731060" d="M862.911,217.247a.194.194,0,0,1-.082-.37,24.441,24.441,0,0,0,13.628-18.1.194.194,0,0,1,.383.061,24.834,24.834,0,0,1-13.847,18.389.194.194,0,0,1-.082.018" transform="translate(-686.899 -158.138)" fill="#382118"/>
    <path id="Trazado_731061" data-name="Trazado 731061" d="M829.063,210.948a.194.194,0,0,1-.106-.357c2.762-1.8,5.641-3.482,8.555-5.013l.5-.259a25.987,25.987,0,0,0,3.989-2.4,8.287,8.287,0,0,0,2.978-4.074.194.194,0,0,1,.374.106,8.524,8.524,0,0,1-3.113,4.274,26.261,26.261,0,0,1-4.048,2.435l-.495.259c-2.9,1.526-5.772,3.206-8.524,4.995a.193.193,0,0,1-.106.031" transform="translate(-659.949 -158.212)" fill="#382118"/>
    <path id="Trazado_731062" data-name="Trazado 731062" d="M998.809,96.344a.194.194,0,0,1-.183-.26,35.5,35.5,0,0,0,1.746-9.7.194.194,0,0,1,.388.014,35.909,35.909,0,0,1-1.769,9.821.194.194,0,0,1-.182.128" transform="translate(-795.101 -68.628)" fill="#382118"/>
    <path id="Trazado_731063" data-name="Trazado 731063" d="M807.141,379.869a.552.552,0,0,0,.341-.351,1.9,1.9,0,0,0,.11-.491,4.782,4.782,0,0,0,.053-1.013,1.216,1.216,0,0,0-.108-.409.908.908,0,0,0-.23-.3.48.48,0,0,0-.271-.118,1.606,1.606,0,0,1-.336-.045.633.633,0,0,1-.291-.174.591.591,0,0,1-.156-.359.91.91,0,0,1,.106-.444,1.563,1.563,0,0,0,.073-.195,1.4,1.4,0,0,0,.054-.418,2.073,2.073,0,0,0-.222-.879,4.955,4.955,0,0,0-1.4-1.512,3.85,3.85,0,0,1,1.041.41,2.841,2.841,0,0,1,.878.779,2.366,2.366,0,0,1,.439,1.16,2.026,2.026,0,0,1-.047.656,2.2,2.2,0,0,1-.109.314c-.039.075-.04.133-.036.073a.2.2,0,0,0-.052-.115.144.144,0,0,0-.059-.041,1.717,1.717,0,0,0,.2.024,1.206,1.206,0,0,1,.689.342,1.5,1.5,0,0,1,.367.592,1.693,1.693,0,0,1,.081.652,3.607,3.607,0,0,1-.3,1.118,1.879,1.879,0,0,1-.3.509.825.825,0,0,1-.237.189.478.478,0,0,1-.285.046" transform="translate(-640.838 -297.112)" fill="#c96f4f"/>
    <path id="Trazado_731064" data-name="Trazado 731064" d="M757.276,352.986a.644.644,0,0,0,.438-.251.9.9,0,0,0,.188-.447,2.193,2.193,0,0,0,.011-.507c-.015-.176-.022-.358-.043-.528a1.516,1.516,0,0,0-.307-.846c-.041-.047-.1-.1-.178-.172a1.006,1.006,0,0,1-.23-.311.722.722,0,0,1-.033-.476c.033-.133.081-.225.1-.3a2.773,2.773,0,0,0-1.208-3.266l-.388-.212.259-.332a2.149,2.149,0,0,0,.414-.969,2.185,2.185,0,0,0-.09-1.082,2.315,2.315,0,0,0-.634-.937,2.555,2.555,0,0,0-1.057-.572,2.243,2.243,0,0,1,1.232.334,2.458,2.458,0,0,1,.918.974,2.605,2.605,0,0,1,.271,1.354,2.632,2.632,0,0,1-.463,1.332l-.13-.543a3.281,3.281,0,0,1,1.513,4.188c-.042.1-.08.165-.094.207s-.014.033-.014.055a.353.353,0,0,0,.081.13c.049.061.119.131.188.227a1.523,1.523,0,0,1,.259.6,2.754,2.754,0,0,1,.038.594c-.008.191-.02.371-.042.556a2.5,2.5,0,0,1-.122.566,1.058,1.058,0,0,1-.343.482.67.67,0,0,1-.538.146" transform="translate(-600.752 -272.127)" fill="#c96f4f"/>
    <path id="Trazado_731065" data-name="Trazado 731065" d="M719.7,325.949a1.473,1.473,0,0,1,.966.334,2.092,2.092,0,0,1,.778,1.866,1.465,1.465,0,0,1-.444.921,7.234,7.234,0,0,0-.169-.894,5.872,5.872,0,0,0-.256-.76,5.712,5.712,0,0,0-.359-.718,7.066,7.066,0,0,0-.516-.749" transform="translate(-573.032 -259.52)" fill="#c96f4f"/>
    <path id="Trazado_731066" data-name="Trazado 731066" d="M173.246,422.5a40.77,40.77,0,0,0,2.185,9.335c-3.785,4.294-2.45,3.744-2.6,3.887s2.54-1.689,2.54-1.689a2.452,2.452,0,0,0,2.869,2.279c2.055-.09,2.316,1.091,2.316,1.091.472-1.16-1.262-2.088-1.262-2.088,9.715-1.343,8.933.394,8.933.394,1.245-2.6-8.013-1.835-8.013-1.835a8.665,8.665,0,0,1,5.006-.741c-1.709-1.807-7.187.094-7.187.094a67.111,67.111,0,0,1-2.148-10.654Z" transform="translate(-137.52 -336.393)" fill="#ecc362"/>
    <path id="Trazado_731067" data-name="Trazado 731067" d="M172.835,483.276a7.226,7.226,0,0,0,.735-.47,1.061,1.061,0,0,0-.426-.578c-.781,1.17-.207.953-.309,1.049" transform="translate(-137.525 -383.951)" fill="#a6513c"/>
    <path id="Trazado_731068" data-name="Trazado 731068" d="M208.832,492.35a1.078,1.078,0,0,0-.007-.837,2.443,2.443,0,0,0-.589.1,1.305,1.305,0,0,1,.6.735" transform="translate(-165.798 -391.345)" fill="#a6513c"/>
    <path id="Trazado_731069" data-name="Trazado 731069" d="M248.806,487.3h0" transform="translate(-198.1 -387.993)" fill="#a6513c"/>
    <path id="Trazado_731070" data-name="Trazado 731070" d="M246.858,484.157a.844.844,0,0,0,.023-.805,1.26,1.26,0,0,0-.522.211c.625.252.508.571.5.594" transform="translate(-196.152 -384.847)" fill="#a6513c"/>
    <path id="Trazado_731071" data-name="Trazado 731071" d="M229.182,472.7s0,.005,0,.008a5.454,5.454,0,0,1,.99.1,2.1,2.1,0,0,0-.715-.478.453.453,0,0,0-.277.372" transform="translate(-182.476 -376.069)" fill="#a6513c"/>
    <path id="Trazado_731072" data-name="Trazado 731072" d="M113.534,423.321c.043,6.825-1.686,9.84-1.686,9.84-3.785,4.294-2.45,3.744-2.6,3.887s2.54-1.689,2.54-1.689a2.452,2.452,0,0,0,2.869,2.279c2.055-.09,2.316,1.091,2.316,1.091.472-1.16-1.262-2.088-1.262-2.088,9.715-1.343,8.933.394,8.933.394,1.245-2.6-8.013-1.835-8.013-1.835a8.665,8.665,0,0,1,5.006-.741c-1.709-1.807-7.187.094-7.187.094a58.14,58.14,0,0,1,2.157-10.633Z" transform="translate(-86.896 -337.05)" fill="#ecc362"/>
    <path id="Trazado_731073" data-name="Trazado 731073" d="M109.254,486.579a7.277,7.277,0,0,0,.735-.47,1.062,1.062,0,0,0-.426-.578c-.781,1.17-.207.953-.309,1.049" transform="translate(-86.902 -386.581)" fill="#a6513c"/>
    <path id="Trazado_731074" data-name="Trazado 731074" d="M145.251,495.652a1.077,1.077,0,0,0-.007-.837,2.453,2.453,0,0,0-.589.1,1.3,1.3,0,0,1,.6.735" transform="translate(-115.175 -393.974)" fill="#a6513c"/>
    <path id="Trazado_731075" data-name="Trazado 731075" d="M185.224,490.606h0" transform="translate(-147.475 -390.622)" fill="#a6513c"/>
    <path id="Trazado_731076" data-name="Trazado 731076" d="M183.276,487.46a.844.844,0,0,0,.023-.805,1.26,1.26,0,0,0-.522.211c.625.252.508.571.5.594" transform="translate(-145.528 -387.477)" fill="#a6513c"/>
    <path id="Trazado_731077" data-name="Trazado 731077" d="M165.6,476s0,.005,0,.008a5.452,5.452,0,0,1,.99.1,2.1,2.1,0,0,0-.715-.477.453.453,0,0,0-.277.372" transform="translate(-131.851 -378.699)" fill="#a6513c"/>
    <path id="Trazado_731078" data-name="Trazado 731078" d="M370.766,342.469a6.42,6.42,0,0,1,.787-1.19,2.61,2.61,0,0,1,2.659-.478,4.683,4.683,0,0,1,.923,3.647,2.342,2.342,0,0,0,.114,1.034c.348.81,1.594,1.476,1.194,2.269-.23.456-.9.619-1.344.95a2,2,0,0,0-.7,1.8c.044.652.255,1.293.266,1.946a1.059,1.059,0,0,1-.152.641,1.6,1.6,0,0,1-.635.455,12.118,12.118,0,0,1-4.039,1.118c-1-1.509-.734-3.349-.607-5.068.111-1.5-.217-3.056-.061-4.53.141-1.329.835-1.407,1.6-2.6" transform="translate(-293.876 -271.211)" fill="#e34927"/>
    <path id="Trazado_731079" data-name="Trazado 731079" d="M330.828,402.1a3.55,3.55,0,0,0-3.44.551c-3.243,4.387-5.257,2.225-5.157.445a4.768,4.768,0,0,1,1.816-3.533C327.186,397.9,330.62,401,330.62,401Z" transform="translate(-256.559 -317.745)" fill="#e34927"/>
    <path id="Trazado_731080" data-name="Trazado 731080" d="M75.421,84.454c4.49-4.1,4.3-9.372,1.757-10.933a24.774,24.774,0,0,1-4.1-3.433,14.6,14.6,0,0,0-3.076-2.342,36.71,36.71,0,0,1-10.2-9.259c-1.317-3.82-13.39-12.441-21.1-17.644A40.006,40.006,0,0,1,26.126,27.172,203.734,203.734,0,0,1,15.287,3.625c-4.491-8.591-5.272.781-5.272.781C5.72,2.063,4.744,11.63,4.744,11.63-.527,13.387,1.816,30.764,1.816,30.764-1.894,40.526,1.23,48.14,1.23,48.14c1.757,3.319.781,8.786.781,8.786C.839,69.616,14.311,74.5,14.311,74.5c7.224,3.514,8,8,8,8,3.709,9.567,20.305,1.952,20.305,1.952C52.382,85.821,63.9,81.526,63.9,81.526c5.857-2.538,10.543,3.319,10.543,3.319Z" transform="translate(0 0)" fill="#fff"/>
    <path id="Trazado_731081" data-name="Trazado 731081" d="M354.642,380.312a11.626,11.626,0,0,0,2.836-5.452,2.158,2.158,0,0,0-.739-2.132c-.531-.487-1.288-.971-1.278-1.784-.245,1.007-1.131,1.677-1.586,2.578a5.53,5.53,0,0,0-.4,3.226,4.5,4.5,0,0,1-1.481-.676Z" transform="translate(-280.257 -295.347)" fill="#e34927"/>
    <path id="Trazado_731082" data-name="Trazado 731082" d="M358.388,407.937c.343,2.2-1.984,4.231-1.984,4.231a8.919,8.919,0,0,0-.661-3.935c.151-.349-.8-1.546-.8-1.546a6.488,6.488,0,0,1,2.355.916,1.6,1.6,0,0,0,1.089.334" transform="translate(-282.608 -323.806)" fill="#ecc362"/>
    <path id="Trazado_731083" data-name="Trazado 731083" d="M368.613,414.113c-.086,0-.155.121-.154.27s.073.267.159.266.155-.121.154-.269-.073-.267-.159-.267" transform="translate(-293.368 -329.718)" fill="#382118"/>
    <path id="Trazado_731084" data-name="Trazado 731084" d="M364.486,384.29c-.179.3.406.811.406.811a1.467,1.467,0,0,1-.024,2.337,2.624,2.624,0,0,0-.7,1.038,4.718,4.718,0,0,0-.692-1.145,1.424,1.424,0,0,1,.322-2.158,2.667,2.667,0,0,0,.691-.882" transform="translate(-289.104 -305.973)" fill="#382118"/>
    <path id="Trazado_731085" data-name="Trazado 731085" d="M367.147,391.249a.689.689,0,1,1-.707-.76.737.737,0,0,1,.707.76" transform="translate(-291.236 -310.909)" fill="#f79854"/>
    <path id="Trazado_731086" data-name="Trazado 731086" d="M367.791,394.573a.293.293,0,1,1-.3-.284.293.293,0,0,1,.3.284" transform="translate(-292.37 -313.935)" fill="#382118"/>
    <path id="Trazado_731087" data-name="Trazado 731087" d="M52.428,42.338a.194.194,0,0,1-.179-.118c-.055-.129-5.475-13.029-4.5-21.379a.194.194,0,1,1,.386.045c-.959,8.249,4.422,21.054,4.476,21.183a.194.194,0,0,1-.179.27" transform="translate(-37.922 -16.457)" fill="#382118"/>
    <path id="Trazado_731088" data-name="Trazado 731088" d="M27.32,74.857a.194.194,0,0,1-.166-.093c-.059-.1-5.882-9.722-5.1-18.471a.194.194,0,1,1,.387.034c-.766,8.619,4.99,18.139,5.048,18.234a.194.194,0,0,1-.165.3" transform="translate(-17.5 -44.68)" fill="#382118"/>
    <path id="Trazado_731089" data-name="Trazado 731089" d="M111.38,237.965h-.018a48.127,48.127,0,0,1-21.594-7.51,12.211,12.211,0,0,1-2.8-2.3,14.187,14.187,0,0,1-1.62-2.592c-2.814-5.325-6-11.36-5.848-17.88a.194.194,0,1,1,.388.009c-.153,6.419,3.011,12.406,5.8,17.689a13.9,13.9,0,0,0,1.573,2.523,11.87,11.87,0,0,0,2.718,2.221,47.738,47.738,0,0,0,21.419,7.449.194.194,0,0,1-.018.387" transform="translate(-63.291 -165.21)" fill="#382118"/>
    <path id="Trazado_731090" data-name="Trazado 731090" d="M114.04,218.784a.194.194,0,0,1-.082-.018,24.835,24.835,0,0,1-13.847-18.389.194.194,0,0,1,.383-.061,24.441,24.441,0,0,0,13.628,18.1.194.194,0,0,1-.082.37" transform="translate(-79.706 -159.362)" fill="#382118"/>
    <path id="Trazado_731091" data-name="Trazado 731091" d="M138.661,212.484a.193.193,0,0,1-.106-.031c-2.751-1.788-5.619-3.468-8.524-4.995l-.5-.26a26.243,26.243,0,0,1-4.047-2.434,8.525,8.525,0,0,1-3.113-4.274.194.194,0,1,1,.374-.106,8.287,8.287,0,0,0,2.978,4.073,25.955,25.955,0,0,0,3.988,2.4l.5.26c2.915,1.532,5.794,3.218,8.555,5.013a.194.194,0,0,1-.106.357" transform="translate(-97.429 -159.435)" fill="#382118"/>
    <path id="Trazado_731092" data-name="Trazado 731092" d="M213.24,401.751a.194.194,0,0,1-.024-.387,34.854,34.854,0,0,0,8.645-2.241.194.194,0,0,1,.145.36,35.236,35.236,0,0,1-8.741,2.266h-.024" transform="translate(-169.628 -317.772)" fill="#382118"/>
    <rect id="Rectángulo_349645" data-name="Rectángulo 349645" width="21.867" height="34.753" transform="translate(92.016 54.583)" fill="#bababa"/>
    <path id="Trazado_731093" data-name="Trazado 731093" d="M442.7,160.66H408.762a3.236,3.236,0,0,1-3.236-3.236v-.362a3.236,3.236,0,0,1,3.236-3.236H442.7a3.236,3.236,0,0,1,3.236,3.236v.362a3.236,3.236,0,0,1-3.236,3.236" transform="translate(-322.881 -122.478)" fill="#d8d8da"/>
    <path id="Trazado_731094" data-name="Trazado 731094" d="M493.064,113.224h-8.981v-7.9a3.229,3.229,0,0,1,3.229-3.229h2.524a3.229,3.229,0,0,1,3.229,3.229Z" transform="translate(-385.429 -81.288)" fill="#bababa"/>
    <path id="Trazado_731095" data-name="Trazado 731095" d="M555.217,283.017a14.614,14.614,0,0,0-10.818-10.8c-4.506-1.082-11.183-2.4-20.8-3.713l-3.339.267q-.571-.234-1.152-.462l-2.929.2a107.183,107.183,0,0,1,9.843,5.807,14.535,14.535,0,0,1,6.321,10.419,119.579,119.579,0,0,1,.626,18.135h4.686a106.1,106.1,0,0,0-.8-19.185,14.514,14.514,0,0,0-7.412-10.528c-2.063-1.122-4.582-2.4-7.374-3.618a141.059,141.059,0,0,1,18.487,4.926,14.675,14.675,0,0,1,9.642,12.643,107.96,107.96,0,0,1,.151,14.785l6.248-.2s1.291-7.486-1.375-18.68" transform="translate(-410.982 -213.63)" fill="#4d99bf"/>
    <path id="Trazado_731096" data-name="Trazado 731096" d="M332.481,269.251l-3.339-.267c-9.619,1.315-16.3,2.631-20.8,3.713a14.614,14.614,0,0,0-10.818,10.8c-2.666,11.194-1.375,18.68-1.375,18.68l6.248.2a107.962,107.962,0,0,1,.151-14.785,14.675,14.675,0,0,1,9.642-12.643,141.061,141.061,0,0,1,18.487-4.926c-2.793,1.221-5.312,2.5-7.374,3.618a14.514,14.514,0,0,0-7.412,10.528,106.1,106.1,0,0,0-.8,19.185h4.686a119.576,119.576,0,0,1,.626-18.135,14.536,14.536,0,0,1,6.321-10.42,107.231,107.231,0,0,1,9.843-5.807l-2.929-.2q-.582.228-1.152.462" transform="translate(-235.544 -214.011)" fill="#4d99bf"/>
    <rect id="Rectángulo_349646" data-name="Rectángulo 349646" width="3.905" height="33.386" transform="translate(101.192 54.778)" fill="#4d99bf"/>
    <path id="Trazado_731097" data-name="Trazado 731097" d="M377.092,436.429H288.648v-8.561a1.006,1.006,0,0,1,1.006-1.006h86.431a1.006,1.006,0,0,1,1.006,1.006Z" transform="translate(-229.823 -339.869)" fill="#4d99bf"/>
    <path id="Trazado_731098" data-name="Trazado 731098" d="M469.271,164.953l-.805-20.988a2.67,2.67,0,0,0-2.646-2.591H453.947a2.671,2.671,0,0,0-2.647,2.612l-.648,20.945h-.062a2.454,2.454,0,0,0-2.431,2.475v.506a72.9,72.9,0,0,0,11.519.8,84.036,84.036,0,0,0,11.714-.8v-.506a2.459,2.459,0,0,0-2.121-2.453" transform="translate(-356.826 -112.563)" fill="#73c0e6"/>
    <path id="Trazado_731099" data-name="Trazado 731099" d="M468.552,257.314a50.767,50.767,0,0,1-9.217-.59.194.194,0,0,1,.081-.379,50.492,50.492,0,0,0,9.136.581,65,65,0,0,0,9.535-.583.194.194,0,1,1,.064.383,65.326,65.326,0,0,1-9.6.588" transform="translate(-365.602 -204.099)" fill="#382118"/>
    <path id="Trazado_731100" data-name="Trazado 731100" d="M379.172,426.3H292.681a.194.194,0,0,1,0-.388h86.491a.194.194,0,0,1,0,.388" transform="translate(-232.879 -339.111)" fill="#382118"/>
    <path id="Trazado_731101" data-name="Trazado 731101" d="M544.917,160.66h-7.781a3.236,3.236,0,0,1-3.236-3.236v-.362a3.236,3.236,0,0,1,3.236-3.236h7.781a3.236,3.236,0,0,1,3.236,3.236v.362a3.236,3.236,0,0,1-3.236,3.236" transform="translate(-425.093 -122.478)" fill="#d8d8da"/>
    <path id="Trazado_731102" data-name="Trazado 731102" d="M582.428,160.1c-1.4,0-2.537-1.62-2.537-3.611s1.138-3.611,2.537-3.611a.194.194,0,1,1,0,.388c-1.185,0-2.149,1.446-2.149,3.223s.964,3.223,2.149,3.223a.194.194,0,1,1,0,.388" transform="translate(-461.712 -121.72)" fill="#382118"/>
    <path id="Trazado_731103" data-name="Trazado 731103" d="M372.142,469.869h-87.89a1.35,1.35,0,0,1-1.35-1.35v-1.985a1.35,1.35,0,0,1,1.35-1.35h87.89a1.35,1.35,0,0,1,1.35,1.35v1.985a1.35,1.35,0,0,1-1.35,1.35" transform="translate(-225.247 -370.381)" fill="#bababa"/>
    <path id="Trazado_731104" data-name="Trazado 731104" d="M297.1,726.828a49.684,49.684,0,0,0,1.506,9.89c-.632.39-3.148,2.662-2.6,3.342s1.834-1.167,2.476-1.176a2.715,2.715,0,0,0,2.587,2.35,2.6,2.6,0,0,1,2.435,1.189,2.241,2.241,0,0,0-1.185-2.1c1.937-.077,7.92-.664,8.95.962-1.076-2.839-5.469-2.248-7.975-2.293a11.612,11.612,0,0,1,5.043-.335c-2.363-1.232-4.652-1.038-7.185-.458a98.015,98.015,0,0,1-1.491-11.487c-.854.046-1.708.1-2.562.118" transform="translate(-235.619 -578.609)" fill="#ecc362"/>
    <path id="Trazado_731105" data-name="Trazado 731105" d="M329.964,799.052c-.159.074-.324.135-.488.2a3.094,3.094,0,0,1,.74.764,2.086,2.086,0,0,0-.153-.972c-.033,0-.066.006-.1.008" transform="translate(-262.329 -636.202)" fill="#a6513c"/>
    <path id="Trazado_731106" data-name="Trazado 731106" d="M349.191,783.147a8.958,8.958,0,0,1,1.555.149,8.069,8.069,0,0,0-1.234-.518,1.232,1.232,0,0,0-.321.37" transform="translate(-278.027 -623.25)" fill="#a6513c"/>
    <path id="Trazado_731107" data-name="Trazado 731107" d="M364.926,791.849a1.574,1.574,0,0,0-.39.5,2.261,2.261,0,0,1,1.36.8,2.888,2.888,0,0,0-.97-1.3" transform="translate(-290.245 -630.473)" fill="#a6513c"/>
    <path id="Trazado_731108" data-name="Trazado 731108" d="M294.76,790.452l.01,0a1.233,1.233,0,0,1,.612-.167l.032-.016c-.052-.411-.224-.664-.423-.714a3,3,0,0,1-.21.464c-.017.036-.03.072-.045.109-.07.238-.073.321.023.327" transform="translate(-234.63 -628.645)" fill="#a6513c"/>
    <path id="Trazado_731109" data-name="Trazado 731109" d="M229.609,729a23.837,23.837,0,0,1-2.374,8.977c-1.042,1.682-3.182,2.564-2.9,3.759s1.889-1.309,2.416-1.026a2.63,2.63,0,0,0,2.6,2.2,2.462,2.462,0,0,1,2.429,1.128,2.115,2.115,0,0,0-1.209-2.065c1.982-.192,7.9-1.082,9.01.647-1.1-2.942-5.438-2.172-7.98-2.023a10.735,10.735,0,0,1,5.118-.634c-2.469-1.245-4.712-.752-7.275-.041.86-3.573,2.033-7.019,3.14-10.521a17.468,17.468,0,0,0-2.974-.4" transform="translate(-178.594 -580.429)" fill="#ecc362"/>
    <path id="Trazado_731110" data-name="Trazado 731110" d="M223.471,790.547l.01,0a1.231,1.231,0,0,1,.58-.258l.029-.021c-.113-.4-.322-.623-.526-.641a3.023,3.023,0,0,1-.137.491c-.011.038-.019.076-.028.114-.033.246-.023.329.073.32" transform="translate(-177.857 -628.7)" fill="#a6513c"/>
    <path id="Trazado_731111" data-name="Trazado 731111" d="M257.985,798.672a3.309,3.309,0,0,1,.608.665,2.135,2.135,0,0,0-.118-.885c-.011,0-.021,0-.032,0a.6.6,0,0,0-.459.224" transform="translate(-205.409 -635.728)" fill="#a6513c"/>
    <path id="Trazado_731112" data-name="Trazado 731112" d="M279.471,781.075h0a8.087,8.087,0,0,1,1.169.1,7.246,7.246,0,0,0-1.024-.421.461.461,0,0,0-.145.324" transform="translate(-222.516 -621.637)" fill="#a6513c"/>
    <path id="Trazado_731113" data-name="Trazado 731113" d="M295.614,791.348a1.681,1.681,0,0,1,.741.586,2.957,2.957,0,0,0-.616-1,1.038,1.038,0,0,0-.125.418" transform="translate(-235.369 -629.742)" fill="#a6513c"/>
    <path id="Trazado_731114" data-name="Trazado 731114" d="M479.971,694.6c.246-.272.494-.755.9-.947,1.793-.861,2.292.017,2.595,1.929.166,1.049.981,3.993.245,4.9-.5.614-.988.345-1.387.812-.664.776-.354,1.639-.657,2.505-.457,1.308-1.436,1.448-2.709,1.93-.247.093-2.544.667-2.628.321-.458-1.871.592-3.758,1-5.4.352-1.43.349-2.725.774-3.962.384-1.115,1.143-1.272,1.875-2.082" transform="translate(-379.162 -552.029)" fill="#e34927"/>
    <path id="Trazado_731115" data-name="Trazado 731115" d="M430.611,743.869c-1.416-.1-2.769-1.169-4.182-.412s-5.168.2-4.935-1.416c.312-2.16.321-2.11,2.249-2.205s4.91,2.034,6.629,3.122c.129.323.142.626.239.911" transform="translate(-335.587 -589.058)" fill="#e34927"/>
    <path id="Trazado_731116" data-name="Trazado 731116" d="M388.105,695.538c1.641-.126,1.912-1.843,3.655-1.495a6.127,6.127,0,0,1,2.608-3.213,10.227,10.227,0,0,1,4.163-1.924c.135.213.111.151.261.359,1.27,1.76,1.978,1.77,3.691,3.684,3.015,3.368-.468,9-3.976,11.1a8.939,8.939,0,0,1-1.184.473,23.192,23.192,0,0,0-8.163-5.976,52.744,52.744,0,0,0-8.8-.249c2.328-3.645,4.134-2.484,7.748-2.762" transform="translate(-302.842 -548.509)" fill="#f08f4a"/>
    <path id="Trazado_731117" data-name="Trazado 731117" d="M155.236,359.4c1.778-5.385,2.46-10.893.771-16.5a6.449,6.449,0,0,1,3.09-7.523c-.513-3.384-1.207-6.216,3.166-6.221.7-4.356,1.312-5.134,4.177-1.063,2.957,11.491,5.108,17.57,13.8,25.74,4.461,4.193,7.153,9.136,11.681,12.366,6.713,4.789,16.575,10.788,18.707,19.028a57.272,57.272,0,0,0,6.277,12.134c.431.6,1.264,1.5,1.746,2.146a10.125,10.125,0,0,0-4.16,1.92,6.125,6.125,0,0,0-2.608,3.213c-1.743-.349-2.014,1.369-3.655,1.495-3.615.276-5.42-.882-7.749,2.761a85.947,85.947,0,0,1-10.223-1.048c-6.127,2.477-16.045,4.479-18.983-3.425-.652-3.659-3.131-5.391-6.172-7.192-7.225-2.908-10.819-8.433-9.681-16.258a15.165,15.165,0,0,0,.208-8.133c-1.311-4.8-1.677-8.66-.393-13.442" transform="translate(-122.965 -259.109)" fill="#c96f4f"/>
    <path id="Trazado_731118" data-name="Trazado 731118" d="M454.51,726.076a13.571,13.571,0,0,0,4.439-5.953c.441-1.253.04-1.553-.444-2.462-.4-.745-1.055-.932-1.109-1.82-.52,1.111-1.368,1.94-1.887,3.049a20.017,20.017,0,0,0-1.486,3.716,4.305,4.305,0,0,1-1.733-.505c.728,1.331,1.493,2.652,2.221,3.977" transform="translate(-360.114 -569.956)" fill="#e34927"/>
    <path id="Trazado_731119" data-name="Trazado 731119" d="M456.81,757.662a7.664,7.664,0,0,1-2.942,3.886,8.612,8.612,0,0,0-.236-3.619c.023-.549-.433-.987-.753-1.373a6.066,6.066,0,0,1,2.656.695,2.782,2.782,0,0,0,1.274.412" transform="translate(-360.585 -602.372)" fill="#ecc362"/>
    <path id="Trazado_731120" data-name="Trazado 731120" d="M467.706,763.256c-.134-.008-.212.145-.244.253s-.033.254.1.266.214-.151.246-.259.03-.253-.1-.26" transform="translate(-372.181 -607.707)" fill="#382118"/>
    <path id="Trazado_731121" data-name="Trazado 731121" d="M469.36,728.731c.081.694-.129.615.377,1.295a1.981,1.981,0,0,1-.468,2.444c-.728.52-.742.789-1.306,1.3a2.469,2.469,0,0,0-.408-1.074c-.574-1.033.294-1.925.85-2.526a4.93,4.93,0,0,0,.956-1.44" transform="translate(-372.119 -580.219)" fill="#382118"/>
    <path id="Trazado_731122" data-name="Trazado 731122" d="M472.056,738.277a1.171,1.171,0,0,1-.888.955c-.467.055-.688-.289-.574-.729a1.279,1.279,0,0,1,.912-1.02c.492-.07.642.365.549.794" transform="translate(-374.666 -587.181)" fill="#f79854"/>
    <path id="Trazado_731123" data-name="Trazado 731123" d="M472.445,742.343a.47.47,0,0,1-.368.368c-.176.028-.3-.079-.262-.258a.5.5,0,0,1,.378-.381c.185-.029.282.093.253.271" transform="translate(-375.655 -590.837)" fill="#382118"/>
    <path id="Trazado_731124" data-name="Trazado 731124" d="M196.777,361.649a.194.194,0,0,1-.183-.129c-.219-.612-.421-1.218-.616-1.8-.183-.55-.372-1.119-.576-1.694a55.974,55.974,0,0,1-3.524-15.037.194.194,0,0,1,.387-.025,55.614,55.614,0,0,0,3.5,14.932c.206.578.4,1.149.579,1.7.194.584.395,1.188.613,1.8a.194.194,0,0,1-.183.26" transform="translate(-152.774 -272.922)" fill="#382118"/>
    <path id="Trazado_731125" data-name="Trazado 731125" d="M182.444,394.136a.194.194,0,0,1-.182-.126l-.438-1.166c-2.431-6.47-4.727-12.581-5.453-19.463a.194.194,0,1,1,.386-.041c.721,6.833,3.008,12.921,5.431,19.367l.438,1.166a.194.194,0,0,1-.182.262" transform="translate(-140.427 -297.117)" fill="#382118"/>
    <path id="Trazado_731126" data-name="Trazado 731126" d="M260.074,562.237a.2.2,0,0,1-.061-.01c-1.506-.5-2.962-.948-4.371-1.382-5.327-1.641-9.928-3.058-14.948-6.41a9.162,9.162,0,0,1-2.344-2.115,8.118,8.118,0,0,1-1.1-2.066l-.128-.31c-1.917-4.6-3.875-10.135-3.865-16.312a.194.194,0,0,1,.194-.194h0a.194.194,0,0,1,.194.194c-.01,6.109,1.933,11.6,3.835,16.162l.129.312a7.822,7.822,0,0,0,1.041,1.974,8.7,8.7,0,0,0,2.254,2.032c4.973,3.321,9.549,4.73,14.847,6.362,1.41.434,2.869.883,4.379,1.385a.194.194,0,0,1-.061.378" transform="translate(-185.725 -424.726)" fill="#382118"/>
    <path id="Trazado_731127" data-name="Trazado 731127" d="M264,544.034a.193.193,0,0,1-.094-.024c-6.2-3.453-10.181-9.218-11.505-16.672a.194.194,0,1,1,.382-.068c1.3,7.334,5.215,13.006,11.312,16.4a.194.194,0,0,1-.095.364" transform="translate(-200.963 -419.687)" fill="#382118"/>
    <path id="Trazado_731128" data-name="Trazado 731128" d="M288.211,538.375a.193.193,0,0,1-.107-.032c-2.393-1.582-4.91-3.083-7.695-4.587-.259-.14-.519-.277-.778-.414a22.252,22.252,0,0,1-3.333-2.023,8.709,8.709,0,0,1-2.753-3.792.194.194,0,0,1,.36-.146,8.336,8.336,0,0,0,2.631,3.632A21.618,21.618,0,0,0,279.813,533c.26.138.521.276.781.416,2.795,1.51,5.321,3.016,7.724,4.6a.194.194,0,0,1-.107.356" transform="translate(-217.787 -419.806)" fill="#382118"/>
    <path id="Trazado_731129" data-name="Trazado 731129" d="M325.921,696.622a.578.578,0,0,1-.259-.358,1.786,1.786,0,0,1-.048-.487,5.505,5.505,0,0,1,.109-1.012,1.276,1.276,0,0,1,.17-.413,1.037,1.037,0,0,1,.274-.29.476.476,0,0,1,.281-.1,2.408,2.408,0,0,0,.332-.021.859.859,0,0,0,.285-.142.837.837,0,0,0,.2-.321,1.2,1.2,0,0,0-.017-.443,1.867,1.867,0,0,1-.038-.219,1.363,1.363,0,0,1,.02-.426,2.352,2.352,0,0,1,.351-.852,6.721,6.721,0,0,1,1.549-1.425,4.558,4.558,0,0,0-1.057.359,3.209,3.209,0,0,0-.933.716,2.934,2.934,0,0,0-.58,1.1,2.369,2.369,0,0,0-.063.646,2.149,2.149,0,0,0,.045.3c.008.059.019.116.024.1s.052-.085.058-.1.093-.044.047-.036-.093,0-.186.005a1.352,1.352,0,0,0-.677.294,2.041,2.041,0,0,0-.461.57,1.789,1.789,0,0,0-.183.653,4.062,4.062,0,0,0,.092,1.147,1.5,1.5,0,0,0,.22.513.605.605,0,0,0,.2.191.423.423,0,0,0,.245.059" transform="translate(-258.887 -549.468)" fill="#f08f4a"/>
    <path id="Trazado_731130" data-name="Trazado 731130" d="M371.258,684.815a.721.721,0,0,1-.163-.445,1.135,1.135,0,0,1,.111-.478,2.5,2.5,0,0,1,.266-.432c.1-.134.207-.289.309-.4a1.555,1.555,0,0,1,.664-.5,1.9,1.9,0,0,1,.221-.034,1.053,1.053,0,0,0,.32-.114.883.883,0,0,0,.27-.344c.043-.1.062-.232.1-.3a2.674,2.674,0,0,1,2.637-1.886c.122,0,.251.069.374.075.009-.123,0-.313.011-.427a2.717,2.717,0,0,1,.249-1.046,2.034,2.034,0,0,1,.691-.772,1.746,1.746,0,0,1,.937-.3,1.874,1.874,0,0,1,1.012.263,1.84,1.84,0,0,0-1.009-.57,1.693,1.693,0,0,0-1.142.13,2.462,2.462,0,0,0-.949.878,3.425,3.425,0,0,0-.429,1.361c.13-.115.26-.234.387-.357a2.623,2.623,0,0,0-2.065.49,3.888,3.888,0,0,0-1.281,1.959c-.033.1-.025.162-.05.223s.006.031-.031.07-.065.036-.132.058-.16.033-.247.07a1.482,1.482,0,0,0-.482.324,2.749,2.749,0,0,0-.346.469c-.1.164-.189.321-.274.494a2.96,2.96,0,0,0-.222.543,1.227,1.227,0,0,0-.021.584.658.658,0,0,0,.29.416" transform="translate(-295.345 -539.079)" fill="#f08f4a"/>
    <path id="Trazado_731131" data-name="Trazado 731131" d="M429.1,680.139a1.175,1.175,0,0,0-.838-.119,1.729,1.729,0,0,0-.815.461,2.238,2.238,0,0,0-.5.9,2.321,2.321,0,0,0-.062,1.085c.149-.24.32-.513.489-.731a5.773,5.773,0,0,1,.518-.579c.187-.186.341-.369.544-.542a7.571,7.571,0,0,1,.661-.477" transform="translate(-339.859 -541.406)" fill="#f08f4a"/>
    <path id="Trazado_731132" data-name="Trazado 731132" d="M454.436,790.917c0,.216-.35.39-.781.39s-.781-.175-.781-.39.35-.391.781-.391.781.175.781.391" transform="translate(-360.58 -629.42)" fill="#c96f4f"/>
  </g>
</svg>
