<svg xmlns="http://www.w3.org/2000/svg" xmlns:xlink="http://www.w3.org/1999/xlink" width="132" height="132" viewBox="0 0 132 132">
  <defs>
    <clipPath id="clip-path">
      <rect id="Rectángulo_345163" data-name="Rectángulo 345163" width="132" height="132" transform="translate(0.001 0)" fill="none"/>
    </clipPath>
  </defs>
  <g id="Grupo_984539" data-name="Grupo 984539" transform="translate(0 0.001)">
    <g id="Grupo_984538" data-name="Grupo 984538" transform="translate(-0.001 -0.001)" clip-path="url(#clip-path)">
      <path id="Trazado_725736" data-name="Trazado 725736" d="M132,66A66,66,0,1,1,66,0a66,66,0,0,1,66,66" transform="translate(0.001 0.001)" fill="#0a88a5"/>
      <path id="Trazado_725737" data-name="Trazado 725737" d="M63,5.251A57.748,57.748,0,1,0,120.747,63,57.752,57.752,0,0,0,63,5.251M103.34,63a2.6,2.6,0,0,1-2.605,2.6H99.253A20.836,20.836,0,0,1,78.613,83.82c-4.711,0-6.941-.965-10.409-2.6-.872-.409-2.6-2.6-5.2-2.481-2.6-.119-4.336,2.073-5.206,2.481-3.463,1.637-5.7,2.6-10.411,2.6A20.836,20.836,0,0,1,26.745,65.6h-1.48A2.6,2.6,0,0,1,22.66,63V52.591a2.6,2.6,0,0,1,2.605-2.6h1.3v-2.6a5.213,5.213,0,0,1,5.209-5.208H94.229a5.206,5.206,0,0,1,5.2,5.208v2.6h1.3a2.6,2.6,0,0,1,2.605,2.6ZM78.613,48.037H47.384c-12.585,0-14.96,2.378-14.96,14.961a14.974,14.974,0,0,0,14.96,14.968c2.887,0,5.486-1.345,8.008-2.654C57.817,74.061,60.32,72.76,63,72.76s5.186,1.3,7.606,2.55c2.521,1.311,5.126,2.656,8.006,2.656A14.982,14.982,0,0,0,93.577,63c0-6.828-.764-10.257-2.731-12.221s-5.4-2.741-12.233-2.741" transform="translate(3.001 3.002)" fill="#f5f5f5"/>
    </g>
  </g>
</svg>
