<svg xmlns="http://www.w3.org/2000/svg" xmlns:xlink="http://www.w3.org/1999/xlink" width="118" height="118" viewBox="0 0 118 118">
  <defs>
    <clipPath id="clip-path">
      <rect id="Rectángulo_349615" data-name="Rectángulo 349615" width="118" height="104.521" fill="none"/>
    </clipPath>
    <clipPath id="clip-path-3">
      <rect id="Rectángulo_349595" data-name="Rectángulo 349595" width="81.438" height="37.208" fill="none"/>
    </clipPath>
    <clipPath id="clip-path-5">
      <rect id="Rectángulo_349598" data-name="Rectángulo 349598" width="62.771" height="37.707" fill="none"/>
    </clipPath>
    <clipPath id="clip-path-8">
      <rect id="Rectángulo_349600" data-name="Rectángulo 349600" width="31.784" height="21.833" fill="none"/>
    </clipPath>
    <clipPath id="clip-path-10">
      <rect id="Rectángulo_349602" data-name="Rectángulo 349602" width="2.401" height="38.858" fill="none"/>
    </clipPath>
    <clipPath id="clip-path-11">
      <rect id="Rectángulo_349603" data-name="Rectángulo 349603" width="2.13" height="39.979" fill="none"/>
    </clipPath>
    <clipPath id="clip-path-14">
      <rect id="Rectángulo_349606" data-name="Rectángulo 349606" width="81.439" height="37.208" fill="none"/>
    </clipPath>
    <clipPath id="clip-path-20">
      <rect id="Rectángulo_349612" data-name="Rectángulo 349612" width="2.401" height="38.859" fill="none"/>
    </clipPath>
  </defs>
  <g id="Grupo_997412" data-name="Grupo 997412" transform="translate(-394 -1262)">
    <circle id="Elipse_5894" data-name="Elipse 5894" cx="59" cy="59" r="59" transform="translate(394 1262)" fill="#ffc403"/>
    <g id="Grupo_997176" data-name="Grupo 997176" transform="translate(394 1263.284)">
      <g id="Grupo_997175" data-name="Grupo 997175" clip-path="url(#clip-path)">
        <path id="Trazado_730595" data-name="Trazado 730595" d="M105.407,41.072l.409-.227v-.01Z" transform="translate(-19.943 -7.726)" fill="#b53e4b"/>
        <path id="Trazado_730596" data-name="Trazado 730596" d="M38.094,93.812,89.61,64.026l.07-22.273L26.908,78.091Z" transform="translate(-5.091 -7.9)" fill="#9a9b9c"/>
        <path id="Trazado_730597" data-name="Trazado 730597" d="M86.92,31.592,69.773,10.565l-.02,0L5.481,47.773,21.1,69.731,86.92,31.63Z" transform="translate(-1.037 -1.999)" fill="#ed1a3d"/>
        <g id="Grupo_997123" data-name="Grupo 997123">
          <g id="Grupo_997122" data-name="Grupo 997122" clip-path="url(#clip-path)">
            <g id="Grupo_997121" data-name="Grupo 997121" transform="translate(4.444 8.566)" style="mix-blend-mode: multiply;isolation: isolate">
              <g id="Grupo_997120" data-name="Grupo 997120">
                <g id="Grupo_997119" data-name="Grupo 997119" clip-path="url(#clip-path-3)">
                  <path id="Trazado_730598" data-name="Trazado 730598" d="M86.92,31.592,69.773,10.565l-.02,0L5.481,47.773,69.274,11.65,86.92,31.63Z" transform="translate(-5.481 -10.565)" fill="#cc1735"/>
                </g>
              </g>
            </g>
          </g>
        </g>
        <path id="Trazado_730599" data-name="Trazado 730599" d="M24.75,74.646l1.751,2.46L89.271,40.768v-.019l.876-.487.409-.237.01-3.478Z" transform="translate(-4.683 -6.914)" fill="#b5112d"/>
        <path id="Trazado_730600" data-name="Trazado 730600" d="M43.4,65.894v3.473l49.4-28.6v-.019l.875-.487.409-.237.011-3.478Z" transform="translate(-8.21 -6.914)" fill="#b5112d"/>
        <path id="Trazado_730601" data-name="Trazado 730601" d="M51.528,11.757.013,41.541l4.433,6.232L68.718,10.566Z" transform="translate(-0.002 -1.999)" fill="#f26d7a"/>
        <path id="Trazado_730602" data-name="Trazado 730602" d="M39.05,73.234l-14.3,8.353,1.751,2.46,12.54-7.287Z" transform="translate(-4.683 -13.856)" fill="#616263"/>
        <g id="Grupo_997131" data-name="Grupo 997131">
          <g id="Grupo_997130" data-name="Grupo 997130" clip-path="url(#clip-path)">
            <g id="Grupo_997129" data-name="Grupo 997129" transform="translate(21.817 33.853)" opacity="0.47">
              <g id="Grupo_997128" data-name="Grupo 997128">
                <g id="Grupo_997127" data-name="Grupo 997127" clip-path="url(#clip-path-5)">
                  <g id="Grupo_997126" data-name="Grupo 997126" style="mix-blend-mode: multiply;isolation: isolate">
                    <g id="Grupo_997125" data-name="Grupo 997125">
                      <g id="Grupo_997124" data-name="Grupo 997124" clip-path="url(#clip-path-5)">
                        <path id="Trazado_730603" data-name="Trazado 730603" d="M89.68,41.753,26.908,78.091l.974,1.369,61.791-35.77Z" transform="translate(-26.908 -41.753)" fill="#9a9b9c"/>
                      </g>
                    </g>
                  </g>
                </g>
              </g>
            </g>
          </g>
        </g>
        <path id="Trazado_730604" data-name="Trazado 730604" d="M17.494,51.654l-15.922,1.1L1.5,77.334,33.288,95.685l.07-24.582Z" transform="translate(-0.284 -9.773)" fill="#c9c7c2"/>
        <path id="Trazado_730605" data-name="Trazado 730605" d="M.01,48.492,0,52.018l1.289-.089,15.921-1.1L33.073,70.279l1.283,1.575.011-3.526L17.22,47.3Z" transform="translate(0 -8.949)" fill="#fa5364"/>
        <g id="Grupo_997136" data-name="Grupo 997136">
          <g id="Grupo_997135" data-name="Grupo 997135" clip-path="url(#clip-path)">
            <g id="Grupo_997134" data-name="Grupo 997134" transform="translate(1.289 41.881)" style="mix-blend-mode: multiply;isolation: isolate">
              <g id="Grupo_997133" data-name="Grupo 997133">
                <g id="Grupo_997132" data-name="Grupo 997132" clip-path="url(#clip-path-8)">
                  <path id="Trazado_730606" data-name="Trazado 730606" d="M17.511,54.046,33.367,73.487l.007-2.384L17.511,51.654l-15.922,1.1v2.393Z" transform="translate(-1.589 -51.654)" fill="#bfbfbf"/>
                </g>
              </g>
            </g>
          </g>
        </g>
        <path id="Trazado_730607" data-name="Trazado 730607" d="M53.2,80.667l.02,7.291L46.88,91.622l-.021-7.291Z" transform="translate(-8.866 -15.262)" fill="#fff"/>
        <path id="Trazado_730608" data-name="Trazado 730608" d="M76.392,67.335l.02,7.291-6.345,3.664L70.046,71Z" transform="translate(-13.253 -12.74)" fill="#fff"/>
        <path id="Trazado_730609" data-name="Trazado 730609" d="M87.986,60.579l.021,7.291-6.346,3.664-.021-7.291Z" transform="translate(-15.446 -11.462)" fill="#fff"/>
        <path id="Trazado_730610" data-name="Trazado 730610" d="M99.58,53.928l.02,7.291-6.345,3.664-.021-7.291Z" transform="translate(-17.64 -10.203)" fill="#fff"/>
        <path id="Trazado_730611" data-name="Trazado 730611" d="M64.8,74.09l.021,7.291-6.346,3.664-.021-7.291Z" transform="translate(-11.059 -14.018)" fill="#fff"/>
        <path id="Trazado_730612" data-name="Trazado 730612" d="M52.63,81l.019,6.8-5.767,3.33,0,.494,6.345-3.664-.02-7.291Z" transform="translate(-8.87 -15.262)" fill="#fff"/>
        <path id="Trazado_730613" data-name="Trazado 730613" d="M75.818,67.669l.019,6.8L70.07,77.8l0,.494,6.346-3.664L76.4,67.335Z" transform="translate(-13.257 -12.74)" fill="#fff"/>
        <path id="Trazado_730614" data-name="Trazado 730614" d="M87.412,60.913l.019,6.8-5.767,3.33,0,.494,6.345-3.664-.02-7.291Z" transform="translate(-15.451 -11.462)" fill="#fff"/>
        <path id="Trazado_730615" data-name="Trazado 730615" d="M99.605,61.219l-.02-7.291-.58.334.019,6.8-5.766,3.329v.495Z" transform="translate(-17.644 -10.203)" fill="#fff"/>
        <path id="Trazado_730616" data-name="Trazado 730616" d="M64.224,74.424l.019,6.8-5.767,3.33,0,.494,6.345-3.664L64.8,74.09Z" transform="translate(-11.064 -14.018)" fill="#fff"/>
        <path id="Trazado_730617" data-name="Trazado 730617" d="M52.626,81.08l-5.767,3.329.019,6.8,5.767-3.33Z" transform="translate(-8.866 -15.34)" fill="#e2e3e4"/>
        <path id="Trazado_730618" data-name="Trazado 730618" d="M75.813,67.747l-5.767,3.329.019,6.8,5.767-3.33Z" transform="translate(-13.253 -12.818)" fill="#e2e3e4"/>
        <path id="Trazado_730619" data-name="Trazado 730619" d="M87.407,60.991l-5.767,3.33.019,6.8,5.767-3.33Z" transform="translate(-15.446 -11.54)" fill="#e2e3e4"/>
        <path id="Trazado_730620" data-name="Trazado 730620" d="M99,54.34l-5.767,3.329.019,6.8,5.767-3.33Z" transform="translate(-17.64 -10.281)" fill="#e2e3e4"/>
        <path id="Trazado_730621" data-name="Trazado 730621" d="M64.22,74.5l-5.767,3.329.019,6.8,5.767-3.33Z" transform="translate(-11.059 -14.096)" fill="#e2e3e4"/>
        <path id="Trazado_730622" data-name="Trazado 730622" d="M24.133,85.45,24.1,74.316,14.084,68.494l.019,6.8-.019-.011.032,11.135L24.133,92.24l-.019-6.8Z" transform="translate(-2.665 -12.959)" fill="#eedea6"/>
        <path id="Trazado_730623" data-name="Trazado 730623" d="M24.1,74.316,14.084,68.494l.019,6.8-.019-.011.032,11.135,10-5.752Z" transform="translate(-2.665 -12.959)" fill="#b4aa81"/>
        <g id="Grupo_997174" data-name="Grupo 997174">
          <g id="Grupo_997173" data-name="Grupo 997173" clip-path="url(#clip-path)">
            <path id="Trazado_730624" data-name="Trazado 730624" d="M35.3,51.657s-1.552-.17-1.147,1.991a5.549,5.549,0,0,0,4.738,4.635c3.749.816,5.574-2.941,3.082-4.425-1.9-1.129-6.673-2.2-6.673-2.2" transform="translate(-6.448 -9.773)" fill="#9b0722"/>
            <path id="Trazado_730625" data-name="Trazado 730625" d="M42.7,47.575a3.419,3.419,0,0,0-.036-1.1L41.433,9.586H35.839L34.6,44.419h0a4.657,4.657,0,0,0,1.938,4.288c1.942,1.548,4.454,1.626,5.61.176a2.647,2.647,0,0,0,.545-1.3h0Z" transform="translate(-6.536 -1.814)" fill="#9a9b9c"/>
            <g id="Grupo_997139" data-name="Grupo 997139" transform="translate(28.011 7.772)" style="mix-blend-mode: screen;isolation: isolate">
              <g id="Grupo_997138" data-name="Grupo 997138">
                <g id="Grupo_997137" data-name="Grupo 997137" clip-path="url(#clip-path-10)">
                  <path id="Trazado_730626" data-name="Trazado 730626" d="M35.84,9.586,34.6,44.42h0a4.537,4.537,0,0,0,1.643,4.025l.7-38.858Z" transform="translate(-34.548 -9.586)" fill="#9a9b9c"/>
                </g>
              </g>
            </g>
            <g id="Grupo_997142" data-name="Grupo 997142" transform="translate(34.059 7.772)" style="mix-blend-mode: multiply;isolation: isolate">
              <g id="Grupo_997141" data-name="Grupo 997141">
                <g id="Grupo_997140" data-name="Grupo 997140" clip-path="url(#clip-path-11)">
                  <path id="Trazado_730627" data-name="Trazado 730627" d="M44.072,46.477,42.845,9.586h-.838l.722,39.979a2.591,2.591,0,0,0,.834-.681,2.644,2.644,0,0,0,.545-1.3h0v-.013a3.4,3.4,0,0,0-.036-1.1" transform="translate(-42.007 -9.586)" fill="#9a9b9c"/>
                </g>
              </g>
            </g>
            <path id="Trazado_730628" data-name="Trazado 730628" d="M41.735,9.4c0,.439-1.253.794-2.8.794s-2.8-.355-2.8-.794,1.252-.794,2.8-.794,2.8.355,2.8.794" transform="translate(-6.838 -1.628)" fill="#cbccce"/>
            <path id="Trazado_730629" data-name="Trazado 730629" d="M41.526,9.427c0,.376-1.13.682-2.525.682s-2.526-.306-2.526-.682S37.607,8.745,39,8.745s2.525.306,2.525.682" transform="translate(-6.901 -1.655)" fill="#7e7f80"/>
            <path id="Trazado_730630" data-name="Trazado 730630" d="M52.477,43.05s-1.552-.17-1.147,1.991a5.549,5.549,0,0,0,4.738,4.635c3.749.816,5.574-2.941,3.082-4.425-1.9-1.129-6.673-2.2-6.673-2.2" transform="translate(-9.699 -8.144)" fill="#9b0722"/>
            <path id="Trazado_730631" data-name="Trazado 730631" d="M59.876,38.968a3.419,3.419,0,0,0-.036-1.1L58.612.979H53.018L51.782,35.812h0A4.657,4.657,0,0,0,53.721,40.1c1.942,1.548,4.454,1.626,5.61.176a2.647,2.647,0,0,0,.545-1.3h0Z" transform="translate(-9.787 -0.185)" fill="#9a9b9c"/>
            <g id="Grupo_997145" data-name="Grupo 997145" transform="translate(41.94 0.794)" style="mix-blend-mode: screen;isolation: isolate">
              <g id="Grupo_997144" data-name="Grupo 997144">
                <g id="Grupo_997143" data-name="Grupo 997143" clip-path="url(#clip-path-10)">
                  <path id="Trazado_730632" data-name="Trazado 730632" d="M53.018.979,51.781,35.813h0a4.537,4.537,0,0,0,1.643,4.025l.7-38.858Z" transform="translate(-51.727 -0.979)" fill="#9a9b9c"/>
                </g>
              </g>
            </g>
            <g id="Grupo_997148" data-name="Grupo 997148" transform="translate(47.988 0.794)" style="mix-blend-mode: multiply;isolation: isolate">
              <g id="Grupo_997147" data-name="Grupo 997147">
                <g id="Grupo_997146" data-name="Grupo 997146" clip-path="url(#clip-path-11)">
                  <path id="Trazado_730633" data-name="Trazado 730633" d="M61.251,37.87,60.024.979h-.838l.721,39.979a2.593,2.593,0,0,0,.835-.681,2.647,2.647,0,0,0,.545-1.3h0v-.013a3.42,3.42,0,0,0-.036-1.1" transform="translate(-59.186 -0.979)" fill="#9a9b9c"/>
                </g>
              </g>
            </g>
            <path id="Trazado_730634" data-name="Trazado 730634" d="M58.914.794c0,.439-1.252.794-2.8.794s-2.8-.355-2.8-.794S54.572,0,56.116,0s2.8.355,2.8.794" transform="translate(-10.088 0)" fill="#cbccce"/>
            <path id="Trazado_730635" data-name="Trazado 730635" d="M58.705.82c0,.376-1.13.682-2.525.682S53.655,1.2,53.655.82,54.786.138,56.181.138s2.525.306,2.525.682" transform="translate(-10.152 -0.026)" fill="#7e7f80"/>
            <path id="Trazado_730636" data-name="Trazado 730636" d="M145.428,63.8v-.01l-.409.237Z" transform="translate(-27.438 -12.068)" fill="#b53e4b"/>
            <path id="Trazado_730637" data-name="Trazado 730637" d="M77.706,116.763l51.516-29.786.07-22.273L66.521,101.042Z" transform="translate(-12.586 -12.242)" fill="#9a9b9c"/>
            <path id="Trazado_730638" data-name="Trazado 730638" d="M126.532,54.543,109.385,33.516l-.02,0L45.093,70.725,60.716,92.682l65.816-38.1Z" transform="translate(-8.531 -6.341)" fill="#ed1a3d"/>
            <g id="Grupo_997151" data-name="Grupo 997151" transform="translate(36.561 27.175)" style="mix-blend-mode: multiply;isolation: isolate">
              <g id="Grupo_997150" data-name="Grupo 997150">
                <g id="Grupo_997149" data-name="Grupo 997149" clip-path="url(#clip-path-14)">
                  <path id="Trazado_730639" data-name="Trazado 730639" d="M126.532,54.543,109.385,33.516l-.02,0L45.093,70.725,108.886,34.6l17.645,19.981Z" transform="translate(-45.093 -33.516)" fill="#cc1735"/>
                </g>
              </g>
            </g>
            <path id="Trazado_730640" data-name="Trazado 730640" d="M64.362,97.6l1.751,2.46,62.771-36.338V63.7l.876-.487.409-.237.01-3.478Z" transform="translate(-12.177 -11.257)" fill="#b5112d"/>
            <path id="Trazado_730641" data-name="Trazado 730641" d="M83.008,88.846v3.473l49.4-28.6V63.7l.875-.487.409-.237.01-3.478Z" transform="translate(-15.705 -11.257)" fill="#b5112d"/>
            <path id="Trazado_730642" data-name="Trazado 730642" d="M91.14,34.708,39.624,64.493l4.434,6.232L108.33,33.518Z" transform="translate(-7.497 -6.342)" fill="#f26d7a"/>
            <path id="Trazado_730643" data-name="Trazado 730643" d="M78.662,96.186l-14.3,8.353L66.112,107l12.54-7.287Z" transform="translate(-12.177 -18.198)" fill="#616263"/>
            <g id="Grupo_997157" data-name="Grupo 997157" transform="translate(53.935 52.462)" opacity="0.47">
              <g id="Grupo_997156" data-name="Grupo 997156">
                <g id="Grupo_997155" data-name="Grupo 997155" clip-path="url(#clip-path-5)">
                  <g id="Grupo_997154" data-name="Grupo 997154" style="mix-blend-mode: multiply;isolation: isolate">
                    <g id="Grupo_997153" data-name="Grupo 997153">
                      <g id="Grupo_997152" data-name="Grupo 997152" clip-path="url(#clip-path-5)">
                        <path id="Trazado_730644" data-name="Trazado 730644" d="M129.292,64.7,66.521,101.042l.974,1.369L129.286,66.64Z" transform="translate(-66.521 -64.704)" fill="#9a9b9c"/>
                      </g>
                    </g>
                  </g>
                </g>
              </g>
            </g>
            <path id="Trazado_730645" data-name="Trazado 730645" d="M57.107,74.605,41.186,75.7l-.07,24.582L72.9,118.637l.07-24.583Z" transform="translate(-7.779 -14.115)" fill="#c9c7c2"/>
            <path id="Trazado_730646" data-name="Trazado 730646" d="M56.832,70.252l-17.21,1.191-.01,3.526L40.9,74.88l15.922-1.1L72.685,93.231l1.284,1.575.01-3.526Z" transform="translate(-7.495 -13.292)" fill="#fa5364"/>
            <g id="Grupo_997160" data-name="Grupo 997160" transform="translate(33.406 60.49)" style="mix-blend-mode: multiply;isolation: isolate">
              <g id="Grupo_997159" data-name="Grupo 997159">
                <g id="Grupo_997158" data-name="Grupo 997158" clip-path="url(#clip-path-8)">
                  <path id="Trazado_730647" data-name="Trazado 730647" d="M57.123,77,72.979,96.438l.007-2.384L57.123,74.606,41.2,75.7V78.1Z" transform="translate(-41.202 -74.605)" fill="#bfbfbf"/>
                </g>
              </g>
            </g>
            <path id="Trazado_730648" data-name="Trazado 730648" d="M92.817,103.619l.02,7.291-6.345,3.664-.021-7.291Z" transform="translate(-16.36 -19.605)" fill="#fff"/>
            <path id="Trazado_730649" data-name="Trazado 730649" d="M116,90.286l.02,7.291-6.345,3.664-.021-7.291Z" transform="translate(-20.747 -17.082)" fill="#fff"/>
            <path id="Trazado_730650" data-name="Trazado 730650" d="M127.6,83.53l.02,7.291-6.345,3.664-.021-7.291Z" transform="translate(-22.941 -15.804)" fill="#fff"/>
            <path id="Trazado_730651" data-name="Trazado 730651" d="M139.192,76.879l.02,7.291-6.345,3.664-.021-7.291Z" transform="translate(-25.134 -14.546)" fill="#fff"/>
            <path id="Trazado_730652" data-name="Trazado 730652" d="M104.411,97.041l.02,7.291L98.085,108l-.021-7.291Z" transform="translate(-18.554 -18.36)" fill="#fff"/>
            <path id="Trazado_730653" data-name="Trazado 730653" d="M92.242,103.953l.019,6.8-5.767,3.33,0,.494,6.345-3.664-.02-7.291Z" transform="translate(-16.365 -19.605)" fill="#fff"/>
            <path id="Trazado_730654" data-name="Trazado 730654" d="M115.43,90.62l.019,6.8-5.767,3.33,0,.494,6.345-3.664-.02-7.291Z" transform="translate(-20.752 -17.082)" fill="#fff"/>
            <path id="Trazado_730655" data-name="Trazado 730655" d="M127.024,83.865l.019,6.8-5.767,3.33,0,.494,6.345-3.664-.02-7.291Z" transform="translate(-22.945 -15.804)" fill="#fff"/>
            <path id="Trazado_730656" data-name="Trazado 730656" d="M139.217,84.17l-.02-7.291-.58.334.019,6.8-5.766,3.33v.494Z" transform="translate(-25.139 -14.546)" fill="#fff"/>
            <path id="Trazado_730657" data-name="Trazado 730657" d="M103.836,97.376l.019,6.8-5.767,3.33,0,.494,6.346-3.664-.021-7.291Z" transform="translate(-18.558 -18.36)" fill="#fff"/>
            <path id="Trazado_730658" data-name="Trazado 730658" d="M92.238,104.031l-5.767,3.329.019,6.8,5.767-3.33Z" transform="translate(-16.36 -19.683)" fill="#e2e3e4"/>
            <path id="Trazado_730659" data-name="Trazado 730659" d="M115.425,90.7l-5.767,3.329.019,6.8,5.767-3.33Z" transform="translate(-20.747 -17.16)" fill="#e2e3e4"/>
            <path id="Trazado_730660" data-name="Trazado 730660" d="M127.019,83.943l-5.767,3.33.019,6.8,5.767-3.33Z" transform="translate(-22.941 -15.882)" fill="#e2e3e4"/>
            <path id="Trazado_730661" data-name="Trazado 730661" d="M138.613,77.291l-5.767,3.329.019,6.8,5.767-3.33Z" transform="translate(-25.134 -14.624)" fill="#e2e3e4"/>
            <path id="Trazado_730662" data-name="Trazado 730662" d="M103.832,97.454l-5.767,3.33.019,6.8,5.767-3.33Z" transform="translate(-18.554 -18.438)" fill="#e2e3e4"/>
            <path id="Trazado_730663" data-name="Trazado 730663" d="M63.745,108.4l-.032-11.135L53.7,91.445l.019,6.8-.019-.011.032,11.135,10.017,5.822-.019-6.8Z" transform="translate(-10.159 -17.301)" fill="#eedea6"/>
            <path id="Trazado_730664" data-name="Trazado 730664" d="M63.713,97.267,53.7,91.446l.019,6.8-.019-.011.032,11.135,10-5.752Z" transform="translate(-10.159 -17.301)" fill="#b4aa81"/>
            <path id="Trazado_730665" data-name="Trazado 730665" d="M74.91,74.608s-1.552-.17-1.147,1.991A5.549,5.549,0,0,0,78.5,81.233c3.749.816,5.574-2.941,3.082-4.425-1.9-1.129-6.673-2.2-6.673-2.2" transform="translate(-13.943 -14.115)" fill="#9b0722"/>
            <path id="Trazado_730666" data-name="Trazado 730666" d="M82.309,70.526a3.419,3.419,0,0,0-.036-1.1L81.045,32.537H75.451L74.215,67.37h0a4.657,4.657,0,0,0,1.938,4.288c1.942,1.548,4.454,1.626,5.61.176a2.639,2.639,0,0,0,.544-1.3h0Z" transform="translate(-14.031 -6.156)" fill="#9a9b9c"/>
            <g id="Grupo_997163" data-name="Grupo 997163" transform="translate(60.129 26.381)" style="mix-blend-mode: screen;isolation: isolate">
              <g id="Grupo_997162" data-name="Grupo 997162">
                <g id="Grupo_997161" data-name="Grupo 997161" clip-path="url(#clip-path-10)">
                  <path id="Trazado_730667" data-name="Trazado 730667" d="M75.452,32.537,74.216,67.371h0A4.537,4.537,0,0,0,75.86,71.4l.7-38.858Z" transform="translate(-74.16 -32.537)" fill="#9a9b9c"/>
                </g>
              </g>
            </g>
            <g id="Grupo_997166" data-name="Grupo 997166" transform="translate(66.177 26.381)" style="mix-blend-mode: multiply;isolation: isolate">
              <g id="Grupo_997165" data-name="Grupo 997165">
                <g id="Grupo_997164" data-name="Grupo 997164" clip-path="url(#clip-path-11)">
                  <path id="Trazado_730668" data-name="Trazado 730668" d="M83.684,69.428,82.457,32.537h-.838l.722,39.979a2.6,2.6,0,0,0,.834-.681,2.647,2.647,0,0,0,.545-1.3h0v-.012a3.419,3.419,0,0,0-.036-1.1" transform="translate(-81.619 -32.537)" fill="#9a9b9c"/>
                </g>
              </g>
            </g>
            <path id="Trazado_730669" data-name="Trazado 730669" d="M81.347,32.352c0,.439-1.252.794-2.8.794s-2.8-.355-2.8-.794,1.252-.794,2.8-.794,2.8.355,2.8.794" transform="translate(-14.332 -5.971)" fill="#cbccce"/>
            <path id="Trazado_730670" data-name="Trazado 730670" d="M81.138,32.378c0,.376-1.13.682-2.525.682s-2.526-.306-2.526-.682,1.131-.682,2.526-.682,2.525.306,2.525.682" transform="translate(-14.396 -5.997)" fill="#7e7f80"/>
            <path id="Trazado_730671" data-name="Trazado 730671" d="M92.089,66s-1.552-.17-1.147,1.991a5.548,5.548,0,0,0,4.738,4.635c3.749.816,5.574-2.94,3.082-4.425-1.9-1.129-6.673-2.2-6.673-2.2" transform="translate(-17.193 -12.487)" fill="#9b0722"/>
            <path id="Trazado_730672" data-name="Trazado 730672" d="M99.488,61.919a3.39,3.39,0,0,0-.036-1.1L98.224,23.93H92.63L91.394,58.764h0a4.657,4.657,0,0,0,1.938,4.288c1.942,1.548,4.454,1.627,5.61.176a2.647,2.647,0,0,0,.545-1.3h0Z" transform="translate(-17.281 -4.528)" fill="#9a9b9c"/>
            <g id="Grupo_997169" data-name="Grupo 997169" transform="translate(74.058 19.402)" style="mix-blend-mode: screen;isolation: isolate">
              <g id="Grupo_997168" data-name="Grupo 997168">
                <g id="Grupo_997167" data-name="Grupo 997167" clip-path="url(#clip-path-20)">
                  <path id="Trazado_730673" data-name="Trazado 730673" d="M92.631,23.93,91.394,58.764h0a4.538,4.538,0,0,0,1.644,4.025l.7-38.858Z" transform="translate(-91.339 -23.93)" fill="#9a9b9c"/>
                </g>
              </g>
            </g>
            <g id="Grupo_997172" data-name="Grupo 997172" transform="translate(80.105 19.402)" style="mix-blend-mode: multiply;isolation: isolate">
              <g id="Grupo_997171" data-name="Grupo 997171">
                <g id="Grupo_997170" data-name="Grupo 997170" clip-path="url(#clip-path-11)">
                  <path id="Trazado_730674" data-name="Trazado 730674" d="M100.863,60.821,99.636,23.93H98.8l.721,39.979a2.585,2.585,0,0,0,.835-.681,2.647,2.647,0,0,0,.545-1.3h0v-.013a3.4,3.4,0,0,0-.036-1.1" transform="translate(-98.798 -23.93)" fill="#9a9b9c"/>
                </g>
              </g>
            </g>
            <path id="Trazado_730675" data-name="Trazado 730675" d="M98.526,23.745c0,.439-1.252.794-2.8.794s-2.8-.355-2.8-.794,1.252-.794,2.8-.794,2.8.355,2.8.794" transform="translate(-17.583 -4.342)" fill="#cbccce"/>
            <path id="Trazado_730676" data-name="Trazado 730676" d="M98.317,23.771c0,.376-1.13.682-2.525.682s-2.526-.306-2.526-.682,1.131-.682,2.526-.682,2.525.306,2.525.682" transform="translate(-17.646 -4.368)" fill="#7e7f80"/>
          </g>
        </g>
      </g>
    </g>
  </g>
</svg>
