<svg id="Grupo_984495" data-name="Grupo 984495" xmlns="http://www.w3.org/2000/svg" xmlns:xlink="http://www.w3.org/1999/xlink" width="132" height="132" viewBox="0 0 132 132">
  <defs>
    <clipPath id="clip-path">
      <rect id="Rectángulo_345143" data-name="Rectángulo 345143" width="132" height="132" fill="none"/>
    </clipPath>
  </defs>
  <g id="Grupo_984494" data-name="Grupo 984494" clip-path="url(#clip-path)">
    <path id="Trazado_725661" data-name="Trazado 725661" d="M132,66A66,66,0,1,1,66,0a66,66,0,0,1,66,66" fill="#0a88a5"/>
    <path id="Trazado_725662" data-name="Trazado 725662" d="M63,5.25A57.749,57.749,0,1,0,120.75,63,57.75,57.75,0,0,0,63,5.25M99.382,76.219c-1.721,0-13.378,3.7-36.374,3.7s-34.666-3.7-36.383-3.7c-7.455,0-11.134-1.378-3.137-8.028C25.686,58.1,30.548,50,37.5,44.463a2.907,2.907,0,0,1,1.094-3.9l5.054-2.913a2.911,2.911,0,0,1,3.982,1.067l.041.069a41.958,41.958,0,0,1,9.495-2.244v-.379a2.915,2.915,0,0,1,2.915-2.917h5.843a2.915,2.915,0,0,1,2.913,2.917v.379a41.864,41.864,0,0,1,9.493,2.244l.044-.069a2.91,2.91,0,0,1,3.98-1.067l5.054,2.913a2.906,2.906,0,0,1,1.1,3.9C95.455,50,100.318,58.1,102.517,68.19c7.994,6.65,4.318,8.028-3.135,8.028" transform="translate(3 3)" fill="#f5f5f5"/>
  </g>
</svg>
