<svg id="Grupo_984547" data-name="Grupo 984547" xmlns="http://www.w3.org/2000/svg" xmlns:xlink="http://www.w3.org/1999/xlink" width="132" height="132" viewBox="0 0 132 132">
  <defs>
    <clipPath id="clip-path">
      <rect id="Rectángulo_345167" data-name="Rectángulo 345167" width="132" height="132" fill="none"/>
    </clipPath>
  </defs>
  <g id="Grupo_984546" data-name="Grupo 984546" clip-path="url(#clip-path)">
    <path id="Trazado_725740" data-name="Trazado 725740" d="M132,66A66,66,0,1,1,66,0a66,66,0,0,1,66,66" fill="#0a88a5"/>
    <path id="Trazado_725741" data-name="Trazado 725741" d="M63,5.252A57.748,57.748,0,1,0,120.75,63,57.748,57.748,0,0,0,63,5.252M27.905,63.945c6.84-3.111,11.207-11.118,10.167-19.714L36.165,25.844l6.152-.863,8.71,47.308H27.905ZM63,95.515c0,3.848-2.772,6.968-6.191,6.968L34.1,100.162c-3.421,0-6.193-3.119-6.193-6.966V88.544H63ZM63,83.9H27.905V76.933H63Zm0-11.611h-7.1L47.056,24.31l5.623-.792L63,49.063ZM73.318,23.518l5.623.792L70.1,72.289H65.6V48.561L64.4,45.6ZM98.087,93.2c0,3.847-2.769,6.966-6.19,6.966l-22.7,2.321a5.9,5.9,0,0,1-4.658-2.414A10.181,10.181,0,0,0,65.6,95.515V88.544H98.087Zm0-9.3H65.6V76.933H98.087Zm0-11.611H74.965l8.717-47.308,6.152.863L87.923,44.231c-1.043,8.6,3.328,16.6,10.164,19.714Z" transform="translate(3 3.001)" fill="#f5f5f5"/>
  </g>
</svg>
