<svg id="Grupo_984551" data-name="Grupo 984551" xmlns="http://www.w3.org/2000/svg" xmlns:xlink="http://www.w3.org/1999/xlink" width="132" height="132" viewBox="0 0 132 132">
  <defs>
    <clipPath id="clip-path">
      <rect id="Rectángulo_345169" data-name="Rectángulo 345169" width="132" height="132" fill="none"/>
    </clipPath>
  </defs>
  <g id="Grupo_984550" data-name="Grupo 984550" clip-path="url(#clip-path)">
    <path id="Trazado_725742" data-name="Trazado 725742" d="M132,66A66,66,0,1,1,66,0a66,66,0,0,1,66,66" fill="#0a88a5"/>
    <path id="Trazado_725743" data-name="Trazado 725743" d="M63,5.25A57.751,57.751,0,1,0,120.75,63,57.75,57.75,0,0,0,63,5.25M39.477,73.7l-16.3-9.51a4.6,4.6,0,1,1,4.636-7.944l6.554,3.825L27.484,41.775a3.985,3.985,0,0,1,7.452-2.825l-1.394-3.7,0-.011A3.987,3.987,0,0,1,41,32.425v0l.7,1.857a3.988,3.988,0,0,1,7.467-2.8v0l2.1,5.591a3.984,3.984,0,0,1,7.461-2.8l1.57,4.175a7.125,7.125,0,0,0-4.353,8.5l4.527,17.231L52.113,78.925a4.622,4.622,0,0,0-3.8,2.686,4.572,4.572,0,0,0-.393,1.678l-5.255,1.978Zm6.5,22.874a1.994,1.994,0,1,1-1.4-3.732l.168-.058L43.5,88.289l5.365-2.021a4.52,4.52,0,0,0,1.74,1.417l8.615,3.9ZM86,96.5a1.994,1.994,0,0,1-1.642,3.635L51.678,85.317a1.995,1.995,0,0,1,1.648-3.633l.165.077,2.3-4.05,31.578,14.3-1.531,4.4Zm6.41-18.978h0L88.4,89.059,57.337,74.987l5.92-10.441L58.462,46.294a4.6,4.6,0,0,1,8.893-2.337L69.283,51.3,77.35,33.492a3.986,3.986,0,0,1,7.269,3.273l1.633-3.6,0-.008a3.987,3.987,0,0,1,7.265,3.287L92.7,38.248a3.985,3.985,0,0,1,7.255,3.3h0l-2.472,5.442a3.987,3.987,0,1,1,7.26,3.3Z" transform="translate(3 3)" fill="#f5f5f5"/>
  </g>
</svg>
