<svg xmlns="http://www.w3.org/2000/svg" xmlns:xlink="http://www.w3.org/1999/xlink" width="123.882" height="118.745" viewBox="0 0 123.882 118.745">
  <defs>
    <clipPath id="clip-path">
      <rect id="Rectángulo_349620" data-name="Rectángulo 349620" width="107.235" height="118.745" fill="none"/>
    </clipPath>
    <clipPath id="clip-path-3">
      <rect id="Rectángulo_349617" data-name="Rectángulo 349617" width="34.407" height="8.797" fill="none"/>
    </clipPath>
  </defs>
  <g id="Grupo_997414" data-name="Grupo 997414" transform="translate(-1090.118 -1262)">
    <circle id="Elipse_5896" data-name="Elipse 5896" cx="59" cy="59" r="59" transform="translate(1096 1262)" fill="#06d1d1"/>
    <g id="Grupo_997185" data-name="Grupo 997185" transform="translate(1090.118 1262)">
      <g id="Grupo_997184" data-name="Grupo 997184" clip-path="url(#clip-path)">
        <g id="Grupo_997183" data-name="Grupo 997183" transform="translate(0 0)">
          <g id="Grupo_997182" data-name="Grupo 997182" clip-path="url(#clip-path)">
            <path id="Trazado_730690" data-name="Trazado 730690" d="M64.055,31.917l-.07-.02v-7.38c-6.583-.08-7.708-.1-7.9-.1s-1.306.02-7.9.1V31.9l-.06.02c1.834,4.631,4.48,8.022,7.961,10.138a18.644,18.644,0,0,0,7.964-10.138" transform="translate(20.256 10.277)" fill="#ebb677"/>
            <path id="Trazado_730691" data-name="Trazado 730691" d="M94.923,48.575l-7.759,5.286v52.388H45.487L42.932,60.74,40.061,82.61H27.931l3.258-21.87,2.333-15.729a9.071,9.071,0,0,1,6.739-8.531l16.372-6.775.058-.024,7.9,10.162,7.9-10.162.071.024,16.372,6.775c4.02,1.218,8.052,5.145,5.989,12.094" transform="translate(11.755 12.492)" fill="#ededed"/>
            <path id="Trazado_730692" data-name="Trazado 730692" d="M30.589,49.81c2.908.5,8,1.3,11.428,1.841l-.271,2.4L30.222,52.274Z" transform="translate(12.719 20.963)" fill="#b53d15"/>
            <path id="Trazado_730693" data-name="Trazado 730693" d="M39.149,48.735l-7.61-11.159a153.151,153.151,0,0,1-15.523,6.957L24.4,59.361h0S18.245,75.277,18.855,88.6c.013.26.446,6.294.783,14.328H59.655c2.214-25.759-5.634-46.659-17.077-51.5a7.7,7.7,0,0,1-3.429-2.7" transform="translate(6.74 15.814)" fill="#ebb677"/>
            <path id="Trazado_730694" data-name="Trazado 730694" d="M30.613,47.726a1.255,1.255,0,0,1-1.736-.352l-2.255-3.411a1.26,1.26,0,0,1,.35-1.733,1.246,1.246,0,0,1,1.746.323l2.276,3.443a1.253,1.253,0,0,1-.381,1.732" transform="translate(11.117 17.678)" fill="#fff"/>
            <path id="Trazado_730695" data-name="Trazado 730695" d="M35.659,51.839a1.282,1.282,0,0,1-1.732.267l-1.687-1.27c-.435-.318-.82-.713-1.13-.976l-.506-.455a1.245,1.245,0,0,1,.028-1.813,1.264,1.264,0,0,1,1.731,0l.45.4c.277.234.61.584,1.006.87l1.594,1.2a1.231,1.231,0,0,1,.244,1.776" transform="translate(12.721 19.886)" fill="#fff"/>
            <path id="Trazado_730696" data-name="Trazado 730696" d="M39.694,56.93a1.3,1.3,0,0,1-1.732-.3s-.142-.2-.357-.5a12.027,12.027,0,0,0-.82-1.074l-.864-1.037-.422-.443a1.287,1.287,0,0,1,.06-1.76,1.227,1.227,0,0,1,1.785.033l.462.487.945,1.132a13.93,13.93,0,0,1,.894,1.169c.233.327.389.544.389.544a1.212,1.212,0,0,1-.34,1.753" transform="translate(14.806 21.65)" fill="#fff"/>
            <path id="Trazado_730697" data-name="Trazado 730697" d="M42.082,63.008a1.226,1.226,0,0,1-1.574-.743s-.379-.921-.757-1.84a16.7,16.7,0,0,0-.824-1.806,1.276,1.276,0,0,1,.573-1.668,1.232,1.232,0,0,1,1.694.551,18.507,18.507,0,0,1,.882,1.928c.4.979.8,1.959.8,1.959a1.278,1.278,0,0,1-.8,1.618" transform="translate(16.33 23.906)" fill="#fff"/>
            <path id="Trazado_730698" data-name="Trazado 730698" d="M43.337,69.4a1.28,1.28,0,0,1-1.468-1s-.18-.99-.362-1.979c-.219-.98-.479-1.948-.479-1.948a1.278,1.278,0,0,1,.919-1.516,1.229,1.229,0,0,1,1.53.894s.271,1.016.5,2.04l.378,2.062A1.227,1.227,0,0,1,43.337,69.4" transform="translate(17.251 26.475)" fill="#fff"/>
            <path id="Trazado_730699" data-name="Trazado 730699" d="M43.745,75.889a1.278,1.278,0,0,1-1.336-1.174s-.06-1.01-.121-2.019a20.121,20.121,0,0,0-.183-2.012,1.264,1.264,0,0,1,2.513-.263s.153,1.037.189,2.079l.125,2.08a1.231,1.231,0,0,1-1.188,1.309" transform="translate(17.717 29.169)" fill="#fff"/>
            <path id="Trazado_730700" data-name="Trazado 730700" d="M43.557,82.387A1.251,1.251,0,0,1,42.35,81.1l.09-2.03c0-1.014-.01-2.029-.01-2.029a1.264,1.264,0,0,1,2.528,0s0,1.04.01,2.079l-.091,2.074a1.256,1.256,0,0,1-1.32,1.195" transform="translate(17.823 31.899)" fill="#fff"/>
            <path id="Trazado_730701" data-name="Trazado 730701" d="M36.662,39.5a32.138,32.138,0,0,0-6.753-8.724C17.066,20.356,10.071,29.652,6.063,34.287,1.616,39.91.844,48.2,8.914,55.684a18.153,18.153,0,0,0,2,.683l3.107,5.806a1.775,1.775,0,0,0,2.624.59l1.361-.914c.86.7,4.363,3.914,4.363,3.914,2.185,1.755,6.049,3.046,8.2.439l2.235-2.775c2.45-3.575,2.822-11.837-2.872-16.388,1.476-2.178,7.918-5.2,6.719-7.539" transform="translate(1.162 10.953)" fill="#f9c484"/>
            <path id="Trazado_730702" data-name="Trazado 730702" d="M38.4,44.335c-5.467,10.031-11.017-3.07-11.017-3.07s1.4,4.528,1.654,5.948c-1.2,1.36-1.2,1.36-2.376,2.518-11.05-8.7-14.032-14.891-21.7-1.039-2.4,1.964-10.816-3.038,1.834-16.84,5.592-6.1,13.248-8.008,20.372-3.8,6.937,4.1,13.872,10,11.23,16.282" transform="translate(0 10.856)" fill="#3c3c3b"/>
            <path id="Trazado_730703" data-name="Trazado 730703" d="M22.406,36.573c1.951,1.7,2.771,5.314,1.658,6.591s-2.573-.244-4.542-1.927c-1.3-1.111-3.424-2.386-2.612-4.14.712-1.537,2.63-3.021,5.5-.524" transform="translate(7.041 14.829)" fill="#f9c484"/>
            <path id="Trazado_730704" data-name="Trazado 730704" d="M72.831,17.111a1.488,1.488,0,0,0-.774.09V11.01A9.236,9.236,0,0,0,62.82,1.773H54A9.237,9.237,0,0,0,44.76,11.01V17.2a1.481,1.481,0,0,0-.773-.09c-1.36.222-1.589,2.408-1.191,4.862.321,1.991.77,3.528,1.854,3.937a1.441,1.441,0,0,0,.773.088,1.631,1.631,0,0,0,.229-.07,18.961,18.961,0,0,0,2.414,6.556,47.737,47.737,0,0,0,3,4.1c1.957,2.268,3.573,2.823,7.282,2.823h.129c4.157,0,4.876-.036,7.282-2.823a47.741,47.741,0,0,0,3-4.1,18.961,18.961,0,0,0,2.414-6.556A1.631,1.631,0,0,0,71.4,26a1.441,1.441,0,0,0,.773-.088c1.084-.409,1.533-1.947,1.854-3.937.4-2.454.169-4.641-1.191-4.862" transform="translate(17.937 0.747)" fill="#f9c484"/>
            <path id="Trazado_730705" data-name="Trazado 730705" d="M58.135,0h-.011c-5.9,0-8.843,1.013-11.792,4.139a11.106,11.106,0,0,0-3.051,8.015l.431,5.7a2.3,2.3,0,0,1,2.111,1.238v-6.61a5.237,5.237,0,0,1,5.24-5.239H65.206a5.237,5.237,0,0,1,5.24,5.239v6.61a2.3,2.3,0,0,1,2.11-1.238l.432-5.7a11.106,11.106,0,0,0-3.051-8.015C66.99,1.013,64.043,0,58.146,0Z" transform="translate(18.212 0)" fill="#706f6f"/>
            <path id="Trazado_730706" data-name="Trazado 730706" d="M56.138,20.539l-.065,0c-6.577-.021-9.321,5.217-7.509,9.39A5.792,5.792,0,0,0,53.586,33.4a19.212,19.212,0,0,0,2.486.132H56.2a19.235,19.235,0,0,0,2.488-.132,5.788,5.788,0,0,0,5.021-3.474c1.813-4.173-.931-9.412-7.509-9.39l-.065,0m-2.08,5.533a1.589,1.589,0,1,1,0-3.167H58.22a1.589,1.589,0,1,1,0,3.167Z" transform="translate(20.208 8.643)" fill="#706f6f"/>
            <path id="Trazado_730707" data-name="Trazado 730707" d="M62.347,67.454l-.1-.1c-2.647-2.677-2.057-6.61-.342-10.639l6.08-15.212,13.258,2.1L74.027,64.014c-2.89,5.882-9.032,6.117-11.679,3.44" transform="translate(25.437 17.468)" fill="#ededed"/>
            <path id="Trazado_730708" data-name="Trazado 730708" d="M53.065,56.539,49.773,55.48a6.877,6.877,0,0,1-2.18-1.168l-1.706-1.358a2.441,2.441,0,0,0-.7-.391L40.533,50.9a1.386,1.386,0,0,1-.844-1.768l.01-.026a1.384,1.384,0,0,1,1.766-.845L44.6,49.365l-2.373-2.438-4.518-2.271-5.081.023A1.384,1.384,0,0,1,31.235,43.3v-.028a1.383,1.383,0,0,1,1.378-1.391s6.047.119,6.063.126c0,0,3.947,1.164,5.146,1.637.224.088.514.263.82.422a31.185,31.185,0,0,1,7.133,4.986L55.444,51.7Z" transform="translate(13.145 17.626)" fill="#ebb677"/>
            <path id="Trazado_730709" data-name="Trazado 730709" d="M42.5,46.739,41.349,46.4l-1.776-.247-3.558,1.266a1.276,1.276,0,0,1-1.37-.341l-1.157.411a1.275,1.275,0,0,1-1.628-.774l-.009-.024a1.271,1.271,0,0,1-.072-.489,1.379,1.379,0,0,1-.82-1.006l-.006-.028a1.383,1.383,0,0,1,1.088-1.627l5.324-1.056c.017,0,.033,0,.048-.006.05-.007.1-.011.148-.014s.088,0,.132,0a1.23,1.23,0,0,1,.126.013c.051.007.1.016.151.027.016,0,.031,0,.047.009l5.216,1.5a1.385,1.385,0,0,1,.948,1.714l-.007.027a1.367,1.367,0,0,1-1.675.985" transform="translate(13.016 17.872)" fill="#ebb677"/>
            <path id="Trazado_730710" data-name="Trazado 730710" d="M53.065,56.539,49.773,55.48a6.877,6.877,0,0,1-2.18-1.168l-3-4.947-2.373-2.438-4.518-2.271-5.081.023A1.384,1.384,0,0,1,31.235,43.3v-.028a1.383,1.383,0,0,1,1.378-1.391s6.047.119,6.063.126c0,0,3.947,1.164,5.146,1.637.224.088.514.263.82.422a31.185,31.185,0,0,1,7.133,4.986L55.444,51.7Z" transform="translate(13.145 17.626)" fill="#f9c484"/>
            <path id="Trazado_730711" data-name="Trazado 730711" d="M80.383,61.29l-.028.135A6.816,6.816,0,0,1,72.3,66.716L45.4,61.142,48.2,47.657l26.892,5.575a6.816,6.816,0,0,1,5.291,8.058" transform="translate(19.108 20.057)" fill="#ededed"/>
            <g id="Grupo_997181" data-name="Grupo 997181" transform="translate(64.512 81.199)" opacity="0.1">
              <g id="Grupo_997180" data-name="Grupo 997180">
                <g id="Grupo_997179" data-name="Grupo 997179" clip-path="url(#clip-path-3)">
                  <path id="Trazado_730712" data-name="Trazado 730712" d="M79.81,59.014v4.629A6.808,6.808,0,0,1,73.317,65.8L46.555,60.314,45.4,57.147l26.9,5.571a6.8,6.8,0,0,0,7.512-3.7" transform="translate(-45.404 -57.148)" fill="#1d1d1b"/>
                </g>
              </g>
            </g>
            <path id="Trazado_730713" data-name="Trazado 730713" d="M44.649,36.125l4.687.735-2.714,2.447L57.59,56.989,50.216,29.682l-6.9,2.853Z" transform="translate(18.231 12.492)" fill="#fff"/>
            <path id="Trazado_730714" data-name="Trazado 730714" d="M51.931,43.6l4.142-3.761-7.9-10.158Z" transform="translate(20.274 12.492)" fill="#78dcff"/>
            <path id="Trazado_730715" data-name="Trazado 730715" d="M57.874,43.6l-4.142-3.761,7.9-10.158Z" transform="translate(22.614 12.492)" fill="#78dcff"/>
            <path id="Trazado_730716" data-name="Trazado 730716" d="M54.434,54.175,50.818,40.59l4.142-3.757,3.693,3.35Z" transform="translate(21.387 15.502)" fill="#65ccf0"/>
            <path id="Trazado_730717" data-name="Trazado 730717" d="M68.119,36.14l-4.687.735,2.714,2.447L51.7,64.817,62.553,29.7l6.9,2.853Z" transform="translate(21.759 12.498)" fill="#fff"/>
            <path id="Trazado_730718" data-name="Trazado 730718" d="M87.57,43.6,86.6,46.367l-6.246,17.65A6.823,6.823,0,0,1,72.3,69.3L47.008,64.064,45.4,63.736l2.8-13.49,1.172.246,19.713,4.091.539-1.348L74.315,41.5l.938.153Z" transform="translate(19.108 17.467)" fill="#ededed"/>
            <path id="Trazado_730719" data-name="Trazado 730719" d="M54.762,40.109a.916.916,0,1,1-.915-.915.915.915,0,0,1,.915.915" transform="translate(22.276 16.495)" fill="#fff"/>
            <path id="Trazado_730720" data-name="Trazado 730720" d="M54.762,45.175a.916.916,0,1,1-.915-.916.915.915,0,0,1,.915.916" transform="translate(22.276 18.627)" fill="#fff"/>
            <rect id="Rectángulo_349618" data-name="Rectángulo 349618" width="14.565" height="4.102" transform="translate(80.297 99.309)" fill="#fff"/>
          </g>
        </g>
      </g>
    </g>
  </g>
</svg>
