<svg id="Grupo_984590" data-name="Grupo 984590" xmlns="http://www.w3.org/2000/svg" xmlns:xlink="http://www.w3.org/1999/xlink" width="394.496" height="853.217" viewBox="0 0 394.496 853.217">
  <defs>
    <clipPath id="clip-path">
      <rect id="Rectángulo_345204" data-name="Rectángulo 345204" width="394.496" height="853.217" fill="none"/>
    </clipPath>
    <clipPath id="clip-path-3">
      <rect id="Rectángulo_345195" data-name="Rectángulo 345195" width="54.204" height="21.031" fill="none"/>
    </clipPath>
    <clipPath id="clip-path-4">
      <rect id="Rectángulo_345196" data-name="Rectángulo 345196" width="53.227" height="13.772" fill="none"/>
    </clipPath>
  </defs>
  <g id="Grupo_984589" data-name="Grupo 984589" clip-path="url(#clip-path)">
    <g id="Grupo_984588" data-name="Grupo 984588">
      <g id="Grupo_984587" data-name="Grupo 984587" clip-path="url(#clip-path)">
        <path id="Trazado_725790" data-name="Trazado 725790" d="M83.546,360.138l-5.084-44.8L130,310.748s-2.181,34.528-1.869,50.366c.147,7.465,5.475,21.508,5.475,21.508s-21.573,11.082-32.77,6.548-18.6-22.005-18.334-25.2,1.041-3.829,1.041-3.829" transform="translate(91.148 354.696)" fill="#ffbda7"/>
        <path id="Trazado_725791" data-name="Trazado 725791" d="M168.077,384.435c.712.013,1.244,6.506-2.68,9.688-4.532,3.675-18.923,10.7-36.179,8.221s-26.529-7.855-33.345-13.622-16.368-13.9-24.16-15.712c-7.241-1.687-16.984-7.6-19.269-9.827s-1.78-11.962-1.78-11.962Z" transform="translate(116.423 400.893)" fill="#263238"/>
        <path id="Trazado_725792" data-name="Trazado 725792" d="M58.1,333.776a2.769,2.769,0,0,0-2.661,2.233c-.582,2.675-1.3,10.467-2.533,14.853-1.7,6.095-3,18.622-2.144,23.628s14.555,11.238,22.072,14.178c7.682,3,16.517,9.075,24.251,15.523,8,6.673,24.978,13.763,36.255,13.874,13.343.133,28.441-3.82,32-9.791,4.4-7.388,7.665-16-11.948-25.275-3.712-1.756-16.72-9.568-21.153-12.395-11.987-7.649-20.391-14.624-25.724-27.888-.623-1.548-1.274-3.266-2.767-4.075a6.477,6.477,0,0,0-3.84-.4c-3.3.4-16.482,1.938-19.511,3.281-2.678,1.188-6.47,2.561-6.477,5.876a10.879,10.879,0,0,0,.681,3.381c.225.679.394,1.583-.221,1.972-.58.368-1.333-.075-1.841-.535-2.038-1.844-3.511-4.186-5.214-6.328a56.436,56.436,0,0,0-4.984-5.728c-1.056-.829-2.414-1.257-3.347-2.2-1.181-1.188-.865-2.632-.893-4.186" transform="translate(116.587 380.981)" fill="#455a64"/>
        <path id="Trazado_725793" data-name="Trazado 725793" d="M61.016,379.047c-3.4-2.833-7.011-5.576-10.644-8.035l0-.017s23,14.183,32.519,8.086c6.133-3.927,3.344-8.876,3.228-10.444s21.471-12.249,27.364-12.831c1.622.91,2.964,1.692,3.838,2.049,15.331,6.281,17.242,14.08,14.49,23.8-3.556,5.97-17.069,11.968-34.312,11.673-11.273-.191-28.478-7.6-36.484-14.277" transform="translate(152.657 406.126)" fill="#37474f"/>
        <path id="Trazado_725794" data-name="Trazado 725794" d="M135.333,389.192c12.21,5,6.92,7.155,3.468,7.574s-23.935-11.718-36.38-21.671C89.442,364.711,79.435,350.9,74.613,347.089c-1.8-1.422-3.73-3.165-5.445-4.79.372-2.634.679-5.032.954-6.292a2.767,2.767,0,0,1,2.661-2.231c.028,1.555-.288,3,.893,4.184.932.938,2.291,1.368,3.347,2.2a56.643,56.643,0,0,1,4.984,5.726c1.7,2.141,3.176,4.486,5.214,6.33,10.494,13.47,35.9,31.974,48.112,36.978" transform="translate(101.905 380.981)" fill="#37474f"/>
        <path id="Trazado_725795" data-name="Trazado 725795" d="M59.1,370.122a1.217,1.217,0,0,1-.766-.283,1.164,1.164,0,0,1-.141-1.672c3.552-4.084,20.188-13.634,29.22-12.512a1.188,1.188,0,1,1-.305,2.356c-8.435-1.03-24.246,8.456-27.059,11.692a1.221,1.221,0,0,1-.95.42" transform="translate(180.768 405.85)" fill="#263238"/>
        <path id="Trazado_725796" data-name="Trazado 725796" d="M64,367.027a1.227,1.227,0,0,1-.766-.281,1.166,1.166,0,0,1-.138-1.672c3.546-4.082,20.179-13.626,29.218-12.51a1.189,1.189,0,0,1,1.054,1.326,1.2,1.2,0,0,1-1.359,1.03c-8.437-1.019-24.246,8.452-27.059,11.688a1.221,1.221,0,0,1-.95.42" transform="translate(165.258 402.323)" fill="#263238"/>
        <path id="Trazado_725797" data-name="Trazado 725797" d="M68.906,364.1a1.221,1.221,0,0,1-.766-.283,1.165,1.165,0,0,1-.141-1.67c3.552-4.086,20.188-13.643,29.22-12.51a1.188,1.188,0,1,1-.305,2.356c-8.437-1.03-24.246,8.45-27.059,11.688a1.218,1.218,0,0,1-.95.42" transform="translate(149.732 398.975)" fill="#263238"/>
        <path id="Trazado_725798" data-name="Trazado 725798" d="M73.442,360.765a1.226,1.226,0,0,1-.766-.28,1.168,1.168,0,0,1-.141-1.672c3.548-4.086,20.221-13.632,29.22-12.51a1.189,1.189,0,0,1,1.054,1.326,1.2,1.2,0,0,1-1.359,1.03c-8.428-1.024-24.246,8.452-27.059,11.688a1.224,1.224,0,0,1-.95.42" transform="translate(135.383 395.174)" fill="#263238"/>
        <path id="Trazado_725799" data-name="Trazado 725799" d="M76.929,357.482a1.226,1.226,0,0,1-.751-.27,1.167,1.167,0,0,1-.167-1.67c4.883-5.793,22.267-13.712,31.295-12.594a1.191,1.191,0,0,1,1.056,1.326A1.217,1.217,0,0,1,107,345.3c-8.128-1-24.776,6.611-29.11,11.746a1.222,1.222,0,0,1-.963.433" transform="translate(122.284 391.328)" fill="#263238"/>
        <path id="Trazado_725800" data-name="Trazado 725800" d="M179.817,376.721l12.26-53.8-53.611-8.279-.859,53.107s-4.1,14.281-1.075,19.194,35.23,10.075,38.18,6.805,5.105-17.031,5.105-17.031" transform="translate(-90.537 359.144)" fill="#ffbda7"/>
        <path id="Trazado_725801" data-name="Trazado 725801" d="M201.235,393.471c-1.411,12.067-3.965,19.87-9.242,26.406s-14.672,7.651-23.974,4.424-21.069-10.272-23.243-21.093-1.274-17.945,1.419-28.967Z" transform="translate(-117.305 427.169)" fill="#263238"/>
        <path id="Trazado_725802" data-name="Trazado 725802" d="M160.057,339.447c-3.887-.2-2.836,9.3-4.668,25.567-1.984,17.6-10,31.4-12.852,45.507-3.258,16.123-2.639,23.579,3.431,34.3s28.813,23.277,40.965,10.446C196.84,444.809,197.861,432,197.824,415.5c-.041-17.054-.221-29.07,1.207-41.837,1.363-12.2,6.535-23.477,3.236-25.252-.348,1.775-3.65,14.133-5.824,13.934a22.313,22.313,0,0,1,.186-4.636,5.217,5.217,0,0,0-.865-4.094c-.989-1.195-4.694-2.683-6.252-3.146-3.779-1.124-10.535-2.523-14.395-3.3-1.919-.388-3.853-.7-5.791-.919a17.2,17.2,0,0,0-4.941.019,3.026,3.026,0,0,0-2.181,1.413,4.61,4.61,0,0,0-.294,1.85,11.626,11.626,0,0,1-.653,3.313c-.164.467-.575,1.013-1.125.829a1.036,1.036,0,0,1-.582-1.071c.082-1.983.374-12.12.506-13.161" transform="translate(-112.988 387.45)" fill="#455a64"/>
        <path id="Trazado_725803" data-name="Trazado 725803" d="M146.2,370.5c-.493,2.323-3.559,17.727,1.172,21.144,5.121,3.7,8.623-8.279,8.623-8.279s12.53-1.822,30.185,7.264c-1.049,2.433,1.311,11.159,6.336,9.985,4.993-1.165,7.82-18.917,7.857-19.149-.03,15.81-1.27,28.19-10.888,38.344-12.151,12.831-34.9.281-40.965-10.446s-6.691-18.179-3.431-34.3c.327-1.613.7-3.12,1.11-4.563" transform="translate(-115.545 422.903)" fill="#37474f"/>
        <path id="Trazado_725804" data-name="Trazado 725804" d="M167.433,420.045c-.372,5.925-6.957,3.112-6.832-5.3s4.586-28.854,6.276-42.617c1.125-19.8,1.923-32.879,5.811-32.678-.024.2-.028.4-.05.6,0,0-.4,11.279-.456,12.559-.7,12.095-.855,35.595-2.594,46.52a168.691,168.691,0,0,0-2.155,20.917" transform="translate(-125.618 387.45)" fill="#37474f"/>
        <path id="Trazado_725805" data-name="Trazado 725805" d="M140.776,420.889a165.792,165.792,0,0,0,4.723-20.378c1.882-10.81,8.42-32.455,11.658-44.094,1.047-1.91,4.34-12.784,4.34-12.784,2.691.754,0,11.123-1.259,15.975s-2.795,10.054-4.37,17.016c-4.024,13.722-4.407,34.319-7,42.216s-9.651,7.726-8.091,2.049" transform="translate(-72.216 392.232)" fill="#37474f"/>
        <path id="Trazado_725806" data-name="Trazado 725806" d="M180.757,385.125a1.758,1.758,0,0,1-.517-.2c-.134-.083-13.886-8.092-29.715-6.33a1.6,1.6,0,0,1-1.711-1.107,1.162,1.162,0,0,1,1.1-1.418c16.932-1.884,31.171,6.426,31.775,6.784a1.245,1.245,0,0,1,.519,1.771,1.4,1.4,0,0,1-1.447.5" transform="translate(-109.762 428.941)" fill="#263238"/>
        <path id="Trazado_725807" data-name="Trazado 725807" d="M182.432,379.625a1.745,1.745,0,0,1-.472-.173c-.154-.083-15.643-8.5-33.272-7.075a1.6,1.6,0,0,1-1.677-1.154,1.173,1.173,0,0,1,1.153-1.381c18.643-1.5,34.481,7.122,35.15,7.486a1.268,1.268,0,0,1,.595,1.762,1.393,1.393,0,0,1-1.478.535" transform="translate(-107.561 421.947)" fill="#263238"/>
        <path id="Trazado_725808" data-name="Trazado 725808" d="M147.392,366.909a1.564,1.564,0,0,1-1.177-.994,1.152,1.152,0,0,1,.978-1.493c17.629-3.054,34.408,6.769,35.117,7.193a1.242,1.242,0,0,1,.521,1.771,1.511,1.511,0,0,1-1.964.3c-.16-.092-16.463-9.619-32.865-6.758a1.623,1.623,0,0,1-.61-.015" transform="translate(-104.718 415.292)" fill="#263238"/>
        <path id="Trazado_725809" data-name="Trazado 725809" d="M146.382,361.68a1.564,1.564,0,0,1-1.166-.972,1.142,1.142,0,0,1,.943-1.508c19.4-3.685,35.171,6.739,35.831,7.182a1.221,1.221,0,0,1,.4,1.788,1.519,1.519,0,0,1-1.995.184c-.145-.1-15.316-10.09-33.376-6.666a1.617,1.617,0,0,1-.634-.009" transform="translate(-102.14 409.102)" fill="#263238"/>
        <path id="Trazado_725810" data-name="Trazado 725810" d="M145.427,355.684a1.565,1.565,0,0,1-1.162-.957,1.143,1.143,0,0,1,.922-1.52c18.2-3.707,35.349,7.1,36.067,7.566a1.231,1.231,0,0,1,.443,1.784,1.489,1.489,0,0,1-1.984.225c-.169-.1-16.74-10.538-33.635-7.092a1.626,1.626,0,0,1-.651,0" transform="translate(-99.363 402.276)" fill="#263238"/>
        <path id="Trazado_725811" data-name="Trazado 725811" d="M96.872,149.913C89.5,245.376,86.248,387.8,86.248,387.8c-.658,7.249-4.826,17.4-8.225,53.157-3.587,37.723-3.451,91.58-3.451,91.58s32.216,13.615,52.235,6.581c0,0,21.516-80.787,31.928-125.216,9.852-42.045,17.107-107.8,17.107-107.8l11.695,63.343s-1.469,27.213-.781,46.259c.8,22.153,12.883,106.964,12.883,106.964s29.929,17.746,50.758.831c0,0,10.135-124.483,10.812-151.127,1.326-52.262,2.838-155.048-3.4-222.466Z" transform="translate(-29.221 171.115)" fill="#37474f"/>
        <path id="Trazado_725812" data-name="Trazado 725812" d="M92.742,267.323l10.527-67.9s24.251-3.66,36.714-15.53c0,0-8.069,15.733-30.948,21.806L98.583,267.505l5.854,63.161Z" transform="translate(53.883 209.898)" fill="#263238"/>
        <path id="Trazado_725813" data-name="Trazado 725813" d="M135.42,337.973c9,6.983,35.2,12.936,53.129,6.518l3.611-14.986c-13.536,4.512-41.421,1.651-56.432-7.521Z" transform="translate(-90.62 367.522)" fill="#455a64"/>
        <path id="Trazado_725814" data-name="Trazado 725814" d="M81.358,332.748c6.07,6.095,34.206,11.138,50.827,1.5l1.229-15.041c-12.6,6.947-41.551,5.76-53.9-1.373Z" transform="translate(89.062 362.783)" fill="#455a64"/>
        <path id="Trazado_725815" data-name="Trazado 725815" d="M139.23,219.546s-2.791,67.179-2.6,72.07,37.081,14.566,38.04,11.457c1.592-5.176,1.194-16.722,4.381-72.374-30.587-3.912-39.82-11.153-39.82-11.153" transform="translate(-80.106 250.596)" fill="#455a64"/>
        <path id="Trazado_725816" data-name="Trazado 725816" d="M172.047,237.808a11.991,11.991,0,0,0-3.481-.287c-1.354-.032-2.7-.092-4.054-.2a62.948,62.948,0,0,1-8.5-1.291,67.764,67.764,0,0,1-9.315-2.8c-2.471-.938-4.811-2.206-7.286-3.122-.231-.086-.27.358-.121.467a35.828,35.828,0,0,0,7.794,3.923,58.914,58.914,0,0,0,7.7,2.456,63.48,63.48,0,0,0,8.474,1.49q2.138.228,4.29.308c1.354.049,3.29.355,4.513-.319.188-.1.212-.546-.017-.623" transform="translate(-78.858 262.635)" fill="#37474f"/>
        <path id="Trazado_725817" data-name="Trazado 725817" d="M151.132,231.7a1.815,1.815,0,0,1-.64,1.535,2.616,2.616,0,0,1-3.961-2.484,2.211,2.211,0,0,1,.917-1.52,2.677,2.677,0,0,1,1.856-.469c.8.092,1.069.522,1.421,1.212a3.768,3.768,0,0,1,.407,1.726M149.6,230.17a1.46,1.46,0,0,0-1.032-.268c-1.153.12-1.346,1.927-.4,2.465a1.513,1.513,0,0,0,1.858-.343,1.488,1.488,0,0,0-.422-1.854" transform="translate(-73.586 261.093)" fill="#37474f"/>
        <path id="Trazado_725818" data-name="Trazado 725818" d="M174.709,137.891c-5.428,5.574-10.717,13.834-19.915,23.684s-22.884,26.779-36.746,37.693c-13.925,10.962-20.815,15.528-42.3-1.176-27.284-21.207-55.5-52.321-55.5-52.321L0,77.684c20.324.385,29.694,6.347,45,21.678,26.165,26.209,54.565,54.677,54.565,54.677s40.787-31.942,45.981-36.83a23.566,23.566,0,0,0,7.3-13.8,109.426,109.426,0,0,1,2.75-13.093c1.175-4.572,1.631-6.307,2.94-12.022s1.564-15.063,1.936-17.17c.956-2.463,4.415-2.747,8.136,2.409,2.308,3.2,2.6,7.793,2.882,10.806.307,3.351-.125,7.536.971,7.934s5.527-2.7,10.168-4.518,8.588-4.463,14.142-3.649a6.3,6.3,0,0,1,5.553,7.628,8.151,8.151,0,0,1-2.377,3.591,6.9,6.9,0,0,1,5.35.833c2.6,1.675,3.312,6.945,1.467,9.2a4.226,4.226,0,0,1,4.61,3.052c1.021,3.034,1.131,6.176-1.843,7.853,0,0,2.691.231,3.074,1.715s.926,5.086-1.439,7.212-8.71,3.4-8.71,3.4-.309,1.188-3.089,3.154c-.971.685-5.01,4.379-9.248,6.788-3.725,2.116-11.087,4.908-15.409,9.347" transform="translate(181.552 67.823)" fill="#ffbda7"/>
        <path id="Trazado_725819" data-name="Trazado 725819" d="M22.149,101.824A2.69,2.69,0,0,0,23.122,104a21.946,21.946,0,0,0,2.581,1.891,13.021,13.021,0,0,0,1.356.837,5.262,5.262,0,0,0,1.428.49l3.269.675a13.394,13.394,0,0,1-3.4.223,4.359,4.359,0,0,1-1.772-.424,13.321,13.321,0,0,1-1.536-.822,14.231,14.231,0,0,1-2.607-2.272,3.623,3.623,0,0,1-.736-1.675,2.288,2.288,0,0,1,.218-1.124,15.174,15.174,0,0,1-2.665-.576c-1.291-.454-2.747-.709-3.87-1.912a6.336,6.336,0,0,1-1.021-1.947,2.357,2.357,0,0,1-.106-.694L13.08,95.408s-.2,3.326-3.39,8.122a22.325,22.325,0,0,1-8.112,7.112s3.736-2.159,6.747-8.6c2.589-5.536.867-12.7-1.084-16.215A1.5,1.5,0,0,1,7,85.791a3.01,3.01,0,0,1-1.2-1.086A4.01,4.01,0,0,1,5.26,81.8a8.292,8.292,0,0,1,.969-2.613c1.813-3.208,5.038-5.169,8.283-6.444a7.5,7.5,0,0,1,1.032-2.09,12.1,12.1,0,0,1,1.588-1.85,14.922,14.922,0,0,0-1.356,1.989,6.859,6.859,0,0,0-.831,2.169l-.022.131-.134.062c-3.115,1.463-6.057,3.574-7.645,6.527-.77,1.411-1.235,3.221-.4,4.384.515.69.831.861,1.635.623.774-.2,1.635-.527,2.492-.771,1.735-.51,3.476-.786,5.138-1.24A20.683,20.683,0,0,0,20.738,80.7c1.5-.852,2.92-1.874,4.359-2.874a35.9,35.9,0,0,0,4.149-3.2,42.523,42.523,0,0,1-8.063,6.8A17.848,17.848,0,0,1,16.3,83.671c-1.724.5-3.463.809-5.092,1.323-.335.1-.662.218-.993.334A3.206,3.206,0,0,0,9.379,87.5a3.564,3.564,0,0,0,2.287,3.156,21.547,21.547,0,0,0,4.112,1.591,12.222,12.222,0,0,0,4.27.36c2.758-.5,5.315-2.36,7.97-3.747,2.652-1.448,5.311-2.885,8.045-4.2-2.473,1.75-5.017,3.377-7.569,4.994-1.268.82-2.566,1.587-3.89,2.353a13.391,13.391,0,0,1-4.374,1.75,13.487,13.487,0,0,1-2.92-.139,4.3,4.3,0,0,0-2.118,1.818,1.957,1.957,0,0,0-.121,1.692,5.654,5.654,0,0,0,.984,1.58,9.073,9.073,0,0,0,3.5,1.493,8.538,8.538,0,0,0,3.779.415A15.047,15.047,0,0,0,26.9,98.967a25.33,25.33,0,0,1,3.926-1.424c2.644-.769,5.3-1.445,8-1.979-2.561,1-5.151,1.893-7.712,2.833a39.926,39.926,0,0,0-3.734,1.529,15.023,15.023,0,0,1-3.82,1.844,5.971,5.971,0,0,1-1.415.054M9.63,85.581c.019-.026.032-.056.052-.081l0,0c-.013.026-.032.054-.048.079" transform="translate(352.252 78.529)" fill="#f0997a"/>
        <path id="Trazado_725820" data-name="Trazado 725820" d="M23.173,67.444c17.655.837,24.7,4.625,42.133,20.172s55.173,56.045,55.173,56.045l36.549-27.472s-2.561,5.626,6.2,17.662,20.852,10.988,20.852,10.988-22.728,26.151-33.153,36.1-22.615,19.84-29.136,20.466-11.649-1.437-25.984-11.784-72.631-62.51-72.631-62.51Z" transform="translate(160.289 76.982)" fill="#37474f"/>
        <path id="Trazado_725821" data-name="Trazado 725821" d="M138.516,164.028c-10.226-4.972-19.844-4.525-23.126-17.226-2.555-9.889,3.494-20.179,4.482-29.517,1.108-10.448-4.521-22.427,1.947-30.755,4.4-5.666,12.816-6.964,17.43-12.461,6.323-7.534,2.923-19.3,7.232-28.113a18.185,18.185,0,0,1,19.911-9.334c8.976,2.131,16.906,1.711,25.319,5.473S207.5,53.2,208.642,62.267c1.27,10.069-5.175,19.941-3.853,30,.8,6.12,4.379,11.476,6.9,17.123s3.9,12.568.5,17.74-10.323,6.756-14.892,10.956c-7.355,6.758-7.016,18.388-12.067,26.973-6.278,10.666-21.689,14.829-32.571,8.8-5.034-2.79-8.958-7.313-14.137-9.831" transform="translate(-67.99 41.303)" fill="#263238"/>
        <path id="Trazado_725822" data-name="Trazado 725822" d="M170.849,67.157s-55.855,3.064-69.771,9.345c-6.369,2.874-20.314,19.277-17.428,58.709,1.162,15.864,7.626,48.255,7.762,60.133.193,16.821-14.827,71.432-14.827,71.432,52.409,31.89,145.068,22.1,163.85,5.017,0,0-6.371-70.571-8.366-106.847,0,0,10.044-16.744,9.222-28.014-1.209-16.538-4.679-22.41-19.974-40.906A311.478,311.478,0,0,0,195.176,67.78Z" transform="translate(-12.52 76.655)" fill="#455a64"/>
        <path id="Trazado_725823" data-name="Trazado 725823" d="M107.332,28.072C89.316,30.048,84.959,59.2,89.236,75.644c8.251,31.719,29.875,35.43,30.713,48.972q16.189-9.4,32.378-18.8,12.594-7.314,25.19-14.626c7.247-4.208,13.927-8.217,19.39-14.716a32.462,32.462,0,0,0,4.21-6.169,29.5,29.5,0,0,0,2.75-15.234c-1.077-16.491-11.394-30.924-24.42-40.717-10.191-7.662-25.672-14.984-38.9-12.1-14.135,3.086-28.919,11.138-33.218,25.815" transform="translate(0.792 1.842)" fill="#263238"/>
        <path id="Trazado_725824" data-name="Trazado 725824" d="M115.374,119.609,113.581,90.2s-8.171,4.842-15.959-3.15c-8.88-9.112-9.757-19.05-4.911-25.425,5.354-7.045,17.185-4.377,22.31,4.21,7.725,1.829,10.86-9.1,5-20.307,0,0,37.419,2.527,54.771-25.641,4.7-4.375,12.552-3.5,15.106,2.336,1.828,4.176,4.236,11.159,2.5,25.3-.643,5.251,1.917,11.517,1.715,18.607-.787,27.971-7.225,36.98-14.964,41.7-4.826,2.942-12.846,4.69-21.123,4.709l.625,7.534c.169,4.09,1.144,4.223,4.725,4.42,2.838.156,5.361.308,5.361.308l-11.08,35.171c-11.922-15.155-35.77-18.675-60.138-30.213,0,0,2.39-.4,8.943-1.358s8.366-3.294,8.911-8.786" transform="translate(6.131 19.55)" fill="#ffbda7"/>
        <path id="Trazado_725825" data-name="Trazado 725825" d="M103.7,46.491,119.049,51.4a7.938,7.938,0,0,1-10.016,5.418,8.341,8.341,0,0,1-5.335-10.33" transform="translate(51.874 53.066)" fill="#b16668"/>
        <path id="Trazado_725826" data-name="Trazado 725826" d="M107.1,48.136a8.857,8.857,0,0,1,8.846,6.883,7.759,7.759,0,0,1-4.474-.073,8.231,8.231,0,0,1-5.564-6.666,9.1,9.1,0,0,1,1.192-.143" transform="translate(49.434 54.942)" fill="#f28f8f"/>
        <path id="Trazado_725827" data-name="Trazado 725827" d="M102.957,32.9l-10.17-4.493a5.363,5.363,0,0,1,7.18-2.91,5.768,5.768,0,0,1,2.99,7.4" transform="translate(90.393 28.568)" fill="#263238"/>
        <path id="Trazado_725828" data-name="Trazado 725828" d="M93.894,34.858a4.74,4.74,0,0,0,4.255,5.026,4.465,4.465,0,0,0,5-4.039,4.741,4.741,0,0,0-4.255-5.026,4.463,4.463,0,0,0-5,4.039" transform="translate(88.246 35.147)" fill="#263238"/>
        <path id="Trazado_725829" data-name="Trazado 725829" d="M111.5,35.066l9.908-5.332a5.436,5.436,0,0,0-7.481-2.377,5.836,5.836,0,0,0-2.427,7.709" transform="translate(33.193 30.469)" fill="#263238"/>
        <path id="Trazado_725830" data-name="Trazado 725830" d="M110.136,35.317a4.743,4.743,0,0,0,4.255,5.026,4.464,4.464,0,0,0,5-4.041,4.737,4.737,0,0,0-4.255-5.024,4.464,4.464,0,0,0-5,4.039" transform="translate(36.868 35.671)" fill="#263238"/>
        <path id="Trazado_725831" data-name="Trazado 725831" d="M97.551,28.818l3.3,31.43,15.481-8.107Z" transform="translate(67.128 32.894)" fill="#f0997a"/>
        <path id="Trazado_725832" data-name="Trazado 725832" d="M145.2,71.969c-20.471.33-33.436-7.086-38.968-19.3,0,0,1.757,11.463,10.066,17.652,9.3,6.93,29.421,7.2,29.421,7.2Z" transform="translate(18.957 60.114)" fill="#f0997a"/>
        <path id="Trazado_725833" data-name="Trazado 725833" d="M69.562,67.262c26.585,25.727,41.726,61.936,44.7,92.349s3.79,156.234,3.79,156.234,17.78.041,26.014-5.889c-4.813-69.766-9.737-138.094-13.19-173.036-1.173-11.9-6.15-22.314-12.108-31.533A144.271,144.271,0,0,0,83.52,67.654Z" transform="translate(99.945 76.775)" fill="#06d1d1"/>
        <path id="Trazado_725834" data-name="Trazado 725834" d="M93.822,149.883a209.661,209.661,0,0,1-21.495,4.533c-.067-3.593-.138-7.193-.212-10.771a199.833,199.833,0,0,0,20.908-4.64q.4,5.364.8,10.878" transform="translate(144.667 158.664)" fill="#fafafa"/>
        <path id="Trazado_725835" data-name="Trazado 725835" d="M70.889,161.571a200.167,200.167,0,0,0,22.938-5.3q.383,5.412.772,10.9a209.294,209.294,0,0,1-23.565,5.18c-.043-3.48-.093-7.086-.145-10.784" transform="translate(146.542 178.374)" fill="#fafafa"/>
        <path id="Trazado_725836" data-name="Trazado 725836" d="M188.274,67.136c1.651,26.207,9.579,59.459,9.923,87.741.623,51.283-15.453,165.02-15.453,165.02s-37.278-.548-60.612-16.77c-.141-12.32,10.434-55.647,15.667-73.627s7.249-40.777.463-69.3-1.912-64.027,11.494-83.948Z" transform="translate(-67.929 76.631)" fill="#06d1d1"/>
        <path id="Trazado_725837" data-name="Trazado 725837" d="M185.64,180.536c-30.54-2.366-49.871-10.275-59.279-15.292.757-3.313,1.478-6.559,2.336-9.928,12.259,6.253,37.547,12.99,58.2,14.8-.428,3.6-.85,7.086-1.259,10.422" transform="translate(-65.762 177.282)" fill="#fafafa"/>
        <path id="Trazado_725838" data-name="Trazado 725838" d="M124.91,147.395c.774-2.664,1.467-5.446,2.083-8.324a200.182,200.182,0,0,0,53.6,9.433q-.535,5.355-1.1,10.658a211.017,211.017,0,0,1-55.178-9.7c.2-.715.4-1.411.591-2.062" transform="translate(-55.039 158.739)" fill="#fafafa"/>
        <path id="Trazado_725839" data-name="Trazado 725839" d="M92.454,73.917a57.154,57.154,0,0,0,6.483-3.887c3.983-2.69,5.155-5.76,9.4-5.76,2.4,10.966,16.288,21.607,26.987,25.963,10.265,4.178,15.39,15.924,15.39,15.924S138.262,94.717,130.04,98.2s-23.976,12.566-23.976,12.566S97.7,98.473,94.927,89.4c-3.048-9.951-2.473-15.485-2.473-15.485M155.746,86.4c.978-3.446-2.14-16.059-2.14-16.059s-1.726.032-1.886-3.409c-.009-.21-.084-1.775-.08-2.013.4-.011,1.391.822,2.992,1.9a47.057,47.057,0,0,0,8.748,4.1s14,13.493,18.129,27.29c-7.738-5.533-15.124-6.615-21.361-2.81-7.855,4.79-9.434,10.763-9.434,10.763-.556-6.583,4.054-16.316,5.032-19.761" transform="translate(13.072 73.359)" fill="#e0e0e0"/>
        <path id="Trazado_725840" data-name="Trazado 725840" d="M155.374,248.58l57.1-135.736L93.7,128.977,42.116,266.844Z" transform="translate(90.911 128.802)" fill="#ebebeb"/>
        <path id="Trazado_725841" data-name="Trazado 725841" d="M211.61,114.859,95.349,130.652,44.641,266.193,155.47,248.319Zm3.451-2.63L157.006,250.242,41.32,268.9,93.77,128.7Z" transform="translate(90.047 128.101)" fill="#e0e0e0"/>
        <g id="Grupo_984565" data-name="Grupo 984565" transform="translate(144.661 341.412)" opacity="0.15">
          <g id="Grupo_984564" data-name="Grupo 984564" transform="translate(0)">
            <g id="Grupo_984563" data-name="Grupo 984563" clip-path="url(#clip-path-3)">
              <path id="Trazado_725842" data-name="Trazado 725842" d="M144.635,159.432c-.991,3.786-6.462,16.577-20.519,19.4-15.993,3.221-33.685.668-33.685.668l6.012-16.069Z" transform="translate(-90.431 -159.432)"/>
            </g>
          </g>
        </g>
        <g id="Grupo_984568" data-name="Grupo 984568" transform="translate(216.488 250.136)" opacity="0.15">
          <g id="Grupo_984567" data-name="Grupo 984567">
            <g id="Grupo_984566" data-name="Grupo 984566" clip-path="url(#clip-path-4)">
              <path id="Trazado_725843" data-name="Trazado 725843" d="M109.324,123.762s.679-1.934,1.514-4.321-6.046-3.321-15.375-2.09L77.6,119.708c-9.33,1.231-17.57,4.165-18.408,6.551l-1.514,4.321Z" transform="translate(-57.681 -116.808)"/>
            </g>
          </g>
        </g>
        <path id="Trazado_725844" data-name="Trazado 725844" d="M117.137,117.281c.53-1.49-2.215-2.229-6.131-1.649l-7.087,1.047s3.226-9.349-12.4-7.829-20.294,12.016-20.294,12.016l-7.574,1.176c-4.182.649-8.112,2.366-8.777,3.833l-1.207,2.655,62.479-8.48s.465-1.278.993-2.769" transform="translate(161.197 124.054)" fill="#03a4a4"/>
        <path id="Trazado_725846" data-name="Trazado 725846" d="M58.419,130.3c.694-1.983,6.529-4.33,13.828-5.778.084-.248.171-.5.234-.7.677-2.079-.08-3.471-4.48-2.867l-.151-1.735,43.286-5.521-1.988,1.625c-5.711.655-8.106,1.107-9.4,4.784-.106.3-.182.55-.281.842,6.76-.383,11.28.576,10.6,2.527-.837,2.388-1.514,4.321-1.514,4.321L56.9,134.625Z" transform="translate(160.265 129.789)" fill="#057272"/>
        <path id="Trazado_725848" data-name="Trazado 725848" d="M86.656,153.844c2.031-16.164,8.136-32.582,8.136-32.582l49.06,21.391s10.427,5.392,34.323,16.695c12.954,6.127,24.56,10.69,35.881,8.418,3.342-.672,14.754-2.249,18.159-2.535,3.693-.311,7.4.1,11.1.013,2.367-.056,7.048-.79,7.048-.79l-4.777,12.763-.98.388c-3.022,1.2-.971,3.36,1.151,4.229a49.3,49.3,0,0,0,19.368,3.294,111.959,111.959,0,0,0,19.615-2.383,12.162,12.162,0,0,1,3.409-.334,3.537,3.537,0,0,1,2.765,5.788,14.665,14.665,0,0,1-3.145,3.231A8.725,8.725,0,0,0,285,194.942c-.723,2.081.026,4.521-.991,6.478-1.186,2.281-4.162,2.88-6.189,4.478-1.767,1.394-2.756,3.514-4.141,5.283a19.22,19.22,0,0,1-8.642,5.878c-9.387,3.441-18.868,2.461-28.58,1.212-20.257-2.606-35.569-10.328-45.3-13.294s-22.083-5.144-51.149-13.076c-23.695-6.467-30.12-8.806-38.767-12.2-10.349-4.062-16.614-9.694-14.583-25.858" transform="translate(-83.77 138.412)" fill="#ffbda7"/>
        <path id="Trazado_725849" data-name="Trazado 725849" d="M140.615,194.469c5.765-18.453,13.583-42.064,22.319-65,4.2-11.035,5.936-17.194,14.046-33.811,7.556-15.485,24.344-19.121,42.2-24.444,0,0,16.874,28.123,5.268,64.35-6.233,19.457-27.061,63.223-27.061,63.223l39.23,20.093a50.064,50.064,0,0,0-12.649,16.4c-5.359,10.814,1.287,23.781,1.287,23.781S185.759,248.1,170.8,244.6s-28.7-11.523-32.58-17.442-3.373-14.234,2.393-32.687" transform="translate(-135.717 81.287)" fill="#37474f"/>
        <path id="Trazado_725850" data-name="Trazado 725850" d="M89.715,69.292a58.6,58.6,0,0,0,5.361,16.1,60.543,60.543,0,0,1,3.736-4.865c7.182-8.525,16.638-15.947,27.3-21.975l.05-.011c23.915-13.463,54.025-19.746,78.922-14.99a56.334,56.334,0,0,0-5.644-13.442A59.294,59.294,0,0,0,137.7,1.345C105.449,7,84.01,37.419,89.715,69.292" transform="translate(-2.685 0.499)" fill="#06d1d1"/>
        <path id="Trazado_725851" data-name="Trazado 725851" d="M104.809,9.674c2.843-1.651,17.352-7.232,18.514-7.683,7.518-2.929,19.9-3.758,33.456,5.585a59.509,59.509,0,0,1,22.47,30.237l-15.4,6.159-5.006.878c-2.789-11.339-20.119-34.907-41.7-34.132a20.847,20.847,0,0,0-3.039.283,28.263,28.263,0,0,0-8.186,2.338,80.426,80.426,0,0,0-7.81,7.281,13.064,13.064,0,0,1,6.7-10.945" transform="translate(3.002 -0.001)" fill="#01c1c1"/>
        <path id="Trazado_725853" data-name="Trazado 725853" d="M166,41.566c-3.28-13.2-26.447-43.244-52.917-31.543a80.339,80.339,0,0,0-7.842,7.285,13.172,13.172,0,0,1,6.719-10.936c6.825-3.923,20.9-6.713,36.582,4.094a59.368,59.368,0,0,1,22.442,30.226Z" transform="translate(-4.142 3.292)" fill="#03a4a4"/>
        <path id="Trazado_725855" data-name="Trazado 725855" d="M80.466,44.508c1.071-1.09,5.616-13.26,24.4-25.183,11.6-7.356,36.389-9.641,47.537-10.343,19.515-1.229,24.5,2.508,24.975,5.328.112.67.636,3.771.783,4.471a2.724,2.724,0,0,1-.26,1.861c-2.568,4.61-17.7,13.433-17.7,13.433-24.9-4.756-55.007,1.527-78.922,14.99Z" transform="translate(42.199 9.977)" fill="#03a4a4"/>
        <path id="Trazado_725857" data-name="Trazado 725857" d="M80.461,46.636c23.915-13.463,54.025-19.746,78.922-14.99,0,0,15.132-8.825,17.7-13.433,1.367-2.544-.541-8.624-24.683-7.1-11.148.7-35.941,2.987-47.537,10.345-18.786,11.921-23.331,24.091-24.4,25.181" transform="translate(43.019 12.406)" fill="#00b7b7"/>
      </g>
    </g>
  </g>
</svg>
