<svg xmlns="http://www.w3.org/2000/svg" xmlns:xlink="http://www.w3.org/1999/xlink" width="118" height="118" viewBox="0 0 118 118">
  <defs>
    <clipPath id="clip-path">
      <rect id="Rectángulo_349626" data-name="Rectángulo 349626" width="94.366" height="81.081" fill="none"/>
    </clipPath>
  </defs>
  <g id="Grupo_997417" data-name="Grupo 997417" transform="translate(-394 -6189)">
    <circle id="Elipse_5909" data-name="Elipse 5909" cx="59" cy="59" r="59" transform="translate(394 6189)" fill="#ffc403"/>
    <g id="Grupo_997200" data-name="Grupo 997200" transform="translate(405.885 6206.951)">
      <g id="Grupo_997199" data-name="Grupo 997199" clip-path="url(#clip-path)">
        <path id="Trazado_730744" data-name="Trazado 730744" d="M47.222,81.079q-19.848,0-39.7,0Q0,81.073,0,73.492,0,46.038,0,18.584c0-5.038,2.506-7.6,7.552-7.516,1.712.029,2.516-.371,2.774-2.2a4.954,4.954,0,0,1,4.939-4.352,37.62,37.62,0,0,1,4.591-.013A5.267,5.267,0,0,1,25.2,9.534c.114,1.058.409,1.543,1.539,1.507,1.165-.037,1.237-.741,1.229-1.6-.01-1.1-.027-2.2.014-3.305A5.97,5.97,0,0,1,34.183.023q12.773-.048,25.545,0A6,6,0,0,1,66.02,6.237q.056,1.743.012,3.489c-.029,1.1.586,1.321,1.522,1.312.89-.008,1.45-.132,1.6-1.244.516-3.72,2.391-5.274,6.19-5.319.857-.01,1.715-.007,2.573,0,3.818.03,5.5,1.336,6.269,5.04.227,1.1.651,1.633,1.811,1.524a15.452,15.452,0,0,1,2.02,0,6.431,6.431,0,0,1,6.318,6.365q.056,28.647,0,57.295c-.008,3.729-2.921,6.362-6.868,6.368q-20.123.029-40.247.01m-.231-3.939q19.565,0,39.13,0c3.344,0,4.3-.936,4.3-4.227q.009-26.8,0-53.6c0-3.427-.92-4.337-4.373-4.338q-38.854-.006-77.709,0c-3.468,0-4.39.906-4.391,4.32Q3.939,46,3.946,72.709c0,3.547.891,4.428,4.466,4.43q19.289.006,38.578,0m0-66.112c3.791,0,7.582.017,11.373,0,3.731-.021,3.478.507,3.481-3.4,0-3.207-.468-3.67-3.733-3.673q-10.456-.01-20.912,0c-5.044,0-5.186.19-5.068,5.3.031,1.347.487,1.817,1.836,1.8,4.341-.06,8.682-.022,13.024-.021M17.5,11.023v-.007c.792,0,1.584,0,2.376,0,.616,0,1.086-.205,1.116-.915.028-.679-.2-1.3-.936-1.333a43.9,43.9,0,0,0-4.74.014c-.759.048-1.119.7-1.049,1.466.068.753.658.769,1.222.775.67.007,1.34,0,2.011,0m59.267,0c.67,0,1.34.008,2.01,0,.618-.009,1.291.02,1.321-.865a1.21,1.21,0,0,0-1.141-1.4c-1.517-.081-3.043-.066-4.562-.016-.732.024-1.026.57-1.03,1.266,0,.818.52,1.014,1.208,1.013q1.1,0,2.193.005" transform="translate(0 0)"/>
        <path id="Trazado_730745" data-name="Trazado 730745" d="M92.6,110.182c-1.958,0-3.917.02-5.875-.005-2.481-.031-3.1-.671-3.112-3.2-.014-2.263-.053-4.527.014-6.787.038-1.257-.395-1.76-1.689-1.722-2.385.07-4.773.039-7.16.01-2.079-.024-2.834-.694-2.857-2.7q-.071-6.237,0-12.475c.023-2,.78-2.667,2.869-2.692,2.325-.027,4.655-.086,6.975.019,1.5.067,1.917-.517,1.866-1.926-.086-2.382,0-4.769-.023-7.154a2.3,2.3,0,0,1,2.577-2.629c4.223-.024,8.446-.045,12.668.005,1.93.023,2.615.775,2.643,2.728.036,2.446.051,4.893,0,7.338-.025,1.173.387,1.655,1.594,1.626,2.386-.058,4.773-.032,7.16-.008,2.208.022,2.93.668,2.952,2.8q.064,6.145,0,12.291c-.021,2.064-.741,2.752-2.781,2.78-2.386.034-4.775.073-7.159-.011-1.4-.05-1.814.5-1.772,1.83.076,2.383.045,4.77.008,7.154-.03,1.945-.719,2.665-2.656,2.719-2.079.057-4.161.013-6.242.013Zm11.014-15.645V94.53c1.224,0,2.45-.052,3.67.014,1.237.067,1.792-.368,1.752-1.672-.066-2.2-.079-4.4,0-6.6.053-1.422-.583-1.779-1.874-1.743-2.384.066-4.771,0-7.156.016A2.145,2.145,0,0,1,97.56,82.07c.017-2.445-.036-4.891.011-7.335.022-1.152-.365-1.683-1.581-1.654-2.262.052-4.528.063-6.789,0-1.332-.04-1.678.569-1.65,1.777.055,2.383.042,4.768,0,7.151-.034,1.928-.612,2.5-2.557,2.53-2.385.039-4.772.056-7.157,0-1.236-.031-1.791.371-1.752,1.675.066,2.2.079,4.4,0,6.6-.053,1.422.583,1.779,1.874,1.743,2.384-.065,4.771,0,7.157-.015a2.144,2.144,0,0,1,2.452,2.475c-.017,2.445.036,4.891-.011,7.335-.022,1.152.366,1.683,1.581,1.654,2.262-.052,4.528-.063,6.789,0,1.332.04,1.678-.569,1.65-1.777-.055-2.383-.042-4.768,0-7.151.034-1.928.612-2.479,2.557-2.533,1.161-.032,2.324-.006,3.487-.006" transform="translate(-45.379 -43.486)"/>
        <path id="Trazado_730746" data-name="Trazado 730746" d="M25.538,51.171c-1.829,0-3.658.031-5.486-.01-1.35-.031-2.517-.562-2.522-2.068s1.159-2.064,2.51-2.077q5.485-.053,10.972,0c1.35.012,2.516.558,2.52,2.067s-1.158,2.046-2.509,2.078c-1.828.043-3.657.011-5.486.011" transform="translate(-11.066 -29.662)"/>
        <path id="Trazado_730747" data-name="Trazado 730747" d="M202.878,195.594c-1.768,0-3.536.025-5.3-.008-1.34-.025-2.541-.5-2.578-2.008-.039-1.631,1.207-2.135,2.619-2.147q5.394-.044,10.789,0c1.34.01,2.542.5,2.579,2.007.039,1.628-1.207,2.12-2.62,2.148-1.828.036-3.657.008-5.486.007" transform="translate(-123.09 -120.826)"/>
        <path id="Trazado_730748" data-name="Trazado 730748" d="M69.165,49.286a2,2,0,0,1-2.011,1.991,1.971,1.971,0,1,1-.042-3.942,2,2,0,0,1,2.053,1.951" transform="translate(-41.127 -29.88)"/>
        <path id="Trazado_730749" data-name="Trazado 730749" d="M184,193.684c-.148,1.183-.777,1.994-1.982,2.012a1.97,1.97,0,1,1-.087-3.939c1.211-.042,1.862.755,2.069,1.927" transform="translate(-113.61 -121.044)"/>
      </g>
    </g>
  </g>
</svg>
