<svg xmlns="http://www.w3.org/2000/svg" xmlns:xlink="http://www.w3.org/1999/xlink" width="118" height="118" viewBox="0 0 118 118">
  <defs>
    <clipPath id="clip-path">
      <rect id="Rectángulo_349589" data-name="Rectángulo 349589" width="82.372" height="90.874" fill="none"/>
    </clipPath>
  </defs>
  <g id="Grupo_997427" data-name="Grupo 997427" transform="translate(-17388 10481.746)">
    <circle id="Elipse_5915" data-name="Elipse 5915" cx="59" cy="59" r="59" transform="translate(17388 -10481.746)" fill="#06d1d1"/>
    <g id="Grupo_997108" data-name="Grupo 997108" transform="translate(17405.395 -10467.811)">
      <g id="Grupo_997107" data-name="Grupo 997107" clip-path="url(#clip-path)">
        <path id="Trazado_730562" data-name="Trazado 730562" d="M47.883,46.811C48.043,32.752,59.5,19.79,73.852,17.432c.581-.1,1.169-.16,1.74-.3.711-.174,1.772.346,1.947-.954.156-1.157-.883-3.327-1.746-3.679a1,1,0,0,0-1.116.287c-3.554,3-7.333,2.69-11.2.727a32.255,32.255,0,0,1-3.2-1.861,5.078,5.078,0,0,0-4.342-.9,1.7,1.7,0,0,1-2.158-.7,1.742,1.742,0,0,1,.363-2.111A23.924,23.924,0,0,1,63.064.9c5.913-2.5,11.828.485,13.1,6.713.345,1.692,1.667,2.166,2.669,3.062.406.364,2.727-1.44,2.993-2.279.106-.336.154-.689.231-1.034A9.115,9.115,0,0,1,93.883.454C98.2,1.8,101.4,4.745,104.218,8.152a1.59,1.59,0,0,1,.18,1.971,1.53,1.53,0,0,1-1.847.686c-1.949-.595-3.517.139-5.125,1.169-2.894,1.853-5.9,3.483-9.561,2.884a7.406,7.406,0,0,1-3.962-1.8c-1.169-1.09-1.886-.538-2.507.5a6.994,6.994,0,0,0-.607,1.646c-.348,1.2-.067,1.792,1.363,1.948a31.336,31.336,0,0,1,27.56,24.666c.24,1.118.155,2.107-1.058,2.424-1.384.362-1.842-.659-2.094-1.785a31.358,31.358,0,0,0-2.8-7.6c-.588-1.136-1.014-1.043-1.66-.055a41.384,41.384,0,0,0-2.733,5.345c-1.446,3.119-3.685,4.811-7.247,4.41-.582-.066-1.179.007-1.766-.034-4.262-.3-7.322.552-9.269,7-.368,1.221-.423,2.921-2.282,2.4-1.777-.5-1.157-2.042-.835-3.277a15.036,15.036,0,0,1,2.912-5.8c2.528-3.094,5.928-3.891,9.684-3.548,4.079.373,4.544.188,6.3-3.483a24.975,24.975,0,0,1,3.426-5.952,1.357,1.357,0,0,0-.132-2.138c-.415-.418-.807-.859-1.222-1.276-2.734-2.742-2.736-2.741-5.84-.65a6.238,6.238,0,0,1-5.722.865,5.1,5.1,0,0,0-5.078.884c-5.723,4.141-11.464,2.765-15.446-3.521-1.5-2.37-1.5-2.369-3.834-.692a33.741,33.741,0,0,0-3.794,3.167c-.766.743-.681,1.2.17,1.777a20.1,20.1,0,0,1,4.321,3.888,7.4,7.4,0,0,1,1.616,7.081,37.828,37.828,0,0,1-2.846,6.455,1.432,1.432,0,0,1-1.9.837,1.51,1.51,0,0,1-.939-2.024A25.627,25.627,0,0,1,61.062,43.3c2.255-4.521.611-8.812-4.112-10.781-.765-.319-1.08.064-1.417.59a27.359,27.359,0,0,0-4.246,11.686c-.151,1.286-.248,2.579-.334,3.871-.067,1.018-.493,1.773-1.571,1.745s-1.476-.826-1.492-1.828c-.009-.589,0-1.179-.006-1.768M78.811,20.177a31.763,31.763,0,0,0-8.986,1.64c-.713.273-1.4.51-.858,1.479,2.646,4.746,6.145,7.19,11.488,3.556,2.537-1.725,4.907-2.367,7.74-1.278a3.49,3.49,0,0,0,3.457-.713c1.054-.751.97-1.245-.207-1.806a31.078,31.078,0,0,0-12.635-2.877M72.774,7.449A4.232,4.232,0,0,0,69.913,3.9c-3.18-1.3-8,.109-10.214,2.947-.328.42-.409.717.128.952,2.37,1.036,4.35,2.808,6.86,3.592a6.033,6.033,0,0,0,3.8.142c.425-.14,1.053-.182,1.056-.758,0-.469-.577-.5-.937-.659-.643-.29-1.316-.525-1.927-.87a1.462,1.462,0,0,1-.8-1.923,1.508,1.508,0,0,1,2-.963c.891.283,1.754.656,2.892,1.089M86.48,10.868a4.96,4.96,0,0,0,4.659.625,16.337,16.337,0,0,0,5.309-2.729c.741-.583,2.34-.494,2.17-1.583-.115-.736-1.376-1.335-2.184-1.912-2.527-1.805-5.228-2.676-8.266-1.319a4.24,4.24,0,0,0-2.736,3.515c.777-.31,1.322-.516,1.858-.745,1.14-.486,2.389-.935,3,.571.582,1.426-.621,1.915-1.673,2.4a4.925,4.925,0,0,0-2.142,1.175" transform="translate(-30.9 0)"/>
        <path id="Trazado_730563" data-name="Trazado 730563" d="M44.778,163.093c-3.416,0-6.832.01-10.248-.005a5.587,5.587,0,0,0-3.2.823c-1.769,1.163-1.867,1.691-.555,3.356a1.99,1.99,0,0,1-.253,2.971c-1.5,1.5-2.983,3.016-4.5,4.5-1.49,1.457-2.233,1.465-3.72-.015q-7.016-6.981-14-13.995c-2.374-2.375-4.756-4.741-7.119-7.128-1.569-1.585-1.577-2.3-.055-3.85,1.443-1.473,2.925-2.907,4.368-4.379,1.119-1.141,2.265-1.253,3.342-.034.9,1.024,1.589.854,2.448-.067,1.446-1.55,2.973-3.025,4.486-4.511,6.563-6.449,16.04-6.531,22.658-.153a3.489,3.489,0,0,0,2.674,1.026c4.653-.034,9.306.007,13.959-.022a5.406,5.406,0,0,1,4.18,1.557c.89.951,1.436.8,2.263-.045q4.63-4.742,9.368-9.377a6.57,6.57,0,0,1,9.115-.485,6.437,6.437,0,0,1,.571,9.464q-8.231,8.51-16.752,16.737a12.942,12.942,0,0,1-9.491,3.64c-3.18-.054-6.361-.011-9.541-.007m-1.125-3.088c3.24,0,6.48.022,9.72-.006a12.141,12.141,0,0,0,9.192-3.788c2.384-2.528,4.9-4.932,7.356-7.392,2.706-2.71,5.456-5.379,8.1-8.147a3.257,3.257,0,0,0-1.283-5.514,3.825,3.825,0,0,0-3.851,1.174q-5.4,5.473-10.872,10.877a5.61,5.61,0,0,0-1.262,2.087,5.459,5.459,0,0,1-5.513,3.882c-6.3.029-12.607.011-18.91.012-1.1,0-2.3-.007-2.316-1.5-.021-1.624,1.259-1.581,2.408-1.582q6.186-.005,12.371,0c2.121,0,4.245.062,6.36-.055a2.684,2.684,0,0,0,2.718-2.711,2.758,2.758,0,0,0-2.675-2.592,11.727,11.727,0,0,0-1.588-.041c-4.654,0-9.308-.033-13.962.018a3.83,3.83,0,0,1-3.088-1.32c-5.316-5.644-12.972-5.749-18.479-.315-1.51,1.49-2.964,3.039-4.515,4.484-.933.869-1.01,1.506-.048,2.45q6.183,6.065,12.247,12.251c.91.928,1.547.976,2.451.016a7.428,7.428,0,0,1,5.894-2.3c3.179.078,6.362.02,9.543.017m-16.513,8.742a2.141,2.141,0,0,0-.891-1.376c-5.91-5.923-11.868-11.8-17.711-17.786-1.359-1.392-2.039-.637-2.957.328-.9.944-1.96,1.6-.432,3.084,5.952,5.795,11.774,11.724,17.662,17.584.46.458.911,1.389,1.707.86a8.537,8.537,0,0,0,2.621-2.694" transform="translate(0 -84.956)"/>
      </g>
    </g>
  </g>
</svg>
