<svg xmlns="http://www.w3.org/2000/svg" xmlns:xlink="http://www.w3.org/1999/xlink" width="118" height="118" viewBox="0 0 118 118">
  <defs>
    <clipPath id="clip-path">
      <rect id="Rectángulo_349591" data-name="Rectángulo 349591" width="83.749" height="83.889" fill="none"/>
    </clipPath>
  </defs>
  <g id="Grupo_997425" data-name="Grupo 997425" transform="translate(-16686 10481.746)">
    <circle id="Elipse_5917" data-name="Elipse 5917" cx="59" cy="59" r="59" transform="translate(16686 -10481.746)" fill="#ffc403"/>
    <g id="Grupo_997112" data-name="Grupo 997112" transform="translate(16703.191 -10467.811)">
      <g id="Grupo_997111" data-name="Grupo 997111" clip-path="url(#clip-path)">
        <path id="Trazado_730570" data-name="Trazado 730570" d="M63.426,66.247c-20.815.01-35.064-12.791-36.86-29.746A33.274,33.274,0,0,1,54.952.347,32.561,32.561,0,0,1,70.4,1.791c.257.089.52.166.769.274,1,.433,1.671,1.135,1.321,2.283A1.736,1.736,0,0,1,70,5.471a33.945,33.945,0,0,0-8.771-1.738,28.681,28.681,0,0,0-20.908,7.14A28.908,28.908,0,0,0,30.077,32.993a27.355,27.355,0,0,0,2.437,11.9c.454,1.009.892,1.3,1.954.67Q40.79,41.822,47.2,38.235c1.045-.585,1.026-1.191.572-2.11a32.509,32.509,0,0,0-2.238-3.405A15.569,15.569,0,0,1,44.6,16.034a13.426,13.426,0,0,1,1.338-2.045c.7-.912,1.633-1.406,2.679-.642,1.029.751.931,1.785.239,2.739A13.123,13.123,0,0,0,46.7,20.627a12.046,12.046,0,0,0,1.893,10.1,24.356,24.356,0,0,1,2.528,3.99c.316.74.754.857,1.4.427.09-.06.191-.1.285-.158,1.315-.77,3.051-1.249,3.835-2.386.927-1.344-.828-2.666-1.24-4.062a15.909,15.909,0,0,1,2.042-13.875,5.62,5.62,0,0,1,1.072-1.218,1.6,1.6,0,0,1,2.106-.065,1.632,1.632,0,0,1,.59,2.032A8.821,8.821,0,0,1,60.37,16.8a12.456,12.456,0,0,0-.7,12.451c.462,1,1.026,1.364,1.987.611a2.2,2.2,0,0,1,.562-.331c3.343-1.256,5.112-3.2,4.611-7.225-.371-2.976,1.191-5.8,3.04-8.253.755-1,1.712-1.451,2.8-.632,1.043.784.829,1.806.14,2.741A11.759,11.759,0,0,0,70.4,23.137c-.015,1.135.273,1.555,1.4.891,3.754-2.2,7.516-4.4,11.3-6.546.958-.544.887-1.075.276-1.794-.88-1.036-1.745-2.085-2.608-3.135-.774-.943-1.109-1.99-.067-2.886s2-.328,2.848.523c11.638,11.685,12.3,31.744,1.457,44.23-6.689,7.705-15.1,11.7-21.583,11.828M60.834,41.184a11.8,11.8,0,0,0-.7-4.136c-.38-1.259-.965-1.7-2.216-.856A31.481,31.481,0,0,1,54.1,38.4a2.637,2.637,0,0,0-1.6,2.854,14.691,14.691,0,0,1-3.205,9.713c-1.019,1.352-2.693,1.274-3.3-.08a2.155,2.155,0,0,1,.523-2.26,11.635,11.635,0,0,0,2.2-5.377c.053-.418.21-.942-.183-1.228-.42-.306-.82.089-1.182.3-3.722,2.147-7.424,4.33-11.166,6.443-1.012.571-.954,1.092-.326,1.909C41.9,58.513,49.9,62.679,59.754,62.652c8.806-.024,16.21-3.577,22.144-10.184,7.259-8.082,9.335-21.22,4.842-31.03-.508-1.111-.932-1.35-2.039-.683-3.355,2.02-6.781,3.92-10.167,5.888-3.431,1.994-3.426,2.006-1.133,5.22a15.64,15.64,0,0,1,2.948,12.014,15.944,15.944,0,0,1-2.861,6.862c-.752,1.037-1.7,1.7-2.894.867-1.135-.79-.828-1.877-.166-2.882.12-.182.247-.359.365-.541a12.152,12.152,0,0,0-.258-14.076c-2.655-3.8-2.637-3.774-6.7-1.333-1,.6-1.171,1.108-.673,2.2A15.217,15.217,0,0,1,63.2,47.785a11.393,11.393,0,0,1-2.259,3.565A1.752,1.752,0,0,1,58.07,49.4a9.232,9.232,0,0,1,.754-1.256,11.708,11.708,0,0,0,2.01-6.955" transform="translate(-17.741 0)"/>
        <path id="Trazado_730571" data-name="Trazado 730571" d="M41.745,241.029H3.695c-.435,0-.871-.008-1.307,0-1.256.022-2.4-.223-2.387-1.769s1.18-1.745,2.423-1.735c1.633.012,3.268-.04,4.9.015,1.045.035,1.512-.337,1.44-1.413-.086-1.281.291-2.405,1.786-2.372s1.781,1.206,1.7,2.46c-.063,1,.4,1.324,1.361,1.321q12.574-.031,25.149,0c1.122,0,1.425-.5,1.361-1.492a2.03,2.03,0,0,1,.786-2.022,1.7,1.7,0,0,1,2.654,1.611c-.068,1.711.7,1.926,2.142,1.915q11.839-.085,23.679,0c1.438.01,2.293-.189,2.13-1.91a1.606,1.606,0,0,1,1.749-1.9,1.631,1.631,0,0,1,1.684,1.968c-.175,1.656.666,1.909,2.034,1.831,1.465-.084,2.939-.007,4.408-.02,1.271-.011,2.381.273,2.345,1.814-.033,1.436-1.105,1.692-2.306,1.691q-9.309-.009-18.617,0H41.745" transform="translate(0 -157.141)"/>
        <path id="Trazado_730572" data-name="Trazado 730572" d="M58.58,213.443q17.638,0,35.277,0a12.1,12.1,0,0,1,1.793.06,1.707,1.707,0,0,1,.034,3.375,9.524,9.524,0,0,1-1.629.064c-6.533,0-13.066.032-19.6-.022-1.315-.011-1.91.343-1.8,1.736.092,1.194-.48,2.092-1.758,2.064s-1.795-.968-1.706-2.139c.1-1.321-.452-1.666-1.709-1.659q-12.249.067-24.5,0c-1.293-.008-1.78.4-1.685,1.686.088,1.185-.432,2.109-1.714,2.115s-1.841-.911-1.751-2.09c.109-1.428-.543-1.726-1.827-1.709-4.409.06-8.819.026-13.229.019a7.286,7.286,0,0,1-1.623-.1,1.7,1.7,0,0,1,.034-3.3,8.915,8.915,0,0,1,1.788-.094q17.8-.007,35.6,0" transform="translate(-13.366 -143.509)"/>
        <path id="Trazado_730573" data-name="Trazado 730573" d="M178.185,17.376a1.753,1.753,0,0,1-1.752,1.781,1.648,1.648,0,0,1-1.77-1.723,1.636,1.636,0,0,1,1.722-1.765,1.714,1.714,0,0,1,1.8,1.707" transform="translate(-117.436 -10.534)"/>
      </g>
    </g>
  </g>
</svg>
