<svg xmlns="http://www.w3.org/2000/svg" xmlns:xlink="http://www.w3.org/1999/xlink" width="358.694" height="597" viewBox="0 0 358.694 597">
  <defs>
    <clipPath id="clip-path">
      <rect id="Rectángulo_345245" data-name="Rectángulo 345245" width="358.694" height="597" fill="none"/>
    </clipPath>
  </defs>
  <g id="Grupo_984621" data-name="Grupo 984621" transform="translate(0 0)">
    <g id="Grupo_984620" data-name="Grupo 984620" transform="translate(0 0)" clip-path="url(#clip-path)">
      <path id="Trazado_725864" data-name="Trazado 725864" d="M87.325,10.673c-3.148.252-21.418,17.222-21.418,47.71,0,18.9-5.922,61.112-5.922,61.112L28.416,173.936s-8.1,7.52-5.2,13.007,22.811,19.745,22.811,19.745,68.815-63.79,75.533-74.452S146.111,5.948,87.325,10.673" transform="translate(130.999 61.076)" fill="#bee4ed"/>
      <path id="Trazado_725865" data-name="Trazado 725865" d="M58.132,35.79S31.458,39.666,33.92,42.134,25.1,52.489,19.505,53.686s2.577,8.7,11.314,4.358c7.248-3.6,8.349-6.935,8.349-6.935s-15.448,22.172-10.9,22.172,21.016,7.03,29.862,7.03c5.174,0,11.8-10.967,16.413-20.1A13.844,13.844,0,0,0,68.97,41.862Z" transform="translate(102.48 207.552)" fill="#f4bf87"/>
      <path id="Trazado_725866" data-name="Trazado 725866" d="M69.777,61.593s3.1,1.843,7.568,7.7,1.9,17.936,3.3,25.293.313,22.5-7.894,33.819-12.531,15.026-17.2,12.483c-6.174-3.379-8.655-18.358-7.479-27.143,1.775-13.272,2.828-29.413,2.828-29.413Z" transform="translate(277.188 357.19)" fill="#3e1e1e"/>
      <path id="Trazado_725867" data-name="Trazado 725867" d="M98.134,239.3c-19.255-18.474-38.11-18.113-43.8-29.148C37.438,177.449,43.2,124.047,40.273,93c-2.93-31.032,0-39.823,0-39.823,18.154-28.7,49.791-15.822,61.506-4.114,11.722,11.729-8.207,134.156-8.207,137.086s9.927,4.182,21.112,11.117,11.212,10,11.212,10-8.506,50.5-27.761,32.038" transform="translate(225.999 207.555)" fill="#456372"/>
      <path id="Trazado_725868" data-name="Trazado 725868" d="M35.066,70.824v2.387l14.584,8.411V76.148Z" transform="translate(203.358 410.724)"/>
      <path id="Trazado_725869" data-name="Trazado 725869" d="M47.567,73.759c-.075,1.462-1.55-4.385-3.481-3.27l-6.874,8.438v5.467l7.364-4.243a5.561,5.561,0,0,0,2.91-3.42,10.434,10.434,0,0,0,.082-2.971" transform="translate(215.801 407.951)" fill="#4d200e"/>
      <path id="Trazado_725870" data-name="Trazado 725870" d="M101.4,83.039v6.833c-.1,0-6.935,5.065-12.089,6.031-5.419,1.033-21.6,20.269-30.569,24.457-28.156,13.218-31,.36-30.787-.829.843-4.644,6.983-11.022,11.26-13.49C44.6,102.92,49.628,92.354,52.2,88.186S60.7,75.26,64.9,77.688s14.027,10.5,14.027,10.5,13.83-7.52,16.053-11.294,2.944-9.308,2.944-9.308S101.4,76.7,101.4,83.039" transform="translate(162.039 391.933)" fill="#4d200e"/>
      <path id="Trazado_725871" data-name="Trazado 725871" d="M60.928,79.184A28.115,28.115,0,0,0,63.8,70.338a7.975,7.975,0,0,0-2.876-2.257c-4.386-2.536-10.525.741-14.55,4.766-2.325,2.332-8.111,6.214-12.565,9.07,4.685,3.318,11.069,8.56,11.069,8.56s13.83-7.513,16.046-11.294" transform="translate(196.09 389.641)" fill="#944212"/>
      <path id="Trazado_725872" data-name="Trazado 725872" d="M59.541,67.978a6.012,6.012,0,0,1,3.087.789,9.2,9.2,0,0,1,2.448,1.761,27.472,27.472,0,0,1-2.727,8.261c-1.679,2.842-12.9,9.587-17.658,12.273L34.805,83.4c4.372-2.808,11.953-7.744,14.217-10,2.624-2.624,6.758-5.419,10.518-5.419m0-.789c-3.787,0-8.037,2.611-11.069,5.657-2.332,2.332-10.573,7.635-15.02,10.491l11.171,8.649s16.175-9.029,18.4-12.8a28.243,28.243,0,0,0,2.869-8.846,7.864,7.864,0,0,0-2.869-2.257,6.933,6.933,0,0,0-3.481-.891" transform="translate(193.996 389.642)" fill="#cfa075"/>
      <path id="Trazado_725873" data-name="Trazado 725873" d="M100.543,83.039v4.943c-.048,0-2.9,1.278-6.194,3.06-3.06,1.666-7.649.435-9.587,2.339-1.21,1.2-4.161,5-6.908,7.731-6.174,6.126-13.687,14.659-19.969,17.379-21.173,9.159-27.612,7.826-29.679-.061-1.2-4.569,7.085-13.469,11.368-15.951,3.134-1.8,2.727-2.441,6.6-6.575,2.794-2.964,4.086-5.97,5.181-7.717,1.618-2.611,4.549-7.037,7.554-9.369,1.781-1.387,3.576-2.033,5.14-1.129.53.306,1.156.7,1.829,1.163.367.238.748.5,1.135.775,4.678,3.311,11.062,8.56,11.062,8.56s13.83-7.52,16.053-11.294A28.667,28.667,0,0,0,97,68.046c.048-.306.068-.462.068-.462a70.191,70.191,0,0,1,2.556,8.553,32.936,32.936,0,0,1,.918,6.9" transform="translate(162.894 391.933)" fill="#3e1e1e"/>
      <path id="Trazado_725874" data-name="Trazado 725874" d="M35.01,33.673s-3.542-17.42-4.746,71.215C29.49,162.954,34.249,175.4,40.681,191.6,49.418,213.621,43.3,282,43.3,282s14.523,14.986,25.769,9.2c23.015-11.851,17.651-24.239,17.651-24.239s.979-51.45-6.106-77.28c-2.577-9.369,8.8-47.309,10.933-67.952,7.282-70.087,11.382-22.234.8-61.764C88.024,43.885,35.01,33.673,35.01,33.673" transform="translate(175.032 187.232)" fill="#456372"/>
      <path id="Trazado_725875" data-name="Trazado 725875" d="M107.274,20.041a139.113,139.113,0,0,1,22.3,22.138c11.484,14.136,12.857,15.8,9.261,47.1s-10.913,24.906-10.913,46.534c0,4.284,11.7,16.2,17.413,25.572s7.336,36.668,7.336,36.668,0,17.114-37.491,8.159S14.608,181.394,34.087,147.527c5.392-9.369,10.158-12.959,7.717-26.007S27.241,21.789,40.118,14.752s38.232,1.754,47.37,4.834,19.786.456,19.786.456" transform="translate(176.519 70.121)" fill="#ff7536"/>
      <path id="Trazado_725876" data-name="Trazado 725876" d="M35.119,21.089l.347-.2-.231-1.951c-.075,1.271-.116,2.149-.116,2.149" transform="translate(203.663 109.835)" fill="#d9d0d0"/>
      <path id="Trazado_725877" data-name="Trazado 725877" d="M34.6,35.307s-6.514,25.667,6.928,41.557,18.14,17.161,21.588,19.16,19.357-2.237,20.377-3.27c1.027-1.013,15.91-44.848,13.864-46.031S34.6,35.307,34.6,35.307" transform="translate(191.496 204.751)" fill="#681c19"/>
      <path id="Trazado_725878" data-name="Trazado 725878" d="M73.308,89.063s3.1,6.514,9.635-6.33S79.7,55.686,79.7,55.686s75.458-15.9,56.155-23.192-73.119-40.4-93.34-6.7C25.448,54.21,26.992,72.031,30.677,88.1,37.32,117.192,42.2,123.841,42.2,129.451c0,9.6-4.725,21.839-6.908,60.731S83.167,225.6,83.167,225.6l8.764-125.344Z" transform="translate(164.107 63.339)" fill="#94c3c7"/>
      <path id="Trazado_725879" data-name="Trazado 725879" d="M124.386,129.206c-4.059-9.485-.8-13.014-9.471-92.572-2.862-26.218-12.742-23.689-12.742-23.689S89.914,39.762,71.42,49.858s-8.581,4.222-8.581,4.222l-4.929-5.7s-35.655-11.28-21.1,80.428c3.25,20.54,0,83.189,0,83.189s100.649,13.612,103.382-24.382c1.652-22.941-11.742-48.927-15.8-58.412" transform="translate(193.206 74.687)" fill="#94c3c7"/>
      <path id="Trazado_725880" data-name="Trazado 725880" d="M73.374,62.474c6.534-12.844,2.55-15.706,10.675-39.728C90.685,3.191,62.74,2.355,42.512,36.052,25.446,64.473,27,82.294,30.675,98.36,37.317,127.454,42.2,134.1,42.2,139.713c0,9.594-4.719,21.839-6.908,60.731s47.873,35.417,47.873,35.417L81.608,122.552S66.833,75.318,73.374,62.474" transform="translate(164.11 53.076)" fill="#84b81a"/>
      <path id="Trazado_725881" data-name="Trazado 725881" d="M139.41,61.685c-2.849-26.211-46-49.594-46-49.594S92.8,53.186,74.314,63.282s-31.95,19-39.354,70.107c-2.985,20.581,0,83.182,0,83.182s87.207,52.048,89.94,14.061c1.659-22.934,23.172-89.383,14.51-168.947" transform="translate(195.051 70.116)" fill="#84b81a"/>
      <path id="Trazado_725882" data-name="Trazado 725882" d="M35.291,28.85S45.925,44.38,45.809,48.963s-1.333,5.922.646,12.388S60.04,55.714,71.816,47.623C86.013,37.88,88.563,24.7,88.563,24.7s-10.036-1.863-9.791-11.64C79,3.285,35.291,28.85,35.291,28.85" transform="translate(204.661 62.828)" fill="#e2a56d"/>
      <path id="Trazado_725883" data-name="Trazado 725883" d="M69.256,11.162S66.624,38.713,52.781,52.433C47.144,58,36.932,59.457,36.932,59.457l3.454,13.877s12.742-.578,24.11-11.416c5.528-5.276,10.484-15.393,14.122-24.409a21.029,21.029,0,0,0-9.363-26.347" transform="translate(214.177 64.728)" fill="#bee4ed"/>
      <path id="Trazado_725884" data-name="Trazado 725884" d="M49.772,33.6c-2.645-7.255-10.518-20.112-10.518-20.112s-1.659,13.442-4.222,19c-1.945,4.2,3.447,12.946,3.189,17.705l12.2-4.209s2.006-5.133-.646-12.388" transform="translate(200.698 78.194)" fill="#bee4ed"/>
      <path id="Trazado_725885" data-name="Trazado 725885" d="M38.424,26.986S29.9,46.915,32.352,53.823c2.455,6.928,4.936,2.57,3.638,10.675s-4.759,11.1-.374,17.148c4.365,6.031,8.4,6.677,6.928,15.944-1.482,9.24,13.225,9.737,24.015,5.623S99.12,88.852,105.294,76.2,139.637,12.606,81.81.653C55.252-4.841,38.424,26.986,38.424,26.986" transform="translate(185.054 0.086)" fill="#f4bf87"/>
      <path id="Trazado_725886" data-name="Trazado 725886" d="M47.046,12.555c.122-.184,4.086-5.915,6.6-3.474,2.523,2.461,3.767,6.52,1.951,11.484-1.815,4.936-5.528,10.777-8.982,10.124-3.474-.653-4.623-.367-6.031-3.372a7.045,7.045,0,0,1,.224-5.949Z" transform="translate(231.995 49.152)" fill="#f8e8e0"/>
      <path id="Trazado_725887" data-name="Trazado 725887" d="M46.826,12.6c.122-.19,4.086-5.936,6.609-3.481s3.746,6.527,1.938,11.464c-1.815,4.957-5.521,10.784-8.982,10.131s-4.617-.36-6.031-3.366a7.021,7.021,0,0,1,.224-5.943Z" transform="translate(230.719 49.363)" fill="#f4bf87"/>
      <path id="Trazado_725888" data-name="Trazado 725888" d="M43.972,12.8s.558,3.243.728,4.651.211,3.665-.68,4.583a15.245,15.245,0,0,1-1.693,1.523,47.089,47.089,0,0,0,.979-7.438c-.082-2.1.075-3.923,1.224-5.269s2.189-3.134,3.27-1.129a8.894,8.894,0,0,1,.993,7.3c-.9,3.168-2.523,6.4-4.263,7.622A10.861,10.861,0,0,1,40.7,26.2s4.243-.986,5.657-4.528,2.733-9.186,1.795-10.348-1.067-1.407-1.428-.041.048,3.57-.823,2.726-.639-2.8-1.367-2.128c-.748.694-.564.918-.564.918" transform="translate(236.041 51.183)" fill="#d5a980"/>
      <path id="Trazado_725889" data-name="Trazado 725889" d="M44.881,12.95s.034-3.094-.612-3.114-.782-.027-1.36.918-.714,1.305-1.611.87c-.9-.462-1.407-1.38-.83.116.564,1.516,1.054.116,2.264,1.3s.517,2.38,1.435,2.638.741-1.9.544-2.543Z" transform="translate(233.262 57.011)" fill="#d5a980"/>
      <path id="Trazado_725890" data-name="Trazado 725890" d="M46.421,11.122S27.159,26.2,33.312,30.969,63.6,35.314,73.829,43.235s3.753,33.235,9.009,28.319c5.256-4.936,12.47-18.9,17.834-17.236,5.344,1.666-4.834,33.928-.66,27.945s25.552-33.343,20.275-50.953S82.6-16.408,46.421,11.122" transform="translate(186.153 -0.002)" fill="#1a1111"/>
      <path id="Trazado_725891" data-name="Trazado 725891" d="M67.626,46.2,46.847,108.323l.537,13.211L0,280.214l91.035,52.551,160.047-236.9L160.041,43.3Z" transform="translate(0.002 251.113)" fill="#92dbe0"/>
      <path id="Trazado_725892" data-name="Trazado 725892" d="M6.357,50.025l96.468,52.245,2.393-7.2L8.764,42.818Z" transform="translate(36.868 248.308)" fill="#9bdee3"/>
      <path id="Trazado_725893" data-name="Trazado 725893" d="M19,83.75,9.81,67.894,17.6,62.013c4.827-3.311,10.43.156,11.606,9.131.156,1.292.619,5.269.619,5.269Z" transform="translate(56.891 352.479)" fill="#fff"/>
      <path id="Trazado_725894" data-name="Trazado 725894" d="M13.194,66.72l13.666.15-.218,11.042c-.394,6.473-4.759,9.906-10.246,6.181-.816-.551-3.359-2.237-3.359-2.237Z" transform="translate(75.61 386.922)" fill="#fff"/>
      <path id="Trazado_725895" data-name="Trazado 725895" d="M12.828,85.507l12.511,9.3,11.328-7.9-4.773-.292-.252-7.962c-.592-3.672-.428-4.9-8.859-10.58L12.25,60.989a13.2,13.2,0,0,1,4.08,8.363l1.183,16.427Z" transform="translate(71.041 353.687)" fill="#fff"/>
      <path id="Trazado_725896" data-name="Trazado 725896" d="M22.063,67.654,10.586,75.908l.5,15.788,2.183-4.8,5.052,3.583c2.441,1.21,3.073,1.965,9.988-3.461l8.547-6.4a5.614,5.614,0,0,1-6.235-.734L19.955,72.577Z" transform="translate(61.391 392.339)" fill="#fff"/>
      <path id="Trazado_725897" data-name="Trazado 725897" d="M26.8,88.7,25.2,70.781,11.738,61.908l3.277,5.507L9.8,71.522c-5.052,4.487-1.4,12.8,4.046,16.468l2.38,1.618,7.867-6.024Z" transform="translate(42.874 359.016)" fill="#fff"/>
      <path id="Trazado_725898" data-name="Trazado 725898" d="M29.363,83.664,23.488,98.949,13.622,92.2a10.6,10.6,0,0,1-3.944-7.826c-.4-4.807-2.312-19.725-2.312-19.725a13.738,13.738,0,0,0,5.106,7.561c6.956,4.95,16.889,11.457,16.889,11.457" transform="translate(42.723 374.901)" fill="#fff"/>
      <path id="Trazado_725899" data-name="Trazado 725899" d="M115.888,100,25.962,48.081,36.738,42.24l89.94,51.919Z" transform="translate(150.557 244.959)" fill="#a4e1e5"/>
      <path id="Trazado_725900" data-name="Trazado 725900" d="M115.888,97.674,25.962,45.755l5.773-3.114L121.661,94.56Z" transform="translate(150.557 247.284)" fill="#84d7dc"/>
      <path id="Trazado_725901" data-name="Trazado 725901" d="M19.749,61.734l139.976-4.671,2.4-7.2L22.149,54.533Z" transform="translate(114.529 289.161)" fill="#7ed5da"/>
      <path id="Trazado_725902" data-name="Trazado 725902" d="M81.036,53.942,60.244,116.053l.537,13.211L13.39,287.938l41.149-1.278-.3.891a78,78,0,0,1,18.718-30.189c7.942-7.826,16.971-12.789,25.191-13.048L173.437,51.032Z" transform="translate(77.652 295.944)" fill="#7ad4d9"/>
      <path id="Trazado_725903" data-name="Trazado 725903" d="M6.891,52.864l91.049,52.558.884,12.307L7.428,66.075Z" transform="translate(39.96 306.569)" fill="#7fd5db"/>
      <path id="Trazado_725904" data-name="Trazado 725904" d="M218.2,94.275,127.159,41.7s-73.615-4.664-94.38,3.148S6.711,57.294,6.711,57.294l91.042,52.572Z" transform="translate(38.919 233.833)" fill="#8bd9de"/>
      <path id="Trazado_725905" data-name="Trazado 725905" d="M136.647,61.131l3.9-11.695s-73.6-4.664-94.373,3.141S20.1,65.02,20.1,65.02Z" transform="translate(116.57 278.672)" fill="#7ad1d3"/>
      <path id="Trazado_725906" data-name="Trazado 725906" d="M25.228,78.936c-.129-.061-.292-.109-.428-.156.041-.068.428.156.428.156" transform="translate(143.821 456.786)" fill="#355566"/>
      <path id="Trazado_725907" data-name="Trazado 725907" d="M64.268,92.367c.068.693.1,1.428.1,2.189,0,14.272-10.07,31.644-22.492,38.817a23.349,23.349,0,0,1-3.93,1.877l-4.753,3.971-6.969-4.093c-4.277-2.359-6.84-7.4-6.84-14.591,0-14.251,10.07-31.61,22.492-38.79,5.467-3.162,10.464-3.814,14.367-2.332.136.054.3.1.428.156l2.658,1.645L65.24,84.84,67.919,94.6Z" transform="translate(112.383 456.152)" fill="#637c89"/>
      <path id="Trazado_725908" data-name="Trazado 725908" d="M27.528,80.437l-2.665-1.645a10.01,10.01,0,0,1,2.665,1.645" transform="translate(144.186 456.931)" fill="#355566"/>
      <path id="Trazado_725909" data-name="Trazado 725909" d="M65.475,95.217c0,14.258-10.076,31.623-22.505,38.8s-22.485,1.435-22.485-12.823,10.07-31.63,22.485-38.8,22.505-1.421,22.505,12.83" transform="translate(118.792 459.89)" fill="#4f6b7a"/>
      <path id="Trazado_725910" data-name="Trazado 725910" d="M55.312,92.367a28.772,28.772,0,0,1-1.142,7.758,39.458,39.458,0,0,1-3.2,7.744c-3.094,5.807-7.629,10.94-12.667,13.843-5.385,3.107-10.185,3.012-13.306.32a10.067,10.067,0,0,1-2.876-4.46,17.408,17.408,0,0,1-.83-5.562c0-9.73,6.228-21.418,14.36-27.571A26.122,26.122,0,0,1,38.3,82.664,20.576,20.576,0,0,1,41.707,81.1c7.765-2.672,13.605,1.829,13.605,11.266" transform="translate(123.46 465.902)" fill="#456372"/>
      <path id="Trazado_725911" data-name="Trazado 725911" d="M53.463,99.475a39.514,39.514,0,0,1-3.2,7.751l-2.747-.245c-6.622-.619-14.788,4.039-21.452,12.225l-1.775,2.183a10.052,10.052,0,0,1-2.876-4.467l2.652-3.236C30.787,105.4,34.941,94.8,34.941,85.931V83.789a27.236,27.236,0,0,1,2.652-1.768A20.637,20.637,0,0,1,41,80.451v3.706c0,8.771,4.066,14.571,10.688,15.176Z" transform="translate(124.167 466.552)" fill="#657e8b"/>
      <path id="Trazado_725912" data-name="Trazado 725912" d="M33.251,86.194a11.227,11.227,0,0,1-5.1,8.8c-2.822,1.625-5.113.333-5.113-2.9a11.255,11.255,0,0,1,5.113-8.8c2.815-1.625,5.1-.333,5.1,2.9" transform="translate(133.609 478.949)" fill="#9bdee3"/>
      <path id="Trazado_725913" data-name="Trazado 725913" d="M100.932,18.754c-8.8-3.957-36.831,23.723-28,40.435S81.7,119.682,81.7,119.682l-35.764,74.54s-8.084,7.506-5.2,12.993c2.9,5.494,31.644,15.026,31.644,15.026S116.2,144.186,122.9,133.518,127.02,30.51,100.932,18.754" transform="translate(232.646 106.54)" fill="#bee4ed"/>
      <path id="Trazado_725914" data-name="Trazado 725914" d="M80.871,48.629a15.626,15.626,0,0,0-10.233-1.768c-7.663,1.285-20.452,3.733-18.718,5.467C54.388,54.8,43.1,62.683,37.512,63.879s2.584,8.71,11.307,4.372c7.248-3.617,8.349-6.942,8.349-6.942S41.721,83.468,46.276,83.468s16.808-3.508,25.654-3.508S98.134,58.3,98.134,58.3Z" transform="translate(206.893 270.477)" fill="#f4bf87"/>
      <path id="Trazado_725915" data-name="Trazado 725915" d="M65.79,54.541,29.374,33.511V22.687L65.79,43.717Z" transform="translate(170.344 131.565)" fill="#fff"/>
      <path id="Trazado_725916" data-name="Trazado 725916" d="M72.96,58.392,36.53,37.362V26.538l36.43,21.03Z" transform="translate(211.844 153.895)" fill="#fff"/>
    </g>
  </g>
</svg>
