<svg id="Grupo_997016" data-name="Grupo 997016" xmlns="http://www.w3.org/2000/svg" xmlns:xlink="http://www.w3.org/1999/xlink" width="499.441" height="466.032" viewBox="0 0 499.441 466.032">
  <defs>
    <clipPath id="clip-path">
      <rect id="Rectángulo_349545" data-name="Rectángulo 349545" width="499.441" height="466.032" fill="none"/>
    </clipPath>
    <clipPath id="clip-path-3">
      <rect id="Rectángulo_349496" data-name="Rectángulo 349496" width="188.245" height="92.434" fill="none"/>
    </clipPath>
    <clipPath id="clip-path-5">
      <rect id="Rectángulo_349498" data-name="Rectángulo 349498" width="11.292" height="12.076" fill="#06d1d1"/>
    </clipPath>
    <clipPath id="clip-path-6">
      <rect id="Rectángulo_349499" data-name="Rectángulo 349499" width="89.582" height="51.648" fill="#06d1d1"/>
    </clipPath>
    <clipPath id="clip-path-7">
      <rect id="Rectángulo_349500" data-name="Rectángulo 349500" width="12.428" height="98.005" fill="#06d1d1"/>
    </clipPath>
    <clipPath id="clip-path-8">
      <rect id="Rectángulo_349501" data-name="Rectángulo 349501" width="18.642" height="4.684" fill="#06d1d1"/>
    </clipPath>
    <clipPath id="clip-path-9">
      <rect id="Rectángulo_349502" data-name="Rectángulo 349502" width="25.306" height="26.959" fill="#06d1d1"/>
    </clipPath>
    <clipPath id="clip-path-10">
      <rect id="Rectángulo_349503" data-name="Rectángulo 349503" width="20.09" height="44.315" fill="#06d1d1"/>
    </clipPath>
    <clipPath id="clip-path-11">
      <rect id="Rectángulo_349504" data-name="Rectángulo 349504" width="44.767" height="70.171" fill="#06d1d1"/>
    </clipPath>
    <clipPath id="clip-path-12">
      <rect id="Rectángulo_349505" data-name="Rectángulo 349505" width="11.663" height="46.485" fill="none"/>
    </clipPath>
    <clipPath id="clip-path-14">
      <rect id="Rectángulo_349507" data-name="Rectángulo 349507" width="11.294" height="12.076" fill="#ffc403"/>
    </clipPath>
    <clipPath id="clip-path-15">
      <rect id="Rectángulo_349508" data-name="Rectángulo 349508" width="89.582" height="51.65" fill="#ffc403"/>
    </clipPath>
    <clipPath id="clip-path-16">
      <rect id="Rectángulo_349509" data-name="Rectángulo 349509" width="12.428" height="98.004" fill="#ffc403"/>
    </clipPath>
    <clipPath id="clip-path-18">
      <rect id="Rectángulo_349511" data-name="Rectángulo 349511" width="21.123" height="22.856" fill="none"/>
    </clipPath>
    <clipPath id="clip-path-19">
      <rect id="Rectángulo_349517" data-name="Rectángulo 349517" width="14.347" height="15.582" fill="none"/>
    </clipPath>
    <clipPath id="clip-path-20">
      <rect id="Rectángulo_349512" data-name="Rectángulo 349512" width="1.341" height="1.341" fill="none"/>
    </clipPath>
    <clipPath id="clip-path-21">
      <rect id="Rectángulo_349513" data-name="Rectángulo 349513" width="1.34" height="1.341" fill="none"/>
    </clipPath>
    <clipPath id="clip-path-25">
      <rect id="Rectángulo_349518" data-name="Rectángulo 349518" width="1.038" height="1.038" fill="none"/>
    </clipPath>
    <clipPath id="clip-path-33">
      <rect id="Rectángulo_349526" data-name="Rectángulo 349526" width="8.042" height="34.09" fill="none"/>
    </clipPath>
    <clipPath id="clip-path-34">
      <rect id="Rectángulo_349527" data-name="Rectángulo 349527" width="22.048" height="41.352" fill="none"/>
    </clipPath>
    <clipPath id="clip-path-35">
      <rect id="Rectángulo_349528" data-name="Rectángulo 349528" width="7.153" height="16.64" fill="none"/>
    </clipPath>
    <clipPath id="clip-path-36">
      <rect id="Rectángulo_349529" data-name="Rectángulo 349529" width="3.654" height="4.718" fill="none"/>
    </clipPath>
    <clipPath id="clip-path-37">
      <rect id="Rectángulo_349530" data-name="Rectángulo 349530" width="1.301" height="1.25" fill="none"/>
    </clipPath>
    <clipPath id="clip-path-39">
      <rect id="Rectángulo_349532" data-name="Rectángulo 349532" width="7.153" height="16.639" fill="none"/>
    </clipPath>
    <clipPath id="clip-path-43">
      <rect id="Rectángulo_349536" data-name="Rectángulo 349536" width="58.711" height="106.105" fill="#b20d0d"/>
    </clipPath>
    <clipPath id="clip-path-44">
      <rect id="Rectángulo_349537" data-name="Rectángulo 349537" width="28.277" height="36.84" fill="none"/>
    </clipPath>
    <clipPath id="clip-path-45">
      <rect id="Rectángulo_349538" data-name="Rectángulo 349538" width="55.022" height="42.448" fill="#b20d0d"/>
    </clipPath>
    <clipPath id="clip-path-46">
      <rect id="Rectángulo_349539" data-name="Rectángulo 349539" width="28.651" height="55.999" fill="none"/>
    </clipPath>
    <clipPath id="clip-path-48">
      <rect id="Rectángulo_349541" data-name="Rectángulo 349541" width="7.561" height="49.852" fill="#06d1d1"/>
    </clipPath>
    <clipPath id="clip-path-49">
      <rect id="Rectángulo_349542" data-name="Rectángulo 349542" width="44.378" height="25.627" fill="#06d1d1"/>
    </clipPath>
    <clipPath id="clip-path-50">
      <rect id="Rectángulo_349543" data-name="Rectángulo 349543" width="17.516" height="17.603" fill="#06d1d1"/>
    </clipPath>
  </defs>
  <g id="Grupo_997015" data-name="Grupo 997015" clip-path="url(#clip-path)">
    <g id="Grupo_996878" data-name="Grupo 996878">
      <g id="Grupo_996877" data-name="Grupo 996877" clip-path="url(#clip-path)">
        <path id="Trazado_730194" data-name="Trazado 730194" d="M479.8,348.461,332.95,433.244a14.585,14.585,0,0,1-14.121.265L78.463,294.739c-4.293-2.478-7.775-4.624-7.775-12.381s3.478-9.9,7.771-12.381l146.349-84.509a17.242,17.242,0,0,1,15.545,0L479.8,323.7c4.293,2.478,7.772,4.895,7.772,12.38s-3.479,9.9-7.772,12.381" transform="translate(11.869 30.831)" fill="#37474f"/>
        <path id="Trazado_730195" data-name="Trazado 730195" d="M224.808,185.469,78.459,269.976c-4.293,2.478-7.771,4.631-7.771,12.381s3.482,9.9,7.774,12.381L318.828,433.509a15.144,15.144,0,0,0,6.755,1.692V234.669l-85.23-49.2a17.245,17.245,0,0,0-15.545,0" transform="translate(11.869 30.831)" fill="#263238"/>
        <path id="Trazado_730196" data-name="Trazado 730196" d="M329.242,419.323a15.209,15.209,0,0,1-13.708,0l-237.6-137.16c-5.8-3.347-5.8-8.826,0-12.174l146.371-84.52a17.245,17.245,0,0,1,15.545,0L479.3,323.7c4.275,2.468,4.275,6.506,0,8.974Z" transform="translate(12.356 30.83)" fill="#455a64"/>
        <path id="Trazado_730197" data-name="Trazado 730197" d="M313.708,403.623a16.611,16.611,0,0,1-15.031,0L95.206,286.163c-4.151-2.4-4.151-6.282,0-8.679l140.8-81.3a16.676,16.676,0,0,1,15.031,0L454.512,313.647c4.133,2.386,4.133,6.292,0,8.679Z" transform="translate(15.463 32.64)" fill="#37474f"/>
        <path id="Trazado_730198" data-name="Trazado 730198" d="M243.066,194.414v5.641a15.079,15.079,0,0,0-6.968,1.767L95.29,283.118a7.849,7.849,0,0,0-1.96,1.574c-2.13-2.322-1.507-5.256,1.88-7.215l140.8-81.3a15.235,15.235,0,0,1,7.058-1.767" transform="translate(15.463 32.643)" fill="#263238"/>
        <path id="Trazado_730199" data-name="Trazado 730199" d="M250.95,201.017a16.673,16.673,0,0,0-15.031,0l-140.8,81.3a7.636,7.636,0,0,0-1.961,1.574,7.934,7.934,0,0,0,1.872,1.461L298.5,402.812a16.611,16.611,0,0,0,15.031,0l140.805-81.3a7.643,7.643,0,0,0,1.948-1.557,7.618,7.618,0,0,0-1.86-1.479Z" transform="translate(15.641 33.452)" fill="#fafafa"/>
        <path id="Trazado_730200" data-name="Trazado 730200" d="M135.982,239.04l34.589-19.983c1.365-.788,1.433-2.026.153-2.766a5.3,5.3,0,0,0-4.79.089l-34.589,19.983c-1.365.787-1.434,2.026-.154,2.766a5.3,5.3,0,0,0,4.791-.089" transform="translate(21.874 36.228)" fill="#37474f"/>
        <path id="Trazado_730201" data-name="Trazado 730201" d="M179.632,210.966c1.28-.739,1.28-1.938,0-2.677a5.124,5.124,0,0,0-4.637,0c-1.281.738-1.281,1.938,0,2.677a5.124,5.124,0,0,0,4.637,0" transform="translate(29.221 34.88)" fill="#37474f"/>
        <path id="Trazado_730202" data-name="Trazado 730202" d="M187.572,206.375c1.28-.739,1.28-1.938,0-2.677a5.124,5.124,0,0,0-4.637,0c-1.28.739-1.281,1.938,0,2.677a5.124,5.124,0,0,0,4.637,0" transform="translate(30.555 34.109)" fill="#37474f"/>
        <path id="Trazado_730203" data-name="Trazado 730203" d="M114.016,248.855c1.28-.739,1.28-1.938,0-2.677a5.124,5.124,0,0,0-4.637,0c-1.281.739-1.281,1.938,0,2.677a5.124,5.124,0,0,0,4.637,0" transform="translate(18.204 41.242)" fill="#37474f"/>
        <path id="Trazado_730204" data-name="Trazado 730204" d="M121.957,244.264c1.28-.739,1.28-1.938,0-2.677a5.124,5.124,0,0,0-4.637,0c-1.281.739-1.281,1.938,0,2.677a5.124,5.124,0,0,0,4.637,0" transform="translate(19.537 40.471)" fill="#37474f"/>
        <path id="Trazado_730205" data-name="Trazado 730205" d="M155.664,316.055a5.207,5.207,0,0,1,2.429,4.034,1.511,1.511,0,0,1-.669,1.415c-.292.162-1.4.823-1.7.992a1.783,1.783,0,0,1-1.752-.2l-31.6-18.244a5.207,5.207,0,0,1-2.429-4.034,1.543,1.543,0,0,1,.614-1.384c.3-.189,1.451-.853,1.753-1.022a1.786,1.786,0,0,1,1.755.2Z" transform="translate(20.139 49.946)" fill="#455a64"/>
        <path id="Trazado_730206" data-name="Trazado 730206" d="M153.97,316.894l-31.6-18.244c-1.341-.774-2.429-.224-2.429,1.229a5.21,5.21,0,0,0,2.429,4.034l31.6,18.244c1.341.774,2.429.223,2.429-1.23a5.21,5.21,0,0,0-2.429-4.033" transform="translate(20.139 50.086)" fill="#37474f"/>
        <path id="Trazado_730207" data-name="Trazado 730207" d="M117.046,293.76a5.21,5.21,0,0,1,2.429,4.033,1.511,1.511,0,0,1-.669,1.417c-.293.162-1.4.823-1.7.992a1.785,1.785,0,0,1-1.753-.2l-14.9-8.6a5.21,5.21,0,0,1-2.429-4.034,1.542,1.542,0,0,1,.614-1.384c.3-.189,1.451-.853,1.753-1.022a1.78,1.78,0,0,1,1.755.2Z" transform="translate(16.459 47.821)" fill="#455a64"/>
        <path id="Trazado_730208" data-name="Trazado 730208" d="M115.353,294.6l-14.9-8.6c-1.342-.775-2.427-.224-2.427,1.229a5.2,5.2,0,0,0,2.427,4.033l14.9,8.6c1.341.775,2.428.224,2.428-1.229a5.208,5.208,0,0,0-2.428-4.033" transform="translate(16.46 47.962)" fill="#37474f"/>
        <path id="Trazado_730209" data-name="Trazado 730209" d="M128.148,262.3a.412.412,0,0,1-.193-.062l-.66-.381-1.586.917a.253.253,0,0,1-.271-.006l-.236-.137a.45.45,0,0,1-.11-.079.346.346,0,0,1-.051-.093l-.672-2.337a.159.159,0,0,1-.006-.1c.007-.022.035-.048.086-.077l.221-.126a.35.35,0,0,1,.2-.055.467.467,0,0,1,.206.068l2.3,1.329.349-.2a.345.345,0,0,1,.188-.054.479.479,0,0,1,.2.069l.157.091c.07.04.105.076.11.11s-.026.069-.093.107l-.35.2.659.381c.07.04.106.077.107.112s-.032.071-.1.111l-.267.154a.343.343,0,0,1-.188.055m-1.308-.827-1.642-.948.491,1.614Z" transform="translate(20.881 43.616)" fill="#37474f"/>
        <path id="Trazado_730210" data-name="Trazado 730210" d="M129.313,261.279a4.272,4.272,0,0,1-1.987-.608q-.985-.568-1.05-1.147c-.046-.387.216-.743.78-1.067a3.632,3.632,0,0,1,.717-.321,2.969,2.969,0,0,1,.722-.15.2.2,0,0,1,.12.018.145.145,0,0,1,.049.05l.144.251c.014.032.013.054-.007.065a.448.448,0,0,1-.095.021,2.717,2.717,0,0,0-1.031.341c-.38.22-.556.464-.524.733s.3.549.806.841a3.226,3.226,0,0,0,1.449.472,2.221,2.221,0,0,0,1.236-.286,2.346,2.346,0,0,0,.353-.248.79.79,0,0,0,.2-.241l-1.07-.619-.661.382a.338.338,0,0,1-.189.053.461.461,0,0,1-.2-.068l-.151-.088c-.074-.042-.111-.079-.112-.111s.029-.068.1-.106l1.057-.611a.378.378,0,0,1,.22-.055.542.542,0,0,1,.235.081l1.528.882a.426.426,0,0,1,.114.084.078.078,0,0,1,.013.082,1.781,1.781,0,0,1-.917.917,3.364,3.364,0,0,1-1.849.453" transform="translate(21.202 43.317)" fill="#37474f"/>
        <path id="Trazado_730211" data-name="Trazado 730211" d="M140.442,254.1a.561.561,0,0,1,0,1.064,2.039,2.039,0,0,1-1.842,0,.562.562,0,0,1,0-1.064,2.034,2.034,0,0,1,1.843,0" transform="translate(23.208 42.629)" fill="#37474f"/>
        <path id="Trazado_730212" data-name="Trazado 730212" d="M137.4,253.41c-.928.536-1.215,1.3-.858,1.98a.6.6,0,0,0,.555.207h0c.311-.022.519-.2.426-.374-.257-.478-.055-1.018.6-1.4a3.746,3.746,0,0,1,2.416-.345c.3.054.611-.067.648-.246v0c.029-.141-.121-.277-.359-.319a5.344,5.344,0,0,0-3.429.5" transform="translate(22.901 42.452)" fill="#37474f"/>
        <path id="Trazado_730213" data-name="Trazado 730213" d="M136.223,252.732c-1.379.8-1.872,1.914-1.482,2.943a.558.558,0,0,0,.563.237h0c.3-.021.5-.188.434-.36-.326-.839.075-1.752,1.2-2.4a6.913,6.913,0,0,1,4.167-.7c.3.039.585-.076.621-.25.032-.153-.148-.292-.41-.326a8.48,8.48,0,0,0-5.1.855" transform="translate(22.602 42.279)" fill="#37474f"/>
        <path id="Trazado_730214" data-name="Trazado 730214" d="M160.78,240.7a.283.283,0,0,1-.156-.051.094.094,0,0,1-.044-.1l.279-1.365c.009-.033.019-.065.032-.1a.168.168,0,0,1,.078-.084l.477-.274a.369.369,0,0,1,.328,0L165.71,241a.1.1,0,0,1,0,.189l-.494.285a.324.324,0,0,1-.165.039.33.33,0,0,1-.165-.039l-3.011-1.738-.188.89a.126.126,0,0,1-.086.088.4.4,0,0,1-.176.028Z" transform="translate(26.962 40.078)" fill="#37474f"/>
        <path id="Trazado_730215" data-name="Trazado 730215" d="M163.419,239.18a.283.283,0,0,1-.155-.051.1.1,0,0,1-.046-.1l.281-1.365a.642.642,0,0,1,.03-.1.165.165,0,0,1,.079-.084l.474-.274a.371.371,0,0,1,.329,0l3.937,2.273a.112.112,0,0,1,.067.095.11.11,0,0,1-.068.1l-.493.285a.327.327,0,0,1-.165.039.323.323,0,0,1-.164-.039l-3.011-1.738-.188.89a.133.133,0,0,1-.086.088.4.4,0,0,1-.178.028Z" transform="translate(27.405 39.822)" fill="#37474f"/>
        <path id="Trazado_730216" data-name="Trazado 730216" d="M166.8,236.813a.313.313,0,0,1,.165-.04.322.322,0,0,1,.163.039l.6.346a.1.1,0,0,1,0,.189l-.566.327a.329.329,0,0,1-.166.04.339.339,0,0,1-.164-.039l-.6-.346a.113.113,0,0,1-.067-.095.115.115,0,0,1,.068-.095Zm2.133,1.231a.361.361,0,0,1,.329,0l.6.345a.11.11,0,0,1,.068.095.114.114,0,0,1-.068.1l-.566.327a.371.371,0,0,1-.329,0l-.6-.345a.1.1,0,0,1,0-.19Z" transform="translate(27.9 39.756)" fill="#37474f"/>
        <path id="Trazado_730217" data-name="Trazado 730217" d="M172.739,237.111a.329.329,0,0,1-.166.039.314.314,0,0,1-.164-.039l-.738-.425-1.89,1.09a.363.363,0,0,1-.328,0l-.433-.25a.25.25,0,0,1-.11-.109,1.144,1.144,0,0,1-.042-.134l-.464-2.421a.2.2,0,0,1,.1-.231l.464-.267a.32.32,0,0,1,.166-.04.314.314,0,0,1,.164.04l2.437,1.407.524-.3a.321.321,0,0,1,.165-.039.332.332,0,0,1,.164.039l.433.251a.11.11,0,0,1,.068.095.112.112,0,0,1-.068.095l-.524.3.738.426a.115.115,0,0,1,.068.095.112.112,0,0,1-.068.095Zm-1.829-.865-1.3-.753.262,1.355Z" transform="translate(28.275 39.344)" fill="#37474f"/>
        <path id="Trazado_730218" data-name="Trazado 730218" d="M170.708,233.7a.108.108,0,0,1-.065-.1c0-.037.021-.068.067-.095l2.29-1.322a.327.327,0,0,1,.165-.04.345.345,0,0,1,.166.039l.433.251a.11.11,0,0,1,.065.095.115.115,0,0,1-.068.1l-1.712.988.715.488a.944.944,0,0,1,.246-.234c.1-.067.183-.12.252-.16a3.385,3.385,0,0,1,.724-.313,3.256,3.256,0,0,1,.778-.135,2.99,2.99,0,0,1,.777.062,2.435,2.435,0,0,1,.725.278,1.565,1.565,0,0,1,.542.457.635.635,0,0,1,.116.461.828.828,0,0,1-.246.445,2.466,2.466,0,0,1-.54.406,3.857,3.857,0,0,1-.819.361,3.289,3.289,0,0,1-.766.135,2.673,2.673,0,0,1-.681-.05,2.129,2.129,0,0,1-.566-.2c-.055-.025-.077-.056-.075-.093a.13.13,0,0,1,.074-.1l.5-.285a.33.33,0,0,1,.147-.041.5.5,0,0,1,.175.023,1.188,1.188,0,0,0,.343.065,1.464,1.464,0,0,0,.322-.025,1.419,1.419,0,0,0,.3-.093,2.849,2.849,0,0,0,.286-.145c.232-.134.355-.277.371-.432s-.085-.3-.3-.422a1.21,1.21,0,0,0-.672-.141,1.676,1.676,0,0,0-.749.214,1.389,1.389,0,0,0-.262.183.593.593,0,0,0-.111.138,1.011,1.011,0,0,1-.057.107.3.3,0,0,1-.113.1l-.561.323a.364.364,0,0,1-.328,0Z" transform="translate(28.652 38.978)" fill="#37474f"/>
        <path id="Trazado_730219" data-name="Trazado 730219" d="M113.193,271.09l-1.271-.733,1.693-.978,1.271.733Z" transform="translate(18.792 45.23)" fill="#37474f"/>
        <path id="Trazado_730220" data-name="Trazado 730220" d="M115.551,269.939l-2.54-1.467,1.693-.978,2.54,1.467Z" transform="translate(18.975 44.914)" fill="#37474f"/>
        <path id="Trazado_730221" data-name="Trazado 730221" d="M117.91,268.789l-3.811-2.2,1.695-.978,3.81,2.2Z" transform="translate(19.158 44.598)" fill="#37474f"/>
        <path id="Trazado_730222" data-name="Trazado 730222" d="M120.267,267.638l-5.08-2.934,1.693-.978,5.08,2.934Z" transform="translate(19.341 44.281)" fill="#37474f"/>
        <path id="Trazado_730223" data-name="Trazado 730223" d="M218,206.812a1.778,1.778,0,0,0-1,.151l-6.336,3.646c-.412.237-.306.669.242.985l2.308,1.334a2.748,2.748,0,0,0,1.115.326,2.637,2.637,0,0,0,.5,0,1.284,1.284,0,0,0,.5-.147l6.335-3.646c.409-.237.3-.669-.243-.985l-2.309-1.334a2.713,2.713,0,0,0-1.113-.325m-3.724,6.206a1.178,1.178,0,0,1-.479-.159l-2.308-1.333c-.4-.232-.488-.576-.186-.75l6.335-3.646a.676.676,0,0,1,.259-.082.721.721,0,0,1,.159,0,1.171,1.171,0,0,1,.478.158l2.309,1.333c.4.234.488.576.186.75l-6.336,3.647a.72.72,0,0,1-.417.084" transform="translate(35.33 34.723)" fill="#37474f"/>
        <path id="Trazado_730224" data-name="Trazado 730224" d="M212.678,209.811l2.732,1.578-1,.572a.475.475,0,0,1-.338.029l-2.032-1.174c-.291-.168-.355-.429-.141-.557Z" transform="translate(35.558 35.229)" fill="#37474f"/>
        <path id="Trazado_730225" data-name="Trazado 730225" d="M212.948,209.686l1.184-.688,2.733,1.578-1.192.683Z" transform="translate(35.755 35.092)" fill="#37474f"/>
        <path id="Trazado_730226" data-name="Trazado 730226" d="M214.364,208.873l1.184-.688,2.74,1.583-1.192.683Z" transform="translate(35.993 34.956)" fill="#37474f"/>
        <path id="Trazado_730227" data-name="Trazado 730227" d="M217.144,207.466l1.968,1.136c.362.209.284.514-.2.793l-.4.231-2.732-1.578.945-.545a.587.587,0,0,1,.42-.037" transform="translate(36.231 34.831)" fill="#37474f"/>
        <path id="Trazado_730228" data-name="Trazado 730228" d="M218.124,206.985a1.681,1.681,0,0,1,1.173.311l.429.248c.474.273.724.584.558.694l-.3.2-2.172-1.264.314-.185" transform="translate(36.572 34.748)" fill="#37474f"/>
        <path id="Trazado_730229" data-name="Trazado 730229" d="M203.1,216.546l4.912-4.268,2.588,3.686-3.4-.925Z" transform="translate(34.101 35.643)" fill="#37474f"/>
        <path id="Trazado_730230" data-name="Trazado 730230" d="M262.337,274.263a18.265,18.265,0,0,1,5.711-2.031l-8.421-3.494-.013.008-1.487-8.6-25.157,5.069-11.3,6.525,15.312,10.073.012-.007,14.491,6,7.624-4.4c-2.106-3.06-1.027-6.671,3.228-9.138m-29.509,9.948-15.286-10.088L180.522,295.5l15.312,10.073.014-.008,14.481,6L247.336,290.2,232.843,284.2Zm48.551,1.076a15.645,15.645,0,0,1-1.711.847l13.319,4.326,0,0,5.645,6.186,51.089-29.5-24.8-14.316L284.554,276.14c2.106,3.06,1.079,6.691-3.176,9.147m-17.947-26.21,1.361,7.686,8.944,3.42,5.258,1.738,39.5-22.806-12.438-7.181-22.766,13.145Zm2.225,24.252a13.671,13.671,0,0,0,12.383.03c3.41-1.969,3.394-5.174-.036-7.159a13.671,13.671,0,0,0-12.383-.03c-3.409,1.968-3.393,5.174.036,7.159m52.244,6.915-16.459,9.5,18.976,22.1,35.628-20.57Zm11.91,56.1a20.54,20.54,0,0,1,4.693-1.929l-5.141-3.11-10.815-12.648-17.724,10.233,11.217,12.416,13.192,6.79,1.57-.908c-3.131-3.52-2.176-7.851,3.01-10.844m-7.194-20.038,10.8,12.658L340.5,343.4a32.04,32.04,0,0,1,9.036.658l29.187-16.851-13.248-6.758,4.118-2.378,13.242,6.762,33.4-19.286-17.719-10.23-48.661,15.256ZM278.93,250.693l21.148-12.209-48.458-27.977-28.3,16.34,10.112,32.06Zm81.229,48.212,22.287-12.867-28.632-16.531-31.8,18.359Zm34.228-5.973L387.4,288.9l-24.652,14.232Zm-89.73,77.041,16.459-9.5-13.193-6.79-11.215-12.416-16.461,9.5,11.169,12.445Zm-17.148,16.493,8.318,4.8,9.092-14.855Zm9.817-84.345-51.439,29.7-2.651,29.086L248,363.659l68.334-39.453Zm35.517,58.17-20.6,11.893-12.853,21.146,4.746,2.74,53.19-30.709-10.553-4.8a32,32,0,0,1-13.931-.273m-45.493,5.267h0l-11.217-12.416-23.172,13.378L281.8,383.17l18.743-10.821ZM229.318,261.284l-10.112-32.061-32.919,19.005,30.686,20.183Zm126.624,85.672c3.57,3.57,2.746,8.119-2.632,11.224-.228.132-.456.253-.693.38l9.325,4.139,28.311-16.345-16.423-9.725Zm66.009-38.109-43.867,25.326,16.283,9.808,44.218-25.53Zm-230.219-.91-.014.008-15.312-10.073L155.232,310.1l28.818,16.638,22.162-12.794Zm-50.708-33.576-23.845,13.766L150,307.076l21.709-12.533ZM289.277,292.6l-.01.006-14.389-5.147a25.178,25.178,0,0,1-9.343-.34l-47.41,27.373,19.342,8.02.013-.007,5.607,6.207,51.6-29.792Zm-76.418-21.815-30.63-20.215-37.09,21.415,30.686,20.183Zm20.489,54.107-19.341-8.022-23.522,13.58,45.248,26.124,3.239-25.485-5.609-6.205Zm102.166,30.943a13.667,13.667,0,0,0,12.383.03c3.409-1.969,3.393-5.174-.037-7.159a13.675,13.675,0,0,0-12.383-.03c-3.408,1.969-3.392,5.174.037,7.159" transform="translate(19.675 35.345)" fill="#f0f0f0"/>
        <path id="Trazado_730231" data-name="Trazado 730231" d="M266.472,261.253l.417,2.364,7.016,2.68,3.691,1.22,32.882-18.984-5.431-3.136-21.512,12.42Zm10.229-14.48,15.364-8.871-41.449-23.93L226.5,227.894l8.339,26.436Zm-20.721,26.763-1.7-9.827-21.063,4.243-5.887,3.4,10.24,6.736,12.648,5.233,3.5-2.018a8.475,8.475,0,0,1,.043-3.512,9.7,9.7,0,0,1,2.218-4.256m-31.856-14.462-7.955-25.216-24.218,13.982,24.135,15.874Zm81.2,80.1,7.967,8.819,7.236,3.7c.02-.249.048-.5.088-.745.336-2.082,1.56-5.01,5.383-7.562l-3.023-3.63-6.193-7.193ZM287.9,280.642a9.47,9.47,0,0,1-1.738,3.66l7.781,2.517,4.377,4.8,43.394-25.053L323.92,256.294l-35.982,20.775a8.534,8.534,0,0,1-.041,3.574m46.966,55.143,5.556,3.478c.429-.015.86-.023,1.287-.023a35.443,35.443,0,0,1,6.219.543l22.456-12.966-13.248-6.756,11.353-6.555,13.242,6.762,26.5-15.3L397.1,298.541l-46.824,14.679L327.02,326.646Zm-29.02-35.7,14.331,16.694,25.987-15-28.809-8.335ZM205.188,270l-24.089-15.9L150.8,271.6l24.135,15.872Zm81.036,25.014L273.5,290.466a28.91,28.91,0,0,1-8.366-.231l-40.113,23.16,13.543,5.618,4.218,4.669,45.5-26.267ZM359.9,347.55a8.949,8.949,0,0,1,.624,4.613,9.885,9.885,0,0,1-2.224,4.951l2.423,1.076L382.3,345.732l-9.5-5.627ZM339.4,364.123a34.833,34.833,0,0,1-7-.693l-18.63,10.756-10.408,17.125,45.312-26.161-3.344-1.519a35.306,35.306,0,0,1-5.928.492m-64.973-7.113-15.463,8.929,21.829,12.6,11.409-6.588-7.916-4.028ZM139.9,277.893l-16.719,9.653,25.815,14.9,15.037-8.681ZM420.944,312.31l-36.97,21.345,9.423,5.677,37.176-21.463ZM189,310.431,175.279,301.4l-14.048,8.11,21.811,12.594,14.26-8.233Zm24.255,9.755-16.768,9.682,35.428,20.456,2.372-18.662-3.98-4.4Zm82.3-14.161L248.2,333.364l-2.281,25.047,1.074.62L309.916,322.7Z" transform="translate(20.683 35.927)" fill="#e0e0e0"/>
        <path id="Trazado_730232" data-name="Trazado 730232" d="M285.942,336.649l-10.253,5.92,7.967,8.82,10.832,5.534,9.229-5.329-7.5-3.83Zm-78.588-67.475-30.227,17.45,10.232,6.732,12.65,5.243,29.354-16.948-8.314-3.437Zm57.723-.388a7.331,7.331,0,0,0-6.642-.016c-1.828,1.056-1.82,2.775.02,3.84a7.329,7.329,0,0,0,6.641.015c1.829-1.056,1.821-2.775-.019-3.839m69.856,72.507a7.338,7.338,0,0,0-6.642-.016c-1.828,1.056-1.818,2.775.02,3.84a7.331,7.331,0,0,0,6.642.016c1.829-1.056,1.82-2.775-.02-3.84m8.818-76.8-22.923,13.235,28.809,8.337,15.738-9.087Z" transform="translate(29.741 44.409)" fill="#ba68c8"/>
        <g id="Grupo_996876" data-name="Grupo 996876" transform="translate(206.868 308.898)" opacity="0.6">
          <g id="Grupo_996875" data-name="Grupo 996875">
            <g id="Grupo_996874" data-name="Grupo 996874" clip-path="url(#clip-path-3)">
              <path id="Trazado_730233" data-name="Trazado 730233" d="M285.942,336.649l-10.253,5.92,7.967,8.82,10.832,5.534,9.229-5.329-7.5-3.83Zm-78.588-67.475-30.227,17.45,10.232,6.732,12.65,5.243,29.354-16.948-8.314-3.437Zm57.723-.388a7.331,7.331,0,0,0-6.642-.016c-1.828,1.056-1.82,2.775.02,3.84a7.329,7.329,0,0,0,6.641.015c1.829-1.056,1.821-2.775-.019-3.839m69.856,72.507a7.338,7.338,0,0,0-6.642-.016c-1.828,1.056-1.818,2.775.02,3.84a7.331,7.331,0,0,0,6.642.016c1.829-1.056,1.82-2.775-.02-3.84m8.818-76.8-22.923,13.235,28.809,8.337,15.738-9.087Z" transform="translate(-177.127 -264.489)" fill="#fff"/>
            </g>
          </g>
        </g>
      </g>
    </g>
    <g id="Grupo_996904" data-name="Grupo 996904">
      <g id="Grupo_996903" data-name="Grupo 996903" clip-path="url(#clip-path)">
        <path id="Trazado_730234" data-name="Trazado 730234" d="M344.669,321.468c-.689-.409-6.774-3.912-7.953-4.59a2.393,2.393,0,0,1-.864-.876l-2.476-4.289,4.006-2.322,6.494,11.247a2.464,2.464,0,0,0,.794.829" transform="translate(55.976 51.949)" fill="#ba68c8"/>
        <g id="Grupo_996881" data-name="Grupo 996881" transform="translate(389.352 361.341)" opacity="0.2">
          <g id="Grupo_996880" data-name="Grupo 996880">
            <g id="Grupo_996879" data-name="Grupo 996879" clip-path="url(#clip-path-5)">
              <path id="Trazado_730235" data-name="Trazado 730235" d="M344.669,321.468c-.689-.409-6.774-3.912-7.953-4.59a2.393,2.393,0,0,1-.864-.876l-2.476-4.289,4.006-2.322,6.494,11.247a2.464,2.464,0,0,0,.794.829" transform="translate(-333.376 -309.392)" fill="#06d1d1"/>
            </g>
          </g>
        </g>
        <path id="Trazado_730236" data-name="Trazado 730236" d="M391.554,208.179c-.148-.948-.923-1.288-1.863-.749l-75.88,43.858a3.859,3.859,0,0,0-1.331,1.41L301.972,246.7a3.764,3.764,0,0,1,1.3-1.34l75.888-43.858a4.21,4.21,0,0,1,3.778-.018l6.747,3.783a4.157,4.157,0,0,1,1.871,2.907" transform="translate(50.703 33.758)" fill="#ba68c8"/>
        <g id="Grupo_996884" data-name="Grupo 996884" transform="translate(352.675 234.808)" opacity="0.45">
          <g id="Grupo_996883" data-name="Grupo 996883">
            <g id="Grupo_996882" data-name="Grupo 996882" clip-path="url(#clip-path-6)">
              <path id="Trazado_730237" data-name="Trazado 730237" d="M391.554,208.179c-.148-.948-.923-1.288-1.863-.749l-75.88,43.858a3.859,3.859,0,0,0-1.331,1.41L301.972,246.7a3.764,3.764,0,0,1,1.3-1.34l75.888-43.858a4.21,4.21,0,0,1,3.778-.018l6.747,3.783a4.157,4.157,0,0,1,1.871,2.907" transform="translate(-301.972 -201.05)" fill="#06d1d1"/>
            </g>
          </g>
        </g>
        <path id="Trazado_730238" data-name="Trazado 730238" d="M313.893,337.7a4.323,4.323,0,0,1-3.783.022l-6.747-3.887a4.1,4.1,0,0,1-1.9-3.242V242.065a3.885,3.885,0,0,1,.6-1.924l10.5,5.994a3.75,3.75,0,0,0-.557,1.853v88.618c0,1.1.776,1.736,1.885,1.092" transform="translate(50.618 40.321)" fill="#ba68c8"/>
        <g id="Grupo_996887" data-name="Grupo 996887" transform="translate(352.083 280.462)" opacity="0.2">
          <g id="Grupo_996886" data-name="Grupo 996886">
            <g id="Grupo_996885" data-name="Grupo 996885" clip-path="url(#clip-path-7)">
              <path id="Trazado_730239" data-name="Trazado 730239" d="M313.893,337.7a4.323,4.323,0,0,1-3.783.022l-6.747-3.887a4.1,4.1,0,0,1-1.9-3.242V242.065a3.885,3.885,0,0,1,.6-1.924l10.5,5.994a3.75,3.75,0,0,0-.557,1.853v88.618c0,1.1.776,1.736,1.885,1.092" transform="translate(-301.465 -240.141)" fill="#06d1d1"/>
            </g>
          </g>
        </g>
        <path id="Trazado_730240" data-name="Trazado 730240" d="M388.264,206.552l-75.887,43.856a4.168,4.168,0,0,0-1.885,3.264v88.622c0,1.2.844,1.689,1.885,1.087l28.85-16.673,6.49,11.238a2.381,2.381,0,0,0,4.311-.412l7.388-21.332,28.848-16.677a4.163,4.163,0,0,0,1.884-3.263V207.64c0-1.2-.843-1.689-1.884-1.088" transform="translate(52.134 34.638)" fill="#fafafa"/>
        <path id="Trazado_730241" data-name="Trazado 730241" d="M388.972,207.5a1.126,1.126,0,0,1,.008.139v88.622a3.018,3.018,0,0,1-1.3,2.253L358.83,315.19l-.377.218-.141.411-7.388,21.332a1.213,1.213,0,0,1-2.2.21l-6.489-11.238-.584-1.011-1.011.585L311.792,342.37a1.226,1.226,0,0,1-.124.062.943.943,0,0,1-.008-.139V253.671a3.017,3.017,0,0,1,1.3-2.253l75.888-43.856a1.211,1.211,0,0,1,.124-.062m.133-1.206a1.712,1.712,0,0,0-.841.257l-75.888,43.856a4.167,4.167,0,0,0-1.884,3.264v88.622c0,.853.424,1.345,1.043,1.345a1.715,1.715,0,0,0,.841-.257l28.851-16.673,6.489,11.236a2.38,2.38,0,0,0,4.311-.411l7.388-21.333,28.85-16.677a4.166,4.166,0,0,0,1.884-3.263V207.639c0-.853-.425-1.345-1.043-1.345" transform="translate(52.134 34.638)" fill="#06d1d1"/>
        <path id="Trazado_730242" data-name="Trazado 730242" d="M371.421,239.7c.04-.535-.078-.869-.313-1.008l.006,0-.032-.023c-.25-.121-1.894-1.177-2.129-1.316l.006,0-.032-.022c-.25-.123-.627-.027-1.088.3-4.6,3.276-10.79,3.9-15.412,1.677a10.808,10.808,0,0,1-1.721-1.706c-.026-.033-.051-.067-.078-.095h-.006a1.7,1.7,0,0,0-.441-.389s-2.005-1.258-2.155-1.344l-.074-.046c-.5-.256-.964-.028-1.293.709-4.613,10.422-14.043,20.823-20.178,23.3a3.41,3.41,0,0,0-1.222.847,2.538,2.538,0,0,0-.73,1.709c-.464,13.587,6.239,35.557,20.095,43.291a24.314,24.314,0,0,0,2.537,1.564c20.087-19.351,23.71-51.327,24.26-67.43" transform="translate(54.487 39.561)" fill="#ba68c8"/>
        <g id="Grupo_996890" data-name="Grupo 996890" transform="translate(406.925 276.825)" opacity="0.4">
          <g id="Grupo_996889" data-name="Grupo 996889">
            <g id="Grupo_996888" data-name="Grupo 996888" clip-path="url(#clip-path-8)">
              <path id="Trazado_730243" data-name="Trazado 730243" d="M367.065,238.42c-.251-.123-.627-.027-1.089.3-5.353,3.816-12.875,4.041-17.554.343a15.652,15.652,0,0,0,15.4-1.685c.46-.325.837-.42,1.089-.3l.031.022a.006.006,0,0,0-.006.006c.234.138,1.877,1.19,2.128,1.313" transform="translate(-348.423 -237.027)" fill="#06d1d1"/>
            </g>
          </g>
        </g>
        <path id="Trazado_730244" data-name="Trazado 730244" d="M350.062,237.053c-.5-.256-.964-.027-1.292.709-4.614,10.428-14.043,20.823-20.179,23.3a3.421,3.421,0,0,0-1.222.847,3.048,3.048,0,0,0-.466.667l-2.149-1.341a2.9,2.9,0,0,1,.461-.667,3.439,3.439,0,0,1,1.222-.848c6.135-2.471,15.565-12.871,20.179-23.294.328-.737.8-.965,1.292-.709l.074.046c.07.04.494.3.955.591s.944.6,1.125.7" transform="translate(54.528 39.561)" fill="#ba68c8"/>
        <g id="Grupo_996893" data-name="Grupo 996893" transform="translate(379.285 275.172)" opacity="0.4">
          <g id="Grupo_996892" data-name="Grupo 996892">
            <g id="Grupo_996891" data-name="Grupo 996891" clip-path="url(#clip-path-9)">
              <path id="Trazado_730245" data-name="Trazado 730245" d="M350.062,237.053c-.5-.256-.964-.027-1.292.709-4.614,10.428-14.043,20.823-20.179,23.3a3.421,3.421,0,0,0-1.222.847,3.048,3.048,0,0,0-.466.667l-2.149-1.341a2.9,2.9,0,0,1,.461-.667,3.439,3.439,0,0,1,1.222-.848c6.135-2.471,15.565-12.871,20.179-23.294.328-.737.8-.965,1.292-.709l.074.046c.07.04.494.3.955.591s.944.6,1.125.7" transform="translate(-324.756 -235.611)" fill="#06d1d1"/>
            </g>
          </g>
        </g>
        <g id="Grupo_996896" data-name="Grupo 996896" transform="translate(378.994 300.79)" opacity="0.4">
          <g id="Grupo_996895" data-name="Grupo 996895">
            <g id="Grupo_996894" data-name="Grupo 996894" clip-path="url(#clip-path-10)">
              <path id="Trazado_730246" data-name="Trazado 730246" d="M344.6,301.861c-13.837-7.743-20.532-29.7-20.069-43.272a2.355,2.355,0,0,1,.269-1.042l2.149,1.341a2.263,2.263,0,0,0-.263,1.042c-.439,12.863,5.529,33.225,17.915,41.931" transform="translate(-324.507 -257.546)" fill="#06d1d1"/>
            </g>
          </g>
        </g>
        <path id="Trazado_730247" data-name="Trazado 730247" d="M371.111,239.5c-.55,16.1-4.173,48.079-24.26,67.43-14.119-7.539-20.945-29.8-20.477-43.51a2.538,2.538,0,0,1,.73-1.709,3.428,3.428,0,0,1,1.222-.848c6.135-2.471,15.565-12.871,20.178-23.294.329-.737.8-.965,1.293-.709l.074.046a1.7,1.7,0,0,1,.441.389h.006c.027.028.053.062.078.095,4.334,5.409,13.208,5.706,19.288,1.373.461-.326.839-.42,1.088-.3l.032.023-.006,0c.235.139.353.473.313,1.008" transform="translate(54.797 39.754)" fill="#ba68c8"/>
        <g id="Grupo_996899" data-name="Grupo 996899" transform="translate(381.147 276.516)" opacity="0.15">
          <g id="Grupo_996898" data-name="Grupo 996898">
            <g id="Grupo_996897" data-name="Grupo 996897" clip-path="url(#clip-path-11)">
              <path id="Trazado_730248" data-name="Trazado 730248" d="M371.111,239.5c-.55,16.1-4.173,48.079-24.26,67.43-14.119-7.539-20.945-29.8-20.477-43.51a2.538,2.538,0,0,1,.73-1.709,3.428,3.428,0,0,1,1.222-.848c6.135-2.471,15.565-12.871,20.178-23.294.329-.737.8-.965,1.293-.709l.074.046a1.7,1.7,0,0,1,.441.389h.006c.027.028.053.062.078.095,4.334,5.409,13.208,5.706,19.288,1.373.461-.326.839-.42,1.088-.3l.032.023-.006,0c.235.139.353.473.313,1.008" transform="translate(-326.351 -236.762)" fill="#06d1d1"/>
            </g>
          </g>
        </g>
        <path id="Trazado_730249" data-name="Trazado 730249" d="M349.8,236.863c-.5-.256-.964-.028-1.292.709-4.614,10.424-14.044,20.823-20.179,23.3a3.421,3.421,0,0,0-1.222.847,2.538,2.538,0,0,0-.73,1.709c-.467,13.714,6.359,35.973,20.477,43.51,10.921-36.976,2.945-70.07,2.945-70.07" transform="translate(54.796 39.754)" fill="#06d1d1"/>
        <g id="Grupo_996902" data-name="Grupo 996902" transform="translate(411.667 282.355)" opacity="0.4">
          <g id="Grupo_996901" data-name="Grupo 996901">
            <g id="Grupo_996900" data-name="Grupo 996900" clip-path="url(#clip-path-12)">
              <path id="Trazado_730250" data-name="Trazado 730250" d="M352.483,243.519c4.8,1.4,9.163-.577,11.663-1.757,0,0-.4,28.439-10.811,46.485,4.348-14.223,4.046-17.178,4.684-27.81.628-10.45-1.954-14.183-5.536-16.918" transform="translate(-352.483 -241.762)" fill="#fff"/>
            </g>
          </g>
        </g>
      </g>
    </g>
    <g id="Grupo_996915" data-name="Grupo 996915">
      <g id="Grupo_996914" data-name="Grupo 996914" clip-path="url(#clip-path)">
        <path id="Trazado_730251" data-name="Trazado 730251" d="M225.453,335.143c-.689-.409-6.774-3.913-7.953-4.59a2.392,2.392,0,0,1-.864-.876l-2.476-4.289,4.006-2.322,6.494,11.247a2.465,2.465,0,0,0,.794.829" transform="translate(35.959 54.245)" fill="#ba68c8"/>
        <g id="Grupo_996907" data-name="Grupo 996907" transform="translate(250.118 377.312)" opacity="0.2">
          <g id="Grupo_996906" data-name="Grupo 996906">
            <g id="Grupo_996905" data-name="Grupo 996905" clip-path="url(#clip-path-14)">
              <path id="Trazado_730252" data-name="Trazado 730252" d="M225.453,335.143c-.689-.409-6.774-3.913-7.953-4.59a2.392,2.392,0,0,1-.864-.876l-2.476-4.289,4.006-2.322,6.494,11.247a2.465,2.465,0,0,0,.794.829" transform="translate(-214.159 -323.067)" fill="#ffc403"/>
            </g>
          </g>
        </g>
        <path id="Trazado_730253" data-name="Trazado 730253" d="M260.991,228.382c-.148-.948-.923-1.288-1.863-.749l-75.88,43.858a3.868,3.868,0,0,0-1.331,1.41l-10.508-5.993a3.758,3.758,0,0,1,1.3-1.341l75.888-43.858a4.21,4.21,0,0,1,3.778-.018l6.747,3.783a4.16,4.16,0,0,1,1.871,2.907" transform="translate(28.781 37.15)" fill="#ba68c8"/>
        <g id="Grupo_996910" data-name="Grupo 996910" transform="translate(200.19 258.403)" opacity="0.45">
          <g id="Grupo_996909" data-name="Grupo 996909">
            <g id="Grupo_996908" data-name="Grupo 996908" clip-path="url(#clip-path-15)">
              <path id="Trazado_730254" data-name="Trazado 730254" d="M260.991,228.382c-.148-.948-.923-1.288-1.863-.749l-75.88,43.858a3.868,3.868,0,0,0-1.331,1.41l-10.508-5.993a3.758,3.758,0,0,1,1.3-1.341l75.888-43.858a4.21,4.21,0,0,1,3.778-.018l6.747,3.783a4.16,4.16,0,0,1,1.871,2.907" transform="translate(-171.409 -221.253)" fill="#ffc403"/>
            </g>
          </g>
        </g>
        <path id="Trazado_730255" data-name="Trazado 730255" d="M183.33,357.9a4.323,4.323,0,0,1-3.783.022l-6.747-3.887a4.1,4.1,0,0,1-1.9-3.242V262.269a3.885,3.885,0,0,1,.6-1.924l10.5,5.994a3.75,3.75,0,0,0-.557,1.853v88.618c0,1.1.775,1.736,1.885,1.092" transform="translate(28.696 43.714)" fill="#ba68c8"/>
        <g id="Grupo_996913" data-name="Grupo 996913" transform="translate(199.598 304.059)" opacity="0.2">
          <g id="Grupo_996912" data-name="Grupo 996912">
            <g id="Grupo_996911" data-name="Grupo 996911" clip-path="url(#clip-path-16)">
              <path id="Trazado_730256" data-name="Trazado 730256" d="M183.33,357.9a4.323,4.323,0,0,1-3.783.022l-6.747-3.887a4.1,4.1,0,0,1-1.9-3.242V262.269a3.885,3.885,0,0,1,.6-1.924l10.5,5.994a3.75,3.75,0,0,0-.557,1.853v88.618c0,1.1.775,1.736,1.885,1.092" transform="translate(-170.902 -260.345)" fill="#ffc403"/>
            </g>
          </g>
        </g>
        <path id="Trazado_730257" data-name="Trazado 730257" d="M257.7,226.755l-75.887,43.856a4.168,4.168,0,0,0-1.885,3.264V362.5c0,1.2.844,1.689,1.885,1.087l42.1-24.3,6.49,11.238a2.381,2.381,0,0,0,4.311-.412L242.1,328.78l15.6-9.051a4.163,4.163,0,0,0,1.884-3.263V227.843c0-1.2-.843-1.689-1.884-1.089" transform="translate(30.211 38.03)" fill="#fafafa"/>
        <path id="Trazado_730258" data-name="Trazado 730258" d="M258.409,227.7a1.127,1.127,0,0,1,.008.139v88.622a3.02,3.02,0,0,1-1.3,2.254l-15.6,9.05-.375.217L241,328.4l-7.388,21.332a1.212,1.212,0,0,1-2.2.21L224.927,338.7l-.584-1.011-1.011.584-42.1,24.3a1.214,1.214,0,0,1-.124.062.945.945,0,0,1-.008-.139V273.875a3.018,3.018,0,0,1,1.3-2.253l75.887-43.856a1.21,1.21,0,0,1,.124-.062m.133-1.206a1.712,1.712,0,0,0-.841.257l-75.888,43.856a4.166,4.166,0,0,0-1.884,3.264V362.5c0,.853.424,1.345,1.043,1.345a1.715,1.715,0,0,0,.841-.257l42.1-24.3,6.489,11.238a2.38,2.38,0,0,0,4.311-.411L242.1,328.78l15.6-9.051a4.166,4.166,0,0,0,1.884-3.263V227.843c0-.853-.425-1.345-1.043-1.345" transform="translate(30.211 38.03)" fill="#ffc403"/>
        <path id="Trazado_730259" data-name="Trazado 730259" d="M232.017,296.589l-2.97,5.676-5.517-4.171,2.971-5.676Z" transform="translate(37.532 49.099)" fill="#455a64"/>
        <path id="Trazado_730260" data-name="Trazado 730260" d="M241.259,307.562h0c-1.138,2.172-2.98,3.237-4.118,2.378l-9.912-7.455c-.186-.14-.186-.543,0-.9l3.444-6.581c.186-.355.488-.529.674-.389l9.912,7.455c1.138.86,1.138,3.318,0,5.49" transform="translate(38.13 49.46)" fill="#263238"/>
        <path id="Trazado_730261" data-name="Trazado 730261" d="M234.893,277.542c0,14.731-9,31.917-20.044,38.3s-20.042-.422-20.042-15.152,8.986-31.912,20.042-38.3,20.044.411,20.044,15.152" transform="translate(32.709 43.654)" fill="#fafafa"/>
        <path id="Trazado_730262" data-name="Trazado 730262" d="M215.28,259.012c-12.7,7.333-23.038,27.084-23.038,44.029s10.336,24.75,23.038,17.417,23.038-27.084,23.038-44.02-10.337-24.76-23.038-17.426m0,57.452c-11.057,6.383-20.042-.422-20.042-15.152s8.986-31.912,20.042-38.294,20.042.411,20.042,15.151-9,31.918-20.042,38.3" transform="translate(32.279 43.027)" fill="#ffc403"/>
        <path id="Trazado_730263" data-name="Trazado 730263" d="M214.438,299.783c-10.216,5.9-16.889-.934-16.954-1l-.225-.236.223-.5c.067-.148,6.74-14.865,16.957-20.764s16.89,1.113,16.957,1.184l.223.239-.225.5c-.065.146-6.739,14.684-16.954,20.582M198.4,297.876c1.256,1.119,7.306,5.78,16.035.739s14.781-16.688,16.035-19.255c-1.251-1.146-7.3-5.953-16.035-.912s-14.785,16.838-16.035,19.428" transform="translate(33.121 46.161)" fill="#455a64"/>
        <path id="Trazado_730264" data-name="Trazado 730264" d="M229.643,272.655a12.765,12.765,0,0,0-7.127-2.483,15.676,15.676,0,0,0-8.327,2.277,32.953,32.953,0,0,0-8.327,7.34,53.282,53.282,0,0,0-3.762,5.049,61.765,61.765,0,0,0-3.365,5.661,53.417,53.417,0,0,1,6.843-11.324,31.886,31.886,0,0,1,8.611-7.851,14.231,14.231,0,0,1,8.611-2.091,10.661,10.661,0,0,1,6.843,3.421" transform="translate(33.369 45.192)" fill="#455a64"/>
        <path id="Trazado_730265" data-name="Trazado 730265" d="M219.347,284.2c0,4.751-2.888,10.269-6.452,12.327s-6.452-.127-6.452-4.877,2.888-10.271,6.452-12.327,6.452.126,6.452,4.877" transform="translate(34.663 46.77)" fill="#455a64"/>
        <path id="Trazado_730266" data-name="Trazado 730266" d="M215.533,285.426a7.464,7.464,0,0,1-3.117,5.955c-1.72.994-3.116-.062-3.116-2.357a7.464,7.464,0,0,1,3.116-5.954c1.721-.994,3.117.061,3.117,2.356" transform="translate(35.143 47.467)" fill="#263238"/>
        <path id="Trazado_730267" data-name="Trazado 730267" d="M216.025,282.193a3.393,3.393,0,0,1-1.419,2.708c-.782.452-1.418-.027-1.418-1.071a3.4,3.4,0,0,1,1.418-2.71c.784-.452,1.419.028,1.419,1.072" transform="translate(35.796 47.173)" fill="#fff"/>
      </g>
    </g>
    <path id="Trazado_730268" data-name="Trazado 730268" d="M72.45,331.289l6.139-2.342-2.031-4.153-3.768,3.539Z" transform="translate(12.165 54.535)"/>
    <g id="Grupo_996989" data-name="Grupo 996989">
      <g id="Grupo_996988" data-name="Grupo 996988" clip-path="url(#clip-path)">
        <path id="Trazado_730269" data-name="Trazado 730269" d="M67,320.882s-.225,4-.274,5.266,5.347,5.156,6.684,5.8l.34-2.956a22.873,22.873,0,0,1,3.1,4.764c1.042,1.794,2.378,5.189,5.235,7.494,4.241,3.422,10.832,5.139,17.548,5.351s10.554-1.455,12.457-2.921,2.5-3.172,2.015-4.876S67,320.882,67,320.882" transform="translate(11.204 53.878)" fill="#263238"/>
        <path id="Trazado_730270" data-name="Trazado 730270" d="M84.923,309.447l.07-2.324c1.237-.042,1.4,3.32,3.222,6.263a59.993,59.993,0,0,0,9.509,12.041c6.838,6.174,12.933,10.041,15.985,12.821,4.084,3.719-3.032,9.694-14,9.132-5.442-.28-15.119-2.97-17.849-6.172s-4.423-8.2-6.609-10.53-6.865-4.658-8.233-7.485c-.751-1.554-.376-5.191.054-8.283.4-2.837.459-7.184,2.058-6.839l.121,1.459c.659,1.237,2.182,3.276,6.572,4,2.193.36,8.727.524,9.094-4.078" transform="translate(11.182 51.568)" fill="#37474f"/>
        <g id="Grupo_996918" data-name="Grupo 996918" transform="translate(90.522 362.345)" opacity="0.15">
          <g id="Grupo_996917" data-name="Grupo 996917">
            <g id="Grupo_996916" data-name="Grupo 996916" clip-path="url(#clip-path-18)">
              <path id="Trazado_730271" data-name="Trazado 730271" d="M77.519,313.1c2.093-.19,4.342-.895,5.211-2.785.011-.022.028-.039.037-.062a5.315,5.315,0,0,0,1.435,4.459c1.97,2.284,14.428,18.4,14.428,18.4s-11.586-13.286-13.808-15.788c-3.285-3.7-4.325-4.127-7.315-4.217l.011,0" transform="translate(-77.508 -310.252)"/>
            </g>
          </g>
        </g>
        <g id="Grupo_996936" data-name="Grupo 996936" transform="translate(91.952 368.724)">
          <g id="Grupo_996935" data-name="Grupo 996935">
            <g id="Grupo_996934" data-name="Grupo 996934" clip-path="url(#clip-path-19)">
              <g id="Grupo_996921" data-name="Grupo 996921" opacity="0.15">
                <g id="Grupo_996920" data-name="Grupo 996920">
                  <g id="Grupo_996919" data-name="Grupo 996919" clip-path="url(#clip-path-20)">
                    <path id="Trazado_730272" data-name="Trazado 730272" d="M80.069,316.454a.671.671,0,1,1-.6-.737.669.669,0,0,1,.6.737" transform="translate(-78.733 -315.714)"/>
                  </g>
                </g>
              </g>
              <g id="Grupo_996924" data-name="Grupo 996924" transform="translate(3.252 3.56)" opacity="0.15">
                <g id="Grupo_996923" data-name="Grupo 996923">
                  <g id="Grupo_996922" data-name="Grupo 996922" clip-path="url(#clip-path-21)">
                    <path id="Trazado_730273" data-name="Trazado 730273" d="M82.853,319.5a.67.67,0,1,1-.6-.737.669.669,0,0,1,.6.737" transform="translate(-81.517 -318.762)"/>
                  </g>
                </g>
              </g>
              <g id="Grupo_996927" data-name="Grupo 996927" transform="translate(6.503 7.121)" opacity="0.15">
                <g id="Grupo_996926" data-name="Grupo 996926">
                  <g id="Grupo_996925" data-name="Grupo 996925" clip-path="url(#clip-path-20)">
                    <path id="Trazado_730274" data-name="Trazado 730274" d="M85.638,322.552a.67.67,0,1,1-.6-.737.669.669,0,0,1,.6.737" transform="translate(-84.301 -321.811)"/>
                  </g>
                </g>
              </g>
              <g id="Grupo_996930" data-name="Grupo 996930" transform="translate(9.755 10.681)" opacity="0.15">
                <g id="Grupo_996929" data-name="Grupo 996929">
                  <g id="Grupo_996928" data-name="Grupo 996928" clip-path="url(#clip-path-20)">
                    <path id="Trazado_730275" data-name="Trazado 730275" d="M88.422,325.6a.671.671,0,1,1-.6-.737.671.671,0,0,1,.6.737" transform="translate(-87.085 -324.859)"/>
                  </g>
                </g>
              </g>
              <g id="Grupo_996933" data-name="Grupo 996933" transform="translate(13.007 14.242)" opacity="0.15">
                <g id="Grupo_996932" data-name="Grupo 996932">
                  <g id="Grupo_996931" data-name="Grupo 996931" clip-path="url(#clip-path-20)">
                    <path id="Trazado_730276" data-name="Trazado 730276" d="M91.206,328.648a.67.67,0,1,1-.6-.737.669.669,0,0,1,.6.737" transform="translate(-89.869 -327.908)"/>
                  </g>
                </g>
              </g>
            </g>
          </g>
        </g>
        <path id="Trazado_730277" data-name="Trazado 730277" d="M79.325,317.022a.27.27,0,0,1-.169-.461c.134-.133,3.345-3.258,7.563-3.034h.006a.27.27,0,0,1-.035.538c-3.983-.211-7.124,2.849-7.155,2.879a.27.27,0,0,1-.21.077" transform="translate(13.277 52.641)" fill="#263238"/>
        <path id="Trazado_730278" data-name="Trazado 730278" d="M82.111,320.06a.269.269,0,0,1-.169-.46c.134-.134,3.344-3.26,7.563-3.035h.006a.27.27,0,0,1-.035.538c-3.977-.211-7.124,2.849-7.155,2.879a.27.27,0,0,1-.21.077" transform="translate(13.745 53.151)" fill="#263238"/>
        <path id="Trazado_730279" data-name="Trazado 730279" d="M84.894,323.119a.27.27,0,0,1-.169-.461c.134-.133,3.344-3.258,7.563-3.034h.006a.27.27,0,0,1-.035.538c-3.977-.213-7.124,2.849-7.155,2.879a.27.27,0,0,1-.21.077" transform="translate(14.212 53.665)" fill="#263238"/>
        <path id="Trazado_730280" data-name="Trazado 730280" d="M87.678,326.168a.269.269,0,0,1-.169-.46c.134-.134,3.344-3.261,7.563-3.035h.006a.27.27,0,0,1-.035.538c-3.977-.211-7.124,2.85-7.155,2.88a.27.27,0,0,1-.21.077" transform="translate(14.68 54.177)" fill="#263238"/>
        <path id="Trazado_730281" data-name="Trazado 730281" d="M90.462,329.216a.269.269,0,0,1-.169-.46c.134-.134,3.344-3.26,7.563-3.035h.006a.27.27,0,0,1-.035.538c-3.977-.211-7.124,2.849-7.156,2.879a.266.266,0,0,1-.209.077" transform="translate(15.147 54.689)" fill="#263238"/>
        <path id="Trazado_730282" data-name="Trazado 730282" d="M32.891,348.1c-.934,5.239-2.171,8.639-4.411,11.511s-6.265,3.2-9.25,2.572c-4.2-.882-8.331-3.8-9.937-9.808-.967-3.615-.3-7.755,1.093-12.551Z" transform="translate(1.484 57.059)" fill="#263238"/>
        <path id="Trazado_730283" data-name="Trazado 730283" d="M21.144,312.46c-1.487-.06-2.764,6.972-4.459,13.964-1.815,7.494-4.647,11.47-6.015,16.5-1.894,6.981-1.781,10.238.2,14.841s12.3,10.22,17.382,4.572c4.147-4.605,4.958-10.163,5.481-17.313A181.678,181.678,0,0,1,35.56,326.89c.923-5.3,1.9-10.422.7-11.169-.193.772-.406,1.754-.6,2.51-.149.582-.641,3.451-1.469,3.38a11.112,11.112,0,0,1,.222-2.011,2.4,2.4,0,0,0-.2-1.767,2.788,2.788,0,0,0-1.549-.925,42.243,42.243,0,0,0-4.3-1.2,22.084,22.084,0,0,0-2.2-.355,24.742,24.742,0,0,0-3.881-.3,1.321,1.321,0,0,0-.884.628,2.341,2.341,0,0,0-.174.8,5.887,5.887,0,0,1-.359,1.44c-.078.2-.255.443-.459.367-.166-.062-.209-.283-.189-.459.1-.86.28-1.473.439-2.467.074-.46.224-1.08.285-1.544s.119-.911.2-1.363" transform="translate(1.564 52.464)" fill="#37474f"/>
        <g id="Grupo_996939" data-name="Grupo 996939" transform="translate(17.415 397.39)" opacity="0.15">
          <g id="Grupo_996938" data-name="Grupo 996938">
            <g id="Grupo_996937" data-name="Grupo 996937" clip-path="url(#clip-path-25)">
              <path id="Trazado_730284" data-name="Trazado 730284" d="M14.924,340.664a.519.519,0,1,0,.619-.394.519.519,0,0,0-.619.394" transform="translate(-14.911 -340.258)"/>
            </g>
          </g>
        </g>
        <g id="Grupo_996942" data-name="Grupo 996942" transform="translate(18.494 392.534)" opacity="0.15">
          <g id="Grupo_996941" data-name="Grupo 996941">
            <g id="Grupo_996940" data-name="Grupo 996940" clip-path="url(#clip-path-25)">
              <path id="Trazado_730285" data-name="Trazado 730285" d="M15.848,336.507a.519.519,0,1,0,.619-.394.519.519,0,0,0-.619.394" transform="translate(-15.835 -336.1)"/>
            </g>
          </g>
        </g>
        <g id="Grupo_996945" data-name="Grupo 996945" transform="translate(19.513 387.952)" opacity="0.15">
          <g id="Grupo_996944" data-name="Grupo 996944">
            <g id="Grupo_996943" data-name="Grupo 996943" clip-path="url(#clip-path-25)">
              <path id="Trazado_730286" data-name="Trazado 730286" d="M16.72,332.583a.519.519,0,1,0,.619-.394.519.519,0,0,0-.619.394" transform="translate(-16.707 -332.177)"/>
            </g>
          </g>
        </g>
        <g id="Grupo_996948" data-name="Grupo 996948" transform="translate(20.517 383.433)" opacity="0.15">
          <g id="Grupo_996947" data-name="Grupo 996947">
            <g id="Grupo_996946" data-name="Grupo 996946" clip-path="url(#clip-path-25)">
              <path id="Trazado_730287" data-name="Trazado 730287" d="M17.58,328.714a.519.519,0,1,0,.619-.394.519.519,0,0,0-.619.394" transform="translate(-17.567 -328.308)"/>
            </g>
          </g>
        </g>
        <g id="Grupo_996951" data-name="Grupo 996951" transform="translate(32.092 385.548)" opacity="0.15">
          <g id="Grupo_996950" data-name="Grupo 996950">
            <g id="Grupo_996949" data-name="Grupo 996949" clip-path="url(#clip-path-25)">
              <path id="Trazado_730288" data-name="Trazado 730288" d="M27.491,330.525a.519.519,0,1,0,.619-.394.519.519,0,0,0-.619.394" transform="translate(-27.478 -330.119)"/>
            </g>
          </g>
        </g>
        <g id="Grupo_996954" data-name="Grupo 996954" transform="translate(31.081 390.098)" opacity="0.15">
          <g id="Grupo_996953" data-name="Grupo 996953">
            <g id="Grupo_996952" data-name="Grupo 996952" clip-path="url(#clip-path-25)">
              <path id="Trazado_730289" data-name="Trazado 730289" d="M26.625,334.421a.519.519,0,1,0,.619-.394.519.519,0,0,0-.619.394" transform="translate(-26.613 -334.014)"/>
            </g>
          </g>
        </g>
        <g id="Grupo_996957" data-name="Grupo 996957" transform="translate(30.062 394.681)" opacity="0.15">
          <g id="Grupo_996956" data-name="Grupo 996956">
            <g id="Grupo_996955" data-name="Grupo 996955" clip-path="url(#clip-path-25)">
              <path id="Trazado_730290" data-name="Trazado 730290" d="M25.753,338.345a.519.519,0,1,0,.619-.394.519.519,0,0,0-.619.394" transform="translate(-25.74 -337.939)"/>
            </g>
          </g>
        </g>
        <g id="Grupo_996960" data-name="Grupo 996960" transform="translate(28.983 399.54)" opacity="0.15">
          <g id="Grupo_996959" data-name="Grupo 996959">
            <g id="Grupo_996958" data-name="Grupo 996958" clip-path="url(#clip-path-25)">
              <path id="Trazado_730291" data-name="Trazado 730291" d="M24.829,342.505a.519.519,0,1,0,.619-.394.519.519,0,0,0-.619.394" transform="translate(-24.816 -342.099)"/>
            </g>
          </g>
        </g>
        <g id="Grupo_996963" data-name="Grupo 996963" transform="translate(24.383 367.658)" opacity="0.15">
          <g id="Grupo_996962" data-name="Grupo 996962">
            <g id="Grupo_996961" data-name="Grupo 996961" clip-path="url(#clip-path-33)">
              <path id="Trazado_730292" data-name="Trazado 730292" d="M20.878,348.891l8.042-33.825-1.9-.265Z" transform="translate(-20.878 -314.801)"/>
            </g>
          </g>
        </g>
        <path id="Trazado_730293" data-name="Trazado 730293" d="M15.34,341.009a.227.227,0,0,0,.079,0c3.494-.349,9.263.691,11.407,2.075a.263.263,0,0,0,.285-.443c-2.272-1.467-8.088-2.523-11.743-2.156a.263.263,0,0,0-.028.52" transform="translate(2.541 57.158)" fill="#263238"/>
        <path id="Trazado_730294" data-name="Trazado 730294" d="M16.263,336.884a.26.26,0,0,0,.137-.008c2.746-.92,8.9.508,11.351,2.088a.263.263,0,0,0,.285-.443c-2.554-1.649-8.909-3.117-11.8-2.144a.263.263,0,0,0,.029.507" transform="translate(2.696 56.427)" fill="#263238"/>
        <path id="Trazado_730295" data-name="Trazado 730295" d="M17.136,332.96a.266.266,0,0,0,.138-.008c2.745-.919,8.9.508,11.349,2.087a.258.258,0,0,0,.363-.078.261.261,0,0,0-.078-.363c-2.551-1.651-8.905-3.117-11.8-2.144a.263.263,0,0,0,.029.507" transform="translate(2.842 55.769)" fill="#263238"/>
        <path id="Trazado_730296" data-name="Trazado 730296" d="M18,329.091a.265.265,0,0,0,.138-.008c2.745-.92,8.9.509,11.35,2.088a.263.263,0,0,0,.285-.443c-2.554-1.648-8.906-3.116-11.8-2.144a.263.263,0,0,0,.029.507" transform="translate(2.986 55.119)" fill="#263238"/>
        <path id="Trazado_730297" data-name="Trazado 730297" d="M29.524,164.813C26.086,208.4,22.7,268.483,22.7,268.483c-.308,3.31-3.491,17.436-5.089,33.764-1.686,17.225-3.058,49.484-3.058,49.484s12.049,6.48,21.809,3.225c0,0,10.463-54.333,15.469-74.634C56.572,261.11,63.978,224.7,63.978,224.7l5.05,36.029s-.672,12.423-.3,21.115c.429,10.109,6.881,58.7,6.881,58.7s13.1,7.719,23.24-.047c0,0,1.754-67.01,2.038-79.171.559-23.856-2.227-70.094-3.1-100.892Z" transform="translate(2.444 26.937)" fill="#263238"/>
        <path id="Trazado_730298" data-name="Trazado 730298" d="M44.178,207.763q-1.365,15.669-3.046,31.309-.822,7.822-1.713,15.635l-.886,7.814-.458,3.9c-.145,1.3-.41,2.588-.608,3.883-1.719,10.342-4.366,29.124-6.241,39.44s-3.869,20.612-6,30.881q2.037-15.6,4.471-31.121c1.615-10.351,4.144-29.144,5.915-39.469.206-1.294.48-2.576.629-3.877l.479-3.9.985-7.795q.986-7.794,2.033-15.581,2.074-15.578,4.444-31.124" transform="translate(4.235 34.885)"/>
        <path id="Trazado_730299" data-name="Trazado 730299" d="M82.786,205.229c1.093,9.745,1.672,19.543,2.091,29.335.381,9.777.8,19.62.436,29.41-.234,9.8-.492,26.218-.86,36.011q-.513,14.691-1.4,29.372-.229-14.7-.091-29.394c.065-9.794.242-26.211.443-36l.185-7.344.046-1.835-.021-1.82-.041-3.671-.18-14.686-.239-14.686c-.055-4.9-.213-9.791-.371-14.69" transform="translate(13.9 34.459)"/>
        <path id="Trazado_730300" data-name="Trazado 730300" d="M56.873,219.921l4.257-23.872s11.83-1.723,17.893-7.167c0,0-3.911,7.2-15.068,10.018l-4.231,21.09,2.2,35.96Z" transform="translate(9.549 31.714)"/>
        <path id="Trazado_730301" data-name="Trazado 730301" d="M71.348,92.818c10.9,3.444,17.229,5.954,21.57,14.565C98.545,118.546,107.659,140,107.659,140l31.268,2.632-6.1,15.152s-14.531,2.025-30.834,3c-10.3.618-11.673-1.695-14.58-8.333s-12.1-26.941-12.1-26.941Z" transform="translate(11.98 15.585)" fill="#37474f"/>
        <path id="Trazado_730302" data-name="Trazado 730302" d="M46.349,88.954c-11.556,3.979-20.612,7.327-29.576,12.62a257.032,257.032,0,0,0,5.861,36.957c1.036,4.252,4.46,15.976,5.242,25.021,1.056,12.2.79,17.676,0,28.266,0,0,14.226,9.976,43.973,6.93C95.2,196.358,98.01,187.662,98.01,187.662s-1.473-39-2.544-56.239c-1.407-22.646-3.507-31.43-8.666-35.253-3.337-2.472-20.608-6.886-20.608-6.886Z" transform="translate(2.816 14.936)" fill="#455a64"/>
        <path id="Trazado_730303" data-name="Trazado 730303" d="M43.655,112.7a4.492,4.492,0,0,1,1.329.12,3.481,3.481,0,0,1,.965.4,2.051,2.051,0,0,1,.6.551,1.418,1.418,0,0,1,.252.586.2.2,0,0,1-.07.192.33.33,0,0,1-.209.084l-.77.04a.5.5,0,0,1-.285-.048.709.709,0,0,1-.181-.162,1.417,1.417,0,0,0-.534-.4,2.233,2.233,0,0,0-1.022-.133,2.76,2.76,0,0,0-.554.082,1.708,1.708,0,0,0-.455.18.885.885,0,0,0-.3.267.533.533,0,0,0-.093.342.606.606,0,0,0,.131.367.855.855,0,0,0,.378.228,4.138,4.138,0,0,0,.686.155c.281.044.631.093,1.045.149a7.853,7.853,0,0,1,1.167.231,2.78,2.78,0,0,1,.808.364,1.534,1.534,0,0,1,.482.521,1.64,1.64,0,0,1,.194.7,1.6,1.6,0,0,1-.166.827,1.971,1.971,0,0,1-.584.689,3.425,3.425,0,0,1-.978.5,5.46,5.46,0,0,1-1.343.26,5.275,5.275,0,0,1-1.219-.042,3.833,3.833,0,0,1-1.059-.311,2.337,2.337,0,0,1-.771-.563,1.471,1.471,0,0,1-.361-.781.209.209,0,0,1,.075-.2.362.362,0,0,1,.222-.09l.807-.054a.615.615,0,0,1,.3.04.479.479,0,0,1,.182.168,1.9,1.9,0,0,0,.21.245,1.011,1.011,0,0,0,.322.208,1.989,1.989,0,0,0,.492.131,3.4,3.4,0,0,0,.721.013,4.539,4.539,0,0,0,.648-.09,2.12,2.12,0,0,0,.536-.186,1.155,1.155,0,0,0,.361-.281.53.53,0,0,0,.12-.388.451.451,0,0,0-.178-.342,1.312,1.312,0,0,0-.486-.2,7.6,7.6,0,0,0-.8-.138q-.478-.058-1.107-.159a6.711,6.711,0,0,1-1.014-.221,2.458,2.458,0,0,1-.736-.362,1.507,1.507,0,0,1-.455-.541,1.986,1.986,0,0,1-.187-.766,1.549,1.549,0,0,1,.182-.839,2.024,2.024,0,0,1,.593-.676,3.234,3.234,0,0,1,.927-.462,4.388,4.388,0,0,1,1.171-.2" transform="translate(6.841 18.923)" fill="#fff"/>
        <path id="Trazado_730304" data-name="Trazado 730304" d="M52.327,117.848a.283.283,0,0,1,.2.062.241.241,0,0,1,.093.173l.046.668a.241.241,0,0,1-.069.186.283.283,0,0,1-.19.091l-4.6.35a.289.289,0,0,1-.21-.062.23.23,0,0,1-.1-.178l-.406-6.226a.232.232,0,0,1,.074-.186.29.29,0,0,1,.2-.085l4.51-.19a.292.292,0,0,1,.2.067.245.245,0,0,1,.095.174l.046.665a.233.233,0,0,1-.07.182.278.278,0,0,1-.189.084l-3.361.162.1,1.519,3.138-.176a.285.285,0,0,1,.2.064.239.239,0,0,1,.095.173l.046.668a.232.232,0,0,1-.07.183.278.278,0,0,1-.189.089l-3.138.2.105,1.59Z" transform="translate(7.907 18.881)" fill="#fff"/>
        <path id="Trazado_730305" data-name="Trazado 730305" d="M57.075,116.6a.262.262,0,0,1,.088-.185.3.3,0,0,1,.174-.071l.775-.05a.291.291,0,0,1,.19.056.2.2,0,0,1,.084.173,2.2,2.2,0,0,1-.141.758,1.952,1.952,0,0,1-.461.71,2.755,2.755,0,0,1-.841.558,3.836,3.836,0,0,1-1.28.293,3.5,3.5,0,0,1-1.217-.1,2.59,2.59,0,0,1-.934-.465,2.352,2.352,0,0,1-.635-.775,3.16,3.16,0,0,1-.319-1.022c-.03-.235-.055-.5-.075-.783s-.032-.549-.034-.786a3.125,3.125,0,0,1,.175-1.048,2.287,2.287,0,0,1,.522-.84A2.53,2.53,0,0,1,54,112.46a3.517,3.517,0,0,1,1.189-.239,3.877,3.877,0,0,1,1.306.138,2.81,2.81,0,0,1,.91.452,2.007,2.007,0,0,1,.559.649,2.307,2.307,0,0,1,.248.728.189.189,0,0,1-.057.18.276.276,0,0,1-.181.078l-.774.042a.314.314,0,0,1-.187-.05.256.256,0,0,1-.119-.171.964.964,0,0,0-.161-.349,1.166,1.166,0,0,0-.312-.3,1.575,1.575,0,0,0-.481-.2,2.288,2.288,0,0,0-.669-.056,1.833,1.833,0,0,0-.66.142,1.388,1.388,0,0,0-.459.319,1.233,1.233,0,0,0-.266.459,1.775,1.775,0,0,0-.086.552c0,.236.015.5.035.78s.044.544.075.778a1.756,1.756,0,0,0,.162.544,1.268,1.268,0,0,0,.329.42,1.411,1.411,0,0,0,.5.263,1.823,1.823,0,0,0,.676.064,2.255,2.255,0,0,0,.658-.134,1.626,1.626,0,0,0,.454-.257,1.062,1.062,0,0,0,.272-.333.95.95,0,0,0,.11-.364" transform="translate(8.807 18.842)" fill="#fff"/>
        <path id="Trazado_730306" data-name="Trazado 730306" d="M63.15,111.977a.241.241,0,0,1,.174.062.234.234,0,0,1,.084.162l.274,3.582a2.81,2.81,0,0,1-.084.992,2,2,0,0,1-.424.791,2.143,2.143,0,0,1-.77.55,3.368,3.368,0,0,1-1.121.26,3.436,3.436,0,0,1-1.167-.086,2.254,2.254,0,0,1-.868-.437,2.015,2.015,0,0,1-.557-.739,2.93,2.93,0,0,1-.238-1l-.271-3.686a.228.228,0,0,1,.062-.174.242.242,0,0,1,.173-.078l.754-.032a.251.251,0,0,1,.182.063.235.235,0,0,1,.086.166l.269,3.617a1.716,1.716,0,0,0,.148.619,1.106,1.106,0,0,0,.319.406,1.134,1.134,0,0,0,.459.21,1.983,1.983,0,0,0,.565.036,2.017,2.017,0,0,0,.554-.114,1.059,1.059,0,0,0,.673-.71,1.63,1.63,0,0,0,.056-.624l-.271-3.561a.223.223,0,0,1,.06-.171.228.228,0,0,1,.165-.076Z" transform="translate(9.769 18.802)" fill="#fff"/>
        <path id="Trazado_730307" data-name="Trazado 730307" d="M66.23,111.833a2.388,2.388,0,0,1,1.639.422,1.807,1.807,0,0,1,.651,1.335,1.9,1.9,0,0,1-.193,1.069,1.623,1.623,0,0,1-.772.7l1.321,2.022a.224.224,0,0,1,.032.091.18.18,0,0,1-.043.135.175.175,0,0,1-.125.065l-.708.054a.333.333,0,0,1-.255-.062.6.6,0,0,1-.125-.141L66.385,115.6l-1.14.072.159,2.013a.23.23,0,0,1-.057.171.222.222,0,0,1-.159.082l-.7.054a.24.24,0,0,1-.255-.217l-.436-5.609a.218.218,0,0,1,.057-.167.225.225,0,0,1,.161-.076Zm-1.07,2.764,1.242-.071a1.487,1.487,0,0,0,.756-.215.673.673,0,0,0,.235-.662.687.687,0,0,0-.338-.624,1.587,1.587,0,0,0-.781-.124l-1.241.06Z" transform="translate(10.711 18.777)" fill="#fff"/>
        <path id="Trazado_730308" data-name="Trazado 730308" d="M69.326,117.587a.21.21,0,0,1-.161-.056.217.217,0,0,1-.078-.155l-.441-5.43a.214.214,0,0,1,.051-.161.208.208,0,0,1,.151-.074l.659-.027a.219.219,0,0,1,.16.06.234.234,0,0,1,.077.155l.443,5.395a.219.219,0,0,1-.051.164.206.206,0,0,1-.148.079Z" transform="translate(11.526 18.752)" fill="#fff"/>
        <path id="Trazado_730309" data-name="Trazado 730309" d="M74.336,111.5a.2.2,0,0,1,.151.058.222.222,0,0,1,.074.151l.049.573a.21.21,0,0,1-.048.157.191.191,0,0,1-.139.072l-1.385.067.378,4.484a.217.217,0,0,1-.049.16.2.2,0,0,1-.142.078l-.633.048a.2.2,0,0,1-.155-.055.223.223,0,0,1-.075-.152l-.377-4.513-1.427.069a.209.209,0,0,1-.156-.06.228.228,0,0,1-.078-.154l-.048-.589a.212.212,0,0,1,.051-.16.2.2,0,0,1,.146-.072Z" transform="translate(11.799 18.722)" fill="#fff"/>
        <path id="Trazado_730310" data-name="Trazado 730310" d="M78.55,111.323a.184.184,0,0,1,.141.057.219.219,0,0,1,.07.146.157.157,0,0,1-.007.071l-1.43,3.386.153,1.753a.217.217,0,0,1-.046.155.182.182,0,0,1-.134.075l-.591.046a.192.192,0,0,1-.146-.054.216.216,0,0,1-.071-.148l-.153-1.764-2.066-3.251a.181.181,0,0,1-.021-.072.211.211,0,0,1,.047-.155.182.182,0,0,1,.139-.07l.565-.025a.313.313,0,0,1,.231.07.471.471,0,0,1,.1.117l1.4,2.2.989-2.3a.473.473,0,0,1,.077-.123.269.269,0,0,1,.21-.086Z" transform="translate(12.467 18.692)" fill="#fff"/>
        <path id="Trazado_730311" data-name="Trazado 730311" d="M38.657,49.246s-3.441.218-5.747,4.523c-1.16,2.163-2.022,6.123.937,17.514a45.7,45.7,0,0,0,5.3,12.594,5.617,5.617,0,0,0,3.227,2.644l-.118-8.729-.248-6.084s4.958-4.388,5.434-8.751c.614-5.615-1.54-8.828-1.54-8.828Z" transform="translate(5.345 8.269)" fill="#37474f"/>
        <path id="Trazado_730312" data-name="Trazado 730312" d="M42.717,86.732A5.088,5.088,0,0,1,39.08,88.1a3.966,3.966,0,0,1-3.194-1.163,2.837,2.837,0,0,1-.559-1.955,7.766,7.766,0,0,0,1.306-.034A3.662,3.662,0,0,0,39.126,83.8a1.386,1.386,0,0,0-.5-2.259c-1.7-.74-3.712.52-4.387,2.135-1.291-.361-2.273-1.27-1.772-2.847.036-.114.086-.232.137-.35.084.028.166.069.249.092a3.836,3.836,0,0,0,3.1-.443c.626-.4,1.461-1.157,1.156-1.987a1.955,1.955,0,0,0-1.858-1.021,3.81,3.81,0,0,0-2.678,1.1,5.125,5.125,0,0,0-.626.711A3.394,3.394,0,0,1,30.6,75.3a4.634,4.634,0,0,1,1.525-2.15,5.764,5.764,0,0,1,2.349-1.164c.558-.086.135-.793-.256-.828A5.3,5.3,0,0,0,30.976,72.5a5.046,5.046,0,0,0-1.693,3.124,4.554,4.554,0,0,0,2.1,4.258,3.2,3.2,0,0,0,.343,3.665A4.606,4.606,0,0,0,34,84.781a4.184,4.184,0,0,0,3.527,4.265c1.669.333,5.477.478,5.911-1.78.064-.335-.406-.792-.718-.535M35.348,78.25c.8.018.331.485-.105.811a2.466,2.466,0,0,1-2.064.445,2.837,2.837,0,0,1,2.169-1.256m.743,5c.373-.374,1.306-.971,1.873-.753.735.281-.638,1.069-.952,1.166a4.751,4.751,0,0,1-1.355.194,2.556,2.556,0,0,1,.433-.606" transform="translate(4.911 11.946)" fill="#263238"/>
        <path id="Trazado_730313" data-name="Trazado 730313" d="M36.655,51.093c.912-4.894,7.206-10.669,19.214-11.159,9.838-.4,15.548,3.052,18.9,8.827s1,13.174,1,13.174L44.9,59.529Z" transform="translate(6.155 6.7)" fill="#37474f"/>
        <path id="Trazado_730314" data-name="Trazado 730314" d="M34.566,80.193c4.5,2.255,6.6-1.3,6.6-1.3l.453,18c8.533,11.725,31.748,7.817,22.358-1l.034-4.105a27.008,27.008,0,0,0,3.919-.333c4.009-.582,6.561-3.73,7.809-8.05,1.839-6.391,2.662-16.647.382-27.6-.44-2.114-1.321-4.426-3.244-5.406-4.774-2.435-9.26.933-15.986,3.458-2.785,1.046-9.513,1.438-11.275.583,2.3,2.607,2.18,10.751-1.3,14.014a7.529,7.529,0,0,1-1.752,2.223c-1.48,1.257-2.637-2.046-3.852-3.348a5.041,5.041,0,0,0-7.866,1.707,8.212,8.212,0,0,0,3.719,11.15" transform="translate(5.029 8.322)" fill="#ffa8a7"/>
        <path id="Trazado_730315" data-name="Trazado 730315" d="M39.392,70.544a2.621,2.621,0,1,1-2.753-2.483,2.621,2.621,0,0,1,2.753,2.483" transform="translate(5.734 11.427)" fill="#263238"/>
        <path id="Trazado_730316" data-name="Trazado 730316" d="M39.165,66.462a5.724,5.724,0,0,0-1.271-2.054,2.666,2.666,0,0,0-2.115-.6c-.037.008-.068.095-.028.117.294.159.51.237.8.426a4.822,4.822,0,0,1,.841.639,3.089,3.089,0,0,1,.545.792,3.642,3.642,0,0,1,.361,1.1,3.34,3.34,0,0,1-.164,1.738,2.858,2.858,0,0,1-.452.847,2.991,2.991,0,0,0-.545.672c-.142.34.343.883.7.67a3.932,3.932,0,0,0,1.327-4.34" transform="translate(6 10.706)" fill="#263238"/>
        <path id="Trazado_730317" data-name="Trazado 730317" d="M53.4,59.3l-4.442,1.865A2.528,2.528,0,0,1,50.3,57.928,2.351,2.351,0,0,1,53.4,59.3" transform="translate(8.192 9.696)" fill="#37474f"/>
        <path id="Trazado_730318" data-name="Trazado 730318" d="M67.773,59.9,63.128,58.5a2.329,2.329,0,0,1,2.944-1.664,2.55,2.55,0,0,1,1.7,3.072" transform="translate(10.6 9.525)" fill="#37474f"/>
        <path id="Trazado_730319" data-name="Trazado 730319" d="M50.518,63.46a1.963,1.963,0,1,0,1.917-2.008,1.962,1.962,0,0,0-1.917,2.008" transform="translate(8.482 10.318)" fill="#263238"/>
        <path id="Trazado_730320" data-name="Trazado 730320" d="M63.027,62.993a1.963,1.963,0,1,0,1.917-2.008,1.787,1.787,0,0,0-1.917,2.008" transform="translate(10.583 10.24)" fill="#263238"/>
        <path id="Trazado_730321" data-name="Trazado 730321" d="M56.724,59.509l1.463,12.513,6.63-2.354a29.278,29.278,0,0,0-8.094-10.158" transform="translate(9.524 9.992)" fill="#f28f8f"/>
        <path id="Trazado_730322" data-name="Trazado 730322" d="M42.744,65.032c.743,8.537,3.713,9.014,6.77,9.393,4.049.5,5.953-1.752,13.149-2.035,4.367-.172,5.786,1.072,8.308,1.995,1.865.682,3.351.4,3.986-1.274a28.689,28.689,0,0,0,1.015-9.294,68.77,68.77,0,0,1,.2,14.034c-.438,4.044-1.766,7.542-3.916,9.511-2.976,2.726-9.361,4.039-17.48,2.58-8-1.438-11.289-4.68-12.369-7.484-3.5-9.1-2.44-13.513-3.564-15.214s3.9-2.212,3.9-2.212" transform="translate(6.494 10.715)" fill="#37474f"/>
        <path id="Trazado_730323" data-name="Trazado 730323" d="M59.255,73.389c-4.113.076-5.427.875-5.514,3.7-.124,4.039.131,5.388,1.676,5.537,1.823.175,3.158.234,3.177-.911a4.508,4.508,0,0,0-.363-2.572c-.668-.743-.45-.865,1.357-.9,1.87-.03,1.8.287,1.282.864-.375.423-.287,1.806-.252,2.6.039.871.245,1.2,2.829.848,2.255-.306,1.8-2.107,1.62-5.565-.12-2.329-1.156-3.686-5.812-3.6" transform="translate(9.019 12.322)" fill="#ffa8a7"/>
        <path id="Trazado_730324" data-name="Trazado 730324" d="M55.152,74.055l6.727.659a3.32,3.32,0,0,1-3.61,3.137,3.54,3.54,0,0,1-3.117-3.8" transform="translate(9.259 12.434)" fill="#b16668"/>
        <path id="Trazado_730325" data-name="Trazado 730325" d="M56.052,74.894a3.7,3.7,0,0,0-.812.1,3.492,3.492,0,0,0,3.013,2.712,3.249,3.249,0,0,0,1.079-.09,3.1,3.1,0,0,0-3.281-2.726" transform="translate(9.275 12.575)" fill="#f28f8f"/>
        <path id="Trazado_730326" data-name="Trazado 730326" d="M127.175,124.6a2.857,2.857,0,1,1-2.485-3.186,2.857,2.857,0,0,1,2.485,3.186" transform="translate(20.398 20.382)" fill="#455a64"/>
        <path id="Trazado_730327" data-name="Trazado 730327" d="M126.1,123.718c-.487-.368-1.313.1-1.757.742-.4.582-.469,1.307-.028,1.634,1.056.786,4.477,3.379,4.477,3.379l3.172-1.345Z" transform="translate(20.822 20.751)" fill="#37474f"/>
        <path id="Trazado_730328" data-name="Trazado 730328" d="M139.7,121.488c-1-.743-2.533-.855-4.475-.167-4.527,1.6-9.516,6.932-11.144,11.9-.9,2.735-.58,4.785.634,5.813l-.682,2.084c-.072.218-.043.382.06.458.077.056.48.36.48.36l-5.537,18.856c-.181.617-.088,1.07.209,1.285.231.167,2.632,1.983,2.916,2.2a1.1,1.1,0,0,0,1.043.044l3.7-1.566a4.791,4.791,0,0,0,2.537-2.638l7.053-19.551.264-.093a1.61,1.61,0,0,0,.86-.918l.683-2.085a20.748,20.748,0,0,0,5.107-7.845c.924-2.817.564-4.906-.745-5.9-.5-.376-2.453-1.86-2.961-2.239" transform="translate(19.971 20.294)" fill="#06d1d1"/>
        <g id="Grupo_996966" data-name="Grupo 996966" transform="translate(141.845 143.368)" opacity="0.3">
          <g id="Grupo_996965" data-name="Grupo 996965">
            <g id="Grupo_996964" data-name="Grupo 996964" clip-path="url(#clip-path-34)">
              <path id="Trazado_730329" data-name="Trazado 730329" d="M142.983,129.306c1.628-4.967-.723-7.694-5.25-6.091s-9.516,6.932-11.144,11.9c-.9,2.735-.582,4.785.634,5.813l-.682,2.082c-.126.383.055.593.4.469l.265-.093-5.667,19.3c-.321,1.1.224,1.676,1.237,1.317l3.7-1.565a4.784,4.784,0,0,0,2.537-2.638l7.053-19.552.265-.093a1.611,1.611,0,0,0,.86-.917l.683-2.086a20.748,20.748,0,0,0,5.107-7.845" transform="translate(-121.452 -122.756)"/>
            </g>
          </g>
        </g>
        <path id="Trazado_730330" data-name="Trazado 730330" d="M133.281,145.348l-9.909,8.753-2.893-2.345-1.446,4.922c-.181.617-.086,1.07.21,1.285.23.167,2.631,1.983,2.916,2.2a1.089,1.089,0,0,0,1.042.046l3.7-1.566a4.791,4.791,0,0,0,2.537-2.638Z" transform="translate(19.971 24.405)" fill="#37474f"/>
        <path id="Trazado_730331" data-name="Trazado 730331" d="M132.859,145.348h0L122.95,154.1l-1.406,4.79c-.192.651-.072,1.122.265,1.321a.535.535,0,0,0,.086.042.74.74,0,0,0,.147.043.879.879,0,0,0,.1.015,1.217,1.217,0,0,0,.2,0c.034,0,.065-.008.1-.014a1.9,1.9,0,0,0,.339-.086l3.7-1.566a4.791,4.791,0,0,0,2.537-2.638Z" transform="translate(20.393 24.405)" fill="#263238"/>
        <g id="Grupo_996969" data-name="Grupo 996969" transform="translate(140.45 161.866)" opacity="0.15">
          <g id="Grupo_996968" data-name="Grupo 996968">
            <g id="Grupo_996967" data-name="Grupo 996967" clip-path="url(#clip-path-35)">
              <path id="Trazado_730332" data-name="Trazado 730332" d="M123.87,138.595l2.894,2.177a.232.232,0,0,0,.169.082c.105.006.154-.011.478-.127l-4.261,14.509-2.892-2.346,4.091-13.934Z" transform="translate(-120.258 -138.595)"/>
            </g>
          </g>
        </g>
        <g id="Grupo_996972" data-name="Grupo 996972" transform="translate(143.962 159.326)" opacity="0.1">
          <g id="Grupo_996971" data-name="Grupo 996971">
            <g id="Grupo_996970" data-name="Grupo 996970" clip-path="url(#clip-path-36)">
              <path id="Trazado_730333" data-name="Trazado 730333" d="M123.988,136.42l2.931,2.213-.682,2.084a.448.448,0,0,0,.022.422l-2.894-2.177q-.163-.137-.06-.458Z" transform="translate(-123.265 -136.42)"/>
            </g>
          </g>
        </g>
        <path id="Trazado_730334" data-name="Trazado 730334" d="M104.739,170.712l19.843-13.523,1.877-6.386-18.912,12.618Z" transform="translate(17.586 25.321)" fill="#263238"/>
        <path id="Trazado_730335" data-name="Trazado 730335" d="M124.56,149.683,105.648,162.3l1.746,1.308,18.912-12.617Z" transform="translate(17.739 25.133)" fill="#455a64"/>
        <path id="Trazado_730336" data-name="Trazado 730336" d="M109.4,159.156a.423.423,0,0,0-.417.018l-17.415,7.379A2.143,2.143,0,0,0,90.55,167.6l-4.338,11.269c-.084.217-.067.374.029.446l1.69,1.267a.429.429,0,0,0,.413-.019l17.416-7.379a2.155,2.155,0,0,0,1.014-1.052l4.338-11.268c.084-.218.067-.375-.029-.446s-1.593-1.194-1.688-1.266" transform="translate(14.467 26.715)" fill="#455a64"/>
        <path id="Trazado_730337" data-name="Trazado 730337" d="M92.67,167.11a1.96,1.96,0,0,0-.432.631L87.9,179.008c-.079.207-.069.356.013.434l-1.674-1.255c-.095-.071-.113-.227-.029-.445l4.338-11.269a1.975,1.975,0,0,1,.432-.63Z" transform="translate(14.466 27.846)" fill="#37474f"/>
        <path id="Trazado_730338" data-name="Trazado 730338" d="M88.1,180.385l17.416-7.379a2.16,2.16,0,0,0,1.014-1.052l4.336-11.268c.158-.408-.041-.6-.444-.427l-17.416,7.379A2.15,2.15,0,0,0,92,168.688l-4.338,11.269c-.158.408.041.6.444.427" transform="translate(14.709 26.898)" fill="#263238"/>
        <path id="Trazado_730339" data-name="Trazado 730339" d="M94.82,168.448l-24.282,5.688-2.38,6.6,23.853-4.99Z" transform="translate(11.444 28.283)" fill="#263238"/>
        <path id="Trazado_730340" data-name="Trazado 730340" d="M70.432,174.318l-1.639-1.351,24.234-5.609,1.686,1.273" transform="translate(11.551 28.1)" fill="#455a64"/>
        <path id="Trazado_730341" data-name="Trazado 730341" d="M107.92,154.486l-3.339,8.659-3,1.27,3.339-8.658Z" transform="translate(17.056 25.939)" fill="#263238"/>
        <path id="Trazado_730342" data-name="Trazado 730342" d="M100.049,157.764l-3.339,8.659-3,1.27,3.339-8.658Z" transform="translate(15.735 26.49)" fill="#263238"/>
        <path id="Trazado_730343" data-name="Trazado 730343" d="M95.443,158.273l-2.921,7.57,1.565,1.309,2.92-7.57Z" transform="translate(15.535 26.575)" fill="#37474f"/>
        <path id="Trazado_730344" data-name="Trazado 730344" d="M103.34,154.926l-2.921,7.57,1.565,1.309,2.92-7.57Z" transform="translate(16.861 26.013)" fill="#37474f"/>
        <path id="Trazado_730345" data-name="Trazado 730345" d="M139.828,115.566a.623.623,0,0,0-.614.026l-51.36,21.762a3.165,3.165,0,0,0-1.494,1.55L72.575,174.71c-.124.321-.1.551.042.659l2.492,1.869a.63.63,0,0,0,.611-.028l51.36-21.762a3.169,3.169,0,0,0,1.494-1.55l13.784-35.807c.125-.322.1-.552-.043-.659-.121-.092-2.349-1.759-2.486-1.866" transform="translate(12.173 19.393)" fill="#455a64"/>
        <path id="Trazado_730346" data-name="Trazado 730346" d="M89.487,136.612a2.878,2.878,0,0,0-.637.93l-13.785,35.8c-.117.3-.1.526.02.641l-2.468-1.851c-.14-.105-.167-.335-.043-.658l13.785-35.807a2.941,2.941,0,0,1,.637-.93Z" transform="translate(12.172 22.624)" fill="#37474f"/>
        <path id="Trazado_730347" data-name="Trazado 730347" d="M75.361,176.94l51.36-21.762a3.174,3.174,0,0,0,1.495-1.551L142,117.822c.232-.6-.061-.885-.654-.632l-51.36,21.762a3.179,3.179,0,0,0-1.495,1.551L74.707,176.31c-.232.6.061.884.654.631" transform="translate(12.53 19.661)" fill="#263238"/>
        <path id="Trazado_730348" data-name="Trazado 730348" d="M86.477,143.848l1.613-4.185a3.659,3.659,0,0,1,1.713-1.779l.82-.352c1.078-.462,1.615.055,1.194,1.15L90.2,142.868a3.662,3.662,0,0,1-1.714,1.779l-.819.35c-1.078.463-1.615-.055-1.194-1.149" transform="translate(14.496 23.064)" fill="#37474f"/>
        <path id="Trazado_730349" data-name="Trazado 730349" d="M87.2,142.73a3.4,3.4,0,0,1,1.626-1.623c.662-.284,1.008-.018.771.6a3.392,3.392,0,0,1-1.626,1.623c-.662.284-1.007.018-.771-.6" transform="translate(14.629 23.674)" fill="#455a64"/>
        <g id="Grupo_996975" data-name="Grupo 996975" transform="translate(102.376 165.265)" opacity="0.2">
          <g id="Grupo_996974" data-name="Grupo 996974">
            <g id="Grupo_996973" data-name="Grupo 996973" clip-path="url(#clip-path-37)">
              <path id="Trazado_730350" data-name="Trazado 730350" d="M87.7,142.393a1.735,1.735,0,0,1,.83-.829c.339-.146.515-.009.395.3a1.735,1.735,0,0,1-.832.83c-.338.145-.514.008-.394-.3" transform="translate(-87.658 -141.505)" fill="#fff"/>
            </g>
          </g>
        </g>
        <path id="Trazado_730351" data-name="Trazado 730351" d="M88.245,140.074a3.4,3.4,0,0,1,1.626-1.623c.662-.284,1.008-.018.771.6a3.392,3.392,0,0,1-1.626,1.623c-.662.284-1.007.018-.771-.6" transform="translate(14.804 23.228)" fill="#455a64"/>
        <g id="Grupo_996978" data-name="Grupo 996978" transform="translate(103.597 162.163)" opacity="0.2">
          <g id="Grupo_996977" data-name="Grupo 996977">
            <g id="Grupo_996976" data-name="Grupo 996976" clip-path="url(#clip-path-37)">
              <path id="Trazado_730352" data-name="Trazado 730352" d="M88.741,139.737a1.742,1.742,0,0,1,.83-.83c.339-.145.515-.008.395.3a1.735,1.735,0,0,1-.832.83c-.338.145-.514.008-.394-.3" transform="translate(-88.703 -138.849)" fill="#fff"/>
            </g>
          </g>
        </g>
        <path id="Trazado_730353" data-name="Trazado 730353" d="M84.841,139.672l-.332-.246a.344.344,0,0,0-.346-.057c-.071.029-.338.144-.409.174a.362.362,0,0,0-.19.211l-1.437,3.731a.655.655,0,0,0,.207.717l.332.245a.343.343,0,0,0,.348.057l.4-.173a.365.365,0,0,0,.193-.211l1.437-3.733a.653.653,0,0,0-.207-.716" transform="translate(13.784 23.397)" fill="#263238"/>
        <path id="Trazado_730354" data-name="Trazado 730354" d="M83.209,144.268l1.437-3.731a.653.653,0,0,0-.206-.717l-.333-.246a.335.335,0,0,0-.542.157l-1.437,3.731a.652.652,0,0,0,.206.717l.333.246a.335.335,0,0,0,.542-.156" transform="translate(13.784 23.421)" fill="#455a64"/>
        <path id="Trazado_730355" data-name="Trazado 730355" d="M82.819,144.91l-.332-.246a.344.344,0,0,0-.346-.057l-.408.174a.359.359,0,0,0-.19.211l-1.437,3.731a.653.653,0,0,0,.206.717l.332.246a.345.345,0,0,0,.348.056l.4-.173a.362.362,0,0,0,.193-.211l1.437-3.731a.655.655,0,0,0-.207-.717" transform="translate(13.444 24.276)" fill="#263238"/>
        <path id="Trazado_730356" data-name="Trazado 730356" d="M81.188,149.506l1.437-3.731a.655.655,0,0,0-.207-.717l-.332-.246a.335.335,0,0,0-.542.156L80.107,148.7a.653.653,0,0,0,.206.717l.333.246a.335.335,0,0,0,.542-.157" transform="translate(13.444 24.301)" fill="#455a64"/>
        <path id="Trazado_730357" data-name="Trazado 730357" d="M67.051,150.074a2.857,2.857,0,1,1-2.485-3.186,2.857,2.857,0,0,1,2.485,3.186" transform="translate(10.302 24.66)" fill="#263238"/>
        <path id="Trazado_730358" data-name="Trazado 730358" d="M65.976,149.195c-.487-.368-1.313.1-1.757.742-.4.58-.469,1.306-.028,1.635,1.056.785,4.477,3.376,4.477,3.376L71.84,153.6Z" transform="translate(10.727 25.029)" fill="#37474f"/>
        <path id="Trazado_730359" data-name="Trazado 730359" d="M79.574,146.965c-1-.743-2.533-.855-4.474-.167-4.528,1.6-9.517,6.932-11.145,11.9-.9,2.735-.58,4.785.634,5.813l-.682,2.084c-.072.22-.043.382.06.458.077.056.48.36.48.36l-5.537,18.856c-.181.617-.088,1.07.209,1.285.231.168,2.632,1.983,2.916,2.2a1.093,1.093,0,0,0,1.043.044l3.7-1.566a4.791,4.791,0,0,0,2.537-2.638l7.053-19.551.264-.093a1.61,1.61,0,0,0,.86-.918l.683-2.085A20.748,20.748,0,0,0,83.28,155.1c.924-2.817.564-4.906-.745-5.9-.5-.376-2.453-1.86-2.961-2.239" transform="translate(9.876 24.571)" fill="#06d1d1"/>
        <g id="Grupo_996981" data-name="Grupo 996981" transform="translate(70.23 191.622)" opacity="0.15">
          <g id="Grupo_996980" data-name="Grupo 996980">
            <g id="Grupo_996979" data-name="Grupo 996979" clip-path="url(#clip-path-39)">
              <path id="Trazado_730360" data-name="Trazado 730360" d="M63.745,164.073l2.894,2.177a.232.232,0,0,0,.169.082c.105.006.155-.011.478-.127l-4.261,14.509-2.892-2.346,4.091-13.934Z" transform="translate(-60.133 -164.073)"/>
            </g>
          </g>
        </g>
        <g id="Grupo_996984" data-name="Grupo 996984" transform="translate(73.742 189.081)" opacity="0.1">
          <g id="Grupo_996983" data-name="Grupo 996983">
            <g id="Grupo_996982" data-name="Grupo 996982" clip-path="url(#clip-path-36)">
              <path id="Trazado_730361" data-name="Trazado 730361" d="M63.863,161.9l2.931,2.213-.682,2.084a.454.454,0,0,0,.022.422l-2.894-2.177q-.163-.137-.06-.458Z" transform="translate(-63.14 -161.897)"/>
            </g>
          </g>
        </g>
        <g id="Grupo_996987" data-name="Grupo 996987" transform="translate(71.625 173.122)" opacity="0.3">
          <g id="Grupo_996986" data-name="Grupo 996986">
            <g id="Grupo_996985" data-name="Grupo 996985" clip-path="url(#clip-path-34)">
              <path id="Trazado_730362" data-name="Trazado 730362" d="M82.86,154.783c1.628-4.967-.723-7.694-5.25-6.091s-9.516,6.932-11.144,11.9c-.9,2.735-.582,4.785.634,5.813l-.683,2.082c-.125.383.056.593.405.469l.264-.093-5.666,19.3c-.322,1.1.224,1.676,1.237,1.317l3.7-1.565a4.79,4.79,0,0,0,2.537-2.639l7.053-19.551.265-.093a1.611,1.611,0,0,0,.86-.917l.683-2.086a20.748,20.748,0,0,0,5.107-7.845" transform="translate(-61.328 -148.233)"/>
            </g>
          </g>
        </g>
        <path id="Trazado_730363" data-name="Trazado 730363" d="M73.156,170.825l-9.909,8.753-2.893-2.345-1.445,4.922c-.181.617-.088,1.07.209,1.285.23.167,2.631,1.983,2.916,2.2a1.093,1.093,0,0,0,1.042.044l3.7-1.566a4.791,4.791,0,0,0,2.537-2.638Z" transform="translate(9.876 28.683)" fill="#37474f"/>
        <path id="Trazado_730364" data-name="Trazado 730364" d="M72.735,170.825h0l-9.909,8.753-1.406,4.79c-.192.651-.071,1.122.265,1.321a.747.747,0,0,0,.086.043.939.939,0,0,0,.147.043.89.89,0,0,0,.1.014,1.217,1.217,0,0,0,.2,0c.034,0,.065-.008.1-.014a1.9,1.9,0,0,0,.339-.086l3.7-1.566a4.791,4.791,0,0,0,2.537-2.638Z" transform="translate(10.298 28.683)" fill="#263238"/>
        <path id="Trazado_730365" data-name="Trazado 730365" d="M28.3,97.157c-10.614,3.674-13.258,4.308-16.366,16.938-2.154,8.749-6.8,30.847-9.229,43.939-2.061,11.122-3.938,15.961,6.721,19.721,13.181,4.649,28.982,6.946,40.943,9.514,12.782,2.743,17.537,4.781,20.354,4.653,3.174-.145,9.474-3.761,12.261-5.27s1.278-2.944,3.037-3.959c2.426-1.4,1.657-2.6,2.026-5.083a5.749,5.749,0,0,0,1.929-3.7c.171-1.349-1.195-2.011-2.113-2.7a8.1,8.1,0,0,1-1.807,3.1,8.273,8.273,0,0,1-3,1.7,11.648,11.648,0,0,1-5.349-.011,7.736,7.736,0,0,1-4.32-2.719,6.236,6.236,0,0,1-1.056-4.734c.385-2,1.189-4.068,1.453-6.121a4.608,4.608,0,0,0-.832-3.755c-.621-.879-1.769-1.266-2.262-.59a21.205,21.205,0,0,0-1.306,2.769,14.154,14.154,0,0,1-1.623,2.824c-1.477,1.669-1.729,1.716-3.66,3.678a9.518,9.518,0,0,1-3.735,2.782c-.846.333-2.649,1.013-7.174-.146-10.292-2.636-27.1-10.748-27.092-10.795l7.533-28.406s3.271-18.824-5.338-33.619" transform="translate(0.186 16.313)" fill="#ffa8a7"/>
        <path id="Trazado_730366" data-name="Trazado 730366" d="M76.6,166.044a6.21,6.21,0,0,1-1.544,1.389,13.071,13.071,0,0,1-1.814,1.011,16.456,16.456,0,0,1-1.932.74,12.328,12.328,0,0,1-2.011.481c1.246-.593,2.5-1.122,3.727-1.692a22.377,22.377,0,0,0,3.574-1.929" transform="translate(11.635 27.88)" fill="#f28f8f"/>
        <path id="Trazado_730367" data-name="Trazado 730367" d="M74.332,170.825a8.726,8.726,0,0,1-1.625,1.219,18.221,18.221,0,0,1-1.783.961c-.611.283-1.227.556-1.863.782a16.4,16.4,0,0,1-1.933.6c1.164-.7,2.371-1.273,3.575-1.853s2.422-1.1,3.629-1.713" transform="translate(11.271 28.683)" fill="#f28f8f"/>
        <path id="Trazado_730368" data-name="Trazado 730368" d="M28.516,95.767c-5.4,1.935-10.676,3.859-13.036,7.086a27.212,27.212,0,0,0-4.467,10.123c-1.55,5.883-4.15,16.649-7.638,34.676s-5.218,24.485-.452,27.677c10.169,6.809,35.21,9.71,35.21,9.71s-2.047-2.9-.356-10.183c1.615-6.95,5.315-8.092,5.315-8.092l-15.5-7.444,8.178-30.256s3.734-20.3-7.249-33.3" transform="translate(0 16.08)" fill="#37474f"/>
        <path id="Trazado_730369" data-name="Trazado 730369" d="M135.853,138.178a15.768,15.768,0,0,1-5.161.594,13.627,13.627,0,0,0-4.806.231c-.554.179-1.536.833-1.587,1.495-.047.6.559.76,1.175,1.055-1.3.395-1.844.93-2.008,1.535a1.052,1.052,0,0,0,.556,1.243,2.326,2.326,0,0,0-.964.708,1.476,1.476,0,0,0-.278,1.253c.147.444.768.78,1.424.994a1.56,1.56,0,0,0-.987,1.3c-.009.424.575.767.93.923,2.346,1.024,3.016,1.5,3.755,1.365a14.35,14.35,0,0,0,3.8-.711c1.428-.59,1.851-1.764,2.9-2.684a3.629,3.629,0,0,0,1.3-1.641,16.233,16.233,0,0,0,.628-2.857,3.985,3.985,0,0,1,.516-1.772c.387-.512,1.011-.843,1.338-1.423a3.447,3.447,0,0,0,.089-2.843,19.154,19.154,0,0,1-.812-1.859c0,.007-.311.906-.461,1.408-.264.876-.533,1.386-1.345,1.688" transform="translate(20.608 22.681)" fill="#ffa8a7"/>
        <path id="Trazado_730370" data-name="Trazado 730370" d="M136.882,140.1a6.627,6.627,0,0,1-1.216.939,4.522,4.522,0,0,1-1.481.509,12.51,12.51,0,0,1-3.08-.025c-2.015-.2-4.026-.427-6.024-.816,2.033-.015,4.056.124,6.074.3a17.97,17.97,0,0,0,2.98.146,5.8,5.8,0,0,0,2.746-1.055" transform="translate(21.002 23.524)" fill="#f28f8f"/>
        <path id="Trazado_730371" data-name="Trazado 730371" d="M135.655,142.49a6.628,6.628,0,0,1-1.216.939,4.522,4.522,0,0,1-1.481.509,12.509,12.509,0,0,1-3.08-.025c-2.015-.2-4.026-.427-6.025-.816,2.035-.015,4.057.124,6.075.3a18.1,18.1,0,0,0,2.98.146,5.786,5.786,0,0,0,2.746-1.055" transform="translate(20.796 23.925)" fill="#f28f8f"/>
        <path id="Trazado_730372" data-name="Trazado 730372" d="M134.23,145.348a17.992,17.992,0,0,1-2.354,1.278,6.048,6.048,0,0,1-2.711.21,17.958,17.958,0,0,1-2.638-.432,14.8,14.8,0,0,1-2.534-.833c1.747.321,3.475.6,5.218.75a7.116,7.116,0,0,0,2.543-.074c.811-.239,1.626-.647,2.477-.9" transform="translate(20.819 24.405)" fill="#f28f8f"/>
      </g>
    </g>
    <g id="Grupo_997003" data-name="Grupo 997003">
      <g id="Grupo_997002" data-name="Grupo 997002" clip-path="url(#clip-path)">
        <path id="Trazado_730373" data-name="Trazado 730373" d="M135.323,224.844v-4.419a55.937,55.937,0,0,1,2.86-16.991v-.016c4.634-14.359,14.391-28.062,25.678-34.577,7.187-4.145,13.749-4.665,18.765-2.172l-9.879-5.689a14.591,14.591,0,0,0-8.213-2.4c-.459,0-.918.015-1.391.062-.474.03-.948.091-1.439.168a12.513,12.513,0,0,0-1.468.274c-.488.107-.994.245-1.5.4a27.558,27.558,0,0,0-3.1,1.147c-.52.229-1.055.489-1.591.75s-1.07.565-1.606.871c-15.752,9.1-28.521,32.192-28.521,51.584v4.419c0,19.392,26.075,40.466,26.075,40.466l10.567,5.965a3.185,3.185,0,0,1-.535-.4c-7.784-7.188-24.7-24.516-24.7-39.441m31.138-40.772a11.114,11.114,0,0,1,.183,1.483c.015.168.03.336.03.52a8.207,8.207,0,0,1,.032.888c0,9.084-6.378,20.156-14.269,24.7-.291.168-.565.322-.856.459-.276.153-.566.276-.841.4s-.55.229-.826.336c-.032.015-.047.015-.077.03,1.224,6.958,7.02,9.39,14.024,5.368,7.876-4.557,14.253-15.614,14.253-24.714,0-8.059-5.016-11.882-11.653-9.466" transform="translate(20.806 26.626)" fill="#ba68c8"/>
        <g id="Grupo_996992" data-name="Grupo 996992" transform="translate(144.721 185.204)" opacity="0.2">
          <g id="Grupo_996991" data-name="Grupo 996991">
            <g id="Grupo_996990" data-name="Grupo 996990" clip-path="url(#clip-path-43)">
              <path id="Trazado_730374" data-name="Trazado 730374" d="M135.323,224.844v-4.419a55.9,55.9,0,0,1,2.86-16.991v-.015c4.633-14.361,14.391-28.064,25.678-34.578,7.187-4.145,13.747-4.665,18.765-2.172l-9.879-5.689a14.6,14.6,0,0,0-8.213-2.4c-.459,0-.918.016-1.392.062-.474.03-.948.091-1.438.168a12.468,12.468,0,0,0-1.468.274c-.489.107-.994.245-1.5.4a27.474,27.474,0,0,0-3.1,1.147c-.521.229-1.056.489-1.591.75s-1.071.565-1.606.871c-15.753,9.1-28.523,32.192-28.523,51.584v4.419c0,19.392,26.076,40.467,26.076,40.467l10.567,5.963a3.185,3.185,0,0,1-.535-.4c-7.785-7.187-24.7-24.516-24.7-39.441" transform="translate(-123.915 -158.578)" fill="#b20d0d"/>
            </g>
          </g>
        </g>
        <g id="Grupo_996995" data-name="Grupo 996995" transform="translate(170.643 209.981)" opacity="0.5">
          <g id="Grupo_996994" data-name="Grupo 996994">
            <g id="Grupo_996993" data-name="Grupo 996993" clip-path="url(#clip-path-44)">
              <path id="Trazado_730375" data-name="Trazado 730375" d="M162.734,180.51a11.114,11.114,0,0,1,.183,1.483c.015.168.03.336.03.52a8.207,8.207,0,0,1,.032.888c0,9.084-6.378,20.156-14.269,24.7-.291.168-.565.322-.856.459-.276.153-.566.276-.841.4s-.55.229-.826.336c-.032.015-.047.015-.077.03,1.224,6.958,7.02,9.39,14.024,5.368,7.876-4.557,14.253-15.614,14.253-24.714,0-8.059-5.016-11.882-11.653-9.466" transform="translate(-146.11 -179.793)"/>
            </g>
          </g>
        </g>
        <path id="Trazado_730376" data-name="Trazado 730376" d="M190.741,186.537c0-19.393-12.772-27.741-28.527-18.644s-28.528,32.192-28.528,51.585v4.415c0,14.934,16.917,32.262,24.7,39.441a3.842,3.842,0,0,0,6.066-1.129c6.72-13.754,26.294-55.189,26.293-71.253ZM162.213,217.3c-7.878,4.548-14.264.861-14.265-8.236s6.387-20.157,14.265-24.7,14.264-.862,14.264,8.235-6.386,20.158-14.264,24.706" transform="translate(22.447 27.572)" fill="#b20d0d"/>
        <path id="Trazado_730377" data-name="Trazado 730377" d="M182.1,166.669l-9.879-5.689a14.591,14.591,0,0,0-8.213-2.4c-.459,0-.918.015-1.391.061s-.948.092-1.438.168a12.492,12.492,0,0,0-1.469.276c-.488.107-.994.245-1.5.4a27.325,27.325,0,0,0-3.1,1.147c-.52.229-1.056.489-1.591.749q-.8.413-1.606.872c-10.652,6.154-19.935,18.709-24.833,32.19l11.408,6.586c4.9-13.471,14.192-26.033,24.85-32.185,7.187-4.144,13.749-4.663,18.765-2.171" transform="translate(21.336 26.626)" fill="#ba68c8"/>
        <g id="Grupo_996998" data-name="Grupo 996998" transform="translate(148.409 185.204)" opacity="0.3">
          <g id="Grupo_996997" data-name="Grupo 996997">
            <g id="Grupo_996996" data-name="Grupo 996996" clip-path="url(#clip-path-45)">
              <path id="Trazado_730378" data-name="Trazado 730378" d="M182.1,166.669l-9.879-5.689a14.591,14.591,0,0,0-8.213-2.4c-.459,0-.918.015-1.391.061s-.948.092-1.438.168a12.492,12.492,0,0,0-1.469.276c-.488.107-.994.245-1.5.4a27.325,27.325,0,0,0-3.1,1.147c-.52.229-1.056.489-1.591.749q-.8.413-1.606.872c-10.652,6.154-19.935,18.709-24.833,32.19l11.408,6.586c4.9-13.471,14.192-26.033,24.85-32.185,7.187-4.144,13.749-4.663,18.765-2.171" transform="translate(-127.073 -158.578)" fill="#b20d0d"/>
            </g>
          </g>
        </g>
        <path id="Trazado_730379" data-name="Trazado 730379" d="M162.242,167.363l-1.691,1.164a18.975,18.975,0,0,0-1.664,1.19c-1.048.876-2.164,1.663-3.125,2.636-1,.924-2.016,1.831-2.923,2.851l-1.4,1.484-1.306,1.568a74.669,74.669,0,0,0-14.608,28.882c-.362,1.313-.565,2.66-.856,3.991-.242,1.34-.371,2.7-.566,4.046-.1,1.356-.2,2.717-.264,4.082l-.124,4.105-.123-4.105c0-1.369.025-2.745.057-4.119.147-1.365.241-2.74.44-4.1.251-1.35.417-2.722.74-4.06A67.52,67.52,0,0,1,149.591,177.8a46.889,46.889,0,0,1,12.651-10.434" transform="translate(22.431 28.101)" fill="#ba68c8"/>
        <g id="Grupo_997001" data-name="Grupo 997001" transform="translate(156.022 195.464)" opacity="0.5">
          <g id="Grupo_997000" data-name="Grupo 997000">
            <g id="Grupo_996999" data-name="Grupo 996999" clip-path="url(#clip-path-46)">
              <path id="Trazado_730380" data-name="Trazado 730380" d="M162.242,167.363l-1.691,1.164a18.975,18.975,0,0,0-1.664,1.19c-1.048.876-2.164,1.663-3.125,2.636-1,.924-2.016,1.831-2.923,2.851l-1.4,1.484-1.306,1.568a74.669,74.669,0,0,0-14.608,28.882c-.362,1.313-.565,2.66-.856,3.991-.242,1.34-.371,2.7-.566,4.046-.1,1.356-.2,2.717-.264,4.082l-.124,4.105-.123-4.105c0-1.369.025-2.745.057-4.119.147-1.365.241-2.74.44-4.1.251-1.35.417-2.722.74-4.06A67.52,67.52,0,0,1,149.591,177.8a46.889,46.889,0,0,1,12.651-10.434" transform="translate(-133.591 -167.363)" fill="#fff"/>
            </g>
          </g>
        </g>
      </g>
    </g>
    <g id="Grupo_997014" data-name="Grupo 997014">
      <g id="Grupo_997013" data-name="Grupo 997013" clip-path="url(#clip-path)">
        <path id="Trazado_730381" data-name="Trazado 730381" d="M138.57.313l-35.953,20.8c-.709.409-1.284,1.4-1.284,3.327V68.381c0-.287.578.7,1.291,1.1l3.7,2.1a2.873,2.873,0,0,0,2.574-.012l35.954-20.8a2.841,2.841,0,0,0,1.282-2.224V4.609A2.8,2.8,0,0,0,144.84,2.4l-3.7-2.1a2.877,2.877,0,0,0-2.574.013" transform="translate(17.015 0)" fill="#ba68c8"/>
        <g id="Grupo_997006" data-name="Grupo 997006" transform="translate(118.347 22.023)" opacity="0.2">
          <g id="Grupo_997005" data-name="Grupo 997005">
            <g id="Grupo_997004" data-name="Grupo 997004" clip-path="url(#clip-path-48)">
              <path id="Trazado_730382" data-name="Trazado 730382" d="M108.894,68.4a2.947,2.947,0,0,1-2.576.015l-3.693-2.1c-.711-.4-1.292-1.387-1.292-1.1V21.272a4.244,4.244,0,0,1,.409-2.415l6.248,3.6c-.237.4-.38.854-.38.158V66.555c0,1.855.528,2.287,1.284,1.849" transform="translate(-101.333 -18.857)" fill="#06d1d1"/>
            </g>
          </g>
        </g>
        <g id="Grupo_997009" data-name="Grupo 997009" transform="translate(118.75)" opacity="0.3">
          <g id="Grupo_997008" data-name="Grupo 997008">
            <g id="Grupo_997007" data-name="Grupo 997007" clip-path="url(#clip-path-49)">
              <path id="Trazado_730383" data-name="Trazado 730383" d="M146.056,4.377c-.1-.646-.628-.877-1.268-.51l-35.948,20.8a2.627,2.627,0,0,0-.907.96l-6.254-3.6a2.572,2.572,0,0,1,.884-.912L138.516.311A2.871,2.871,0,0,1,141.089.3l3.693,2.1a2.829,2.829,0,0,1,1.274,1.98" transform="translate(-101.678 0)" fill="#06d1d1"/>
            </g>
          </g>
        </g>
        <path id="Trazado_730384" data-name="Trazado 730384" d="M98.022,49.723c-.806-.48-5.543-3.139-5.738-3.253a1.2,1.2,0,0,1-.256-1.831l10.92-12.519,6.276,3.6L97.8,47.923a1.211,1.211,0,0,0,.218,1.8" transform="translate(15.399 5.393)" fill="#ba68c8"/>
        <g id="Grupo_997012" data-name="Grupo 997012" transform="translate(107.109 37.513)" opacity="0.3">
          <g id="Grupo_997011" data-name="Grupo 997011">
            <g id="Grupo_997010" data-name="Grupo 997010" clip-path="url(#clip-path-50)">
              <path id="Trazado_730385" data-name="Trazado 730385" d="M98.022,49.723c-.806-.48-5.543-3.139-5.738-3.253a1.2,1.2,0,0,1-.256-1.831l10.92-12.519,6.276,3.6L97.8,47.923a1.211,1.211,0,0,0,.218,1.8" transform="translate(-91.711 -32.12)" fill="#06d1d1"/>
            </g>
          </g>
        </g>
        <path id="Trazado_730386" data-name="Trazado 730386" d="M145.637,3.337l-35.953,20.8a2.837,2.837,0,0,0-1.284,2.223v14.23l-11.424,12.2a1.151,1.151,0,0,0,.733,1.968l10.691-.78h0V70.3c0,.818.575,1.149,1.284.74l35.953-20.8a2.835,2.835,0,0,0,1.284-2.223V4.078c0-.818-.575-1.149-1.284-.74" transform="translate(16.225 0.531)" fill="#06d1d1"/>
        <path id="Trazado_730387" data-name="Trazado 730387" d="M136.41,13.856a3.2,3.2,0,0,0-4.182,1.705L120.155,44.286l-2.875-2.8a3.193,3.193,0,1,0-4.451,4.581l6.232,6.058a3.172,3.172,0,0,0,2.225.9,3.225,3.225,0,0,0,.638-.063,3.188,3.188,0,0,0,2.307-1.892l13.885-33.038a3.2,3.2,0,0,0-1.705-4.182" transform="translate(18.783 2.285)" fill="#fafafa"/>
      </g>
    </g>
  </g>
</svg>
