<svg id="Grupo_997284" data-name="Grupo 997284" xmlns="http://www.w3.org/2000/svg" xmlns:xlink="http://www.w3.org/1999/xlink" width="200.338" height="174" viewBox="0 0 200.338 174">
  <defs>
    <clipPath id="clip-path">
      <rect id="Rectángulo_349688" data-name="Rectángulo 349688" width="200.338" height="174" fill="none"/>
    </clipPath>
  </defs>
  <rect id="Rectángulo_349686" data-name="Rectángulo 349686" width="48.357" height="76.853" transform="translate(75.99 74.696)" fill="#bababa"/>
  <g id="Grupo_997283" data-name="Grupo 997283">
    <g id="Grupo_997282" data-name="Grupo 997282" clip-path="url(#clip-path)">
      <path id="Trazado_731722" data-name="Trazado 731722" d="M147.947,42.879H73.067a7.247,7.247,0,0,1-7.247-7.247v-.617a7.248,7.248,0,0,1,7.247-7.248h74.88a7.248,7.248,0,0,1,7.247,7.248v.617a7.247,7.247,0,0,1-7.247,7.247" transform="translate(-10.554 -4.452)" fill="#d8d8da"/>
      <path id="Trazado_731723" data-name="Trazado 731723" d="M127.846,24.611H107.985V9.526A9.525,9.525,0,0,1,117.51,0h.811a9.525,9.525,0,0,1,9.525,9.525Z" transform="translate(-17.315 0)" fill="#bababa"/>
      <path id="Trazado_731724" data-name="Trazado 731724" d="M211.546,121.738A32.317,32.317,0,0,0,187.622,97.86c-9.965-2.393-24.73-5.3-46-8.212l-7.383.591q-1.262-.518-2.548-1.023l-6.476.432a237.141,237.141,0,0,1,21.767,12.842,32.147,32.147,0,0,1,13.979,23.043,264.487,264.487,0,0,1,1.385,40.105h10.363s1.307-22.482-1.774-42.425A32.1,32.1,0,0,0,154.54,99.931c-4.562-2.481-10.132-5.3-16.308-8,9.588,1.94,26.744,5.776,40.882,10.894a32.453,32.453,0,0,1,21.323,27.96,238.832,238.832,0,0,1,.333,32.7l13.816-.432s2.855-16.555-3.04-41.31" transform="translate(-20.077 -14.306)" fill="#4d99bf"/>
      <path id="Trazado_731725" data-name="Trazado 731725" d="M87.984,90.5l-7.383-.59c-21.273,2.909-36.037,5.818-46,8.211a32.321,32.321,0,0,0-23.924,23.878c-5.9,24.756-3.04,41.31-3.04,41.31l13.816.432a238.566,238.566,0,0,1,.333-32.7A32.449,32.449,0,0,1,43.105,103.08C57.243,97.962,74.4,94.126,83.988,92.186c-6.176,2.7-11.747,5.521-16.309,8A32.1,32.1,0,0,0,51.288,123.47c-3.082,19.944-1.774,42.426-1.774,42.426H59.876a264.491,264.491,0,0,1,1.385-40.106A32.144,32.144,0,0,1,75.24,102.748,236.918,236.918,0,0,1,97.007,89.905l-6.476-.432q-1.287.5-2.548,1.023" transform="translate(-1.113 -14.347)" fill="#4d99bf"/>
      <rect id="Rectángulo_349687" data-name="Rectángulo 349687" width="8.635" height="73.832" transform="translate(96.283 75.127)" fill="#4d99bf"/>
      <path id="Trazado_731726" data-name="Trazado 731726" d="M198.674,195.476H3.085V178.464a4.146,4.146,0,0,1,4.145-4.145h187.3a4.145,4.145,0,0,1,4.145,4.145Z" transform="translate(-0.495 -27.951)" fill="#4d99bf"/>
      <path id="Trazado_731727" data-name="Trazado 731727" d="M135.39,73.226l-1.781-46.413a5.905,5.905,0,0,0-5.852-5.731H101.5a5.906,5.906,0,0,0-5.854,5.775L94.215,73.177h-.137A5.426,5.426,0,0,0,88.7,78.651v1.12a161.251,161.251,0,0,0,25.474,1.758,185.891,185.891,0,0,0,25.906-1.758v-1.12a5.439,5.439,0,0,0-4.692-5.425" transform="translate(-14.223 -3.381)" fill="#73c0e6"/>
      <path id="Trazado_731728" data-name="Trazado 731728" d="M115.341,84.946c-14.13,0-20.321-1.291-20.383-1.3a.429.429,0,0,1,.18-.839c.06.013,6.182,1.286,20.2,1.286a143.74,143.74,0,0,0,21.086-1.29.429.429,0,0,1,.141.847,144.631,144.631,0,0,1-21.227,1.3" transform="translate(-15.172 -13.275)" fill="#382118"/>
      <path id="Trazado_731729" data-name="Trazado 731729" d="M196.846,174.666H5.575a.429.429,0,1,1,0-.858h191.27a.429.429,0,1,1,0,.858" transform="translate(-0.825 -27.87)" fill="#382118"/>
      <path id="Trazado_731730" data-name="Trazado 731730" d="M159,42.879H141.972a7.248,7.248,0,0,1-7.248-7.247v-.617a7.248,7.248,0,0,1,7.248-7.248H159a7.248,7.248,0,0,1,7.247,7.248v.617A7.247,7.247,0,0,1,159,42.879" transform="translate(-21.603 -4.452)" fill="#d8d8da"/>
      <path id="Trazado_731731" data-name="Trazado 731731" d="M165.021,43.227c-3.093,0-5.611-3.582-5.611-7.985s2.517-7.985,5.611-7.985a.429.429,0,0,1,0,.858c-2.621,0-4.752,3.2-4.752,7.127s2.132,7.127,4.752,7.127a.429.429,0,0,1,0,.858" transform="translate(-25.561 -4.371)" fill="#382118"/>
      <path id="Trazado_731732" data-name="Trazado 731732" d="M195.368,205.25H4.969A4.97,4.97,0,0,1,0,200.28v-.423a4.97,4.97,0,0,1,4.969-4.969h190.4a4.97,4.97,0,0,1,4.97,4.969v.423a4.97,4.97,0,0,1-4.97,4.97" transform="translate(0 -31.25)" fill="#bababa"/>
    </g>
  </g>
</svg>
