<svg xmlns="http://www.w3.org/2000/svg" xmlns:xlink="http://www.w3.org/1999/xlink" width="126" height="192" viewBox="0 0 126 192">
  <defs>
    <clipPath id="clip-path">
      <rect id="Rectángulo_349706" data-name="Rectángulo 349706" width="126" height="192" transform="translate(5798 -9218)" fill="#fff" stroke="#707070" stroke-width="1"/>
    </clipPath>
    <clipPath id="clip-path-2">
      <rect id="Rectángulo_349705" data-name="Rectángulo 349705" width="105.1" height="306.999" fill="none"/>
    </clipPath>
    <clipPath id="clip-path-4">
      <rect id="Rectángulo_349689" data-name="Rectángulo 349689" width="78.678" height="45.425" fill="none"/>
    </clipPath>
    <clipPath id="clip-path-5">
      <rect id="Rectángulo_349690" data-name="Rectángulo 349690" width="34.89" height="29.352" fill="none"/>
    </clipPath>
    <clipPath id="clip-path-6">
      <rect id="Rectángulo_349691" data-name="Rectángulo 349691" width="32.339" height="36.138" fill="none"/>
    </clipPath>
    <clipPath id="clip-path-7">
      <rect id="Rectángulo_349692" data-name="Rectángulo 349692" width="25.6" height="83.571" fill="none"/>
    </clipPath>
    <clipPath id="clip-path-8">
      <rect id="Rectángulo_349693" data-name="Rectángulo 349693" width="29.467" height="82.928" fill="none"/>
    </clipPath>
    <clipPath id="clip-path-9">
      <rect id="Rectángulo_349694" data-name="Rectángulo 349694" width="14.659" height="125.745" fill="none"/>
    </clipPath>
    <clipPath id="clip-path-10">
      <rect id="Rectángulo_349695" data-name="Rectángulo 349695" width="19.624" height="20.555" fill="none"/>
    </clipPath>
    <clipPath id="clip-path-11">
      <rect id="Rectángulo_349696" data-name="Rectángulo 349696" width="10.725" height="12.418" fill="none"/>
    </clipPath>
    <clipPath id="clip-path-12">
      <rect id="Rectángulo_349697" data-name="Rectángulo 349697" width="25.183" height="21.961" fill="none"/>
    </clipPath>
    <clipPath id="clip-path-13">
      <rect id="Rectángulo_349698" data-name="Rectángulo 349698" width="26.019" height="18.458" fill="none"/>
    </clipPath>
    <clipPath id="clip-path-14">
      <rect id="Rectángulo_349699" data-name="Rectángulo 349699" width="10.518" height="20.192" fill="none"/>
    </clipPath>
    <clipPath id="clip-path-15">
      <rect id="Rectángulo_349700" data-name="Rectángulo 349700" width="10.992" height="21.049" fill="none"/>
    </clipPath>
    <clipPath id="clip-path-16">
      <rect id="Rectángulo_349701" data-name="Rectángulo 349701" width="48.017" height="34.567" fill="none"/>
    </clipPath>
    <clipPath id="clip-path-17">
      <rect id="Rectángulo_349702" data-name="Rectángulo 349702" width="9.374" height="20.118" fill="none"/>
    </clipPath>
    <clipPath id="clip-path-18">
      <rect id="Rectángulo_349703" data-name="Rectángulo 349703" width="35.121" height="23.087" fill="none"/>
    </clipPath>
  </defs>
  <g id="Enmascarar_grupo_981482" data-name="Enmascarar grupo 981482" transform="translate(-5798 9218)" clip-path="url(#clip-path)">
    <g id="Grupo_997333" data-name="Grupo 997333" transform="translate(5807.646 -9204.335)">
      <g id="Grupo_997332" data-name="Grupo 997332" clip-path="url(#clip-path-2)">
        <g id="Grupo_997331" data-name="Grupo 997331">
          <g id="Grupo_997330" data-name="Grupo 997330" clip-path="url(#clip-path-2)">
            <g id="Grupo_997287" data-name="Grupo 997287" transform="translate(2.58 261.574)" style="mix-blend-mode: multiply;isolation: isolate">
              <g id="Grupo_997286" data-name="Grupo 997286">
                <g id="Grupo_997285" data-name="Grupo 997285" clip-path="url(#clip-path-4)">
                  <path id="Trazado_731733" data-name="Trazado 731733" d="M70.452,364.226c-15.315,8.841-40.223,8.8-55.633-.1s-15.488-23.279-.174-32.12,40.223-8.8,55.633.1,15.489,23.278.174,32.12" transform="translate(-3.21 -325.404)" fill="#ccbfa3"/>
                </g>
              </g>
            </g>
            <path id="Trazado_731734" data-name="Trazado 731734" d="M51.17,338.409a6.781,6.781,0,0,1-3.632,2.981,19.926,19.926,0,0,1-4.676.987,2.424,2.424,0,0,1-1.154-.018.893.893,0,0,1-.615-.875c-2.254.335-4.042,2.011-5.83,3.427A27.083,27.083,0,0,1,21.908,350.8a9.538,9.538,0,0,1-4.806-.446.912.912,0,0,1-.186-.093,5.918,5.918,0,0,1-2.645-8.271,10.448,10.448,0,0,1,2.831-2.961,43.7,43.7,0,0,1,10.562-6.035c2.4-.969,4.973-1.732,7.041-3.316a8.459,8.459,0,0,0,2.514-3.092,5.845,5.845,0,0,0,.54-2.031c.056-.615-.149-1.527.3-2.049.67-.8,1.807-.279,2.571.038a8.5,8.5,0,0,0,8.046-.988,30.314,30.314,0,0,1,.354,3.912c.261,2.775,1.789,5.234,2.477,7.916a7.079,7.079,0,0,1-.335,5.029" transform="translate(-2.65 -63.074)" fill="#fa4443"/>
            <g id="Grupo_997290" data-name="Grupo 997290" transform="translate(14.266 258.479)" style="mix-blend-mode: multiply;isolation: isolate">
              <g id="Grupo_997289" data-name="Grupo 997289">
                <g id="Grupo_997288" data-name="Grupo 997288" clip-path="url(#clip-path-5)">
                  <path id="Trazado_731735" data-name="Trazado 731735" d="M52,338.409a6.781,6.781,0,0,1-3.632,2.981,19.926,19.926,0,0,1-4.676.987,2.424,2.424,0,0,1-1.154-.018.893.893,0,0,1-.615-.875c-2.254.335-4.042,2.011-5.83,3.427A27.083,27.083,0,0,1,22.739,350.8a9.538,9.538,0,0,1-4.806-.446.912.912,0,0,1-.186-.093,20.986,20.986,0,0,0,9.052-1.342c5.048-2.124,8.568-6.743,13.244-9.574a42.129,42.129,0,0,1,5.309-2.534,2.949,2.949,0,0,0,2.589-3.427c-.075-1.64-.15-3.26-.223-4.9a7.583,7.583,0,0,1-4.1.8,8.2,8.2,0,0,1-5.57-2.7,5.845,5.845,0,0,0,.54-2.031c.056-.615-.149-1.527.3-2.049.67-.8,1.807-.279,2.571.038a8.5,8.5,0,0,0,8.046-.988,30.314,30.314,0,0,1,.354,3.912c.261,2.775,1.789,5.234,2.477,7.916A7.079,7.079,0,0,1,52,338.409" transform="translate(-17.747 -321.553)" fill="#b3b3b3"/>
                </g>
              </g>
            </g>
            <path id="Trazado_731736" data-name="Trazado 731736" d="M74.978,351.246a7.983,7.983,0,0,1-6.482,3.893,4.468,4.468,0,0,0-1.3.149,3.36,3.36,0,0,0-1.025.671c-1.75,1.546-3.26,3.334-5.047,4.824a17.348,17.348,0,0,1-10.654,4.135,14.686,14.686,0,0,1-6.78-1.527,12.668,12.668,0,0,1-3.726-2.682c-2.179-2.254-1.993-5.029.038-7.338a20.766,20.766,0,0,1,4.228-3.3,82.373,82.373,0,0,0,7.413-5.514,23.624,23.624,0,0,0,5.5-5.867,12.293,12.293,0,0,0,.727-1.4c.093-.168.167-.335.242-.5,1.1-2.645,1.863-5.42,3.092-8.009-.244.5,1.675,1.919,1.974,2.18a8.244,8.244,0,0,0,2.625,1.583,10.256,10.256,0,0,0,6.595.168c-.373,2.272-.708,4.675.185,6.8.634,1.527,1.827,2.72,2.59,4.191a7.965,7.965,0,0,1-.186,7.544" transform="translate(-7.532 -64.492)" fill="#fa4443"/>
            <g id="Grupo_997293" data-name="Grupo 997293" transform="translate(36.152 264.29)" style="mix-blend-mode: multiply;isolation: isolate">
              <g id="Grupo_997292" data-name="Grupo 997292">
                <g id="Grupo_997291" data-name="Grupo 997291" clip-path="url(#clip-path-6)">
                  <path id="Trazado_731737" data-name="Trazado 731737" d="M76.268,351.246a7.983,7.983,0,0,1-6.482,3.893,4.468,4.468,0,0,0-1.3.149,3.36,3.36,0,0,0-1.025.671c-1.75,1.546-3.26,3.334-5.047,4.824a17.348,17.348,0,0,1-10.654,4.135,14.686,14.686,0,0,1-6.78-1.527c4.153.633,8.4.5,12.108-1.341a17.713,17.713,0,0,0,5.55-4.489c1.564-1.863,2.907-4.042,5.066-5.178,1.342-.707,3-1.024,3.875-2.272,1.173-1.64.3-3.875-.26-5.812a16.846,16.846,0,0,1-.541-6.017,12.274,12.274,0,0,1-5.4,1.174c-2.217-.018-4.918-.372-6.221-2.161.093-.168.167-.335.242-.5,1.1-2.645,1.863-5.42,3.092-8.009-.244.5,1.675,1.919,1.974,2.18a8.244,8.244,0,0,0,2.625,1.583,10.256,10.256,0,0,0,6.595.168c-.373,2.272-.708,4.675.185,6.8.634,1.527,1.827,2.72,2.59,4.191a7.965,7.965,0,0,1-.186,7.544" transform="translate(-44.974 -328.782)" fill="#b3b3b3"/>
                </g>
              </g>
            </g>
            <path id="Trazado_731738" data-name="Trazado 731738" d="M55.834,269.192a51.152,51.152,0,0,1-.633,6.091c-.912,6.52-1.844,13.039-2.757,19.558a4.759,4.759,0,0,1-.689,2.142,3.55,3.55,0,0,1-1.6,1.08c-.037.018-.055.018-.092.037a10.287,10.287,0,0,1-7.768-.149,3.945,3.945,0,0,1-1.546-1.08,4.672,4.672,0,0,1-.764-2.571q-.532-5.615-1.062-11.251c-.633-6.612-1.248-13.206-1.882-19.819a288.171,288.171,0,0,0-4.153-29.393c-.112-.577-.242-1.154-.354-1.731-.875-4.136-1.639-8.364-2.291-12.592-.95-6.091-1.676-12.238-2.2-18.291-.764-8.885-1.788-17.993.391-26.766a1.092,1.092,0,0,1,1.322-1.006c5.9-.242,11.1.652,14.976,5.607A29.958,29.958,0,0,1,49.91,190.4c2.272,8.718,2.794,17.77,3.93,26.692.056.409.093.8.15,1.211,1.341,10.319,3.26,20.955.112,30.827a13.456,13.456,0,0,1-1.341,3.036c.633,2.216,1.229,4.433,1.751,6.687a42.171,42.171,0,0,1,1.322,10.337" transform="translate(-5.32 -34.016)" fill="#4c5d80"/>
            <g id="Grupo_997296" data-name="Grupo 997296" transform="translate(24.92 180.477)" style="mix-blend-mode: multiply;isolation: isolate">
              <g id="Grupo_997295" data-name="Grupo 997295">
                <g id="Grupo_997294" data-name="Grupo 997294" clip-path="url(#clip-path-7)">
                  <path id="Trazado_731739" data-name="Trazado 731739" d="M56.595,279.216a51.152,51.152,0,0,1-.633,6.091c-.912,6.52-1.844,13.039-2.757,19.558a4.759,4.759,0,0,1-.689,2.142,3.55,3.55,0,0,1-1.6,1.08c-.037-.223-.055-.428-.074-.6-.112-1.248-.018-30.008-.428-35.67-.15-1.919-.3-3.838-.428-5.756-.2-2.738-.41-5.477-.875-8.177-.428-2.5-1.36-4.862-1.677-7.358a2.122,2.122,0,0,0-.354-1.062,2.286,2.286,0,0,0-1.3-.54,28.126,28.126,0,0,1-12.126-5.067c-.112-.577-.242-1.154-.354-1.731C32.417,238,31.653,233.767,31,229.539a7.852,7.852,0,0,1,1.584-2.309c2.049-2.012,5.085-2.608,7.953-2.7a25.6,25.6,0,0,1,14.213,3.8c1.341,10.319,3.26,20.955.112,30.827a13.455,13.455,0,0,1-1.341,3.036c.633,2.216,1.229,4.433,1.751,6.687a42.171,42.171,0,0,1,1.322,10.337" transform="translate(-31.001 -224.517)" fill="#b3b3b3"/>
                </g>
              </g>
            </g>
            <path id="Trazado_731740" data-name="Trazado 731740" d="M85.175,193.726A194.333,194.333,0,0,1,83.89,216.04c-.372,3.838-1.192,7.563-1.826,11.307-.242,1.322-.447,2.645-.6,3.985a199.119,199.119,0,0,1-3.278,21.533c-.448,4.637.633,9.294,1.006,13.97a81.021,81.021,0,0,1-.764,17.509c-.857,6.2-2.124,12.331-3.2,18.5-.2,1.155-.112,2.477-.969,3.316a8.949,8.949,0,0,1-2.2,1.584c-.317.186-.652.335-.969.484a11.928,11.928,0,0,1-7.283.8,6.368,6.368,0,0,1-2.44-.988c-1.863-1.341-1.024-3.558-1.136-5.569-.13-2.515-.448-5.01-.615-7.526-.317-4.489-.615-8.978-.95-13.467q-.726-10-1.546-20.005c-.242-3.055-2.7-15.7-2.7-18.813-.13-.819-.26-1.621-.391-2.44q-.81-5.254-1.434-10.543-1.118-9.583-1.676-19.2c-.28-4.62-.541-9.276-.559-13.915-.018-3.781-.577-7.525-.949-11.288-.131-1.472-.895-3.781,1.266-3.6,1.211.094,2.105.82,3.465.838,7.842.056,15.628-1.359,23.433-1.713,1.639-.075,3.408-.075,4.675.949a6.05,6.05,0,0,1,1.77,3.037,33.56,33.56,0,0,1,1.154,8.94" transform="translate(-9.646 -35.459)" fill="#4c5d80"/>
            <g id="Grupo_997299" data-name="Grupo 997299" transform="translate(42.951 189.353)" style="mix-blend-mode: multiply;isolation: isolate">
              <g id="Grupo_997298" data-name="Grupo 997298">
                <g id="Grupo_997297" data-name="Grupo 997297" clip-path="url(#clip-path-8)">
                  <path id="Trazado_731741" data-name="Trazado 731741" d="M79.026,263.612c-.448,4.638.633,9.295,1,13.97a80.929,80.929,0,0,1-.764,17.509c-.856,6.2-2.123,12.331-3.2,18.5-.2,1.154-.112,2.477-.968,3.315a8.959,8.959,0,0,1-2.2,1.584c.633-8.55,2.646-16.988,3.074-25.575.5-10.114-1.192-20.209-1.155-30.343.018-3.968.335-8.028,1.937-11.641-6.557,1.695-15.273,2.608-21.756.092a.912.912,0,0,1-.13-.055c-.54-3.5-1.025-7.022-1.434-10.542a8.319,8.319,0,0,1,1.658-1.677c3.055-2.309,7.059-2.887,10.878-3.092a41.167,41.167,0,0,1,13.263,1.117,26.107,26.107,0,0,1,3.67,1.322c-.242,1.322-.446,2.645-.6,3.986a199.072,199.072,0,0,1-3.277,21.533" transform="translate(-53.432 -235.559)" fill="#b3b3b3"/>
                </g>
              </g>
            </g>
            <path id="Trazado_731742" data-name="Trazado 731742" d="M85.608,87.875c-5.625,14.7-6.65,30.417-6.464,46.269.093,8.158.522,16.354.82,24.457a3.644,3.644,0,0,1-.261,1.9,3.435,3.435,0,0,1-1.229,1.137c-10.059,6.649-22.893,7.768-34.832,6.165-5.682-.745-11.716-2.31-15.423-6.687a6.743,6.743,0,0,1-1.267-2.105,8.69,8.69,0,0,1-.2-3.334c.559-9.575-.41-19.148-1.527-28.667-.28-2.347-.8-8.792-1.23-14.939-.354-5.141-.651-10.1-.689-12.294-.055-2.887-.037-5.793.112-8.68a41.3,41.3,0,0,1,1.882-11.176,22.3,22.3,0,0,1,2.98-5.867c1.155-1.584,2.869-3.782,4.675-4.62,1.677-.764,3.986-.838,5.812-.987,2.012-.186,4.042-.261,6.035-.447.055,0,.093-.019.149-.019,1.472-.149,2.943-.354,4.433-.559.261-.037.5-.075.764-.112a49.393,49.393,0,0,1,9.518-.6c2.906.187,5.458,2.16,7.935,3.632.448.261.895.522,1.323.8q7.18,4.3,13.933,9.257a10.4,10.4,0,0,1,2.663,2.514,5.519,5.519,0,0,1,.093,4.955" transform="translate(-4.565 -13.076)" fill="#f2f2f2"/>
            <path id="Trazado_731743" data-name="Trazado 731743" d="M48.189,73.193c.106-.191.215-.375.32-.555.167-.3.335-.578.5-.895a6.4,6.4,0,0,0,.466-2.645c.018-.354.018-.707.056-1.1.055,0,.092-.018.149-.018,1.472-.15,2.943-.354,4.432-.559.261-.038.5-.075.764-.112a49.326,49.326,0,0,1,9.518-.6c2.905.187,5.457,2.161,7.935,3.633.447.26.894.522,1.322.8a4.065,4.065,0,0,1-.317,1.9,13.47,13.47,0,0,1-2.067,3.595,16.481,16.481,0,0,1-2.961,2.719,19.883,19.883,0,0,1-6.37,3.3,16.152,16.152,0,0,1-7.339.316,9.61,9.61,0,0,1-5.942-3.353,6.2,6.2,0,0,1-1.211-4.3,14.443,14.443,0,0,1,1.168-3.267,11.959,11.959,0,0,1,1.477-3.213,1.924,1.924,0,0,1,1.608-.93Z" transform="translate(-9.301 -13.076)" fill="#fff"/>
            <path id="Trazado_731744" data-name="Trazado 731744" d="M91.525,87.025c-.149.912-.335,1.844-.559,2.756a10.88,10.88,0,0,1-1.043,2.5q-.446.895-.838,1.844a30.6,30.6,0,0,0-1.229,3.614,45.2,45.2,0,0,0-1.4,11.157v1.229c0,3.371.2,6.743.26,10.115a58.009,58.009,0,0,1-.447,9.35c-.465,3.2.447,6.687.6,9.947.13,2.608.167,5.215.093,7.823a17.1,17.1,0,0,0,.13,2.18,11.148,11.148,0,0,1-.018,4.3,1.6,1.6,0,0,1-.372.727,2.045,2.045,0,0,1-.764.428,2.7,2.7,0,0,1-.409.168,1.218,1.218,0,0,1-.243.074,34.569,34.569,0,0,1-8.456,2.012c-.727.093-1.453.149-2.179.2-.522.037-1.043.055-1.565.074a49.364,49.364,0,0,1-6.854-.2,30.269,30.269,0,0,1-8.214-1.732,14.449,14.449,0,0,1-2.738-1.229,3.026,3.026,0,0,1-1.527-1.826,50.28,50.28,0,0,1-1.006-5.961c-.428-4.06-.428-8.121-.559-12.181a54.271,54.271,0,0,1-.055-7.786,33.987,33.987,0,0,0,.689-4.9c-.037-1.621-.168-3.26-.186-4.88a95.026,95.026,0,0,1,.354-10.319c.018-.13.018-.261.037-.391.335-3.3.95-6.575,1.565-9.835.521-2.756,1.024-5.514,1.621-8.251.3-1.359.577-2.738.949-4.1a1.8,1.8,0,0,1,.522-1.1c.54-.428.912-.112,1.547-.186a6.3,6.3,0,0,0,1.173-.279c.577-.168,1.211-.317,1.789-.522.075-.018.167-.056.242-.075A32.06,32.06,0,0,0,70.2,77.321c.913-.708,5.924-4.88,4.08-5.756a51.008,51.008,0,0,1,7.563,5.067q4.022,2.934,7.99,5.979a4.542,4.542,0,0,1,1.49,1.546,2.729,2.729,0,0,1,.28.913,6.912,6.912,0,0,1-.075,1.956" transform="translate(-10.199 -14.038)" fill="#78b4d1"/>
            <path id="Trazado_731745" data-name="Trazado 731745" d="M23.362,112.546a42.678,42.678,0,0,1-3.875,9.742c-.819,1.676-4.042,8.513-4.1,10.3a3.2,3.2,0,0,0-.819-1.714,5.717,5.717,0,0,0-1.584-1.285,7.838,7.838,0,0,0-1.509-.633,16.293,16.293,0,0,0-5.1-.633,10.932,10.932,0,0,0-2.906.317c-.652.2-1.695.782-2.272.074a1.323,1.323,0,0,1-.223-.949c.038-2.2,5.961-15.591,6.762-17.324q.614-1.341,1.229-2.682c.3-.652.6-1.285.894-1.937a3.5,3.5,0,0,1,.876-1.3,1.151,1.151,0,0,1,1.453-.037,3.013,3.013,0,0,0,1.7.8,22.477,22.477,0,0,0,3.818.782,9.057,9.057,0,0,1,4.731,1.546c1.359,1.137,1.3,3.223.931,4.936" transform="translate(-0.19 -20.447)" fill="#ffd6bf"/>
            <path id="Trazado_731746" data-name="Trazado 731746" d="M25.313,112.546a42.678,42.678,0,0,1-3.875,9.742c-.819,1.676-4.042,8.513-4.1,10.3a3.2,3.2,0,0,0-.819-1.714,5.717,5.717,0,0,0-1.584-1.285,22.271,22.271,0,0,1,.764-3.055c1.379-4.21,4.116-8.065,4.284-12.48a.988.988,0,0,0-.056-.41.815.815,0,0,0-.335-.279c-1.676-.895-3.483-1.51-5.141-2.422-1.211-.67-2.962-1.788-3.539-3.185.3-.652.6-1.285.894-1.937a3.5,3.5,0,0,1,.876-1.3,1.151,1.151,0,0,1,1.453-.037,3.013,3.013,0,0,0,1.7.8,22.477,22.477,0,0,0,3.818.782,9.057,9.057,0,0,1,4.731,1.546c1.359,1.137,1.3,3.223.931,4.936" transform="translate(-2.141 -20.447)" fill="#ffc6a6"/>
            <path id="Trazado_731747" data-name="Trazado 731747" d="M34.242,70.011a2.561,2.561,0,0,1-.708,1.174c-2.85,3.278-3.613,7.711-4.843,11.753-.893,2.906-1.769,5.812-2.663,8.736-.8,2.589-1.788,5.235-1.676,7.991.018.3-.112,2.067-.28,3.558a8.23,8.23,0,0,1-.373,2.142,19.2,19.2,0,0,1-7.245-1.789,10.342,10.342,0,0,1-3-1.937,5.248,5.248,0,0,1-1.64-2.589c-.074-.447.206-.8.373-1.211.186-.447.372-.875.559-1.3.056-.112.093-.223.15-.335.95-2.2,2.011-4.358,3.111-6.482,1.359-2.645,2.868-5.122,4.34-7.693a79.911,79.911,0,0,1,5.9-8.96,9.157,9.157,0,0,1,1.584-1.7,2.1,2.1,0,0,1,.317-.242c1.732-1.136,3.986-1.154,6.091-1.117" transform="translate(-2.315 -13.731)" fill="#8acef0"/>
            <path id="Trazado_731748" data-name="Trazado 731748" d="M24.072,109.7a8.27,8.27,0,0,1-.373,2.142,19.2,19.2,0,0,1-7.245-1.789,10.356,10.356,0,0,1-3-1.936,5.248,5.248,0,0,1-1.64-2.59c-.074-.447.2-.8.373-1.211.186-.447.372-.875.559-1.3.838,2.682,4.341,4.657,6.78,5.551a22.544,22.544,0,0,0,4.545,1.136" transform="translate(-2.315 -20.206)" fill="#f2f2f2"/>
            <path id="Trazado_731749" data-name="Trazado 731749" d="M44.845,80.021c-.012,2.188-1.038,4.532-1.545,6.657q-.867,3.635-1.543,7.314a142.729,142.729,0,0,0-1.928,14.82c-.306,3.981-.453,8.014-1.552,11.852-.576,2.012-1.361,3.963-1.989,5.961a19.655,19.655,0,0,0-.536,6.034c-.01,4.556.106,9.112.259,13.664.041,1.092.065,2.2.106,3.287,0,.062-4.014-1.029-4.379-1.169a19.312,19.312,0,0,1-4.054-2.17c-.535-.375-1.063-.563-1.33-1.161a10.3,10.3,0,0,1-.449-2.828c-.226-2.1-.215-4.22-.293-6.331-.226-6.069-1.378-12.032-1.458-18.1q-.061-4.578-.1-9.157c-.006-.8.074-1.6.094-2.395a9.966,9.966,0,0,0-.035-1.21.89.89,0,0,0-.068-.424,2.832,2.832,0,0,0-.4-.375,1.745,1.745,0,0,1-.392-1.252c.007-.77-.017-7.675,0-8.444.116-7.2-.039-7.807,1.8-14.8.866-3.19,2.707-7.2,5.518-8.938a13.767,13.767,0,0,1,4.478-1.9,24.108,24.108,0,0,1,10.117-.393c-1.581,1.558-1.777,3.957-2.41,5.98a4.416,4.416,0,0,0,.274,3.018,7.586,7.586,0,0,0,.815,1.408c.166.235.543.889.879.954a.19.19,0,0,1,.091.026.08.08,0,0,1,.031.074" transform="translate(-4.56 -13.373)" fill="#78b4d1"/>
            <path id="Trazado_731750" data-name="Trazado 731750" d="M81.663,191.266c-.372,4.768-1.024,9.5-1.789,14.212-.689,4.266-1.248,9.016-3.2,12.908-.875,1.752-2.794,2.179-4.62,2.682-.428.112-.857.224-1.3.354-1.621.391-3.278.744-4.936.986a59.273,59.273,0,0,1-18.944.038c-5.42-.875-10.9-2.589-14.957-6.277-1.6-1.472-2.254-3.818-2.589-5.886-.5-3.018-.912-6.054-1.266-9.071-.708-5.979-2.087-36.006-2.422-44.984-.223-5.756-1.863-35.279-2.067-37.626-.093-1.062-.13-2.1-.223-3.185a23.01,23.01,0,0,1-.167-5.067.489.489,0,0,1,.074-.28.824.824,0,0,1,.317-.3,11.911,11.911,0,0,0,3.446-3.763c.912-1.434,1.676-2.981,2.626-4.415.317.038.745-.018,1.006.186a3.759,3.759,0,0,1,.633,1.174c.391.782.745,1.584,1.211,2.328a14.948,14.948,0,0,0,7.413,5.663,25.059,25.059,0,0,0,7.414,1.453c.633.037,1.248.055,1.881.075,4.284.074,8.68-.41,12.5-2.347a8.982,8.982,0,0,1,2.813-1.08,2.312,2.312,0,0,1,1.6.3,13.982,13.982,0,0,0,3.2,9,14.394,14.394,0,0,0,1.509,1.676,20.994,20.994,0,0,0,5.346,3.391l4.08,2.067a1.7,1.7,0,0,1,.782.615c0,.018.018.018.018.037a1.843,1.843,0,0,1,.13.652c.932,12.666.988,58.284.485,64.486" transform="translate(-4.528 -19.929)" fill="#9e8f7c"/>
            <g id="Grupo_997302" data-name="Grupo 997302" transform="translate(64.226 75.749)" style="mix-blend-mode: multiply;isolation: isolate">
              <g id="Grupo_997301" data-name="Grupo 997301">
                <g id="Grupo_997300" data-name="Grupo 997300" clip-path="url(#clip-path-9)">
                  <path id="Trazado_731751" data-name="Trazado 731751" d="M91.932,113.34v1.229c0,3.371.2,6.743.26,10.115a1.84,1.84,0,0,1,.131.652c.931,12.666.987,58.283.484,64.486-.372,4.768-1.024,9.5-1.788,14.212-.69,4.266-1.248,9.016-3.2,12.908-.875,1.752-2.794,2.179-4.62,2.682-.428.112-.857.223-1.3.354-.335-4.881-.521-9.761-.689-14.66q-.727-21.71-1.08-43.419c-.056-3.2-.093-6.427-.13-9.63-.056-4.117-.093-8.215-.093-12.331,0-6.669.093-13.337.391-19.987.037-.67.074-1.732.167-3.055.522-8.382,2.459-27.195,10.524-21.663a17.64,17.64,0,0,1,3.576,3.334,30.535,30.535,0,0,0-1.229,3.613,45.2,45.2,0,0,0-1.4,11.157" transform="translate(-79.899 -94.233)" fill="#b3b3b3"/>
                </g>
              </g>
            </g>
            <path id="Trazado_731752" data-name="Trazado 731752" d="M63.79,115.586l-1.8-.482a296.646,296.646,0,0,0,7.2-35.36c.542-3.846.913-7.565-.49-10.793a9.062,9.062,0,0,0-4.22-4.514,19.174,19.174,0,0,0-8.727-1.315,19.962,19.962,0,0,0-6.291,1.267,15.658,15.658,0,0,0-6.276,5.165,58.049,58.049,0,0,0-6.868,12.867c-.968,2.317-1.85,4.708-2.624,7.108l-.24.746C32.148,94.317,30.8,98.5,30.7,102.745l-1.863-.04c.1-4.522,1.494-8.833,2.843-13l.24-.744c.787-2.449,1.688-4.89,2.677-7.256a59.5,59.5,0,0,1,7.105-13.277,17.484,17.484,0,0,1,7.04-5.756,21.681,21.681,0,0,1,6.891-1.407c1.364-.085,6.1-.233,9.659,1.5a10.96,10.96,0,0,1,5.115,5.447c1.594,3.673,1.2,7.675.624,11.795a298.748,298.748,0,0,1-7.245,35.582" transform="translate(-5.657 -12.008)" fill="#9e8f7c"/>
            <path id="Trazado_731753" data-name="Trazado 731753" d="M50.069,67.47c-.535,1.111-1.337,2.014-1.469,3.284a5.261,5.261,0,0,0,1.022,3.633,8.676,8.676,0,0,0,5.387,3,14.873,14.873,0,0,0,6.905-.3,19.106,19.106,0,0,0,6.069-3.137,15.64,15.64,0,0,0,2.785-2.568,12.391,12.391,0,0,0,1.921-3.352,3.665,3.665,0,0,0-.234-3.17,10.2,10.2,0,0,1-.558-3.382A85.11,85.11,0,0,1,72.29,50.76q.344-3.962.83-7.91A10.273,10.273,0,0,1,71.6,46.557a23.771,23.771,0,0,1-2.1,2.114,51.912,51.912,0,0,1-6.124,5.613,33.464,33.464,0,0,1-7.437,4.379,40.124,40.124,0,0,1-4.016,1.315c-.953.285-.782.678-.933,1.623-.08.5-.227.994-.282,1.5-.174,1.574.086,2.866-.641,4.374" transform="translate(-9.528 -8.405)" fill="#ffc6a6"/>
            <path id="Trazado_731754" data-name="Trazado 731754" d="M72.436,64.955a3.653,3.653,0,0,1,.242,3.166,12.737,12.737,0,0,1-1.918,3.353,14.649,14.649,0,0,1-2.794,2.571,18.79,18.79,0,0,1-6.054,3.148,14.957,14.957,0,0,1-6.911.3,9.305,9.305,0,0,1-4.47-2.049h-.019a5.418,5.418,0,0,1-.894-.95,6.127,6.127,0,0,1-.633-5.867,11.847,11.847,0,0,1,.485-1.267l.055-.112a13.93,13.93,0,0,0,1.025-1.956,8.681,8.681,0,0,0,.149-2.1c.056-.485.2-.987.28-1.49.149-.95-.018-1.341.931-1.621a39.161,39.161,0,0,0,4.024-1.322,32.465,32.465,0,0,0,7.432-4.378,51.342,51.342,0,0,0,6.129-5.606,25,25,0,0,0,2.1-2.105,12.7,12.7,0,0,0,1.472-3.316c-.28,2.273-.522,4.508-.707,6.78-.038.242-.056.484-.075.727A82.575,82.575,0,0,0,71.9,61.584a10.3,10.3,0,0,0,.54,3.371" transform="translate(-9.518 -8.503)" fill="#ffd6bf"/>
            <path id="Trazado_731755" data-name="Trazado 731755" d="M73.17,69.776a12.717,12.717,0,0,1-1.919,3.353A14.627,14.627,0,0,1,68.457,75.7,18.786,18.786,0,0,1,62.4,78.848a14.957,14.957,0,0,1-6.911.3A9.3,9.3,0,0,1,51.022,77.1a18.6,18.6,0,0,0,6.78-2.272,21.348,21.348,0,0,0,5.178-5.4,36.19,36.19,0,0,0,2.533-3.707,28.084,28.084,0,0,0,2.44-6.52,14.917,14.917,0,0,1,3.39-6.463,3.138,3.138,0,0,1,1.1-.82,2.575,2.575,0,0,1,.41-.13c-.037.242-.056.484-.075.727a82.426,82.426,0,0,0-.391,10.729,10.3,10.3,0,0,0,.54,3.371,3.659,3.659,0,0,1,.242,3.166" transform="translate(-10.008 -10.158)" fill="#ffc6a6"/>
            <g id="Grupo_997305" data-name="Grupo 997305" transform="translate(47.171 54.804)" style="mix-blend-mode: multiply;isolation: isolate">
              <g id="Grupo_997304" data-name="Grupo 997304">
                <g id="Grupo_997303" data-name="Grupo 997303" clip-path="url(#clip-path-10)">
                  <path id="Trazado_731756" data-name="Trazado 731756" d="M63.175,81.6c-.284.183-.576.356-.854.547a1.1,1.1,0,0,1-.7.145,8.95,8.95,0,0,1-1.723-.092,1.481,1.481,0,0,1-.579-.19,1.175,1.175,0,0,0-.2-.127.2.2,0,0,0-.224.036.279.279,0,0,0-.051.129,7.13,7.13,0,0,0-.135,1.96,3.324,3.324,0,0,0,1.441,2.327,9.273,9.273,0,0,0,2.642,1.186,36.265,36.265,0,0,0,5.137,1.212,4.119,4.119,0,0,1,1.485-2.22,26.351,26.351,0,0,1,2.392-1.68,23.306,23.306,0,0,0,3.247-2.647q.691-.678,1.308-1.4a7.557,7.557,0,0,0,1.873-3.411,7.3,7.3,0,0,0-1.114-4.965c-.4-.613-.863-1.2-1.324-1.787l-1.917-2.441c-.07,1.626.091,3.134-.752,4.593q-.124.215-.256.426c-2.272,3.652-6.143,6.12-9.686,8.4" transform="translate(-58.682 -68.177)" fill="#ccc"/>
                </g>
              </g>
            </g>
            <path id="Trazado_731757" data-name="Trazado 731757" d="M75.078,79.364q.691-.678,1.307-1.4a7.553,7.553,0,0,0,1.873-3.412,7.3,7.3,0,0,0-1.113-4.965c-.4-.613-.864-1.2-1.325-1.788q-.959-1.22-1.916-2.441c-.07,1.626.091,3.134-.752,4.593q-.124.216-.256.426c-2.273,3.652-6.144,6.12-9.686,8.4a45.963,45.963,0,0,1-4.044,2.4c-.923.469.481,1.955,1.009,2.336A9.265,9.265,0,0,0,62.817,84.7a36.573,36.573,0,0,0,5.137,1.213,4.11,4.11,0,0,1,1.484-2.221,26.325,26.325,0,0,1,2.393-1.681,23.305,23.305,0,0,0,3.247-2.647" transform="translate(-11.546 -12.82)" fill="#8acef0"/>
            <g id="Grupo_997308" data-name="Grupo 997308" transform="translate(29.543 57.763)" style="mix-blend-mode: multiply;isolation: isolate">
              <g id="Grupo_997307" data-name="Grupo 997307">
                <g id="Grupo_997306" data-name="Grupo 997306" clip-path="url(#clip-path-11)">
                  <path id="Trazado_731758" data-name="Trazado 731758" d="M44.49,82.837c-1.337.28-2.654.7-3.992.991a20.5,20.5,0,0,1-3.748.448,7.268,7.268,0,0,0,1.9-3.8c.354-1.449.716-3.414,1.91-4.448a27.2,27.2,0,0,1,4.2-3.125,13.876,13.876,0,0,1,1.272-.645c.35-.155.885-.486,1.264-.375a4.723,4.723,0,0,1-.356.969,11.22,11.22,0,0,0-.668,2.053,7.708,7.708,0,0,0,.061,3.961,6.341,6.341,0,0,0,.348.866,1.8,1.8,0,0,0,.52.7.635.635,0,0,1,.247.229.484.484,0,0,1,.017.231q-.053.58-.131,1.158c-.018.136,0,.346-.113.423-.092.065-.4.038-.511.05a21.6,21.6,0,0,0-2.224.322" transform="translate(-36.752 -71.858)" fill="#ccc"/>
                </g>
              </g>
            </g>
            <path id="Trazado_731759" data-name="Trazado 731759" d="M44.49,80.473c-1.337.28-2.654.7-3.992.991a20.5,20.5,0,0,1-3.748.448,7.268,7.268,0,0,0,1.9-3.8c.354-1.449.716-3.415,1.91-4.448a27.2,27.2,0,0,1,4.2-3.125,11.636,11.636,0,0,1,4.78-1.578,11.911,11.911,0,0,0-3.112,4.876,6.177,6.177,0,0,0,.514,5.5c.066.1.5.748.634.736a27.859,27.859,0,0,0-3.092.405" transform="translate(-7.209 -13.527)" fill="#8acef0"/>
            <path id="Trazado_731760" data-name="Trazado 731760" d="M75.925,39.975a10.608,10.608,0,0,1-5.141,6.911,5.965,5.965,0,0,1-2.18.745,3.352,3.352,0,0,1-1.546-.13,28.844,28.844,0,0,1-1.621,3.725A10.185,10.185,0,0,1,63.576,53.8a14.35,14.35,0,0,1-4.042,2.571A42.8,42.8,0,0,1,53.8,58.527c-.074.018-.13.037-.186.055-.54.15-1.08.3-1.621.428a.144.144,0,0,1-.075.018c-.559.13-1.117.243-1.7.354a13.61,13.61,0,0,1-2.16.28,4.763,4.763,0,0,1-2.44-.5,3.448,3.448,0,0,1-1.639-2.011c-.075-.391.037-.652-.186-1.043-.242-.372-.689-.633-.95-.969A3.952,3.952,0,0,1,42.3,52.4c.075-1.509.131-2.981.168-4.47.075-2.44.354-4.936.484-7.377a4.94,4.94,0,0,0,.038-.54v-.092a6.665,6.665,0,0,1,.372-1.733c.186-.428.447-.838.633-1.266a5.333,5.333,0,0,0-.317-3.818.27.27,0,0,1-.037-.112,3.758,3.758,0,0,1-.28-3.111c1.3-4.228,2.757-9.425,7.06-11.6a11.379,11.379,0,0,1,4.247-1.043,28.035,28.035,0,0,1,7.171.317,16.2,16.2,0,0,1,5.961,2.1,9.156,9.156,0,0,1,3.948,4.787c1.006,3.037-.037,6.315-.055,9.519a1.683,1.683,0,0,0,.168.857c.428.764,1.546.559,2.384.782a2.613,2.613,0,0,1,1.694,1.826,5.137,5.137,0,0,1-.018,2.551" transform="translate(-8.294 -3.36)" fill="#ffd6bf"/>
            <path id="Trazado_731761" data-name="Trazado 731761" d="M76.1,39.975a10.608,10.608,0,0,1-5.141,6.911,5.965,5.965,0,0,1-2.18.745,3.352,3.352,0,0,1-1.546-.13,28.844,28.844,0,0,1-1.621,3.725A10.185,10.185,0,0,1,63.749,53.8a14.35,14.35,0,0,1-4.042,2.571,42.8,42.8,0,0,1-5.738,2.161c-.074.018-.13.037-.186.055-.54.15-1.08.3-1.621.428a.144.144,0,0,1-.075.018c-.559.13-1.117.243-1.7.354a13.61,13.61,0,0,1-2.16.28c1.043-.82,2.328-1.36,3.353-2.216a23.907,23.907,0,0,0,3.65-3.856,58.142,58.142,0,0,0,5.533-9.034c-.187.354-5.03-.54-5.588-.633a33.994,33.994,0,0,1-9.723-2.776,13.756,13.756,0,0,1-2.291-1.137v-.092a6.665,6.665,0,0,1,.372-1.733c.186-.428.447-.838.633-1.266a5.333,5.333,0,0,0-.317-3.818.27.27,0,0,1-.037-.112,3.758,3.758,0,0,1-.28-3.111c1.3-4.228,2.757-9.425,7.06-11.6a11.379,11.379,0,0,1,4.247-1.043,28.035,28.035,0,0,1,7.171.317,16.2,16.2,0,0,1,5.961,2.1,9.156,9.156,0,0,1,3.948,4.787c1.006,3.037-.037,6.315-.055,9.519a1.683,1.683,0,0,0,.168.857c.428.764,1.546.559,2.384.782a2.613,2.613,0,0,1,1.694,1.826,5.137,5.137,0,0,1-.018,2.551" transform="translate(-8.467 -3.36)" fill="#ffc6a6"/>
            <path id="Trazado_731762" data-name="Trazado 731762" d="M64.8,45.917c-.038.093-.093.2-.13.317a50.772,50.772,0,0,1-2.813,5.383l-.28.448a18.694,18.694,0,0,1-1.546,2.067,29.514,29.514,0,0,1-3.781,3.837.222.222,0,0,1-.093.093c-1.248,1.043-2.719,2.626-4.489,1.789a2.526,2.526,0,0,1-1.117-1.043,2.775,2.775,0,0,1-.242-1.285c-.2-1.881-.857-4.638-3-5.141-.409-.093-.8-.056-1.211-.15-.69-.13-1.117-.707-1.826-.857a1.886,1.886,0,0,0-1.192.112c-.819.41-.987,1.807-1.137,2.626a29.074,29.074,0,0,0-.26,3.372c-.055,1.863-.54,3.818-.075,5.625a8.929,8.929,0,0,0,1.155,2.7,4.512,4.512,0,0,0,1.267,1.322,6.494,6.494,0,0,0,2.272.875c4.21.875,8.624-.559,12.331-2.776A17.692,17.692,0,0,0,63.4,61.284a28.05,28.05,0,0,0,3.446-5.57,14.378,14.378,0,0,0,.969-6.221c.018-1.062.074-2.124.13-3.186.055-.652.093-1.285.149-1.936a52.334,52.334,0,0,0,.2-5.924c-1.155,2.5-2.328,4.973-3.5,7.469M42.43,57.2A4.309,4.309,0,0,1,42.5,55.92a2.6,2.6,0,0,1,1.229-1.826A1.56,1.56,0,0,1,44.609,54a3.108,3.108,0,0,1,2.366,1.359,5.073,5.073,0,0,1,.875,1.807,9.9,9.9,0,0,1,.223,3.241c-.037.335-.055.726-.41.894-.652.317-1.434-.261-1.751-.783a3.283,3.283,0,0,1-.447-1.322,6.939,6.939,0,0,1,.15-1.751,5.684,5.684,0,0,1-1.937-.726c.055.465.111,1.9-.354,2.235-.54.391-.875-1.471-.894-1.751" transform="translate(-8.123 -7.542)" fill="#4d4d4d"/>
            <g id="Grupo_997311" data-name="Grupo 997311" transform="translate(34.642 38.766)" style="mix-blend-mode: multiply;isolation: isolate">
              <g id="Grupo_997310" data-name="Grupo 997310">
                <g id="Grupo_997309" data-name="Grupo 997309" clip-path="url(#clip-path-12)">
                  <path id="Trazado_731763" data-name="Trazado 731763" d="M68.28,48.226c-.055,1.062-.112,2.124-.13,3.186a14.38,14.38,0,0,1-.969,6.221,28.036,28.036,0,0,1-3.446,5.57,17.707,17.707,0,0,1-4.768,3.948c-3.707,2.217-8.121,3.651-12.331,2.776a6.5,6.5,0,0,1-2.272-.876A4.5,4.5,0,0,1,43.1,67.728a18.648,18.648,0,0,0,11.009-.26,17.169,17.169,0,0,0,8.736-6.743A18.538,18.538,0,0,0,64.461,57.6a37.67,37.67,0,0,0,1.806-6,5.252,5.252,0,0,1,.838-2.235,3.13,3.13,0,0,1,1.174-1.137" transform="translate(-43.096 -48.226)" fill="#ccc"/>
                </g>
              </g>
            </g>
            <path id="Trazado_731764" data-name="Trazado 731764" d="M47.341,19.751a1.7,1.7,0,0,1,.3-.346c.724-.6,1.494.43,1.99.916a19.043,19.043,0,0,0,2.039,1.889,8.193,8.193,0,0,0,5.518,1.373A10.75,10.75,0,0,0,62,22.13c.436-.3.634-.779,1.189-.874a1.938,1.938,0,0,1,1.692.907,7.132,7.132,0,0,1,1.14,3.261,36.614,36.614,0,0,1,.577,7.581,27.335,27.335,0,0,0,.8,6.237,9.666,9.666,0,0,1,2.671-4.257c1.42-1.094,3.586-1.111,4.524.609,1.256,2.3.191,5.788-1.055,7.866.11-.184.578-.372.762-.5q.444-.3.871-.631a14.053,14.053,0,0,0,2.472-2.449,26.173,26.173,0,0,0,5.293-12.468c.524-4.134-.309-8.6-3.03-11.753a19.875,19.875,0,0,0-6.715-4.624,30.674,30.674,0,0,0-5.868-2.209,19.048,19.048,0,0,0-15.939,3.25A17.787,17.787,0,0,0,47.3,16.632a13.547,13.547,0,0,0-2.235,5.742,10.834,10.834,0,0,0-.057,1.523,43.3,43.3,0,0,1,2.145-3.85c.06-.1.121-.2.187-.3" transform="translate(-8.828 -1.626)" fill="#4d4d4d"/>
            <path id="Trazado_731765" data-name="Trazado 731765" d="M89.834,25.321c-.074.26-.13.522-.2.782A13.125,13.125,0,0,1,88.4,29.158a19.313,19.313,0,0,1-4.415,5.327c-5.215,4.489-11.6,6.24-18.236,7.452a41.734,41.734,0,0,1-25.221-3.372c-4.079-1.937-8.177-4.414-11.046-7.972a21.441,21.441,0,0,1-4.433-9.407c-.447-2.31-.447-4.881.913-6.8,1.434-2.012,4.1-2.831,6.594-2.757A29.772,29.772,0,0,1,39.8,13.27a79.628,79.628,0,0,0,15.944,2.756,110.451,110.451,0,0,0,15.5.186.317.317,0,0,0,.13-.018c3.446-.2,6.929-.671,10.375-.671a9.889,9.889,0,0,1,6.836,2.217c2.255,2.086,1.9,4.917,1.248,7.581" transform="translate(-4.861 -2.28)" fill="#331e23"/>
            <path id="Trazado_731766" data-name="Trazado 731766" d="M89.834,24.018c-.074.26-.13.522-.2.782A13.125,13.125,0,0,1,88.4,27.855a19.328,19.328,0,0,1-4.415,5.328c-5.215,4.489-11.6,6.239-18.236,7.45a41.728,41.728,0,0,1-25.221-3.371c-4.079-1.937-8.177-4.415-11.046-7.972a21.441,21.441,0,0,1-4.433-9.407c-.447-2.31-.447-4.881.913-6.8,1.434-2.012,4.1-2.831,6.594-2.757a29.772,29.772,0,0,1,7.246,1.64,79.628,79.628,0,0,0,15.944,2.756,110.45,110.45,0,0,0,15.5.186.317.317,0,0,0,.13-.018c3.446-.2,6.929-.671,10.375-.671a9.889,9.889,0,0,1,6.836,2.217c2.255,2.086,1.9,4.917,1.248,7.581" transform="translate(-4.861 -2.025)" fill="#804b58"/>
            <g id="Grupo_997314" data-name="Grupo 997314" transform="translate(59.446 12.195)" style="mix-blend-mode: multiply;isolation: isolate">
              <g id="Grupo_997313" data-name="Grupo 997313">
                <g id="Grupo_997312" data-name="Grupo 997312" clip-path="url(#clip-path-13)">
                  <path id="Trazado_731767" data-name="Trazado 731767" d="M99.479,24.969a46.734,46.734,0,0,1-7.749,3.967,77.7,77.7,0,0,1-9.872,3.111c-1.49.373-2.776.764-4.265,1.08-.857.186-3.092,1.062-3.521-.055-.391-.988.28-2.664.522-3.633a36.8,36.8,0,0,1,1.23-3.93,44.367,44.367,0,0,1,5.2-9.667c3.446-.2,6.929-.671,10.375-.671a9.889,9.889,0,0,1,6.836,2.217c2.255,2.086,1.9,4.917,1.248,7.581" transform="translate(-73.952 -15.171)" fill="#b3b3b3"/>
                </g>
              </g>
            </g>
            <path id="Trazado_731768" data-name="Trazado 731768" d="M60.271,33.058c-10.05-.97-17.744-6.362-17.218-12.023l.081-.369-.031-.007.3-1.386L45.5,9.986l33.536,3.2.406,9.511.03.748a9.219,9.219,0,0,1,0,1.033c-.533,5.691-9.147,9.52-19.2,8.581" transform="translate(-8.44 -1.959)" fill="#613943"/>
            <path id="Trazado_731769" data-name="Trazado 731769" d="M60.271,35.324c-10.05-.97-17.744-6.362-17.218-12.023l.081-.369-.031-.007.3-1.386c.749,5.133,7.97,9.744,17.174,10.594,9.2.88,17.173-2.248,18.862-7.171l.03.748a9.219,9.219,0,0,1,0,1.033c-.533,5.691-9.147,9.52-19.2,8.581" transform="translate(-8.44 -4.225)" fill="#331e23"/>
            <g id="Grupo_997317" data-name="Grupo 997317" transform="translate(60.53 10.463)" style="mix-blend-mode: multiply;isolation: isolate">
              <g id="Grupo_997316" data-name="Grupo 997316">
                <g id="Grupo_997315" data-name="Grupo 997315" clip-path="url(#clip-path-14)">
                  <path id="Trazado_731770" data-name="Trazado 731770" d="M85.811,24.043c.018.317,0,.67,0,1.025-.373,3.912-4.526,6.929-10.338,8.14a10.368,10.368,0,0,1-.037-1.062c-.018-1.062-.018-2.105-.037-3.148,0-1.416-.019-2.813-.038-4.21a31.884,31.884,0,0,1,.187-6.259A22.915,22.915,0,0,1,77.3,13.017l8.066.763.41,9.518Z" transform="translate(-75.301 -13.016)" fill="#b3b3b3"/>
                </g>
              </g>
            </g>
            <g id="Grupo_997320" data-name="Grupo 997320" transform="translate(34.582 8.022)" style="mix-blend-mode: screen;isolation: isolate">
              <g id="Grupo_997319" data-name="Grupo 997319">
                <g id="Grupo_997318" data-name="Grupo 997318" clip-path="url(#clip-path-15)">
                  <path id="Trazado_731771" data-name="Trazado 731771" d="M53.849,15.717c-.3,1.36-.559,2.682-.745,4.079-.428,3.391-.819,6.78-1.173,10.19-.038.354-.075.69-.112,1.043-5.57-2.291-9.128-6.092-8.773-10l.092-.354-.037-.018.3-1.378L45.5,9.98l7.209.689a3.247,3.247,0,0,1,.633.783,6.146,6.146,0,0,1,.5,4.265" transform="translate(-43.021 -9.98)" fill="#4d4d4d"/>
                </g>
              </g>
            </g>
            <path id="Trazado_731772" data-name="Trazado 731772" d="M46.091,8.024c-.5,5.235,6.606,10.2,15.874,11.079s17.186-2.649,17.685-7.885S73.038,1.016,63.771.134s-17.181,2.649-17.68,7.89" transform="translate(-9.036 0)" fill="#804b58"/>
            <path id="Trazado_731773" data-name="Trazado 731773" d="M79.651,12.264c-.5,5.235-8.417,8.766-17.685,7.884-8.67-.826-15.445-5.222-15.875-10.071-.422,5.206,6.653,10.124,15.875,11,9.268.882,17.186-2.649,17.685-7.885a5.484,5.484,0,0,0,0-1.008c0,.026,0,.051,0,.077" transform="translate(-9.038 -1.977)" fill="#b3697b"/>
            <path id="Trazado_731774" data-name="Trazado 731774" d="M84.747,183.681c.129-.166.267-.326.415-.482a.961.961,0,0,1,.544-.342.707.707,0,0,1,.691.515,2.026,2.026,0,0,1,.018.924,78.858,78.858,0,0,1-2.11,10.272c-.362,1.265-1.012,3.073-.377,4.349s3.152,1.255,4.358,1.64c-1.347.739-3.11-.141-4.461.834-.639.461-.816,2.113-.986,2.848a17.245,17.245,0,0,1-2.069,5.075c.354-.582-.052-2.419.153-3.242.275-1.1,1.012-2.4.64-3.558-1.2,1.521-2.826,2.055-4.432,2.984-.618.358-1.024.895-1.633,1.257-.551.329-2.231.2-2.51.462a24.481,24.481,0,0,1,3.719-2.931c1.157-.727,2.883-2.491,4.181-2.8-1.721.689-4.112.533-5.946.862a1.342,1.342,0,0,1,.695-.969,3.953,3.953,0,0,1,1.166-.395,14.943,14.943,0,0,0,4.162-1.184c.554-.334,1.513-.347,1.761-1.025a10.606,10.606,0,0,0-.059-2.989c-.011-1.084-.207-2.155-.287-3.234-.2-2.674.71-6.746,2.368-8.877" transform="translate(-14.317 -35.868)" fill="#ff9000"/>
            <path id="Trazado_731775" data-name="Trazado 731775" d="M68.828,174.5a6.286,6.286,0,0,1,.415-.482.963.963,0,0,1,.544-.342.707.707,0,0,1,.69.515,2.026,2.026,0,0,1,.018.924,78.856,78.856,0,0,1-2.11,10.272c-.361,1.266-1.012,3.074-.377,4.35s3.152,1.254,4.358,1.639c-1.347.74-3.109-.141-4.461.834-.639.461-.816,2.112-.986,2.848a17.275,17.275,0,0,1-2.069,5.075c.354-.581-.052-2.419.153-3.241.275-1.1,1.011-2.4.639-3.559-1.2,1.522-2.826,2.055-4.431,2.984-.618.358-1.024.895-1.634,1.258-.551.328-2.231.2-2.51.461a24.481,24.481,0,0,1,3.719-2.931c1.158-.727,2.883-2.491,4.181-2.8-1.721.688-4.112.533-5.946.862a1.343,1.343,0,0,1,.695-.969,3.98,3.98,0,0,1,1.167-.395,14.944,14.944,0,0,0,4.162-1.184c.554-.334,1.512-.347,1.76-1.026a10.608,10.608,0,0,0-.059-2.99c-.011-1.083-.207-2.154-.287-3.232-.2-2.675.71-6.746,2.369-8.878" transform="translate(-11.194 -34.068)" fill="#ff9000"/>
            <path id="Trazado_731776" data-name="Trazado 731776" d="M89.991,189.7c-1.624,2.65-4.356,4.825-7.461,4.942a10.4,10.4,0,0,1-2.578-.277,19.468,19.468,0,0,1-10.387-6.078,1.864,1.864,0,0,1-.557-1.01,1.95,1.95,0,0,1,.883-1.483,39.494,39.494,0,0,1,9.524-6.345,23.439,23.439,0,0,1,11.153-2.21,2.807,2.807,0,0,1,1.031.211c1.49.709,1.31,3.735,1.032,5.092a22.422,22.422,0,0,1-2.64,7.157" transform="translate(-13.535 -34.758)" fill="#dbcca0"/>
            <path id="Trazado_731777" data-name="Trazado 731777" d="M70.669,144.843c-1.737.863-3.448,1.776-5.147,2.713-1.845,1.017-3.882,2.357-4.131,4.448a1.108,1.108,0,0,0,.058.6,1.223,1.223,0,0,0,.484.473c2.364,1.508,5.4,1.516,8.147.961a20.844,20.844,0,0,0,12.694-7.95c2.208-3.041-.073-4.053-3.055-4-3.186.056-6.24,1.36-9.049,2.756" transform="translate(-12.039 -27.871)" fill="#e6dbbc"/>
            <path id="Trazado_731778" data-name="Trazado 731778" d="M110.222,145.453c-.011.025-.023.049-.035.073a4.552,4.552,0,0,1-2.65,2.134c-2.282.79-4.347,1.15-6.536.063a9.209,9.209,0,0,1-4.119-13.571q1.192-1.854,2.537-3.606a5.853,5.853,0,0,1,1.613-1.591,2.152,2.152,0,0,1,2.168-.094,3.26,3.26,0,0,1,1.1,2.593q.21,2.138.419,4.276a13.331,13.331,0,0,1,2.443-.223,2.616,2.616,0,0,1,1.889,2.245,7.688,7.688,0,0,1-.367,3.084,1.523,1.523,0,0,1,1.76.853,3.65,3.65,0,0,1,.207,2.1,5.551,5.551,0,0,1-.427,1.665" transform="translate(-18.717 -25.227)" fill="#fbf5eb"/>
            <path id="Trazado_731779" data-name="Trazado 731779" d="M96.984,159.879a15.185,15.185,0,0,1-.743,4.816,22.814,22.814,0,0,1-1.953,3.77c-.863,1.484-1.665,3.028-2.62,4.467-.318.5-.666.969-1.03,1.439-1.892,2.392-4.451,3.482-7.131,4.739a28.312,28.312,0,0,1-9.434,2.816,57.634,57.634,0,0,1-13.128-.152c-2.65-.378-4.8-1.877-7.193-2.952a21.914,21.914,0,0,1-6.026-4.331c-1.3-1.256-1.923-3.194-2.786-4.724a7.118,7.118,0,0,1-.909-4.558c.031-.348.076-.711.137-1.075a14.543,14.543,0,0,1,5.875-9.768c.393-.272.818-.53,1.241-.772.682-.394,1.409-.757,2.135-1.091a67.975,67.975,0,0,1,6.3-2.634c.879-.3,1.771-.576,2.665-.8A20.784,20.784,0,0,1,64.7,148.6a10.111,10.111,0,0,0,3.089-1.181c2.726-1.393,5.451-2.8,8.176-4.2a26.527,26.527,0,0,0,3.862-2.256,28.138,28.138,0,0,1,4.255-3.12,7.236,7.236,0,0,1,7.557.908c2.331,1.908,3.209,5.043,3.83,7.981a57.492,57.492,0,0,1,1.514,13.143" transform="translate(-8.627 -26.907)" fill="#f5ead8"/>
            <g id="Grupo_997323" data-name="Grupo 997323" transform="translate(35.025 120.751)" style="mix-blend-mode: multiply;isolation: isolate">
              <g id="Grupo_997322" data-name="Grupo 997322">
                <g id="Grupo_997321" data-name="Grupo 997321" clip-path="url(#clip-path-16)">
                  <path id="Trazado_731780" data-name="Trazado 731780" d="M91.588,175.49c-.318.5-.666.969-1.03,1.439-1.893,2.391-4.452,3.482-7.132,4.739a28.289,28.289,0,0,1-9.434,2.817,57.634,57.634,0,0,1-13.128-.152c-2.65-.378-4.8-1.877-7.193-2.952a21.938,21.938,0,0,1-6.026-4.331c-1.3-1.256-1.923-3.194-2.786-4.724a7.118,7.118,0,0,1-.909-4.558,11.23,11.23,0,0,1-.378-3.15,34.026,34.026,0,0,1,.181-3.512,17.812,17.812,0,0,1,.818-3.634c.666-2.287,1.347-4.588,2.029-6.874.031-.121.076-.257.106-.379,1.756,1.182,3.649,2.06,4.255,4.346a7.678,7.678,0,0,1,.242,1.59c.167,2-.166,4.194-.03,6.117a19.294,19.294,0,0,0,1.772,6.95,13.868,13.868,0,0,0,2.347,3.423,24.209,24.209,0,0,0,4.6,3.513,27.591,27.591,0,0,0,5.284,2.891,20,20,0,0,0,5.512,1.076,37.152,37.152,0,0,0,19.624-3.937c.424-.211.863-.454,1.272-.7" transform="translate(-43.571 -150.217)" fill="#f1ede4"/>
                </g>
              </g>
            </g>
            <path id="Trazado_731781" data-name="Trazado 731781" d="M64.817,157.7a10.84,10.84,0,0,1-5.027,5.118,18.557,18.557,0,0,1-6.617,2.029c-.076.015-.151.015-.227.031-2.121.273-4.134,1.211-6.3,1.105-1.5-.06-2.3-1.136-2.7-2.559a11.221,11.221,0,0,1-.378-3.149,34.026,34.026,0,0,1,.181-3.512,17.832,17.832,0,0,1,.818-3.635c.666-2.286,1.347-4.588,2.029-6.874.031-.121.076-.258.106-.379.863-2.877,1.65-5.906.969-8.828a9.2,9.2,0,0,1-.393-1.923,5.083,5.083,0,0,1,1.514-3.468,11.2,11.2,0,0,1,5.8-3.437,2.7,2.7,0,0,1,3.846,2.135c1.015,3.619.621,7.481.924,11.236a9.28,9.28,0,0,0,1.014,3.891,5.593,5.593,0,0,0,1.924,1.8c1.03.7,2.029,1.363,2.1,3.029a12.653,12.653,0,0,0,.137,2.937c.166.53.454,1.014.605,1.559a4.354,4.354,0,0,1-.333,2.892" transform="translate(-8.547 -25.119)" fill="#fbf5eb"/>
            <g id="Grupo_997326" data-name="Grupo 997326" transform="translate(35.025 120.751)" style="mix-blend-mode: multiply;isolation: isolate">
              <g id="Grupo_997325" data-name="Grupo 997325">
                <g id="Grupo_997324" data-name="Grupo 997324" clip-path="url(#clip-path-17)">
                  <path id="Trazado_731782" data-name="Trazado 731782" d="M46.647,170.326c2.165.106,4.179-.833,6.3-1.105a19.311,19.311,0,0,1-1.772-6.95c-.136-1.923.2-4.118.031-6.117a7.724,7.724,0,0,0-.243-1.59c-.606-2.287-2.5-3.166-4.255-4.346-.03.121-.076.257-.106.379-.681,2.287-1.363,4.588-2.029,6.874a17.781,17.781,0,0,0-.818,3.634,34.028,34.028,0,0,0-.182,3.514,11.219,11.219,0,0,0,.379,3.149c.393,1.424,1.2,2.5,2.7,2.559" transform="translate(-43.571 -150.217)" fill="#fcf6f0"/>
                </g>
              </g>
            </g>
            <path id="Trazado_731783" data-name="Trazado 731783" d="M41.207,142.586c-.763-4.2,1.762-8.26,4.42-11.606a10.837,10.837,0,0,1,4.953-3.793c1.458-.47,4.724-.955,6.193-.415a2.467,2.467,0,0,1,1.161,1.127c1.284,2.124,1.166,4.514,1.227,6.9a11.584,11.584,0,0,1-1.817,6.9,13.963,13.963,0,0,1-4.056,3.715,8.716,8.716,0,0,1-2.559,1.178c-1.9.462-4.482-.228-5.526-1.987-1.191-2.008-.871-3.135-3.993-2.012" transform="translate(-8.056 -24.821)" fill="#f9f2e7"/>
            <path id="Trazado_731784" data-name="Trazado 731784" d="M48.943,141.8c.168.34.244.72.408,1.062a1.119,1.119,0,0,0,.84.693,1.215,1.215,0,0,0,.728-.236,4.308,4.308,0,0,0,.905-.8c1.523-1.729,2.709-5.955.2-7.4a2.728,2.728,0,0,0-3.462.68,17.018,17.018,0,0,1-1.163,1.6,5.008,5.008,0,0,1-1.833,1.079.722.722,0,0,0-.341.2.688.688,0,0,0-.066.485.629.629,0,0,0,.073.266.458.458,0,0,0,.163.145c.632.369,1.519-.134,2.058.372a7.451,7.451,0,0,1,1.484,1.841" transform="translate(-8.857 -26.438)" fill="#ec2720"/>
            <path id="Trazado_731785" data-name="Trazado 731785" d="M43.436,139.984c-.145-.026-.293-.023-.437-.052-.281-.056-.573-.23-.834-.112a.981.981,0,0,0-.356.381,6.343,6.343,0,0,1-.973.936c-.3.287-.477.646-.759.949a5.623,5.623,0,0,0-1.328,2.25A20.277,20.277,0,0,0,38,148.6a43.036,43.036,0,0,0,6.012-2.083,2.275,2.275,0,0,0,.746-.616c.956-1.258.1-3.126-.428-4.379-.155-.368-.317-.733-.467-1.1-.1-.245-.119-.379-.43-.438" transform="translate(-7.455 -27.419)" fill="#ffb800"/>
            <path id="Trazado_731786" data-name="Trazado 731786" d="M42.51,146.438a15.23,15.23,0,0,1-3.6.7q.3-1.221.6-2.443c.082-.337.164-.674.277-1a6.566,6.566,0,0,1,.88-1.654,9.853,9.853,0,0,1,2.08-2.174.805.805,0,0,0-.58-.042.982.982,0,0,0-.355.382,6.377,6.377,0,0,1-.973.935c-.3.287-.477.646-.759.949a5.613,5.613,0,0,0-1.328,2.25A20.286,20.286,0,0,0,38,148.6a43.034,43.034,0,0,0,6.012-2.083,2.125,2.125,0,0,0,1.168-2.136,5.223,5.223,0,0,1-2.674,2.053" transform="translate(-7.455 -27.419)" fill="#ff9000"/>
            <path id="Trazado_731787" data-name="Trazado 731787" d="M57.651,132.243c1.2.795,2.669-.217,3.4-1.445a2.376,2.376,0,0,0,.129-1.563,4.8,4.8,0,0,0-1.016-2.752,3.846,3.846,0,0,1-.852-.909c-.277-.576.006-1.26-.075-1.894a2.314,2.314,0,0,0-2.452-1.726,8.02,8.02,0,0,0-3.091,1.051,1.441,1.441,0,0,1-.863.2,1.873,1.873,0,0,1-.763-.481,3.6,3.6,0,0,0-5.206,1.033c-.585,1.08-.6,2.48-1.48,3.342-1.061,1.043-2.968.87-3.92,2.012-.807.97,1,2.918,1.445,6.038.018.13.23-.123.332-.2,1.1-.874,1.1-1.543,1.869-2.682.716-1.063,1.154-1.142,2.327-1.728.991-.667,3.6-2.5,4.789-2.633A3.838,3.838,0,0,1,55.5,129c.7.775.95,1.855,1.577,2.686a2.367,2.367,0,0,0,.575.555" transform="translate(-8.094 -23.922)" fill="#ec2720"/>
            <path id="Trazado_731788" data-name="Trazado 731788" d="M53.03,139.14c.1-2.2-3.322-.924-2.256.692a1.194,1.194,0,0,0,.441.4,1.32,1.32,0,0,0,1.815-1.09" transform="translate(-9.919 -27.063)" fill="#4a2109"/>
            <path id="Trazado_731789" data-name="Trazado 731789" d="M67.894,162.653c-.95,3.153-1.424,6.7.082,9.634a15.678,15.678,0,0,0,1.636,2.4c1.744,2.248,3.629,4.6,6.3,5.581a12.191,12.191,0,0,0,4.308.588,23.644,23.644,0,0,0,6.266-.835,30.918,30.918,0,0,0,5.2-2.113,15.147,15.147,0,0,0,3.74-2.379,5.869,5.869,0,0,0,1.979-3.863,7.453,7.453,0,0,0-1.887-4.717,18.372,18.372,0,0,0-3.645-3.631c-2.782-2.051-6.142-3.131-9.436-4.177a28.4,28.4,0,0,0-6.12-1.454c-1.609-.137-4.049-.274-5.559.433-1.612.756-2.394,2.96-2.868,4.532" transform="translate(-13.144 -30.91)" fill="#e6dbbc"/>
            <path id="Trazado_731790" data-name="Trazado 731790" d="M74.538,149.519a21.706,21.706,0,0,0-6.266,5,9.6,9.6,0,0,0-2.512,6.207,11.311,11.311,0,0,0,1.351,5.19c2.425,4.83,6.561,9.543,12.116,10.522a19.444,19.444,0,0,0,11.3-1.914c2.991-1.36,6.735-2.965,8.827-5.589a28.542,28.542,0,0,0,6.009-14.571c.162-1.465.022-3.281-1.3-3.927a7.056,7.056,0,0,1-1.214-.517c-.94-.7-.477-2.215-.919-3.3a2.95,2.95,0,0,0-2.418-1.588,22.935,22.935,0,0,0-3.027.031,1.461,1.461,0,0,1-.8-.165,1.694,1.694,0,0,1-.549-.8,6.624,6.624,0,0,0-1.932-2.68,3.287,3.287,0,0,0-3.143-.554,5.749,5.749,0,0,0-1.621,1.211c-3.932,3.637-8.546,4.759-13.171,7.076q-.365.183-.731.375" transform="translate(-12.899 -27.592)" fill="#fbf5eb"/>
            <path id="Trazado_731791" data-name="Trazado 731791" d="M82.963,151.3A101.692,101.692,0,0,0,94.6,147.331c1.49-.611,3.028-1.6,3.155-3.381a.465.465,0,0,0-.09-.374.451.451,0,0,0-.33-.094,4.581,4.581,0,0,0-1.055.178,30.486,30.486,0,0,0-7.423,2.563c-2.227,1.235-3.8,3.576-5.893,5.072" transform="translate(-16.274 -28.145)" fill="#fffbf5"/>
            <path id="Trazado_731792" data-name="Trazado 731792" d="M105.238,150.912c.639-1.462-.152-2.2-1.476-1.9a40.249,40.249,0,0,0-7.251,2.6c-2.637,1.16-4.666,3.419-7.295,4.6,2.248-.265,4.5-.515,6.744-.8,3.419-.428,7.674-.83,9.277-4.5" transform="translate(-17.5 -29.216)" fill="#fffbf5"/>
            <path id="Trazado_731793" data-name="Trazado 731793" d="M99.981,158.441a43.812,43.812,0,0,0-5.889,3.088c3.85.024,8.135-.273,11.725-1.753a6.912,6.912,0,0,0,3.039-2.288c.858-1.142.482-1.919-1-1.6A42.212,42.212,0,0,0,103,157.269q-1.53.531-3.017,1.172" transform="translate(-18.457 -30.565)" fill="#fffbf5"/>
            <path id="Trazado_731794" data-name="Trazado 731794" d="M57.181,161.613c.148.517.452,1.134.99,1.114.427-.016.709-.442.886-.831a8.63,8.63,0,0,0,.721-2.622,5.092,5.092,0,0,0,1.393,2.038c.257.228.626.438.924.268a.878.878,0,0,0,.322-.433c.535-1.2.8-2.741-.066-3.729a6.244,6.244,0,0,0-.962-.782,9.338,9.338,0,0,1-2.223-2.645c-.478-.785-1.018-2.528-1.77-3.046-.656-.452-.633.646-.738,1.174-.1.5-.217,1.01-.3,1.517a13.266,13.266,0,0,0-.029,3.287,24.462,24.462,0,0,0,.855,4.691" transform="translate(-11.031 -29.588)" fill="#fffbf5"/>
            <path id="Trazado_731795" data-name="Trazado 731795" d="M105.88,166.5a14.326,14.326,0,0,1-6.338,1.771c-1.149.089-2.3.1-3.453.072-.573-.013-2.707.217-3.084-.121a10.4,10.4,0,0,0,6.435,2.62,4.207,4.207,0,0,1,1.389.184c.2.079.38.194.573.287a2.95,2.95,0,0,0,2.744-.115.842.842,0,0,0,.381-.382.67.67,0,0,0-.288-.748,1.962,1.962,0,0,0-.814-.267,7.387,7.387,0,0,0,3.385-1.936,1.833,1.833,0,0,0,.518-.774.748.748,0,0,0-.272-.833c-.363-.217-.814.024-1.177.24" transform="translate(-18.244 -32.596)" fill="#fffbf5"/>
            <path id="Trazado_731796" data-name="Trazado 731796" d="M73.907,160.79a25.767,25.767,0,0,0,4.547,1.151c1.563.1,3.339-.559,3.884-2.028a1.236,1.236,0,0,0,.088-.624,2.026,2.026,0,0,0-.515-.854,4.243,4.243,0,0,1,.757-5.8c1.3-.975,3.573-1.248,4.167-2.913-6.738.419-16.293,4.285-19.044,10.974a15.515,15.515,0,0,1,6.116.095" transform="translate(-13.298 -29.369)" fill="#fffbf5"/>
            <g id="Grupo_997329" data-name="Grupo 997329" transform="translate(52.86 125.975)" style="mix-blend-mode: multiply;isolation: isolate">
              <g id="Grupo_997328" data-name="Grupo 997328">
                <g id="Grupo_997327" data-name="Grupo 997327" clip-path="url(#clip-path-18)">
                  <path id="Trazado_731797" data-name="Trazado 731797" d="M96.693,172.186c-2.691,1.479-5.353,3.206-8.384,3.7a17.24,17.24,0,0,1-5.473-.166,13.38,13.38,0,0,1-3.7-1.028,15.955,15.955,0,0,1-2.528-1.632L73.961,171.1a14.443,14.443,0,0,1-3.842-3.648,12.1,12.1,0,0,1-1.477-4.258,12.492,12.492,0,0,1-.232-4.28,6.292,6.292,0,0,1,.776-2.2c-.3.311-.609.614-.912.95a9.6,9.6,0,0,0-2.513,6.208,11.314,11.314,0,0,0,1.352,5.19c2.425,4.83,6.561,9.542,12.115,10.523a19.458,19.458,0,0,0,11.3-1.914c2.99-1.36,6.735-2.965,8.828-5.591.546-.686,1.047-1.405,1.525-2.139-1.383.767-2.8,1.48-4.186,2.243" transform="translate(-65.759 -156.716)" fill="#f1ede4"/>
                </g>
              </g>
            </g>
            <path id="Trazado_731798" data-name="Trazado 731798" d="M41.268,141.741a2.556,2.556,0,0,0-.379.431,9.136,9.136,0,0,0-1.413,3.194c-.1.461,1.4.063,1.572,0a6.192,6.192,0,0,0,1.608-.8,5.574,5.574,0,0,0,1.285-1.242,1.211,1.211,0,0,0,.344-.718,3.98,3.98,0,0,0-.138-1.114c-.095-.371-.206-.949-.671-.955a2.6,2.6,0,0,0-1.416.613,7.977,7.977,0,0,0-.791.592" transform="translate(-7.742 -27.567)" fill="#ffd94d"/>
            <path id="Trazado_731799" data-name="Trazado 731799" d="M52.483,138.445a.346.346,0,0,0-.224-.059.693.693,0,0,0-.27.027.466.466,0,0,0-.256.3,1.345,1.345,0,0,0-.047.4.261.261,0,0,0,.025.143c.054.077.166.067.26.08a2.094,2.094,0,0,1,.418.186.554.554,0,0,0,.465-.018.413.413,0,0,0,.217-.4.725.725,0,0,0-.338-.445c-.081-.063-.164-.126-.246-.189Z" transform="translate(-10.138 -27.145)" fill="#907668"/>
            <path id="Trazado_731800" data-name="Trazado 731800" d="M42.172,130.323c-.071-.355-.224-.735.023-1.051a1,1,0,0,1,.4-.277,4.926,4.926,0,0,1,1.6-.42,6.071,6.071,0,0,0,1.385-.163,3.36,3.36,0,0,0,1.832-2.379,6.483,6.483,0,0,1,1.276-2.811,3.34,3.34,0,0,1,2.392-1.019,2.393,2.393,0,0,1,1.457.3c.31.219.481.586.868.7a1.316,1.316,0,0,0,.683-.022c1.066-.264,2.006-1.057,3.1-1.027a2.225,2.225,0,0,1,2.081,2.209c-.018.555-.234,1.182.107,1.622.294.379.859.407,1.251.686a2.137,2.137,0,0,1,.6,1.928,14.587,14.587,0,0,1-.3,2.192c-.07.328-.208.713-.537.783a6.481,6.481,0,0,0-1.5-3.73,9.426,9.426,0,0,1-.821-.769c-.433-.533-.584-1.285-1.123-1.71a2.55,2.55,0,0,0-1.3-.426,9.017,9.017,0,0,0-5.172.719,12.765,12.765,0,0,0-2.319,1.674c-.611.515-1.223,1.031-1.806,1.579-.544.511-1.063,1.049-1.625,1.541-.257.225-.544.381-.645.723a5.321,5.321,0,0,0-.076.987,9.366,9.366,0,0,0,.06,1.38,15.672,15.672,0,0,1,2.552-2.7,1.6,1.6,0,0,1,.457-.3.589.589,0,0,1,.527.035,7.574,7.574,0,0,0-1.322,1.348c-.265.348-.5.719-.757,1.074a10.515,10.515,0,0,1-1.785,1.908c-.078.064-.187.13-.272.076a4.833,4.833,0,0,0-.277-1.583,14.089,14.089,0,0,0-.743-1.838,3.263,3.263,0,0,1-.244-1.073c0-.054-.014-.109-.025-.165" transform="translate(-8.25 -23.96)" fill="#fa4741"/>
            <path id="Trazado_731801" data-name="Trazado 731801" d="M114.637,146.423a14.464,14.464,0,0,1-1.155,3.371c-.5,1.08-1.024,2.161-1.621,3.2-1.062,1.826-10.151,14.566-11.567,16.261-2.961,3.539-6.034,7-9.182,10.375a43.838,43.838,0,0,1-9.183,8.028A11.554,11.554,0,0,1,77.215,189a15.406,15.406,0,0,1-3.818-.038,43.052,43.052,0,0,1-5.961-1.6,59.4,59.4,0,0,1-6.129-2.086,31.725,31.725,0,0,1-3.558-1.584,20.61,20.61,0,0,1-2.961-2.291c-1.155-.968-2.291-1.956-3.39-2.98a8.768,8.768,0,0,1-1.621-2.161.018.018,0,0,0-.018-.018c-.112-.223-.242-.485-.092-.708a.639.639,0,0,1,.465-.2,6.648,6.648,0,0,1,2.794.522,65.611,65.611,0,0,1,8.326,3.595c.67.335,2.44,1.527,3.223,1.006.744-.5-.838-2.216-1.193-2.645a66.3,66.3,0,0,0-5.1-4.88A5.538,5.538,0,0,1,57,171.457a1.462,1.462,0,0,1-.167-.968c.149-.633.875-.764,1.434-.727a5.238,5.238,0,0,1,2.813.8,17.882,17.882,0,0,1,2.7,1.863c.447.41.875.857,1.341,1.267a13.42,13.42,0,0,0,5.235,2.533,11.079,11.079,0,0,1,2.142.82c.689.373,1.285.875,1.993,1.211a4.2,4.2,0,0,0,2.272.5c1.248-.2,2.161-1.527,2.831-2.459a24.024,24.024,0,0,0,2.086-3.781c1.155-2.4,2.31-4.825,3.465-7.227,1.789-3.744,3.279-7.563,5.16-11.251,1.23-2.4,2.7-4.657,3.781-7.1a16.407,16.407,0,0,0,1.453-5.03c.186-1.695.111-2.793-1.043-4.042-1.639-1.751-2.869-4.173-4.191-6.165-1.267-1.937-2.533-3.893-3.725-5.886-1.4-2.31-2.72-4.657-3.949-7.079,2.142-1.639,5.178-2.347,7.711-3.241,2.067-.745,4.136-1.49,6.147-2.384a12.014,12.014,0,0,0,2.626-1.341,11.294,11.294,0,0,0,1.658-1.77,119.077,119.077,0,0,1,7.86,15.722c1.118,2.719,4,10.244,4.359,11.325.465,1.416.894,2.85,1.341,4.266a10.223,10.223,0,0,1,.3,5.1" transform="translate(-9.729 -21.578)" fill="#ffd6bf"/>
            <path id="Trazado_731802" data-name="Trazado 731802" d="M114.68,146.423a14.464,14.464,0,0,1-1.155,3.371c-.5,1.08-1.024,2.161-1.621,3.2-1.062,1.826-10.151,14.566-11.567,16.261-2.961,3.539-6.034,7-9.182,10.375a43.838,43.838,0,0,1-9.183,8.028A11.554,11.554,0,0,1,77.259,189a15.406,15.406,0,0,1-3.818-.038,43.052,43.052,0,0,1-5.961-1.6,59.4,59.4,0,0,1-6.129-2.086,31.725,31.725,0,0,1-3.558-1.584,20.61,20.61,0,0,1-2.961-2.291c-1.155-.968-2.291-1.956-3.39-2.98a8.768,8.768,0,0,1-1.621-2.161C55.354,180.3,60.494,185,67.07,186.527a19.6,19.6,0,0,0,8.941-.019c9.332-2.217,15.591-10.748,21.011-18.664,2.608-3.818,5.215-7.618,7.841-11.437,2.31-3.408,4.713-6.985,5.16-11.083.391-3.781-.913-7.507-2.217-11.083-1.621-4.452-3.222-8.886-4.842-13.319a4,4,0,0,0-1.621-2.366,3.375,3.375,0,0,0-1.769-.242,16.974,16.974,0,0,0-10.729,4.768c-.707.708-1.379,1.994-2.216,2.739-1.4-2.31-2.72-4.657-3.949-7.079,2.142-1.639,5.178-2.347,7.711-3.241,2.067-.745,4.136-1.49,6.147-2.384a12.014,12.014,0,0,0,2.626-1.341,11.294,11.294,0,0,0,1.658-1.77,119.077,119.077,0,0,1,7.86,15.722c1.118,2.719,4,10.244,4.359,11.325.465,1.416.894,2.85,1.341,4.266a10.223,10.223,0,0,1,.3,5.1" transform="translate(-9.773 -21.578)" fill="#ffc6a6"/>
            <path id="Trazado_731803" data-name="Trazado 731803" d="M111.3,111.24a17.419,17.419,0,0,0-16.149,3.39,6.641,6.641,0,0,0-2.589,4.135,8.265,8.265,0,0,0,.279,2.608c-.931-.875-1.9-1.677-2.812-2.515v-.018a16.65,16.65,0,0,1-1.49-1.546,20.449,20.449,0,0,1-2.589-4.3,34.145,34.145,0,0,1-2.962-9.723c-.54-3.408-.782-6.985.335-10.3a15.989,15.989,0,0,1,2.757-4.917c.428-.54.894-1.043,1.359-1.546,2.087-2.162,5.625-3.67,8.457-1.938a11.5,11.5,0,0,1,2.719,2.477c1.993,2.4,8.1,14.268,9.574,17.416.3.615,1.006,2.272,1.677,3.781a24.469,24.469,0,0,0,1.434,3" transform="translate(-16.189 -16.44)" fill="#8acef0"/>
            <path id="Trazado_731804" data-name="Trazado 731804" d="M113.127,117.1a17.419,17.419,0,0,0-16.149,3.39,6.641,6.641,0,0,0-2.589,4.135,8.265,8.265,0,0,0,.279,2.608c-.931-.875-1.9-1.677-2.812-2.515V124.7a14.033,14.033,0,0,1,3.5-5.737,15.734,15.734,0,0,1,8.568-4.917,19.832,19.832,0,0,1,7.768.055,24.469,24.469,0,0,0,1.434,3" transform="translate(-18.018 -22.3)" fill="#f2f2f2"/>
            <path id="Trazado_731805" data-name="Trazado 731805" d="M46.791,169.4a1.069,1.069,0,0,1-.522,1.08.727.727,0,0,0-.26.149.984.984,0,0,0-.2.391c-.28.559-1.211.465-1.714.391a9.824,9.824,0,0,1-2.142-.653,2.806,2.806,0,0,1,.3.633.754.754,0,0,1,.055.28.724.724,0,0,1-.447.782,1.224,1.224,0,0,1-.521,0,22.512,22.512,0,0,1-3.651-1.192q-6.454-2.542-12.648-5.644a78.184,78.184,0,0,1-7.077-4.638,88.563,88.563,0,0,1-7.173-6.017A50.659,50.659,0,0,1,3.8,146.25a27.019,27.019,0,0,1-3.428-6.836c-.82-2.869-.187-5.532.893-8.271a9.02,9.02,0,0,1,.782-1.583,4.573,4.573,0,0,1,1.621-1.7,6.023,6.023,0,0,1,4.882.037,9.105,9.105,0,0,1,3.091,1.7,11.239,11.239,0,0,1,2.738,4.433,59.031,59.031,0,0,1,2.088,6.37c.391,1.453.707,2.924,1.228,4.34a15.428,15.428,0,0,0,1.64,3.223,5.394,5.394,0,0,0,.838,1.341A2.466,2.466,0,0,0,22,149.79c.67-.075,1.322-.038,1.992-.075a16.672,16.672,0,0,0,3.595-.633c1.36-.354,2.682-.8,4.043-1.154a44.8,44.8,0,0,1,5.625-1.1,21.74,21.74,0,0,0,2.254-.2c.745-.186,1.564-1.024,2.366-.5a1.139,1.139,0,0,1,.409,1.192,2.465,2.465,0,0,1-.745,1.117,6.7,6.7,0,0,1-4.284,1.714,4.776,4.776,0,0,0-1.639.223,5.057,5.057,0,0,0-2.4,1.583c-.6,1.006.038,2.31.857,3.167,2.981,3.092,7.954,3.353,11.251,6.109.391.335.783.838.6,1.323a1.067,1.067,0,0,1-.6.54A4.252,4.252,0,0,1,42.731,163c-1.621-.41-3.241-.895-4.843-1.435-.8-.279-1.621-.577-2.4-.875-.336-.13-.653-.186-.969-.279-.186-.056-.428-.335-.614-.186a.271.271,0,0,0,0,.391.883.883,0,0,0,.391.2,21.557,21.557,0,0,1,4.415,2.031c1.453.838,2.869,1.7,4.284,2.608a11.839,11.839,0,0,1,3.278,2.794,3.643,3.643,0,0,1,.242.335,1.866,1.866,0,0,1,.28.82" transform="translate(0 -24.982)" fill="#ffd6bf"/>
            <path id="Trazado_731806" data-name="Trazado 731806" d="M42.3,172.213a.725.725,0,0,1-.447.782,1.215,1.215,0,0,1-.522,0,22.538,22.538,0,0,1-3.651-1.192q-6.453-2.542-12.647-5.644a78.261,78.261,0,0,1-7.079-4.638,88.7,88.7,0,0,1-7.171-6.016A50.705,50.705,0,0,1,3.8,146.787a27.043,27.043,0,0,1-3.427-6.836c-.82-2.869-.186-5.532.894-8.271A8.963,8.963,0,0,1,2.05,130.1a4.562,4.562,0,0,1-.28,1.583,10.974,10.974,0,0,0,.075,4.918,24.093,24.093,0,0,0,2.2,5.849C8.42,151,15.7,157.815,23.843,162.937a111.427,111.427,0,0,0,18.4,9,.754.754,0,0,1,.055.28" transform="translate(0 -25.519)" fill="#ffc6a6"/>
          </g>
        </g>
      </g>
    </g>
  </g>
</svg>
