<svg id="Grupo_997339" data-name="Grupo 997339" xmlns="http://www.w3.org/2000/svg" xmlns:xlink="http://www.w3.org/1999/xlink" width="223.734" height="220" viewBox="0 0 223.734 220">
  <defs>
    <clipPath id="clip-path">
      <rect id="Rectángulo_349720" data-name="Rectángulo 349720" width="223.734" height="220" fill="none"/>
    </clipPath>
  </defs>
  <path id="Trazado_732199" data-name="Trazado 732199" d="M2.927,66.218l161.127,93.347,56.125-32.84L59.05,33.378Z" transform="translate(3.554 40.536)" fill="#7c5757"/>
  <path id="Trazado_732200" data-name="Trazado 732200" d="M2.927,48.208v4.258l161.129,93.35v-4.261Z" transform="translate(3.554 58.546)" fill="#6d4a4a"/>
  <path id="Trazado_732201" data-name="Trazado 732201" d="M75.689,108.372v4.258l56.125-32.838V75.532Z" transform="translate(91.92 91.73)" fill="#5e3d3d"/>
  <g id="Grupo_997338" data-name="Grupo 997338" transform="translate(0 0)">
    <g id="Grupo_997337" data-name="Grupo 997337" clip-path="url(#clip-path)">
      <path id="Trazado_732202" data-name="Trazado 732202" d="M36.222,93.736l10.463-24.3L11.577,49.195,0,55.878V70.852a2.93,2.93,0,0,0,1.18,2.7.059.059,0,0,1,.035,0Z" transform="translate(0 59.745)" fill="#ceb5b3"/>
      <path id="Trazado_732203" data-name="Trazado 732203" d="M27.431,58.337V73.311a7.938,7.938,0,0,1-3.3,6.311l-4.969,2.87c-1.816,1.047-3.3-.075-3.3-2.5V65.02Z" transform="translate(19.254 70.847)" fill="#ddc6c3"/>
      <path id="Trazado_732204" data-name="Trazado 732204" d="M46.685,69.438,11.577,49.2,0,55.879,35.108,76.121Z" transform="translate(0 59.746)" fill="#ead8d6"/>
      <path id="Trazado_732205" data-name="Trazado 732205" d="M6.153,55.619c.961-1.2,2.706-2.25,3.939-1.422a2.608,2.608,0,0,1,2.611-.846,2.792,2.792,0,0,1,1.847,1.78,1.211,1.211,0,0,1,1.309-.089,1.374,1.374,0,0,1,.649,1.506,1.5,1.5,0,0,1,1.431.368,1.54,1.54,0,0,1,.465,1.167,2.818,2.818,0,0,1,2.575-.193,2.47,2.47,0,0,1,1.185,1.543,1.38,1.38,0,0,1,1.171-.175A1.573,1.573,0,0,1,24.4,60.6a1.611,1.611,0,0,1,2.181-.053,2.4,2.4,0,0,1,.647,2.124,2.046,2.046,0,0,1,2.431-.024,1.886,1.886,0,0,1,.432,1.136,2.474,2.474,0,0,1,2.341.4A3.178,3.178,0,0,1,33.3,65.4a1.6,1.6,0,0,1,1.92.983,2.448,2.448,0,0,1,2.735.9,3.089,3.089,0,0,1,.328,1.462,1.807,1.807,0,0,1,1.373.159c.365.148.25.257.613.3.467.049,1.012-.266,1.541-.2a2.758,2.758,0,0,1,1.749.9l1.508-.87L11.153,49.465.473,55.632l2.141,1.236a3.325,3.325,0,0,1,.751-.915,2.345,2.345,0,0,1,2.788-.334" transform="translate(0.574 60.072)" fill="#ceb5b3"/>
      <path id="Trazado_732206" data-name="Trazado 732206" d="M40.631,66.915c-.531-.066-1.074.248-1.541.2-.363-.04-.248-.148-.613-.3a1.787,1.787,0,0,0-1.373-.159,3.1,3.1,0,0,0-.328-1.464,2.444,2.444,0,0,0-2.735-.895,1.6,1.6,0,0,0-1.922-.983,3.134,3.134,0,0,0-.866-1.222,2.474,2.474,0,0,0-2.341-.4,1.894,1.894,0,0,0-.432-1.136,2.042,2.042,0,0,0-2.431.024,2.394,2.394,0,0,0-.649-2.124,1.608,1.608,0,0,0-2.179.053,1.574,1.574,0,0,0-1.061-1.34,1.373,1.373,0,0,0-1.171.175A2.458,2.458,0,0,0,19.8,55.8,2.816,2.816,0,0,0,17.227,56a1.521,1.521,0,0,0-.465-1.167,1.492,1.492,0,0,0-1.428-.368,1.372,1.372,0,0,0-.649-1.506,1.211,1.211,0,0,0-1.311.089,2.789,2.789,0,0,0-1.845-1.78,2.611,2.611,0,0,0-2.611.844c-1.233-.826-2.978.221-3.939,1.424a2.338,2.338,0,0,0-2.788.334,3.224,3.224,0,0,0-.751.915L33.206,73.111l9.174-5.3a2.764,2.764,0,0,0-1.749-.9" transform="translate(1.749 62.161)" fill="#f7c169"/>
      <path id="Trazado_732207" data-name="Trazado 732207" d="M6.285,52.129A.632.632,0,0,0,5.5,52.2a.547.547,0,0,0-.264.421c-.022.509.525.593.881.4s.567-.609.166-.892" transform="translate(6.36 63.181)" fill="#e8ac54"/>
      <path id="Trazado_732208" data-name="Trazado 732208" d="M11.162,55.563a.631.631,0,0,0-.784.075.547.547,0,0,0-.264.421c-.022.509.525.593.881.4s.567-.609.166-.892" transform="translate(12.282 67.352)" fill="#e8ac54"/>
      <path id="Trazado_732209" data-name="Trazado 732209" d="M16.617,59.649a.632.632,0,0,0-.784.075.547.547,0,0,0-.264.421c-.022.509.525.593.881.4s.567-.609.166-.892" transform="translate(18.907 72.314)" fill="#e8ac54"/>
      <path id="Trazado_732210" data-name="Trazado 732210" d="M4.911,53.208c-.089-.283-.489-.549-.771-.374-.011.009-.013.02-.024.029A.148.148,0,0,0,4,52.951a.684.684,0,0,0,.452.764.386.386,0,0,0,.458-.507" transform="translate(4.832 64.096)" fill="#e8ac54"/>
      <path id="Trazado_732211" data-name="Trazado 732211" d="M8.581,55.7c-.089-.283-.489-.549-.771-.374-.011.009-.013.02-.024.029a.148.148,0,0,0-.115.089.681.681,0,0,0,.452.764.386.386,0,0,0,.458-.507" transform="translate(9.288 67.128)" fill="#e8ac54"/>
      <path id="Trazado_732212" data-name="Trazado 732212" d="M12.626,58.136c-.089-.283-.489-.549-.771-.374-.011.009-.013.02-.024.029a.148.148,0,0,0-.115.089.681.681,0,0,0,.452.764.386.386,0,0,0,.458-.507" transform="translate(14.2 70.08)" fill="#e8ac54"/>
      <path id="Trazado_732213" data-name="Trazado 732213" d="M15.752,57.483c-.091-.283-.492-.549-.773-.374-.011.007-.013.02-.024.029a.141.141,0,0,0-.113.089.681.681,0,0,0,.45.764.388.388,0,0,0,.461-.507" transform="translate(17.996 69.287)" fill="#e8ac54"/>
      <path id="Trazado_732214" data-name="Trazado 732214" d="M5.911,53.668c-.093-.405-.638-.319-.912-.175-.018.011-.024.029-.038.042a.338.338,0,0,0-.2.213c-.12.37.248.472.529.456.3-.015.709-.146.618-.536" transform="translate(5.757 64.818)" fill="#e8ac54"/>
      <path id="Trazado_732215" data-name="Trazado 732215" d="M7.893,55.195c-.093-.405-.638-.319-.912-.175-.018.011-.024.029-.038.042a.338.338,0,0,0-.2.213c-.12.37.25.472.529.456.3-.016.709-.146.618-.536" transform="translate(8.164 66.673)" fill="#e8ac54"/>
      <path id="Trazado_732216" data-name="Trazado 732216" d="M11.979,55.566c-.093-.405-.64-.319-.912-.175-.018.011-.024.029-.038.042a.338.338,0,0,0-.2.213c-.12.37.248.472.529.456.3-.015.709-.146.618-.536" transform="translate(13.126 67.123)" fill="#e8ac54"/>
      <path id="Trazado_732217" data-name="Trazado 732217" d="M13.7,56.835c-.093-.4-.64-.317-.912-.173-.018.011-.024.029-.038.042a.338.338,0,0,0-.2.213c-.12.37.248.472.529.456.3-.015.709-.146.618-.538" transform="translate(15.213 68.667)" fill="#e8ac54"/>
      <path id="Trazado_732218" data-name="Trazado 732218" d="M16.758,57.59c-.093-.405-.64-.319-.912-.175-.018.011-.024.029-.038.042a.338.338,0,0,0-.2.213c-.12.37.248.472.529.456.3-.016.709-.146.618-.536" transform="translate(18.93 69.581)" fill="#e8ac54"/>
      <path id="Trazado_732219" data-name="Trazado 732219" d="M8.172,53.184a.554.554,0,0,0-.824.029.338.338,0,0,0-.208.239c-.075.388.363.578.68.483s.622-.438.352-.751" transform="translate(8.66 64.383)" fill="#e8ac54"/>
      <path id="Trazado_732220" data-name="Trazado 732220" d="M10.215,56.473a.554.554,0,0,0-.824.029.338.338,0,0,0-.208.239c-.075.388.363.578.68.483s.62-.438.352-.751" transform="translate(11.141 68.377)" fill="#e8ac54"/>
      <path id="Trazado_732221" data-name="Trazado 732221" d="M14.171,58.864a.556.556,0,0,0-.824.029.338.338,0,0,0-.208.239c-.075.388.363.578.68.483s.622-.438.352-.751" transform="translate(15.946 71.281)" fill="#e8ac54"/>
      <path id="Trazado_732222" data-name="Trazado 732222" d="M18.175,58.864a.556.556,0,0,0-.824.029.338.338,0,0,0-.208.239c-.075.388.363.578.68.483s.622-.438.352-.751" transform="translate(20.808 71.281)" fill="#e8ac54"/>
      <path id="Trazado_732223" data-name="Trazado 732223" d="M10.317,54.036a.554.554,0,0,0-.824.029.339.339,0,0,0-.208.237c-.075.39.363.58.68.485s.622-.438.352-.751" transform="translate(11.265 65.417)" fill="#e8ac54"/>
      <path id="Trazado_732224" data-name="Trazado 732224" d="M53.112,103.737l10.463-24.3L28.467,59.2,16.89,65.881V80.853a2.934,2.934,0,0,0,1.178,2.7.1.1,0,0,1,.038,0Z" transform="translate(20.512 71.89)" fill="#ceb5b3"/>
      <path id="Trazado_732225" data-name="Trazado 732225" d="M44.321,68.337V83.311a7.938,7.938,0,0,1-3.3,6.311l-4.969,2.87c-1.816,1.05-3.3-.075-3.3-2.5V75.02Z" transform="translate(39.766 82.991)" fill="#ddc6c3"/>
      <path id="Trazado_732226" data-name="Trazado 732226" d="M63.575,79.438,28.467,59.2,16.89,65.879,52,86.122Z" transform="translate(20.512 71.89)" fill="#ead8d6"/>
      <path id="Trazado_732227" data-name="Trazado 732227" d="M23.043,65.619c.961-1.2,2.706-2.25,3.939-1.422a2.608,2.608,0,0,1,2.611-.846,2.787,2.787,0,0,1,1.847,1.78,1.211,1.211,0,0,1,1.309-.089,1.378,1.378,0,0,1,.651,1.506,1.5,1.5,0,0,1,1.428.368,1.54,1.54,0,0,1,.465,1.167,2.818,2.818,0,0,1,2.575-.193,2.462,2.462,0,0,1,1.185,1.543,1.38,1.38,0,0,1,1.171-.175,1.573,1.573,0,0,1,1.061,1.34,1.611,1.611,0,0,1,2.181-.053,2.4,2.4,0,0,1,.647,2.124,2.042,2.042,0,0,1,2.431-.022,1.874,1.874,0,0,1,.432,1.134,2.48,2.48,0,0,1,2.341.4,3.153,3.153,0,0,1,.868,1.225,1.593,1.593,0,0,1,1.92.981,2.448,2.448,0,0,1,2.735.9,3.092,3.092,0,0,1,.328,1.464,1.8,1.8,0,0,1,1.373.157c.365.148.25.257.613.3.467.049,1.012-.266,1.541-.2a2.759,2.759,0,0,1,1.749.9l1.508-.87L28.043,59.465l-10.68,6.167L19.5,66.868a3.325,3.325,0,0,1,.751-.915,2.345,2.345,0,0,1,2.788-.334" transform="translate(21.086 72.217)" fill="#ceb5b3"/>
      <path id="Trazado_732228" data-name="Trazado 732228" d="M57.521,76.915c-.531-.066-1.074.248-1.541.2-.363-.04-.248-.148-.613-.3a1.8,1.8,0,0,0-1.373-.159,3.1,3.1,0,0,0-.328-1.464,2.444,2.444,0,0,0-2.735-.895,1.6,1.6,0,0,0-1.922-.983,3.134,3.134,0,0,0-.866-1.222,2.474,2.474,0,0,0-2.341-.4,1.894,1.894,0,0,0-.432-1.136,2.042,2.042,0,0,0-2.431.024,2.394,2.394,0,0,0-.649-2.124,1.608,1.608,0,0,0-2.179.053,1.574,1.574,0,0,0-1.061-1.34,1.373,1.373,0,0,0-1.171.175A2.471,2.471,0,0,0,36.694,65.8,2.816,2.816,0,0,0,34.117,66a1.521,1.521,0,0,0-.465-1.167,1.5,1.5,0,0,0-1.428-.368,1.372,1.372,0,0,0-.649-1.506,1.211,1.211,0,0,0-1.311.089,2.789,2.789,0,0,0-1.845-1.78,2.608,2.608,0,0,0-2.611.846c-1.236-.828-2.981.219-3.939,1.422a2.342,2.342,0,0,0-2.788.334,3.187,3.187,0,0,0-.751.915L50.1,83.111l9.174-5.3a2.764,2.764,0,0,0-1.749-.9" transform="translate(22.261 74.305)" fill="#f7c169"/>
      <path id="Trazado_732229" data-name="Trazado 732229" d="M23.175,62.129a.632.632,0,0,0-.784.075.548.548,0,0,0-.264.421c-.022.509.525.593.881.4s.567-.609.166-.892" transform="translate(26.872 75.326)" fill="#e8ac54"/>
      <path id="Trazado_732230" data-name="Trazado 732230" d="M28.052,65.563a.631.631,0,0,0-.784.075.548.548,0,0,0-.264.421c-.022.509.525.593.881.4s.567-.609.166-.892" transform="translate(32.794 79.496)" fill="#e8ac54"/>
      <path id="Trazado_732231" data-name="Trazado 732231" d="M33.507,69.649a.631.631,0,0,0-.784.075.548.548,0,0,0-.264.421c-.022.509.525.593.881.4s.567-.609.166-.892" transform="translate(39.419 84.458)" fill="#e8ac54"/>
      <path id="Trazado_732232" data-name="Trazado 732232" d="M21.8,63.209c-.089-.283-.489-.549-.771-.374-.011.009-.013.02-.024.029a.137.137,0,0,0-.113.089.681.681,0,0,0,.45.764.386.386,0,0,0,.458-.507" transform="translate(25.345 76.241)" fill="#e8ac54"/>
      <path id="Trazado_732233" data-name="Trazado 732233" d="M25.469,65.706c-.086-.283-.489-.549-.771-.374-.011.009-.013.02-.024.029a.141.141,0,0,0-.113.089.68.68,0,0,0,.45.764.386.386,0,0,0,.458-.507" transform="translate(29.801 79.274)" fill="#e8ac54"/>
      <path id="Trazado_732234" data-name="Trazado 732234" d="M29.514,68.137c-.089-.283-.489-.549-.771-.374-.011.009-.013.02-.024.029a.141.141,0,0,0-.113.089.68.68,0,0,0,.45.764.386.386,0,0,0,.458-.507" transform="translate(34.713 82.226)" fill="#e8ac54"/>
      <path id="Trazado_732235" data-name="Trazado 732235" d="M32.642,67.483c-.089-.283-.489-.549-.773-.374-.009.009-.011.02-.022.029a.148.148,0,0,0-.115.089.681.681,0,0,0,.452.764.387.387,0,0,0,.458-.507" transform="translate(38.508 81.432)" fill="#e8ac54"/>
      <path id="Trazado_732236" data-name="Trazado 732236" d="M22.8,63.669c-.093-.405-.638-.319-.912-.175-.018.011-.024.029-.038.042a.343.343,0,0,0-.2.213c-.12.37.248.472.529.456.3-.016.709-.146.618-.536" transform="translate(26.269 76.964)" fill="#e8ac54"/>
      <path id="Trazado_732237" data-name="Trazado 732237" d="M24.783,65.194c-.093-.4-.638-.319-.912-.175-.018.011-.024.029-.038.042a.343.343,0,0,0-.2.213c-.12.37.248.472.529.456.3-.016.709-.146.618-.536" transform="translate(28.676 78.818)" fill="#e8ac54"/>
      <path id="Trazado_732238" data-name="Trazado 732238" d="M28.868,65.566c-.093-.405-.638-.319-.912-.175-.018.011-.024.029-.038.042a.343.343,0,0,0-.2.213c-.12.37.248.472.529.456.3-.016.709-.146.618-.536" transform="translate(33.637 79.268)" fill="#e8ac54"/>
      <path id="Trazado_732239" data-name="Trazado 732239" d="M30.586,66.837c-.093-.405-.638-.319-.912-.175-.018.011-.024.029-.038.042a.343.343,0,0,0-.2.213c-.12.37.248.472.529.456.3-.015.709-.146.618-.536" transform="translate(35.723 80.811)" fill="#e8ac54"/>
      <path id="Trazado_732240" data-name="Trazado 732240" d="M33.648,67.591c-.093-.405-.64-.319-.912-.175-.018.011-.024.029-.038.042a.338.338,0,0,0-.2.213c-.12.37.248.472.529.456.3-.015.709-.146.618-.536" transform="translate(39.442 81.727)" fill="#e8ac54"/>
      <path id="Trazado_732241" data-name="Trazado 732241" d="M25.062,63.184a.554.554,0,0,0-.824.029.338.338,0,0,0-.208.239c-.075.388.363.578.68.483s.622-.438.352-.751" transform="translate(29.172 76.527)" fill="#e8ac54"/>
      <path id="Trazado_732242" data-name="Trazado 732242" d="M27.1,66.473a.554.554,0,0,0-.824.029.339.339,0,0,0-.208.237c-.075.39.363.58.68.485s.622-.438.352-.751" transform="translate(31.653 80.521)" fill="#e8ac54"/>
      <path id="Trazado_732243" data-name="Trazado 732243" d="M31.061,68.864a.554.554,0,0,0-.824.029.338.338,0,0,0-.208.239c-.075.388.363.578.68.483s.62-.438.352-.751" transform="translate(36.458 83.425)" fill="#e8ac54"/>
      <path id="Trazado_732244" data-name="Trazado 732244" d="M35.065,68.864a.554.554,0,0,0-.824.029.338.338,0,0,0-.208.239c-.075.388.363.578.68.483s.622-.438.352-.751" transform="translate(41.32 83.425)" fill="#e8ac54"/>
      <path id="Trazado_732245" data-name="Trazado 732245" d="M27.207,64.036a.554.554,0,0,0-.824.029.338.338,0,0,0-.208.239c-.075.388.363.578.68.483s.622-.438.352-.751" transform="translate(31.777 77.562)" fill="#e8ac54"/>
      <path id="Trazado_732246" data-name="Trazado 732246" d="M70.3,113.662l10.461-24.3L45.656,69.121,34.079,75.806V90.778a2.934,2.934,0,0,0,1.178,2.7.1.1,0,0,1,.038,0Z" transform="translate(41.387 83.943)" fill="#ceb5b3"/>
      <path id="Trazado_732247" data-name="Trazado 732247" d="M61.511,78.262V93.236a7.938,7.938,0,0,1-3.3,6.311l-4.969,2.87c-1.816,1.05-3.3-.075-3.3-2.5V84.945Z" transform="translate(60.642 95.045)" fill="#ddc6c3"/>
      <path id="Trazado_732248" data-name="Trazado 732248" d="M80.765,89.363,45.657,69.121,34.08,75.8,69.188,96.046Z" transform="translate(41.388 83.944)" fill="#ead8d6"/>
      <path id="Trazado_732249" data-name="Trazado 732249" d="M40.233,75.544c.961-1.2,2.706-2.25,3.939-1.422a2.608,2.608,0,0,1,2.611-.846,2.787,2.787,0,0,1,1.847,1.78,1.211,1.211,0,0,1,1.309-.089,1.375,1.375,0,0,1,.649,1.508,1.5,1.5,0,0,1,1.431.365,1.54,1.54,0,0,1,.465,1.167,2.818,2.818,0,0,1,2.575-.193,2.462,2.462,0,0,1,1.185,1.543,1.38,1.38,0,0,1,1.171-.175,1.573,1.573,0,0,1,1.061,1.34,1.611,1.611,0,0,1,2.181-.053,2.4,2.4,0,0,1,.647,2.124,2.042,2.042,0,0,1,2.431-.022,1.875,1.875,0,0,1,.432,1.136,2.48,2.48,0,0,1,2.341.4,3.194,3.194,0,0,1,.868,1.222,1.6,1.6,0,0,1,1.92.983,2.448,2.448,0,0,1,2.735.9,3.089,3.089,0,0,1,.328,1.462,1.807,1.807,0,0,1,1.373.159c.365.148.25.259.613.3.467.049,1.012-.266,1.541-.2a2.758,2.758,0,0,1,1.749.9l1.508-.87L45.233,69.39l-10.68,6.167,2.141,1.236a3.325,3.325,0,0,1,.751-.915,2.345,2.345,0,0,1,2.788-.334" transform="translate(41.963 84.27)" fill="#ceb5b3"/>
      <path id="Trazado_732250" data-name="Trazado 732250" d="M74.711,86.84c-.531-.066-1.074.248-1.541.2-.363-.04-.248-.148-.613-.3a1.8,1.8,0,0,0-1.373-.159,3.1,3.1,0,0,0-.328-1.464,2.444,2.444,0,0,0-2.735-.895,1.6,1.6,0,0,0-1.922-.983,3.134,3.134,0,0,0-.866-1.222,2.474,2.474,0,0,0-2.341-.4,1.894,1.894,0,0,0-.432-1.136,2.042,2.042,0,0,0-2.431.024,2.4,2.4,0,0,0-.647-2.124,1.611,1.611,0,0,0-2.181.053,1.574,1.574,0,0,0-1.061-1.34,1.373,1.373,0,0,0-1.171.175,2.464,2.464,0,0,0-1.185-1.543,2.816,2.816,0,0,0-2.578.193,1.521,1.521,0,0,0-.465-1.167,1.5,1.5,0,0,0-1.428-.368,1.372,1.372,0,0,0-.649-1.506,1.211,1.211,0,0,0-1.311.089,2.789,2.789,0,0,0-1.845-1.78A2.608,2.608,0,0,0,43,72.034c-1.233-.828-2.978.219-3.939,1.422a2.342,2.342,0,0,0-2.788.334,3.254,3.254,0,0,0-.751.915L67.286,93.036l9.174-5.3a2.764,2.764,0,0,0-1.749-.9" transform="translate(43.137 86.358)" fill="#f7c169"/>
      <path id="Trazado_732251" data-name="Trazado 732251" d="M40.365,72.054a.634.634,0,0,0-.784.073.555.555,0,0,0-.264.423c-.022.509.525.593.881.4s.567-.609.166-.892" transform="translate(47.748 87.379)" fill="#e8ac54"/>
      <path id="Trazado_732252" data-name="Trazado 732252" d="M45.242,75.488a.632.632,0,0,0-.784.075.548.548,0,0,0-.264.421c-.022.509.525.593.881.4s.567-.609.166-.892" transform="translate(53.671 91.549)" fill="#e8ac54"/>
      <path id="Trazado_732253" data-name="Trazado 732253" d="M50.7,79.574a.632.632,0,0,0-.784.075.547.547,0,0,0-.264.421c-.022.509.525.593.881.4s.567-.609.166-.892" transform="translate(60.295 96.512)" fill="#e8ac54"/>
      <path id="Trazado_732254" data-name="Trazado 732254" d="M38.989,73.133c-.089-.283-.489-.549-.771-.374-.011.009-.013.02-.024.029a.141.141,0,0,0-.113.089.68.68,0,0,0,.45.764.386.386,0,0,0,.458-.507" transform="translate(46.22 88.293)" fill="#e8ac54"/>
      <path id="Trazado_732255" data-name="Trazado 732255" d="M42.659,75.631c-.086-.283-.489-.549-.771-.374-.011.009-.013.02-.024.029a.141.141,0,0,0-.113.089.68.68,0,0,0,.45.764.386.386,0,0,0,.458-.507" transform="translate(50.677 91.327)" fill="#e8ac54"/>
      <path id="Trazado_732256" data-name="Trazado 732256" d="M46.7,78.062c-.089-.283-.489-.549-.771-.374-.011.009-.013.02-.024.029a.141.141,0,0,0-.113.089.68.68,0,0,0,.45.764.386.386,0,0,0,.458-.507" transform="translate(55.589 94.279)" fill="#e8ac54"/>
      <path id="Trazado_732257" data-name="Trazado 732257" d="M49.831,77.408c-.089-.283-.489-.549-.771-.374-.011.009-.013.02-.024.029a.148.148,0,0,0-.115.089.681.681,0,0,0,.452.764.386.386,0,0,0,.458-.507" transform="translate(59.383 93.485)" fill="#e8ac54"/>
      <path id="Trazado_732258" data-name="Trazado 732258" d="M39.991,73.594c-.093-.405-.64-.319-.912-.175-.018.011-.024.029-.038.042a.338.338,0,0,0-.2.213c-.12.37.248.472.529.456.3-.016.709-.146.618-.536" transform="translate(47.145 89.017)" fill="#e8ac54"/>
      <path id="Trazado_732259" data-name="Trazado 732259" d="M41.973,75.12c-.1-.405-.64-.319-.915-.175-.018.011-.022.029-.035.042a.332.332,0,0,0-.2.213c-.122.37.246.472.527.456.3-.015.709-.146.62-.536" transform="translate(49.552 90.87)" fill="#e8ac54"/>
      <path id="Trazado_732260" data-name="Trazado 732260" d="M46.058,75.49c-.093-.4-.638-.319-.912-.175-.018.011-.024.029-.038.042a.343.343,0,0,0-.2.213c-.12.37.248.472.529.456.3-.015.709-.146.618-.536" transform="translate(54.513 91.321)" fill="#e8ac54"/>
      <path id="Trazado_732261" data-name="Trazado 732261" d="M47.776,76.761c-.093-.4-.64-.319-.912-.175-.018.011-.024.029-.038.042a.338.338,0,0,0-.2.213c-.12.37.248.472.529.456.3-.016.709-.146.618-.536" transform="translate(56.6 92.865)" fill="#e8ac54"/>
      <path id="Trazado_732262" data-name="Trazado 732262" d="M50.837,77.515c-.093-.405-.638-.319-.912-.175-.018.011-.024.029-.038.042a.338.338,0,0,0-.2.213c-.12.37.248.472.529.456.3-.016.709-.146.618-.536" transform="translate(60.317 93.779)" fill="#e8ac54"/>
      <path id="Trazado_732263" data-name="Trazado 732263" d="M42.252,73.109a.554.554,0,0,0-.824.029.339.339,0,0,0-.208.237c-.075.39.363.58.68.485s.622-.438.352-.751" transform="translate(50.048 88.58)" fill="#e8ac54"/>
      <path id="Trazado_732264" data-name="Trazado 732264" d="M44.295,76.4a.554.554,0,0,0-.824.029.338.338,0,0,0-.208.239c-.075.388.363.578.68.483s.622-.438.352-.751" transform="translate(52.53 92.575)" fill="#e8ac54"/>
      <path id="Trazado_732265" data-name="Trazado 732265" d="M48.25,78.789a.554.554,0,0,0-.824.029.339.339,0,0,0-.208.237c-.075.39.363.58.68.483s.622-.436.352-.748" transform="translate(57.333 95.478)" fill="#e8ac54"/>
      <path id="Trazado_732266" data-name="Trazado 732266" d="M52.254,78.789a.554.554,0,0,0-.824.029.339.339,0,0,0-.208.237c-.075.39.363.58.68.483s.622-.436.352-.748" transform="translate(62.195 95.478)" fill="#e8ac54"/>
      <path id="Trazado_732267" data-name="Trazado 732267" d="M44.4,73.961a.554.554,0,0,0-.824.029.338.338,0,0,0-.208.239c-.075.388.363.578.68.483s.62-.438.352-.751" transform="translate(52.653 89.615)" fill="#e8ac54"/>
      <path id="Trazado_732268" data-name="Trazado 732268" d="M87.191,123.662l10.463-24.3L62.546,79.121,50.969,85.8v14.974a2.93,2.93,0,0,0,1.18,2.7.088.088,0,0,1,.035,0Z" transform="translate(61.899 96.088)" fill="#ceb5b3"/>
      <path id="Trazado_732269" data-name="Trazado 732269" d="M78.4,88.263v14.974a7.938,7.938,0,0,1-3.3,6.311l-4.969,2.87c-1.816,1.05-3.3-.075-3.3-2.5V94.946Z" transform="translate(81.154 107.19)" fill="#ddc6c3"/>
      <path id="Trazado_732270" data-name="Trazado 732270" d="M97.655,99.364,62.547,79.122,50.97,85.8l35.108,20.242Z" transform="translate(61.9 96.089)" fill="#ead8d6"/>
      <path id="Trazado_732271" data-name="Trazado 732271" d="M57.123,85.545c.961-1.2,2.706-2.25,3.939-1.422a2.608,2.608,0,0,1,2.611-.846,2.792,2.792,0,0,1,1.847,1.78,1.211,1.211,0,0,1,1.309-.089,1.374,1.374,0,0,1,.649,1.506,1.5,1.5,0,0,1,1.431.368,1.54,1.54,0,0,1,.465,1.167,2.818,2.818,0,0,1,2.575-.193,2.47,2.47,0,0,1,1.185,1.543,1.38,1.38,0,0,1,1.171-.175,1.573,1.573,0,0,1,1.061,1.34,1.611,1.611,0,0,1,2.181-.053,2.4,2.4,0,0,1,.647,2.124,2.046,2.046,0,0,1,2.431-.024,1.886,1.886,0,0,1,.432,1.136,2.474,2.474,0,0,1,2.341.4,3.194,3.194,0,0,1,.868,1.222,1.6,1.6,0,0,1,1.92.983,2.448,2.448,0,0,1,2.735.9,3.088,3.088,0,0,1,.328,1.462,1.807,1.807,0,0,1,1.373.159c.365.148.25.259.613.3.467.049,1.012-.266,1.541-.2a2.758,2.758,0,0,1,1.749.9l1.508-.87L62.123,79.391l-10.68,6.167,2.141,1.236a3.325,3.325,0,0,1,.751-.915,2.345,2.345,0,0,1,2.788-.334" transform="translate(62.474 96.416)" fill="#ceb5b3"/>
      <path id="Trazado_732272" data-name="Trazado 732272" d="M91.6,96.841c-.531-.066-1.074.248-1.541.2-.363-.04-.248-.148-.613-.3a1.8,1.8,0,0,0-1.373-.159,3.1,3.1,0,0,0-.328-1.464,2.444,2.444,0,0,0-2.735-.895,1.6,1.6,0,0,0-1.922-.983,3.134,3.134,0,0,0-.866-1.222,2.474,2.474,0,0,0-2.341-.4,1.894,1.894,0,0,0-.432-1.136,2.042,2.042,0,0,0-2.431.024,2.394,2.394,0,0,0-.649-2.124,1.608,1.608,0,0,0-2.179.053,1.574,1.574,0,0,0-1.061-1.34,1.373,1.373,0,0,0-1.171.175,2.464,2.464,0,0,0-1.185-1.543,2.811,2.811,0,0,0-2.575.193,1.531,1.531,0,0,0-.467-1.167,1.492,1.492,0,0,0-1.428-.368,1.372,1.372,0,0,0-.649-1.506,1.211,1.211,0,0,0-1.311.089,2.789,2.789,0,0,0-1.845-1.78,2.608,2.608,0,0,0-2.611.846c-1.233-.828-2.978.219-3.939,1.422a2.338,2.338,0,0,0-2.788.334,3.254,3.254,0,0,0-.751.915l31.766,18.331,9.174-5.3a2.764,2.764,0,0,0-1.749-.9" transform="translate(63.649 98.504)" fill="#f7c169"/>
      <path id="Trazado_732273" data-name="Trazado 732273" d="M57.255,82.055a.632.632,0,0,0-.784.075.548.548,0,0,0-.264.421c-.022.509.525.593.881.4s.567-.609.166-.892" transform="translate(68.26 99.525)" fill="#e8ac54"/>
      <path id="Trazado_732274" data-name="Trazado 732274" d="M62.132,85.489a.631.631,0,0,0-.784.075.548.548,0,0,0-.264.421c-.022.509.525.593.881.4s.567-.609.166-.892" transform="translate(74.182 103.695)" fill="#e8ac54"/>
      <path id="Trazado_732275" data-name="Trazado 732275" d="M67.587,89.574a.631.631,0,0,0-.784.075.547.547,0,0,0-.264.421c-.022.509.525.593.881.4s.567-.609.166-.892" transform="translate(80.807 108.656)" fill="#e8ac54"/>
      <path id="Trazado_732276" data-name="Trazado 732276" d="M55.88,83.134c-.089-.283-.489-.549-.771-.374-.011.009-.013.02-.024.029a.141.141,0,0,0-.113.089.678.678,0,0,0,.45.764.386.386,0,0,0,.458-.507" transform="translate(66.731 100.439)" fill="#e8ac54"/>
      <path id="Trazado_732277" data-name="Trazado 732277" d="M59.549,85.631c-.089-.283-.489-.549-.771-.374-.011.009-.013.02-.024.029a.141.141,0,0,0-.113.089.681.681,0,0,0,.45.764.386.386,0,0,0,.458-.507" transform="translate(71.189 103.471)" fill="#e8ac54"/>
      <path id="Trazado_732278" data-name="Trazado 732278" d="M63.6,88.062c-.089-.283-.489-.549-.771-.374-.011.009-.013.02-.024.029a.148.148,0,0,0-.115.089.681.681,0,0,0,.452.764.386.386,0,0,0,.458-.507" transform="translate(76.1 106.424)" fill="#e8ac54"/>
      <path id="Trazado_732279" data-name="Trazado 732279" d="M66.719,87.408c-.086-.283-.489-.549-.771-.374-.011.009-.013.02-.024.029a.141.141,0,0,0-.113.089.68.68,0,0,0,.45.764.386.386,0,0,0,.458-.507" transform="translate(79.896 105.629)" fill="#e8ac54"/>
      <path id="Trazado_732280" data-name="Trazado 732280" d="M56.881,83.593c-.093-.4-.64-.317-.912-.175-.018.011-.024.029-.038.042a.338.338,0,0,0-.2.213c-.12.37.248.472.529.456.3-.016.709-.146.618-.536" transform="translate(67.657 101.163)" fill="#e8ac54"/>
      <path id="Trazado_732281" data-name="Trazado 732281" d="M58.864,85.12c-.1-.405-.64-.319-.915-.175-.018.011-.022.029-.035.042a.335.335,0,0,0-.2.213c-.12.37.248.472.529.456.3-.015.709-.146.62-.536" transform="translate(70.063 103.015)" fill="#e8ac54"/>
      <path id="Trazado_732282" data-name="Trazado 732282" d="M62.948,85.491c-.093-.405-.638-.319-.912-.175-.018.011-.024.029-.038.042a.338.338,0,0,0-.2.213c-.12.37.248.472.529.456.3-.016.709-.146.618-.536" transform="translate(75.025 103.465)" fill="#e8ac54"/>
      <path id="Trazado_732283" data-name="Trazado 732283" d="M64.666,86.762c-.093-.405-.64-.319-.912-.175-.018.011-.024.029-.038.042a.338.338,0,0,0-.2.213c-.12.37.248.472.529.456.3-.016.709-.146.618-.536" transform="translate(77.111 105.009)" fill="#e8ac54"/>
      <path id="Trazado_732284" data-name="Trazado 732284" d="M67.727,87.516c-.093-.405-.638-.319-.912-.175-.018.011-.024.029-.038.042a.338.338,0,0,0-.2.213c-.12.37.248.472.529.456.3-.016.709-.146.618-.536" transform="translate(80.829 105.925)" fill="#e8ac54"/>
      <path id="Trazado_732285" data-name="Trazado 732285" d="M59.142,83.109a.554.554,0,0,0-.824.029.338.338,0,0,0-.208.239c-.075.388.363.578.68.483s.622-.438.352-.751" transform="translate(70.56 100.725)" fill="#e8ac54"/>
      <path id="Trazado_732286" data-name="Trazado 732286" d="M61.185,86.4a.554.554,0,0,0-.824.029.338.338,0,0,0-.208.239c-.075.388.363.578.68.483s.622-.438.352-.751" transform="translate(73.041 104.72)" fill="#e8ac54"/>
      <path id="Trazado_732287" data-name="Trazado 732287" d="M65.14,88.789a.554.554,0,0,0-.824.029.338.338,0,0,0-.208.239c-.075.388.363.578.68.483s.622-.438.352-.751" transform="translate(77.844 107.623)" fill="#e8ac54"/>
      <path id="Trazado_732288" data-name="Trazado 732288" d="M69.144,88.789a.554.554,0,0,0-.824.029.338.338,0,0,0-.208.239c-.075.388.363.578.68.483s.622-.438.352-.751" transform="translate(82.707 107.623)" fill="#e8ac54"/>
      <path id="Trazado_732289" data-name="Trazado 732289" d="M61.287,83.962a.554.554,0,0,0-.824.029.339.339,0,0,0-.208.237c-.075.39.363.58.68.485s.622-.438.352-.751" transform="translate(73.165 101.761)" fill="#e8ac54"/>
      <path id="Trazado_732290" data-name="Trazado 732290" d="M45.418.941c-2.516-1.453-5.7-1.216-8.951.66l-24.239,14c-.1.06-.206.137-.31.2l.766.461.244.146L36.992,2.511a9.79,9.79,0,0,1,4.832-1.459,6.049,6.049,0,0,1,3.069.8c2.677,1.546,4.214,5.175,4.214,9.961V78.278c.015-.007.029,0,.044,0a.511.511,0,0,0,.478.219c.29,0,.525-.124.525-.279v-66.4c0-5.169-1.727-9.13-4.737-10.868" transform="translate(14.474 0)" fill="#ffebeb"/>
      <path id="Trazado_732291" data-name="Trazado 732291" d="M66.747,13.294c-2.516-1.453-5.7-1.216-8.951.662L33.557,27.949c-.171.1-.337.219-.5.326.357.182.7.374,1.052.571L58.321,14.864A9.79,9.79,0,0,1,63.153,13.4a6.07,6.07,0,0,1,3.069.795c2.677,1.548,4.214,5.177,4.214,9.963V90.631c.016-.007.029,0,.044,0a.511.511,0,0,0,.478.219c.29,0,.525-.124.525-.279v-66.4c0-5.169-1.727-9.13-4.737-10.868" transform="translate(40.14 15.002)" fill="#ffebeb"/>
      <path id="Trazado_732292" data-name="Trazado 732292" d="M87.5,25.817c-2.518-1.453-5.7-1.216-8.951.662L54.664,40.266c.29.233.567.474.833.731l23.575-13.61A9.79,9.79,0,0,1,83.9,25.928a6.055,6.055,0,0,1,3.069.8c2.677,1.546,4.212,5.175,4.212,9.961v66.469c.016-.007.031,0,.047,0a.511.511,0,0,0,.478.219c.29,0,.525-.124.525-.277V36.685c0-5.168-1.727-9.13-4.737-10.868" transform="translate(66.386 30.211)" fill="#ffebeb"/>
      <path id="Trazado_732293" data-name="Trazado 732293" d="M109.066,38.17c-2.516-1.453-5.7-1.216-8.951.66l-24.239,14c-.093.053-.182.122-.275.179q.541.279,1.078.569L100.64,39.74a9.79,9.79,0,0,1,4.832-1.459,6.049,6.049,0,0,1,3.069.8c2.677,1.546,4.214,5.175,4.214,9.961v66.469c.016-.007.029,0,.044,0a.511.511,0,0,0,.478.219c.29,0,.525-.124.525-.279v-66.4c0-5.169-1.727-9.13-4.737-10.868" transform="translate(91.813 45.213)" fill="#ffebeb"/>
      <path id="Trazado_732294" data-name="Trazado 732294" d="M90.541,32.438a5.587,5.587,0,0,0-.611-1.929c-1.2,9.473-4.436,15.572-7.177,18.378,2.795,2.208.268,5.932-1.789,7.465a5.348,5.348,0,0,1,2.144,3.06c.044,1.269-1.118,1.3-2.449,1.444a19.768,19.768,0,0,0-4.7.644c3.3,3.291,1.3,10.031-1.9,12.709-3.242,2.724-7.987,3.545-12.106,3.452s-8.326-1.428-11.048-4.684c-3.255-3.9-1.388-10.33-.463-13.118-.452-.357-2.7,1.152-3.063,1.7a13.81,13.81,0,0,1,1.036-5.421c-5.775.795-7.452,6.832-7.494,11.841a24.987,24.987,0,0,0,.877,7.764c-1.269-.941-3.018-2.332-3.215-4.655-2.219,1.351-1.7,5.337-.215,7.367-2.547-1.5-5.04-2.482-7.1-4.9-2.431-2.857-4.54-7.195-3.049-10.913-2.4-.6-5.275,6.065-5.157,9.721-2.648-4.212-5.463-8.406-3.038-13.608-2.248.279-3.466,2.815-4.01,5.479a8.442,8.442,0,0,0,1.747,4.531A47.333,47.333,0,0,0,20.46,76.6a12.416,12.416,0,0,0,8.218,4.037,11.682,11.682,0,0,1-.7-1.393,5.224,5.224,0,0,1-.365-3.22c.372,1.094,2.533,2.994,4.021,3.849a10.956,10.956,0,0,0,5.556,1.2c.326.875,1.927,1.718,3,2.106a7.339,7.339,0,0,0,3.742.162c-.383-.458-.923-1.415-.711-1.76a11.111,11.111,0,0,0,7.863,3,6.739,6.739,0,0,1-.85-3.621,7.125,7.125,0,0,1-4.323-2.429c-2.022-2.471-1.9-5.875-.921-9.046,1.209,3.085,1.891,8.776,6.663,9.969a17.09,17.09,0,0,1-.162-2.469,10.122,10.122,0,0,0,4.548,5.665,9.04,9.04,0,0,0,7.345.414,3.248,3.248,0,0,1-1.094-1.486,26.874,26.874,0,0,0,12.042,1.373c.359-.155.715-.317,1.065-.489,5.06-2.5,9.245-6.827,10.1-12.578a19.989,19.989,0,0,0-.281-7.17,55.6,55.6,0,0,0,4.641-13.566,49.029,49.029,0,0,0,.682-16.715" transform="translate(19.453 37.052)" fill="#ddc6c3"/>
      <path id="Trazado_732295" data-name="Trazado 732295" d="M59.856,60.205a3.232,3.232,0,0,0,1.094,1.486,9.031,9.031,0,0,1-7.345-.414,10.117,10.117,0,0,1-4.551-5.662,17.448,17.448,0,0,0,.164,2.469c-4.772-1.2-5.454-6.887-6.665-9.972-.974,3.173-1.1,6.575.923,9.046A7.115,7.115,0,0,0,47.8,59.587a6.732,6.732,0,0,0,.85,3.623,11.128,11.128,0,0,1-7.866-3c-.21.345.33,1.3.713,1.76a7.339,7.339,0,0,1-3.742-.162c-1.07-.388-2.671-1.231-3-2.106A10.951,10.951,0,0,1,29.2,58.5c-1.488-.855-3.652-2.755-4.024-3.849a5.24,5.24,0,0,0,.365,3.22,12.2,12.2,0,0,0,.7,1.393,12.426,12.426,0,0,1-8.218-4.037,28.6,28.6,0,0,0,6.652,8.836c2.846,2.688,8.158,3.027,11.655,3.271,4.263.295,6.564,2.381,10.844,2.8a25.226,25.226,0,0,0,19.875-6.008,14.018,14.018,0,0,0,1.222-1.282A27.631,27.631,0,0,0,71.9,61.58a26.872,26.872,0,0,1-12.042-1.375" transform="translate(21.888 58.429)" fill="#ceb5b3"/>
      <path id="Trazado_732296" data-name="Trazado 732296" d="M43.9,44.924c1.672-1.311,6.789-8.856,7.788-13.078a5.226,5.226,0,0,0-.83-2.642A2.582,2.582,0,0,0,50.656,29c-.675,1.92-2,5.452-2.784,7.25-2.2,5.036-3.275,6.891-3.968,8.676" transform="translate(53.319 35.217)" fill="#ddc6c3"/>
      <path id="Trazado_732297" data-name="Trazado 732297" d="M42.79,37.252a32.046,32.046,0,0,0-2.558,3.231s5.115-4.493,7.051-6.2a12.918,12.918,0,0,0,3.231-3.853,4.3,4.3,0,0,0-.151-2.259,21.546,21.546,0,0,1-2,3.063c-1.574,2-4.624,5.082-5.576,6.017" transform="translate(48.859 34.215)" fill="#ddc6c3"/>
      <path id="Trazado_732298" data-name="Trazado 732298" d="M18.976,46.143c1.169.213,2.558-.97,3.162-1.853a8.141,8.141,0,0,0,1.391-4.349c2.85-1.579,3.663-5.665,1.9-8.466a.356.356,0,0,0-.2-.295c-.038-.053-.071-.109-.111-.162s-.1,0-.082.049l.022.073a.39.39,0,0,0-.341.166c-2.017,2.795-5.193,4.965-7.877,7.454-.124,2.832-.877,5.926-1.056,7.545-.078.72-.133,1.442-.177,2.161a5.358,5.358,0,0,0,3.377-2.323" transform="translate(18.944 37.651)" fill="#ddc6c3"/>
      <path id="Trazado_732299" data-name="Trazado 732299" d="M85.771,55c2.741-2.806,5.977-8.9,7.179-18.378-.972-1.732-2.761-1.692-4.371-.5-1,4.223-6.116,11.768-7.788,13.078.693-1.785,1.772-3.641,3.968-8.676.786-1.8,2.108-5.33,2.784-7.25-1.236-1.282-3.045-.724-4.6.43a12.971,12.971,0,0,1-3.233,3.853c-1.933,1.707-7.051,6.2-7.051,6.2a32.6,32.6,0,0,1,2.558-3.233c.952-.934,4-4.017,5.576-6.017a21.921,21.921,0,0,0,2-3.06,1.886,1.886,0,0,0-.423-.662c-1.417-1.36-5.213.673-6.964,1.566-4.416,3.437-8.384,8.109-8.446,9.8A10.6,10.6,0,0,0,57.5,43.76c-7.153-.866-13.4,1.9-14.983,3.388-.286-6.88-8.262-17.817-9.409-19.427a19.62,19.62,0,0,0-5.18-2.064c-1.468-.456-7.5,0-8.827.757a8.668,8.668,0,0,0-4.024,3.6c-1.851,3.26-2.219,7.359-.151,9.073a.29.29,0,0,0,.328.295c.111,0,.213,0,.319,0a10.751,10.751,0,0,0,2.068.56c1.47.994,1.8,3.171,1.7,5.529,2.682-2.489,5.859-4.659,7.875-7.454a.387.387,0,0,1,.341-.168l-.022-.071c-.011-.044.053-.089.084-.049s.071.109.109.162a.353.353,0,0,1,.2.295c1.767,2.8.954,6.885-1.9,8.466A8.109,8.109,0,0,1,24.648,51c-.6.884-1.993,2.068-3.162,1.856a5.366,5.366,0,0,1-3.377,2.323,62.034,62.034,0,0,0,.538,11.781c.142,1.076.226,2.239.39,3.381.545-2.664,1.763-5.2,4.01-5.479-2.425,5.2.39,9.4,3.04,13.606-.12-3.654,2.753-10.319,5.157-9.721-1.493,3.72.616,8.058,3.047,10.915,2.062,2.423,4.555,3.4,7.1,4.9-1.484-2.033-2-6.019.217-7.367.195,2.323,1.944,3.714,3.215,4.653a24.9,24.9,0,0,1-.877-7.762c.04-5.009,1.718-11.046,7.491-11.841A13.85,13.85,0,0,0,50.4,67.671c.363-.547,2.611-2.055,3.063-1.7-.926,2.788-2.792,9.221.465,13.118,2.719,3.255,6.916,4.588,11.048,4.681s8.864-.726,12.106-3.45c3.189-2.679,5.193-9.418,1.9-12.709a19.746,19.746,0,0,1,4.695-.647c1.331-.144,2.493-.175,2.449-1.442a5.351,5.351,0,0,0-2.141-3.063c2.055-1.53,4.584-5.255,1.787-7.463" transform="translate(16.432 30.938)" fill="#ead9d6"/>
      <path id="Trazado_732300" data-name="Trazado 732300" d="M46.767,42.527a10.606,10.606,0,0,1,9.451-1.608c.064-1.687,4.032-6.36,8.448-9.8-.128.066-.248.126-.352.177a31.471,31.471,0,0,0-9.945,7.671,40.742,40.742,0,0,0-21.106,2.221c-.609-1.614-1.211-3.231-1.935-4.8a21.551,21.551,0,0,0-7.8-9.214c-.374-.244-.764-.467-1.158-.689,1.149,1.61,9.126,12.547,9.411,19.427,1.581-1.488,7.83-4.256,14.983-3.39" transform="translate(27.171 32.171)" fill="#f4e8e6"/>
      <path id="Trazado_732301" data-name="Trazado 732301" d="M17.819,28.748a1.314,1.314,0,0,0-.737,1.648,1.15,1.15,0,0,0,.376.562,1.272,1.272,0,1,0,.361-2.21" transform="translate(20.624 34.837)" fill="#824030"/>
      <path id="Trazado_732302" data-name="Trazado 732302" d="M24.768,32.689a5.125,5.125,0,0,1-6.014-1.118c-.224-.272-4.5,1.96-4.644,4.752-.078,1.477,1.517,1.8,2.713,1.5A1.867,1.867,0,0,0,18.4,39.449a5,5,0,0,0,4.382-1.517c.591-.861,2.254-3.623,1.986-5.244" transform="translate(17.132 38.313)" fill="#ff6485"/>
      <path id="Trazado_732303" data-name="Trazado 732303" d="M13.166,37.247a8.661,8.661,0,0,1,2.7-1.712,32.245,32.245,0,0,0,5.058-2.314,2.65,2.65,0,0,0-.977-1.49c-1.676-1.315-3.579-2.3-4.712-1.6-.926.565-1.8,2.555-2.164,3.521a7.682,7.682,0,0,0-.283.981c.018.365.035.731.066,1.1a10.126,10.126,0,0,0,.314,1.521" transform="translate(15.527 36.31)" fill="#feb51c"/>
      <path id="Trazado_732304" data-name="Trazado 732304" d="M13.065,37.039a29.106,29.106,0,0,1,5.485-2.885c.846-.35,1.86-.589,2.3-1.453a1.943,1.943,0,0,0,.177-1.3,31.937,31.937,0,0,1-5.058,2.314,8.641,8.641,0,0,0-2.7,1.714,9.914,9.914,0,0,1-.314-1.526c-.033-.363-.049-.729-.066-1.092a8.417,8.417,0,0,0,.175,4.23" transform="translate(15.421 38.132)" fill="#f4a00b"/>
      <path id="Trazado_732305" data-name="Trazado 732305" d="M43.038,46.323c-1.233.171-3.4,1.191-4.05-.62-.069-.188-.381-.233-.427,0a1.36,1.36,0,0,0,.113.9,1.821,1.821,0,0,1-1.464-.049,3.061,3.061,0,0,1-.972-1.094.089.089,0,0,0-.159.02c-.434,1.577,1.927,2.56,3.054,1.729l.04-.035c1.154.828,3.512.682,4.061-.6a.175.175,0,0,0-.195-.252" transform="translate(43.75 55.158)" fill="#ddc6c3"/>
      <path id="Trazado_732306" data-name="Trazado 732306" d="M26.273,51.751A1.954,1.954,0,0,1,24.96,49.8a5.726,5.726,0,0,1,.611-2.13.173.173,0,0,0-.213-.21,1.954,1.954,0,0,0-1.231,1.51,3.536,3.536,0,0,1-.678-1.189,5.47,5.47,0,0,1,.206-2.4.1.1,0,0,0-.14-.106c-1.51.906-1.183,4.013.5,4.579-.007,1.428.751,2.877,2.175,2.5a.333.333,0,0,0,.078-.6" transform="translate(27.385 54.957)" fill="#ddc6c3"/>
      <path id="Trazado_732307" data-name="Trazado 732307" d="M30.908,46.827c-.848-.52-1.909-.456-2.56-1.32a8.63,8.63,0,0,1-.926-3.012.066.066,0,0,0-.12-.016,2.891,2.891,0,0,0-.288,1.964,5.412,5.412,0,0,1-1.289-.671,2.9,2.9,0,0,1-.746-2.3c.02-.295-.381-.3-.474-.064a2.778,2.778,0,0,0,.534,2.91c.465.523,1.439,1.185,2.152.844a3.556,3.556,0,0,0,.476.963,3.077,3.077,0,0,0,3.184,1.123.234.234,0,0,0,.055-.421" transform="translate(29.518 50.086)" fill="#ddc6c3"/>
      <path id="Trazado_732308" data-name="Trazado 732308" d="M38.729,50.838c-.848-.52-1.909-.456-2.56-1.32a8.63,8.63,0,0,1-.926-3.012.066.066,0,0,0-.12-.016,2.886,2.886,0,0,0-.288,1.962,5.3,5.3,0,0,1-1.289-.671,2.891,2.891,0,0,1-.746-2.3c.02-.295-.381-.3-.474-.064a2.778,2.778,0,0,0,.534,2.91c.465.523,1.439,1.185,2.152.844a3.655,3.655,0,0,0,.476.963,3.072,3.072,0,0,0,3.184,1.121.232.232,0,0,0,.055-.419" transform="translate(39.016 54.957)" fill="#ddc6c3"/>
      <path id="Trazado_732309" data-name="Trazado 732309" d="M41.68,48.707a3.523,3.523,0,0,1-2.223,1A2.346,2.346,0,0,1,37.4,48.227a.165.165,0,0,0-.3.04c-.334,1.156,1.012,1.986,1.984,2.161a2.585,2.585,0,0,0,2.932-1.462.231.231,0,0,0-.337-.259" transform="translate(44.993 58.472)" fill="#ddc6c3"/>
      <path id="Trazado_732310" data-name="Trazado 732310" d="M36.531,45.583a1.572,1.572,0,0,1-1.526-.385,6.2,6.2,0,0,1-.934-1.431c-.086-.137-.343-.133-.374.051a2.45,2.45,0,0,0,1.167,2.217c.514.363,1.734.722,1.96-.157a.243.243,0,0,0-.292-.295" transform="translate(40.894 53.037)" fill="#ddc6c3"/>
      <path id="Trazado_732311" data-name="Trazado 732311" d="M24.749,45.483a3.663,3.663,0,0,1-1.561-.939,2.618,2.618,0,0,1-.421-2c.02-.235-.312-.295-.421-.115-.93,1.526.567,4,2.4,3.474a.219.219,0,0,0,0-.419" transform="translate(26.793 51.399)" fill="#ddc6c3"/>
      <path id="Trazado_732312" data-name="Trazado 732312" d="M21.475,45.779a6.077,6.077,0,0,1-1.654-1.315,3.528,3.528,0,0,1-.629-2.385.112.112,0,0,0-.206-.058,2.893,2.893,0,0,0,.024,2.651c-1.271,1.1.173,3.886,1.818,3.443a.224.224,0,0,0,.053-.405c-.494-.326-1.061-.516-1.375-1.056a2.189,2.189,0,0,1-.164-1.455,2.277,2.277,0,0,0,2.031.954.2.2,0,0,0,.1-.374" transform="translate(22.497 50.968)" fill="#ddc6c3"/>
      <path id="Trazado_732313" data-name="Trazado 732313" d="M22.852,42.255a.756.756,0,0,0-.587-.162,2.218,2.218,0,0,1-.946-.213c-.567-.275-.806-.779-1.249-1.171a.063.063,0,0,0-.1.013c-.275.651.345,1.4.846,1.736.441.3,1.767.81,2.07.1a.257.257,0,0,0-.038-.3" transform="translate(24.174 49.419)" fill="#ddc6c3"/>
      <path id="Trazado_732314" data-name="Trazado 732314" d="M18.6,43.6c-.368-.412-.879-.569-1.081-1.134-.193-.543.113-1.059-.024-1.57a.154.154,0,0,0-.184-.1c-.795.151-.793,1.464-.578,2.04.255.673.946,1.444,1.732,1.269a.3.3,0,0,0,.135-.5" transform="translate(20.169 49.538)" fill="#ddc6c3"/>
      <path id="Trazado_732315" data-name="Trazado 732315" d="M57.631,45.632A12.807,12.807,0,0,0,49.8,42.147c-4.489-2.91-11.779-3.459-16.283-.762a.255.255,0,0,0,.195.465c2.908-.565,5.591-1.353,8.608-1.114a22.332,22.332,0,0,1,5.676,1.318,15.083,15.083,0,0,0-3.357.379.128.128,0,0,0,.033.25,24.348,24.348,0,0,1,12.808,3.149.128.128,0,0,0,.155-.2" transform="translate(40.548 48.134)" fill="#ddc6c3"/>
      <path id="Trazado_732316" data-name="Trazado 732316" d="M45.317,38.528a.117.117,0,0,0-.168.069,5.434,5.434,0,0,0-.069.788,1.715,1.715,0,0,1-.509.965c-.423.416-1.028.569-1.484.939a.166.166,0,0,0,.073.275,2.127,2.127,0,0,0,2.155-.952c.359-.5.731-1.723,0-2.084" transform="translate(52.267 46.773)" fill="#ddc6c3"/>
      <path id="Trazado_732317" data-name="Trazado 732317" d="M43.3,38.744a.116.116,0,0,0-.168.131,5.423,5.423,0,0,1,.08,1.814,2.059,2.059,0,0,1-.844,1.373.214.214,0,0,0,.1.357c1.754.474,2.013-3,.837-3.674" transform="translate(51.371 47.034)" fill="#ddc6c3"/>
      <path id="Trazado_732318" data-name="Trazado 732318" d="M36.891,35.116a.178.178,0,0,0-.266.153c.042.691.383,1.251.213,1.973a4.089,4.089,0,0,1-.861,1.38A2.923,2.923,0,0,0,34.8,37a.092.092,0,0,0-.135.078c-.075.762.567,1.4.726,2.121.148.662-.414,1.121-.266,1.774a.294.294,0,0,0,.531.071,2.457,2.457,0,0,0,.512-1.789c.018,0,.031.007.049,0,1.55-.295,2.177-3.435.671-4.141" transform="translate(42.094 42.624)" fill="#ddc6c3"/>
      <path id="Trazado_732319" data-name="Trazado 732319" d="M40.019,36.692a.117.117,0,0,0-.21.027,4.134,4.134,0,0,1-.788,1.592,2.227,2.227,0,0,1-.771.5c-.257.1-.478.1-.682.306a.348.348,0,0,0,.071.54c.664.405,1.608-.365,2-.87a2,2,0,0,0,.383-2.095" transform="translate(45.505 44.494)" fill="#ddc6c3"/>
      <path id="Trazado_732320" data-name="Trazado 732320" d="M33.411,38.16a3.169,3.169,0,0,1-.939,1.563c-.443.379-1.059.39-1.481.751a.259.259,0,0,0,.051.405c.644.368,1.535-.259,1.977-.711a2.516,2.516,0,0,0,.746-2.008c-.031-.193-.306-.157-.354,0" transform="translate(37.544 46.184)" fill="#ddc6c3"/>
      <path id="Trazado_732321" data-name="Trazado 732321" d="M25.092,38.924c-.667-.175-1.269-.013-1.807-.578a2.561,2.561,0,0,1-.525-1.909c0-.137-.195-.241-.295-.122a1.833,1.833,0,0,0-.275,1.67,1.534,1.534,0,0,1-1-.357c-.388-.341-.441-.813-.748-1.185a.092.092,0,0,0-.142.018c-.414.56.162,1.508.613,1.871a2.045,2.045,0,0,0,1.67.438l.038.055c.52.638,1.783,1.28,2.555.72a.346.346,0,0,0-.082-.622" transform="translate(24.478 44.04)" fill="#ddc6c3"/>
      <path id="Trazado_732322" data-name="Trazado 732322" d="M24.3,34.621a5.01,5.01,0,0,1-1.422-.069,2.788,2.788,0,0,1-1.236-.844.1.1,0,0,0-.175.073c.106,1.264,2.075,2.115,2.954,1.134a.175.175,0,0,0-.122-.295" transform="translate(26.07 40.903)" fill="#ddc6c3"/>
      <path id="Trazado_732323" data-name="Trazado 732323" d="M29.27,36.957a6.7,6.7,0,0,1-1.326.906,2.1,2.1,0,0,1-1.8-.224.115.115,0,0,0-.155.157,1.7,1.7,0,0,0,1.849.773,2.138,2.138,0,0,0,1.712-1.4.194.194,0,0,0-.283-.217" transform="translate(31.55 44.847)" fill="#ddc6c3"/>
      <path id="Trazado_732324" data-name="Trazado 732324" d="M26.58,27.5c-.523-2.07-2.854-3.5-4.467-2.449-1.38-1.211-3.35-2-4.657.381-2.223-.272-4.232,4.221-.724,5.337a22.76,22.76,0,0,1,9.039-2.206A.851.851,0,0,0,26.58,27.5" transform="translate(18.012 29.008)" fill="#ff6485"/>
      <path id="Trazado_732325" data-name="Trazado 732325" d="M38.323,64.345a5.808,5.808,0,0,0-2.414.562l-3.49,1.016a.426.426,0,0,0-.252.622,2.256,2.256,0,0,1,.357,2.062.423.423,0,0,0,.529.509c2.206,1.625,5.219-.122,6.063-2.511.29-.822.261-2.048-.793-2.261" transform="translate(38.987 78.11)" fill="#ff6485"/>
      <path id="Trazado_732326" data-name="Trazado 732326" d="M30.08,66.054A21.689,21.689,0,0,0,32.029,71.3a.318.318,0,0,0,.3.168c.066-.137.131-.272.2-.414.892-1.856,1.269-4.471-2.449-5" transform="translate(36.53 80.219)" fill="#feb51c"/>
      <path id="Trazado_732327" data-name="Trazado 732327" d="M37.277,67.2a.405.405,0,0,0-.142-.54c-1.818-1.218-7.228-1.873-7.071-1.831a7.664,7.664,0,0,0,.122,2.713c3.718.527,3.342,3.142,2.451,5-.069.142-.131.277-.2.414a.417.417,0,0,0,.268-.1A21.813,21.813,0,0,0,37.277,67.2" transform="translate(36.424 78.73)" fill="#f4a00b"/>
      <path id="Trazado_732328" data-name="Trazado 732328" d="M104.3,38.131a6.517,6.517,0,0,0-1.991-.075,3.17,3.17,0,0,0-.582-1.346C100.186,34.7,97.7,35.275,95.8,36.5a2.176,2.176,0,0,0-1.342-2.312c-1.47-.649-3.339.3-4.653.9-.713.323-1.426.671-2.13,1.036A35.792,35.792,0,0,0,70.8,38.588c-5.062,3.709-10.1,9.185-10.667,12.543-2.1.9-8.751,3.718-8,11.776a12.124,12.124,0,0,0-1.842,11.582,2.7,2.7,0,0,0-3.133,2.334c-.828.312-1.723.388-2.558.733-.917.376-4.478,2.684-5.151,5.735-4.139.8-6.962,3.384-9.084,6.812a24.048,24.048,0,0,0-1.034,3.481c-.926,4.307-.04,9.425,4.768,10.818a7.953,7.953,0,0,0,4.028.031l.011-.016a9.023,9.023,0,0,0,2.956-2.166,8.929,8.929,0,0,0,1.935-3.324c0,.06,3.592,1.913,5.684,1.136,1.907-.709,4.159-4.2,4.238-4.358.182-.359.649-.084.6.25a4.407,4.407,0,0,1-.128.474c2.465.735,5.45.848,7.844-1.269.016-.013,4.5,3.091,7.416,2.52,2.839-.556,4.493-2.445,5.676-4.9a4.006,4.006,0,0,1-2.642-.833c-.055-.044.009-.12.064-.109a6.914,6.914,0,0,0,6.42-1.532A10.577,10.577,0,0,0,80.137,88C77.482,86.774,72.9,84.48,73.9,80.7a8.384,8.384,0,0,0,5.926,2.863c2.662.217,6.615-1.019,7.875-4.1a9.176,9.176,0,0,0,6.482-1.231c2.011-1.457,1.794-5.421,1.8-5.423.031-.042,3.116-.569,3.623-3.494a4.491,4.491,0,0,0-3.459-5.018c-2.62-.631-6.048.81-7.64,2.509-.321.341-.771-.093-.6-.465A8.782,8.782,0,0,1,97.29,61.4c1.149-1.036,3.5-3.231,1.6-10.042,4.681-2.958,6.24-8.061,5.408-13.229" transform="translate(35.22 41.252)" fill="#e0cdca"/>
      <path id="Trazado_732329" data-name="Trazado 732329" d="M38.7,80.755c.673-3.049,4.234-5.357,5.151-5.735.835-.343,1.729-.419,2.558-.733a2.7,2.7,0,0,1,3.133-2.332,12.124,12.124,0,0,1,1.842-11.582c-.748-8.058,5.9-10.875,8-11.776.565-3.359,5.6-8.836,10.667-12.543-.828.328-1.639.673-2.438,1.025-2.4,1.059-7.3,3.362-10.231,8.621-4.416,2.17-8.672,7.46-10,12.972a39.218,39.218,0,0,0-.726,6.933c-.1,1.721-.317,3.607-.239,5.405-2.914,1.056-7.319,4.362-8.8,7.631-4.595,1.931-6.276,4.323-8.01,8.924,2.121-3.426,4.945-6.012,9.084-6.812" transform="translate(35.966 43.786)" fill="#eadcdc"/>
      <path id="Trazado_732330" data-name="Trazado 732330" d="M53.993,97.1c1.107,1.271,4.752,2.832,7,1.639,2.2,1.747,8.623.159,9.478-2.613a10.55,10.55,0,0,0,4.624-.959c1.51-.784,3.844-2.482,2.6-4.418a.289.289,0,0,1-.022-.055h0c3.7-.43,4.345-3.45,4.19-4.458a4.736,4.736,0,0,1-3.355-1.5,19.457,19.457,0,0,0,4.513-.357,6.7,6.7,0,0,0,3.716-3.459,8.458,8.458,0,0,0,5.8-2.017c1.836-1.583,2.345-3.477,2.591-6.287a5.321,5.321,0,0,0,2.186-4.5,7.51,7.51,0,0,0-1.521-5.31A9.337,9.337,0,0,0,99.3,58.9c.159-3.1.195-8.034.525-11.3,2.733-4.71,3.709-8.767,1.692-10.572A4.712,4.712,0,0,0,99.3,35.847c.833,5.173-.726,10.275-5.405,13.231,1.891,6.812-.456,9.006-1.605,10.045A8.777,8.777,0,0,0,82.9,64.055c-.168.37.283.8.6.463,1.592-1.7,5.02-3.14,7.64-2.507A4.487,4.487,0,0,1,94.6,67.026c-.507,2.925-3.592,3.452-3.623,3.494,0,0,.217,3.966-1.8,5.423A9.174,9.174,0,0,1,82.7,77.177c-1.26,3.08-5.215,4.316-7.877,4.1A8.372,8.372,0,0,1,68.9,78.413c-1,3.784,3.579,6.081,6.234,7.3a10.531,10.531,0,0,1-1.944,2.312,6.919,6.919,0,0,1-6.42,1.53c-.055-.011-.12.066-.062.109a4.011,4.011,0,0,0,2.64.835c-1.183,2.454-2.837,4.345-5.673,4.9-2.919.571-7.4-2.533-7.418-2.52-2.394,2.115-5.377,2-7.841,1.267a4.26,4.26,0,0,0,.126-.474c.053-.332-.414-.609-.593-.25-.082.162-2.334,3.649-4.241,4.358-2.093.777-5.682-1.074-5.682-1.136a8.941,8.941,0,0,1-1.938,3.324,9.061,9.061,0,0,1-2.956,2.168l-.011.013a9.526,9.526,0,0,0,4.436-2.4c3.771,2.316,9.048,1.362,13.55-.341l.069.033A7.725,7.725,0,0,0,53.993,97.1" transform="translate(40.222 43.534)" fill="#d6bab9"/>
      <path id="Trazado_732331" data-name="Trazado 732331" d="M74.946,75.857c4.05.062,8.007-3.45,9.314-8.807,2.795-2.325,5.831-11.178,5.133-20.791a9.36,9.36,0,0,1-3.51,3.893A7.512,7.512,0,0,1,87.4,55.46a5.318,5.318,0,0,1-2.186,4.5c-.248,2.81-.757,4.7-2.591,6.287a8.468,8.468,0,0,1-5.8,2.017,6.7,6.7,0,0,1-3.714,3.459,19.468,19.468,0,0,1-4.513.357,4.731,4.731,0,0,0,3.353,1.506c.155,1.005-.489,4.028-4.187,4.455h0a.307.307,0,0,0,.022.058c1.247,1.933-1.087,3.632-2.6,4.416a10.543,10.543,0,0,1-4.624.959c-.855,2.772-7.281,4.36-9.478,2.613-2.248,1.194-5.893-.368-7-1.639a7.761,7.761,0,0,1-2.817,2.343c8.147,4.449,26.4,2.569,33.673-10.935" transform="translate(50.124 56.179)" fill="#c9a9a9"/>
      <path id="Trazado_732332" data-name="Trazado 732332" d="M34.372,61.562c.361-.576.478-1.424-.1-1.672-2.5-1.067-2.795,1.818-3.939,2.93-.744.72-1.581.638-1.958,1.867-.538,1.754,1,2.93.912,4.6-.044.844-.655,1.114-.086,2.088.713,1.225,2.217,1.178,3.443,1.087a.442.442,0,0,0,.421-.551,13.472,13.472,0,0,1,1.3-10.348" transform="translate(34.324 72.45)" fill="#ff6485"/>
      <path id="Trazado_732333" data-name="Trazado 732333" d="M32.933,64.283a1.3,1.3,0,0,0-.731,1.634,1.12,1.12,0,0,0,.372.558,1.263,1.263,0,1,0,.359-2.192" transform="translate(38.988 77.993)" fill="#824030"/>
      <path id="Trazado_732334" data-name="Trazado 732334" d="M74.747,48.247c-4.513-4.108-13.085-3.393-17.18,1.187-3.512-.607-8.052,2.263-8.949,5.634-.027.1.117.206.19.111a13.094,13.094,0,0,1,3.676-3.645,10.206,10.206,0,0,1,4.371-1.209,8.985,8.985,0,0,0-.56.89.119.119,0,0,0,.186.144c.465-.392,5.379-4.006,7.759-4.5,3.751-.771,6.7.478,10.007,2.028.4.186.868-.308.5-.644" transform="translate(59.041 55.311)" fill="#d6bab9"/>
      <path id="Trazado_732335" data-name="Trazado 732335" d="M50.921,58.077a.206.206,0,0,0-.348-.144c-.474.476-.715,1.047-1.342,1.377a3.761,3.761,0,0,1-2.217.153c-.078-.009-.106.1-.06.146a1.965,1.965,0,0,0,1.408.529c-.272.72-.388,1.437-1.256,1.729a2.317,2.317,0,0,1-.627.113,2.05,2.05,0,0,0-.494,0c-.064.022-.2.069-.184.162.062.339.549.39.837.4a2.171,2.171,0,0,0,1.271-.39,1.864,1.864,0,0,0,.835-2.026c1.134-.135,2.257-.912,2.175-2.044" transform="translate(55.624 70.285)" fill="#d6bab9"/>
      <path id="Trazado_732336" data-name="Trazado 732336" d="M57.348,53.187a4.487,4.487,0,0,1-2.5,1.156,2.777,2.777,0,0,1-1.218-.3.179.179,0,0,0-.213-.1c-.379-.2-.737-.454-1.107-.7a.079.079,0,0,0-.115.086,2.185,2.185,0,0,0,.593.972,2.077,2.077,0,0,1-1.417.474,3.185,3.185,0,0,1-1.856-1.163.071.071,0,0,0-.12.049,2.012,2.012,0,0,0,1.88,1.827,2.458,2.458,0,0,0,2.121-.76c1.442.722,3.627.217,4.185-1.369.044-.124-.122-.261-.233-.179" transform="translate(59.986 64.562)" fill="#d6bab9"/>
      <path id="Trazado_732337" data-name="Trazado 732337" d="M58.979,51.941a.143.143,0,0,0-.259.033,2.394,2.394,0,0,1-.888,1.727,4.271,4.271,0,0,1-.678.4.724.724,0,0,1-.926-.078c-.175-.133-.385.051-.4.228-.031.405.31.647.684.691a2.3,2.3,0,0,0,1.433-.529c.706-.481,1.59-1.6,1.032-2.476" transform="translate(67.8 62.998)" fill="#ddc6c3"/>
      <path id="Trazado_732338" data-name="Trazado 732338" d="M60.162,49.322a.206.206,0,0,0-.341.089,1.628,1.628,0,0,1-1.005,1.473,3.24,3.24,0,0,1-1.853.011c-.086-.018-.193.06-.155.157.233.611.941.748,1.6.682a2.167,2.167,0,0,1-.919.813c-.582.25-1.189.084-1.758.283a.235.235,0,0,0-.1.388c.562.658,1.741.317,2.345-.115a2.389,2.389,0,0,0,.994-1.473,3.1,3.1,0,0,0,.326-.111c.8-.341,1.579-1.413.866-2.2" transform="translate(67.482 59.828)" fill="#ddc6c3"/>
      <path id="Trazado_732339" data-name="Trazado 732339" d="M53.484,48.863a.086.086,0,0,0-.038.142,1.332,1.332,0,0,1,.507.833,2.929,2.929,0,0,1,0,.9,1.7,1.7,0,0,1-.224.627c-.124.195-.283.277-.332.509a.219.219,0,0,0,.151.264c.795.244,1.072-1.087,1.087-1.623.016-.567-.259-2.024-1.147-1.652" transform="translate(64.836 59.268)" fill="#d6bab9"/>
      <path id="Trazado_732340" data-name="Trazado 732340" d="M52.976,49.8c-.155-.06-.27.111-.246.246.128.667.507,1.163.215,1.873-.275.662-.915.841-1.457,1.216-.093.064-.128.239,0,.295.892.39,1.834-.4,2.163-1.214.312-.764.21-2.079-.675-2.416" transform="translate(62.427 60.459)" fill="#d6bab9"/>
      <path id="Trazado_732341" data-name="Trazado 732341" d="M46.106,55.514a.112.112,0,0,0-.14.106,3.01,3.01,0,0,0,.1.706,1.85,1.85,0,0,1-.186.974,3.007,3.007,0,0,1-.926,1.227c-.02.011-.024.031-.04.047a3.381,3.381,0,0,0-.786-1.424.09.09,0,0,0-.148.089,11.852,11.852,0,0,1,.357,1.927,2.744,2.744,0,0,1-.064.872c-.14.456-.436.483-.7.791a.185.185,0,0,0,0,.252c.038.035.073.073.109.109a.35.35,0,0,0,.334.089c.939-.25,1.163-1.171,1.032-2.11.693.1,1.28-1.054,1.481-1.594.215-.574.37-1.851-.423-2.059" transform="translate(52.855 67.414)" fill="#d6bab9"/>
      <path id="Trazado_732342" data-name="Trazado 732342" d="M47.986,51.523c-.12-.3-.319-.724-.664-.8a.285.285,0,0,0-.388.259.1.1,0,0,0,.1.1c.29.007.421,1.16.423,1.364.009.436-.235.87-.126,1.3a.222.222,0,0,0,.321.133c.755-.35.587-1.727.339-2.345" transform="translate(56.998 61.582)" fill="#d6bab9"/>
      <path id="Trazado_732343" data-name="Trazado 732343" d="M58.671,41.731a.07.07,0,0,0-.018.126c.155.111.2.576.235.762a2.587,2.587,0,0,1-.009,1.067c-.117.54-.558.939-.616,1.47-.024.221.221.341.4.306,1.537-.3,1.154-4.2.007-3.731" transform="translate(70.756 50.632)" fill="#d6bab9"/>
      <path id="Trazado_732344" data-name="Trazado 732344" d="M61.238,38.3c-.19-.233-.607.082-.421.326a1.4,1.4,0,0,1-.109,1.783,11.731,11.731,0,0,1-.954.866c-.407-.569-1.056-1.311-1.679-1.249a.074.074,0,0,0-.071.093c.1.558.764,1.025,1.07,1.5a3.286,3.286,0,0,1,.609,2.082.314.314,0,0,0,.529.219,1.7,1.7,0,0,0-.062-2.035,2.517,2.517,0,0,0,1.426-1.464,2.124,2.124,0,0,0-.339-2.117" transform="translate(70.441 46.414)" fill="#d6bab9"/>
      <path id="Trazado_732345" data-name="Trazado 732345" d="M56.025,42.145a.2.2,0,0,0-.288.221,4.116,4.116,0,0,1-.011,2.263,2.486,2.486,0,0,1-.456,1.012,2.714,2.714,0,0,1-.2.21A1.722,1.722,0,0,0,53.388,45a.074.074,0,0,0-.031.124,4.145,4.145,0,0,1,1.112,1.3,4.432,4.432,0,0,1,.066,1.807.254.254,0,0,0,.43.177,1.672,1.672,0,0,0,.438-1.862c1.3-.416,1.747-3.745.622-4.4" transform="translate(64.773 51.151)" fill="#d6bab9"/>
      <path id="Trazado_732346" data-name="Trazado 732346" d="M65.488,36.833a18.649,18.649,0,0,0-3.61,1.758,28.151,28.151,0,0,1-2.558,1.65,10.543,10.543,0,0,1,2.558-3.993,4.492,4.492,0,0,1,2.544-1.273,2.765,2.765,0,0,1,1.065,1.858" transform="translate(72.042 42.475)" fill="#d6bab9"/>
      <path id="Trazado_732347" data-name="Trazado 732347" d="M61.179,36.127a12.79,12.79,0,0,0-2.006,1.634A6.865,6.865,0,0,1,57.8,38.944a2.6,2.6,0,0,1,.277-2.817c1.094-1.371,2.268-2.075,2.509-1.794a3.136,3.136,0,0,1,.589,1.794" transform="translate(69.843 41.622)" fill="#d6bab9"/>
      <path id="Trazado_732348" data-name="Trazado 732348" d="M56.709,39.079c-.162-.527-.788-1.269-1.382-.857a.122.122,0,0,0-.027.19c.193.168.441.281.574.514a1.713,1.713,0,0,1,.166.813,6.191,6.191,0,0,1-.3,1.555.376.376,0,0,0,.684.288,3.253,3.253,0,0,0,.283-2.5" transform="translate(67.116 46.273)" fill="#d6bab9"/>
      <path id="Trazado_732349" data-name="Trazado 732349" d="M53.641,39.426a.089.089,0,0,0-.018.135c.321.354.8.531,1.123.9.381.438.383.923.624,1.411a.4.4,0,0,0,.715-.093c.328-1.045-1.32-3.018-2.445-2.356" transform="translate(65.095 47.719)" fill="#d6bab9"/>
      <path id="Trazado_732350" data-name="Trazado 732350" d="M48.446,44.816a.094.094,0,0,0-.115.115c.115.394.306.762.414,1.158a2.89,2.89,0,0,1-.038,1.375c-.069.372.487.682.662.279.416-.952.166-2.571-.923-2.927" transform="translate(58.691 54.422)" fill="#d6bab9"/>
      <path id="Trazado_732351" data-name="Trazado 732351" d="M48.558,47.018a2.5,2.5,0,0,0-1.406-1.034.274.274,0,0,0-.308.124.2.2,0,0,0-.024.049l0,.018a.281.281,0,0,0,.126.308,3.38,3.38,0,0,1,1,1.072c.2.361.179.884.489,1.158a.311.311,0,0,0,.478-.062c.341-.45-.082-1.231-.352-1.632" transform="translate(56.842 55.832)" fill="#d6bab9"/>
      <path id="Trazado_732352" data-name="Trazado 732352" d="M52.735,43.617a1.814,1.814,0,0,0-.248-.56c.525-1.209-.2-3.528-1.743-3.255a.1.1,0,0,0-.044.164,3.635,3.635,0,0,1,.985,1.229,2.23,2.23,0,0,1,.086,1.129,2.81,2.81,0,0,0-.434-.244c-.5-.224-1.373-.407-1.754.115a.169.169,0,0,0,.06.228c.405.215.917.142,1.342.359a2.221,2.221,0,0,1,.981,1.158c.21.445.872.122.768-.323" transform="translate(60.188 48.309)" fill="#d6bab9"/>
      <path id="Trazado_732353" data-name="Trazado 732353" d="M44.437,51.736a2.129,2.129,0,0,0-1.907-1.592.174.174,0,0,0-.122.292c.514.5,1.114.87,1.311,1.614a2.141,2.141,0,0,1-.013,1.052,1.509,1.509,0,0,0-.965-.357.236.236,0,0,0-.208.12.185.185,0,0,0-.031.089c-.018.3.467.5.655.671a1.786,1.786,0,0,1,.593,1.3.408.408,0,0,0,.815,0,2.375,2.375,0,0,0-.27-1.092,2.756,2.756,0,0,0,.142-2.093" transform="translate(51.444 60.895)" fill="#d6bab9"/>
      <path id="Trazado_732354" data-name="Trazado 732354" d="M41.936,58.55a2.319,2.319,0,0,0-.2-2.436.111.111,0,0,0-.188.078,8.2,8.2,0,0,1-.131,1.594,3.14,3.14,0,0,1-.892,1.424.425.425,0,0,0-.064.507.414.414,0,0,0,.655.084,3.453,3.453,0,0,0,.436-.547,3.861,3.861,0,0,1,.011,1c-.073.5-.452.992-.41,1.484.013.144.153.312.321.244.543-.226.706-.946.786-1.488a2.857,2.857,0,0,0-.326-1.942" transform="translate(49.071 68.105)" fill="#d6bab9"/>
      <path id="Trazado_732355" data-name="Trazado 732355" d="M39.4,58.454a.115.115,0,0,0-.14.14,7.12,7.12,0,0,0,.611,1.227,6.32,6.32,0,0,1,.4,1.561c.082.427.7.295.724-.1.058-.954-.543-2.6-1.594-2.828" transform="translate(47.674 70.985)" fill="#d6bab9"/>
      <path id="Trazado_732356" data-name="Trazado 732356" d="M38.788,60.724a.182.182,0,0,0-.328-.042,5.179,5.179,0,0,1-.855,1.535,2.491,2.491,0,0,1-.813.538,1.713,1.713,0,0,0-.631.332.233.233,0,0,0,.047.363c.636.323,1.473-.27,1.9-.731a2.231,2.231,0,0,0,.68-2" transform="translate(43.835 73.589)" fill="#d6bab9"/>
      <path id="Trazado_732357" data-name="Trazado 732357" d="M42.18,53.518c-.4-.385-1.189-.762-1.687-.352a.093.093,0,0,0,.018.146c.4.279.884.3,1.2.72s.255.886.348,1.375c.051.264.407.261.536.069a1.664,1.664,0,0,0-.419-1.958" transform="translate(49.141 64.352)" fill="#d6bab9"/>
      <path id="Trazado_732358" data-name="Trazado 732358" d="M45.471,44.934a1.461,1.461,0,0,0-1.71-.244.193.193,0,0,0,.1.357,1.823,1.823,0,0,1,1.431.835c.215.308.352.678.76.717a.214.214,0,0,0,.195-.111c.259-.536-.385-1.227-.771-1.555" transform="translate(53.032 54.056)" fill="#d6bab9"/>
      <path id="Trazado_732359" data-name="Trazado 732359" d="M51.592,37.721a.184.184,0,0,0-.157.275,3.449,3.449,0,0,1,.633,1.112c.093.405,0,.815.073,1.225a.251.251,0,0,0,.37.151c.988-.715.217-2.666-.919-2.761" transform="translate(62.434 45.81)" fill="#d6bab9"/>
      <path id="Trazado_732360" data-name="Trazado 732360" d="M129.6,54.9a5.587,5.587,0,0,0-.611-1.929c-1.2,9.473-4.436,15.572-7.177,18.378,2.8,2.208.268,5.932-1.787,7.465a5.347,5.347,0,0,1,2.141,3.06c.044,1.269-1.118,1.3-2.449,1.444a19.748,19.748,0,0,0-4.695.644c3.3,3.291,1.293,10.031-1.9,12.709-3.242,2.724-7.987,3.545-12.1,3.452-4.132-.093-8.328-1.428-11.048-4.684-3.257-3.9-1.391-10.33-.465-13.118-.452-.357-2.7,1.152-3.063,1.7A13.811,13.811,0,0,1,87.481,78.6c-5.773.795-7.452,6.832-7.491,11.841a24.984,24.984,0,0,0,.875,7.764c-1.269-.941-3.018-2.332-3.215-4.655-2.219,1.349-1.7,5.337-.215,7.367-2.547-1.5-5.04-2.482-7.1-4.9-2.431-2.857-4.54-7.195-3.049-10.913-2.4-.6-5.275,6.065-5.157,9.721-2.648-4.212-5.463-8.406-3.038-13.608-2.248.279-3.466,2.815-4.01,5.479a8.484,8.484,0,0,0,1.747,4.531,47.332,47.332,0,0,0,2.695,7.846,12.416,12.416,0,0,0,8.218,4.037,12.025,12.025,0,0,1-.7-1.393,5.242,5.242,0,0,1-.365-3.22c.372,1.094,2.533,2.992,4.024,3.849a10.923,10.923,0,0,0,5.554,1.2c.328.877,1.927,1.721,3,2.106a7.307,7.307,0,0,0,3.74.164c-.383-.458-.923-1.415-.711-1.76a11.112,11.112,0,0,0,7.866,3,6.721,6.721,0,0,1-.853-3.621A7.125,7.125,0,0,1,84.97,101c-2.022-2.471-1.9-5.875-.921-9.046,1.209,3.085,1.891,8.776,6.663,9.969a17.088,17.088,0,0,1-.162-2.469,10.122,10.122,0,0,0,4.548,5.665,9.04,9.04,0,0,0,7.345.414,3.248,3.248,0,0,1-1.094-1.486,26.875,26.875,0,0,0,12.042,1.373c.359-.155.715-.317,1.065-.492,5.06-2.5,9.245-6.825,10.1-12.576a19.987,19.987,0,0,0-.281-7.17,55.5,55.5,0,0,0,4.641-13.566A48.918,48.918,0,0,0,129.6,54.9" transform="translate(66.888 64.329)" fill="#ddc6c3"/>
      <path id="Trazado_732361" data-name="Trazado 732361" d="M98.916,82.666a3.233,3.233,0,0,0,1.094,1.486,9.031,9.031,0,0,1-7.345-.414,10.121,10.121,0,0,1-4.551-5.665,17.135,17.135,0,0,0,.164,2.471c-4.774-1.2-5.454-6.887-6.665-9.972-.974,3.171-1.1,6.575.921,9.046a7.12,7.12,0,0,0,4.325,2.429,6.732,6.732,0,0,0,.85,3.623,11.128,11.128,0,0,1-7.866-3c-.213.345.33,1.3.713,1.76a7.338,7.338,0,0,1-3.742-.162c-1.07-.388-2.671-1.231-3-2.106a10.951,10.951,0,0,1-5.556-1.2c-1.49-.855-3.652-2.755-4.024-3.849a5.24,5.24,0,0,0,.365,3.22,12.2,12.2,0,0,0,.7,1.393,12.426,12.426,0,0,1-8.218-4.037,28.6,28.6,0,0,0,6.652,8.836c2.846,2.688,8.158,3.027,11.655,3.271,4.263.295,6.564,2.381,10.844,2.8a25.226,25.226,0,0,0,19.875-6.008,14.018,14.018,0,0,0,1.222-1.282,27.488,27.488,0,0,0,3.625-1.262,26.867,26.867,0,0,1-12.04-1.375" transform="translate(69.324 85.707)" fill="#ceb5b3"/>
      <path id="Trazado_732362" data-name="Trazado 732362" d="M82.964,67.385c1.672-1.311,6.789-8.856,7.788-13.078a5.226,5.226,0,0,0-.83-2.642c-.064-.082-.14-.135-.206-.206-.675,1.92-2,5.452-2.784,7.252-2.2,5.033-3.275,6.889-3.968,8.674" transform="translate(100.755 62.494)" fill="#ddc6c3"/>
      <path id="Trazado_732363" data-name="Trazado 732363" d="M81.849,59.712a32.385,32.385,0,0,0-2.558,3.231s5.115-4.493,7.051-6.2a12.918,12.918,0,0,0,3.231-3.853,4.3,4.3,0,0,0-.151-2.259,21.419,21.419,0,0,1-2,3.06c-1.574,2-4.624,5.084-5.576,6.019" transform="translate(96.294 61.491)" fill="#ddc6c3"/>
      <path id="Trazado_732364" data-name="Trazado 732364" d="M58.035,68.6c1.169.213,2.558-.972,3.162-1.851A8.154,8.154,0,0,0,62.588,62.4c2.85-1.581,3.663-5.665,1.9-8.466a.359.359,0,0,0-.2-.3c-.038-.051-.071-.109-.111-.159s-.1,0-.082.049l.022.073a.384.384,0,0,0-.341.166c-2.017,2.792-5.193,4.963-7.875,7.452-.126,2.834-.879,5.928-1.059,7.547-.078.72-.133,1.439-.177,2.161A5.353,5.353,0,0,0,58.035,68.6" transform="translate(66.379 64.928)" fill="#ddc6c3"/>
      <path id="Trazado_732365" data-name="Trazado 732365" d="M124.831,77.461c2.741-2.806,5.977-8.9,7.179-18.378-.972-1.732-2.761-1.692-4.371-.5-1,4.223-6.116,11.768-7.788,13.078.693-1.785,1.772-3.641,3.968-8.674.786-1.8,2.108-5.332,2.784-7.252-1.236-1.282-3.045-.724-4.6.43a12.971,12.971,0,0,1-3.233,3.853c-1.933,1.705-7.051,6.2-7.051,6.2a32.385,32.385,0,0,1,2.558-3.231c.952-.937,4-4.019,5.576-6.019a21.92,21.92,0,0,0,2-3.06,1.887,1.887,0,0,0-.423-.662c-1.417-1.36-5.213.673-6.964,1.566-4.416,3.437-8.384,8.109-8.446,9.8a10.6,10.6,0,0,0-9.453,1.608c-7.153-.866-13.4,1.9-14.983,3.388-.286-6.88-8.262-17.817-9.411-19.427a19.576,19.576,0,0,0-5.177-2.064c-1.468-.456-7.5,0-8.827.757a8.668,8.668,0,0,0-4.024,3.6c-1.851,3.26-2.219,7.359-.151,9.073a.291.291,0,0,0,.326.295c.113,0,.215,0,.321,0a11.081,11.081,0,0,0,2.068.56c1.47.994,1.8,3.171,1.7,5.529,2.682-2.489,5.859-4.659,7.875-7.454a.386.386,0,0,1,.341-.168l-.022-.071c-.011-.044.051-.089.084-.049s.071.109.109.162a.35.35,0,0,1,.2.295c1.767,2.8.954,6.885-1.9,8.466a8.128,8.128,0,0,1-1.391,4.347c-.6.884-1.993,2.068-3.162,1.853a5.369,5.369,0,0,1-3.377,2.325,62.033,62.033,0,0,0,.538,11.781c.142,1.076.226,2.239.39,3.381.545-2.664,1.763-5.2,4.01-5.479-2.425,5.2.39,9.4,3.04,13.606-.12-3.654,2.753-10.322,5.155-9.721-1.49,3.72.618,8.058,3.049,10.915,2.062,2.423,4.555,3.4,7.1,4.9-1.484-2.033-2-6.019.217-7.367.195,2.323,1.944,3.714,3.215,4.653a24.9,24.9,0,0,1-.877-7.762c.04-5.009,1.718-11.046,7.491-11.841a13.85,13.85,0,0,0-1.036,5.421c.363-.547,2.611-2.055,3.063-1.7-.926,2.788-2.792,9.221.465,13.118,2.719,3.255,6.916,4.588,11.048,4.681s8.864-.726,12.1-3.45c3.191-2.679,5.2-9.418,1.9-12.709a19.746,19.746,0,0,1,4.695-.647c1.331-.144,2.493-.175,2.449-1.442a5.351,5.351,0,0,0-2.141-3.063c2.055-1.53,4.584-5.255,1.787-7.463" transform="translate(63.868 58.216)" fill="#ead9d6"/>
      <path id="Trazado_732366" data-name="Trazado 732366" d="M85.826,64.987a10.6,10.6,0,0,1,9.451-1.608c.064-1.687,4.033-6.36,8.448-9.8-.128.066-.248.126-.352.177a31.5,31.5,0,0,0-9.945,7.671,40.742,40.742,0,0,0-21.106,2.221c-.609-1.614-1.211-3.231-1.935-4.8a21.551,21.551,0,0,0-7.8-9.214c-.372-.244-.764-.467-1.158-.689,1.149,1.61,9.126,12.547,9.411,19.427,1.581-1.488,7.83-4.256,14.983-3.39" transform="translate(74.605 59.447)" fill="#f4e8e6"/>
      <path id="Trazado_732367" data-name="Trazado 732367" d="M56.879,51.208a1.314,1.314,0,0,0-.737,1.648,1.15,1.15,0,0,0,.376.562,1.272,1.272,0,1,0,.361-2.21" transform="translate(68.06 62.114)" fill="#824030"/>
      <path id="Trazado_732368" data-name="Trazado 732368" d="M63.825,55.15a5.125,5.125,0,0,1-6.014-1.118c-.224-.272-4.5,1.96-4.641,4.752-.08,1.477,1.515,1.8,2.71,1.5a1.869,1.869,0,0,0,1.579,1.623,4.993,4.993,0,0,0,4.38-1.517c.591-.861,2.254-3.623,1.986-5.244" transform="translate(64.568 65.591)" fill="#ff6485"/>
      <path id="Trazado_732369" data-name="Trazado 732369" d="M52.226,59.709a8.666,8.666,0,0,1,2.7-1.714,31.937,31.937,0,0,0,5.058-2.314A2.658,2.658,0,0,0,59,54.19c-1.676-1.313-3.579-2.294-4.712-1.6-.928.565-1.8,2.555-2.164,3.523a7.479,7.479,0,0,0-.283.981c.018.363.035.729.066,1.092a9.913,9.913,0,0,0,.314,1.526" transform="translate(62.963 63.587)" fill="#feb51c"/>
      <path id="Trazado_732370" data-name="Trazado 732370" d="M52.125,59.5a29.106,29.106,0,0,1,5.485-2.885c.846-.35,1.86-.589,2.3-1.453a1.943,1.943,0,0,0,.177-1.3,31.937,31.937,0,0,1-5.058,2.314,8.666,8.666,0,0,0-2.7,1.714,9.913,9.913,0,0,1-.314-1.526c-.033-.363-.049-.729-.066-1.092a8.442,8.442,0,0,0,.175,4.23" transform="translate(62.858 65.409)" fill="#f4a00b"/>
      <path id="Trazado_732371" data-name="Trazado 732371" d="M82.1,68.784c-1.233.171-3.4,1.191-4.05-.62-.069-.188-.381-.233-.427,0a1.36,1.36,0,0,0,.113.9,1.821,1.821,0,0,1-1.464-.049,3.061,3.061,0,0,1-.972-1.094.087.087,0,0,0-.157.02c-.436,1.577,1.924,2.56,3.051,1.729l.04-.035c1.154.828,3.512.682,4.061-.6a.175.175,0,0,0-.195-.252" transform="translate(91.187 82.436)" fill="#ddc6c3"/>
      <path id="Trazado_732372" data-name="Trazado 732372" d="M65.333,74.212a1.954,1.954,0,0,1-1.313-1.955,5.726,5.726,0,0,1,.611-2.13.173.173,0,0,0-.213-.21,1.954,1.954,0,0,0-1.231,1.51,3.536,3.536,0,0,1-.678-1.189,5.468,5.468,0,0,1,.206-2.4.1.1,0,0,0-.14-.106c-1.51.906-1.183,4.013.5,4.579-.007,1.428.751,2.877,2.175,2.5a.333.333,0,0,0,.077-.6" transform="translate(74.821 82.234)" fill="#ddc6c3"/>
      <path id="Trazado_732373" data-name="Trazado 732373" d="M69.968,69.288c-.848-.52-1.909-.456-2.56-1.32a8.629,8.629,0,0,1-.926-3.012.066.066,0,0,0-.12-.015,2.891,2.891,0,0,0-.288,1.964,5.341,5.341,0,0,1-1.289-.673,2.883,2.883,0,0,1-.746-2.3c.02-.295-.381-.3-.474-.064a2.778,2.778,0,0,0,.534,2.91c.465.523,1.439,1.185,2.152.844a3.655,3.655,0,0,0,.476.963,3.072,3.072,0,0,0,3.184,1.121.232.232,0,0,0,.055-.419" transform="translate(76.954 77.364)" fill="#ddc6c3"/>
      <path id="Trazado_732374" data-name="Trazado 732374" d="M77.788,73.3c-.848-.52-1.909-.456-2.56-1.32a8.63,8.63,0,0,1-.926-3.012.066.066,0,0,0-.12-.015,2.89,2.89,0,0,0-.288,1.964,5.383,5.383,0,0,1-1.289-.673,2.891,2.891,0,0,1-.746-2.3c.02-.295-.381-.3-.474-.064a2.783,2.783,0,0,0,.534,2.91c.465.523,1.442,1.185,2.152.844a3.559,3.559,0,0,0,.478.963,3.067,3.067,0,0,0,3.182,1.121.231.231,0,0,0,.055-.419" transform="translate(86.452 82.235)" fill="#ddc6c3"/>
      <path id="Trazado_732375" data-name="Trazado 732375" d="M80.74,71.168a3.523,3.523,0,0,1-2.223,1,2.346,2.346,0,0,1-2.057-1.481.165.165,0,0,0-.3.04c-.334,1.156,1.012,1.986,1.984,2.161a2.585,2.585,0,0,0,2.932-1.462.231.231,0,0,0-.337-.259" transform="translate(92.429 85.749)" fill="#ddc6c3"/>
      <path id="Trazado_732376" data-name="Trazado 732376" d="M75.591,68.045a1.578,1.578,0,0,1-1.526-.388,6.23,6.23,0,0,1-.934-1.428c-.086-.137-.343-.135-.374.049a2.447,2.447,0,0,0,1.167,2.217c.514.363,1.734.722,1.96-.157a.241.241,0,0,0-.292-.292" transform="translate(88.33 80.314)" fill="#ddc6c3"/>
      <path id="Trazado_732377" data-name="Trazado 732377" d="M63.808,67.944a3.662,3.662,0,0,1-1.561-.939,2.622,2.622,0,0,1-.421-2c.018-.233-.312-.292-.421-.113-.93,1.526.567,4,2.4,3.474a.219.219,0,0,0,0-.419" transform="translate(74.227 78.676)" fill="#ddc6c3"/>
      <path id="Trazado_732378" data-name="Trazado 732378" d="M60.537,68.238a6.054,6.054,0,0,1-1.656-1.315,3.528,3.528,0,0,1-.629-2.385c.009-.106-.164-.155-.206-.055a2.889,2.889,0,0,0,.024,2.648c-1.273,1.1.173,3.886,1.818,3.443a.224.224,0,0,0,.053-.405c-.494-.326-1.061-.516-1.375-1.056a2.189,2.189,0,0,1-.164-1.455,2.279,2.279,0,0,0,2.031.954.2.2,0,0,0,.1-.374" transform="translate(69.932 78.245)" fill="#ddc6c3"/>
      <path id="Trazado_732379" data-name="Trazado 732379" d="M61.912,64.715a.754.754,0,0,0-.587-.162,2.218,2.218,0,0,1-.946-.213c-.567-.275-.806-.779-1.249-1.171a.063.063,0,0,0-.1.013c-.275.651.345,1.4.846,1.736.441.3,1.767.81,2.07.1a.254.254,0,0,0-.038-.3" transform="translate(71.61 76.695)" fill="#ddc6c3"/>
      <path id="Trazado_732380" data-name="Trazado 732380" d="M57.655,66.063c-.368-.412-.877-.569-1.078-1.134-.195-.543.111-1.059-.027-1.57a.151.151,0,0,0-.182-.1c-.8.151-.795,1.464-.576,2.042.252.671.941,1.442,1.729,1.267a.3.3,0,0,0,.133-.5" transform="translate(67.605 76.815)" fill="#ddc6c3"/>
      <path id="Trazado_732381" data-name="Trazado 732381" d="M96.691,68.093a12.822,12.822,0,0,0-7.835-3.488c-4.489-2.908-11.779-3.457-16.283-.76a.255.255,0,0,0,.195.465c2.908-.565,5.591-1.353,8.608-1.114a22.333,22.333,0,0,1,5.676,1.318,15.083,15.083,0,0,0-3.357.379.128.128,0,0,0,.033.25,24.348,24.348,0,0,1,12.808,3.149.128.128,0,0,0,.155-.2" transform="translate(87.984 75.411)" fill="#ddc6c3"/>
      <path id="Trazado_732382" data-name="Trazado 732382" d="M84.377,60.988a.118.118,0,0,0-.171.069,5.14,5.14,0,0,0-.066.788,1.705,1.705,0,0,1-.512.965c-.423.416-1.025.569-1.484.939a.168.168,0,0,0,.073.275,2.124,2.124,0,0,0,2.155-.952c.359-.5.731-1.723,0-2.084" transform="translate(99.702 74.049)" fill="#ddc6c3"/>
      <path id="Trazado_732383" data-name="Trazado 732383" d="M82.356,61.2a.116.116,0,0,0-.168.131,5.423,5.423,0,0,1,.08,1.814,2.041,2.041,0,0,1-.844,1.371.214.214,0,0,0,.093.357c1.756.474,2.015-3,.839-3.672" transform="translate(98.807 74.311)" fill="#ddc6c3"/>
      <path id="Trazado_732384" data-name="Trazado 732384" d="M75.951,57.577a.178.178,0,0,0-.266.153c.042.691.383,1.251.213,1.973a4.089,4.089,0,0,1-.861,1.38,2.923,2.923,0,0,0-1.174-1.623.092.092,0,0,0-.135.078c-.075.762.567,1.4.726,2.121.148.662-.414,1.121-.266,1.774a.294.294,0,0,0,.531.071,2.457,2.457,0,0,0,.512-1.789c.018,0,.033.007.049,0,1.55-.295,2.177-3.435.671-4.141" transform="translate(89.53 69.901)" fill="#ddc6c3"/>
      <path id="Trazado_732385" data-name="Trazado 732385" d="M79.079,59.153a.118.118,0,0,0-.21.027,4.1,4.1,0,0,1-.788,1.592,2.227,2.227,0,0,1-.771.5c-.257.1-.476.1-.682.306a.348.348,0,0,0,.071.54c.664.405,1.608-.365,2-.87a2,2,0,0,0,.381-2.095" transform="translate(92.941 71.772)" fill="#ddc6c3"/>
      <path id="Trazado_732386" data-name="Trazado 732386" d="M72.469,60.621a3.133,3.133,0,0,1-.937,1.563c-.443.379-1.059.39-1.481.751a.259.259,0,0,0,.051.405c.644.368,1.535-.259,1.98-.709a2.529,2.529,0,0,0,.744-2.011c-.031-.193-.306-.155-.357,0" transform="translate(84.98 73.462)" fill="#ddc6c3"/>
      <path id="Trazado_732387" data-name="Trazado 732387" d="M64.151,61.384c-.667-.175-1.269-.013-1.807-.578A2.552,2.552,0,0,1,61.82,58.9c0-.137-.2-.241-.295-.122a1.833,1.833,0,0,0-.275,1.67,1.534,1.534,0,0,1-1-.357c-.39-.341-.441-.813-.748-1.185a.092.092,0,0,0-.142.018c-.414.56.162,1.508.613,1.871a2.054,2.054,0,0,0,1.67.441c.013.016.024.035.038.053.52.638,1.783,1.282,2.555.72a.346.346,0,0,0-.082-.622" transform="translate(71.913 71.316)" fill="#ddc6c3"/>
      <path id="Trazado_732388" data-name="Trazado 732388" d="M63.359,57.081a5.093,5.093,0,0,1-1.422-.069,2.788,2.788,0,0,1-1.236-.844.1.1,0,0,0-.175.073c.106,1.264,2.075,2.115,2.954,1.134a.175.175,0,0,0-.122-.295" transform="translate(73.506 68.179)" fill="#ddc6c3"/>
      <path id="Trazado_732389" data-name="Trazado 732389" d="M68.33,59.418A6.6,6.6,0,0,1,67,60.324a2.1,2.1,0,0,1-1.8-.224.115.115,0,0,0-.155.157,1.7,1.7,0,0,0,1.847.773,2.138,2.138,0,0,0,1.714-1.4.194.194,0,0,0-.283-.217" transform="translate(78.986 72.124)" fill="#ddc6c3"/>
      <path id="Trazado_732390" data-name="Trazado 732390" d="M65.64,49.959c-.523-2.073-2.854-3.5-4.467-2.449-1.38-1.211-3.35-2-4.657.381-2.221-.272-4.232,4.221-.724,5.337a22.722,22.722,0,0,1,9.039-2.206.851.851,0,0,0,.808-1.063" transform="translate(65.448 56.286)" fill="#ff6485"/>
      <path id="Trazado_732391" data-name="Trazado 732391" d="M40.464,1.519,19.277,13.752C12.018,17.943,6.114,29.206,6.114,38.857V105.68h.029c.038.133.233.241.5.241.288,0,.523-.124.523-.279V38.857c0-9.318,5.671-20.171,12.638-24.195L41.014,2.414q-.276-.445-.549-.895" transform="translate(7.425 1.845)" fill="#ffebeb"/>
      <path id="Trazado_732392" data-name="Trazado 732392" d="M63,13.53,40.5,26.522c-7.257,4.192-13.16,15.452-13.16,25.105V118.45l.027,0c.038.135.233.244.5.244.29,0,.525-.126.525-.279V51.627c0-9.318,5.669-20.174,12.638-24.2L63.439,14.489c-.151-.319-.29-.64-.438-.959" transform="translate(33.199 16.432)" fill="#ffebeb"/>
      <path id="Trazado_732393" data-name="Trazado 732393" d="M82.444,26.516,61.722,38.481c-7.259,4.192-13.163,15.452-13.163,25.105v66.823l.029,0c.038.135.233.244.5.244.29,0,.523-.126.523-.279V63.586c0-9.318,5.671-20.171,12.64-24.2L82.929,27.446q-.249-.462-.485-.93" transform="translate(58.972 32.202)" fill="#ffebeb"/>
      <path id="Trazado_732394" data-name="Trazado 732394" d="M104.445,38.667l-21.5,12.414c-7.257,4.192-13.16,15.45-13.16,25.1v66.823h.027c.038.135.235.244.5.244.29,0,.525-.126.525-.279V76.184c0-9.316,5.669-20.171,12.638-24.195L104.75,39.7c-.1-.345-.2-.689-.306-1.034" transform="translate(84.746 46.959)" fill="#ffebeb"/>
      <rect id="Rectángulo_349716" data-name="Rectángulo 349716" width="1.109" height="162.982" transform="translate(13.488 81.718) rotate(-59.915)" fill="#ffebeb"/>
      <rect id="Rectángulo_349717" data-name="Rectángulo 349717" width="1.109" height="162.982" transform="translate(13.488 44.916) rotate(-59.915)" fill="#ffebeb"/>
      <rect id="Rectángulo_349718" data-name="Rectángulo 349718" width="1.11" height="162.981" transform="matrix(0.501, -0.865, 0.865, 0.501, 30.326, 14.718)" fill="#ffebeb"/>
      <rect id="Rectángulo_349719" data-name="Rectángulo 349719" width="1.109" height="162.984" transform="translate(48.806 4.26) rotate(-59.915)" fill="#ffebeb"/>
    </g>
  </g>
</svg>
