<svg id="Grupo_997279" data-name="Grupo 997279" xmlns="http://www.w3.org/2000/svg" xmlns:xlink="http://www.w3.org/1999/xlink" width="156.977" height="193.129" viewBox="0 0 156.977 193.129">
  <defs>
    <clipPath id="clip-path">
      <rect id="Rectángulo_349684" data-name="Rectángulo 349684" width="156.976" height="193.129" fill="none"/>
    </clipPath>
  </defs>
  <g id="Grupo_997278" data-name="Grupo 997278" clip-path="url(#clip-path)">
    <path id="Trazado_731672" data-name="Trazado 731672" d="M173.718,422.5c1.624,11.742,4.15,17.731,4.15,17.731-7.189,8.156-4.653,7.112-4.939,7.383s4.824-3.208,4.824-3.208c.418,5.024,5.45,4.328,5.45,4.328,3.9-.17,4.4,2.071,4.4,2.071.9-2.2-2.4-3.965-2.4-3.965,18.452-2.552,16.968.749,16.968.749,2.365-4.947-15.221-3.485-15.221-3.485a16.458,16.458,0,0,1,9.508-1.407c-3.247-3.432-13.652.178-13.652.178-2.575-7.591-4.081-20.236-4.081-20.236Z" transform="translate(-105.862 -258.951)" fill="#ecc362"/>
    <path id="Trazado_731673" data-name="Trazado 731673" d="M172.932,484.219a13.724,13.724,0,0,0,1.4-.893,2.015,2.015,0,0,0-.809-1.1c-1.483,2.222-.394,1.809-.587,1.992" transform="translate(-105.865 -295.561)" fill="#a6513c"/>
    <path id="Trazado_731674" data-name="Trazado 731674" d="M209.369,493.1a2.048,2.048,0,0,0-.014-1.59,4.66,4.66,0,0,0-1.119.194,2.479,2.479,0,0,1,1.133,1.4" transform="translate(-127.629 -301.251)" fill="#a6513c"/>
    <path id="Trazado_731675" data-name="Trazado 731675" d="M248.806,487.3v0" transform="translate(-152.495 -298.672)" fill="#a6513c"/>
    <path id="Trazado_731676" data-name="Trazado 731676" d="M247.307,484.881a1.6,1.6,0,0,0,.043-1.529,2.394,2.394,0,0,0-.991.4c1.187.479.966,1.085.948,1.128" transform="translate(-150.995 -296.25)" fill="#a6513c"/>
    <path id="Trazado_731677" data-name="Trazado 731677" d="M229.182,473.033c0,.005,0,.01,0,.015a10.36,10.36,0,0,1,1.88.185,3.981,3.981,0,0,0-1.358-.907.861.861,0,0,0-.526.706" transform="translate(-140.467 -289.493)" fill="#a6513c"/>
    <path id="Trazado_731678" data-name="Trazado 731678" d="M117.488,423.321c.082,12.964-3.2,18.69-3.2,18.69-7.189,8.156-4.653,7.112-4.939,7.383s4.824-3.208,4.824-3.208c.418,5.024,5.45,4.328,5.45,4.328,3.9-.17,4.4,2.072,4.4,2.072.9-2.2-2.4-3.966-2.4-3.966,18.452-2.552,16.968.749,16.968.749,2.365-4.947-15.221-3.485-15.221-3.485a16.458,16.458,0,0,1,9.508-1.407c-3.247-3.432-13.652.178-13.652.178.581-8.689,4.1-20.2,4.1-20.2Z" transform="translate(-66.892 -259.457)" fill="#ecc362"/>
    <path id="Trazado_731679" data-name="Trazado 731679" d="M109.351,487.522a13.842,13.842,0,0,0,1.4-.893,2.015,2.015,0,0,0-.809-1.1c-1.483,2.222-.394,1.809-.587,1.992" transform="translate(-66.896 -297.585)" fill="#a6513c"/>
    <path id="Trazado_731680" data-name="Trazado 731680" d="M145.788,496.4a2.046,2.046,0,0,0-.014-1.59,4.658,4.658,0,0,0-1.119.194,2.479,2.479,0,0,1,1.133,1.4" transform="translate(-88.66 -303.276)" fill="#a6513c"/>
    <path id="Trazado_731681" data-name="Trazado 731681" d="M185.224,490.606v0" transform="translate(-113.525 -300.696)" fill="#a6513c"/>
    <path id="Trazado_731682" data-name="Trazado 731682" d="M183.725,488.184a1.6,1.6,0,0,0,.043-1.529,2.394,2.394,0,0,0-.991.4c1.187.479.966,1.085.948,1.128" transform="translate(-112.025 -298.275)" fill="#a6513c"/>
    <path id="Trazado_731683" data-name="Trazado 731683" d="M165.6,476.336c0,.005,0,.01,0,.015a10.358,10.358,0,0,1,1.881.185,3.982,3.982,0,0,0-1.358-.907.861.861,0,0,0-.526.706" transform="translate(-101.498 -291.517)" fill="#a6513c"/>
    <path id="Trazado_731684" data-name="Trazado 731684" d="M372.268,344.123a12.192,12.192,0,0,1,1.495-2.259,4.957,4.957,0,0,1,5.05-.907c1.83,1.878,1.848,4.516,1.753,6.927a4.446,4.446,0,0,0,.217,1.964c.661,1.539,3.028,2.8,2.268,4.311-.437.867-1.708,1.176-2.552,1.8a3.8,3.8,0,0,0-1.337,3.423c.083,1.239.484,2.456.5,3.7a2.012,2.012,0,0,1-.289,1.217,3.03,3.03,0,0,1-1.207.864,23.015,23.015,0,0,1-7.671,2.124c-1.906-2.867-1.4-6.36-1.154-9.627.211-2.842-.412-5.8-.115-8.6.267-2.525,1.586-2.672,3.039-4.935" transform="translate(-226.222 -208.776)" fill="#e34927"/>
    <path id="Trazado_731685" data-name="Trazado 731685" d="M338.563,404.824c-4.179-1.233-6.533,1.047-6.533,1.047-6.159,8.333-9.985,4.226-9.8.846a9.057,9.057,0,0,1,3.449-6.71c5.963-3.159,12.485,2.731,12.485,2.731Z" transform="translate(-197.496 -244.596)" fill="#e34927"/>
    <path id="Trazado_731686" data-name="Trazado 731686" d="M143.255,160.414c8.529-7.788,8.158-17.8,3.338-20.767a47.056,47.056,0,0,1-7.779-6.521,27.727,27.727,0,0,0-5.844-4.448c-11.587-6.673-19.382-17.586-19.382-17.586-2.5-7.256-25.433-23.63-40.086-33.513A75.988,75.988,0,0,1,49.624,51.611C38.138,31.016,29.037,6.886,29.037,6.886,20.507-9.43,19.024,8.37,19.024,8.37,10.865,3.92,9.011,22.091,9.011,22.091-1,25.429,3.449,58.433,3.449,58.433c-7.046,18.542-1.113,33-1.113,33,3.338,6.3,1.483,16.688,1.483,16.688C1.594,132.23,27.182,141.5,27.182,141.5c13.721,6.675,15.2,15.2,15.2,15.2,7.046,18.171,38.568,3.708,38.568,3.708,18.542,2.6,40.421-5.563,40.421-5.563,11.125-4.821,20.025,6.3,20.025,6.3Z" transform="translate(0 0)" fill="#fff"/>
    <path id="Trazado_731687" data-name="Trazado 731687" d="M357.025,388.738c2.333-1.975,4.856-7.307,5.388-10.356a4.1,4.1,0,0,0-1.4-4.049c-1.009-.924-2.446-1.845-2.428-3.389-.466,1.912-2.149,3.185-3.012,4.9a10.5,10.5,0,0,0-.764,6.127,8.55,8.55,0,0,1-2.813-1.284Z" transform="translate(-215.739 -227.354)" fill="#e34927"/>
    <path id="Trazado_731688" data-name="Trazado 731688" d="M361.485,409.061c.651,4.175-3.768,8.036-3.768,8.036-.051-5.345-1.255-7.474-1.255-7.474.286-.663-1.519-2.937-1.519-2.937a12.325,12.325,0,0,1,4.473,1.739,3.044,3.044,0,0,0,2.069.635" transform="translate(-217.548 -249.262)" fill="#ecc362"/>
    <path id="Trazado_731689" data-name="Trazado 731689" d="M368.751,414.113c-.164,0-.295.231-.292.512s.138.508.3.506.295-.231.292-.512-.138-.508-.3-.506" transform="translate(-225.831 -253.813)" fill="#382118"/>
    <path id="Trazado_731690" data-name="Trazado 731690" d="M365.729,384.29c-.34.566.77,1.54.77,1.54,2.469,2.559-.045,4.439-.045,4.439a4.983,4.983,0,0,0-1.336,1.971,8.95,8.95,0,0,0-1.314-2.174,2.705,2.705,0,0,1,.611-4.1,5.07,5.07,0,0,0,1.313-1.676" transform="translate(-222.548 -235.534)" fill="#382118"/>
    <path id="Trazado_731691" data-name="Trazado 731691" d="M368.376,391.933a1.309,1.309,0,1,1-1.343-1.443,1.4,1.4,0,0,1,1.343,1.443" transform="translate(-224.19 -239.334)" fill="#f79854"/>
    <path id="Trazado_731692" data-name="Trazado 731692" d="M368.318,394.829a.556.556,0,1,1-.573-.539.556.556,0,0,1,.573.539" transform="translate(-225.063 -241.664)" fill="#382118"/>
    <path id="Trazado_731693" data-name="Trazado 731693" d="M56.745,61.828a.369.369,0,0,1-.339-.225c-.1-.245-10.4-24.748-8.556-40.608a.369.369,0,1,1,.732.085c-1.822,15.668,8.4,39.991,8.5,40.235a.369.369,0,0,1-.339.513" transform="translate(-29.192 -12.668)" fill="#382118"/>
    <path id="Trazado_731694" data-name="Trazado 731694" d="M32.124,91.713a.369.369,0,0,1-.315-.176c-.112-.183-11.172-18.467-9.695-35.084a.369.369,0,1,1,.734.065c-1.455,16.372,9.478,34.453,9.589,34.634a.369.369,0,0,1-.314.561" transform="translate(-13.471 -34.394)" fill="#382118"/>
    <path id="Trazado_731695" data-name="Trazado 731695" d="M140.061,265.368l-.035,0A91.414,91.414,0,0,1,99.011,251.1a23.194,23.194,0,0,1-5.324-4.361,26.949,26.949,0,0,1-3.077-4.923c-5.345-10.114-11.4-21.577-11.108-33.961a.368.368,0,1,1,.737.018c-.291,12.192,5.72,23.565,11.023,33.6a26.4,26.4,0,0,0,2.988,4.791,22.545,22.545,0,0,0,5.163,4.219A90.674,90.674,0,0,0,140.1,264.633a.369.369,0,0,1-.034.735" transform="translate(-48.721 -127.176)" fill="#382118"/>
    <path id="Trazado_731696" data-name="Trazado 731696" d="M126.57,235.542a.369.369,0,0,1-.156-.035,47.171,47.171,0,0,1-26.3-34.928.369.369,0,1,1,.728-.116,46.424,46.424,0,0,0,25.886,34.376.369.369,0,0,1-.156.7" transform="translate(-61.357 -122.675)" fill="#382118"/>
    <path id="Trazado_731697" data-name="Trazado 731697" d="M153.315,223.494a.367.367,0,0,1-.2-.06c-5.226-3.4-10.673-6.588-16.191-9.487l-.943-.494a49.846,49.846,0,0,1-7.686-4.623,16.193,16.193,0,0,1-5.914-8.118.369.369,0,0,1,.71-.2,15.74,15.74,0,0,0,5.657,7.737,49.3,49.3,0,0,0,7.574,4.551l.945.494c5.538,2.909,11.005,6.113,16.25,9.521a.369.369,0,0,1-.2.678" transform="translate(-75 -122.731)" fill="#382118"/>
    <path id="Trazado_731698" data-name="Trazado 731698" d="M213.414,404.127a.369.369,0,0,1-.046-.734,66.183,66.183,0,0,0,16.421-4.257.369.369,0,0,1,.275.684,66.928,66.928,0,0,1-16.6,4.3.377.377,0,0,1-.046,0" transform="translate(-130.578 -244.617)" fill="#382118"/>
  </g>
</svg>
