<svg xmlns="http://www.w3.org/2000/svg" xmlns:xlink="http://www.w3.org/1999/xlink" width="118" height="118" viewBox="0 0 118 118">
  <defs>
    <clipPath id="clip-path">
      <rect id="Rectángulo_349671" data-name="Rectángulo 349671" width="105.817" height="95.685" fill="none"/>
    </clipPath>
  </defs>
  <g id="Grupo_997392" data-name="Grupo 997392" transform="translate(-394 -1322)">
    <circle id="Elipse_5894" data-name="Elipse 5894" cx="59" cy="59" r="59" transform="translate(394 1322)" fill="#ffc403"/>
    <g id="Grupo_997253" data-name="Grupo 997253" transform="translate(402.426 1333.529)">
      <g id="Grupo_997252" data-name="Grupo 997252" clip-path="url(#clip-path)">
        <path id="Trazado_731569" data-name="Trazado 731569" d="M54.007,95.683q-21.625,0-43.248,0c-4.626,0-5.716-1.09-5.718-5.708q-.008-18.63.019-37.259c0-1.583.027-2.644-2.161-2.688C.448,49.977-.7,47.356.443,44.878,1.33,42.948,2.38,41.093,3.35,39.2c3.221-6.29,6.464-12.568,9.639-18.881A8.527,8.527,0,0,1,16.25,16.74q12.188-7.5,24.31-15.1A10.167,10.167,0,0,1,46.382,0c4.529.085,9.061.053,13.592.012A8.389,8.389,0,0,1,64.65,1.307Q77.224,9.158,89.843,16.936A7.58,7.58,0,0,1,92.673,20.1c4.1,8.072,8.255,16.122,12.382,24.182,1.293,2.526,1,4.034-1.349,5.6-1.068.712-.855,1.629-.856,2.537q-.025,18.836-.013,37.671c0,4.511-1.081,5.6-5.583,5.6q-21.624.006-43.248,0M75.889,62.62c0-6.791-.118-13.585.05-20.373a16.287,16.287,0,0,0-2.282-9.382A87.313,87.313,0,0,1,69.53,24.81a6.54,6.54,0,0,0-2.586-2.819C59.876,17.638,52.812,13.276,45.8,8.838a2.879,2.879,0,0,0-3.545.049c-6.725,4.256-13.471,8.481-20.275,12.608a11.963,11.963,0,0,0-3.834,4.1c-4.961,7.654-6.5,15.892-6.068,24.985.56,11.773.132,23.592.149,35.39,0,.791-.362,1.948.482,2.27a7.523,7.523,0,0,0,4.845.057c1.124-.349.633-1.68.635-2.575.029-12.485.013-24.97.024-37.455,0-3.863,1.2-5.06,5.023-5.061q19.868-.008,39.736,0c6.59,0,6.929.343,6.929,7.009,0,11.936.043,23.873-.041,35.808-.014,2.013.636,2.779,2.587,2.5a3.722,3.722,0,0,1,1.028,0c1.914.272,2.474-.572,2.453-2.441-.084-7.819-.035-15.64-.035-23.46m19.77,6.87c0-5.69-.031-11.38.021-17.069.013-1.477-.478-2.122-2.015-2.084-2.879.071-5.761.056-8.641,0-1.372-.024-1.978.45-1.974,1.9q.051,17.172,0,34.343c0,1.4.454,1.982,1.9,1.946,2.81-.071,5.628-.117,8.433.015,1.869.088,2.335-.661,2.308-2.4-.086-5.551-.032-11.1-.034-16.657M56.82,7.391c5.111,3.18,9.785,6.163,14.542,9.008a10.657,10.657,0,0,1,4.2,4.619c2.649,5.34,5.816,10.469,7.967,16,2.068,5.318,5.353,7.234,10.728,6.188a1.5,1.5,0,0,1,.411,0c1.625.142,1.693-.492,1.024-1.779q-4.412-8.479-8.71-17.017A5.369,5.369,0,0,0,84.919,22.2c-7.4-4.579-14.817-9.14-22.166-13.8a7.809,7.809,0,0,0-5.933-1m-12.8,53.4H29.208c-4.012,0-3.963,0-3.849,4.09.039,1.41.558,1.953,1.954,1.95q16.761-.038,33.522,0c1.439,0,1.982-.647,1.893-2.009a8.454,8.454,0,0,1,.008-1.643c.254-1.936-.624-2.457-2.475-2.422-5.414.1-10.831.036-16.246.036m.237,11.5H28.828c-3.47,0-3.371,0-3.483,3.437-.064,1.955.554,2.615,2.555,2.6q16.144-.123,32.288,0c1.986.014,2.8-.635,2.546-2.6a5.14,5.14,0,0,1,0-1.232c.193-1.7-.531-2.265-2.233-2.239-5.415.086-10.831.031-16.247.031m-.218-16.758c5.485,0,10.971-.072,16.454.039,1.914.039,2.353-.747,2.265-2.441-.078-1.495.131-2.83-2.139-2.814q-16.557.118-33.115,0c-2.276-.017-2.073,1.294-2.143,2.795-.077,1.657.268,2.506,2.224,2.465,5.483-.117,10.969-.041,16.454-.041m-.015,28.269c-5.412,0-10.826.075-16.236-.04-1.923-.041-2.458.61-2.458,2.47,0,1.841.648,2.322,2.407,2.312q16.339-.1,32.678,0c1.814.012,2.378-.583,2.365-2.366-.012-1.72-.438-2.45-2.315-2.414-5.479.1-10.96.037-16.441.037" transform="translate(0 0)"/>
      </g>
    </g>
  </g>
</svg>
