<svg xmlns="http://www.w3.org/2000/svg" xmlns:xlink="http://www.w3.org/1999/xlink" width="118" height="118" viewBox="0 0 118 118">
  <defs>
    <clipPath id="clip-path">
      <rect id="Rectángulo_349682" data-name="Rectángulo 349682" width="109.546" height="109.648" fill="none"/>
    </clipPath>
  </defs>
  <g id="Grupo_997403" data-name="Grupo 997403" transform="translate(1482 9504)">
    <circle id="Elipse_5905" data-name="Elipse 5905" cx="59" cy="59" r="59" transform="translate(-1482 -9504)" fill="#06d1d1"/>
    <g id="Grupo_997275" data-name="Grupo 997275" transform="translate(-1478.192 -9499.824)">
      <g id="Grupo_997274" data-name="Grupo 997274" clip-path="url(#clip-path)">
        <path id="Trazado_731662" data-name="Trazado 731662" d="M71.222,109.594a61.92,61.92,0,0,1-15.9-1.3c-13.672-3.056-21.5-11.776-23.105-25.646-1.79-15.451,1.035-30.286,5.962-44.83,3.471-10.249,8.111-19.887,15.263-28.159a33.613,33.613,0,0,1,6.478-5.783c7.912-5.412,16.6-5.133,24.232.721C89.867,8.983,94,14.676,97.409,20.913c7.2,13.166,11.32,27.32,13.275,42.147.153,1.161.418,2.307.615,3.462a5.516,5.516,0,0,0,4.894,4.973c1.331.218,2.521.59,2.482,2.246-.035,1.506-1.121,1.891-2.381,2.09-2.932.463-4.392,2.263-5.059,5.117-1.048,4.489-1.887,9.059-4.075,13.212-4.559,8.653-12.2,12.721-21.415,14.473a65.025,65.025,0,0,1-14.523.96m-.314-4.053c3.57-.186,6.711-.262,9.834-.543A46.854,46.854,0,0,0,87,103.964c11.208-2.57,17.385-9.353,19.236-21.023.723-4.558-.087-6-3.973-7.016-1.223-.319-2.582-.461-2.642-2.148-.065-1.837,1.361-2.02,2.675-2.357,3.473-.89,4.7-2.463,4.3-5.873a118.177,118.177,0,0,0-12.4-41.69c-3.455-6.587-7.719-12.591-14.133-16.7-5.181-3.322-10.481-3.728-16-.66A31.792,31.792,0,0,0,54.308,15.2C46.966,24.782,42.75,35.822,39.752,47.351c-3.073,11.815-5.031,23.761-3.035,36.035,1.787,10.986,7.93,17.7,18.75,20.453,5.221,1.328,10.57,1.263,15.441,1.7" transform="translate(-16.702 0)"/>
        <path id="Trazado_731663" data-name="Trazado 731663" d="M210.477,9.593a2.054,2.054,0,0,1-1.9,2.221,5.9,5.9,0,0,0-5.617,5.631,2.055,2.055,0,0,1-4.089-.022,5.9,5.9,0,0,0-5.634-5.615,1.906,1.906,0,0,1-1.844-2.051,1.915,1.915,0,0,1,1.865-2.034,5.9,5.9,0,0,0,5.618-5.632,2.055,2.055,0,0,1,4.09.022A5.892,5.892,0,0,0,208.6,7.723a2,2,0,0,1,1.875,1.87" transform="translate(-100.93 -0.131)"/>
        <path id="Trazado_731664" data-name="Trazado 731664" d="M9.554,56a1.892,1.892,0,0,1,1.977,1.694c.428,3.422,2.26,5.378,5.719,5.814a1.887,1.887,0,0,1,1.8,2.084,1.936,1.936,0,0,1-1.908,2c-3.349.433-5.155,2.345-5.585,5.665a1.891,1.891,0,0,1-2.086,1.8,1.936,1.936,0,0,1-2-1.906C7.036,69.8,5.125,67.995,1.8,67.566A1.89,1.89,0,0,1,0,65.481a1.933,1.933,0,0,1,1.907-2c3.351-.432,5.156-2.346,5.584-5.665A1.942,1.942,0,0,1,9.554,56" transform="translate(0 -29.53)"/>
        <path id="Trazado_731665" data-name="Trazado 731665" d="M65.537,186.677a2,2,0,0,1-2.219-1.815c-.428-3.317-2.223-5.24-5.577-5.672a1.933,1.933,0,0,1-1.914-1.993c-.027-1.336.77-1.973,2.022-2.142,3.244-.436,5.017-2.309,5.443-5.526a1.937,1.937,0,0,1,2-1.912c1.336-.026,1.975.77,2.144,2.02.436,3.242,2.311,5.014,5.529,5.44a1.938,1.938,0,0,1,1.915,1.995c.026,1.335-.773,1.971-2.023,2.14a5.8,5.8,0,0,0-5.441,5.527,2.02,2.02,0,0,1-1.873,1.937" transform="translate(-29.439 -88.391)"/>
      </g>
    </g>
  </g>
</svg>
