<svg xmlns="http://www.w3.org/2000/svg" xmlns:xlink="http://www.w3.org/1999/xlink" width="150" height="142" viewBox="0 0 150 142">
  <defs>
    <clipPath id="clip-path">
      <ellipse id="Elipse_5939" data-name="Elipse 5939" cx="75" cy="66.5" rx="75" ry="66.5" transform="translate(0 0.037)" fill="none"/>
    </clipPath>
  </defs>
  <g id="Grupo_997390" data-name="Grupo 997390" transform="translate(1859 10992)">
    <circle id="Elipse_5892" data-name="Elipse 5892" cx="59" cy="59" r="59" transform="translate(-1843 -10968)" fill="#b20d0d"/>
    <g id="Grupo_997235" data-name="Grupo 997235" transform="translate(-1859 -10991.703)">
      <g id="Grupo_997234" data-name="Grupo 997234" transform="translate(0 -0.334)" clip-path="url(#clip-path)">
        <path id="Trazado_731466" data-name="Trazado 731466" d="M67.613,328.412c-3.5-17.593-2.657-26.962-2.416-30.6a7.112,7.112,0,0,1,1.227-3.546,11.111,11.111,0,0,1,2.593-2.948c1.2-3.6,2.8-3.6,2.8-3.6.134-3.2,2.268-2.135,2.268-2.135l1.067.934c2.668-3.069,4.4-3.736,4.4-3.736,3.2-.667,1.735,1.868,1.735,1.868l-3.669,4.6c.534,3.336.2,4.069.2,4.069-.4,1.2-1.2.934-1.2.934a6.045,6.045,0,0,0,.91,2.657,1.344,1.344,0,0,0,2.239,0c.237-.357.52-.724.52-.724,1.334-2.135,3.148-2.689,4.643-3.316a1.6,1.6,0,0,1,1.986.637.844.844,0,0,1-.17,1.083,33.474,33.474,0,0,1-2.789,2.2,11.517,11.517,0,0,0-3.2,4.8c-2.668,4.67-6,5.737-6,5.737a67.066,67.066,0,0,0,5.311,16.435Z" transform="translate(-55.001 -239.153)" fill="#fcaa97"/>
        <path id="Trazado_731467" data-name="Trazado 731467" d="M159.884,294.66c1.024,2.791.308,5.622-1.6,6.322s-4.285-1-5.309-3.787-.308-5.622,1.6-6.322,4.285,1,5.309,3.787" transform="translate(-129.182 -245.973)" fill="#f08f4a"/>
        <path id="Trazado_731468" data-name="Trazado 731468" d="M395.929,318.272a26.593,26.593,0,0,1-.61,6.689,2.142,2.142,0,0,1-1.5,1.577l-9.388,2.682,18.885,24.77,15.327-25.728-5-1.6a2.274,2.274,0,0,1-1.574-1.982c-.264-3.214-.264-6.274-.264-6.274Z" transform="translate(-325.634 -269.315)" fill="#fcaa97"/>
        <path id="Trazado_731469" data-name="Trazado 731469" d="M483.658,334.99a2.273,2.273,0,0,1-1.485-1.949c-.155-1.882-.219-3.709-.245-4.9l-14.73,1.844c5.611,8.622,15.822,5.283,16.461,5.008" transform="translate(-395.739 -277.672)" fill="#c77f6d"/>
        <path id="Trazado_731470" data-name="Trazado 731470" d="M151.524,370.615c-4.653,14.1-10.264,19.843-10.264,19.843-8.348-12.864-9.58-19.706-9.58-19.706-8.632,2.256-16.336,5.09-19.7,6.824a9.9,9.9,0,0,0-3.38,2.862c-9.629,12.852-17.021,24.253-17.021,24.253l-2.327-7.937C82.688,397.848,75.3,402.5,75.3,402.5c2.327,7.8,6.021,16.559,6.021,16.559,4.927,17.654,29.286-4.516,29.286-4.516l-1.232,77.594H173.42l1.916-78.552c10.674-.684,15.875,9.58,15.875,9.58,6.979-9.99-12.18-37.36-12.18-37.36-10.264-11.632-27.507-15.19-27.507-15.19" transform="translate(-63.781 -313.653)" fill="#73c0e6"/>
        <path id="Trazado_731471" data-name="Trazado 731471" d="M489.184,601.4h0a.146.146,0,0,1-.144-.147l.893-99.013,1.663-2.771a.146.146,0,0,1,.25.15l-1.622,2.7-.893,98.934a.146.146,0,0,1-.146.144" transform="translate(-414.24 -422.74)" fill="#382118"/>
        <path id="Trazado_731472" data-name="Trazado 731472" d="M176.492,598.072h-.005a.146.146,0,0,1-.14-.151,65.654,65.654,0,0,1,.686-7.135.146.146,0,1,1,.287.048,65.312,65.312,0,0,0-.682,7.1.146.146,0,0,1-.145.14" transform="translate(-149.374 -500.046)" fill="#382118"/>
        <path id="Trazado_731473" data-name="Trazado 731473" d="M164.86,606.767a.146.146,0,0,1-.141-.184,19.2,19.2,0,0,1,1.381-3.315.146.146,0,0,1,.257.138A18.882,18.882,0,0,0,165,606.66a.146.146,0,0,1-.14.107" transform="translate(-139.521 -510.657)" fill="#382118"/>
        <path id="Trazado_731474" data-name="Trazado 731474" d="M506.355,523.219a1.392,1.392,0,1,1-1.392-1.392,1.392,1.392,0,0,1,1.392,1.392" transform="translate(-426.55 -441.737)" fill="#4d99bf"/>
        <path id="Trazado_731475" data-name="Trazado 731475" d="M503.981,674.053a1.392,1.392,0,1,1-1.392-1.392,1.392,1.392,0,0,1,1.392,1.392" transform="translate(-424.539 -569.501)" fill="#4d99bf"/>
        <path id="Trazado_731476" data-name="Trazado 731476" d="M503.981,834.97a1.392,1.392,0,1,1-1.392-1.392,1.392,1.392,0,0,1,1.392,1.392" transform="translate(-424.539 -705.806)" fill="#4d99bf"/>
        <path id="Trazado_731477" data-name="Trazado 731477" d="M778.552,637.063a.146.146,0,0,1-.088-.03c-.023-.017-2.314-1.709-6.017-.254a.146.146,0,1,1-.107-.271c3.864-1.518,6.2.219,6.3.293a.146.146,0,0,1-.089.261" transform="translate(-654.133 -538.352)" fill="#382118"/>
        <path id="Trazado_731478" data-name="Trazado 731478" d="M784.216,647.042a.146.146,0,0,1-.108-.048,4.585,4.585,0,0,0-2.766-1.458.146.146,0,1,1,0-.291,4.789,4.789,0,0,1,2.982,1.553.146.146,0,0,1-.108.244" transform="translate(-661.712 -546.278)" fill="#382118"/>
        <path id="Trazado_731479" data-name="Trazado 731479" d="M305.336,595.021h0a.146.146,0,0,1-.142-.149l.274-11.222a.146.146,0,0,1,.291.007l-.274,11.222a.146.146,0,0,1-.145.142" transform="translate(-258.512 -493.983)" fill="#382118"/>
        <path id="Trazado_731480" data-name="Trazado 731480" d="M98.887,399.761h-.01a.109.109,0,0,1-.1-.118c0-.046.451-4.628,4.226-5.3a.109.109,0,0,1,.039.215C99.431,395.2,99,399.617,99,399.661a.109.109,0,0,1-.109.1" transform="translate(-83.67 -333.748)" fill="#382118"/>
        <path id="Trazado_731481" data-name="Trazado 731481" d="M133.565,310.125a.109.109,0,0,1-.1-.06,10.051,10.051,0,0,0-2.375-2.767.109.109,0,1,1,.141-.167,10.066,10.066,0,0,1,2.429,2.836.109.109,0,0,1-.049.147.107.107,0,0,1-.049.012" transform="translate(-111.009 -259.856)" fill="#382118"/>
        <path id="Trazado_731482" data-name="Trazado 731482" d="M102.755,325.823a1.338,1.338,0,0,1-.508-.1l-.023-.01a1.4,1.4,0,0,1-.855-1.428c.065-.69.181-1.329.214-1.5l-1.039-1.429a.109.109,0,1,1,.177-.128l1.1,1.506-.009.047c0,.007-.146.733-.22,1.529a1.18,1.18,0,0,0,.722,1.206l.022.009a1.114,1.114,0,0,0,1.3-.342,5.674,5.674,0,0,0,.641-1.005l.03-.06h.357a.937.937,0,0,0,.868-.58,11.069,11.069,0,0,0,.618-2.219,1.926,1.926,0,0,0-.188-1.243l-2.084-3.937c-.007-.013-.775-1.39-1.881-1.145a.109.109,0,1,1-.047-.213c1.266-.282,2.087,1.192,2.121,1.255l2.085,3.938a2.146,2.146,0,0,1,.21,1.385,11.266,11.266,0,0,1-.631,2.263,1.154,1.154,0,0,1-1.07.715h-.222a5.872,5.872,0,0,1-.635.984,1.336,1.336,0,0,1-1.045.508" transform="translate(-85.148 -266.323)" fill="#382118"/>
        <path id="Trazado_731483" data-name="Trazado 731483" d="M96.24,340.139a.109.109,0,0,1-.1-.15,11.421,11.421,0,0,0,.434-1.345,1.543,1.543,0,0,0-.1-1.014,19.136,19.136,0,0,0-2.1-3.555,1.218,1.218,0,0,0-1.208-.426,11.638,11.638,0,0,0-2.081.743.109.109,0,0,1-.089-.2,11.858,11.858,0,0,1,2.122-.757,1.436,1.436,0,0,1,1.424.5,19.354,19.354,0,0,1,2.129,3.6,1.764,1.764,0,0,1,.118,1.158,11.423,11.423,0,0,1-.444,1.375.109.109,0,0,1-.1.069" transform="translate(-77.02 -282.131)" fill="#382118"/>
        <path id="Trazado_731484" data-name="Trazado 731484" d="M107.611,365.9a.109.109,0,0,1-.012-.218l1.2-.134a.109.109,0,0,1,.024.217l-1.2.134h-.012" transform="translate(-91.059 -309.363)" fill="#382118"/>
        <path id="Trazado_731485" data-name="Trazado 731485" d="M116.334,444.074a.109.109,0,0,1-.024-.216,7.851,7.851,0,0,0,1.835-.654.109.109,0,0,1,.112.187,7.9,7.9,0,0,1-1.9.68l-.024,0" transform="translate(-98.448 -375.126)" fill="#382118"/>
        <path id="Trazado_731486" data-name="Trazado 731486" d="M614.563,363.789a2.745,2.745,0,0,1,1.321-1.142,2.01,2.01,0,0,1,1.682.58,6.015,6.015,0,0,0,1.469,1.106,9.276,9.276,0,0,0,2.2.264,3.83,3.83,0,0,1,2.634,1.768,4.573,4.573,0,0,1,.587,3.149,2.04,2.04,0,0,1-.375.962.947.947,0,0,1-.92.365,1.855,1.855,0,0,1-.543-.291,3.427,3.427,0,0,0-1.529-.531.6.6,0,0,1-.352-.1.581.581,0,0,1-.138-.265,5.8,5.8,0,0,0-3.3-3.419,8.352,8.352,0,0,0-5.056-.343,11.633,11.633,0,0,0,2.323-2.1" transform="translate(-518.598 -306.873)" fill="#e34927"/>
        <path id="Trazado_731487" data-name="Trazado 731487" d="M573.485,778.969a19.846,19.846,0,0,0-5.978,2.312.023.023,0,0,0-.01.025,10.519,10.519,0,0,1-.707,5.819.023.023,0,0,1-.044-.012,14.656,14.656,0,0,0-.339-4.288.023.023,0,0,0-.036-.012,7.158,7.158,0,0,0-2.162,2.034l0,0a22.1,22.1,0,0,1-4.223,3.433.023.023,0,0,1-.033-.031c1.047-1.668,3.553-4.786,3.934-5.258a.023.023,0,0,0-.025-.037,43.075,43.075,0,0,0-5.931,2.663.023.023,0,0,1-.025-.039c3.216-2.594,5.383-4.26,5.658-4.472a.024.024,0,0,0-.005-.04,6.088,6.088,0,0,0-2.565-1.078,6.707,6.707,0,0,1,2.4-.068,20.474,20.474,0,0,0,3.828.137l.007,0c2.472-1.171,5.19-2.589,5.45-2.725a.023.023,0,0,1,.031.011l.8,1.594a.023.023,0,0,1-.016.033" transform="translate(-472.566 -658.16)" fill="#ffe09c"/>
        <path id="Trazado_731488" data-name="Trazado 731488" d="M556.685,828.7h0a.118.118,0,0,0-.176-.036c-.3.237-.39.259-.732.536a2.287,2.287,0,0,0,.859-.337.118.118,0,0,0,.049-.162" transform="translate(-470.771 -701.622)" fill="#d67623"/>
        <path id="Trazado_731489" data-name="Trazado 731489" d="M571.515,843.727c-.2.292-.382.563-.528.8,0,0,.323-.2.8-.533a.141.141,0,0,0,.014-.221l-.081-.072a.141.141,0,0,0-.209.025" transform="translate(-483.655 -714.351)" fill="#d67623"/>
        <path id="Trazado_731490" data-name="Trazado 731490" d="M615.747,836.859c0,.227-.01.463-.022.709,0,0,.111-.249.256-.665a.121.121,0,0,0-.1-.161.12.12,0,0,0-.133.117" transform="translate(-521.55 -708.485)" fill="#d67623"/>
        <path id="Trazado_731491" data-name="Trazado 731491" d="M578.829,794.213a.091.091,0,0,0-.1-.091c-.186.022-.38.051-.584.092a4.087,4.087,0,0,1,.569.123.091.091,0,0,0,.116-.088Z" transform="translate(-489.718 -672.384)" fill="#d67623"/>
        <path id="Trazado_731492" data-name="Trazado 731492" d="M510.054,776.261a26.736,26.736,0,0,0-5.463,3.7.022.022,0,0,0,0,.027,10.517,10.517,0,0,1,.861,5.8.023.023,0,0,1-.046,0,14.662,14.662,0,0,0-1.464-4.045.023.023,0,0,0-.038,0,7.172,7.172,0,0,0-1.546,2.534v0a22.094,22.094,0,0,1-3.162,4.429.023.023,0,0,1-.04-.022c.567-1.885,2.158-5.556,2.4-6.113a.023.023,0,0,0-.034-.029,43.091,43.091,0,0,0-5.014,4.14.023.023,0,0,1-.034-.031c2.414-3.354,4.061-5.534,4.271-5.812.011-.014,0-.031-.015-.037a6.09,6.09,0,0,0-2.759-.36,6.71,6.71,0,0,1,2.292-.7,20.478,20.478,0,0,0,3.727-.882l.006,0c2.073-1.784,4.318-3.872,4.533-4.072.009-.009,1.793-1.542,1.8-1.532l1.368,1.642c.01.011-1.629,1.362-1.642,1.369" transform="translate(-420.532 -654.705)" fill="#ffe09c"/>
        <path id="Trazado_731493" data-name="Trazado 731493" d="M495.414,857.508h0a.118.118,0,0,0-.179.012c-.229.309-.307.353-.564.71,0,0,.18-.037.739-.553a.118.118,0,0,0,0-.17" transform="translate(-419.011 -726.046)" fill="#d67623"/>
        <path id="Trazado_731494" data-name="Trazado 731494" d="M553.972,850.694q.085.329.167.689s.041-.269.071-.709a.121.121,0,0,0-.141-.128.12.12,0,0,0-.1.148" transform="translate(-469.239 -720.176)" fill="#d67623"/>
        <path id="Trazado_731495" data-name="Trazado 731495" d="M506.94,818.7a.091.091,0,0,0-.121-.061c-.173.07-.353.15-.538.243a4.1,4.1,0,0,1,.581-.032.091.091,0,0,0,.088-.115Z" transform="translate(-428.845 -693.147)" fill="#d67623"/>
        <path id="Trazado_731496" data-name="Trazado 731496" d="M539.054,381.472c10.264-2.737,9.99,5.748,9.99,5.748.547,15.6,8.485,23.4,8.485,23.4a30.128,30.128,0,0,1,6.843,21.212c7.39,6.979,3.148,7.8,3.148,7.8,2.053,4.927-3.421,1.642-3.421,1.642,0,5.474-9.58-3.284-9.58-3.284-3.969,9.716-8.485,5.474-8.485,5.474l-.958-1.368a50.939,50.939,0,0,0,1.368-5.2c-6.979,9.032-9.853,5.885-9.853,5.885l-.958-1.505a3.041,3.041,0,0,1,.411-3.421c2.327-4.242-.137-10.674-.137-10.674-21.9-17.654,1.642-33.939,1.642-33.939,5.611-4.379,1.232-9.716,1.232-9.716Z" transform="translate(-446.043 -322.388)" fill="#f08f4a"/>
        <path id="Trazado_731497" data-name="Trazado 731497" d="M622.363,388.38c3.85,3.478,5.051-3.147.068-.533a.328.328,0,0,0-.068.533" transform="translate(-527.082 -327.717)" fill="#e34927"/>
        <path id="Trazado_731498" data-name="Trazado 731498" d="M629.8,390.478a.205.205,0,1,1-.159-.079l.018,0a1.293,1.293,0,0,0-.516-.1c-.491,0-.89.245-.89.547s.4.547.89.547.89-.245.89-.547a.46.46,0,0,0-.233-.368" transform="translate(-532.16 -330.326)" fill="#382118"/>
        <path id="Trazado_731499" data-name="Trazado 731499" d="M592.474,398.776a3.733,3.733,0,0,1-.358,3.014c-3.011,2.874-1.5,4.618-.274,4.516a3.271,3.271,0,0,0,2.429-1.618c1.129-2.761-1.037-5.739-1.037-5.739Z" transform="translate(-500.062 -337.506)" fill="#e34927"/>
        <path id="Trazado_731500" data-name="Trazado 731500" d="M585.578,384.388c-2.248-.282-4.3,1.771-4.3,1.771a10.432,10.432,0,0,1,4.024.545c.355-.135,1.587.686,1.587.686a5.3,5.3,0,0,0-.958-2.053,1.259,1.259,0,0,1-.352-.95" transform="translate(-492.371 -325.297)" fill="#ffe09c"/>
        <path id="Trazado_731501" data-name="Trazado 731501" d="M604.64,386.857c0,.076-.122.137-.274.137s-.274-.061-.274-.137.123-.137.274-.137.274.061.274.137" transform="translate(-511.697 -327.294)" fill="#382118"/>
        <path id="Trazado_731502" data-name="Trazado 731502" d="M739.53,744.958a.145.145,0,0,1-.134-.088c-1.2-2.8-5.508-5.38-5.552-5.406a.146.146,0,0,1,.149-.25c.18.107,4.434,2.658,5.67,5.542a.145.145,0,0,1-.076.191.144.144,0,0,1-.057.012" transform="translate(-621.544 -625.856)" fill="#382118"/>
        <path id="Trazado_731503" data-name="Trazado 731503" d="M759,731.191a.146.146,0,0,1-.132-.085c-1.468-3.2-6.188-5.929-6.235-5.956a.146.146,0,1,1,.144-.253c.2.113,4.848,2.8,6.355,6.087a.146.146,0,0,1-.132.206" transform="translate(-637.46 -613.731)" fill="#382118"/>
        <path id="Trazado_731504" data-name="Trazado 731504" d="M686.13,746.221a.15.15,0,0,1-.034,0,24.391,24.391,0,0,1-4.133-1.378.146.146,0,1,1,.122-.264,24.079,24.079,0,0,0,4.078,1.359.146.146,0,0,1-.033.287" transform="translate(-577.585 -630.404)" fill="#382118"/>
        <path id="Trazado_731505" data-name="Trazado 731505" d="M633.628,591.956a9.949,9.949,0,0,1-4.129-.883,13.272,13.272,0,0,1-2.029-1.185,20.366,20.366,0,0,1-8.28-21.089.146.146,0,1,1,.285.062,20.075,20.075,0,0,0,8.162,20.787,13,13,0,0,0,1.984,1.159,9.77,9.77,0,0,0,7.518.2.146.146,0,0,1,.107.271,9.888,9.888,0,0,1-3.617.674" transform="translate(-524.092 -481.428)" fill="#382118"/>
        <path id="Trazado_731506" data-name="Trazado 731506" d="M680.1,652.9a.145.145,0,0,1-.065-.015,26.118,26.118,0,0,1-7.859-6.043,9.368,9.368,0,0,1-2.627-5.185.146.146,0,0,1,.29-.022,9.1,9.1,0,0,0,2.555,5.014,25.826,25.826,0,0,0,7.771,5.974.146.146,0,0,1-.065.276" transform="translate(-567.139 -543.105)" fill="#382118"/>
        <path id="Trazado_731507" data-name="Trazado 731507" d="M712.442,645.3a.146.146,0,0,1-.083-.026c-2.814-1.951-4.774-5.324-5.827-10.027a.146.146,0,0,1,.284-.064c1.036,4.629,2.957,7.944,5.709,9.852a.146.146,0,0,1-.083.265" transform="translate(-598.466 -537.659)" fill="#382118"/>
        <path id="Trazado_731508" data-name="Trazado 731508" d="M585.994,482.327a2.257,2.257,0,0,1-.554-.07,1.427,1.427,0,0,1-.93-.676c-.026-.044-.051-.092-.076-.139a1.368,1.368,0,0,0-.13-.217c-.144-.177-.3-.139-.61-.017l-.039.015a1.118,1.118,0,0,1-1.094-.065,1.627,1.627,0,0,1-.6-1.389.146.146,0,1,1,.29.023,1.352,1.352,0,0,0,.475,1.125.825.825,0,0,0,.823.034l.038-.015c.259-.1.65-.258.944.1a1.571,1.571,0,0,1,.162.265c.022.043.045.086.069.126a1.149,1.149,0,0,0,.75.542,1.9,1.9,0,0,0,1.529-.256.146.146,0,1,1,.157.245,2.21,2.21,0,0,1-1.2.363" transform="translate(-492.946 -405.998)" fill="#985419"/>
        <path id="Trazado_731509" data-name="Trazado 731509" d="M647.667,498.9a1.917,1.917,0,0,1-.2-.011,2.413,2.413,0,0,1-1.329-.592.146.146,0,0,1,.191-.22,2.124,2.124,0,0,0,1.168.522,1.128,1.128,0,0,0,.652-.1c.051-.027.1-.059.148-.091a1.213,1.213,0,0,1,.328-.169,1.15,1.15,0,0,1,.56.022l.042.009a4.879,4.879,0,0,0,1.1.1.977.977,0,0,0,.747-.254.146.146,0,1,1,.219.192,1.249,1.249,0,0,1-.959.353,5.18,5.18,0,0,1-1.162-.108l-.043-.009a.907.907,0,0,0-.42-.027.987.987,0,0,0-.249.132c-.056.037-.113.074-.171.1a1.309,1.309,0,0,1-.619.141" transform="translate(-547.27 -421.588)" fill="#985419"/>
        <path id="Trazado_731510" data-name="Trazado 731510" d="M565,507.61a1.8,1.8,0,0,1-1.61-1,.146.146,0,1,1,.265-.122,1.484,1.484,0,0,0,1.773.757.146.146,0,0,1,.1.275,1.6,1.6,0,0,1-.523.086" transform="translate(-477.21 -428.675)" fill="#985419"/>
        <path id="Trazado_731511" data-name="Trazado 731511" d="M577.572,524.55a1.8,1.8,0,0,1-1.618-1.016.146.146,0,0,1,.266-.118,1.485,1.485,0,0,0,1.764.778.146.146,0,0,1,.092.276,1.594,1.594,0,0,1-.5.08" transform="translate(-487.851 -443.009)" fill="#985419"/>
        <path id="Trazado_731512" data-name="Trazado 731512" d="M609.569,596.568a14.5,14.5,0,0,1-12.487,3.812,28.058,28.058,0,0,0-7.229-1.052c-4.622-.782-6.974-1.218-8.16-1.453a6.369,6.369,0,0,1-2.1-.825c-5.7-3.514-7.485-4.82-7.485-4.82a1.416,1.416,0,0,1,0-1.577c-2.235-1.84-2.5-2.76-2.5-2.76-.394-1.314,1.314-1.183,1.314-1.183-3.549-2.629-.526-3.023-.526-3.023-.394-1.84,1.446-1.577,1.446-1.577,6.309,2.1,9.333,1.972,9.333,1.972,6.441.263,5.521-2.1,5.521-2.1a4.2,4.2,0,0,0-1.577-2.234c-1.62-1.782-1.443-3.015-1.069-3.7a.685.685,0,0,1,1.061-.168c2.366,2.167,4.082,4,4.082,4a12.362,12.362,0,0,1,4.469,6.309,5.2,5.2,0,0,0,2.724,2.975,2.343,2.343,0,0,0,2.447-.483,6.6,6.6,0,0,0,1.007-1.177c7.624,1.314,9.727,9.07,9.727,9.07" transform="translate(-482.139 -487.366)" fill="#fcaa97"/>
        <path id="Trazado_731513" data-name="Trazado 731513" d="M584.065,630.47a.106.106,0,0,1-.025,0c-.232-.054-5.7-1.34-7.671-3.047a.109.109,0,1,1,.143-.165c1.929,1.672,7.521,2.986,7.577,3a.109.109,0,0,1-.025.216" transform="translate(-488.182 -531.017)" fill="#382118"/>
        <path id="Trazado_731514" data-name="Trazado 731514" d="M586.32,650.237a.11.11,0,0,1-.033-.005,32.739,32.739,0,0,1-6.465-3.034.109.109,0,0,1,.116-.185,32.486,32.486,0,0,0,6.416,3.012.109.109,0,0,1-.033.213" transform="translate(-491.095 -547.76)" fill="#382118"/>
        <path id="Trazado_731515" data-name="Trazado 731515" d="M593.4,675.624a.109.109,0,0,1-.031,0,24.075,24.075,0,0,1-5.816-2.645.109.109,0,1,1,.126-.178,23.83,23.83,0,0,0,5.752,2.613.109.109,0,0,1-.031.214" transform="translate(-497.646 -569.599)" fill="#382118"/>
        <path id="Trazado_731516" data-name="Trazado 731516" d="M382.3,109.177a2.818,2.818,0,0,1-.815-.915l-2.31-3.516a7.3,7.3,0,0,1-1.126-2.239,7.383,7.383,0,0,1,.067-2.835l.977-6.332a4.346,4.346,0,0,1,.666-2.019,9.144,9.144,0,0,1,2.049-1.476c1.531-1.138,2.089-3.268,3.589-4.447a8.063,8.063,0,0,1,2.293-1.12l5.9-2.14a5.1,5.1,0,0,1,2.935-.443c.564.143,1.065.477,1.62.654,1.979.632,4.147-.821,6.152-.277,2.122.575,3.183,3.114,5.2,4,1,.439,2.191.449,3.051,1.129,1.739,1.376.908,4.242,1.763,6.307.544,1.313,1.8,2.342,1.9,3.762.1,1.4-.965,2.6-1.261,3.978-.325,1.509.283,3.207-.437,4.567-.69,1.3-2.283,1.728-3.538,2.478-1.145.685-2.074,1.711-3.255,2.33a11.123,11.123,0,0,1-4.974.887l-11.975.273c-1.565.036-3.5.1-4.822-.911-.531-.408-.592-.9-1.26-1.228-.731-.355-1.652-.016-2.392-.467" transform="translate(-320.127 -68.852)" fill="#87cbed"/>
        <path id="Trazado_731517" data-name="Trazado 731517" d="M436.956,144.333a1.7,1.7,0,0,0-.924,0c.274-9.441-4.888-16.894-13.462-16.4-9.321.542-12.685,7.93-11.7,17.347a1.739,1.739,0,0,0-1.371-.152c-1.245.431-1.664,2.484-.936,4.584s2.327,3.454,3.572,3.022a1.455,1.455,0,0,0,.355-.182c2.622,7.444,7.685,12.542,11.988,12.227,4.69-.343,8.5-5.725,10.367-12.69,1.3.251,2.8-1.135,3.4-3.192.624-2.133.05-4.179-1.282-4.569" transform="translate(-345.767 -108.072)" fill="#fcaa97"/>
        <path id="Trazado_731518" data-name="Trazado 731518" d="M507.394,272.782h-.016a.146.146,0,0,1-.129-.161,8.824,8.824,0,0,0,0-1.913.146.146,0,0,1,.287-.048,8.934,8.934,0,0,1,0,1.993.146.146,0,0,1-.145.13" transform="translate(-429.665 -228.881)" fill="#382118"/>
        <path id="Trazado_731519" data-name="Trazado 731519" d="M504.277,294.266a2.329,2.329,0,0,1-1.216-.34.146.146,0,0,1,.15-.25,2.359,2.359,0,0,0,2.446-.125.146.146,0,0,1,.167.239,2.936,2.936,0,0,1-1.547.476" transform="translate(-426.059 -248.354)" fill="#382118"/>
        <path id="Trazado_731520" data-name="Trazado 731520" d="M417.913,259.68a.145.145,0,0,1-.08-.024,2.3,2.3,0,0,1-.71-2.638.146.146,0,1,1,.278.086,1.979,1.979,0,0,0,.593,2.31.146.146,0,0,1-.082.267" transform="translate(-353.206 -217.342)" fill="#382118"/>
        <path id="Trazado_731521" data-name="Trazado 731521" d="M590.128,254.617a.146.146,0,0,1-.08-.267,2.107,2.107,0,0,0,.7-2.288.146.146,0,1,1,.284-.065,2.429,2.429,0,0,1-.825,2.6.145.145,0,0,1-.08.024" transform="translate(-499.744 -213.081)" fill="#382118"/>
        <path id="Trazado_731522" data-name="Trazado 731522" d="M548.11,251.513a1.88,1.88,0,0,1,.1-.61.435.435,0,0,0,.466.227.485.485,0,0,0,.061-.938.8.8,0,0,1,.41-.118c.575,0,1.046.635,1.051,1.426s-.457,1.435-1.033,1.439-1.046-.635-1.051-1.426" transform="translate(-464.277 -211.548)" fill="#382118"/>
        <path id="Trazado_731523" data-name="Trazado 731523" d="M460.419,253.354a1.875,1.875,0,0,1,.069-.614.435.435,0,0,0,.475.206.485.485,0,0,0,.019-.939.8.8,0,0,1,.4-.137c.575-.03,1.074.587,1.114,1.377s-.392,1.455-.967,1.484-1.073-.587-1.114-1.377" transform="translate(-389.996 -213.068)" fill="#382118"/>
        <path id="Trazado_731524" data-name="Trazado 731524" d="M546.394,227.731c-.154.325-1.145.178-2.214-.329s-1.81-1.181-1.656-1.506,1.145-.178,2.214.329,1.81,1.181,1.656,1.506" transform="translate(-459.529 -190.923)" fill="#943c26"/>
        <path id="Trazado_731525" data-name="Trazado 731525" d="M448.868,232.839c.154.325,1.145.178,2.214-.329s1.81-1.181,1.656-1.506-1.145-.178-2.214.329-1.81,1.181-1.656,1.506" transform="translate(-380.197 -195.249)" fill="#943c26"/>
        <path id="Trazado_731526" data-name="Trazado 731526" d="M490.32,312.749a36.519,36.519,0,0,0,7.293-.391c-3.516,6.772-7.293.391-7.293.391" transform="translate(-415.326 -264.306)" fill="#fff"/>
        <path id="Trazado_731527" data-name="Trazado 731527" d="M549.7,276.918c0,.647-.9,1.172-2.018,1.172s-2.018-.525-2.018-1.172.9-1.172,2.018-1.172,2.018.525,2.018,1.172" transform="translate(-462.204 -233.294)" fill="#ff8382"/>
        <path id="Trazado_731528" data-name="Trazado 731528" d="M452.858,279.472c0,.647.9,1.172,2.018,1.172s2.018-.525,2.018-1.172-.9-1.172-2.018-1.172-2.018.525-2.018,1.172" transform="translate(-383.594 -235.457)" fill="#ff8382"/>
        <path id="Trazado_731529" data-name="Trazado 731529" d="M461.571,175.955a15.682,15.682,0,0,1-4.088-1.189c-.654-.282-1.29-.6-1.916-.941s-1.28-.655-1.935-.947c-.956-.428-1.925-.819-2.884-1.224a24.477,24.477,0,0,1,5.82,2.33c6.137,2.972,12.9.951,12.9.951-4.384-11.649-21.292-3.685-21.292-3.685a13,13,0,0,1,1.415.164l-.06.139c1.325.555,2.671,1.04,3.984,1.593.657.275,1.3.572,1.938.895s1.289.636,1.954.905a15.822,15.822,0,0,0,4.151,1.106,15.575,15.575,0,0,0,4.282-.142,15.534,15.534,0,0,1-4.269.045" transform="translate(-379.627 -142.53)" fill="#943c26"/>
        <path id="Trazado_731530" data-name="Trazado 731530" d="M420.118,136.25c.964-4.39,4.753-8.269,12.5-8.334,10.615-.089,13.144,7.593,13.144,7.593.009-6.942.009-17.491-12.829-17.3-17.66.268-12.816,18.037-12.816,18.037" transform="translate(-355.346 -99.853)" fill="#87cbed"/>
        <path id="Trazado_731531" data-name="Trazado 731531" d="M422.278,187.654a9.089,9.089,0,0,1,2.571-6.037c2.289-2.386,5.843-3.641,10.561-3.73,5.539-.1,8.855,2.236,10.662,4.218a12.238,12.238,0,0,1,2.624,4.4l-.98.282a11.444,11.444,0,0,0-2.429-4.03,12.444,12.444,0,0,0-9.859-3.852c-4.437.084-7.749,1.233-9.844,3.416a8.146,8.146,0,0,0-2.287,5.308Z" transform="translate(-357.69 -150.4)" fill="#4d99bf"/>
        <path id="Trazado_731532" data-name="Trazado 731532" d="M156.85,299.918a.146.146,0,0,1-.145-.132,3.081,3.081,0,0,1,1-2.569.146.146,0,0,1,.175.233,2.84,2.84,0,0,0-.887,2.309.146.146,0,0,1-.132.158h-.013" transform="translate(-132.73 -251.456)" fill="#ffe09c"/>
        <path id="Trazado_731533" data-name="Trazado 731533" d="M450.937,391.12l-.323-.474c-.349-.512-8.555-12.629-9.515-20.309l.867-.108c.829,6.63,7.5,17.084,9.049,19.443a49.676,49.676,0,0,0,9.932-19.61l.857.169a50.649,50.649,0,0,1-10.5,20.452Z" transform="translate(-373.632 -313.183)" fill="#4d99bf"/>
        <path id="Trazado_731534" data-name="Trazado 731534" d="M775.265,658.614a.437.437,0,0,1-.421-.322c-.02-.072-2.083-7.284-9.515-8.718a.437.437,0,0,1,.166-.858,12.91,12.91,0,0,1,8.124,5.255,14.079,14.079,0,0,1,2.068,4.092.437.437,0,0,1-.307.537.446.446,0,0,1-.115.015" transform="translate(-647.972 -549.211)" fill="#4d99bf"/>
        <path id="Trazado_731535" data-name="Trazado 731535" d="M74.283,545.307l-.447-.751c5.731-3.411,13.981-5.769,14.063-5.793l.238.841c-.082.023-8.224,2.351-13.854,5.7" transform="translate(-62.543 -456.082)" fill="#4d99bf"/>
      </g>
    </g>
  </g>
</svg>
