<svg xmlns="http://www.w3.org/2000/svg" xmlns:xlink="http://www.w3.org/1999/xlink" width="118" height="118" viewBox="0 0 118 118">
  <defs>
    <clipPath id="clip-path">
      <rect id="Rectángulo_349673" data-name="Rectángulo 349673" width="96.152" height="107.422" fill="none"/>
    </clipPath>
  </defs>
  <g id="Grupo_997394" data-name="Grupo 997394" transform="translate(-1096 -1322)">
    <circle id="Elipse_5896" data-name="Elipse 5896" cx="59" cy="59" r="59" transform="translate(1096 1322)" fill="#06d1d1"/>
    <g id="Grupo_997257" data-name="Grupo 997257" transform="translate(892.333 1226.107)">
      <g id="Grupo_997256" data-name="Grupo 997256" transform="translate(212 101)" clip-path="url(#clip-path)">
        <path id="Trazado_731576" data-name="Trazado 731576" d="M69.216,14.45c0,3.559.046,7.119-.022,10.676-.029,1.5.438,2.23,2.03,2.1,1.04-.083,2.111.113,3.136-.037,3.494-.51,5.791.885,7.894,3.736C87.721,38.338,93.48,45.534,99.2,52.749a7.51,7.51,0,0,1,1.914,5.54c-.133,1.594,0,3.209-.037,4.813-.057,2.462-.85,3.283-3.277,3.307-3.56.037-7.122.085-10.679-.021A2.444,2.444,0,0,0,84.3,68.382,20.888,20.888,0,0,1,73.113,80.792c-6.541,3.177-13.5,1.482-19.339-4.548a18.89,18.89,0,0,1-4.865-7.96c-.429-1.52-1.214-1.926-2.691-1.889-3.558.088-7.119.049-10.679.018-2.547-.022-3.319-.834-3.387-3.418a3.856,3.856,0,0,0,0-.419c-.693-5,.879-9.046,4.214-12.936C41.988,43.079,47.124,36.093,52.4,29.233a4.639,4.639,0,0,1,4.283-2.04c1.739.1,3.494-.065,5.232.044,1.694.106,2.154-.627,2.139-2.215-.06-6.559-.024-13.119-.023-19.678,0-.628-.014-1.257.009-1.884C64.119,1.222,65,.034,66.568,0c1.6-.033,2.532,1.153,2.634,3.354.023.487.011.977.011,1.465q0,4.815,0,9.63m-2.6,47.071H92.564c3.493,0,3.655-.2,3.367-3.666a4.788,4.788,0,0,0-1.207-2.6c-5.58-7.142-11.17-14.276-16.707-21.452a3.424,3.424,0,0,0-3.028-1.438c-5.579.04-11.158.05-16.737-.006a3.554,3.554,0,0,0-3.157,1.609c-2.172,2.9-4.449,5.725-6.679,8.583C45.072,46.838,41.772,51.162,38.37,55.4a5.425,5.425,0,0,0-.84,5.336c.523,1.53,2.344.738,3.567.747,8.508.063,17.016.033,25.524.033m.1,4.9c-3.766,0-7.531.032-11.3-.015-1.588-.02-1.846.595-1.149,1.891a17.158,17.158,0,0,0,10.8,8.923,5.675,5.675,0,0,0,3.1,0,17.16,17.16,0,0,0,10.8-8.925c.7-1.309.412-1.907-1.159-1.887-3.695.046-7.392.015-11.087.015" transform="translate(-18.545 0)"/>
        <path id="Trazado_731577" data-name="Trazado 731577" d="M11.588,183.75c-2.792,0-5.583.01-8.375,0C1.6,183.737.268,183.22.021,181.408c-.2-1.468,1.063-2.724,3.025-2.752q8.477-.122,16.957.006c1.636.022,3.149.629,3.03,2.678-.116,2-1.6,2.41-3.279,2.411q-4.083,0-8.166,0" transform="translate(0 -103.55)"/>
        <path id="Trazado_731578" data-name="Trazado 731578" d="M185.485,183.752c-2.792,0-5.583.009-8.375,0-1.619-.007-2.987-.489-3.117-2.358-.142-2.047,1.333-2.7,2.98-2.72q8.478-.123,16.957-.018c1.974.026,3.253,1.245,3.079,2.71-.215,1.811-1.523,2.372-3.149,2.383-2.791.018-5.583.005-8.375.007" transform="translate(-100.874 -103.552)"/>
        <path id="Trazado_731579" data-name="Trazado 731579" d="M27.363,214.215a2.637,2.637,0,0,1,1.143-1.979Q34.99,206.81,41.5,201.413c1.23-1.017,2.588-1.206,3.713.079,1.217,1.39.724,2.752-.546,3.821q-6.468,5.446-13,10.816a2.529,2.529,0,0,1-3.076.5,2.436,2.436,0,0,1-1.227-2.409" transform="translate(-15.864 -116.299)"/>
        <path id="Trazado_731580" data-name="Trazado 731580" d="M175.878,214.346a2.464,2.464,0,0,1-1.408,2.359,2.529,2.529,0,0,1-2.891-.567c-2.909-2.382-5.795-4.792-8.687-7.194-1.446-1.2-2.908-2.385-4.324-3.621-1.248-1.091-1.785-2.417-.577-3.823,1.116-1.3,2.477-1.127,3.71-.109q6.522,5.387,13,10.825a2.645,2.645,0,0,1,1.175,2.13" transform="translate(-91.208 -116.292)"/>
        <path id="Trazado_731581" data-name="Trazado 731581" d="M108.233,216.453c0-2.233-.035-4.467.01-6.7s.945-3.425,2.522-3.459c1.6-.035,2.6,1.148,2.625,3.349q.072,7.014,0,14.028c-.022,2.2-1.025,3.388-2.62,3.357-1.576-.031-2.484-1.216-2.527-3.456-.046-2.372-.011-4.745-.011-7.118" transform="translate(-62.745 -119.606)"/>
      </g>
    </g>
  </g>
</svg>
