<svg xmlns="http://www.w3.org/2000/svg" xmlns:xlink="http://www.w3.org/1999/xlink" width="131.757" height="118" viewBox="0 0 131.757 118">
  <defs>
    <clipPath id="clip-path">
      <rect id="Rectángulo_349663" data-name="Rectángulo 349663" width="131.757" height="88.582" fill="none"/>
    </clipPath>
  </defs>
  <g id="Grupo_997388" data-name="Grupo 997388" transform="translate(-1088.703 -750)">
    <circle id="Elipse_5890" data-name="Elipse 5890" cx="59" cy="59" r="59" transform="translate(1096 750)" fill="#06d1d1"/>
    <g id="Grupo_997231" data-name="Grupo 997231" transform="translate(1088.703 765.081)">
      <rect id="Rectángulo_349656" data-name="Rectángulo 349656" width="121.569" height="69.953" transform="translate(4.997 11.158)" fill="#aa917c"/>
      <g id="Grupo_997230" data-name="Grupo 997230">
        <g id="Grupo_997229" data-name="Grupo 997229" clip-path="url(#clip-path)">
          <path id="Trazado_731335" data-name="Trazado 731335" d="M396.3,538.64a5.657,5.657,0,0,1-3.753,2.4,4.068,4.068,0,0,0,1.167-.866,1.383,1.383,0,0,0,.294-1.359,6.947,6.947,0,0,1-4.513,1.938,2.99,2.99,0,0,0,.827-1.757,12.7,12.7,0,0,1-3.751,1.551c-.571.134-1.287.178-1.624-.3a1.44,1.44,0,0,1-2.712.21.585.585,0,0,0-.193-.3c-.262-.156-.5.222-.707.441a1.11,1.11,0,0,1-1.138.2,3.265,3.265,0,0,1-1.019-.656c.063.4-.52.625-.872.427a2.124,2.124,0,0,1-.7-.962.447.447,0,0,0-.189-.218c-.218-.1-.426.167-.483.4s-.1.519-.318.611l-1.7-1.6a.408.408,0,0,0-.254-.141c-.309,0-.212.475-.185.783a1.006,1.006,0,0,1-1.047.958,2.653,2.653,0,0,1-1.455-.592c-.465-.319-1.151-.642-1.522-.216a2.875,2.875,0,0,0-.282.594,1.342,1.342,0,0,1-1.74.391,5.7,5.7,0,0,1-1.484-1.279,2.407,2.407,0,0,0-1.7-.866q.3,1.079.56,2.169c.03.128.052.284-.045.372a.378.378,0,0,1-.334.034l-1.707-.363a4.6,4.6,0,0,1,1.124,2.01l-1.655.25c-.113.307.241.574.548.685s.689.265.705.592a1.237,1.237,0,0,0-1.033,1.161,16.693,16.693,0,0,0,4.716,1.567,33.313,33.313,0,0,0,4.2.365l9.722.433c1.84.082,3.683.164,5.521.063,4.609-.254,8.853-4.389,8.742-9.133" transform="translate(-316.34 -469.011)" fill="#f7ca68"/>
          <path id="Trazado_731336" data-name="Trazado 731336" d="M487.133,539.33a8.535,8.535,0,0,0,.755-3.449v-.02c0-.07,0-.139-.006-.207l0-.03q-.005-.1-.013-.194l0-.033q-.009-.095-.021-.187c0-.01,0-.02,0-.03q-.013-.1-.03-.19l0-.019a3.8,3.8,0,0,0-.154-.589l-.007-.018c-.019-.052-.039-.1-.06-.153l-.02-.045c-.018-.04-.036-.079-.055-.118l-.028-.053c-.018-.034-.037-.067-.056-.1l-.034-.055q-.029-.045-.059-.088l-.039-.053c-.021-.027-.042-.053-.064-.079l-.042-.049c-.023-.025-.047-.049-.071-.073l-.044-.043c-.027-.025-.055-.048-.083-.07l-.04-.033a1.569,1.569,0,0,0-.133-.09c-.033-.02-.067-.038-.1-.054s-.062-.029-.094-.042h0c-1.371-.568-3.952.706-5.267,2.879a6.411,6.411,0,0,0-.659,1.443h0c-.026.085-.048.169-.069.253l-.013.055q-.024.1-.043.2c0,.017-.007.034-.01.05-.014.081-.027.162-.036.242l0,.018c-.008.073-.014.145-.018.216q0,.028,0,.056,0,.1,0,.2c0,.01,0,.02,0,.03,0,.076.006.15.012.224,0,.014,0,.028,0,.042.006.06.013.12.022.179,0,.017.005.034.008.05a3.021,3.021,0,0,0,.1.412l.016.047q.027.081.059.16l.015.039c.027.064.056.126.087.188l.013.024q.041.079.088.156l.027.044c.033.052.067.1.1.152l.013.018c.041.055.084.109.13.162l.03.034q.056.063.116.124l.035.035c.051.049.1.1.158.144a3.3,3.3,0,0,0,.421.3c1.708,1.033,4.089.423,5.178-2.01" transform="translate(-418.546 -464.304)" fill="#f08f4a"/>
          <path id="Trazado_731337" data-name="Trazado 731337" d="M546.328,549.344a8.531,8.531,0,0,0-3.51.378l-.019.007q-.1.034-.194.071l-.028.011q-.091.036-.179.074l-.03.013q-.087.038-.171.079l-.028.013q-.087.043-.171.088l-.017.009a3.786,3.786,0,0,0-.51.332l-.015.013q-.065.052-.126.105l-.036.033c-.032.03-.064.059-.094.09l-.041.043c-.026.028-.052.056-.077.085l-.041.05c-.022.028-.044.056-.065.084l-.038.054c-.019.028-.037.057-.055.086s-.023.037-.033.056-.032.06-.047.09-.019.037-.027.055-.028.067-.04.1c-.006.016-.013.032-.019.049a1.591,1.591,0,0,0-.043.154c-.008.037-.015.075-.019.113s-.008.068-.01.1h0c-.1,1.48,1.923,3.524,4.4,4.082a6.417,6.417,0,0,0,1.578.168h0c.089,0,.176-.008.261-.014l.056-.005q.1-.009.2-.023l.051-.007c.082-.012.162-.026.241-.042l.018,0c.072-.015.141-.032.21-.051l.054-.015c.065-.019.128-.038.19-.06l.028-.01q.107-.038.209-.082l.038-.017q.083-.037.163-.078l.045-.023a3.034,3.034,0,0,0,.359-.225l.04-.03q.068-.052.133-.107l.032-.027c.052-.046.1-.093.15-.142l.019-.02c.041-.043.081-.087.12-.133l.033-.039c.039-.047.076-.1.111-.145l.013-.018c.04-.056.077-.115.113-.174l.022-.039q.042-.073.08-.149l.022-.045c.031-.064.06-.129.086-.2h0a3.29,3.29,0,0,0,.152-.494c.439-1.947-.895-4.012-3.548-4.274" transform="translate(-470.932 -478.478)" fill="#f08f4a"/>
          <path id="Trazado_731338" data-name="Trazado 731338" d="M413.667,530.559a8.532,8.532,0,0,0-1.07-3.364l-.011-.018q-.053-.09-.109-.176l-.016-.025q-.053-.082-.108-.161l-.019-.027q-.055-.078-.112-.152l-.018-.024c-.04-.051-.08-.1-.121-.15l-.012-.015a3.8,3.8,0,0,0-.427-.433l-.015-.013q-.063-.054-.128-.1l-.04-.029c-.035-.026-.071-.051-.107-.074l-.051-.032c-.033-.02-.065-.04-.1-.058l-.057-.03c-.032-.016-.063-.032-.1-.047l-.06-.027c-.031-.013-.063-.025-.1-.037l-.061-.021c-.033-.01-.065-.019-.1-.028l-.06-.015c-.036-.008-.071-.014-.107-.019l-.051-.008c-.053-.006-.106-.011-.16-.012-.038,0-.076,0-.115,0s-.068.006-.1.011h0c-1.471.193-3.07,2.587-3.123,5.126a6.415,6.415,0,0,0,.15,1.579h0c.02.087.043.171.066.253l.016.054q.03.1.064.2l.017.048c.028.078.058.154.09.228l.008.017c.029.067.06.132.092.2l.025.049q.047.09.1.175l.015.026q.059.1.122.188l.024.034q.053.074.109.144l.032.04a3.037,3.037,0,0,0,.292.307l.037.033q.064.056.131.109l.033.026c.055.042.112.082.169.119l.023.014c.05.032.1.062.154.091l.045.024c.054.028.109.055.165.08l.021.01c.063.027.128.052.193.076l.043.014q.08.027.162.049l.048.013c.069.017.138.033.209.046h0a3.28,3.28,0,0,0,.515.051c2,.042,3.753-1.677,3.48-4.329" transform="translate(-354.539 -457.711)" fill="#f08f4a"/>
          <path id="Trazado_731339" data-name="Trazado 731339" d="M364.781,561.016l.1-1.288a5.464,5.464,0,0,1,2.6.99l.069-1.877a12.285,12.285,0,0,1,3.816,1.45l.387-3.041c1.55.658,2.649,2,4.194,2.665s3.992.093,3.978-1.46a2.741,2.741,0,0,0,3.6,1.577l.375-1.138a2.164,2.164,0,0,0,2.124,1.3,2.1,2.1,0,0,0,1.918-1.538l.713,1.41a2.418,2.418,0,0,0,3.006-1.331q-.014.8-.028,1.61a6.627,6.627,0,0,0,5.115-2.112c.544,2.046-1.05,4.166-3.115,5.125a15.958,15.958,0,0,1-6.8,1.009c-5.663-.031-12.594.11-18.207-.567a55.265,55.265,0,0,1-7.18-1.552c-3.585-1.28,1.537-2.878,3.333-1.226" transform="translate(-313.76 -485.401)" fill="#ffe09c"/>
          <path id="Trazado_731340" data-name="Trazado 731340" d="M417.936,531.818a.122.122,0,0,1-.046-.009.123.123,0,0,1-.068-.16,2.541,2.541,0,0,1,1.235-1.331.123.123,0,0,1,.086.23,2.326,2.326,0,0,0-1.094,1.192.123.123,0,0,1-.114.077" transform="translate(-363.943 -461.936)" fill="#ffe09c"/>
          <path id="Trazado_731341" data-name="Trazado 731341" d="M508.868,537.277a.123.123,0,0,1-.085-.212,2.539,2.539,0,0,1,1.676-.7.123.123,0,1,1-.017.245,2.313,2.313,0,0,0-1.49.63.123.123,0,0,1-.085.034" transform="translate(-443.151 -467.209)" fill="#ffe09c"/>
          <path id="Trazado_731342" data-name="Trazado 731342" d="M549.5,556.842a.123.123,0,0,1-.085-.212,2.536,2.536,0,0,1,1.676-.7.123.123,0,0,1,.114.131.124.124,0,0,1-.131.114,2.316,2.316,0,0,0-1.49.63.122.122,0,0,1-.085.034" transform="translate(-478.547 -484.251)" fill="#ffe09c"/>
          <path id="Trazado_731343" data-name="Trazado 731343" d="M229.043,470.277a3.66,3.66,0,0,0,.636,1.82.7.7,0,0,0,.413.3.89.89,0,0,0,.773-.4,1.452,1.452,0,0,0,.279-.9,1.187,1.187,0,0,0-.123-.5,5.166,5.166,0,0,0-.627-.732c-.15-.2-.252-.437-.4-.635-.161-.215-.577-.752-.866-.393-.236.293-.115,1.175-.084,1.445" transform="translate(-199.461 -408.279)" fill="#e34927"/>
          <path id="Trazado_731344" data-name="Trazado 731344" d="M185.971,425.975c-.194-.187-.5-.244-.693-.428a.637.637,0,0,1,.193-1.013c.606-.262,1.373.383,1.948.065.36-.2.55-.738.964-.682.378.051.447.548.737.781a1.28,1.28,0,0,0,1.082.071.5.5,0,0,1,.382.013.36.36,0,0,1,.118.151c.248.513,0,1.135.2,1.668s.777.869.914,1.407a27.588,27.588,0,0,1-3.476-.713,13.154,13.154,0,0,0-1.733-.267c-.525-.074-.294.1-.413-.337-.071-.263.014-.492-.218-.716" transform="translate(-161.237 -369.255)" fill="#e34927"/>
          <path id="Trazado_731345" data-name="Trazado 731345" d="M118.4,443.8a4.313,4.313,0,0,0-1.648-1.581,4.841,4.841,0,0,0-5.047-.068,5.475,5.475,0,0,0-1.213,1,21.146,21.146,0,0,1-2.541,2.3c-6.587,5.078-7.5,8.731-7.5,8.731-1.552,8.829,11.643,8.538,11.643,8.538,12.322-.776,10.478-5.627,10.478-5.627,1.746-2.426-2.328-6.306-2.328-6.306-5.336-4.754-2.62-5.627-2.62-5.627Z" transform="translate(-87.388 -384.553)" fill="#c96f4f"/>
          <path id="Trazado_731346" data-name="Trazado 731346" d="M164.549,445.886a1.332,1.332,0,0,1,.776-.485,4.931,4.931,0,0,0-.291,1.649c.388-.194.291-.679.582-.873.194.582-.388,1.261.291,1.746.194-.388.776-.485.873-.291a2.369,2.369,0,0,1,.291,1.843c.388-.291.388-.776.679-1.164a11.9,11.9,0,0,1,.194,1.843c.485-.194.388-.97.776-.97.485.1.485.776.776,1.261.194-.291.194-.873.388-.97.485-.194.582.679.97.97a4.867,4.867,0,0,0,.194-1.164c.485.291.582,1.067,1.261,1.164a.848.848,0,0,1,.485-.873c.1-.194.194.291.485.388,0-.291.194-.582.1-.873.582.1.776.679,1.164.97a.643.643,0,0,1,.231-.585c-3.449-3.606-1.25-4.314-1.25-4.314l.776-1.358a4.313,4.313,0,0,0-1.648-1.581,4.841,4.841,0,0,0-5.047-.068,5.471,5.471,0,0,0-1.213,1c-.447.477-.917.93-1.407,1.362-.145.45-.647.809-.436,1.371" transform="translate(-143.289 -384.553)" fill="#f08f4a"/>
          <path id="Trazado_731347" data-name="Trazado 731347" d="M120.243,471.328c-.534-.476-.986-.912-1.37-1.313a.643.643,0,0,0-.231.585c-.388-.291-.582-.873-1.164-.97.1.291-.1.582-.1.873-.291-.1-.388-.582-.485-.388a.848.848,0,0,0-.485.873c-.679-.1-.776-.873-1.261-1.164a4.873,4.873,0,0,1-.194,1.164c-.388-.291-.485-1.164-.97-.97-.194.1-.194.679-.388.97-.291-.485-.291-1.164-.776-1.261-.388,0-.291.776-.776.97a11.9,11.9,0,0,0-.194-1.844c-.291.388-.291.873-.679,1.164a2.369,2.369,0,0,0-.291-1.843c-.1-.194-.679-.1-.873.291-.679-.485-.1-1.164-.291-1.746-.291.194-.194.679-.582.873a4.932,4.932,0,0,1,.291-1.649,1.333,1.333,0,0,0-.776.485c-.211-.562.291-.921.436-1.371q-.551.486-1.134.935c-6.587,5.078-7.5,8.731-7.5,8.731-1.552,8.829,11.643,8.538,11.643,8.538,12.322-.776,10.478-5.627,10.478-5.627,1.746-2.426-2.329-6.306-2.329-6.306" transform="translate(-87.388 -405.095)" fill="#c96f4f"/>
          <path id="Trazado_731348" data-name="Trazado 731348" d="M256.037,531.369a.123.123,0,0,1-.117-.086,6.784,6.784,0,0,0-1.328-2.57l-.01-.011a8.643,8.643,0,0,1-1.084-1.873.123.123,0,0,1,.228-.091,8.562,8.562,0,0,0,1.046,1.808,6.95,6.95,0,0,1,1.383,2.664.123.123,0,0,1-.08.154.119.119,0,0,1-.037.006" transform="translate(-220.805 -458.756)" fill="#382118"/>
          <path id="Trazado_731349" data-name="Trazado 731349" d="M104.767,525.871a.123.123,0,0,1-.111-.07c-.672-1.407-.215-4.085,3.083-7.383a.123.123,0,0,1,.174.174c-3.21,3.21-3.641,5.833-3.035,7.1a.123.123,0,0,1-.111.176" transform="translate(-90.931 -451.546)" fill="#382118"/>
          <path id="Trazado_731350" data-name="Trazado 731350" d="M194.157,533.256a2.6,2.6,0,0,1,.142.358,3.027,3.027,0,0,1,.084.373,3.282,3.282,0,0,1,.03.764,3.037,3.037,0,0,1-.159.751,1.841,1.841,0,0,1-.388.665c.036-.256.064-.5.091-.735s.048-.476.069-.713l.053-.718c.013-.121.015-.243.031-.367s.02-.248.047-.377" transform="translate(-168.87 -464.501)" fill="#f08f4a"/>
          <path id="Trazado_731351" data-name="Trazado 731351" d="M194.131,472.619c-.04.062-.083.124-.129.182a1.828,1.828,0,0,1-.155.164,1.234,1.234,0,0,1-.394.25.923.923,0,0,1-.489.055,1.13,1.13,0,0,1-.455-.184,1.971,1.971,0,0,1-.6-.7,2.618,2.618,0,0,1-.3-.84c.16.249.317.49.488.716a2.629,2.629,0,0,0,.574.577.889.889,0,0,0,.716.154,2.246,2.246,0,0,0,.745-.38" transform="translate(-166.903 -410.753)" fill="#c96f4f"/>
          <path id="Trazado_731352" data-name="Trazado 731352" d="M236,545.921a1.733,1.733,0,0,0,.381-.008c.059-.006.118-.011.18-.015s.125-.005.181-.007a1.531,1.531,0,0,0,.3-.027.54.54,0,0,0,.142-.056.4.4,0,0,0,.139-.129.288.288,0,0,1,.02.236.469.469,0,0,1-.14.209.707.707,0,0,1-.449.155,1.307,1.307,0,0,1-.209-.014,1.087,1.087,0,0,1-.208-.051.725.725,0,0,1-.2-.109.415.415,0,0,1-.136-.184" transform="translate(-205.569 -475.321)" fill="#f08f4a"/>
          <path id="Trazado_731353" data-name="Trazado 731353" d="M221.188,525.536c.119-.01.234-.008.343-.018a1.074,1.074,0,0,0,.295-.06.514.514,0,0,0,.2-.142.253.253,0,0,0,.067-.17l-.027-.545.368.419a.659.659,0,0,0,.233.168.694.694,0,0,0,.292.057.742.742,0,0,0,.312-.084.9.9,0,0,0,.288-.236.64.64,0,0,1-.16.391.766.766,0,0,1-.386.242.835.835,0,0,1-.475-.017.859.859,0,0,1-.4-.273l.341-.126a.575.575,0,0,1-.2.431.706.706,0,0,1-.39.172.887.887,0,0,1-.379-.048,1.427,1.427,0,0,1-.319-.158" transform="translate(-192.669 -456.961)" fill="#f08f4a"/>
          <path id="Trazado_731354" data-name="Trazado 731354" d="M165.756,547.258a2.291,2.291,0,0,0,.36.11,2.5,2.5,0,0,0,.313.047,2.6,2.6,0,0,0,.316.009,2.377,2.377,0,0,0,.374-.043.547.547,0,0,1-.284.335.8.8,0,0,1-.859-.078.55.55,0,0,1-.22-.38" transform="translate(-144.384 -476.698)" fill="#f08f4a"/>
          <path id="Trazado_731355" data-name="Trazado 731355" d="M134.086,550.718a2.269,2.269,0,0,0,.323.189,2.5,2.5,0,0,0,.291.117,2.577,2.577,0,0,0,.3.081,2.325,2.325,0,0,0,.372.044.543.543,0,0,1-.351.26.8.8,0,0,1-.813-.273.544.544,0,0,1-.124-.419" transform="translate(-116.793 -479.712)" fill="#f08f4a"/>
          <path id="Trazado_731356" data-name="Trazado 731356" d="M204.508,559.747a1.564,1.564,0,0,0,.305.06c.086.009.164.012.244.014s.158,0,.244,0a1.586,1.586,0,0,0,.308-.045.419.419,0,0,1-.191.327.63.63,0,0,1-.735-.018.421.421,0,0,1-.175-.335" transform="translate(-178.139 -487.576)" fill="#f08f4a"/>
          <path id="Trazado_731357" data-name="Trazado 731357" d="M144.151,521.216c.031.05.051.1.082.143.016.021.032.041.046.061a.338.338,0,0,0,.051.049.368.368,0,0,0,.229.084.827.827,0,0,0,.261-.042,1.6,1.6,0,0,0,.258-.1l.173-.09.086.187a1.148,1.148,0,0,0,.2.308.533.533,0,0,0,.28.158.979.979,0,0,0,.382-.005,2.982,2.982,0,0,0,.426-.118,1.126,1.126,0,0,1-.35.316.941.941,0,0,1-.491.136.756.756,0,0,1-.276-.058.848.848,0,0,1-.238-.154,1.175,1.175,0,0,1-.283-.437l.26.1a1.316,1.316,0,0,1-.358.1.871.871,0,0,1-.386-.025.5.5,0,0,1-.306-.255.577.577,0,0,1-.047-.351" transform="translate(-125.558 -454.013)" fill="#f08f4a"/>
          <path id="Trazado_731358" data-name="Trazado 731358" d="M203.564,450.786a5.258,5.258,0,0,0-2.378-1.439.976.976,0,0,0-.984.272c-.235.225-.476.553-.842.525.447.14.724.559,1.117.79a2.5,2.5,0,0,0,1.444.275,2.034,2.034,0,0,1-.348.649Z" transform="translate(-173.656 -391.379)" fill="#e34927"/>
          <path id="Trazado_731359" data-name="Trazado 731359" d="M208.919,453.164c.129.089.378-.159.378-.159a.663.663,0,0,1,1.054.079,1.186,1.186,0,0,0,.448.348,2.13,2.13,0,0,0-.537.279.644.644,0,0,1-.965-.208,1.206,1.206,0,0,0-.378-.338" transform="translate(-181.982 -394.402)" fill="#382118"/>
          <path id="Trazado_731360" data-name="Trazado 731360" d="M213.664,454.359a.312.312,0,1,1-.363.3.333.333,0,0,1,.363-.3" transform="translate(-185.799 -395.777)" fill="#f79854"/>
          <path id="Trazado_731361" data-name="Trazado 731361" d="M216.129,456.145a.132.132,0,1,1-.137.128.132.132,0,0,1,.137-.128" transform="translate(-188.144 -397.333)" fill="#382118"/>
          <path id="Trazado_731362" data-name="Trazado 731362" d="M216.5,469.549a4.649,4.649,0,0,0-1.136,1.938,1.069,1.069,0,0,0-.01.634.863.863,0,0,0,.771.506,1.268,1.268,0,0,0,.9-.349,1.427,1.427,0,0,0,.342-.48,7.734,7.734,0,0,0,.246-1.16c.076-.293.216-.568.295-.86.085-.317.291-1.123-.169-1.166-.376-.035-1.032.714-1.237.936" transform="translate(-187.55 -408.192)" fill="#e34927"/>
          <path id="Trazado_731363" data-name="Trazado 731363" d="M233.882,458.992c1.035.031,1.758,1.293,1.758,1.293a4.076,4.076,0,0,0-1.857-.033c-.146-.1-.778.239-.778.239a3.117,3.117,0,0,1,.627-1.019.773.773,0,0,0,.249-.479" transform="translate(-202.964 -399.812)" fill="#ffe09c"/>
          <path id="Trazado_731364" data-name="Trazado 731364" d="M240.363,460.742c-.007.04.042.083.11.1s.129-.011.136-.051-.042-.083-.11-.1-.129.011-.136.051" transform="translate(-209.372 -401.289)" fill="#382118"/>
          <path id="Trazado_731365" data-name="Trazado 731365" d="M39.465,543.258a4.114,4.114,0,0,0,3.446,4.321,10.61,10.61,0,0,1-1.344-3.349,9.679,9.679,0,0,0,4.964,4.306,8.411,8.411,0,0,1-1.9-4.757,12.7,12.7,0,0,0,4.583,4.563,4.745,4.745,0,0,0-.288-2.307,12.91,12.91,0,0,0,1.694,2.449c.147.167.353.346.564.275.17-.058.247-.251.3-.422l.683-2.114,1.289,2.253,2.044-2.384a19.589,19.589,0,0,1,1.209,2.7,11.24,11.24,0,0,1,2.857-2.489l.808,2.238a22.851,22.851,0,0,1,4.886-2.021,1.17,1.17,0,0,1-.158,1.053.578.578,0,0,0,.5-.157l.046.976,2.915-2.009a3.876,3.876,0,0,0-.53,1.568,3.879,3.879,0,0,0,3.722-1.986,1.806,1.806,0,0,0-.382,1.354A2.73,2.73,0,0,0,74,544.921l-.246,2.345a1.205,1.205,0,0,0,1.356-1.13l.081,1.857,2.772-1.823a6.159,6.159,0,0,1-3.493,3.877,16.477,16.477,0,0,1-5.23,1.219,113.216,113.216,0,0,1-15.094.678q-3.779-.083-7.547-.417c-2.371-.211-4.159-.034-5.63-2.086a8.813,8.813,0,0,1-1.5-6.182" transform="translate(-34.328 -473.213)" fill="#ffe09c"/>
          <path id="Trazado_731366" data-name="Trazado 731366" d="M709.471,548.866a3.715,3.715,0,0,0-2.479.384l2.2-1.212-2.835.061a12.324,12.324,0,0,0,1.078-3.014q-1.626,1.756-3.316,3.436c-.147.146-.323.3-.516.266s-.3-.217-.4-.387a24.553,24.553,0,0,1-1.15-2.234c-.059,1.112-.29,2.482-1.242,2.792a1.547,1.547,0,0,1-1.594-.617,5.68,5.68,0,0,1-.855-1.735l-.751,1.55a1.512,1.512,0,0,1-.455.634.88.88,0,0,1-1.163-.405,3.346,3.346,0,0,1-.369-1.43l-.883,2.065-.847-1.863-.326,2.193-1.3-2.483a1.794,1.794,0,0,1-.981,2.291,2.3,2.3,0,0,1-2.162-.923,11.249,11.249,0,0,0-1.757-1.855l.168,2.623a9.2,9.2,0,0,1-4.2-2.668l.139,2.424a3.482,3.482,0,0,1-2.372-.584l-.091.73c-.5.135-.972-.287-1.351-.679l-3.832-3.97L677.14,549l-4.078-2.982,1.56,3.6-3.577-.183a8.111,8.111,0,0,0,2.645,1.47,2.439,2.439,0,0,1-.64,1.123q9.5.313,19.011.592a34.891,34.891,0,0,0,7.672-.342c1.712-.331,3.424-.69,5.131-1.031a9.312,9.312,0,0,0,2.488-.89c.372-.195,1.834-1.547,2.117-1.491" transform="translate(-584.525 -474.085)" fill="#ffe09c"/>
          <path id="Trazado_731367" data-name="Trazado 731367" d="M66.665,276.252q.89.17,1.785.309a1.275,1.275,0,0,0-.6-1.412l3.309.7a2.322,2.322,0,0,0-1.587-1.959,11.652,11.652,0,0,0,3.25.4l-1.717-2.047a13.056,13.056,0,0,1,2.8.9l-.806-1.554a3.915,3.915,0,0,0,2.673,1.456l.217-1.854a3.378,3.378,0,0,0,2.2,1.877l.4-2.308a5.121,5.121,0,0,0,1.978,2.066,12.665,12.665,0,0,0,.823-2.238l.543,2.431a8.18,8.18,0,0,0,1.119-1.934l.333,1.4a8.583,8.583,0,0,0,2.951-1.375l-.08,1.355a18.889,18.889,0,0,0,3.941-1.67,4.953,4.953,0,0,0-.556,1.888A13.858,13.858,0,0,0,93.5,272.1a1.17,1.17,0,0,0-.288,1.045q2.5-.231,5-.547l-2.323,1.277a18.656,18.656,0,0,0,3.754.216,1.592,1.592,0,0,0-1.474,1.431l3.291.007a2.564,2.564,0,0,0-2.966,1.292,3.181,3.181,0,0,0,4.038-1.177,3.191,3.191,0,0,1-1.9,2.923,9.211,9.211,0,0,1-3.6.727,58.655,58.655,0,0,1-10.224,0c-4.509-.505-9.049-1.971-13.493-1.058-.422.087-.822.665-1.1.7-.491.071-1.337-.478-1.789-.682a32.078,32.078,0,0,1-3.759-2.012" transform="translate(-58.07 -235.697)" fill="#f7ca68"/>
          <path id="Trazado_731368" data-name="Trazado 731368" d="M136.8,263.472a8.532,8.532,0,0,0-2.059-2.868l-.015-.013q-.079-.069-.158-.134l-.023-.019q-.076-.062-.153-.12l-.026-.02q-.077-.057-.153-.11l-.025-.018q-.08-.055-.161-.105l-.017-.01a3.777,3.777,0,0,0-.54-.28l-.018-.007c-.051-.021-.1-.04-.154-.058l-.047-.015c-.042-.014-.083-.026-.125-.038l-.058-.015c-.037-.009-.075-.018-.112-.025l-.063-.011-.105-.015-.065-.007-.1-.006-.065,0c-.034,0-.068,0-.1,0l-.062,0c-.036,0-.072.009-.108.015l-.051.008c-.052.01-.1.023-.156.038s-.073.024-.108.039-.063.027-.094.042h0c-1.339.639-2.119,3.41-1.384,5.841a6.412,6.412,0,0,0,.631,1.456h0c.046.076.093.149.141.22l.032.046q.059.086.121.167l.031.041c.051.065.1.128.156.189l.012.013c.048.055.1.107.148.158l.039.039c.048.047.1.093.146.136l.022.02q.086.074.174.141l.034.025q.073.054.148.1l.043.028a3.039,3.039,0,0,0,.373.2l.045.02q.079.034.158.063l.039.014c.065.023.131.043.2.061l.026.006c.058.015.116.028.174.039l.051.009c.06.01.121.019.181.025l.022,0c.069.007.138.01.207.012h.045q.084,0,.169,0l.05,0c.071,0,.141-.011.213-.021a3.283,3.283,0,0,0,.505-.111c1.911-.578,3.05-2.756,1.971-5.193" transform="translate(-113.419 -226.109)" fill="#f08f4a"/>
          <path id="Trazado_731369" data-name="Trazado 731369" d="M135.221,268.07h-.008a.123.123,0,0,1-.114-.13,2.542,2.542,0,0,1,.763-1.648.123.123,0,1,1,.153.192,2.335,2.335,0,0,0-.671,1.472.123.123,0,0,1-.122.115" transform="translate(-117.679 -231.935)" fill="#ffe09c"/>
          <path id="Trazado_731370" data-name="Trazado 731370" d="M204.18,271.147a8.532,8.532,0,0,0,2.171-2.784l.009-.019q.044-.095.084-.189l.012-.028q.038-.09.072-.18l.012-.031q.033-.089.062-.178l.01-.029q.03-.093.055-.184l.005-.019a3.794,3.794,0,0,0,.116-.6l0-.02q.008-.083.012-.164c0-.016,0-.032,0-.049,0-.044,0-.087,0-.13,0-.02,0-.04,0-.06,0-.039,0-.077-.007-.114,0-.022,0-.043-.007-.064s-.009-.07-.015-.1-.008-.043-.012-.065-.015-.067-.023-.1-.011-.042-.017-.063-.021-.064-.032-.1-.014-.039-.021-.058-.029-.067-.045-.1c-.007-.016-.014-.032-.022-.047a1.6,1.6,0,0,0-.081-.139c-.021-.032-.044-.063-.068-.093s-.043-.053-.067-.079h0c-.99-1.1-3.869-1.072-5.994.32a6.421,6.421,0,0,0-1.218,1.016h0c-.06.065-.117.132-.172.2l-.035.044q-.065.081-.126.163l-.03.041c-.048.067-.094.135-.137.2l-.01.016c-.039.062-.075.124-.11.187l-.027.049q-.047.089-.089.178l-.013.027q-.047.1-.086.207l-.014.039q-.031.085-.057.171l-.015.049a3.024,3.024,0,0,0-.088.414c0,.016,0,.033-.006.049-.007.057-.012.113-.016.17,0,.014,0,.028,0,.042,0,.069,0,.138,0,.207,0,.009,0,.018,0,.027q0,.09.012.178,0,.026.005.051c.007.061.016.121.027.181,0,.007,0,.015,0,.022.013.068.029.135.047.2,0,.014.008.029.013.043q.023.081.051.161l.017.047c.025.066.051.132.08.2h0a3.293,3.293,0,0,0,.249.453c1.093,1.67,3.5,2.149,5.538.426" transform="translate(-172.589 -230.471)" fill="#f08f4a"/>
          <path id="Trazado_731371" data-name="Trazado 731371" d="M227.313,269.376a.123.123,0,0,1-.072-.222A2.546,2.546,0,0,1,229,268.7a.123.123,0,1,1-.051.24,2.33,2.33,0,0,0-1.563.418.123.123,0,0,1-.071.023" transform="translate(-197.898 -234.023)" fill="#ffe09c"/>
          <path id="Trazado_731372" data-name="Trazado 731372" d="M164.592,299.376l1.51.46q.021-.4.041-.792l2.054.352a2.885,2.885,0,0,0-.624-2.327,3.182,3.182,0,0,1,1.118.8,1.75,1.75,0,0,0,1.22.574c.461-.031.884-.564.644-.96a2.456,2.456,0,0,1,.212.786c.073.264.34.531.588.415a.6.6,0,0,0,.235-.265l.441-.766a3.478,3.478,0,0,0,.419,1.763,3.5,3.5,0,0,0,1.789-1.582,10.245,10.245,0,0,1,.061,1.521,7.471,7.471,0,0,0,2.937-.294c-.839.424-1.067,1.522-1.738,2.181a4.234,4.234,0,0,1-2.173.907l-2.3.48c-2.546.532-6.488.313-6.435-3.254" transform="translate(-143.37 -258.768)" fill="#ffe09c"/>
          <path id="Trazado_731373" data-name="Trazado 731373" d="M456.915,146.865a1.68,1.68,0,0,1-.426-1.137.726.726,0,0,1,.59-.491,3.946,3.946,0,0,0,.806-.214c.33-.171.508-.518.76-.782a.9.9,0,0,1,1.075-.231c.165.085.312.223.478.3.408.188.77-.047,1.18.018a1.518,1.518,0,0,1,1.043.945,1.479,1.479,0,0,1-.077,1.233,2.6,2.6,0,0,1-.783.811,10.588,10.588,0,0,1-2.459,1.367c-.506.2-.536.266-1.007-.245a14.315,14.315,0,0,1-1.181-1.573" transform="translate(-397.62 -125.36)" fill="#e34927"/>
          <path id="Trazado_731374" data-name="Trazado 731374" d="M424.866,161.378c1.646-3.872,4.657-3.2,5.336-1.455.855,2.2,1.649,5.336,1.649,5.336.776,1.649,4.851,2.231,4.851,2.231,4.463.388,5.142,2.426,5.142,2.426,7.374-5.53,5.045-.388,5.045-.388,4.269-.582.97,2.717.97,2.717,6.21,1.261-5.045,4.948-5.045,4.948-3.881,8.344-18.337,4.463-18.337,4.463-7.956-3.3-.679-11.837-.679-11.837a9.748,9.748,0,0,0,1.94-7.277Z" transform="translate(-366.507 -138.093)" fill="#fff"/>
          <path id="Trazado_731375" data-name="Trazado 731375" d="M458.647,172.2a4.751,4.751,0,0,1,1.676-2.034.976.976,0,0,1,1.016.094c.271.18.566.46.922.368-.415.217-.614.678-.96.975a1.483,1.483,0,0,1-1,.5c.013.109.007.326.1.388a8.387,8.387,0,0,0-1.261-.194c-.138.03.194.97.194.97Z" transform="translate(-399.512 -148.14)" fill="#e34927"/>
          <path id="Trazado_731376" data-name="Trazado 731376" d="M468.6,173.568c-.1.117-.4-.067-.4-.067a.663.663,0,0,0-1.006.323,1.186,1.186,0,0,1-.354.443,2.131,2.131,0,0,1,.587.145.644.644,0,0,0,.889-.428,1.206,1.206,0,0,1,.288-.417" transform="translate(-406.641 -151.032)" fill="#382118"/>
          <path id="Trazado_731377" data-name="Trazado 731377" d="M471.381,175.011a.312.312,0,1,0,.423.2.333.333,0,0,0-.423-.2" transform="translate(-410.37 -152.433)" fill="#f79854"/>
          <path id="Trazado_731378" data-name="Trazado 731378" d="M472.044,177.03a.132.132,0,1,0,.163.092.132.132,0,0,0-.163-.092" transform="translate(-411.097 -154.201)" fill="#382118"/>
          <path id="Trazado_731379" data-name="Trazado 731379" d="M438.348,179.555c-1.327.092-2.216,1.684-2.216,1.684a5.451,5.451,0,0,1,2.382-.139c.185-.132,1.005.253,1.005.253a3.742,3.742,0,0,0-.836-1.222.919.919,0,0,1-.335-.577" transform="translate(-379.9 -156.404)" fill="#ffe09c"/>
          <path id="Trazado_731380" data-name="Trazado 731380" d="M450.534,181.772c.011.049-.051.1-.138.123s-.165-.006-.176-.056.051-.1.138-.123.165.006.176.056" transform="translate(-392.17 -158.282)" fill="#382118"/>
          <path id="Trazado_731381" data-name="Trazado 731381" d="M447.75,192.908c-.256.391-.582.748-.828,1.143a1.481,1.481,0,0,0-.234.562.676.676,0,0,0,.166.567,1.249,1.249,0,0,0,.653.3,6.115,6.115,0,0,0,1.268.1,1.644,1.644,0,0,0,.7-.11,1.272,1.272,0,0,0,.377-.31,2.008,2.008,0,0,0,.592-1.053,2.045,2.045,0,0,0-.549-1.386q-.26-.345-.549-.673a1.527,1.527,0,0,0-.5-.414.754.754,0,0,0-.536-.042c-.173.064-.158.128-.17.277a2.227,2.227,0,0,1-.394,1.037" transform="translate(-389.087 -166.862)" fill="#e34927"/>
          <path id="Trazado_731382" data-name="Trazado 731382" d="M508.031,261.509a.122.122,0,0,1-.1-.047,6.305,6.305,0,0,0-3.544-2.067,18.606,18.606,0,0,0-4.214-.326c-1.549,0-3.47,0-4.946-.948a.123.123,0,1,1,.133-.207,8.775,8.775,0,0,0,4.813.909,18.806,18.806,0,0,1,4.27.332,6.547,6.547,0,0,1,3.681,2.154.123.123,0,0,1-.1.2" transform="translate(-431.329 -224.644)" fill="#382118"/>
          <path id="Trazado_731383" data-name="Trazado 731383" d="M532.56,285.073a.121.121,0,0,1-.076-.027,4.967,4.967,0,0,0-3.094-.885c-.408-.006-.825.008-1.228.022a14.191,14.191,0,0,1-2.14-.034,1.836,1.836,0,0,1-1.121-.442.123.123,0,1,1,.176-.172,1.622,1.622,0,0,0,.974.37,14.038,14.038,0,0,0,2.1.032c.406-.014.827-.029,1.24-.022a5.2,5.2,0,0,1,3.243.938.123.123,0,0,1-.076.219" transform="translate(-457.193 -246.947)" fill="#382118"/>
          <path id="Trazado_731384" data-name="Trazado 731384" d="M527.064,300.095a.122.122,0,0,1-.083-.033,1.843,1.843,0,0,0-1.328-.29l-2.464.086a3.43,3.43,0,0,1-2.708-.928.123.123,0,0,1,.142-.2,4.358,4.358,0,0,0,1.69.855,4.306,4.306,0,0,0,.868.028l2.464-.086a2.032,2.032,0,0,1,1.5.355.123.123,0,0,1-.083.213" transform="translate(-453.327 -260.193)" fill="#382118"/>
          <path id="Trazado_731385" data-name="Trazado 731385" d="M597.783,244.46a.123.123,0,0,1-.083-.213,6.442,6.442,0,0,1,3.267-1.389.123.123,0,1,1,.035.243,6.3,6.3,0,0,0-3.136,1.327.123.123,0,0,1-.083.032" transform="translate(-520.601 -211.544)" fill="#382118"/>
          <path id="Trazado_731386" data-name="Trazado 731386" d="M603.8,263.736a.123.123,0,0,1-.026-.243,10.144,10.144,0,0,1,3.452-.193.123.123,0,0,1-.059.238,10.12,10.12,0,0,0-3.34.195l-.026,0" transform="translate(-525.844 -229.267)" fill="#382118"/>
          <path id="Trazado_731387" data-name="Trazado 731387" d="M499.016,222.276c.108-.015.217-.026.325-.036l.017,0,.02.021a.989.989,0,0,1,.27.609,1.066,1.066,0,0,1-.168.678,1.1,1.1,0,0,1-.577.427,1.115,1.115,0,0,1-.726-.007l.234-.236a1.2,1.2,0,0,1-.385,1.337,1.106,1.106,0,0,1-.663.225,1,1,0,0,1-.628-.206,1.1,1.1,0,0,0,1.109-.23.979.979,0,0,0,.223-1l-.14-.37.374.135a.844.844,0,0,0,1.117-.751.962.962,0,0,0-.118-.552l.037.019c-.107-.018-.214-.038-.321-.062" transform="translate(-432.688 -193.584)" fill="#d0d1d3"/>
          <path id="Trazado_731388" data-name="Trazado 731388" d="M441.751,260.591a1.387,1.387,0,0,0,.2.688,1.072,1.072,0,0,0,1.09.543,1.392,1.392,0,0,0,.667-.257.956.956,0,0,1-.6.539,1.106,1.106,0,0,1-1.42-.708.958.958,0,0,1,.069-.8" transform="translate(-384.685 -226.992)" fill="#d0d1d3"/>
          <path id="Trazado_731389" data-name="Trazado 731389" d="M471.423,277.885a3.921,3.921,0,0,0,.611.318,2.712,2.712,0,0,0,.618.17,1.487,1.487,0,0,0,.608-.029.769.769,0,0,0,.506-.367.533.533,0,0,1-.095.37.848.848,0,0,1-.3.264,1.235,1.235,0,0,1-.773.126,1.645,1.645,0,0,1-.705-.282,1.332,1.332,0,0,1-.47-.57" transform="translate(-410.64 -242.056)" fill="#d0d1d3"/>
          <path id="Trazado_731390" data-name="Trazado 731390" d="M363.352,280.806c.387-.38,1-.36,1.525-.486s1.087-.647.841-1.131l-1.308-.333,1.58-.1a1,1,0,0,0,.476-.11.7.7,0,0,0-.021-1.056,2.009,2.009,0,0,0-1.14-.385l1.3-.15a1.14,1.14,0,0,0,.484-.131.784.784,0,0,0,.178-1.011,2.281,2.281,0,0,0-.817-.763l2.782,1.006a1.917,1.917,0,0,0-.505-1.7,3.235,3.235,0,0,0,2.142,1.092l.478-1.731a2.867,2.867,0,0,0,2.606,2.151c1.958.075,3.358-1.8,5.082-2.728a1.694,1.694,0,0,0,1.307,2.408c1.208.067,2.132-1.183,3.335-1.3a2.274,2.274,0,0,0,2.44,1.69,6.622,6.622,0,0,0,2.993-1.207l.189.768a16.266,16.266,0,0,0,3.292-.047,10.5,10.5,0,0,0,7.519-.422,4.367,4.367,0,0,1-1.206,1.291l3.484.195a5.054,5.054,0,0,0-1.987.709,2.926,2.926,0,0,0,1.424.427l-1.193.432a4.447,4.447,0,0,0,2.127.686,1.047,1.047,0,0,0-1.418.89,7.576,7.576,0,0,1,2.122.935,72.493,72.493,0,0,1-28.206.565,14.423,14.423,0,0,0-5.875-.3c-1.145.279-1.431.653-2.593.393a16.09,16.09,0,0,0-3.433-.541" transform="translate(-316.503 -238.013)" fill="#ffe09c"/>
          <path id="Trazado_731391" data-name="Trazado 731391" d="M445.26,291.8l-1.766.563,1.548-2.763a6.455,6.455,0,0,1-2.416,1.435l-.161-1.184a3.084,3.084,0,0,1-1.254.839,1.994,1.994,0,0,0-.495-1.494c-.293.629-.94,1.4-1.683,1.129a1.266,1.266,0,0,1-.615-.579,5.969,5.969,0,0,1-.758-1.836c-.611.407-.883,1.075-1.422,1.547s-1.662.622-1.98.026c-.431.76-1.173,1.657-2.154,1.47-.336-.064-.65-1.744-.994-1.756-.253-.009-.48,1.57-.733,1.568a1.815,1.815,0,0,1-.99-.407A21.1,21.1,0,0,1,426,287.454q0,.733.01,1.465a.889.889,0,0,1-.1.5.975.975,0,0,1-1.264.095,2,2,0,0,1-.67-1.055,2.041,2.041,0,0,1-.62,1.83,1.829,1.829,0,0,1-2.116.173,5.719,5.719,0,0,0,3.632,3.529,17.47,17.47,0,0,0,5.615.98c4.67.22,11.947.707,14.771-3.171" transform="translate(-366.929 -250.391)" fill="#f7ca68"/>
          <path id="Trazado_731392" data-name="Trazado 731392" d="M756.357,152.223a1.219,1.219,0,0,0-.469-.532,1.988,1.988,0,0,0-1.5-.3,2.1,2.1,0,0,1-.632.1c-.431-.043-.789-.487-1.217-.418-.349.056-.559.425-.844.642a7.269,7.269,0,0,1-.658.363.784.784,0,0,0-.42.6c-.011.387.4.643.762.694a3.723,3.723,0,0,1,1.092.151c.266.125.5.383.792.346a.97.97,0,0,0,.319-.13,3.51,3.51,0,0,1,1.99-.38c.268.025.5.155.712-.047s.172-.858.073-1.1" transform="translate(-653.835 -131.593)" fill="#e34927"/>
          <path id="Trazado_731393" data-name="Trazado 731393" d="M792.808,191.805a4.5,4.5,0,0,1,.36.643.662.662,0,0,1-.1.7.747.747,0,0,1-.4.148.65.65,0,0,1-.514-.064.563.563,0,0,1-.131-.163,2.573,2.573,0,0,1-.252-.884,2.476,2.476,0,0,1-.01-1.086c.074-.25.405-.925.722-.645.192.17.168,1.057.334,1.356" transform="translate(-689.619 -165.835)" fill="#e34927"/>
          <path id="Trazado_731394" data-name="Trazado 731394" d="M730.893,171.5a7.563,7.563,0,0,1-.485-4.851c0-2.717-2.134-3.1-3.59-2.717-1.622.433-1.843,3.59-1.843,3.59-1.552,6.015-3.2,7.762-3.2,7.762-7.471,13.2,20.666,10.382,20.666,10.382,5.821-1.164,5.045-6.4,5.045-6.4a5.9,5.9,0,0,0,2.426-3.008c3.372-7.869-.582-3.978-.582-3.978.388-7.665-2.814-.776-2.814-.776.485-2.038.389-3.406-.388-3.493-.6-.067-.834,1.1-.921,1.843a7.529,7.529,0,0,1-.378,1.655c-.629,1.759-1.126,1.546-1.126,1.546-4.657-4.754-12.807-1.552-12.807-1.552" transform="translate(-627.612 -142.688)" fill="#fff"/>
          <path id="Trazado_731395" data-name="Trazado 731395" d="M766.445,173.95a5.258,5.258,0,0,0-2.532-1.145.976.976,0,0,0-.944.387c-.207.252-.407.606-.774.622.461.086.785.469,1.2.652a2.5,2.5,0,0,0,1.466.1,2.034,2.034,0,0,1-.268.685Z" transform="translate(-663.922 -150.516)" fill="#e34927"/>
          <path id="Trazado_731396" data-name="Trazado 731396" d="M771.685,176.217c.139.073.356-.2.356-.2a.663.663,0,0,1,1.056-.047,1.188,1.188,0,0,0,.486.292,2.13,2.13,0,0,0-.5.341.644.644,0,0,1-.982-.092,1.205,1.205,0,0,0-.416-.29" transform="translate(-672.188 -153.068)" fill="#382118"/>
          <path id="Trazado_731397" data-name="Trazado 731397" d="M776.463,177.286a.312.312,0,1,1-.325.338.333.333,0,0,1,.325-.338" transform="translate(-676.066 -154.426)" fill="#f79854"/>
          <path id="Trazado_731398" data-name="Trazado 731398" d="M778.99,178.953a.132.132,0,1,1-.121.143.132.132,0,0,1,.121-.143" transform="translate(-678.446 -155.879)" fill="#382118"/>
          <path id="Trazado_731399" data-name="Trazado 731399" d="M778.959,189.615a3.594,3.594,0,0,0-1.049,1.026,1.227,1.227,0,0,0-.108,1.14.767.767,0,0,0,.283.329,1.1,1.1,0,0,0,.41.136,1.166,1.166,0,0,0,.594-.037,1.033,1.033,0,0,0,.473-.425,2.478,2.478,0,0,0,.387-1.043,5.432,5.432,0,0,1,.159-1.308.746.746,0,0,0,.069-.228.2.2,0,0,0-.117-.2c-.349-.147-.893.462-1.1.611" transform="translate(-677.433 -164.616)" fill="#e34927"/>
          <path id="Trazado_731400" data-name="Trazado 731400" d="M789.992,179.471c1.019.243,1.7,1.892,1.7,1.892a3.875,3.875,0,0,0-2.571-.34.321.321,0,0,1,.053-.382,2.468,2.468,0,0,0,.53-.7,2.558,2.558,0,0,1,.29-.466" transform="translate(-687.342 -156.331)" fill="#ffe09c"/>
          <path id="Trazado_731401" data-name="Trazado 731401" d="M796.815,182.7c-.016.035.019.087.08.115s.123.022.14-.013-.019-.087-.08-.115-.123-.022-.14.013" transform="translate(-694.075 -159.115)" fill="#382118"/>
          <path id="Trazado_731402" data-name="Trazado 731402" d="M784.414,238.1c.053.232.145.448.209.681a1.7,1.7,0,0,1,.064.366.882.882,0,0,1-.071.39.827.827,0,0,1-.249.322,1.5,1.5,0,0,1-.337.2,3.266,3.266,0,0,1-.345.125.238.238,0,0,0-.092.045s0,0,.005-.008,0-.013,0-.005.039.058.079.124a.793.793,0,0,1,.089.2.946.946,0,0,1,.016.43,1.223,1.223,0,0,1-.414.7,1.661,1.661,0,0,1-.721.321,3.055,3.055,0,0,1-.745.045l.161-.208a.787.787,0,0,1-.009.422.968.968,0,0,1-.2.348,1.08,1.08,0,0,1-.661.365,1.457,1.457,0,0,1-.712-.092,2.6,2.6,0,0,1-.605-.335,3.4,3.4,0,0,0,.64.212,1.425,1.425,0,0,0,.636,0,.9.9,0,0,0,.481-.329.573.573,0,0,0,.11-.5l-.067-.207h.228a3.323,3.323,0,0,0,.666-.065,1.308,1.308,0,0,0,.559-.256.877.877,0,0,0,.3-.49.634.634,0,0,0,0-.272.448.448,0,0,0-.046-.123,1.381,1.381,0,0,1-.1-.183.32.32,0,0,1-.011-.179.307.307,0,0,1,.094-.157.536.536,0,0,1,.223-.111c.117-.031.225-.056.329-.092a.849.849,0,0,0,.493-.348,1,1,0,0,0,.077-.632,6.323,6.323,0,0,1-.081-.706" transform="translate(-679.329 -207.396)" fill="#d0d1d3"/>
          <path id="Trazado_731403" data-name="Trazado 731403" d="M753.372,280.327a.5.5,0,0,0,.212.4.955.955,0,0,0,.4.146,2.678,2.678,0,0,0,.473.035,4.962,4.962,0,0,0,.524-.039.961.961,0,0,1-.473.324,1.224,1.224,0,0,1-.588.043.84.84,0,0,1-.546-.314.56.56,0,0,1-.105-.309.373.373,0,0,1,.106-.282" transform="translate(-656.144 -244.183)" fill="#d0d1d3"/>
          <path id="Trazado_731404" data-name="Trazado 731404" d="M774.427,309.508a.38.38,0,0,1,.3.053,1.255,1.255,0,0,0,.227.1,1.044,1.044,0,0,0,.437.04.931.931,0,0,0,.4-.152,1.308,1.308,0,0,0,.36-.362.7.7,0,0,1-.161.572.851.851,0,0,1-.559.308.894.894,0,0,1-.616-.15.818.818,0,0,1-.211-.219.489.489,0,0,0-.178-.189" transform="translate(-674.577 -269.322)" fill="#d0d1d3"/>
          <path id="Trazado_731405" data-name="Trazado 731405" d="M743.233,308.1a.436.436,0,0,1,.267.09,1.054,1.054,0,0,0,.2.1,1.043,1.043,0,0,0,.4.071.94.94,0,0,0,.391-.1,1.338,1.338,0,0,0,.385-.288.667.667,0,0,1-.212.52.819.819,0,0,1-.554.235.854.854,0,0,1-.566-.194.732.732,0,0,1-.182-.226.718.718,0,0,0-.136-.213" transform="translate(-647.405 -268.269)" fill="#d0d1d3"/>
          <path id="Trazado_731406" data-name="Trazado 731406" d="M928.128,231.522a.121.121,0,0,1-.057-.014.123.123,0,0,1-.051-.166,13.314,13.314,0,0,1,1.962-2.746.123.123,0,0,1,.174.174,13.34,13.34,0,0,0-1.919,2.687.123.123,0,0,1-.108.065" transform="translate(-808.354 -199.091)" fill="#382118"/>
          <path id="Trazado_731407" data-name="Trazado 731407" d="M916.842,221.273a.123.123,0,0,1-.123-.123,7.628,7.628,0,0,1,.771-1.842.123.123,0,1,1,.216.117,7.352,7.352,0,0,0-.741,1.725.123.123,0,0,1-.123.123" transform="translate(-798.523 -190.977)" fill="#382118"/>
          <path id="Trazado_731408" data-name="Trazado 731408" d="M922.56,260.992a.123.123,0,0,1-.123-.123,6.4,6.4,0,0,0-.919-3.193.123.123,0,0,1,.211-.125,6.654,6.654,0,0,1,.953,3.318.123.123,0,0,1-.123.123" transform="translate(-802.689 -224.292)" fill="#382118"/>
          <path id="Trazado_731409" data-name="Trazado 731409" d="M900.813,235.848a.122.122,0,0,1-.084-.033,11.09,11.09,0,0,0-1.264-1.013.123.123,0,1,1,.14-.2,11.32,11.32,0,0,1,1.292,1.035.123.123,0,0,1-.084.212" transform="translate(-783.446 -204.333)" fill="#382118"/>
          <path id="Trazado_731410" data-name="Trazado 731410" d="M853.579,289.026a.123.123,0,0,1-.113-.075,8.115,8.115,0,0,0-4.4-3.718.123.123,0,1,1,.094-.227c3.5,1.458,4.489,3.753,4.529,3.85a.123.123,0,0,1-.066.161.124.124,0,0,1-.047.009" transform="translate(-739.529 -248.25)" fill="#382118"/>
          <path id="Trazado_731411" data-name="Trazado 731411" d="M861.977,278.489a.123.123,0,0,1-.088-.208,2.228,2.228,0,0,0,.475-1.893c-.229-1.122-1.416-2.848-5.771-4.7a.123.123,0,0,1,.1-.226c3.579,1.522,5.57,3.165,5.917,4.883a2.434,2.434,0,0,1-.541,2.107.123.123,0,0,1-.088.037" transform="translate(-746.084 -236.452)" fill="#382118"/>
          <path id="Trazado_731412" data-name="Trazado 731412" d="M848.5,248.145a.123.123,0,0,1-.067-.226,1.245,1.245,0,0,0,.486-1.107c-.069-1.218-1.537-3.375-8.14-6.733a.123.123,0,1,1,.111-.219c6.717,3.416,8.207,5.663,8.274,6.946a1.488,1.488,0,0,1-.6,1.32.121.121,0,0,1-.067.02" transform="translate(-732.319 -208.922)" fill="#382118"/>
          <path id="Trazado_731413" data-name="Trazado 731413" d="M678.377,274.957a3.988,3.988,0,0,1,2.575.384l-2.283-1.212,2.944.061a12.038,12.038,0,0,1-1.12-3.014q1.689,1.756,3.444,3.436c.153.146.335.3.536.266.186-.033.311-.217.414-.387a24.181,24.181,0,0,0,1.195-2.234c.061,1.112.3,2.482,1.289,2.792a1.638,1.638,0,0,0,1.655-.617,5.594,5.594,0,0,0,.888-1.735l.78,1.55a1.515,1.515,0,0,0,.473.634.931.931,0,0,0,1.208-.405,3.25,3.25,0,0,0,.383-1.43l.917,2.065.879-1.863.339,2.193,1.346-2.483a1.773,1.773,0,0,0,1.019,2.291,2.427,2.427,0,0,0,2.246-.923,11.44,11.44,0,0,1,1.824-1.855l-.174,2.623a9.607,9.607,0,0,0,4.363-2.667q-.073,1.212-.145,2.424a3.724,3.724,0,0,0,2.464-.584l.095.73c.52.135,1.01-.287,1.4-.679l3.98-3.97-1.36,4.743,4.235-2.982-1.621,3.6,3.715-.183a8.518,8.518,0,0,1-2.747,1.47,2.42,2.42,0,0,0,.665,1.123q-9.871.313-19.743.592a37.61,37.61,0,0,1-7.968-.342c-1.779-.331-3.556-.69-5.329-1.031a9.924,9.924,0,0,1-2.584-.89c-.386-.195-1.9-1.547-2.2-1.491" transform="translate(-590.911 -235.492)" fill="#ffe09c"/>
          <path id="Trazado_731414" data-name="Trazado 731414" d="M727.974,298.26a2.553,2.553,0,0,0,2.136,2.013c1.046.056,2.054-1.114,1.6-2.058a3.056,3.056,0,0,0,1.513,2.6,3.33,3.33,0,0,0,.714-1.446,3.383,3.383,0,0,0,.527,1.758q.581-.536,1.113-1.121c-.206.7.58,1.368,1.309,1.34a3.5,3.5,0,0,0,1.925-.955l.816.963a2.885,2.885,0,0,1,1.3-.576.991.991,0,0,1,1.089.718c1.1-.825,2.921.521,3.964-.372.612-.525.763-1.7,1.569-1.708l.226,1.438a7.958,7.958,0,0,0,2.5-1.769,4.274,4.274,0,0,1-2.211,3.443c-2.988,1.984-6.795,2.132-10.381,2.121-2.008-.006-4.459.093-6.176-1.066a10.312,10.312,0,0,1-3.534-5.326" transform="translate(-634.113 -259.764)" fill="#f7ca68"/>
          <rect id="Rectángulo_349657" data-name="Rectángulo 349657" width="124.577" height="7.762" transform="translate(3.638 41.235)" fill="#917b64"/>
          <rect id="Rectángulo_349658" data-name="Rectángulo 349658" width="124.577" height="7.762" transform="translate(3.638 76.648)" fill="#917b64"/>
          <rect id="Rectángulo_349659" data-name="Rectángulo 349659" width="2.814" height="76.163" transform="translate(3.638 12.419)" fill="#917b64"/>
          <rect id="Rectángulo_349660" data-name="Rectángulo 349660" width="1.746" height="71.215" transform="translate(44.485 12.419)" fill="#917b64"/>
          <rect id="Rectángulo_349661" data-name="Rectángulo 349661" width="1.746" height="71.215" transform="translate(85.72 12.419)" fill="#917b64"/>
          <rect id="Rectángulo_349662" data-name="Rectángulo 349662" width="2.814" height="76.163" transform="translate(125.402 12.419)" fill="#917b64"/>
          <path id="Trazado_731415" data-name="Trazado 731415" d="M124.334,0H8.683L0,13.728H131.756Z" transform="translate(0 0)" fill="#c96f4f"/>
          <path id="Trazado_731416" data-name="Trazado 731416" d="M100.381,78.666a.123.123,0,0,1-.107-.182c.219-.395.4-.8.58-1.189a14.061,14.061,0,0,1,.72-1.434.123.123,0,1,1,.211.126,13.921,13.921,0,0,0-.707,1.41c-.179.395-.365.8-.589,1.207a.123.123,0,0,1-.107.063" transform="translate(-87.332 -66.028)" fill="#382118"/>
          <path id="Trazado_731417" data-name="Trazado 731417" d="M123.233,20.281a.122.122,0,0,1-.051-.011.123.123,0,0,1-.061-.162c.344-.762.76-1.574,1.163-2.358.353-.687.717-1.4,1.034-2.076a.123.123,0,1,1,.223.1c-.318.682-.684,1.395-1.038,2.084-.4.782-.816,1.591-1.158,2.347a.122.122,0,0,1-.112.072" transform="translate(-107.237 -13.591)" fill="#382118"/>
          <path id="Trazado_731418" data-name="Trazado 731418" d="M207.417,44.432a.123.123,0,0,1-.114-.17c.467-1.136.918-2.345,1.377-3.7.19-.558.428-1.105.658-1.635a17.307,17.307,0,0,0,.767-1.981.123.123,0,1,1,.235.069,17.484,17.484,0,0,1-.777,2.009c-.228.525-.464,1.068-.651,1.616-.461,1.356-.913,2.57-1.382,3.71a.123.123,0,0,1-.114.076" transform="translate(-180.567 -32.11)" fill="#382118"/>
          <path id="Trazado_731419" data-name="Trazado 731419" d="M239.191,5.442a.123.123,0,0,1-.114-.167l.343-.881a.123.123,0,1,1,.229.089l-.343.881a.123.123,0,0,1-.114.078" transform="translate(-208.245 -3.759)" fill="#382118"/>
          <path id="Trazado_731420" data-name="Trazado 731420" d="M306.566,85.85a.126.126,0,0,1-.03,0,.123.123,0,0,1-.089-.149c.078-.313.184-.617.3-.939a8.188,8.188,0,0,0,.416-1.5.123.123,0,1,1,.243.036,8.388,8.388,0,0,1-.427,1.541c-.111.317-.215.616-.29.918a.123.123,0,0,1-.119.093" transform="translate(-266.932 -72.435)" fill="#382118"/>
          <path id="Trazado_731421" data-name="Trazado 731421" d="M316.531,12.778a.124.124,0,0,1-.033,0,.123.123,0,0,1-.085-.151c.413-1.476.871-3.016,1.313-4.505.363-1.223.739-2.488,1.089-3.712a.123.123,0,0,1,.236.068c-.35,1.226-.726,2.491-1.09,3.715-.442,1.488-.9,3.027-1.312,4.5a.123.123,0,0,1-.118.09" transform="translate(-275.613 -3.759)" fill="#382118"/>
          <path id="Trazado_731422" data-name="Trazado 731422" d="M414.173,35.347h-.018a.123.123,0,0,1-.1-.14c.192-1.265.4-2.551.605-3.795.311-1.9.632-3.867.893-5.792a.123.123,0,0,1,.243.033c-.261,1.929-.583,3.9-.894,5.8-.2,1.243-.413,2.528-.6,3.792a.123.123,0,0,1-.121.1" transform="translate(-360.665 -22.223)" fill="#382118"/>
          <path id="Trazado_731423" data-name="Trazado 731423" d="M427.961,4.85l-.019,0a.123.123,0,0,1-.1-.14L428,3.667a.123.123,0,0,1,.243.038l-.163,1.041a.123.123,0,0,1-.121.1" transform="translate(-372.675 -3.104)" fill="#382118"/>
          <path id="Trazado_731424" data-name="Trazado 731424" d="M517.81,84.422a.123.123,0,0,1-.123-.123c0-.186-.007-.377-.015-.579a5.982,5.982,0,0,1,.072-1.551.123.123,0,0,1,.239.056,5.817,5.817,0,0,0-.066,1.486c.007.2.015.4.015.588a.123.123,0,0,1-.123.123" transform="translate(-450.912 -71.493)" fill="#382118"/>
          <path id="Trazado_731425" data-name="Trazado 731425" d="M518.808,17.963h0a.123.123,0,0,1-.118-.127c.045-1.185.068-2.411.091-3.6.024-1.249.048-2.541.1-3.786a.123.123,0,1,1,.245.01c-.05,1.243-.074,2.533-.1,3.781-.023,1.187-.046,2.414-.091,3.6a.123.123,0,0,1-.122.118" transform="translate(-451.809 -9.003)" fill="#382118"/>
          <path id="Trazado_731426" data-name="Trazado 731426" d="M619.093,52.528a.123.123,0,0,1-.122-.108c-.174-1.449-.315-2.921-.452-4.344-.092-.96-.188-1.952-.292-2.926a.123.123,0,0,1,.244-.026c.1.975.2,1.968.292,2.929.137,1.422.278,2.892.452,4.338a.123.123,0,0,1-.107.137h-.015" transform="translate(-538.516 -39.21)" fill="#382118"/>
          <path id="Trazado_731427" data-name="Trazado 731427" d="M614.668,9.3a.123.123,0,0,1-.122-.118,14.214,14.214,0,0,0-.164-1.513,12.133,12.133,0,0,1-.167-1.727.123.123,0,1,1,.246,0,11.759,11.759,0,0,0,.164,1.691,14.39,14.39,0,0,1,.167,1.539.123.123,0,0,1-.118.127h0" transform="translate(-535.021 -5.07)" fill="#382118"/>
          <path id="Trazado_731428" data-name="Trazado 731428" d="M710.727,23.413a.123.123,0,0,1-.12-.1l-2.329-10.575a.123.123,0,0,1,.24-.053l2.329,10.575a.123.123,0,0,1-.094.146l-.027,0" transform="translate(-616.955 -10.968)" fill="#382118"/>
          <path id="Trazado_731429" data-name="Trazado 731429" d="M814.306,46.625a.123.123,0,0,1-.116-.084c-.436-1.307-.867-2.523-1.323-3.811l-.153-.431a.123.123,0,0,1,.231-.082l.153.431c.457,1.288.888,2.505,1.325,3.815a.123.123,0,0,1-.116.162" transform="translate(-707.921 -36.702)" fill="#382118"/>
          <path id="Trazado_731430" data-name="Trazado 731430" d="M799.421,3.85a.123.123,0,0,1-.116-.083c-.1-.308-.208-.622-.313-.939-.289-.874-.588-1.778-.92-2.606A.123.123,0,1,1,798.3.13c.335.835.636,1.743.926,2.621.1.317.209.631.313.937a.123.123,0,0,1-.116.162" transform="translate(-695.164 -0.046)" fill="#382118"/>
          <path id="Trazado_731431" data-name="Trazado 731431" d="M927.315,80.6a.123.123,0,0,1-.112-.071l-1.345-2.89a.123.123,0,1,1,.223-.1l1.346,2.891a.123.123,0,0,1-.111.174" transform="translate(-806.473 -67.475)" fill="#382118"/>
          <path id="Trazado_731432" data-name="Trazado 731432" d="M898.726,19.186a.123.123,0,0,1-.115-.081,23.529,23.529,0,0,0-1.588-3.321c-.206-.412-.378-.841-.544-1.256a12.1,12.1,0,0,0-.813-1.749.123.123,0,0,1,.211-.126,12.3,12.3,0,0,1,.83,1.784c.164.41.334.835.533,1.232a23.7,23.7,0,0,1,1.6,3.354.123.123,0,0,1-.116.164" transform="translate(-780.168 -10.968)" fill="#382118"/>
        </g>
      </g>
    </g>
  </g>
</svg>
