<svg xmlns="http://www.w3.org/2000/svg" xmlns:xlink="http://www.w3.org/1999/xlink" width="118" height="118" viewBox="0 0 118 118">
  <defs>
    <clipPath id="clip-path">
      <rect id="Rectángulo_349674" data-name="Rectángulo 349674" width="74.741" height="94.215" fill="none"/>
    </clipPath>
  </defs>
  <g id="Grupo_997395" data-name="Grupo 997395" transform="translate(2184 10396)">
    <circle id="Elipse_5897" data-name="Elipse 5897" cx="59" cy="59" r="59" transform="translate(-2184 -10396)" fill="#ffc403"/>
    <g id="Grupo_997259" data-name="Grupo 997259" transform="translate(-2162.37 -10384.107)">
      <g id="Grupo_997258" data-name="Grupo 997258" clip-path="url(#clip-path)">
        <path id="Trazado_731582" data-name="Trazado 731582" d="M37.77,64.819q-17.223,0-34.446,0c-2.661,0-2.661-.01-2.669-2.618q0-.366,0-.733C.663,58.814.663,58.8,3.271,58.8c7.268-.005,14.536-.053,21.8.034,1.792.022,2.472-.414,2.436-2.335-.114-6.105-.07-12.214-.02-18.321a3.21,3.21,0,0,0-1.442-2.906,19.265,19.265,0,0,1-7.275-20.321C21.019,6.735,26.485,1.782,34.84.28c8.481-1.524,17.108,3.3,20.811,11.359A19.338,19.338,0,0,1,50.5,34.42a5.768,5.768,0,0,0-2.454,5.219c.175,5.369.055,10.748.056,16.122,0,3.039,0,3.04,3.129,3.04q10.718,0,21.437,0c2.352,0,2.455.119,2.488,2.495,0,.305,0,.611,0,.916-.024,2.489-.121,2.6-2.571,2.6q-17.405.008-34.812,0m13.577-45.1A13.684,13.684,0,0,0,37.9,5.912c-7.275-.158-13.7,6.134-13.846,13.55A13.687,13.687,0,0,0,37.727,33.221a13.327,13.327,0,0,0,13.62-13.5m-9.26,29.128c0-2.81-.023-5.62.011-8.429.014-1.171-.3-1.663-1.615-1.406a15.4,15.4,0,0,1-5.649-.006c-1.008-.178-1.346.2-1.345,1.138q.01,8.612-.005,17.224c0,1,.412,1.446,1.421,1.431,1.832-.026,3.667-.053,5.5.014,1.275.047,1.731-.462,1.7-1.722-.06-2.747-.018-5.5-.019-8.245" transform="translate(-0.414 0)"/>
        <path id="Trazado_731583" data-name="Trazado 731583" d="M37.384,183.75c11.6,0,23.191.035,34.785-.036,1.833-.011,2.431.515,2.4,2.381-.107,5.979-.094,11.962-.005,17.941.025,1.7-.559,2.259-2.207,2.229-2.468-.046-2.517.03-2.686,2.563-.079,1.177-.586,1.643-1.724,1.558-.485-.036-.976,0-1.464,0-2.4-.033-2.979.386-2.822-2.61.058-1.1-.437-1.582-1.516-1.529-.365.018-.732,0-1.1,0q-23.618,0-47.235,0c-2.554,0-2.6,0-2.71,2.531-.05,1.156-.476,1.694-1.65,1.613-.547-.037-1.1,0-1.647,0-2.56,0-2.614,0-2.714-2.547-.047-1.192-.536-1.664-1.674-1.6-.365.022-.736-.037-1.1,0-1.776.2-2.337-.628-2.317-2.342q.1-8.878,0-17.759c-.018-1.767.522-2.446,2.413-2.433,11.656.079,23.312.039,34.968.04m-.074,16.491c9.828,0,19.657-.026,29.485.028,1.51.008,2.07-.459,1.989-1.986-.106-2.009-.023-4.028-.026-6.042,0-2.485-.006-2.492-2.566-2.492q-21.884,0-43.769,0c-4.823,0-9.646.043-14.468-.024-1.515-.021-2.065.508-1.989,2.021.1,2.01.022,4.028.025,6.042,0,2.447.006,2.454,2.385,2.454q14.468,0,28.935,0" transform="translate(0 -116.181)"/>
        <path id="Trazado_731584" data-name="Trazado 731584" d="M105.3,50.533c-1.744.46-3.24.264-4.282-1.269a4.025,4.025,0,0,1-.08-4.5,2.9,2.9,0,0,1,2.183-1.5c1.368-.212,2.693.495,4.114.087.714-.2.942.62.946,1.267.009,1.829.063,3.662-.038,5.486a3.483,3.483,0,0,1-2.372,3.189,4.749,4.749,0,0,1-4.543-.444c-.412-.268-.822-.637-.461-1.2.35-.549.794-.942,1.514-.53,1.157.663,2.234.813,3.02-.591" transform="translate(-63.423 -27.339)"/>
        <path id="Trazado_731585" data-name="Trazado 731585" d="M84.777,43.957c-.633.436-.5.909-.569,1.307-.139.856-.693,1.059-1.451,1.018A1.062,1.062,0,0,1,81.6,45.148q-.02-3.926.011-7.853c.006-.745.463-1.051,1.191-1.074.787-.025,1.344.229,1.377,1.079.042,1.073.01,2.149.01,3.552,1.3-.738,1.661-2.22,3.057-2.025.354.05.78-.053.993.3a.751.751,0,0,1-.291.969c-1.9,1.515-1.255,2.945.035,4.449.342.4,1.088,1.012.443,1.534a1.64,1.64,0,0,1-2.176-.221,17.38,17.38,0,0,1-1.473-1.9" transform="translate(-51.6 -22.906)"/>
      </g>
    </g>
  </g>
</svg>
