<svg xmlns="http://www.w3.org/2000/svg" xmlns:xlink="http://www.w3.org/1999/xlink" width="118" height="118" viewBox="0 0 118 118">
  <defs>
    <clipPath id="clip-path">
      <rect id="Rectángulo_349677" data-name="Rectángulo 349677" width="67.198" height="118" fill="none"/>
    </clipPath>
  </defs>
  <g id="Grupo_997398" data-name="Grupo 997398" transform="translate(2184 9950)">
    <circle id="Elipse_5902" data-name="Elipse 5902" cx="59" cy="59" r="59" transform="translate(-2184 -9950)" fill="#ffc403"/>
    <g id="Grupo_997265" data-name="Grupo 997265" transform="translate(-2158.531 -9950)">
      <g id="Grupo_997264" data-name="Grupo 997264" clip-path="url(#clip-path)">
        <path id="Trazado_731641" data-name="Trazado 731641" d="M39.414,85.3a16.577,16.577,0,0,1-6.838.123,21.692,21.692,0,0,1,.383,10.8c-1.369,5.444-5.959,8.386-11.03,7.087a8.524,8.524,0,0,1-4.047-14.232c1.609-1.675,3.657-2.775,5.489-4.159,2.826-2.133,3.015-2.92,1.5-6.016a11.368,11.368,0,0,1-1.3-5.083c.016-1.547-.68-2.017-2.038-2.066-.685-.025-1.363-.211-2.049-.26-3.428-.246-3.882-1.183-1.919-4.107,3.718-5.537,7.408-11.095,11.215-16.57a4.634,4.634,0,0,0,.76-4.054C28.208,40.94,26.928,35.1,25.776,29.238c-.331-1.684-.832-1.857-2.21-1.025-7.374,4.451-11.841,10.878-12.638,19.478C9.944,58.306,9.311,68.953,8.517,79.585c-.086,1.147-.174,2.3-.373,3.43A1.618,1.618,0,0,1,6.23,84.553a1.588,1.588,0,0,1-1.385-1.819c.008-.23,0-.461.021-.69.9-11.854,1.534-23.735,2.77-35.553,1.009-9.647,6.3-16.817,14.751-21.479,1.866-1.029,2.208-2,1.689-3.894A30.8,30.8,0,0,1,22.714,13.9c-.162-5.652,2.49-9.731,7.364-12.289a12.383,12.383,0,0,1,13.484.818c.968.657,1.672,1.5.884,2.683s-1.793.927-2.781.207c-.124-.09-.253-.174-.385-.252a10.091,10.091,0,0,0-15.042,6.707,13.3,13.3,0,0,0,.481,5.455c1.929,9.067,3.9,18.125,5.8,27.2.342,1.635.7,2.954,2.79,2.14,1.181-.461,2.681,1.047,3.529-.3.616-.975.61-2.348.867-3.546q2.822-13.147,5.631-26.3a10.959,10.959,0,0,0,.193-5.234,1.687,1.687,0,0,1,1.339-2.281c1.241-.265,1.851.588,2.069,1.651a18.894,18.894,0,0,1-.572,8.188c-1.078,4.631-1.015,4.592,2.887,7.125a28.537,28.537,0,0,1,13.43,22.192c.507,5.19.846,10.4,1.278,15.594.107,1.281.218,2.688-1.428,2.89-1.828.224-1.971-1.255-2.081-2.618-.443-5.5-.768-11.022-1.382-16.507-.953-8.505-5.344-14.839-12.631-19.245-1.393-.842-1.981-.82-2.341,1.014-1.18,6.013-2.529,11.994-3.857,17.977a4.007,4.007,0,0,0,.726,3.413c3.916,5.68,7.753,11.415,11.585,17.153,1.666,2.494,1.112,3.544-1.884,3.738-.459.03-.916.089-1.375.1-2,.066-3.271.694-3.111,3.1a7.5,7.5,0,0,1-1.506,4.758c-1.309,1.83-.67,3.214.719,4.392,1.631,1.383,3.45,2.543,5.149,3.85,2.344,1.8,3.981,4,3.945,7.155-.047,4.161-2.351,7.358-6.167,8.414A8.443,8.443,0,0,1,40.4,99.41c-1.957-3.244-2.172-6.811-1.687-10.462.149-1.122.423-2.227.7-3.646m11.25-17.182c-3.713-5.549-7.185-10.958-10.9-16.193-1.676-2.361-5.856-2.454-7.511-.142-3.777,5.274-7.286,10.741-11.043,16.337a31.385,31.385,0,0,1,13.844,6.048,1.324,1.324,0,0,0,1.826-.052,31.654,31.654,0,0,1,13.785-6M43.521,84.757a16.029,16.029,0,0,0-.866,11.308,5.324,5.324,0,0,0,9.852,1.316,5.1,5.1,0,0,0-1.426-6.409c-2.368-2.042-5.311-3.356-7.561-6.216m-14.964.009c-2.052,2.405-4.425,3.807-6.642,5.416-1.3.945-2.549,1.968-2.849,3.725a5.193,5.193,0,0,0,9.782,3.288c1.914-4,1.313-8.036-.291-12.428M27.072,73.228c.231,5.567,4.449,9.386,9.409,9.025,4.761-.347,8.525-4.291,8.144-8.689-2.387,1.466-4.752,2.851-7.042,4.351a2.671,2.671,0,0,1-3.35-.055c-2.257-1.539-4.585-2.975-7.16-4.631" transform="translate(-2.606 0)"/>
        <path id="Trazado_731642" data-name="Trazado 731642" d="M67.128,193.95c.317,2.732-.427,4.789-2.825,5.939-2.494,1.2-4.574.413-6.429-1.473-1.235-1.256-2.616-2.367-3.879-3.6-1.142-1.112-2.081-1.021-3.062.218-.951,1.2-1.993,2.331-3.009,3.481-1.991,2.254-4.486,2.614-6.931.878-1.936-1.375-3.843-2.808-5.635-4.362-1.447-1.254-2.616-1.16-4.023.042-1.688,1.442-3.493,2.75-5.288,4.06-2.816,2.056-5.218,1.783-7.459-.787-.857-.982-1.792-1.908-2.551-2.962-1.311-1.818-2.472-1.639-3.834-.042-1.091,1.281-2.355,2.414-3.537,3.618A4.618,4.618,0,0,1,3.181,200c-2.017-.841-3.312-2.338-3.171-4.594.46-7.348,1.016-14.69,1.552-22.034.085-1.171.523-2.21,1.914-2.087,1.542.137,1.65,1.33,1.558,2.573q-.73,9.867-1.443,19.736c-.081,1.128-.451,2.476.831,3.095,1.435.693,2.2-.6,3.048-1.451,1.085-1.085,2.121-2.219,3.236-3.271a4.784,4.784,0,0,1,7.11.244c1.04,1.127,2.077,2.264,3.008,3.479,1.155,1.507,2.277,1.477,3.677.319,1.77-1.465,3.625-2.83,5.473-4.2a5.176,5.176,0,0,1,6.757-.028c1.849,1.366,3.7,2.74,5.459,4.215,1.4,1.175,2.517,1.2,3.661-.321.827-1.1,1.782-2.107,2.7-3.139,2.264-2.548,5.032-2.711,7.61-.423,1.376,1.221,2.721,2.48,4.051,3.752.763.729,1.581,1.357,2.64.792.956-.511.891-1.508.816-2.447q-1.375-17.2-2.741-34.4c-.109-1.376-.176-2.756-.279-4.132-.088-1.18.091-2.259,1.517-2.357,1.378-.095,1.774.845,1.871,2.076.378,4.817.824,9.628,1.209,14.445.648,8.1,1.267,16.21,1.882,24.11" transform="translate(0 -82.501)"/>
        <path id="Trazado_731643" data-name="Trazado 731643" d="M101.309,108.639a1.651,1.651,0,1,1-1.732,1.439,1.513,1.513,0,0,1,1.732-1.439" transform="translate(-53.578 -58.461)"/>
        <path id="Trazado_731644" data-name="Trazado 731644" d="M41,110.384a1.619,1.619,0,0,1-1.856,1.567,1.491,1.491,0,0,1-1.462-1.7,1.462,1.462,0,0,1,1.581-1.58A1.6,1.6,0,0,1,41,110.384" transform="translate(-20.278 -58.477)"/>
      </g>
    </g>
  </g>
</svg>
