<svg xmlns="http://www.w3.org/2000/svg" xmlns:xlink="http://www.w3.org/1999/xlink" width="118" height="118" viewBox="0 0 118 118">
  <defs>
    <clipPath id="clip-path">
      <rect id="Rectángulo_349681" data-name="Rectángulo 349681" width="91.333" height="99.618" fill="#fff"/>
    </clipPath>
  </defs>
  <g id="Grupo_997402" data-name="Grupo 997402" transform="translate(1837 9504)">
    <circle id="Elipse_5904" data-name="Elipse 5904" cx="59" cy="59" r="59" transform="translate(-1837 -9504)" fill="#b20d0d"/>
    <g id="Grupo_997273" data-name="Grupo 997273" transform="translate(-1823.667 -9494.438)">
      <g id="Grupo_997272" data-name="Grupo 997272" clip-path="url(#clip-path)">
        <path id="Trazado_731655" data-name="Trazado 731655" d="M65.028,164.5c1.168,0,2.318.014,3.468,0,1.364-.021,2.375.539,2.366,1.963s-1.035,1.959-2.392,1.94c-1.49-.021-2.981,0-4.472,0-13.611,0-27.223-.033-40.833.019a11.769,11.769,0,0,1-10.367-5.4,41.243,41.243,0,0,1-5.968-13.41,2.468,2.468,0,0,0-1.78-1.972,7.7,7.7,0,0,1-4.893-8.9,7.763,7.763,0,0,1,7.7-6.154c3.824-.039,7.649-.052,11.472.015,1.158.02,1.552-.288,1.6-1.5a27.286,27.286,0,0,1,2.109-9.821,18.8,18.8,0,0,1,2.65-4.5c3.527-4.33,8.388-5.148,13.149-2.2a21.649,21.649,0,0,1,7.114,7.833c.421.718.8,1.463,1.27,2.338,1.223-1.445,2.277-2.881,3.524-4.123,2.9-2.891,6.176-4.964,10.557-4.058a10.146,10.146,0,0,1,6.18,4.4,22.057,22.057,0,0,1,3.867,10.048c.168,1.2.6,1.621,1.842,1.589,3.368-.087,6.74-.05,10.11-.023a7.788,7.788,0,0,1,7.878,6.175,7.693,7.693,0,0,1-5.092,8.953,2.172,2.172,0,0,0-1.546,1.725c-.458,1.749-1.028,3.473-1.627,5.181-.412,1.174-1.24,1.871-2.549,1.41s-1.47-1.5-1.126-2.7c.018-.062.052-.119.071-.181.5-1.59,1.313-3.095,1.29-4.823a51.8,51.8,0,0,0-6.394-.137c-.549-.017-.768.384-.991.793q-4.088,7.5-8.178,15.007c-.052.095-.007.243-.007.517m-30.07-31.926c2.974,0,5.948-.044,8.92.022,1.16.026,1.7-.2,1.367-1.5-1.269-4.863-3.414-9.22-7.389-12.441-3.781-3.063-7.163-2.512-9.826,1.514-2.245,3.393-2.968,7.242-3.253,11.219-.085,1.181.605,1.2,1.456,1.189,2.909-.021,5.818-.008,8.726-.008m23.423,0c2.656,0,5.313-.026,7.968.014.91.014,1.319-.223,1.135-1.212-.622-3.355-1.62-6.552-3.978-9.128a5.2,5.2,0,0,0-7.01-1.183,17.287,17.287,0,0,0-7.205,8.416c-.839,1.842.119,3.089,2.092,3.093q3.5.007,7,0m6.948,3.9H41.545c1.479,2.626,2.788,4.912,4.052,7.223.368.674.944.576,1.51.576,4.213.006,8.426,0,12.639.007.661,0,1.228-.007,1.621-.741,1.214-2.267,2.509-4.49,3.961-7.065M39.021,162.381l7.7-14.046H31.312l7.708,14.046M35.53,164.15c-2.769-5.05-5.563-10.134-8.34-15.229a1.225,1.225,0,0,0-1.21-.752c-1.86.025-3.721.009-5.847.009.391.782.654,1.35.953,1.9,1.7,3.122,3.743,6.108,5.039,9.39,1.763,4.465,4.577,6.2,9.4,4.682m22.383-15.821c-6.391-.619-6.391-.619-9.227,4.563-.5.906-1,1.81-1.493,2.715-1.57,2.865-3.138,5.73-4.868,8.889,2.262,0,4.174-.016,6.086.01a1.086,1.086,0,0,0,1.035-.709c2.781-5.083,5.564-10.166,8.466-15.468m11.215-.03c-6.468-.508-6.469-.508-9.351,4.746q-1.026,1.87-2.045,3.744L53.521,164.5c2.249,0,4.167-.011,6.086.007a1.088,1.088,0,0,0,1.029-.712c2.784-5.093,5.579-10.181,8.493-15.492M24.457,164.375c-2.466-4.5-5.038-8.7-7.088-13.132-1.224-2.647-2.86-3.415-5.526-3.109-1.047.12-1.364.3-1.044,1.358a42.264,42.264,0,0,0,4.92,10.927,8.19,8.19,0,0,0,8.737,3.956m-5.371-20.1c-1.6-2.765-2.548-5.728-4.56-7.455-1.467-1.259-4.348-.25-6.6-.338-.064,0-.129,0-.193,0a3.824,3.824,0,0,0-3.824,3.812,3.782,3.782,0,0,0,3.869,3.958c3.61.069,7.223.018,11.306.018m57.55-.017c2.657,0,4.976.086,7.285-.027a3.7,3.7,0,0,0,3.462-3.348,3.585,3.585,0,0,0-2.485-4.1c-1.446-.35-3.24-1.174-4.365.6-1.34,2.117-2.484,4.359-3.9,6.875m-46.481-.144c-1.358-2.409-2.634-4.645-3.878-6.9a1.258,1.258,0,0,0-1.234-.739c-1.851.018-3.7.007-5.62.007,2.683,7.261,3.808,8.095,10.284,7.757a3.929,3.929,0,0,0,.449-.126m11.183.009c-1.36-2.432-2.642-4.731-3.933-7.024a.994.994,0,0,0-.9-.613c-1.956.012-3.913.005-5.988.005,3.529,7.862,3.745,8.021,10.307,7.763a4.95,4.95,0,0,0,.517-.132m35.179-7.642c-2.147,0-3.893.011-5.639-.006a1.392,1.392,0,0,0-1.461.684c-1.258,2.3-2.554,4.584-3.974,7.12,2.187,0,4.049-.014,5.91.009a1.252,1.252,0,0,0,1.212-.772c1.244-2.248,2.514-4.482,3.952-7.035" transform="translate(0 -68.801)" fill="#fff"/>
        <path id="Trazado_731656" data-name="Trazado 731656" d="M97.617,15.956a19.861,19.861,0,0,0-4.864-5.709c-8.887-7.125-18.546-8.278-28.9-3.562-1.355.617-2.726,1.663-3.89-.159-.769-1.2-.011-2.275,2.223-3.383a30.141,30.141,0,0,1,39.974,12.729c1.66,3.162,1.006,4.259-2.553,4.263-3.628,0-7.257.032-10.885-.018a1.651,1.651,0,0,0-1.945,1.317,11.578,11.578,0,0,1-22.263.076c-.387-1.2-.983-1.409-2.074-1.394-3.693.051-7.387.025-11.08.013a6.29,6.29,0,0,1-1.728-.155,1.765,1.765,0,0,1-1.374-2.059,1.717,1.717,0,0,1,1.649-1.624c.642-.063,1.294-.054,1.941-.054q21.771,0,43.542-.012a3.916,3.916,0,0,0,2.229-.269M75.661,20.137c-2.072,0-4.146.044-6.215-.017-1.2-.036-1.335.427-.853,1.365a7.785,7.785,0,0,0,14.023.076c.427-.826.608-1.466-.739-1.436-2.071.046-4.144.012-6.216.012" transform="translate(-29.412 0)" fill="#fff"/>
        <path id="Trazado_731657" data-name="Trazado 731657" d="M82.375,74.31a1.9,1.9,0,0,1,1.4,3.119c-.959,1.042-1.961,2.05-3.009,3a1.8,1.8,0,0,1-2.171.155,1.78,1.78,0,0,1-.925-1.6c-.049-1.284,3.427-4.717,4.7-4.674" transform="translate(-47.362 -45.311)" fill="#fff"/>
        <path id="Trazado_731658" data-name="Trazado 731658" d="M149.959,78.892a1.879,1.879,0,0,1-3,1.6,39.09,39.09,0,0,1-3.147-3.134,1.743,1.743,0,0,1-.171-2.005,1.8,1.8,0,0,1,1.728-1.032c1.217-.01,4.549,3.338,4.589,4.574" transform="translate(-87.443 -45.315)" fill="#fff"/>
        <path id="Trazado_731659" data-name="Trazado 731659" d="M113.778,89.089c0-.258.006-.516,0-.774-.041-1.445.072-2.914,1.978-2.86,1.871.053,1.933,1.553,1.921,2.973-.008.9.043,1.81-.04,2.706a1.838,1.838,0,0,1-1.993,1.914,1.8,1.8,0,0,1-1.854-2.025c-.014-.644,0-1.289,0-1.934Z" transform="translate(-69.372 -52.105)" fill="#fff"/>
        <path id="Trazado_731660" data-name="Trazado 731660" d="M62.362,27.11a1.8,1.8,0,0,1-1.955-1.937,1.753,1.753,0,0,1,1.852-1.846,1.806,1.806,0,0,1,1.95,1.953,1.76,1.76,0,0,1-1.847,1.83" transform="translate(-36.833 -14.224)" fill="#fff"/>
        <path id="Trazado_731661" data-name="Trazado 731661" d="M196.13,235.7a1.724,1.724,0,0,1-1.837,1.726,1.761,1.761,0,0,1-1.927-1.938,1.739,1.739,0,0,1,2.036-1.815,1.771,1.771,0,0,1,1.729,2.027" transform="translate(-117.295 -142.482)" fill="#fff"/>
      </g>
    </g>
  </g>
</svg>
