<svg xmlns="http://www.w3.org/2000/svg" xmlns:xlink="http://www.w3.org/1999/xlink" width="118" height="118" viewBox="0 0 118 118">
  <defs>
    <clipPath id="clip-path">
      <rect id="Rectángulo_349672" data-name="Rectángulo 349672" width="106.335" height="50.916" fill="#fff"/>
    </clipPath>
  </defs>
  <g id="Grupo_997393" data-name="Grupo 997393" transform="translate(-741 -1322)">
    <circle id="Elipse_5895" data-name="Elipse 5895" cx="59" cy="59" r="59" transform="translate(741 1322)" fill="#b20d0d"/>
    <g id="Grupo_997255" data-name="Grupo 997255" transform="translate(746.833 1355.914)">
      <g id="Grupo_997254" data-name="Grupo 997254" clip-path="url(#clip-path)">
        <path id="Trazado_731570" data-name="Trazado 731570" d="M4.657,23.489c0-2.015-.057-4.033.022-6.046.045-1.153-.292-1.621-1.507-1.534C1.418,16.035.142,15.358.008,13.42c-.115-1.672,1-2.653,3.205-2.661a1.957,1.957,0,0,0,2.2-1.58,13.231,13.231,0,0,1,25.747,2.8c.344,2.816.115,5.7,1.057,8.447.83,2.422,1.936,4.612,4.328,5.882,1.318.7,1.5,1.9,1.375,3.22-.565,6.1-3.533,10.616-9.088,13.243A2.433,2.433,0,0,0,27.144,45.6a14.891,14.891,0,0,1,0,2.5c-.106,1.676-.919,2.845-2.7,2.819-1.656-.025-2.449-1.146-2.573-2.729a9.676,9.676,0,0,1,0-2.082c.208-1.479-.419-1.874-1.841-1.9-1.638-.035-1.1,1.049-1.161,1.823-.071.9.07,1.825-.086,2.7a2.44,2.44,0,0,1-2.617,2.2c-1.333-.034-2.6-.883-2.388-2.124.776-4.636-1.768-7.111-5.078-9.729-2.985-2.362-3.894-6.153-4.024-9.959-.064-1.874-.011-3.752-.011-5.629H4.657m5.286-2.164c0,2.431-.048,4.863.01,7.293.131,5.479,2.833,8.757,8.194,10.038,5.717,1.366,10.744-.517,13.225-4.954,1.425-2.548,1.349-3.207-.578-5.316a16.233,16.233,0,0,1-3.183-5.333A29.279,29.279,0,0,1,26,13.451c-.129-4.724-3.484-8.111-8-8.122a7.916,7.916,0,0,0-8.037,8.078c-.069,2.638-.013,5.278-.013,7.918" transform="translate(0 -0.025)" fill="#fff"/>
        <path id="Trazado_731571" data-name="Trazado 731571" d="M86.263,23.7c0-2.084-.051-4.171.021-6.252.039-1.13-.263-1.568-1.492-1.574-2.2-.011-3.314-1-3.214-2.641.12-1.962,1.449-2.626,3.166-2.495,1.417.108,1.865-.559,2.289-1.755a13.234,13.234,0,0,1,25.74,3.567,37.149,37.149,0,0,0,.685,6.621c.761,2.964,1.887,5.663,4.811,7.205,1.149.606,1.263,1.737,1.19,2.9a15.125,15.125,0,0,1-9.031,13.469,2.5,2.5,0,0,0-1.732,2.822,13.489,13.489,0,0,1-.089,3.116,2.389,2.389,0,0,1-2.581,2.224,2.46,2.46,0,0,1-2.523-2.312,11.763,11.763,0,0,1-.041-2.5c.081-1.188-.069-1.871-1.6-1.919-1.63-.052-1.415.854-1.409,1.821,0,.625.024,1.252-.007,1.876-.095,1.906-1.164,3.159-2.706,3.04-1.772-.136-2.53-1.29-2.579-2.957-.041-1.389-.04-2.78,0-4.169a1.588,1.588,0,0,0-.953-1.644c-5.765-3.111-8.088-8.127-7.944-14.483.03-1.32,0-2.64,0-3.961m5.193-2.584c0,2.43-.029,4.862.007,7.291.049,3.268.93,6.25,3.741,8.2a13.31,13.31,0,0,0,12.33,1.722,9.837,9.837,0,0,0,6.3-6.757c.216-.685.49-1.4-.278-2.087-4.675-4.191-5.8-9.752-5.939-15.666C107.5,8.8,104.186,5.3,99.537,5.3c-4.623,0-7.98,3.515-8.076,8.517-.047,2.43-.008,4.861-.005,7.291" transform="translate(-47.356 -0.002)" fill="#fff"/>
        <path id="Trazado_731572" data-name="Trazado 731572" d="M167.78,23.64c0-1.877-.084-3.759.026-5.63.09-1.528-.221-2.373-2-2.136a2.369,2.369,0,0,1-2.518-1.5,2.46,2.46,0,0,1,.362-2.733,2.834,2.834,0,0,1,2.649-.923c1.259.1,1.76-.385,2.18-1.606A13.244,13.244,0,0,1,194.3,13.248a24.009,24.009,0,0,0,1.354,8.182,8.382,8.382,0,0,0,3.833,4.77,2.622,2.622,0,0,1,1.489,2.73c-.276,6.334-3.264,10.981-8.94,13.739-1.533.745-2.055,1.562-1.888,3.137a13.192,13.192,0,0,1-.059,2.913,2.324,2.324,0,0,1-2.391,2.18,2.38,2.38,0,0,1-2.639-2.151,10.985,10.985,0,0,1-.047-2.912c.149-1.363-.5-1.56-1.681-1.646-1.44-.106-1.393.686-1.39,1.651a18.355,18.355,0,0,1-.119,2.909,2.558,2.558,0,0,1-5.058-.031c-.223-1.987.46-4.358-.414-5.909s-3.3-2.139-4.669-3.672A14.887,14.887,0,0,1,167.8,29.062c-.022-1.807,0-3.615,0-5.423h-.012m5.171-2.528h.008c0,2.569-.068,5.14.014,7.707.175,5.478,3.514,9.118,9.064,9.994,6.309,1,11.181-1.5,13.1-6.644.48-1.286.539-2.274-.679-3.284a13.38,13.38,0,0,1-3.714-5.7,29.414,29.414,0,0,1-1.641-9.8,7.993,7.993,0,0,0-8.283-8.082c-4.475.116-7.775,3.577-7.863,8.3-.046,2.5-.008,5-.008,7.5" transform="translate(-94.641 0)" fill="#fff"/>
        <path id="Trazado_731573" data-name="Trazado 731573" d="M33.507,23.534a1.965,1.965,0,0,1-.023,3.928,1.835,1.835,0,0,1-2.109-2.009c.011-1.2.837-1.83,2.132-1.919" transform="translate(-18.214 -13.662)" fill="#fff"/>
        <path id="Trazado_731574" data-name="Trazado 731574" d="M117.029,25.636a2.021,2.021,0,0,1-2.319,1.847,1.814,1.814,0,0,1-1.78-2.125,1.887,1.887,0,0,1,2.167-1.776,1.932,1.932,0,0,1,1.932,2.054" transform="translate(-65.554 -13.688)" fill="#fff"/>
        <path id="Trazado_731575" data-name="Trazado 731575" d="M196.6,23.55c1.275.1,2.04.794,1.995,1.98a1.9,1.9,0,0,1-2.211,1.942,1.793,1.793,0,0,1-1.831-2.064c.068-1.253.924-1.761,2.047-1.858" transform="translate(-112.941 -13.672)" fill="#fff"/>
      </g>
    </g>
  </g>
</svg>
