<svg xmlns="http://www.w3.org/2000/svg" xmlns:xlink="http://www.w3.org/1999/xlink" width="118" height="118" viewBox="0 0 118 118">
  <defs>
    <clipPath id="clip-path">
      <rect id="Rectángulo_349655" data-name="Rectángulo 349655" width="106.335" height="92.355" fill="none"/>
    </clipPath>
  </defs>
  <g id="Grupo_997387" data-name="Grupo 997387" transform="translate(-741 -750)">
    <circle id="Elipse_5889" data-name="Elipse 5889" cx="59" cy="59" r="59" transform="translate(741 750)" fill="#b20d0d"/>
    <g id="Grupo_997228" data-name="Grupo 997228" transform="translate(746.833 754)">
      <rect id="Rectángulo_349653" data-name="Rectángulo 349653" width="25.667" height="40.792" transform="translate(40.334 39.646)" fill="#bababa"/>
      <g id="Grupo_997227" data-name="Grupo 997227">
        <g id="Grupo_997226" data-name="Grupo 997226" clip-path="url(#clip-path)">
          <path id="Trazado_731324" data-name="Trazado 731324" d="M166.265,59.754H126.423a3.8,3.8,0,0,1-3.8-3.8v-.425a3.8,3.8,0,0,1,3.8-3.8h39.842a3.8,3.8,0,0,1,3.8,3.8v.425a3.8,3.8,0,0,1-3.8,3.8" transform="translate(-93.292 -39.358)" fill="#d8d8da"/>
          <path id="Trazado_731325" data-name="Trazado 731325" d="M211.725,13.063H201.183V3.79A3.79,3.79,0,0,1,204.973,0h2.962a3.79,3.79,0,0,1,3.79,3.79Z" transform="translate(-153.057)" fill="#bababa"/>
          <path id="Trazado_731326" data-name="Trazado 731326" d="M279.1,183.478A17.154,17.154,0,0,0,266.4,170.8c-5.289-1.27-13.126-2.814-24.417-4.358l-3.919.313q-.67-.274-1.352-.543l-3.437.229a125.8,125.8,0,0,1,11.554,6.817,17.061,17.061,0,0,1,7.42,12.23,140.333,140.333,0,0,1,.735,21.287h5.5a124.514,124.514,0,0,0-.942-22.518,17.037,17.037,0,0,0-8.7-12.358c-2.422-1.317-5.378-2.814-8.656-4.247a165.545,165.545,0,0,1,21.7,5.782,17.225,17.225,0,0,1,11.317,14.84,126.686,126.686,0,0,1,.177,17.355l7.334-.229s1.515-8.787-1.614-21.926" transform="translate(-177.474 -126.455)" fill="#4d99bf"/>
          <path id="Trazado_731327" data-name="Trazado 731327" d="M55.948,167.237l-3.919-.314c-11.291,1.544-19.128,3.088-24.417,4.358a17.154,17.154,0,0,0-12.7,12.674C11.785,197.1,13.3,205.882,13.3,205.882l7.333.229a126.758,126.758,0,0,1,.177-17.355,17.225,17.225,0,0,1,11.317-14.84,165.585,165.585,0,0,1,21.7-5.782c-3.278,1.433-6.235,2.93-8.656,4.247a17.036,17.036,0,0,0-8.7,12.358,124.541,124.541,0,0,0-.942,22.519h5.5a140.361,140.361,0,0,1,.735-21.287,17.062,17.062,0,0,1,7.42-12.23,125.8,125.8,0,0,1,11.554-6.817l-3.437-.229q-.684.268-1.352.543" transform="translate(-9.839 -126.819)" fill="#4d99bf"/>
          <rect id="Rectángulo_349654" data-name="Rectángulo 349654" width="4.583" height="39.188" transform="translate(51.105 39.876)" fill="#4d99bf"/>
          <path id="Trazado_731328" data-name="Trazado 731328" d="M109.562,336H5.748V325.948a1.181,1.181,0,0,1,1.181-1.181H108.381a1.181,1.181,0,0,1,1.181,1.181Z" transform="translate(-4.373 -247.079)" fill="#4d99bf"/>
          <path id="Trazado_731329" data-name="Trazado 731329" d="M190.039,66.955l-.945-24.635a3.135,3.135,0,0,0-3.106-3.042H172.051a3.135,3.135,0,0,0-3.107,3.066l-.761,24.585h-.072a2.88,2.88,0,0,0-2.854,2.905v.594a85.57,85.57,0,0,0,13.521.933,98.642,98.642,0,0,0,13.75-.933v-.594a2.887,2.887,0,0,0-2.49-2.879" transform="translate(-125.726 -29.883)" fill="#73c0e6"/>
          <path id="Trazado_731330" data-name="Trazado 731330" d="M187.279,155.389a59.594,59.594,0,0,1-10.819-.693.228.228,0,0,1,.1-.445,59.3,59.3,0,0,0,10.723.682,76.3,76.3,0,0,0,11.192-.684.228.228,0,1,1,.075.449,76.679,76.679,0,0,1-11.267.691" transform="translate(-134.112 -117.348)" fill="#382118"/>
          <path id="Trazado_731331" data-name="Trazado 731331" d="M111.336,324.27H9.814a.228.228,0,0,1,0-.455H111.336a.228.228,0,1,1,0,.455" transform="translate(-7.293 -246.354)" fill="#382118"/>
          <path id="Trazado_731332" data-name="Trazado 731332" d="M263.93,59.754H254.8a3.8,3.8,0,0,1-3.8-3.8v-.425a3.8,3.8,0,0,1,3.8-3.8h9.133a3.8,3.8,0,0,1,3.8,3.8v.425a3.8,3.8,0,0,1-3.8,3.8" transform="translate(-190.957 -39.358)" fill="#d8d8da"/>
          <path id="Trazado_731333" data-name="Trazado 731333" d="M299.969,59.258c-1.642,0-2.978-1.9-2.978-4.238s1.336-4.238,2.978-4.238a.228.228,0,0,1,0,.455c-1.391,0-2.522,1.7-2.522,3.783s1.131,3.783,2.522,3.783a.228.228,0,0,1,0,.455" transform="translate(-225.947 -38.634)" fill="#382118"/>
          <path id="Trazado_731334" data-name="Trazado 731334" d="M104.749,368.588H1.585A1.585,1.585,0,0,1,0,367v-2.33a1.585,1.585,0,0,1,1.585-1.585H104.749a1.585,1.585,0,0,1,1.585,1.585V367a1.585,1.585,0,0,1-1.585,1.585" transform="translate(0 -276.233)" fill="#bababa"/>
        </g>
      </g>
    </g>
  </g>
</svg>
