<svg xmlns="http://www.w3.org/2000/svg" xmlns:xlink="http://www.w3.org/1999/xlink" width="144.234" height="144.233" viewBox="0 0 144.234 144.233">
  <defs>
    <clipPath id="clip-path">
      <path id="Trazado_731568" data-name="Trazado 731568" d="M72.118,0a72.117,72.117,0,1,0,72.116,72.116A72.117,72.117,0,0,0,72.118,0Z" transform="translate(0 -0.001)" fill="none"/>
    </clipPath>
    <clipPath id="clip-path-2">
      <rect id="Rectángulo_349665" data-name="Rectángulo 349665" width="28.072" height="17.948" fill="none"/>
    </clipPath>
    <clipPath id="clip-path-3">
      <rect id="Rectángulo_349666" data-name="Rectángulo 349666" width="18.115" height="105.419" fill="none"/>
    </clipPath>
    <clipPath id="clip-path-4">
      <rect id="Rectángulo_349667" data-name="Rectángulo 349667" width="9.66" height="10.267" fill="none"/>
    </clipPath>
    <clipPath id="clip-path-5">
      <rect id="Rectángulo_349668" data-name="Rectángulo 349668" width="15.561" height="12.935" fill="none"/>
    </clipPath>
  </defs>
  <g id="Grupo_997391" data-name="Grupo 997391" transform="translate(1502.254 10993.999)">
    <circle id="Elipse_5891" data-name="Elipse 5891" cx="59" cy="59" r="59" transform="translate(-1488 -10968)" fill="#06d1d1"/>
    <g id="Grupo_997249" data-name="Grupo 997249" transform="translate(-1502.254 -10993.999)">
      <g id="Grupo_997248" data-name="Grupo 997248" clip-path="url(#clip-path)">
        <path id="Trazado_731536" data-name="Trazado 731536" d="M19.907,33.843s3.016.356,4.841-.588l2.359,6.156,21.456-9.86c4.125-2.243,8.049-3.5,11.294-1.429L54.73,39.607S30.772,52.434,21.421,47.86c-5.123-2.585-2.582-8.832-1.514-14.017" transform="translate(14.828 21.9)" fill="#fff"/>
        <path id="Trazado_731537" data-name="Trazado 731537" d="M36.423,114.815a51.394,51.394,0,0,1,2.079,7.768c.364,1.834.653,3.732.9,5.6a140.507,140.507,0,0,1,.97,18.556l8.861,2.276s.107-1.183,1.729-11.289c.38-2.412.85-5.34,1.426-8.875.107-.637.2-1.259.259-1.865,1.062-9.543-2.155-15.6-3.126-21.271a14.2,14.2,0,0,1,.168-6.433c1.214-4.414,2.943-13.228,4.307-20.633C55.266,71.939,56.207,66.4,56.207,66.4s-17.174-15.991-21.013-.136c-3.839,15.839-4.81,26.413,1.228,48.549" transform="translate(25.975 47.94)" fill="#ffb294"/>
        <path id="Trazado_731538" data-name="Trazado 731538" d="M40.312,77.924A77.264,77.264,0,0,0,42.861,97a135.984,135.984,0,0,0,7.207,21.042c1.409,3.233,2.913,6.343,4.429,9.255.774,1.442,1.549,2.853,2.321,4.188,8.526,14.807,9.467,32.254,9.467,32.254H74.07s-.563-2.67,1.138-21.393a33.353,33.353,0,0,0,.1-4.87c-.606-12.562-8.5-17.114-10.467-23.288a9.121,9.121,0,0,1-.44-3.186c.364-8.906-1.047-34.834-1.047-34.834S54.134,70.1,47.351,69.973c-3.9-.06-6.978,1.822-7.039,7.951" transform="translate(32.614 56.611)" fill="#ffb294"/>
        <path id="Trazado_731539" data-name="Trazado 731539" d="M38.517,64.035c8.228,2.743,18.92,2.981,25.383-3.714,2.336,6.153,12.1,14.037,5.529,33.157l-22.82-4.284a32.014,32.014,0,0,1-13.4-24.906c-.052-1.719-.062-3.356-.049-4.941a21.294,21.294,0,0,0,5.359,4.687" transform="translate(26.824 48.016)" fill="#f2946f"/>
        <path id="Trazado_731540" data-name="Trazado 731540" d="M36.607,122.685c.014,2.9,12.365,6.63,23.743,6.448,8.21-.107,15.9-2.231,18.116-8.163-3.656-6.113-2.05-8.783-2.473-15.9-.789-12.881,3.58-31.5-10.408-44.424a.863.863,0,0,0-.168-.166c-3.428-3.124-2.214.121-5.583.805a48.48,48.48,0,0,1-17.25.349c-1.487-.244-6.922-3.048-7.908-2.124a27.716,27.716,0,0,1-.83,4.915,112.988,112.988,0,0,0,2.761,58.258" transform="translate(25.306 47.853)" fill="#fff"/>
        <path id="Trazado_731541" data-name="Trazado 731541" d="M36.615,62.9S34.309,71.457,34.2,85.262c6.037,4.579,23.819,8.088,30.736.971a6.261,6.261,0,0,1-.47-2.609c.2-3.535,3.7-12.32,6.965-19.846,2.927-6.735,5.673-12.456,5.673-12.456l.881-5.25L62.317,32.679,47.7,27.317s-3.852,2.07-5.111,8.9-2.017,4.174-8.405,13.413S36.615,62.9,36.615,62.9" transform="translate(25.782 22.1)" fill="#fff"/>
        <path id="Trazado_731542" data-name="Trazado 731542" d="M55.557,41.752l-16.472,9.86,5.335-18.594Z" transform="translate(31.624 26.712)" fill="#227fbc"/>
        <g id="Grupo_997238" data-name="Grupo 997238" transform="translate(60.292 81.558)" style="mix-blend-mode: multiply;isolation: isolate">
          <g id="Grupo_997237" data-name="Grupo 997237">
            <g id="Grupo_997236" data-name="Grupo 997236" clip-path="url(#clip-path-2)">
              <path id="Trazado_731543" data-name="Trazado 731543" d="M43.255,45.083a6.78,6.78,0,0,1-7.823,3.443,82.534,82.534,0,0,0-2.106,14.505c1.478-9.391,5.011-9.094,6.866-7.783a11.8,11.8,0,0,1,2.621,3.128c4.98,7.178,15.3,3.987,18.585-1.673-16.07,7.734-20.568-3.765-18.143-11.62" transform="translate(-33.327 -45.083)" fill="#d1e1eb"/>
            </g>
          </g>
        </g>
        <g id="Grupo_997241" data-name="Grupo 997241" transform="translate(85.656 71.567)" style="mix-blend-mode: multiply;isolation: isolate">
          <g id="Grupo_997240" data-name="Grupo 997240">
            <g id="Grupo_997239" data-name="Grupo 997239" clip-path="url(#clip-path-3)">
              <path id="Trazado_731544" data-name="Trazado 731544" d="M58.6,123.632c1.38-9.011-.228-18.312-3.519-26.823-1.263-3.249-3.3-6.922-4.577-10.592-4.107-8.025-.219-17.688,1.406-22.831,4.713-15.148,8.266-23.824,8.266-23.824.212-.137-1.2,11.67-.483,11.412-3.262,7.526-7.555,19.209-7.754,22.744a5.852,5.852,0,0,0,1.853,3.96c12.459,12.9,8.429,30.755,9.194,43.239.423,7.115-1.183,9.785,2.473,15.9-2.216,5.932-9.908,8.056-18.114,8.163,6.144-5.371,10-13.23,11.256-21.347" transform="translate(-47.347 -39.56)" fill="#d1e1eb"/>
            </g>
          </g>
        </g>
        <path id="Trazado_731545" data-name="Trazado 731545" d="M39.694,96.425c-2.905-5.567-4.857-11.571-6.795-17.541q1.734,8.814,3.47,17.628c.678,3.445,1.4,6.994,3.369,9.9,1.227,1.811,9.145,7.439,8.666,2.578-.174-1.767-3.153-4.159-4.166-5.449a46.023,46.023,0,0,1-4.543-7.117" transform="translate(26.618 63.823)" fill="#d9f0ff"/>
        <path id="Trazado_731546" data-name="Trazado 731546" d="M26.064,35.042l1.63-2.52.333-1.239.062-1.885-.443-3.714-2.7-1.207-4.336-.1-1.985.906-.054,2.336-.539,3.07.355,3.249,1.729,2.489c.479,1.046,5.474.885,5.946-1.38" transform="translate(14.59 19.717)" fill="#ffb294"/>
        <g id="Grupo_997244" data-name="Grupo 997244" transform="translate(32.624 46.325)" opacity="0.5" style="mix-blend-mode: multiply;isolation: isolate">
          <g id="Grupo_997243" data-name="Grupo 997243">
            <g id="Grupo_997242" data-name="Grupo 997242" clip-path="url(#clip-path-4)">
              <path id="Trazado_731547" data-name="Trazado 731547" d="M25.617,33.4l2.077-1.874-.058-1.286L27.4,28.5l-.673-2.307-1.655-.581-4.222.215-1.465-.212-.81,1-.541,3.072.356,3.249,1.729,2.489c.478,1.046,5.026.237,5.5-2.028" transform="translate(-18.034 -25.607)" fill="#ffb294"/>
            </g>
          </g>
        </g>
        <path id="Trazado_731548" data-name="Trazado 731548" d="M19.8,33.786c-.876-1.156,1.6-4.414,3.564-4.329l1.487.112,1.753-.955a6.466,6.466,0,0,1,1.854-.32,2.046,2.046,0,0,1,1.085.526c.423.449-.179.935-.179.935l-1.21.928-1.1,1.14-4.127,1.963Z" transform="translate(15.873 22.878)" fill="#ffb294"/>
        <path id="Trazado_731549" data-name="Trazado 731549" d="M26.85,26.924,25.332,25.8a10.831,10.831,0,0,1-.888,2.578c-.326.253-1.749.085-1.749.085s-.384.613-.785.749a1.792,1.792,0,0,1-1.31-.148,2.427,2.427,0,0,1-.727-.821s-1.458,0-1.854-.507.208-1.628.208-1.628l.521-1.093,3.575-.315Z" transform="translate(14.47 19.982)" fill="#ffb294"/>
        <path id="Trazado_731550" data-name="Trazado 731550" d="M22.086,29.336l2.623-.107,1.114-1.992,2.008-2.012c1.084-.968.286-4.828-1.142-1.88l-2.58,2.5-.991.9-1.757,1.805Z" transform="translate(17.284 18.005)" fill="#ffb294"/>
        <path id="Trazado_731551" data-name="Trazado 731551" d="M53.518,25.495a51.9,51.9,0,0,1-9.056.841C42.023,16.52,52.809,12.554,60.67,15.11c4.335,1.409,2.182,6.1-.488,6.99a24.2,24.2,0,0,0-3.786,1.885,12.671,12.671,0,0,1-2.876,1.509" transform="translate(35.69 11.612)"/>
        <path id="Trazado_731552" data-name="Trazado 731552" d="M59.89,39.816c-.534,1.693-1.1,2.623-3.235,4.242-3.79,2.873-9.051,6.006-12.921,3.184-3.627-2.942,3.7-13.977,4.971-17.9.166-.514,12.651-4.344,13.333-3.709C63.6,27.08,60.422,38.123,59.89,39.816" transform="translate(34.578 20.682)" fill="#ffb294"/>
        <path id="Trazado_731553" data-name="Trazado 731553" d="M65.125,31.376l1.18,3.729c.6,2.462,1.308,6.064-.691,9.733l-3.882-2.462,1.2,7.153c-8-1.684-17.622.763-25.714,6.355C47.362,43.137,57.835,44.566,65.125,31.376" transform="translate(30.109 25.384)" fill="#dfecf5"/>
        <path id="Trazado_731554" data-name="Trazado 731554" d="M45.163,34.407l-2.589-2.292A12.466,12.466,0,0,1,49.619,28.3l3.025,2.69C48.378,33.87,43.084,44.053,40.079,54.77l-.993.659c.213-8.584.706-16.649,2.156-21.4Z" transform="translate(31.624 22.894)" fill="#dfecf5"/>
        <g id="Grupo_997247" data-name="Grupo 997247" transform="translate(77.298 51.165)" style="mix-blend-mode: multiply;isolation: isolate">
          <g id="Grupo_997246" data-name="Grupo 997246">
            <g id="Grupo_997245" data-name="Grupo 997245" clip-path="url(#clip-path-5)">
              <path id="Trazado_731555" data-name="Trazado 731555" d="M42.734,38.437c-.1-1.518.865-7.289,3.624-9.188,3.289-2.261,9.566-.165,11.4,2.3,1.221,1.644.119,2.468-1.113,3.719-4.025,4.09-13.51,9.225-13.91,3.166" transform="translate(-42.728 -28.284)" fill="#ffc8b3"/>
            </g>
          </g>
        </g>
        <path id="Trazado_731556" data-name="Trazado 731556" d="M42.52,43.98c-1.581-2.554.074-13.838,4.763-20.4,6.482-9.074,17.074-9.59,20.976-5.511,4.669,4.881,2.831,25.141-8.781,23.728-1.612-.2-2.1-.441-3.4.651C49.847,47.684,44,46.379,42.52,43.98" transform="translate(33.932 12.644)" fill="#ffb294"/>
        <path id="Trazado_731557" data-name="Trazado 731557" d="M53.9,28.9a2.338,2.338,0,0,1,.494,2.7l-.326.711c-.7,1.53-2.2,2.055-3.338,1.169L49.391,32.4a3.95,3.95,0,0,1-.834-4.566l.192-.422a1.419,1.419,0,0,0-.416-.6.955.955,0,0,0-.6-.2l-.194.422c-.727,1.594-2.285,2.14-3.473,1.216l-.966-.751a3.8,3.8,0,0,1-.8-4.389l.326-.709a1.332,1.332,0,0,1,2.055-.72l2.639,2.053a2.242,2.242,0,0,1,.653,2.175,1.377,1.377,0,0,1,.644.275,1.881,1.881,0,0,1,.49.608,1.236,1.236,0,0,1,1.777-.284Zm-.3,3.05.324-.711a1.477,1.477,0,0,0-.311-1.71L50.6,27.149a.842.842,0,0,0-1.3.456l-.273.6a3.092,3.092,0,0,0,.651,3.575l1.341,1.075a1.675,1.675,0,0,0,2.583-.9m-6.527-5.263.273-.6a1.478,1.478,0,0,0-.311-1.71l-2.641-2.053a.842.842,0,0,0-1.3.456l-.324.709a2.941,2.941,0,0,0,.619,3.4l.966.751c.93.724,2.149.3,2.719-.952" transform="translate(33.937 17.335)"/>
        <path id="Trazado_731558" data-name="Trazado 731558" d="M47.631,31.284c.847,4.8,5.435,15.363-1.067,20.2A21.472,21.472,0,0,0,65.7,43.139c7.663-10.281,3.631-24.736-3.79-27.663-3.859-1.521-9.109-1.013-12.027,2.279-2.616,2.952-3.173,8.316-2.256,13.528" transform="translate(37.675 11.857)"/>
        <path id="Trazado_731559" data-name="Trazado 731559" d="M67.41,67.1l1.78,3.4,6.439,5.621,2.63,4.137,2.077,4.894c.463.879.013,1.692-.494,1.248l.921,2.062c.669,1.491-.246,1.885-1.118.684L75.38,82.805,79,89.734c.664,1.313-.349,1.809-1.172.546l-4.917-7.055,2.65,5.981c.682,1.583-.123,2.205-1.19.742l-6.323-9.339.268,4.152-.128,2.2c-.139,1.436-1.458,1.223-1.6-.369l-.34-2L64.8,81.262l.058-7.915-.436-5.286Z" transform="translate(52.123 54.286)" fill="#ffb294"/>
        <path id="Trazado_731560" data-name="Trazado 731560" d="M60.52,37.693c3.139,1.183,6.572,13.248,10.042,26.592,3.625,5.88,3.821,18.711,7.1,29.381l-5.914,3.484c-2.679-11.4-7.54-19.7-7.54-28.824C60.986,62.59,57.2,56.855,54.754,52.5c-3.484-5.775.6-15.3,5.766-14.806" transform="translate(43.252 30.481)" fill="#fff"/>
        <path id="Trazado_731561" data-name="Trazado 731561" d="M25.084,28.289a.6.6,0,0,1,0,1.116,1.928,1.928,0,0,1-1.829,0,.6.6,0,0,1,0-1.116,1.928,1.928,0,0,1,1.829,0" transform="translate(18.509 22.7)" fill="gray"/>
        <path id="Trazado_731562" data-name="Trazado 731562" d="M24.627,32.074v-8H23.2v8a.354.354,0,0,0,.21.293,1.119,1.119,0,0,0,1.011,0,.358.358,0,0,0,.21-.293" transform="translate(18.768 19.475)" fill="#ccc"/>
        <path id="Trazado_731563" data-name="Trazado 731563" d="M26.975,23.955c1.145.474,1.145,1.243,0,1.717a6.218,6.218,0,0,1-4.145,0c-1.145-.474-1.145-1.243,0-1.717a6.218,6.218,0,0,1,4.145,0" transform="translate(17.777 19.092)" fill="gray"/>
        <path id="Trazado_731564" data-name="Trazado 731564" d="M25.939,29.655V17.614H22.695V29.655a.8.8,0,0,0,.474.662,2.537,2.537,0,0,0,2.294,0,.8.8,0,0,0,.476-.662" transform="translate(18.362 14.25)" fill="#ccc"/>
        <path id="Trazado_731565" data-name="Trazado 731565" d="M22.877,17.462v4.7a.642.642,0,0,0,.378.526,2.023,2.023,0,0,0,1.829,0,.641.641,0,0,0,.38-.528v-4.7Z" transform="translate(18.51 14.127)" fill="#fff"/>
        <path id="Trazado_731566" data-name="Trazado 731566" d="M25.464,17.371a.7.7,0,0,1,0,1.324,2.537,2.537,0,0,1-2.294,0,.7.7,0,0,1,0-1.324,2.537,2.537,0,0,1,2.294,0" transform="translate(18.363 13.831)" fill="#e6e6e6"/>
        <path id="Trazado_731567" data-name="Trazado 731567" d="M24.359,17.031a.185.185,0,0,0-.1-.123.429.429,0,0,0-.387,0,.177.177,0,0,0-.1.123l-.183.919a.24.24,0,0,0,.139.194.74.74,0,0,0,.669,0,.236.236,0,0,0,.139-.194Z" transform="translate(19.088 13.641)" fill="#0071bc"/>
        <rect id="Rectángulo_349669" data-name="Rectángulo 349669" width="0.259" height="8.168" transform="translate(43.024 22.549)" fill="#333"/>
      </g>
    </g>
  </g>
</svg>
