<svg xmlns="http://www.w3.org/2000/svg" xmlns:xlink="http://www.w3.org/1999/xlink" width="942.452" height="642.647" viewBox="0 0 942.452 642.647">
  <defs>
    <clipPath id="clip-path">
      <rect id="Rectángulo_345070" data-name="Rectángulo 345070" width="942.452" height="642.647" fill="none"/>
    </clipPath>
  </defs>
  <g id="Grupo_997405" data-name="Grupo 997405" transform="translate(-328.774 -3513)">
    <path id="Trazado_725523" data-name="Trazado 725523" d="M193.381,130.949l.043,8.526-7.405-4.226-7.4-4.225,7.362-4.3,7.362-4.3Z" transform="translate(328.774 3513)" fill="#b20d0d"/>
    <path id="Trazado_725524" data-name="Trazado 725524" d="M267.614,131.037l-76.176-.077Z" transform="translate(328.774 3513)" fill="#b20d0d"/>
    <path id="Trazado_725525" data-name="Trazado 725525" d="M191.438,132.125l25.812.027,40.97.042,9.394.009a1.166,1.166,0,0,0,0-2.331l-25.812-.027-40.97-.042-9.394-.01a1.167,1.167,0,0,0,0,2.332" transform="translate(328.774 3513)" fill="#b20d0d"/>
    <path id="Trazado_725526" data-name="Trazado 725526" d="M448.381,134.949l.043,8.526-7.405-4.226-7.4-4.225,7.362-4.3,7.362-4.3Z" transform="translate(328.774 3513)" fill="#b20d0d"/>
    <path id="Trazado_725527" data-name="Trazado 725527" d="M446.438,136.125l20.02.026,31.879.043,7.277.009-1.166-1.166v30.387a1.182,1.182,0,0,0,1.166,1.165H583.2c3.569,0,7.246.258,10.808,0,.052,0,.1,0,.157,0a1.166,1.166,0,0,0,0-2.331h-84.9a19.809,19.809,0,0,0-3.487,0,.9.9,0,0,1-.156,0l1.166,1.166V135.037a1.182,1.182,0,0,0-1.166-1.165l-20.019-.027-31.88-.042-7.277-.01a1.167,1.167,0,0,0,0,2.332" transform="translate(328.774 3513)" fill="#b20d0d"/>
    <path id="Trazado_725528" data-name="Trazado 725528" d="M193.381,152.949l.043,8.526-7.405-4.226-7.4-4.225,7.362-4.3,7.362-4.3Z" transform="translate(328.774 3513)" fill="#b20d0d"/>
    <line id="Línea_3067" data-name="Línea 3067" x2="76.176" y2="0.078" transform="translate(520.212 3665.959)" fill="#b20d0d"/>
    <path id="Trazado_725529" data-name="Trazado 725529" d="M191.438,154.125l25.812.027,40.97.042,9.394.009a1.166,1.166,0,0,0,0-2.331l-25.812-.027-40.97-.042-9.394-.01a1.167,1.167,0,0,0,0,2.332" transform="translate(328.774 3513)" fill="#b20d0d"/>
    <path id="Trazado_725530" data-name="Trazado 725530" d="M193.381,173.949l.043,8.526-7.405-4.226-7.4-4.225,7.362-4.3,7.362-4.3Z" transform="translate(328.774 3513)" fill="#b20d0d"/>
    <line id="Línea_3068" data-name="Línea 3068" x2="76.176" y2="0.078" transform="translate(520.212 3686.959)" fill="#b20d0d"/>
    <path id="Trazado_725531" data-name="Trazado 725531" d="M191.438,175.125l25.812.027,40.97.042,9.394.009a1.166,1.166,0,0,0,0-2.331l-25.812-.027-40.97-.042-9.394-.01a1.167,1.167,0,0,0,0,2.332" transform="translate(328.774 3513)" fill="#b20d0d"/>
    <path id="Trazado_725532" data-name="Trazado 725532" d="M69.408,342.091l4.88-6.991,3.614,7.721,3.615,7.722-8.494-.73-8.5-.731Z" transform="translate(328.774 3513)" fill="#b20d0d"/>
    <line id="Línea_3069" data-name="Línea 3069" x1="47.887" y1="32.545" transform="translate(351.889 3823.658)" fill="#b20d0d"/>
    <path id="Trazado_725533" data-name="Trazado 725533" d="M71.59,342.2q-8.112-5.514-16.225-11.025Q42.5,322.423,29.628,313.678L23.7,309.651c-1.245-.845-2.413,1.175-1.177,2.014L38.75,322.691q12.87,8.746,25.738,17.493l5.925,4.025c1.244.846,2.412-1.173,1.177-2.013" transform="translate(328.774 3513)" fill="#b20d0d"/>
    <path id="Trazado_725534" data-name="Trazado 725534" d="M57.408,386.091l4.88-6.991,3.614,7.721,3.615,7.722-8.494-.73-8.495-.731Z" transform="translate(328.774 3513)" fill="#b20d0d"/>
    <line id="Línea_3070" data-name="Línea 3070" x1="47.887" y1="32.545" transform="translate(339.889 3867.658)" fill="#b20d0d"/>
    <path id="Trazado_725535" data-name="Trazado 725535" d="M59.59,386.2q-8.112-5.514-16.225-11.025Q30.5,366.423,17.628,357.678L11.7,353.651c-1.245-.845-2.413,1.175-1.177,2.014L26.75,366.691q12.87,8.746,25.738,17.493l5.925,4.025c1.244.846,2.412-1.173,1.177-2.013" transform="translate(328.774 3513)" fill="#b20d0d"/>
    <path id="Trazado_725536" data-name="Trazado 725536" d="M47.408,429.091l4.88-6.991,3.614,7.721,3.615,7.722-8.494-.73-8.495-.731Z" transform="translate(328.774 3513)" fill="#b20d0d"/>
    <line id="Línea_3071" data-name="Línea 3071" x1="47.887" y1="32.545" transform="translate(329.889 3910.658)" fill="#b20d0d"/>
    <path id="Trazado_725537" data-name="Trazado 725537" d="M49.59,429.2,33.365,418.17,7.628,400.678,1.7,396.651c-1.245-.845-2.413,1.174-1.177,2.014L16.75,409.691l25.738,17.492,5.925,4.026c1.244.846,2.412-1.173,1.177-2.013" transform="translate(328.774 3513)" fill="#b20d0d"/>
    <path id="Trazado_733138" data-name="Trazado 733138" d="M10.465-6.923H3.887V0H1.82V-15.677h9.712v1.69H3.887v5.373h6.579Zm2.256.991a6.881,6.881,0,0,1,.673-3.079,5.02,5.02,0,0,1,1.873-2.11,5.1,5.1,0,0,1,2.74-.743,4.913,4.913,0,0,1,3.849,1.647,6.338,6.338,0,0,1,1.47,4.382v.14a6.941,6.941,0,0,1-.651,3.052,4.946,4.946,0,0,1-1.863,2.1,5.158,5.158,0,0,1-2.783.754,4.9,4.9,0,0,1-3.838-1.647,6.306,6.306,0,0,1-1.47-4.361Zm2,.237a4.984,4.984,0,0,0,.9,3.112A2.877,2.877,0,0,0,18.029-1.41,2.86,2.86,0,0,0,20.441-2.6a5.45,5.45,0,0,0,.894-3.332,4.975,4.975,0,0,0-.91-3.106,2.892,2.892,0,0,0-2.417-1.19,2.86,2.86,0,0,0-2.379,1.174A5.409,5.409,0,0,0,14.724-5.7ZM31.456-9.862a5.969,5.969,0,0,0-.98-.075,2.625,2.625,0,0,0-2.659,1.669V0H25.825V-11.65h1.938l.032,1.346a3.1,3.1,0,0,1,2.778-1.561,2.035,2.035,0,0,1,.883.151Zm3.7-1.787.054,1.292a4.3,4.3,0,0,1,3.456-1.507A3.331,3.331,0,0,1,42-9.992a4.413,4.413,0,0,1,1.513-1.357,4.468,4.468,0,0,1,2.2-.517q3.833,0,3.9,4.059V0H47.617V-7.688a2.675,2.675,0,0,0-.571-1.868,2.513,2.513,0,0,0-1.917-.619,2.641,2.641,0,0,0-1.841.662,2.686,2.686,0,0,0-.851,1.782V0h-2V-7.634a2.222,2.222,0,0,0-2.487-2.541,2.665,2.665,0,0,0-2.681,1.669V0H33.275V-11.65ZM59.8,0a4.184,4.184,0,0,1-.28-1.227A4.444,4.444,0,0,1,56.209.215a4.112,4.112,0,0,1-2.826-.974,3.153,3.153,0,0,1-1.1-2.471,3.293,3.293,0,0,1,1.384-2.826,6.523,6.523,0,0,1,3.892-1.007h1.938v-.915a2.237,2.237,0,0,0-.624-1.663,2.51,2.51,0,0,0-1.841-.619,2.9,2.9,0,0,0-1.787.538,1.586,1.586,0,0,0-.721,1.3h-2a2.749,2.749,0,0,1,.619-1.685,4.225,4.225,0,0,1,1.68-1.287,5.651,5.651,0,0,1,2.331-.474A4.605,4.605,0,0,1,60.3-10.858a3.632,3.632,0,0,1,1.184,2.772v5.362a6.555,6.555,0,0,0,.409,2.552V0ZM56.5-1.518A3.5,3.5,0,0,0,58.276-2a2.931,2.931,0,0,0,1.217-1.26v-2.39H57.931q-3.661,0-3.661,2.143A1.813,1.813,0,0,0,54.9-2.046,2.4,2.4,0,0,0,56.5-1.518ZM71.39-3.09a1.466,1.466,0,0,0-.608-1.254,5.855,5.855,0,0,0-2.121-.77,10.028,10.028,0,0,1-2.4-.775,3.416,3.416,0,0,1-1.314-1.077,2.575,2.575,0,0,1-.425-1.486,3.022,3.022,0,0,1,1.211-2.423,4.73,4.73,0,0,1,3.1-.991,4.868,4.868,0,0,1,3.214,1.023,3.249,3.249,0,0,1,1.233,2.616h-2a1.8,1.8,0,0,0-.694-1.41,2.6,2.6,0,0,0-1.75-.592,2.723,2.723,0,0,0-1.7.474,1.491,1.491,0,0,0-.614,1.238,1.208,1.208,0,0,0,.571,1.087,7.021,7.021,0,0,0,2.062.7,10.743,10.743,0,0,1,2.417.8,3.526,3.526,0,0,1,1.373,1.114,2.74,2.74,0,0,1,.447,1.588,2.981,2.981,0,0,1-1.249,2.5,5.239,5.239,0,0,1-3.241.942,5.866,5.866,0,0,1-2.476-.5,4.028,4.028,0,0,1-1.685-1.384,3.335,3.335,0,0,1-.608-1.922h1.992A2.062,2.062,0,0,0,66.916-2a3.112,3.112,0,0,0,1.976.587,3.212,3.212,0,0,0,1.814-.458A1.406,1.406,0,0,0,71.39-3.09Zm9.561-2.832a6.825,6.825,0,0,1,1.27-4.312,4.018,4.018,0,0,1,3.327-1.631,4.04,4.04,0,0,1,3.241,1.4v-6.073h1.992V0h-1.83l-.1-1.249A4.056,4.056,0,0,1,85.527.215a3.979,3.979,0,0,1-3.3-1.658,6.9,6.9,0,0,1-1.276-4.328Zm1.992.226a5.167,5.167,0,0,0,.818,3.1,2.645,2.645,0,0,0,2.261,1.12,2.906,2.906,0,0,0,2.767-1.7V-8.527a2.928,2.928,0,0,0-2.746-1.647,2.658,2.658,0,0,0-2.283,1.131A5.689,5.689,0,0,0,82.943-5.7ZM98.706.215A5.09,5.09,0,0,1,94.851-1.34,5.774,5.774,0,0,1,93.365-5.5v-.366a6.991,6.991,0,0,1,.662-3.1A5.165,5.165,0,0,1,95.879-11.1a4.656,4.656,0,0,1,2.579-.77,4.363,4.363,0,0,1,3.532,1.5,6.48,6.48,0,0,1,1.26,4.285v.829H95.357a4.141,4.141,0,0,0,1.007,2.783A3.164,3.164,0,0,0,98.813-1.41a3.469,3.469,0,0,0,1.787-.431,4.491,4.491,0,0,0,1.281-1.141l1.217.947A4.892,4.892,0,0,1,98.706.215Zm-.248-10.444a2.657,2.657,0,0,0-2.024.878,4.265,4.265,0,0,0-1.012,2.46h5.836v-.151a3.794,3.794,0,0,0-.818-2.353A2.5,2.5,0,0,0,98.458-10.229Zm16.4,7.526,2.886-8.947h2.035L115.6,0h-1.518L109.86-11.65H111.9Zm11.4,2.918A5.09,5.09,0,0,1,122.4-1.34,5.774,5.774,0,0,1,120.915-5.5v-.366a6.991,6.991,0,0,1,.662-3.1,5.165,5.165,0,0,1,1.852-2.132,4.656,4.656,0,0,1,2.579-.77,4.363,4.363,0,0,1,3.532,1.5,6.48,6.48,0,0,1,1.26,4.285v.829h-7.892a4.141,4.141,0,0,0,1.007,2.783,3.164,3.164,0,0,0,2.449,1.061,3.469,3.469,0,0,0,1.787-.431,4.491,4.491,0,0,0,1.281-1.141l1.217.947A4.892,4.892,0,0,1,126.255.215Zm-.248-10.444a2.657,2.657,0,0,0-2.024.878,4.265,4.265,0,0,0-1.012,2.46h5.836v-.151a3.794,3.794,0,0,0-.818-2.353A2.5,2.5,0,0,0,126.007-10.229Zm8.98-1.421.065,1.464a4.245,4.245,0,0,1,3.488-1.68q3.693,0,3.725,4.167V0h-1.992V-7.709a2.682,2.682,0,0,0-.576-1.863,2.308,2.308,0,0,0-1.76-.6,2.875,2.875,0,0,0-1.7.517A3.51,3.51,0,0,0,135.095-8.3V0H133.1V-11.65Zm12.985-2.821v2.821h2.175v1.54h-2.175v7.234a1.617,1.617,0,0,0,.291,1.051,1.223,1.223,0,0,0,.991.35A4.822,4.822,0,0,0,150.2-1.6V0a5.809,5.809,0,0,1-1.529.214,2.481,2.481,0,0,1-2.013-.808,3.469,3.469,0,0,1-.678-2.293V-10.11h-2.121v-1.54h2.121v-2.821ZM154.637,0h-1.992V-11.65h1.992Zm-2.153-14.74a1.189,1.189,0,0,1,.3-.818,1.112,1.112,0,0,1,.878-.334,1.129,1.129,0,0,1,.883.334,1.176,1.176,0,0,1,.3.818,1.138,1.138,0,0,1-.3.808,1.149,1.149,0,0,1-.883.323,1.132,1.132,0,0,1-.878-.323A1.15,1.15,0,0,1,152.483-14.74ZM159.988,0H158V-16.538h1.992Zm10.379,0a4.184,4.184,0,0,1-.28-1.227A4.444,4.444,0,0,1,166.771.215a4.112,4.112,0,0,1-2.826-.974,3.153,3.153,0,0,1-1.1-2.471,3.293,3.293,0,0,1,1.384-2.826,6.523,6.523,0,0,1,3.892-1.007h1.938v-.915a2.237,2.237,0,0,0-.624-1.663,2.51,2.51,0,0,0-1.841-.619,2.9,2.9,0,0,0-1.787.538,1.586,1.586,0,0,0-.721,1.3h-2A2.749,2.749,0,0,1,163.7-10.1a4.225,4.225,0,0,1,1.68-1.287,5.651,5.651,0,0,1,2.331-.474,4.606,4.606,0,0,1,3.155,1.007,3.632,3.632,0,0,1,1.184,2.772v5.362a6.556,6.556,0,0,0,.409,2.552V0Zm-3.305-1.518A3.5,3.5,0,0,0,168.838-2a2.931,2.931,0,0,0,1.217-1.26v-2.39h-1.561q-3.661,0-3.661,2.143a1.813,1.813,0,0,0,.624,1.464A2.4,2.4,0,0,0,167.062-1.518Zm12.78.108a2.869,2.869,0,0,0,1.863-.646,2.273,2.273,0,0,0,.883-1.615h1.884a3.612,3.612,0,0,1-.689,1.906,4.538,4.538,0,0,1-1.7,1.443,4.893,4.893,0,0,1-2.245.538,4.8,4.8,0,0,1-3.785-1.588,6.325,6.325,0,0,1-1.405-4.344v-.334a7.014,7.014,0,0,1,.624-3.025,4.756,4.756,0,0,1,1.793-2.056,5.093,5.093,0,0,1,2.762-.732,4.672,4.672,0,0,1,3.257,1.174,4.194,4.194,0,0,1,1.384,3.047h-1.884a2.745,2.745,0,0,0-.856-1.857,2.663,2.663,0,0,0-1.9-.727,2.788,2.788,0,0,0-2.353,1.093,5.132,5.132,0,0,0-.834,3.16V-5.6a5.03,5.03,0,0,0,.829,3.1A2.8,2.8,0,0,0,179.842-1.41ZM188.875,0h-1.992V-11.65h1.992Zm-2.153-14.74a1.189,1.189,0,0,1,.3-.818,1.112,1.112,0,0,1,.878-.334,1.129,1.129,0,0,1,.883.334,1.176,1.176,0,0,1,.3.818,1.138,1.138,0,0,1-.3.808,1.149,1.149,0,0,1-.883.323,1.132,1.132,0,0,1-.878-.323A1.15,1.15,0,0,1,186.722-14.74Zm4.813,8.807a6.881,6.881,0,0,1,.673-3.079,5.02,5.02,0,0,1,1.873-2.11,5.1,5.1,0,0,1,2.74-.743,4.913,4.913,0,0,1,3.849,1.647,6.338,6.338,0,0,1,1.47,4.382v.14a6.941,6.941,0,0,1-.651,3.052,4.946,4.946,0,0,1-1.863,2.1,5.158,5.158,0,0,1-2.783.754A4.9,4.9,0,0,1,193-1.432a6.306,6.306,0,0,1-1.47-4.361Zm2,.237a4.984,4.984,0,0,0,.9,3.112,2.877,2.877,0,0,0,2.406,1.174,2.86,2.86,0,0,0,2.412-1.19,5.45,5.45,0,0,0,.894-3.332,4.975,4.975,0,0,0-.91-3.106,2.892,2.892,0,0,0-2.417-1.19,2.86,2.86,0,0,0-2.379,1.174A5.409,5.409,0,0,0,193.537-5.7Zm4.188-10.842h2.412l-2.886,3.165-1.6-.005Zm8.8,4.888.065,1.464a4.245,4.245,0,0,1,3.488-1.68q3.693,0,3.725,4.167V0h-1.992V-7.709a2.682,2.682,0,0,0-.576-1.863,2.308,2.308,0,0,0-1.76-.6,2.875,2.875,0,0,0-1.7.517A3.51,3.51,0,0,0,206.63-8.3V0h-1.992V-11.65Z" transform="translate(514.638 3531.864)"/>
    <rect id="Rectángulo_345067" data-name="Rectángulo 345067" width="942.452" height="642.647" transform="translate(328.774 3513)" fill="none"/>
    <path id="Trazado_733139" data-name="Trazado 733139" d="M10.465-6.923H3.887V0H1.82V-15.677h9.712v1.69H3.887v5.373h6.579ZM20.169,0a4.184,4.184,0,0,1-.28-1.227A4.444,4.444,0,0,1,16.573.215a4.112,4.112,0,0,1-2.826-.974,3.153,3.153,0,0,1-1.1-2.471,3.293,3.293,0,0,1,1.384-2.826,6.523,6.523,0,0,1,3.892-1.007h1.938v-.915a2.237,2.237,0,0,0-.624-1.663,2.51,2.51,0,0,0-1.841-.619,2.9,2.9,0,0,0-1.787.538,1.586,1.586,0,0,0-.721,1.3h-2A2.749,2.749,0,0,1,13.5-10.1a4.225,4.225,0,0,1,1.68-1.287,5.651,5.651,0,0,1,2.331-.474,4.605,4.605,0,0,1,3.155,1.007,3.632,3.632,0,0,1,1.184,2.772v5.362a6.555,6.555,0,0,0,.409,2.552V0ZM16.863-1.518A3.5,3.5,0,0,0,18.64-2a2.931,2.931,0,0,0,1.217-1.26v-2.39H18.3q-3.661,0-3.661,2.143a1.813,1.813,0,0,0,.624,1.464A2.4,2.4,0,0,0,16.863-1.518ZM28.5-2.7l2.886-8.947h2.035L29.242,0H27.724L23.5-11.65h2.035Zm5.994-3.23a6.881,6.881,0,0,1,.673-3.079,5.02,5.02,0,0,1,1.873-2.11,5.1,5.1,0,0,1,2.74-.743,4.913,4.913,0,0,1,3.849,1.647A6.338,6.338,0,0,1,45.1-5.836v.14a6.941,6.941,0,0,1-.651,3.052,4.946,4.946,0,0,1-1.863,2.1A5.158,5.158,0,0,1,39.8.215a4.9,4.9,0,0,1-3.838-1.647,6.306,6.306,0,0,1-1.47-4.361Zm2,.237a4.984,4.984,0,0,0,.9,3.112A2.877,2.877,0,0,0,39.8-1.41,2.86,2.86,0,0,0,42.212-2.6a5.45,5.45,0,0,0,.894-3.332,4.975,4.975,0,0,0-.91-3.106,2.892,2.892,0,0,0-2.417-1.19A2.86,2.86,0,0,0,37.4-9.055,5.409,5.409,0,0,0,36.5-5.7ZM53.227-9.862a5.969,5.969,0,0,0-.98-.075,2.625,2.625,0,0,0-2.659,1.669V0H47.6V-11.65h1.938l.032,1.346a3.1,3.1,0,0,1,2.778-1.561,2.035,2.035,0,0,1,.883.151ZM59.488.215A5.09,5.09,0,0,1,55.634-1.34,5.774,5.774,0,0,1,54.148-5.5v-.366a6.991,6.991,0,0,1,.662-3.1A5.165,5.165,0,0,1,56.662-11.1a4.656,4.656,0,0,1,2.579-.77,4.363,4.363,0,0,1,3.532,1.5,6.48,6.48,0,0,1,1.26,4.285v.829H56.14a4.141,4.141,0,0,0,1.007,2.783A3.164,3.164,0,0,0,59.6-1.41a3.469,3.469,0,0,0,1.787-.431,4.491,4.491,0,0,0,1.281-1.141l1.217.947A4.892,4.892,0,0,1,59.488.215Zm-.248-10.444a2.657,2.657,0,0,0-2.024.878A4.265,4.265,0,0,0,56.2-6.891H62.04v-.151a3.794,3.794,0,0,0-.818-2.353A2.5,2.5,0,0,0,59.241-10.229ZM71.009-1.41a2.869,2.869,0,0,0,1.863-.646,2.273,2.273,0,0,0,.883-1.615h1.884a3.612,3.612,0,0,1-.689,1.906,4.538,4.538,0,0,1-1.7,1.443,4.893,4.893,0,0,1-2.245.538,4.8,4.8,0,0,1-3.785-1.588,6.325,6.325,0,0,1-1.405-4.344v-.334a7.014,7.014,0,0,1,.624-3.025,4.756,4.756,0,0,1,1.793-2.056A5.092,5.092,0,0,1,71-11.865a4.672,4.672,0,0,1,3.257,1.174,4.194,4.194,0,0,1,1.384,3.047H73.755A2.745,2.745,0,0,0,72.9-9.5a2.663,2.663,0,0,0-1.9-.727,2.788,2.788,0,0,0-2.353,1.093,5.132,5.132,0,0,0-.834,3.16V-5.6a5.03,5.03,0,0,0,.829,3.1A2.8,2.8,0,0,0,71.009-1.41ZM82.713.215A5.09,5.09,0,0,1,78.858-1.34,5.774,5.774,0,0,1,77.372-5.5v-.366a6.991,6.991,0,0,1,.662-3.1A5.165,5.165,0,0,1,79.886-11.1a4.656,4.656,0,0,1,2.579-.77A4.363,4.363,0,0,1,86-10.369a6.48,6.48,0,0,1,1.26,4.285v.829H79.364a4.141,4.141,0,0,0,1.007,2.783A3.164,3.164,0,0,0,82.82-1.41a3.469,3.469,0,0,0,1.787-.431,4.491,4.491,0,0,0,1.281-1.141l1.217.947A4.892,4.892,0,0,1,82.713.215Zm-.248-10.444a2.657,2.657,0,0,0-2.024.878,4.265,4.265,0,0,0-1.012,2.46h5.836v-.151a3.794,3.794,0,0,0-.818-2.353A2.5,2.5,0,0,0,82.465-10.229Zm12.027,4.3a6.881,6.881,0,0,1,.673-3.079,5.02,5.02,0,0,1,1.873-2.11,5.1,5.1,0,0,1,2.74-.743,4.913,4.913,0,0,1,3.849,1.647,6.338,6.338,0,0,1,1.47,4.382v.14a6.941,6.941,0,0,1-.651,3.052,4.946,4.946,0,0,1-1.863,2.1A5.158,5.158,0,0,1,99.8.215a4.9,4.9,0,0,1-3.838-1.647,6.306,6.306,0,0,1-1.47-4.361Zm2,.237a4.984,4.984,0,0,0,.9,3.112A2.877,2.877,0,0,0,99.8-1.41a2.86,2.86,0,0,0,2.412-1.19,5.45,5.45,0,0,0,.894-3.332,4.975,4.975,0,0,0-.91-3.106,2.892,2.892,0,0,0-2.417-1.19A2.86,2.86,0,0,0,97.4-9.055,5.41,5.41,0,0,0,96.494-5.7Zm14.562-1.7,2.584-4.253h2.326l-3.811,5.76L116.085,0h-2.3l-2.692-4.361L108.4,0h-2.315l3.93-5.889L106.2-11.65h2.3ZM120.241,0h-1.992V-11.65h1.992Zm-2.153-14.74a1.189,1.189,0,0,1,.3-.818,1.112,1.112,0,0,1,.878-.334,1.129,1.129,0,0,1,.883.334,1.176,1.176,0,0,1,.3.818,1.138,1.138,0,0,1-.3.808,1.149,1.149,0,0,1-.883.323,1.132,1.132,0,0,1-.878-.323A1.15,1.15,0,0,1,118.088-14.74Zm4.867,8.818a6.847,6.847,0,0,1,1.26-4.334,4.029,4.029,0,0,1,3.338-1.61,4.007,4.007,0,0,1,3.327,1.507l.1-1.292h1.82V-.28a4.739,4.739,0,0,1-1.34,3.564,4.947,4.947,0,0,1-3.6,1.3,5.992,5.992,0,0,1-2.466-.538,4.244,4.244,0,0,1-1.841-1.475l1.034-1.2a3.9,3.9,0,0,0,3.133,1.583,3.052,3.052,0,0,0,2.266-.818,3.128,3.128,0,0,0,.813-2.3v-1A4.094,4.094,0,0,1,127.53.215a3.979,3.979,0,0,1-3.311-1.647A7.2,7.2,0,0,1,122.954-5.922Zm2,.226a5.223,5.223,0,0,0,.808,3.1,2.624,2.624,0,0,0,2.261,1.125,2.918,2.918,0,0,0,2.767-1.712V-8.506a2.952,2.952,0,0,0-2.746-1.669,2.647,2.647,0,0,0-2.272,1.131A5.689,5.689,0,0,0,124.957-5.7ZM140.633.215a5.09,5.09,0,0,1-3.855-1.556A5.774,5.774,0,0,1,135.293-5.5v-.366a6.991,6.991,0,0,1,.662-3.1,5.165,5.165,0,0,1,1.852-2.132,4.656,4.656,0,0,1,2.579-.77,4.363,4.363,0,0,1,3.532,1.5,6.48,6.48,0,0,1,1.26,4.285v.829h-7.892a4.141,4.141,0,0,0,1.007,2.783,3.164,3.164,0,0,0,2.449,1.061,3.469,3.469,0,0,0,1.787-.431,4.491,4.491,0,0,0,1.281-1.141l1.217.947A4.892,4.892,0,0,1,140.633.215Zm-.248-10.444a2.657,2.657,0,0,0-2.024.878,4.265,4.265,0,0,0-1.012,2.46h5.836v-.151a3.794,3.794,0,0,0-.818-2.353A2.5,2.5,0,0,0,140.386-10.229Zm8.98-1.421.065,1.464a4.245,4.245,0,0,1,3.488-1.68q3.693,0,3.725,4.167V0h-1.992V-7.709a2.682,2.682,0,0,0-.576-1.863,2.308,2.308,0,0,0-1.76-.6,2.875,2.875,0,0,0-1.7.517A3.51,3.51,0,0,0,149.473-8.3V0h-1.992V-11.65ZM166.84,0a4.184,4.184,0,0,1-.28-1.227A4.444,4.444,0,0,1,163.244.215a4.112,4.112,0,0,1-2.826-.974,3.153,3.153,0,0,1-1.1-2.471A3.293,3.293,0,0,1,160.7-6.056a6.523,6.523,0,0,1,3.892-1.007h1.938v-.915a2.237,2.237,0,0,0-.624-1.663,2.51,2.51,0,0,0-1.841-.619,2.9,2.9,0,0,0-1.787.538,1.586,1.586,0,0,0-.721,1.3h-2a2.749,2.749,0,0,1,.619-1.685,4.225,4.225,0,0,1,1.68-1.287,5.651,5.651,0,0,1,2.331-.474,4.606,4.606,0,0,1,3.155,1.007,3.632,3.632,0,0,1,1.184,2.772v5.362a6.556,6.556,0,0,0,.409,2.552V0Zm-3.305-1.518A3.5,3.5,0,0,0,165.311-2a2.931,2.931,0,0,0,1.217-1.26v-2.39h-1.561q-3.661,0-3.661,2.143a1.813,1.813,0,0,0,.624,1.464A2.4,2.4,0,0,0,163.535-1.518Zm12.78.108a2.869,2.869,0,0,0,1.863-.646,2.273,2.273,0,0,0,.883-1.615h1.884a3.612,3.612,0,0,1-.689,1.906,4.539,4.539,0,0,1-1.7,1.443,4.893,4.893,0,0,1-2.245.538,4.8,4.8,0,0,1-3.785-1.588,6.325,6.325,0,0,1-1.405-4.344v-.334a7.014,7.014,0,0,1,.624-3.025,4.756,4.756,0,0,1,1.793-2.056,5.093,5.093,0,0,1,2.762-.732,4.672,4.672,0,0,1,3.257,1.174,4.194,4.194,0,0,1,1.384,3.047H179.06A2.745,2.745,0,0,0,178.2-9.5a2.663,2.663,0,0,0-1.9-.727,2.788,2.788,0,0,0-2.353,1.093,5.132,5.132,0,0,0-.834,3.16V-5.6a5.03,5.03,0,0,0,.829,3.1A2.8,2.8,0,0,0,176.315-1.41ZM185.348,0h-1.992V-11.65h1.992Zm-2.153-14.74a1.189,1.189,0,0,1,.3-.818,1.112,1.112,0,0,1,.878-.334,1.129,1.129,0,0,1,.883.334,1.176,1.176,0,0,1,.3.818,1.138,1.138,0,0,1-.3.808,1.149,1.149,0,0,1-.883.323,1.132,1.132,0,0,1-.878-.323A1.15,1.15,0,0,1,183.195-14.74Zm4.813,8.807a6.881,6.881,0,0,1,.673-3.079,5.02,5.02,0,0,1,1.873-2.11,5.1,5.1,0,0,1,2.74-.743,4.913,4.913,0,0,1,3.849,1.647,6.338,6.338,0,0,1,1.47,4.382v.14a6.941,6.941,0,0,1-.651,3.052,4.946,4.946,0,0,1-1.863,2.1,5.158,5.158,0,0,1-2.783.754,4.9,4.9,0,0,1-3.838-1.647,6.306,6.306,0,0,1-1.47-4.361Zm2,.237a4.984,4.984,0,0,0,.9,3.112,2.877,2.877,0,0,0,2.406,1.174,2.86,2.86,0,0,0,2.412-1.19,5.45,5.45,0,0,0,.894-3.332,4.975,4.975,0,0,0-.91-3.106,2.892,2.892,0,0,0-2.417-1.19,2.86,2.86,0,0,0-2.379,1.174A5.409,5.409,0,0,0,190.01-5.7ZM194.2-16.538h2.412l-2.886,3.165-1.6-.005ZM203-11.65l.065,1.464a4.245,4.245,0,0,1,3.488-1.68q3.693,0,3.725,4.167V0h-1.992V-7.709a2.682,2.682,0,0,0-.576-1.863,2.308,2.308,0,0,0-1.76-.6,2.875,2.875,0,0,0-1.7.517A3.51,3.51,0,0,0,203.1-8.3V0h-1.992V-11.65Zm15.257,5.728a6.825,6.825,0,0,1,1.27-4.312,4.018,4.018,0,0,1,3.327-1.631,4.04,4.04,0,0,1,3.241,1.4v-6.073h1.992V0h-1.83l-.1-1.249A4.056,4.056,0,0,1,222.828.215a3.979,3.979,0,0,1-3.3-1.658,6.9,6.9,0,0,1-1.276-4.328Zm1.992.226a5.167,5.167,0,0,0,.818,3.1,2.645,2.645,0,0,0,2.261,1.12,2.906,2.906,0,0,0,2.767-1.7V-8.527a2.928,2.928,0,0,0-2.746-1.647,2.658,2.658,0,0,0-2.283,1.131A5.689,5.689,0,0,0,220.244-5.7ZM236.007.215a5.09,5.09,0,0,1-3.855-1.556A5.774,5.774,0,0,1,230.666-5.5v-.366a6.991,6.991,0,0,1,.662-3.1A5.165,5.165,0,0,1,233.18-11.1a4.656,4.656,0,0,1,2.579-.77,4.363,4.363,0,0,1,3.532,1.5,6.48,6.48,0,0,1,1.26,4.285v.829h-7.892a4.141,4.141,0,0,0,1.007,2.783,3.164,3.164,0,0,0,2.449,1.061,3.469,3.469,0,0,0,1.787-.431,4.491,4.491,0,0,0,1.281-1.141l1.217.947A4.892,4.892,0,0,1,236.007.215Zm-.248-10.444a2.657,2.657,0,0,0-2.024.878,4.265,4.265,0,0,0-1.012,2.46h5.836v-.151a3.794,3.794,0,0,0-.818-2.353A2.5,2.5,0,0,0,235.759-10.229ZM245.018,0h-1.992V-16.538h1.992Zm18.487-5.7a6.976,6.976,0,0,1-1.217,4.285A3.9,3.9,0,0,1,258.994.215a4.272,4.272,0,0,1-3.338-1.346v5.61h-1.992V-11.65h1.82l.1,1.292a4.1,4.1,0,0,1,3.381-1.507,3.972,3.972,0,0,1,3.322,1.583,7.052,7.052,0,0,1,1.222,4.4Zm-1.992-.226a5.147,5.147,0,0,0-.84-3.112,2.705,2.705,0,0,0-2.3-1.141,2.928,2.928,0,0,0-2.713,1.6V-3a2.934,2.934,0,0,0,2.735,1.594,2.693,2.693,0,0,0,2.277-1.136A5.619,5.619,0,0,0,261.513-5.922Zm3.995-.011a6.881,6.881,0,0,1,.673-3.079,5.02,5.02,0,0,1,1.873-2.11,5.1,5.1,0,0,1,2.74-.743,4.913,4.913,0,0,1,3.849,1.647,6.338,6.338,0,0,1,1.47,4.382v.14a6.941,6.941,0,0,1-.651,3.052,4.946,4.946,0,0,1-1.863,2.1,5.158,5.158,0,0,1-2.783.754,4.9,4.9,0,0,1-3.838-1.647,6.306,6.306,0,0,1-1.47-4.361Zm2,.237a4.984,4.984,0,0,0,.9,3.112,2.877,2.877,0,0,0,2.406,1.174,2.86,2.86,0,0,0,2.412-1.19,5.45,5.45,0,0,0,.894-3.332,4.975,4.975,0,0,0-.91-3.106,2.892,2.892,0,0,0-2.417-1.19,2.86,2.86,0,0,0-2.379,1.174A5.41,5.41,0,0,0,267.51-5.7ZM280.775,0h-1.992V-16.538h1.992Zm5.351,0h-1.992V-16.538h1.992Zm5.351,0h-1.992V-11.65h1.992Zm-2.153-14.74a1.189,1.189,0,0,1,.3-.818,1.112,1.112,0,0,1,.878-.334,1.129,1.129,0,0,1,.883.334,1.177,1.177,0,0,1,.3.818,1.138,1.138,0,0,1-.3.808,1.149,1.149,0,0,1-.883.323,1.132,1.132,0,0,1-.878-.323A1.15,1.15,0,0,1,289.324-14.74Zm8.043.269v2.821h2.175v1.54h-2.175v7.234a1.617,1.617,0,0,0,.291,1.051,1.224,1.224,0,0,0,.991.35A4.822,4.822,0,0,0,299.6-1.6V0a5.809,5.809,0,0,1-1.529.214,2.481,2.481,0,0,1-2.013-.808,3.469,3.469,0,0,1-.678-2.293V-10.11h-2.121v-1.54h2.121v-2.821Zm3.559,8.538a6.881,6.881,0,0,1,.673-3.079,5.02,5.02,0,0,1,1.873-2.11,5.1,5.1,0,0,1,2.74-.743,4.913,4.913,0,0,1,3.849,1.647,6.338,6.338,0,0,1,1.47,4.382v.14a6.941,6.941,0,0,1-.651,3.052,4.946,4.946,0,0,1-1.863,2.1,5.158,5.158,0,0,1-2.783.754A4.9,4.9,0,0,1,302.4-1.432a6.306,6.306,0,0,1-1.47-4.361Zm2,.237a4.984,4.984,0,0,0,.9,3.112,2.877,2.877,0,0,0,2.406,1.174,2.86,2.86,0,0,0,2.412-1.19,5.45,5.45,0,0,0,.894-3.332,4.975,4.975,0,0,0-.91-3.106,2.892,2.892,0,0,0-2.417-1.19,2.86,2.86,0,0,0-2.379,1.174A5.41,5.41,0,0,0,302.929-5.7Zm11.025-.668a16.646,16.646,0,0,1,.651-4.673,13.574,13.574,0,0,1,1.943-4.07,8.268,8.268,0,0,1,2.681-2.584l.409,1.314a8.575,8.575,0,0,0-2.579,3.682,15.964,15.964,0,0,0-1.1,5.545l-.011.915A16.046,16.046,0,0,0,317.464.98a8.616,8.616,0,0,0,2.175,2.864L319.23,5.06A8.533,8.533,0,0,1,316.5,2.39,14.966,14.966,0,0,1,313.954-6.363ZM328.759,0a4.184,4.184,0,0,1-.28-1.227A4.444,4.444,0,0,1,325.163.215a4.112,4.112,0,0,1-2.826-.974,3.153,3.153,0,0,1-1.1-2.471,3.293,3.293,0,0,1,1.384-2.826,6.523,6.523,0,0,1,3.892-1.007h1.938v-.915a2.237,2.237,0,0,0-.624-1.663,2.51,2.51,0,0,0-1.841-.619,2.9,2.9,0,0,0-1.787.538,1.586,1.586,0,0,0-.721,1.3h-2a2.749,2.749,0,0,1,.619-1.685,4.225,4.225,0,0,1,1.68-1.287,5.651,5.651,0,0,1,2.331-.474,4.605,4.605,0,0,1,3.155,1.007,3.632,3.632,0,0,1,1.184,2.772v5.362a6.555,6.555,0,0,0,.409,2.552V0Zm-3.305-1.518A3.5,3.5,0,0,0,327.23-2a2.931,2.931,0,0,0,1.217-1.26v-2.39h-1.561q-3.661,0-3.661,2.143a1.813,1.813,0,0,0,.624,1.464A2.4,2.4,0,0,0,325.453-1.518Zm12.7-4.737a16.655,16.655,0,0,1-.63,4.6A13.611,13.611,0,0,1,335.6,2.412a8.444,8.444,0,0,1-2.719,2.649l-.42-1.217A8.656,8.656,0,0,0,335.127-.1a17.071,17.071,0,0,0,1.028-5.938v-.345a17.725,17.725,0,0,0-.474-4.2,14.191,14.191,0,0,0-1.319-3.483,8.045,8.045,0,0,0-1.9-2.4l.42-1.217a8.411,8.411,0,0,1,2.708,2.627A13.64,13.64,0,0,1,337.518-11,17.039,17.039,0,0,1,338.158-6.256Z" transform="translate(453.638 3758.864)"/>
    <path id="Trazado_733144" data-name="Trazado 733144" d="M3.9-1.69h7.429V0H1.82V-15.677H3.9ZM20.565,0a4.184,4.184,0,0,1-.28-1.227A4.444,4.444,0,0,1,16.969.215a4.112,4.112,0,0,1-2.826-.974,3.153,3.153,0,0,1-1.1-2.471,3.293,3.293,0,0,1,1.384-2.826,6.523,6.523,0,0,1,3.892-1.007h1.938v-.915a2.237,2.237,0,0,0-.624-1.663,2.51,2.51,0,0,0-1.841-.619A2.9,2.9,0,0,0,16-9.723a1.586,1.586,0,0,0-.721,1.3h-2a2.749,2.749,0,0,1,.619-1.685,4.225,4.225,0,0,1,1.68-1.287,5.651,5.651,0,0,1,2.331-.474,4.605,4.605,0,0,1,3.155,1.007,3.632,3.632,0,0,1,1.184,2.772v5.362a6.555,6.555,0,0,0,.409,2.552V0ZM17.259-1.518A3.5,3.5,0,0,0,19.036-2a2.931,2.931,0,0,0,1.217-1.26v-2.39H18.691q-3.661,0-3.661,2.143a1.813,1.813,0,0,0,.624,1.464A2.4,2.4,0,0,0,17.259-1.518ZM32.15-3.09a1.466,1.466,0,0,0-.608-1.254,5.855,5.855,0,0,0-2.121-.77,10.028,10.028,0,0,1-2.4-.775,3.416,3.416,0,0,1-1.314-1.077,2.575,2.575,0,0,1-.425-1.486,3.022,3.022,0,0,1,1.211-2.423,4.73,4.73,0,0,1,3.1-.991A4.868,4.868,0,0,1,32.8-10.842a3.249,3.249,0,0,1,1.233,2.616h-2a1.8,1.8,0,0,0-.694-1.41,2.6,2.6,0,0,0-1.75-.592,2.723,2.723,0,0,0-1.7.474,1.491,1.491,0,0,0-.614,1.238,1.208,1.208,0,0,0,.571,1.087,7.021,7.021,0,0,0,2.062.7,10.743,10.743,0,0,1,2.417.8,3.526,3.526,0,0,1,1.373,1.114,2.74,2.74,0,0,1,.447,1.588,2.981,2.981,0,0,1-1.249,2.5,5.239,5.239,0,0,1-3.241.942,5.866,5.866,0,0,1-2.476-.5,4.028,4.028,0,0,1-1.685-1.384,3.335,3.335,0,0,1-.608-1.922h1.992A2.062,2.062,0,0,0,27.676-2a3.112,3.112,0,0,0,1.976.587,3.212,3.212,0,0,0,1.814-.458A1.406,1.406,0,0,0,32.15-3.09ZM46.868-1.41a2.869,2.869,0,0,0,1.863-.646,2.273,2.273,0,0,0,.883-1.615H51.5a3.612,3.612,0,0,1-.689,1.906,4.538,4.538,0,0,1-1.7,1.443,4.893,4.893,0,0,1-2.245.538,4.8,4.8,0,0,1-3.785-1.588,6.325,6.325,0,0,1-1.405-4.344v-.334A7.014,7.014,0,0,1,42.3-9.076,4.756,4.756,0,0,1,44.1-11.133a5.092,5.092,0,0,1,2.762-.732,4.672,4.672,0,0,1,3.257,1.174A4.194,4.194,0,0,1,51.5-7.644H49.614A2.745,2.745,0,0,0,48.758-9.5a2.663,2.663,0,0,0-1.9-.727A2.788,2.788,0,0,0,44.5-9.136a5.132,5.132,0,0,0-.834,3.16V-5.6A5.03,5.03,0,0,0,44.5-2.5,2.8,2.8,0,0,0,46.868-1.41ZM53.21-5.933a6.881,6.881,0,0,1,.673-3.079,5.02,5.02,0,0,1,1.873-2.11,5.1,5.1,0,0,1,2.74-.743,4.913,4.913,0,0,1,3.849,1.647,6.338,6.338,0,0,1,1.47,4.382v.14a6.941,6.941,0,0,1-.651,3.052A4.946,4.946,0,0,1,61.3-.538a5.158,5.158,0,0,1-2.783.754A4.9,4.9,0,0,1,54.68-1.432a6.306,6.306,0,0,1-1.47-4.361Zm2,.237a4.984,4.984,0,0,0,.9,3.112A2.877,2.877,0,0,0,58.518-1.41,2.86,2.86,0,0,0,60.93-2.6a5.45,5.45,0,0,0,.894-3.332,4.975,4.975,0,0,0-.91-3.106,2.892,2.892,0,0,0-2.417-1.19,2.86,2.86,0,0,0-2.379,1.174A5.409,5.409,0,0,0,55.213-5.7ZM71.944-9.862a5.969,5.969,0,0,0-.98-.075,2.625,2.625,0,0,0-2.659,1.669V0H66.313V-11.65h1.938l.032,1.346a3.1,3.1,0,0,1,2.778-1.561,2.035,2.035,0,0,1,.883.151Zm5.6-4.608v2.821H79.72v1.54H77.545v7.234a1.617,1.617,0,0,0,.291,1.051,1.223,1.223,0,0,0,.991.35,4.823,4.823,0,0,0,.947-.129V0a5.809,5.809,0,0,1-1.529.214,2.481,2.481,0,0,1-2.013-.808,3.469,3.469,0,0,1-.678-2.293V-10.11H73.432v-1.54h2.121v-2.821ZM84.21,0H82.218V-11.65H84.21ZM82.056-14.74a1.189,1.189,0,0,1,.3-.818,1.112,1.112,0,0,1,.878-.334,1.129,1.129,0,0,1,.883.334,1.176,1.176,0,0,1,.3.818,1.138,1.138,0,0,1-.3.808,1.149,1.149,0,0,1-.883.323,1.132,1.132,0,0,1-.878-.323A1.15,1.15,0,0,1,82.056-14.74Zm7.225,3.09.065,1.464a4.245,4.245,0,0,1,3.488-1.68q3.693,0,3.725,4.167V0H94.567V-7.709a2.682,2.682,0,0,0-.576-1.863,2.308,2.308,0,0,0-1.76-.6,2.875,2.875,0,0,0-1.7.517A3.51,3.51,0,0,0,89.388-8.3V0H87.4V-11.65ZM106.755,0a4.184,4.184,0,0,1-.28-1.227A4.444,4.444,0,0,1,103.159.215a4.112,4.112,0,0,1-2.826-.974,3.153,3.153,0,0,1-1.1-2.471,3.293,3.293,0,0,1,1.384-2.826,6.523,6.523,0,0,1,3.892-1.007h1.938v-.915a2.237,2.237,0,0,0-.624-1.663,2.51,2.51,0,0,0-1.841-.619,2.9,2.9,0,0,0-1.787.538,1.586,1.586,0,0,0-.721,1.3h-2a2.749,2.749,0,0,1,.619-1.685,4.225,4.225,0,0,1,1.68-1.287,5.651,5.651,0,0,1,2.331-.474,4.606,4.606,0,0,1,3.155,1.007,3.632,3.632,0,0,1,1.184,2.772v5.362a6.556,6.556,0,0,0,.409,2.552V0ZM103.45-1.518A3.5,3.5,0,0,0,105.227-2a2.931,2.931,0,0,0,1.217-1.26v-2.39h-1.561q-3.661,0-3.661,2.143a1.813,1.813,0,0,0,.624,1.464A2.4,2.4,0,0,0,103.45-1.518ZM118.341-3.09a1.466,1.466,0,0,0-.608-1.254,5.855,5.855,0,0,0-2.121-.77,10.028,10.028,0,0,1-2.4-.775A3.416,3.416,0,0,1,111.9-6.966a2.575,2.575,0,0,1-.425-1.486,3.022,3.022,0,0,1,1.211-2.423,4.73,4.73,0,0,1,3.1-.991,4.868,4.868,0,0,1,3.214,1.023,3.249,3.249,0,0,1,1.233,2.616h-2a1.8,1.8,0,0,0-.694-1.41,2.6,2.6,0,0,0-1.75-.592,2.723,2.723,0,0,0-1.7.474,1.491,1.491,0,0,0-.614,1.238,1.208,1.208,0,0,0,.571,1.087,7.021,7.021,0,0,0,2.062.7,10.743,10.743,0,0,1,2.417.8,3.526,3.526,0,0,1,1.373,1.114,2.74,2.74,0,0,1,.447,1.588,2.981,2.981,0,0,1-1.249,2.5,5.239,5.239,0,0,1-3.241.942,5.866,5.866,0,0,1-2.476-.5,4.028,4.028,0,0,1-1.685-1.384,3.335,3.335,0,0,1-.608-1.922h1.992a2.062,2.062,0,0,0,.8,1.588,3.112,3.112,0,0,0,1.976.587,3.212,3.212,0,0,0,1.814-.458A1.406,1.406,0,0,0,118.341-3.09Zm16.829,0a1.466,1.466,0,0,0-.608-1.254,5.856,5.856,0,0,0-2.121-.77,10.028,10.028,0,0,1-2.4-.775,3.416,3.416,0,0,1-1.314-1.077,2.576,2.576,0,0,1-.425-1.486,3.022,3.022,0,0,1,1.211-2.423,4.73,4.73,0,0,1,3.1-.991,4.868,4.868,0,0,1,3.214,1.023,3.249,3.249,0,0,1,1.233,2.616h-2a1.8,1.8,0,0,0-.694-1.41,2.6,2.6,0,0,0-1.75-.592,2.723,2.723,0,0,0-1.7.474,1.491,1.491,0,0,0-.614,1.238,1.208,1.208,0,0,0,.571,1.087,7.021,7.021,0,0,0,2.062.7,10.743,10.743,0,0,1,2.417.8,3.526,3.526,0,0,1,1.373,1.114,2.74,2.74,0,0,1,.447,1.588,2.981,2.981,0,0,1-1.249,2.5,5.239,5.239,0,0,1-3.241.942,5.866,5.866,0,0,1-2.476-.5,4.028,4.028,0,0,1-1.685-1.384,3.335,3.335,0,0,1-.608-1.922h1.992A2.062,2.062,0,0,0,130.7-2a3.112,3.112,0,0,0,1.976.587,3.212,3.212,0,0,0,1.814-.458A1.406,1.406,0,0,0,135.169-3.09ZM144.59.215a5.09,5.09,0,0,1-3.855-1.556A5.774,5.774,0,0,1,139.25-5.5v-.366a6.991,6.991,0,0,1,.662-3.1,5.165,5.165,0,0,1,1.852-2.132,4.656,4.656,0,0,1,2.579-.77,4.363,4.363,0,0,1,3.532,1.5,6.48,6.48,0,0,1,1.26,4.285v.829h-7.892a4.141,4.141,0,0,0,1.007,2.783A3.164,3.164,0,0,0,144.7-1.41a3.469,3.469,0,0,0,1.787-.431,4.491,4.491,0,0,0,1.281-1.141l1.217.947A4.892,4.892,0,0,1,144.59.215Zm-.248-10.444a2.657,2.657,0,0,0-2.024.878,4.265,4.265,0,0,0-1.012,2.46h5.836v-.151a3.794,3.794,0,0,0-.818-2.353A2.5,2.5,0,0,0,144.343-10.229Zm19.746,9.076A4.231,4.231,0,0,1,160.676.215a3.622,3.622,0,0,1-2.837-1.082,4.684,4.684,0,0,1-.985-3.2v-7.58h1.992v7.526q0,2.649,2.153,2.649a2.982,2.982,0,0,0,3.036-1.7V-11.65h1.992V0h-1.895Zm7.666-13.319v2.821h2.175v1.54h-2.175v7.234a1.617,1.617,0,0,0,.291,1.051,1.223,1.223,0,0,0,.991.35,4.822,4.822,0,0,0,.947-.129V0a5.809,5.809,0,0,1-1.529.214,2.481,2.481,0,0,1-2.013-.808,3.469,3.469,0,0,1-.678-2.293V-10.11h-2.121v-1.54h2.121v-2.821ZM178.42,0h-1.992V-11.65h1.992Zm-2.153-14.74a1.189,1.189,0,0,1,.3-.818,1.112,1.112,0,0,1,.878-.334,1.129,1.129,0,0,1,.883.334,1.176,1.176,0,0,1,.3.818,1.138,1.138,0,0,1-.3.808,1.149,1.149,0,0,1-.883.323,1.132,1.132,0,0,1-.878-.323A1.15,1.15,0,0,1,176.266-14.74ZM183.771,0h-1.992V-16.538h1.992Zm5.351,0H187.13V-11.65h1.992Zm-2.153-14.74a1.189,1.189,0,0,1,.3-.818,1.112,1.112,0,0,1,.878-.334,1.129,1.129,0,0,1,.883.334,1.176,1.176,0,0,1,.3.818,1.138,1.138,0,0,1-.3.808,1.149,1.149,0,0,1-.883.323,1.132,1.132,0,0,1-.878-.323A1.15,1.15,0,0,1,186.969-14.74Zm7.214,13.114H201V0h-9.249V-1.464L198.177-10h-6.331V-11.65h8.829v1.41ZM210.43,0a4.184,4.184,0,0,1-.28-1.227A4.444,4.444,0,0,1,206.834.215a4.112,4.112,0,0,1-2.826-.974,3.153,3.153,0,0,1-1.1-2.471,3.293,3.293,0,0,1,1.384-2.826,6.523,6.523,0,0,1,3.892-1.007h1.938v-.915a2.237,2.237,0,0,0-.624-1.663,2.51,2.51,0,0,0-1.841-.619,2.9,2.9,0,0,0-1.787.538,1.586,1.586,0,0,0-.721,1.3h-2a2.749,2.749,0,0,1,.619-1.685,4.225,4.225,0,0,1,1.68-1.287,5.651,5.651,0,0,1,2.331-.474,4.606,4.606,0,0,1,3.155,1.007,3.632,3.632,0,0,1,1.184,2.772v5.362a6.556,6.556,0,0,0,.409,2.552V0Zm-3.305-1.518A3.5,3.5,0,0,0,208.9-2a2.931,2.931,0,0,0,1.217-1.26v-2.39h-1.561q-3.661,0-3.661,2.143a1.813,1.813,0,0,0,.624,1.464A2.4,2.4,0,0,0,207.124-1.518Zm9.992-10.132.065,1.464a4.245,4.245,0,0,1,3.488-1.68q3.693,0,3.725,4.167V0H222.4V-7.709a2.682,2.682,0,0,0-.576-1.863,2.308,2.308,0,0,0-1.76-.6,2.875,2.875,0,0,0-1.7.517A3.51,3.51,0,0,0,217.224-8.3V0h-1.992V-11.65ZM237.53-1.41a2.869,2.869,0,0,0,1.863-.646,2.273,2.273,0,0,0,.883-1.615h1.884a3.612,3.612,0,0,1-.689,1.906,4.538,4.538,0,0,1-1.7,1.443,4.893,4.893,0,0,1-2.245.538,4.8,4.8,0,0,1-3.785-1.588,6.325,6.325,0,0,1-1.405-4.344v-.334a7.014,7.014,0,0,1,.624-3.025,4.756,4.756,0,0,1,1.793-2.056,5.093,5.093,0,0,1,2.762-.732,4.672,4.672,0,0,1,3.257,1.174,4.194,4.194,0,0,1,1.384,3.047h-1.884A2.745,2.745,0,0,0,239.42-9.5a2.663,2.663,0,0,0-1.9-.727,2.788,2.788,0,0,0-2.353,1.093,5.132,5.132,0,0,0-.834,3.16V-5.6a5.03,5.03,0,0,0,.829,3.1A2.8,2.8,0,0,0,237.53-1.41Zm6.342-4.522a6.881,6.881,0,0,1,.673-3.079,5.02,5.02,0,0,1,1.873-2.11,5.1,5.1,0,0,1,2.74-.743,4.913,4.913,0,0,1,3.849,1.647,6.338,6.338,0,0,1,1.47,4.382v.14a6.941,6.941,0,0,1-.651,3.052,4.946,4.946,0,0,1-1.863,2.1,5.158,5.158,0,0,1-2.783.754,4.9,4.9,0,0,1-3.838-1.647,6.306,6.306,0,0,1-1.47-4.361Zm2,.237a4.984,4.984,0,0,0,.9,3.112A2.877,2.877,0,0,0,249.18-1.41a2.86,2.86,0,0,0,2.412-1.19,5.45,5.45,0,0,0,.894-3.332,4.975,4.975,0,0,0-.91-3.106,2.892,2.892,0,0,0-2.417-1.19,2.86,2.86,0,0,0-2.379,1.174A5.409,5.409,0,0,0,245.874-5.7Zm12.974-5.954.054,1.292a4.3,4.3,0,0,1,3.456-1.507,3.331,3.331,0,0,1,3.327,1.873,4.413,4.413,0,0,1,1.513-1.357,4.468,4.468,0,0,1,2.2-.517q3.833,0,3.9,4.059V0h-1.992V-7.688a2.675,2.675,0,0,0-.571-1.868,2.513,2.513,0,0,0-1.917-.619,2.641,2.641,0,0,0-1.841.662,2.686,2.686,0,0,0-.851,1.782V0h-2V-7.634a2.222,2.222,0,0,0-2.487-2.541,2.665,2.665,0,0,0-2.681,1.669V0h-1.992V-11.65Zm16.926,5.717a6.881,6.881,0,0,1,.673-3.079,5.02,5.02,0,0,1,1.873-2.11,5.1,5.1,0,0,1,2.74-.743,4.913,4.913,0,0,1,3.849,1.647,6.338,6.338,0,0,1,1.47,4.382v.14a6.941,6.941,0,0,1-.651,3.052,4.946,4.946,0,0,1-1.863,2.1,5.158,5.158,0,0,1-2.783.754,4.9,4.9,0,0,1-3.838-1.647,6.306,6.306,0,0,1-1.47-4.361Zm2,.237a4.984,4.984,0,0,0,.9,3.112,2.877,2.877,0,0,0,2.406,1.174,2.86,2.86,0,0,0,2.412-1.19,5.45,5.45,0,0,0,.894-3.332,4.975,4.975,0,0,0-.91-3.106,2.892,2.892,0,0,0-2.417-1.19,2.86,2.86,0,0,0-2.379,1.174A5.41,5.41,0,0,0,277.777-5.7Z" transform="translate(977.208 3753.858)"/>
    <path id="Trazado_733145" data-name="Trazado 733145" d="M8.7,0a4.184,4.184,0,0,1-.28-1.227A4.444,4.444,0,0,1,5.1.215,4.112,4.112,0,0,1,2.277-.759a3.153,3.153,0,0,1-1.1-2.471A3.293,3.293,0,0,1,2.557-6.056,6.523,6.523,0,0,1,6.449-7.063H8.387v-.915a2.237,2.237,0,0,0-.624-1.663,2.51,2.51,0,0,0-1.841-.619,2.9,2.9,0,0,0-1.787.538,1.586,1.586,0,0,0-.721,1.3h-2A2.749,2.749,0,0,1,2.03-10.1a4.225,4.225,0,0,1,1.68-1.287,5.651,5.651,0,0,1,2.331-.474,4.605,4.605,0,0,1,3.155,1.007,3.632,3.632,0,0,1,1.184,2.772v5.362a6.555,6.555,0,0,0,.409,2.552V0ZM5.394-1.518A3.5,3.5,0,0,0,7.171-2a2.931,2.931,0,0,0,1.217-1.26v-2.39H6.826q-3.661,0-3.661,2.143A1.813,1.813,0,0,0,3.79-2.046,2.4,2.4,0,0,0,5.394-1.518ZM17-2.918l2.713-8.732h2.132L17.159,1.8Q16.071,4.705,13.7,4.705l-.377-.032-.743-.14V2.918l.538.043A2.651,2.651,0,0,0,14.7,2.552a2.961,2.961,0,0,0,.931-1.5l.441-1.184L11.915-11.65H14.09ZM30.811-1.152A4.231,4.231,0,0,1,27.4.215,3.622,3.622,0,0,1,24.561-.867a4.684,4.684,0,0,1-.985-3.2v-7.58h1.992v7.526q0,2.649,2.153,2.649a2.982,2.982,0,0,0,3.036-1.7V-11.65h1.992V0H30.854Zm4.479-4.77a6.825,6.825,0,0,1,1.27-4.312,4.018,4.018,0,0,1,3.327-1.631,4.04,4.04,0,0,1,3.241,1.4v-6.073H45.12V0H43.29l-.1-1.249A4.056,4.056,0,0,1,39.866.215a3.979,3.979,0,0,1-3.3-1.658A6.9,6.9,0,0,1,35.29-5.771Zm1.992.226a5.167,5.167,0,0,0,.818,3.1,2.645,2.645,0,0,0,2.261,1.12,2.906,2.906,0,0,0,2.767-1.7V-8.527a2.928,2.928,0,0,0-2.746-1.647A2.658,2.658,0,0,0,38.1-9.044,5.689,5.689,0,0,0,37.282-5.7ZM55.4,0a4.184,4.184,0,0,1-.28-1.227A4.444,4.444,0,0,1,51.807.215,4.112,4.112,0,0,1,48.98-.759a3.153,3.153,0,0,1-1.1-2.471A3.293,3.293,0,0,1,49.26-6.056a6.523,6.523,0,0,1,3.892-1.007h1.938v-.915a2.237,2.237,0,0,0-.624-1.663,2.51,2.51,0,0,0-1.841-.619,2.9,2.9,0,0,0-1.787.538,1.586,1.586,0,0,0-.721,1.3h-2a2.749,2.749,0,0,1,.619-1.685,4.225,4.225,0,0,1,1.68-1.287,5.651,5.651,0,0,1,2.331-.474A4.605,4.605,0,0,1,55.9-10.858a3.632,3.632,0,0,1,1.184,2.772v5.362a6.555,6.555,0,0,0,.409,2.552V0ZM52.1-1.518A3.5,3.5,0,0,0,53.874-2a2.931,2.931,0,0,0,1.217-1.26v-2.39H53.529q-3.661,0-3.661,2.143a1.813,1.813,0,0,0,.624,1.464A2.4,2.4,0,0,0,52.1-1.518ZM75.5-5.7A6.976,6.976,0,0,1,74.288-1.41,3.9,3.9,0,0,1,70.993.215a4.272,4.272,0,0,1-3.338-1.346v5.61H65.664V-11.65h1.82l.1,1.292a4.1,4.1,0,0,1,3.381-1.507,3.972,3.972,0,0,1,3.322,1.583,7.052,7.052,0,0,1,1.222,4.4Zm-1.992-.226a5.147,5.147,0,0,0-.84-3.112,2.705,2.705,0,0,0-2.3-1.141,2.928,2.928,0,0,0-2.713,1.6V-3A2.934,2.934,0,0,0,70.39-1.41a2.693,2.693,0,0,0,2.277-1.136A5.619,5.619,0,0,0,73.513-5.922ZM85.227,0a4.184,4.184,0,0,1-.28-1.227A4.444,4.444,0,0,1,81.631.215,4.112,4.112,0,0,1,78.8-.759,3.153,3.153,0,0,1,77.7-3.23a3.293,3.293,0,0,1,1.384-2.826,6.523,6.523,0,0,1,3.892-1.007h1.938v-.915a2.237,2.237,0,0,0-.624-1.663,2.51,2.51,0,0,0-1.841-.619,2.9,2.9,0,0,0-1.787.538,1.586,1.586,0,0,0-.721,1.3h-2a2.749,2.749,0,0,1,.619-1.685,4.225,4.225,0,0,1,1.68-1.287,5.651,5.651,0,0,1,2.331-.474,4.606,4.606,0,0,1,3.155,1.007,3.632,3.632,0,0,1,1.184,2.772v5.362a6.556,6.556,0,0,0,.409,2.552V0ZM81.922-1.518A3.5,3.5,0,0,0,83.7-2a2.931,2.931,0,0,0,1.217-1.26v-2.39H83.354q-3.661,0-3.661,2.143a1.813,1.813,0,0,0,.624,1.464A2.4,2.4,0,0,0,81.922-1.518ZM95.66-9.862a5.969,5.969,0,0,0-.98-.075,2.625,2.625,0,0,0-2.659,1.669V0H90.029V-11.65h1.938L92-10.3a3.1,3.1,0,0,1,2.778-1.561,2.035,2.035,0,0,1,.883.151ZM103.833,0a4.184,4.184,0,0,1-.28-1.227A4.444,4.444,0,0,1,100.237.215a4.112,4.112,0,0,1-2.826-.974,3.153,3.153,0,0,1-1.1-2.471,3.293,3.293,0,0,1,1.384-2.826,6.523,6.523,0,0,1,3.892-1.007h1.938v-.915a2.237,2.237,0,0,0-.624-1.663,2.51,2.51,0,0,0-1.841-.619,2.9,2.9,0,0,0-1.787.538,1.586,1.586,0,0,0-.721,1.3h-2a2.749,2.749,0,0,1,.619-1.685,4.225,4.225,0,0,1,1.68-1.287,5.651,5.651,0,0,1,2.331-.474,4.606,4.606,0,0,1,3.155,1.007,3.632,3.632,0,0,1,1.184,2.772v5.362a6.556,6.556,0,0,0,.409,2.552V0Zm-3.305-1.518A3.5,3.5,0,0,0,102.3-2a2.931,2.931,0,0,0,1.217-1.26v-2.39H101.96Q98.3-5.653,98.3-3.51a1.813,1.813,0,0,0,.624,1.464A2.4,2.4,0,0,0,100.528-1.518Zm18.239.108a2.869,2.869,0,0,0,1.863-.646,2.273,2.273,0,0,0,.883-1.615H123.4a3.612,3.612,0,0,1-.689,1.906,4.538,4.538,0,0,1-1.7,1.443,4.893,4.893,0,0,1-2.245.538,4.8,4.8,0,0,1-3.785-1.588,6.325,6.325,0,0,1-1.405-4.344v-.334a7.014,7.014,0,0,1,.624-3.025,4.756,4.756,0,0,1,1.793-2.056,5.092,5.092,0,0,1,2.762-.732,4.672,4.672,0,0,1,3.257,1.174A4.194,4.194,0,0,1,123.4-7.644h-1.884a2.745,2.745,0,0,0-.856-1.857,2.663,2.663,0,0,0-1.9-.727A2.788,2.788,0,0,0,116.4-9.136a5.132,5.132,0,0,0-.834,3.16V-5.6a5.03,5.03,0,0,0,.829,3.1A2.8,2.8,0,0,0,118.767-1.41Zm6.342-4.522a6.881,6.881,0,0,1,.673-3.079,5.02,5.02,0,0,1,1.873-2.11,5.1,5.1,0,0,1,2.74-.743,4.913,4.913,0,0,1,3.849,1.647,6.338,6.338,0,0,1,1.47,4.382v.14a6.941,6.941,0,0,1-.651,3.052,4.946,4.946,0,0,1-1.863,2.1,5.158,5.158,0,0,1-2.783.754,4.9,4.9,0,0,1-3.838-1.647,6.306,6.306,0,0,1-1.47-4.361Zm2,.237a4.984,4.984,0,0,0,.9,3.112,2.877,2.877,0,0,0,2.406,1.174,2.86,2.86,0,0,0,2.412-1.19,5.45,5.45,0,0,0,.894-3.332,4.975,4.975,0,0,0-.91-3.106,2.892,2.892,0,0,0-2.417-1.19,2.86,2.86,0,0,0-2.379,1.174A5.41,5.41,0,0,0,127.111-5.7ZM140.1-11.65l.065,1.464a4.245,4.245,0,0,1,3.488-1.68q3.693,0,3.725,4.167V0h-1.992V-7.709a2.682,2.682,0,0,0-.576-1.863,2.308,2.308,0,0,0-1.76-.6,2.875,2.875,0,0,0-1.7.517A3.51,3.51,0,0,0,140.2-8.3V0h-1.992V-11.65Zm17.066,8.56a1.466,1.466,0,0,0-.608-1.254,5.855,5.855,0,0,0-2.121-.77,10.028,10.028,0,0,1-2.4-.775,3.416,3.416,0,0,1-1.314-1.077,2.576,2.576,0,0,1-.425-1.486,3.022,3.022,0,0,1,1.211-2.423,4.73,4.73,0,0,1,3.1-.991,4.868,4.868,0,0,1,3.214,1.023,3.249,3.249,0,0,1,1.233,2.616h-2a1.8,1.8,0,0,0-.694-1.41,2.6,2.6,0,0,0-1.75-.592,2.723,2.723,0,0,0-1.7.474,1.491,1.491,0,0,0-.614,1.238,1.208,1.208,0,0,0,.571,1.087,7.021,7.021,0,0,0,2.062.7,10.744,10.744,0,0,1,2.417.8,3.526,3.526,0,0,1,1.373,1.114,2.74,2.74,0,0,1,.447,1.588,2.982,2.982,0,0,1-1.249,2.5,5.239,5.239,0,0,1-3.241.942,5.866,5.866,0,0,1-2.476-.5A4.028,4.028,0,0,1,150.5-1.663a3.335,3.335,0,0,1-.608-1.922h1.992a2.062,2.062,0,0,0,.8,1.588,3.112,3.112,0,0,0,1.976.587,3.212,3.212,0,0,0,1.814-.458A1.406,1.406,0,0,0,157.162-3.09ZM166.583.215a5.09,5.09,0,0,1-3.855-1.556A5.774,5.774,0,0,1,161.242-5.5v-.366a6.991,6.991,0,0,1,.662-3.1,5.165,5.165,0,0,1,1.852-2.132,4.656,4.656,0,0,1,2.579-.77,4.363,4.363,0,0,1,3.532,1.5,6.48,6.48,0,0,1,1.26,4.285v.829h-7.892a4.141,4.141,0,0,0,1.007,2.783A3.164,3.164,0,0,0,166.69-1.41a3.469,3.469,0,0,0,1.787-.431,4.491,4.491,0,0,0,1.281-1.141l1.217.947A4.892,4.892,0,0,1,166.583.215Zm-.248-10.444a2.657,2.657,0,0,0-2.024.878,4.265,4.265,0,0,0-1.012,2.46h5.836v-.151a3.794,3.794,0,0,0-.818-2.353A2.5,2.5,0,0,0,166.335-10.229Zm12.726.366a5.969,5.969,0,0,0-.98-.075,2.625,2.625,0,0,0-2.659,1.669V0H173.43V-11.65h1.938L175.4-10.3a3.1,3.1,0,0,1,2.778-1.561,2.035,2.035,0,0,1,.883.151Zm6.044,7.16,2.886-8.947h2.035L185.849,0h-1.518L180.11-11.65h2.035ZM198.819,0a4.184,4.184,0,0,1-.28-1.227A4.444,4.444,0,0,1,195.223.215,4.112,4.112,0,0,1,192.4-.759a3.153,3.153,0,0,1-1.1-2.471,3.293,3.293,0,0,1,1.384-2.826,6.523,6.523,0,0,1,3.892-1.007h1.938v-.915a2.237,2.237,0,0,0-.624-1.663,2.51,2.51,0,0,0-1.841-.619,2.9,2.9,0,0,0-1.787.538,1.586,1.586,0,0,0-.721,1.3h-2a2.749,2.749,0,0,1,.619-1.685,4.225,4.225,0,0,1,1.68-1.287,5.651,5.651,0,0,1,2.331-.474,4.606,4.606,0,0,1,3.155,1.007A3.632,3.632,0,0,1,200.5-8.086v5.362a6.556,6.556,0,0,0,.409,2.552V0Zm-3.305-1.518A3.5,3.5,0,0,0,197.29-2a2.931,2.931,0,0,0,1.217-1.26v-2.39h-1.561q-3.661,0-3.661,2.143a1.813,1.813,0,0,0,.624,1.464A2.4,2.4,0,0,0,195.514-1.518Zm13.739-8.344a5.969,5.969,0,0,0-.98-.075,2.625,2.625,0,0,0-2.659,1.669V0h-1.992V-11.65h1.938l.032,1.346a3.1,3.1,0,0,1,2.778-1.561,2.035,2.035,0,0,1,.883.151ZM221.376.215a5.09,5.09,0,0,1-3.855-1.556A5.774,5.774,0,0,1,216.036-5.5v-.366a6.991,6.991,0,0,1,.662-3.1A5.165,5.165,0,0,1,218.55-11.1a4.656,4.656,0,0,1,2.579-.77,4.363,4.363,0,0,1,3.532,1.5,6.48,6.48,0,0,1,1.26,4.285v.829h-7.892a4.141,4.141,0,0,0,1.007,2.783,3.164,3.164,0,0,0,2.449,1.061,3.469,3.469,0,0,0,1.787-.431,4.491,4.491,0,0,0,1.281-1.141l1.217.947A4.892,4.892,0,0,1,221.376.215Zm-.248-10.444a2.657,2.657,0,0,0-2.024.878,4.265,4.265,0,0,0-1.012,2.46h5.836v-.151a3.794,3.794,0,0,0-.818-2.353A2.5,2.5,0,0,0,221.128-10.229ZM230.388,0H228.4V-16.538h1.992Zm13.319-1.41a2.869,2.869,0,0,0,1.863-.646,2.273,2.273,0,0,0,.883-1.615h1.884a3.612,3.612,0,0,1-.689,1.906,4.538,4.538,0,0,1-1.7,1.443,4.893,4.893,0,0,1-2.245.538,4.8,4.8,0,0,1-3.785-1.588,6.325,6.325,0,0,1-1.405-4.344v-.334a7.014,7.014,0,0,1,.624-3.025,4.756,4.756,0,0,1,1.793-2.056,5.093,5.093,0,0,1,2.762-.732,4.672,4.672,0,0,1,3.257,1.174,4.194,4.194,0,0,1,1.384,3.047h-1.884A2.745,2.745,0,0,0,245.6-9.5a2.663,2.663,0,0,0-1.9-.727,2.788,2.788,0,0,0-2.353,1.093,5.132,5.132,0,0,0-.834,3.16V-5.6a5.03,5.03,0,0,0,.829,3.1A2.8,2.8,0,0,0,243.707-1.41ZM257.768,0a4.184,4.184,0,0,1-.28-1.227A4.444,4.444,0,0,1,254.172.215a4.112,4.112,0,0,1-2.826-.974,3.153,3.153,0,0,1-1.1-2.471,3.293,3.293,0,0,1,1.384-2.826,6.523,6.523,0,0,1,3.892-1.007h1.938v-.915a2.237,2.237,0,0,0-.624-1.663,2.51,2.51,0,0,0-1.841-.619,2.9,2.9,0,0,0-1.787.538,1.586,1.586,0,0,0-.721,1.3h-2A2.749,2.749,0,0,1,251.1-10.1a4.225,4.225,0,0,1,1.68-1.287,5.651,5.651,0,0,1,2.331-.474,4.606,4.606,0,0,1,3.155,1.007,3.632,3.632,0,0,1,1.184,2.772v5.362a6.555,6.555,0,0,0,.409,2.552V0Zm-3.305-1.518A3.5,3.5,0,0,0,256.239-2a2.931,2.931,0,0,0,1.217-1.26v-2.39h-1.561q-3.661,0-3.661,2.143a1.813,1.813,0,0,0,.624,1.464A2.4,2.4,0,0,0,254.463-1.518ZM264.734,0h-1.992V-16.538h1.992Zm2.659-5.933a6.881,6.881,0,0,1,.673-3.079,5.02,5.02,0,0,1,1.873-2.11,5.1,5.1,0,0,1,2.74-.743,4.913,4.913,0,0,1,3.849,1.647A6.338,6.338,0,0,1,278-5.836v.14a6.941,6.941,0,0,1-.651,3.052,4.946,4.946,0,0,1-1.863,2.1A5.158,5.158,0,0,1,272.7.215a4.9,4.9,0,0,1-3.838-1.647,6.306,6.306,0,0,1-1.47-4.361Zm2,.237a4.984,4.984,0,0,0,.9,3.112A2.877,2.877,0,0,0,272.7-1.41a2.86,2.86,0,0,0,2.412-1.19,5.45,5.45,0,0,0,.894-3.332,4.975,4.975,0,0,0-.91-3.106,2.892,2.892,0,0,0-2.417-1.19A2.86,2.86,0,0,0,270.3-9.055,5.41,5.41,0,0,0,269.4-5.7Zm16.732-4.167a5.969,5.969,0,0,0-.98-.075,2.625,2.625,0,0,0-2.659,1.669V0H280.5V-11.65h1.938l.032,1.346a3.1,3.1,0,0,1,2.778-1.561,2.035,2.035,0,0,1,.883.151Zm-.86,12.985-1.131-.775A5.2,5.2,0,0,0,285.193-.56v-1.8h1.949V-.8a4.9,4.9,0,0,1-.533,2.175A5.092,5.092,0,0,1,285.269,3.122Z" transform="translate(975.62 3780.319)"/>
    <path id="Trazado_733143" data-name="Trazado 733143" d="M11.348-5.7A6.976,6.976,0,0,1,10.132-1.41,3.9,3.9,0,0,1,6.837.215,4.272,4.272,0,0,1,3.5-1.131v5.61H1.507V-11.65h1.82l.1,1.292A4.1,4.1,0,0,1,6.8-11.865a3.972,3.972,0,0,1,3.322,1.583,7.052,7.052,0,0,1,1.222,4.4ZM9.356-5.922a5.147,5.147,0,0,0-.84-3.112,2.705,2.705,0,0,0-2.3-1.141A2.928,2.928,0,0,0,3.5-8.57V-3A2.934,2.934,0,0,0,6.234-1.41,2.693,2.693,0,0,0,8.511-2.546,5.619,5.619,0,0,0,9.356-5.922ZM18.713.215A5.09,5.09,0,0,1,14.858-1.34,5.774,5.774,0,0,1,13.372-5.5v-.366a6.991,6.991,0,0,1,.662-3.1A5.165,5.165,0,0,1,15.887-11.1a4.656,4.656,0,0,1,2.579-.77A4.363,4.363,0,0,1,22-10.369a6.48,6.48,0,0,1,1.26,4.285v.829H15.364a4.141,4.141,0,0,0,1.007,2.783A3.164,3.164,0,0,0,18.821-1.41a3.469,3.469,0,0,0,1.787-.431,4.491,4.491,0,0,0,1.281-1.141l1.217.947A4.892,4.892,0,0,1,18.713.215Zm-.248-10.444a2.657,2.657,0,0,0-2.024.878,4.265,4.265,0,0,0-1.012,2.46h5.836v-.151a3.794,3.794,0,0,0-.818-2.353A2.5,2.5,0,0,0,18.465-10.229Zm12.726.366a5.969,5.969,0,0,0-.98-.075,2.625,2.625,0,0,0-2.659,1.669V0H25.561V-11.65H27.5l.032,1.346a3.1,3.1,0,0,1,2.778-1.561,2.035,2.035,0,0,1,.883.151Zm.889,3.93a6.881,6.881,0,0,1,.673-3.079,5.02,5.02,0,0,1,1.873-2.11,5.1,5.1,0,0,1,2.74-.743,4.913,4.913,0,0,1,3.849,1.647,6.338,6.338,0,0,1,1.47,4.382v.14a6.941,6.941,0,0,1-.651,3.052,4.946,4.946,0,0,1-1.863,2.1,5.158,5.158,0,0,1-2.783.754A4.9,4.9,0,0,1,33.55-1.432a6.306,6.306,0,0,1-1.47-4.361Zm2,.237a4.984,4.984,0,0,0,.9,3.112A2.877,2.877,0,0,0,37.389-1.41,2.86,2.86,0,0,0,39.8-2.6a5.45,5.45,0,0,0,.894-3.332,4.975,4.975,0,0,0-.91-3.106,2.892,2.892,0,0,0-2.417-1.19,2.86,2.86,0,0,0-2.379,1.174A5.409,5.409,0,0,0,34.083-5.7ZM52.516-11.65l.054,1.292a4.3,4.3,0,0,1,3.456-1.507,3.331,3.331,0,0,1,3.327,1.873,4.413,4.413,0,0,1,1.513-1.357,4.468,4.468,0,0,1,2.2-.517q3.833,0,3.9,4.059V0H64.974V-7.688A2.675,2.675,0,0,0,64.4-9.556a2.513,2.513,0,0,0-1.917-.619,2.641,2.641,0,0,0-1.841.662,2.686,2.686,0,0,0-.851,1.782V0h-2V-7.634A2.222,2.222,0,0,0,55.3-10.175a2.665,2.665,0,0,0-2.681,1.669V0H50.632V-11.65ZM77.162,0a4.184,4.184,0,0,1-.28-1.227A4.444,4.444,0,0,1,73.566.215a4.112,4.112,0,0,1-2.826-.974,3.153,3.153,0,0,1-1.1-2.471,3.293,3.293,0,0,1,1.384-2.826,6.523,6.523,0,0,1,3.892-1.007h1.938v-.915a2.237,2.237,0,0,0-.624-1.663,2.51,2.51,0,0,0-1.841-.619,2.9,2.9,0,0,0-1.787.538,1.586,1.586,0,0,0-.721,1.3h-2a2.749,2.749,0,0,1,.619-1.685,4.225,4.225,0,0,1,1.68-1.287,5.651,5.651,0,0,1,2.331-.474,4.606,4.606,0,0,1,3.155,1.007,3.632,3.632,0,0,1,1.184,2.772v5.362A6.556,6.556,0,0,0,79.25-.172V0ZM73.856-1.518A3.5,3.5,0,0,0,75.633-2a2.931,2.931,0,0,0,1.217-1.26v-2.39H75.288q-3.661,0-3.661,2.143a1.813,1.813,0,0,0,.624,1.464A2.4,2.4,0,0,0,73.856-1.518ZM84.128,0H82.136V-16.538h1.992ZM94.647-11.65l.054,1.292a4.3,4.3,0,0,1,3.456-1.507,3.331,3.331,0,0,1,3.327,1.873A4.413,4.413,0,0,1,103-11.348a4.468,4.468,0,0,1,2.2-.517q3.833,0,3.9,4.059V0H107.1V-7.688a2.675,2.675,0,0,0-.571-1.868,2.513,2.513,0,0,0-1.917-.619,2.641,2.641,0,0,0-1.841.662,2.686,2.686,0,0,0-.851,1.782V0h-2V-7.634a2.222,2.222,0,0,0-2.487-2.541,2.665,2.665,0,0,0-2.681,1.669V0H92.763V-11.65ZM119.293,0a4.184,4.184,0,0,1-.28-1.227A4.444,4.444,0,0,1,115.7.215a4.112,4.112,0,0,1-2.826-.974,3.153,3.153,0,0,1-1.1-2.471,3.293,3.293,0,0,1,1.384-2.826,6.523,6.523,0,0,1,3.892-1.007h1.938v-.915a2.237,2.237,0,0,0-.624-1.663,2.51,2.51,0,0,0-1.841-.619,2.9,2.9,0,0,0-1.787.538,1.586,1.586,0,0,0-.721,1.3h-2a2.749,2.749,0,0,1,.619-1.685,4.225,4.225,0,0,1,1.68-1.287,5.651,5.651,0,0,1,2.331-.474,4.606,4.606,0,0,1,3.155,1.007,3.632,3.632,0,0,1,1.184,2.772v5.362a6.556,6.556,0,0,0,.409,2.552V0Zm-3.305-1.518A3.5,3.5,0,0,0,117.764-2a2.931,2.931,0,0,0,1.217-1.26v-2.39h-1.561q-3.661,0-3.661,2.143a1.813,1.813,0,0,0,.624,1.464A2.4,2.4,0,0,0,115.987-1.518Zm9.992-10.132.065,1.464a4.245,4.245,0,0,1,3.488-1.68q3.693,0,3.725,4.167V0h-1.992V-7.709a2.682,2.682,0,0,0-.576-1.863,2.308,2.308,0,0,0-1.76-.6,2.875,2.875,0,0,0-1.7.517A3.51,3.51,0,0,0,126.086-8.3V0h-1.992V-11.65ZM141.1.215a5.09,5.09,0,0,1-3.855-1.556A5.774,5.774,0,0,1,135.755-5.5v-.366a6.991,6.991,0,0,1,.662-3.1,5.165,5.165,0,0,1,1.852-2.132,4.656,4.656,0,0,1,2.579-.77,4.363,4.363,0,0,1,3.532,1.5,6.48,6.48,0,0,1,1.26,4.285v.829h-7.892a4.141,4.141,0,0,0,1.007,2.783A3.164,3.164,0,0,0,141.2-1.41a3.469,3.469,0,0,0,1.787-.431,4.491,4.491,0,0,0,1.281-1.141l1.217.947A4.892,4.892,0,0,1,141.1.215Zm-.248-10.444a2.657,2.657,0,0,0-2.024.878,4.265,4.265,0,0,0-1.012,2.46h5.836v-.151a3.794,3.794,0,0,0-.818-2.353A2.5,2.5,0,0,0,140.848-10.229ZM150-11.65v13q0,3.359-3.047,3.359a3.717,3.717,0,0,1-1.217-.193V2.929a3.851,3.851,0,0,0,.9.086,1.353,1.353,0,0,0,1.017-.361,1.785,1.785,0,0,0,.35-1.255V-11.65Zm-2.2-3.09a1.194,1.194,0,0,1,.3-.813,1.089,1.089,0,0,1,.867-.339,1.129,1.129,0,0,1,.883.334,1.176,1.176,0,0,1,.3.818,1.138,1.138,0,0,1-.3.808,1.149,1.149,0,0,1-.883.323,1.114,1.114,0,0,1-.872-.323A1.162,1.162,0,0,1,147.8-14.74ZM160.4,0a4.184,4.184,0,0,1-.28-1.227A4.444,4.444,0,0,1,156.8.215a4.112,4.112,0,0,1-2.826-.974,3.153,3.153,0,0,1-1.1-2.471,3.293,3.293,0,0,1,1.384-2.826,6.523,6.523,0,0,1,3.892-1.007h1.938v-.915a2.237,2.237,0,0,0-.624-1.663,2.51,2.51,0,0,0-1.841-.619,2.9,2.9,0,0,0-1.787.538,1.586,1.586,0,0,0-.721,1.3h-2a2.749,2.749,0,0,1,.619-1.685,4.225,4.225,0,0,1,1.68-1.287,5.651,5.651,0,0,1,2.331-.474,4.606,4.606,0,0,1,3.155,1.007,3.632,3.632,0,0,1,1.184,2.772v5.362a6.556,6.556,0,0,0,.409,2.552V0ZM157.1-1.518A3.5,3.5,0,0,0,158.872-2a2.931,2.931,0,0,0,1.217-1.26v-2.39h-1.561q-3.661,0-3.661,2.143a1.813,1.813,0,0,0,.624,1.464A2.4,2.4,0,0,0,157.1-1.518Zm7.623-4.4a6.825,6.825,0,0,1,1.27-4.312,4.018,4.018,0,0,1,3.327-1.631,4.04,4.04,0,0,1,3.241,1.4v-6.073h1.992V0h-1.83l-.1-1.249A4.056,4.056,0,0,1,169.294.215a3.979,3.979,0,0,1-3.3-1.658,6.9,6.9,0,0,1-1.276-4.328Zm1.992.226a5.167,5.167,0,0,0,.818,3.1,2.645,2.645,0,0,0,2.261,1.12,2.906,2.906,0,0,0,2.767-1.7V-8.527a2.928,2.928,0,0,0-2.746-1.647,2.658,2.658,0,0,0-2.283,1.131A5.689,5.689,0,0,0,166.71-5.7ZM184.831,0a4.184,4.184,0,0,1-.28-1.227A4.444,4.444,0,0,1,181.234.215a4.112,4.112,0,0,1-2.826-.974,3.153,3.153,0,0,1-1.1-2.471,3.293,3.293,0,0,1,1.384-2.826,6.523,6.523,0,0,1,3.892-1.007h1.938v-.915a2.237,2.237,0,0,0-.624-1.663,2.51,2.51,0,0,0-1.841-.619,2.9,2.9,0,0,0-1.787.538,1.586,1.586,0,0,0-.721,1.3h-2a2.749,2.749,0,0,1,.619-1.685,4.225,4.225,0,0,1,1.68-1.287,5.651,5.651,0,0,1,2.331-.474,4.606,4.606,0,0,1,3.155,1.007,3.632,3.632,0,0,1,1.184,2.772v5.362a6.556,6.556,0,0,0,.409,2.552V0Zm-3.305-1.518A3.5,3.5,0,0,0,183.3-2a2.931,2.931,0,0,0,1.217-1.26v-2.39h-1.561q-3.661,0-3.661,2.143a1.813,1.813,0,0,0,.624,1.464A2.4,2.4,0,0,0,181.525-1.518ZM196.416-3.09a1.466,1.466,0,0,0-.608-1.254,5.855,5.855,0,0,0-2.121-.77,10.028,10.028,0,0,1-2.4-.775,3.416,3.416,0,0,1-1.314-1.077,2.576,2.576,0,0,1-.425-1.486,3.022,3.022,0,0,1,1.211-2.423,4.73,4.73,0,0,1,3.1-.991,4.868,4.868,0,0,1,3.214,1.023A3.249,3.249,0,0,1,198.3-8.226h-2a1.8,1.8,0,0,0-.694-1.41,2.6,2.6,0,0,0-1.75-.592,2.723,2.723,0,0,0-1.7.474,1.491,1.491,0,0,0-.614,1.238,1.208,1.208,0,0,0,.571,1.087,7.021,7.021,0,0,0,2.062.7,10.744,10.744,0,0,1,2.417.8,3.526,3.526,0,0,1,1.373,1.114,2.74,2.74,0,0,1,.447,1.588,2.982,2.982,0,0,1-1.249,2.5,5.239,5.239,0,0,1-3.241.942,5.866,5.866,0,0,1-2.476-.5,4.028,4.028,0,0,1-1.685-1.384,3.335,3.335,0,0,1-.608-1.922h1.992a2.062,2.062,0,0,0,.8,1.588,3.112,3.112,0,0,0,1.976.587,3.212,3.212,0,0,0,1.814-.458A1.406,1.406,0,0,0,196.416-3.09Z" transform="translate(1020.78 3806.78)"/>
    <path id="Trazado_733146" data-name="Trazado 733146" d="M6.342.215A5.09,5.09,0,0,1,2.487-1.34,5.774,5.774,0,0,1,1-5.5v-.366a6.991,6.991,0,0,1,.662-3.1A5.165,5.165,0,0,1,3.515-11.1a4.656,4.656,0,0,1,2.579-.77,4.363,4.363,0,0,1,3.532,1.5,6.48,6.48,0,0,1,1.26,4.285v.829H2.993A4.141,4.141,0,0,0,4-2.471,3.164,3.164,0,0,0,6.449-1.41a3.469,3.469,0,0,0,1.787-.431A4.491,4.491,0,0,0,9.518-2.982l1.217.947A4.892,4.892,0,0,1,6.342.215ZM6.094-10.229a2.657,2.657,0,0,0-2.024.878,4.265,4.265,0,0,0-1.012,2.46H8.893v-.151a3.794,3.794,0,0,0-.818-2.353A2.5,2.5,0,0,0,6.094-10.229Zm8.98-1.421.065,1.464a4.245,4.245,0,0,1,3.488-1.68q3.693,0,3.725,4.167V0H20.36V-7.709a2.682,2.682,0,0,0-.576-1.863,2.308,2.308,0,0,0-1.76-.6,2.875,2.875,0,0,0-1.7.517A3.509,3.509,0,0,0,15.181-8.3V0H13.189V-11.65Zm12.985-2.821v2.821h2.175v1.54H28.059v7.234a1.617,1.617,0,0,0,.291,1.051,1.223,1.223,0,0,0,.991.35,4.822,4.822,0,0,0,.947-.129V0a5.809,5.809,0,0,1-1.529.214,2.481,2.481,0,0,1-2.013-.808,3.469,3.469,0,0,1-.678-2.293V-10.11H23.946v-1.54h2.121v-2.821Zm3.559,8.538a6.881,6.881,0,0,1,.673-3.079,5.02,5.02,0,0,1,1.873-2.11,5.1,5.1,0,0,1,2.74-.743,4.913,4.913,0,0,1,3.849,1.647,6.338,6.338,0,0,1,1.47,4.382v.14a6.941,6.941,0,0,1-.651,3.052,4.946,4.946,0,0,1-1.863,2.1,5.158,5.158,0,0,1-2.783.754,4.9,4.9,0,0,1-3.838-1.647,6.306,6.306,0,0,1-1.47-4.361Zm2,.237a4.984,4.984,0,0,0,.9,3.112A2.877,2.877,0,0,0,36.926-1.41,2.86,2.86,0,0,0,39.338-2.6a5.45,5.45,0,0,0,.894-3.332,4.975,4.975,0,0,0-.91-3.106,2.892,2.892,0,0,0-2.417-1.19,2.86,2.86,0,0,0-2.379,1.174A5.409,5.409,0,0,0,33.62-5.7ZM50.352-9.862a5.969,5.969,0,0,0-.98-.075,2.625,2.625,0,0,0-2.659,1.669V0H44.721V-11.65h1.938l.032,1.346a3.1,3.1,0,0,1,2.778-1.561,2.035,2.035,0,0,1,.883.151ZM62.023-5.7A6.976,6.976,0,0,1,60.807-1.41,3.9,3.9,0,0,1,57.512.215a4.272,4.272,0,0,1-3.338-1.346v5.61H52.182V-11.65H54l.1,1.292a4.1,4.1,0,0,1,3.381-1.507A3.973,3.973,0,0,1,60.8-10.282a7.052,7.052,0,0,1,1.222,4.4Zm-1.992-.226a5.147,5.147,0,0,0-.84-3.112,2.705,2.705,0,0,0-2.3-1.141,2.928,2.928,0,0,0-2.713,1.6V-3A2.934,2.934,0,0,0,56.909-1.41a2.693,2.693,0,0,0,2.277-1.136A5.619,5.619,0,0,0,60.032-5.922ZM69.388.215A5.09,5.09,0,0,1,65.533-1.34,5.774,5.774,0,0,1,64.048-5.5v-.366a6.991,6.991,0,0,1,.662-3.1A5.165,5.165,0,0,1,66.562-11.1a4.656,4.656,0,0,1,2.579-.77,4.363,4.363,0,0,1,3.532,1.5,6.48,6.48,0,0,1,1.26,4.285v.829H66.039a4.141,4.141,0,0,0,1.007,2.783A3.164,3.164,0,0,0,69.5-1.41a3.469,3.469,0,0,0,1.787-.431,4.491,4.491,0,0,0,1.281-1.141l1.217.947A4.892,4.892,0,0,1,69.388.215ZM69.14-10.229a2.657,2.657,0,0,0-2.024.878A4.265,4.265,0,0,0,66.1-6.891H71.94v-.151a3.794,3.794,0,0,0-.818-2.353A2.5,2.5,0,0,0,69.14-10.229ZM80.909-1.41a2.869,2.869,0,0,0,1.863-.646,2.273,2.273,0,0,0,.883-1.615h1.884a3.612,3.612,0,0,1-.689,1.906,4.538,4.538,0,0,1-1.7,1.443,4.893,4.893,0,0,1-2.245.538,4.8,4.8,0,0,1-3.785-1.588,6.325,6.325,0,0,1-1.405-4.344v-.334a7.014,7.014,0,0,1,.624-3.025,4.756,4.756,0,0,1,1.793-2.056,5.092,5.092,0,0,1,2.762-.732,4.672,4.672,0,0,1,3.257,1.174,4.194,4.194,0,0,1,1.384,3.047H83.654A2.745,2.745,0,0,0,82.8-9.5a2.663,2.663,0,0,0-1.9-.727,2.788,2.788,0,0,0-2.353,1.093,5.132,5.132,0,0,0-.834,3.16V-5.6a5.03,5.03,0,0,0,.829,3.1A2.8,2.8,0,0,0,80.909-1.41ZM92.612.215A5.09,5.09,0,0,1,88.758-1.34,5.774,5.774,0,0,1,87.272-5.5v-.366a6.991,6.991,0,0,1,.662-3.1A5.165,5.165,0,0,1,89.786-11.1a4.656,4.656,0,0,1,2.579-.77,4.363,4.363,0,0,1,3.532,1.5,6.48,6.48,0,0,1,1.26,4.285v.829H89.264A4.141,4.141,0,0,0,90.27-2.471,3.164,3.164,0,0,0,92.72-1.41a3.469,3.469,0,0,0,1.787-.431,4.491,4.491,0,0,0,1.281-1.141l1.217.947A4.892,4.892,0,0,1,92.612.215Zm-.248-10.444a2.657,2.657,0,0,0-2.024.878,4.265,4.265,0,0,0-1.012,2.46h5.836v-.151a3.794,3.794,0,0,0-.818-2.353A2.5,2.5,0,0,0,92.365-10.229Zm8.98-1.421.065,1.464a4.245,4.245,0,0,1,3.488-1.68q3.693,0,3.725,4.167V0h-1.992V-7.709a2.682,2.682,0,0,0-.576-1.863,2.308,2.308,0,0,0-1.76-.6,2.875,2.875,0,0,0-1.7.517A3.51,3.51,0,0,0,101.452-8.3V0H99.46V-11.65ZM119.249,0h-1.992V-16.538h1.992Zm10.379,0a4.184,4.184,0,0,1-.28-1.227A4.444,4.444,0,0,1,126.033.215a4.112,4.112,0,0,1-2.826-.974,3.153,3.153,0,0,1-1.1-2.471,3.293,3.293,0,0,1,1.384-2.826,6.523,6.523,0,0,1,3.892-1.007h1.938v-.915a2.237,2.237,0,0,0-.624-1.663,2.51,2.51,0,0,0-1.841-.619,2.9,2.9,0,0,0-1.787.538,1.586,1.586,0,0,0-.721,1.3h-2a2.749,2.749,0,0,1,.619-1.685,4.225,4.225,0,0,1,1.68-1.287,5.651,5.651,0,0,1,2.331-.474,4.605,4.605,0,0,1,3.155,1.007,3.632,3.632,0,0,1,1.184,2.772v5.362a6.556,6.556,0,0,0,.409,2.552V0Zm-3.305-1.518A3.5,3.5,0,0,0,128.1-2a2.931,2.931,0,0,0,1.217-1.26v-2.39h-1.561q-3.661,0-3.661,2.143a1.813,1.813,0,0,0,.624,1.464A2.4,2.4,0,0,0,126.323-1.518ZM143.733-2.7l2.886-8.947h2.035L144.476,0h-1.518l-4.221-11.65h2.035Zm11.4,2.918a5.09,5.09,0,0,1-3.855-1.556A5.774,5.774,0,0,1,149.792-5.5v-.366a6.991,6.991,0,0,1,.662-3.1,5.165,5.165,0,0,1,1.852-2.132,4.656,4.656,0,0,1,2.579-.77,4.363,4.363,0,0,1,3.532,1.5,6.48,6.48,0,0,1,1.26,4.285v.829h-7.892a4.141,4.141,0,0,0,1.007,2.783A3.164,3.164,0,0,0,155.24-1.41a3.469,3.469,0,0,0,1.787-.431,4.491,4.491,0,0,0,1.281-1.141l1.217.947A4.892,4.892,0,0,1,155.132.215Zm-.248-10.444a2.657,2.657,0,0,0-2.024.878,4.265,4.265,0,0,0-1.012,2.46h5.836v-.151a3.794,3.794,0,0,0-.818-2.353A2.5,2.5,0,0,0,154.885-10.229Zm8.98-1.421.065,1.464a4.245,4.245,0,0,1,3.488-1.68q3.693,0,3.725,4.167V0h-1.992V-7.709a2.682,2.682,0,0,0-.576-1.863,2.308,2.308,0,0,0-1.76-.6,2.875,2.875,0,0,0-1.7.517A3.51,3.51,0,0,0,163.972-8.3V0H161.98V-11.65Zm12.985-2.821v2.821h2.175v1.54h-2.175v7.234a1.617,1.617,0,0,0,.291,1.051,1.223,1.223,0,0,0,.991.35,4.822,4.822,0,0,0,.947-.129V0a5.809,5.809,0,0,1-1.529.214,2.481,2.481,0,0,1-2.013-.808,3.469,3.469,0,0,1-.678-2.293V-10.11h-2.121v-1.54h2.121v-2.821ZM183.514,0h-1.992V-11.65h1.992Zm-2.153-14.74a1.189,1.189,0,0,1,.3-.818,1.112,1.112,0,0,1,.878-.334,1.129,1.129,0,0,1,.883.334,1.176,1.176,0,0,1,.3.818,1.138,1.138,0,0,1-.3.808,1.149,1.149,0,0,1-.883.323,1.132,1.132,0,0,1-.878-.323A1.15,1.15,0,0,1,181.361-14.74ZM188.865,0h-1.992V-16.538h1.992Zm10.379,0a4.184,4.184,0,0,1-.28-1.227A4.444,4.444,0,0,1,195.648.215a4.112,4.112,0,0,1-2.826-.974,3.153,3.153,0,0,1-1.1-2.471A3.293,3.293,0,0,1,193.1-6.056a6.523,6.523,0,0,1,3.892-1.007h1.938v-.915a2.237,2.237,0,0,0-.624-1.663,2.51,2.51,0,0,0-1.841-.619,2.9,2.9,0,0,0-1.787.538,1.586,1.586,0,0,0-.721,1.3h-2a2.749,2.749,0,0,1,.619-1.685,4.225,4.225,0,0,1,1.68-1.287,5.651,5.651,0,0,1,2.331-.474,4.606,4.606,0,0,1,3.155,1.007,3.632,3.632,0,0,1,1.184,2.772v5.362a6.556,6.556,0,0,0,.409,2.552V0Zm-3.305-1.518A3.5,3.5,0,0,0,197.715-2a2.931,2.931,0,0,0,1.217-1.26v-2.39h-1.561q-3.661,0-3.661,2.143a1.813,1.813,0,0,0,.624,1.464A2.4,2.4,0,0,0,195.939-1.518Zm12.78.108a2.869,2.869,0,0,0,1.863-.646,2.273,2.273,0,0,0,.883-1.615h1.884a3.612,3.612,0,0,1-.689,1.906,4.538,4.538,0,0,1-1.7,1.443,4.893,4.893,0,0,1-2.245.538,4.8,4.8,0,0,1-3.785-1.588,6.325,6.325,0,0,1-1.405-4.344v-.334a7.014,7.014,0,0,1,.624-3.025,4.756,4.756,0,0,1,1.793-2.056,5.093,5.093,0,0,1,2.762-.732,4.672,4.672,0,0,1,3.257,1.174,4.194,4.194,0,0,1,1.384,3.047h-1.884a2.745,2.745,0,0,0-.856-1.857,2.663,2.663,0,0,0-1.9-.727,2.788,2.788,0,0,0-2.353,1.093,5.132,5.132,0,0,0-.834,3.16V-5.6a5.03,5.03,0,0,0,.829,3.1A2.8,2.8,0,0,0,208.719-1.41ZM217.753,0h-1.992V-11.65h1.992ZM215.6-14.74a1.189,1.189,0,0,1,.3-.818,1.112,1.112,0,0,1,.878-.334,1.129,1.129,0,0,1,.883.334,1.176,1.176,0,0,1,.3.818,1.138,1.138,0,0,1-.3.808,1.149,1.149,0,0,1-.883.323,1.132,1.132,0,0,1-.878-.323A1.15,1.15,0,0,1,215.6-14.74Zm4.813,8.807a6.881,6.881,0,0,1,.673-3.079,5.02,5.02,0,0,1,1.873-2.11,5.1,5.1,0,0,1,2.74-.743,4.913,4.913,0,0,1,3.849,1.647,6.338,6.338,0,0,1,1.47,4.382v.14a6.941,6.941,0,0,1-.651,3.052,4.946,4.946,0,0,1-1.863,2.1,5.158,5.158,0,0,1-2.783.754,4.9,4.9,0,0,1-3.838-1.647,6.306,6.306,0,0,1-1.47-4.361Zm2,.237a4.984,4.984,0,0,0,.9,3.112A2.877,2.877,0,0,0,225.72-1.41a2.86,2.86,0,0,0,2.412-1.19,5.45,5.45,0,0,0,.894-3.332,4.975,4.975,0,0,0-.91-3.106,2.892,2.892,0,0,0-2.417-1.19,2.86,2.86,0,0,0-2.379,1.174A5.409,5.409,0,0,0,222.415-5.7ZM226.6-16.538h2.412l-2.886,3.165-1.6-.005Zm8.8,4.888.065,1.464a4.245,4.245,0,0,1,3.488-1.68q3.693,0,3.725,4.167V0h-1.992V-7.709a2.682,2.682,0,0,0-.576-1.863,2.308,2.308,0,0,0-1.76-.6,2.875,2.875,0,0,0-1.7.517A3.51,3.51,0,0,0,235.507-8.3V0h-1.992V-11.65ZM245.725-1.044a1.247,1.247,0,0,1,.307-.861,1.169,1.169,0,0,1,.921-.345,1.2,1.2,0,0,1,.931.345,1.222,1.222,0,0,1,.318.861,1.156,1.156,0,0,1-.318.829,1.226,1.226,0,0,1-.931.334,1.19,1.19,0,0,1-.921-.334A1.179,1.179,0,0,1,245.725-1.044Z" transform="translate(995.465 3833.24)"/>
    <path id="Trazado_733140" data-name="Trazado 733140" d="M4.038,0H1.97V-15.677H4.038ZM9.389-11.65l.065,1.464a4.245,4.245,0,0,1,3.488-1.68q3.693,0,3.725,4.167V0H14.675V-7.709A2.682,2.682,0,0,0,14.1-9.572a2.308,2.308,0,0,0-1.76-.6,2.875,2.875,0,0,0-1.7.517A3.509,3.509,0,0,0,9.5-8.3V0H7.5V-11.65ZM24.344-1.41a2.869,2.869,0,0,0,1.863-.646,2.273,2.273,0,0,0,.883-1.615h1.884a3.612,3.612,0,0,1-.689,1.906,4.538,4.538,0,0,1-1.7,1.443,4.893,4.893,0,0,1-2.245.538,4.8,4.8,0,0,1-3.785-1.588,6.325,6.325,0,0,1-1.405-4.344v-.334a7.014,7.014,0,0,1,.624-3.025,4.756,4.756,0,0,1,1.793-2.056,5.092,5.092,0,0,1,2.762-.732,4.672,4.672,0,0,1,3.257,1.174,4.194,4.194,0,0,1,1.384,3.047H27.09A2.745,2.745,0,0,0,26.234-9.5a2.663,2.663,0,0,0-1.9-.727,2.788,2.788,0,0,0-2.353,1.093,5.132,5.132,0,0,0-.834,3.16V-5.6a5.03,5.03,0,0,0,.829,3.1A2.8,2.8,0,0,0,24.344-1.41Zm6.342-4.522a6.881,6.881,0,0,1,.673-3.079,5.02,5.02,0,0,1,1.873-2.11,5.1,5.1,0,0,1,2.74-.743,4.913,4.913,0,0,1,3.849,1.647,6.338,6.338,0,0,1,1.47,4.382v.14a6.941,6.941,0,0,1-.651,3.052,4.946,4.946,0,0,1-1.863,2.1,5.158,5.158,0,0,1-2.783.754,4.9,4.9,0,0,1-3.838-1.647,6.306,6.306,0,0,1-1.47-4.361Zm2,.237a4.984,4.984,0,0,0,.9,3.112A2.877,2.877,0,0,0,35.994-1.41,2.86,2.86,0,0,0,38.406-2.6,5.45,5.45,0,0,0,39.3-5.933a4.975,4.975,0,0,0-.91-3.106,2.892,2.892,0,0,0-2.417-1.19,2.86,2.86,0,0,0-2.379,1.174A5.409,5.409,0,0,0,32.688-5.7ZM49.42-9.862a5.969,5.969,0,0,0-.98-.075,2.625,2.625,0,0,0-2.659,1.669V0H43.789V-11.65h1.938l.032,1.346a3.1,3.1,0,0,1,2.778-1.561,2.035,2.035,0,0,1,.883.151Zm7.461,0a5.969,5.969,0,0,0-.98-.075,2.625,2.625,0,0,0-2.659,1.669V0H51.25V-11.65h1.938l.032,1.346A3.1,3.1,0,0,1,56-11.865a2.035,2.035,0,0,1,.883.151ZM63.143.215A5.09,5.09,0,0,1,59.289-1.34,5.774,5.774,0,0,1,57.8-5.5v-.366a6.991,6.991,0,0,1,.662-3.1A5.165,5.165,0,0,1,60.317-11.1a4.656,4.656,0,0,1,2.579-.77,4.363,4.363,0,0,1,3.532,1.5,6.48,6.48,0,0,1,1.26,4.285v.829H59.795A4.141,4.141,0,0,0,60.8-2.471,3.164,3.164,0,0,0,63.251-1.41a3.469,3.469,0,0,0,1.787-.431,4.491,4.491,0,0,0,1.281-1.141l1.217.947A4.892,4.892,0,0,1,63.143.215ZM62.9-10.229a2.657,2.657,0,0,0-2.024.878,4.265,4.265,0,0,0-1.012,2.46h5.836v-.151a3.794,3.794,0,0,0-.818-2.353A2.5,2.5,0,0,0,62.9-10.229ZM74.664-1.41a2.869,2.869,0,0,0,1.863-.646,2.273,2.273,0,0,0,.883-1.615h1.884A3.612,3.612,0,0,1,78.6-1.766a4.538,4.538,0,0,1-1.7,1.443,4.893,4.893,0,0,1-2.245.538,4.8,4.8,0,0,1-3.785-1.588,6.325,6.325,0,0,1-1.405-4.344v-.334A7.014,7.014,0,0,1,70.1-9.076a4.756,4.756,0,0,1,1.793-2.056,5.092,5.092,0,0,1,2.762-.732,4.672,4.672,0,0,1,3.257,1.174,4.194,4.194,0,0,1,1.384,3.047H77.409A2.745,2.745,0,0,0,76.553-9.5a2.663,2.663,0,0,0-1.9-.727A2.788,2.788,0,0,0,72.3-9.136a5.132,5.132,0,0,0-.834,3.16V-5.6A5.03,5.03,0,0,0,72.3-2.5,2.8,2.8,0,0,0,74.664-1.41Zm9.572-13.06v2.821H86.41v1.54H84.236v7.234a1.617,1.617,0,0,0,.291,1.051,1.223,1.223,0,0,0,.991.35,4.823,4.823,0,0,0,.947-.129V0a5.809,5.809,0,0,1-1.529.214,2.481,2.481,0,0,1-2.013-.808,3.469,3.469,0,0,1-.678-2.293V-10.11H80.123v-1.54h2.121v-2.821Zm3.559,8.538a6.881,6.881,0,0,1,.673-3.079,5.02,5.02,0,0,1,1.873-2.11,5.1,5.1,0,0,1,2.74-.743,4.913,4.913,0,0,1,3.849,1.647A6.338,6.338,0,0,1,98.4-5.836v.14a6.941,6.941,0,0,1-.651,3.052,4.946,4.946,0,0,1-1.863,2.1A5.158,5.158,0,0,1,93.1.215a4.9,4.9,0,0,1-3.838-1.647,6.306,6.306,0,0,1-1.47-4.361Zm2,.237a4.984,4.984,0,0,0,.9,3.112A2.877,2.877,0,0,0,93.1-1.41,2.86,2.86,0,0,0,95.515-2.6a5.45,5.45,0,0,0,.894-3.332,4.975,4.975,0,0,0-.91-3.106,2.892,2.892,0,0,0-2.417-1.19A2.86,2.86,0,0,0,90.7-9.055,5.41,5.41,0,0,0,89.8-5.7Z" transform="translate(548.61 3867.86)"/>
    <path id="Trazado_733141" data-name="Trazado 733141" d="M4.038,0H1.97V-15.677H4.038ZM9.389-11.65l.065,1.464a4.245,4.245,0,0,1,3.488-1.68q3.693,0,3.725,4.167V0H14.675V-7.709A2.682,2.682,0,0,0,14.1-9.572a2.308,2.308,0,0,0-1.76-.6,2.875,2.875,0,0,0-1.7.517A3.509,3.509,0,0,0,9.5-8.3V0H7.5V-11.65ZM24.344-1.41a2.869,2.869,0,0,0,1.863-.646,2.273,2.273,0,0,0,.883-1.615h1.884a3.612,3.612,0,0,1-.689,1.906,4.538,4.538,0,0,1-1.7,1.443,4.893,4.893,0,0,1-2.245.538,4.8,4.8,0,0,1-3.785-1.588,6.325,6.325,0,0,1-1.405-4.344v-.334a7.014,7.014,0,0,1,.624-3.025,4.756,4.756,0,0,1,1.793-2.056,5.092,5.092,0,0,1,2.762-.732,4.672,4.672,0,0,1,3.257,1.174,4.194,4.194,0,0,1,1.384,3.047H27.09A2.745,2.745,0,0,0,26.234-9.5a2.663,2.663,0,0,0-1.9-.727,2.788,2.788,0,0,0-2.353,1.093,5.132,5.132,0,0,0-.834,3.16V-5.6a5.03,5.03,0,0,0,.829,3.1A2.8,2.8,0,0,0,24.344-1.41Zm6.342-4.522a6.881,6.881,0,0,1,.673-3.079,5.02,5.02,0,0,1,1.873-2.11,5.1,5.1,0,0,1,2.74-.743,4.913,4.913,0,0,1,3.849,1.647,6.338,6.338,0,0,1,1.47,4.382v.14a6.941,6.941,0,0,1-.651,3.052,4.946,4.946,0,0,1-1.863,2.1,5.158,5.158,0,0,1-2.783.754,4.9,4.9,0,0,1-3.838-1.647,6.306,6.306,0,0,1-1.47-4.361Zm2,.237a4.984,4.984,0,0,0,.9,3.112A2.877,2.877,0,0,0,35.994-1.41,2.86,2.86,0,0,0,38.406-2.6,5.45,5.45,0,0,0,39.3-5.933a4.975,4.975,0,0,0-.91-3.106,2.892,2.892,0,0,0-2.417-1.19,2.86,2.86,0,0,0-2.379,1.174A5.409,5.409,0,0,0,32.688-5.7ZM49.42-9.862a5.969,5.969,0,0,0-.98-.075,2.625,2.625,0,0,0-2.659,1.669V0H43.789V-11.65h1.938l.032,1.346a3.1,3.1,0,0,1,2.778-1.561,2.035,2.035,0,0,1,.883.151Zm7.461,0a5.969,5.969,0,0,0-.98-.075,2.625,2.625,0,0,0-2.659,1.669V0H51.25V-11.65h1.938l.032,1.346A3.1,3.1,0,0,1,56-11.865a2.035,2.035,0,0,1,.883.151ZM63.143.215A5.09,5.09,0,0,1,59.289-1.34,5.774,5.774,0,0,1,57.8-5.5v-.366a6.991,6.991,0,0,1,.662-3.1A5.165,5.165,0,0,1,60.317-11.1a4.656,4.656,0,0,1,2.579-.77,4.363,4.363,0,0,1,3.532,1.5,6.48,6.48,0,0,1,1.26,4.285v.829H59.795A4.141,4.141,0,0,0,60.8-2.471,3.164,3.164,0,0,0,63.251-1.41a3.469,3.469,0,0,0,1.787-.431,4.491,4.491,0,0,0,1.281-1.141l1.217.947A4.892,4.892,0,0,1,63.143.215ZM62.9-10.229a2.657,2.657,0,0,0-2.024.878,4.265,4.265,0,0,0-1.012,2.46h5.836v-.151a3.794,3.794,0,0,0-.818-2.353A2.5,2.5,0,0,0,62.9-10.229ZM74.664-1.41a2.869,2.869,0,0,0,1.863-.646,2.273,2.273,0,0,0,.883-1.615h1.884A3.612,3.612,0,0,1,78.6-1.766a4.538,4.538,0,0,1-1.7,1.443,4.893,4.893,0,0,1-2.245.538,4.8,4.8,0,0,1-3.785-1.588,6.325,6.325,0,0,1-1.405-4.344v-.334A7.014,7.014,0,0,1,70.1-9.076a4.756,4.756,0,0,1,1.793-2.056,5.092,5.092,0,0,1,2.762-.732,4.672,4.672,0,0,1,3.257,1.174,4.194,4.194,0,0,1,1.384,3.047H77.409A2.745,2.745,0,0,0,76.553-9.5a2.663,2.663,0,0,0-1.9-.727A2.788,2.788,0,0,0,72.3-9.136a5.132,5.132,0,0,0-.834,3.16V-5.6A5.03,5.03,0,0,0,72.3-2.5,2.8,2.8,0,0,0,74.664-1.41Zm9.572-13.06v2.821H86.41v1.54H84.236v7.234a1.617,1.617,0,0,0,.291,1.051,1.223,1.223,0,0,0,.991.35,4.823,4.823,0,0,0,.947-.129V0a5.809,5.809,0,0,1-1.529.214,2.481,2.481,0,0,1-2.013-.808,3.469,3.469,0,0,1-.678-2.293V-10.11H80.123v-1.54h2.121v-2.821Zm3.559,8.538a6.881,6.881,0,0,1,.673-3.079,5.02,5.02,0,0,1,1.873-2.11,5.1,5.1,0,0,1,2.74-.743,4.913,4.913,0,0,1,3.849,1.647A6.338,6.338,0,0,1,98.4-5.836v.14a6.941,6.941,0,0,1-.651,3.052,4.946,4.946,0,0,1-1.863,2.1A5.158,5.158,0,0,1,93.1.215a4.9,4.9,0,0,1-3.838-1.647,6.306,6.306,0,0,1-1.47-4.361Zm2,.237a4.984,4.984,0,0,0,.9,3.112A2.877,2.877,0,0,0,93.1-1.41,2.86,2.86,0,0,0,95.515-2.6a5.45,5.45,0,0,0,.894-3.332,4.975,4.975,0,0,0-.91-3.106,2.892,2.892,0,0,0-2.417-1.19A2.86,2.86,0,0,0,90.7-9.055,5.41,5.41,0,0,0,89.8-5.7Z" transform="translate(769.601 3985.853)"/>
    <path id="Trazado_733142" data-name="Trazado 733142" d="M13.351-4.974a5.768,5.768,0,0,1-1.836,3.838A6.016,6.016,0,0,1,7.408.215,5.524,5.524,0,0,1,2.956-1.777a8.014,8.014,0,0,1-1.674-5.33V-8.614a8.932,8.932,0,0,1,.781-3.844A5.831,5.831,0,0,1,4.274-15a6.161,6.161,0,0,1,3.316-.888A5.665,5.665,0,0,1,11.6-14.5a5.837,5.837,0,0,1,1.755,3.86H11.273A4.5,4.5,0,0,0,10.1-13.359,3.535,3.535,0,0,0,7.591-14.2a3.7,3.7,0,0,0-3.106,1.466,6.728,6.728,0,0,0-1.125,4.17v1.519A6.916,6.916,0,0,0,4.425-2.984,3.444,3.444,0,0,0,7.408-1.475a3.978,3.978,0,0,0,2.643-.781,4.332,4.332,0,0,0,1.222-2.719Zm1.981-.958A6.881,6.881,0,0,1,16-9.012a5.02,5.02,0,0,1,1.873-2.11,5.1,5.1,0,0,1,2.74-.743,4.913,4.913,0,0,1,3.849,1.647,6.338,6.338,0,0,1,1.47,4.382v.14a6.941,6.941,0,0,1-.651,3.052,4.946,4.946,0,0,1-1.863,2.1A5.158,5.158,0,0,1,20.64.215,4.9,4.9,0,0,1,16.8-1.432a6.306,6.306,0,0,1-1.47-4.361Zm2,.237a4.984,4.984,0,0,0,.9,3.112A2.877,2.877,0,0,0,20.64-1.41,2.86,2.86,0,0,0,23.052-2.6a5.45,5.45,0,0,0,.894-3.332,4.975,4.975,0,0,0-.91-3.106,2.892,2.892,0,0,0-2.417-1.19,2.86,2.86,0,0,0-2.379,1.174A5.409,5.409,0,0,0,17.335-5.7ZM34.066-9.862a5.969,5.969,0,0,0-.98-.075,2.625,2.625,0,0,0-2.659,1.669V0H28.435V-11.65h1.938l.032,1.346a3.1,3.1,0,0,1,2.778-1.561,2.035,2.035,0,0,1,.883.151Zm7.461,0a5.969,5.969,0,0,0-.98-.075,2.625,2.625,0,0,0-2.659,1.669V0H35.9V-11.65h1.938l.032,1.346a3.1,3.1,0,0,1,2.778-1.561,2.035,2.035,0,0,1,.883.151ZM47.79.215A5.09,5.09,0,0,1,43.935-1.34,5.774,5.774,0,0,1,42.449-5.5v-.366a6.991,6.991,0,0,1,.662-3.1A5.165,5.165,0,0,1,44.963-11.1a4.656,4.656,0,0,1,2.579-.77,4.363,4.363,0,0,1,3.532,1.5,6.48,6.48,0,0,1,1.26,4.285v.829H44.441a4.141,4.141,0,0,0,1.007,2.783A3.164,3.164,0,0,0,47.9-1.41a3.469,3.469,0,0,0,1.787-.431,4.491,4.491,0,0,0,1.281-1.141l1.217.947A4.892,4.892,0,0,1,47.79.215Zm-.248-10.444a2.657,2.657,0,0,0-2.024.878,4.265,4.265,0,0,0-1.012,2.46h5.836v-.151a3.794,3.794,0,0,0-.818-2.353A2.5,2.5,0,0,0,47.542-10.229ZM59.31-1.41a2.869,2.869,0,0,0,1.863-.646,2.273,2.273,0,0,0,.883-1.615H63.94a3.612,3.612,0,0,1-.689,1.906,4.538,4.538,0,0,1-1.7,1.443A4.893,4.893,0,0,1,59.31.215a4.8,4.8,0,0,1-3.785-1.588,6.325,6.325,0,0,1-1.405-4.344v-.334a7.014,7.014,0,0,1,.624-3.025,4.756,4.756,0,0,1,1.793-2.056,5.092,5.092,0,0,1,2.762-.732,4.672,4.672,0,0,1,3.257,1.174A4.194,4.194,0,0,1,63.94-7.644H62.056A2.745,2.745,0,0,0,61.2-9.5a2.663,2.663,0,0,0-1.9-.727,2.788,2.788,0,0,0-2.353,1.093,5.132,5.132,0,0,0-.834,3.16V-5.6a5.03,5.03,0,0,0,.829,3.1A2.8,2.8,0,0,0,59.31-1.41Zm9.572-13.06v2.821h2.175v1.54H68.882v7.234a1.617,1.617,0,0,0,.291,1.051,1.223,1.223,0,0,0,.991.35,4.823,4.823,0,0,0,.947-.129V0a5.809,5.809,0,0,1-1.529.214,2.481,2.481,0,0,1-2.013-.808,3.469,3.469,0,0,1-.678-2.293V-10.11H64.769v-1.54H66.89v-2.821Zm3.559,8.538a6.881,6.881,0,0,1,.673-3.079,5.02,5.02,0,0,1,1.873-2.11,5.1,5.1,0,0,1,2.74-.743,4.913,4.913,0,0,1,3.849,1.647,6.338,6.338,0,0,1,1.47,4.382v.14A6.941,6.941,0,0,1,82.4-2.643a4.946,4.946,0,0,1-1.863,2.1,5.158,5.158,0,0,1-2.783.754,4.9,4.9,0,0,1-3.838-1.647,6.306,6.306,0,0,1-1.47-4.361Zm2,.237a4.984,4.984,0,0,0,.9,3.112A2.877,2.877,0,0,0,77.749-1.41,2.86,2.86,0,0,0,80.161-2.6a5.45,5.45,0,0,0,.894-3.332,4.975,4.975,0,0,0-.91-3.106,2.892,2.892,0,0,0-2.417-1.19,2.86,2.86,0,0,0-2.379,1.174A5.41,5.41,0,0,0,74.444-5.7Z" transform="translate(1096.126 3946.712)"/>
    <g id="Grupo_984398" data-name="Grupo 984398" transform="translate(328.774 3513)">
      <g id="Grupo_984397" data-name="Grupo 984397" clip-path="url(#clip-path)">
        <rect id="Rectángulo_345068" data-name="Rectángulo 345068" width="197" height="75" transform="translate(11.614 113.158)" fill="none" stroke="#b20d0d" stroke-miterlimit="10" stroke-width="2"/>
        <path id="Trazado_725538" data-name="Trazado 725538" d="M109.964,113.658H11.313l49.326-23.75,49.325-23.75,49.325,23.75,49.326,23.75Z" fill="none" stroke="#b20d0d" stroke-miterlimit="10" stroke-width="2.402"/>
        <path id="Trazado_725539" data-name="Trazado 725539" d="M97.9,71.967V61.11l13.714-10.951,13,9.9V72.812l-14.651-6.653Z" fill="none" stroke="#b20d0d" stroke-miterlimit="10" stroke-width="2.402"/>
        <path id="Trazado_725540" data-name="Trazado 725540" d="M91.614,64.158l20-14,18,14" fill="none" stroke="#b20d0d" stroke-miterlimit="10" stroke-width="2.402"/>
        <path id="Trazado_725541" data-name="Trazado 725541" d="M246.614,422.658H94.026c-2.029,0-4.176-.2-6.2,0-.088.009-.183,0-.272,0l1.5,1.5v-34.5l-1.5,1.5H240.144c2.029,0,4.176.2,6.2,0,.088-.009.183,0,.272,0l-1.5-1.5v34.5a1.5,1.5,0,0,0,3,0v-34.5a1.522,1.522,0,0,0-1.5-1.5H107.076c-6.4,0-12.845-.2-19.248,0-.09,0-.181,0-.272,0a1.522,1.522,0,0,0-1.5,1.5v34.5a1.522,1.522,0,0,0,1.5,1.5H227.094c6.4,0,12.845.2,19.248,0,.09,0,.181,0,.272,0a1.5,1.5,0,0,0,0-3" fill="#b20d0d"/>
        <path id="Trazado_725542" data-name="Trazado 725542" d="M166.964,387.658H87.313q.379,1.4.757,2.8l13.5-6.506,21.39-10.306,8.029-3.869,20.391-9.824,10.365-4.994c1.878-.9,3.893-1.7,5.7-2.745.087-.05.185-.089.276-.133h-1.514l13.5,6.506L201.1,368.889l8.029,3.868,20.391,9.825,10.365,4.994c1.868.9,3.749,2.023,5.7,2.744.094.035.185.089.276.133q.378-1.4.757-2.8H166.964a1.5,1.5,0,0,0,0,3h79.651c1.413,0,2.141-2.128.757-2.795l-13.61-6.558-21.437-10.328-8.069-3.888-20.64-9.945c-5.23-2.52-10.43-5.117-15.7-7.562-1.331-.618-2.651.356-3.865.941l-8.34,4.018-22.159,10.677-8.765,4.223-19,9.152-18.211,8.774-1.028.5c-1.382.666-.657,2.795.757,2.795h79.651a1.5,1.5,0,0,0,0-3" fill="#b20d0d"/>
        <path id="Trazado_725543" data-name="Trazado 725543" d="M158.724,354.275v-6.53q-.372.648-.743,1.3l11.073-6.586h-1.515l10.5,5.956q-.372-.646-.743-1.3v7.668l1.9-1.446-9.625-3.256c-.938-.318-2.13-.976-3.135-.7-1.636.453-3.241,1.163-4.837,1.735l-4.769,1.711c-1.8.647-1.026,3.547.8,2.892l9.177-3.291a2.554,2.554,0,0,0,.513-.184c-.031.15-1-.244-.587.036a7.479,7.479,0,0,0,1.65.559l5.815,1.967,4.2,1.422a1.513,1.513,0,0,0,1.9-1.447v-7.668a1.506,1.506,0,0,0-.743-1.295l-10.5-5.957a1.518,1.518,0,0,0-1.515,0l-7.263,4.321c-1.186.706-2.392,1.387-3.562,2.119s-.99,1.857-.99,3.072v4.9a1.5,1.5,0,0,0,3,0" fill="#b20d0d"/>
        <path id="Trazado_725544" data-name="Trazado 725544" d="M152.9,350.874l16.148-8.42h-1.514l14.533,8.42a1.5,1.5,0,0,0,1.514-2.59L170.15,340.5c-.864-.5-1.558-1.074-2.611-.636-.528.22-1.034.54-1.541.8l-8.282,4.319-6.325,3.3c-1.713.893-.2,3.483,1.514,2.59" fill="#b20d0d"/>
        <path id="Trazado_725545" data-name="Trazado 725545" d="M533.614,580.658H381.026c-2.029,0-4.176-.2-6.2,0-.088.009-.183,0-.272,0l1.5,1.5v-34.5l-1.5,1.5H527.144c2.029,0,4.176.2,6.2,0,.088-.009.182,0,.272,0l-1.5-1.5v34.5a1.5,1.5,0,0,0,3,0v-34.5a1.522,1.522,0,0,0-1.5-1.5H394.076c-6.4,0-12.845-.2-19.248,0-.09,0-.181,0-.272,0a1.522,1.522,0,0,0-1.5,1.5v34.5a1.522,1.522,0,0,0,1.5,1.5H514.094c6.405,0,12.845.2,19.248,0,.09,0,.181,0,.272,0a1.5,1.5,0,0,0,0-3" fill="#b20d0d"/>
        <path id="Trazado_725546" data-name="Trazado 725546" d="M453.964,545.658H374.313q.38,1.4.757,2.795l13.5-6.506,21.391-10.306,8.029-3.869,20.391-9.824,10.365-4.994c1.878-.9,3.893-1.695,5.7-2.745.087-.05.185-.089.276-.133h-1.514l13.5,6.506L488.1,526.889l8.029,3.868,20.391,9.825,10.365,4.994c1.868.9,3.749,2.023,5.7,2.744.094.035.185.089.276.133q.378-1.4.757-2.795H453.964a1.5,1.5,0,0,0,0,3h79.651c1.413,0,2.141-2.128.757-2.8l-13.61-6.558-21.437-10.328-8.069-3.888-20.64-9.945c-5.23-2.52-10.43-5.117-15.7-7.562-1.331-.618-2.651.356-3.865.941l-8.34,4.018-22.159,10.677-8.765,4.223-19,9.152-18.211,8.774q-.513.249-1.028.5c-1.382.666-.657,2.8.757,2.8h79.651a1.5,1.5,0,0,0,0-3" fill="#b20d0d"/>
        <path id="Trazado_725547" data-name="Trazado 725547" d="M445.724,512.275v-6.53q-.372.648-.743,1.3l11.073-6.586h-1.515l10.5,5.956q-.372-.646-.743-1.3v7.668l1.9-1.446-9.625-3.256c-.938-.318-2.13-.976-3.135-.7-1.636.453-3.241,1.163-4.837,1.735l-4.769,1.711c-1.8.647-1.026,3.547.8,2.892l9.178-3.291a2.566,2.566,0,0,0,.512-.184c-.031.15-1-.244-.587.036a7.479,7.479,0,0,0,1.65.559l5.815,1.967,4.2,1.422a1.513,1.513,0,0,0,1.9-1.447v-7.668a1.506,1.506,0,0,0-.743-1.295l-10.5-5.957a1.518,1.518,0,0,0-1.515,0l-7.263,4.321c-1.186.706-2.392,1.387-3.562,2.119s-.99,1.857-.99,3.072v4.9a1.5,1.5,0,0,0,3,0" fill="#b20d0d"/>
        <path id="Trazado_725548" data-name="Trazado 725548" d="M439.9,508.874l16.148-8.42h-1.514l14.533,8.42a1.5,1.5,0,0,0,1.514-2.59L457.15,498.5c-.864-.5-1.558-1.074-2.611-.636-.528.22-1.034.539-1.541.8l-8.282,4.319-6.325,3.3c-1.713.893-.2,3.483,1.514,2.59" fill="#b20d0d"/>
        <path id="Trazado_725549" data-name="Trazado 725549" d="M799.614,498.658H647.026c-2.029,0-4.176-.2-6.2,0-.088.009-.183,0-.272,0l1.5,1.5v-34.5l-1.5,1.5H793.144c2.029,0,4.176.2,6.2,0,.088-.009.182,0,.272,0l-1.5-1.5v34.5a1.5,1.5,0,0,0,3,0v-34.5a1.522,1.522,0,0,0-1.5-1.5H660.076c-6.4,0-12.845-.2-19.248,0-.09,0-.181,0-.272,0a1.522,1.522,0,0,0-1.5,1.5v34.5a1.522,1.522,0,0,0,1.5,1.5H780.094c6.405,0,12.845.2,19.248,0,.09,0,.181,0,.272,0a1.5,1.5,0,0,0,0-3" fill="#b20d0d"/>
        <path id="Trazado_725550" data-name="Trazado 725550" d="M719.964,463.658H640.313q.379,1.4.757,2.8l13.5-6.506,21.391-10.306,8.029-3.869,20.391-9.824,10.365-4.994c1.878-.9,3.893-1.7,5.7-2.745.087-.05.185-.089.276-.133h-1.514l13.5,6.506L754.1,444.889l8.029,3.868,20.391,9.825,10.365,4.994c1.868.9,3.749,2.023,5.7,2.744.094.035.185.089.276.133q.378-1.4.757-2.8H719.964a1.5,1.5,0,0,0,0,3h79.651c1.413,0,2.141-2.128.757-2.795l-13.61-6.558-21.437-10.328-8.069-3.888-20.64-9.945c-5.23-2.52-10.43-5.117-15.7-7.562-1.331-.618-2.651.356-3.865.941l-8.34,4.018-22.159,10.677-8.765,4.223-19,9.152q-9.105,4.388-18.211,8.774l-1.028.5c-1.382.666-.657,2.795.757,2.795h79.651a1.5,1.5,0,0,0,0-3" fill="#b20d0d"/>
        <path id="Trazado_725551" data-name="Trazado 725551" d="M711.724,430.275v-6.53q-.372.648-.743,1.3l11.073-6.586h-1.515l10.5,5.956q-.372-.646-.743-1.3v7.668l1.9-1.446-9.625-3.256c-.938-.318-2.13-.976-3.135-.7-1.636.453-3.241,1.163-4.837,1.735l-4.769,1.711c-1.8.647-1.026,3.547.8,2.892l9.177-3.291a2.553,2.553,0,0,0,.513-.184c-.031.15-1-.244-.587.036a7.479,7.479,0,0,0,1.65.559l5.815,1.967,4.2,1.422a1.513,1.513,0,0,0,1.9-1.447v-7.668a1.506,1.506,0,0,0-.743-1.295l-10.5-5.957a1.518,1.518,0,0,0-1.515,0l-7.263,4.321c-1.186.706-2.392,1.387-3.562,2.119s-.99,1.857-.99,3.072v4.9a1.5,1.5,0,0,0,3,0" fill="#b20d0d"/>
        <path id="Trazado_725552" data-name="Trazado 725552" d="M705.905,426.874l16.148-8.42h-1.514l14.533,8.42a1.5,1.5,0,0,0,1.514-2.59L723.15,416.5c-.864-.5-1.558-1.074-2.611-.636-.529.22-1.034.539-1.541.8l-8.282,4.319-6.325,3.3c-1.713.893-.2,3.483,1.514,2.59" fill="#b20d0d"/>
        <rect id="Rectángulo_345069" data-name="Rectángulo 345069" width="197" height="75" transform="translate(338.614 113.158)" fill="none" stroke="#b20d0d" stroke-miterlimit="10" stroke-width="2"/>
        <path id="Trazado_725553" data-name="Trazado 725553" d="M436.964,113.658H338.313l49.326-23.75,49.325-23.75,49.325,23.75,49.326,23.75Z" fill="none" stroke="#b20d0d" stroke-miterlimit="10" stroke-width="2.402"/>
        <path id="Trazado_725554" data-name="Trazado 725554" d="M424.9,71.967V61.11l13.714-10.951,13,9.9V72.812l-14.651-6.653Z" fill="none" stroke="#b20d0d" stroke-miterlimit="10" stroke-width="2.402"/>
        <path id="Trazado_725555" data-name="Trazado 725555" d="M418.614,64.158l20-14,18,14" fill="none" stroke="#b20d0d" stroke-miterlimit="10" stroke-width="2.402"/>
        <path id="Trazado_725556" data-name="Trazado 725556" d="M56.952,65.673l2.842,3.805,7.687,10.29L78.9,95.059l13.942,18.665,15.274,20.447,15.344,20.541,14.378,19.249,12.15,16.266q4.352,5.823,8.7,11.647c1.384,1.853,2.762,3.71,4.152,5.558l.179.241a3.094,3.094,0,0,0,4.105,1.076c1.277-.747,2.052-2.8,1.076-4.1q-1.42-1.9-2.842-3.805l-7.687-10.291-11.422-15.291-13.942-18.664-15.274-20.447q-7.671-10.272-15.344-20.542L87.315,96.356,75.165,80.091l-8.7-11.648c-1.384-1.852-2.762-3.709-4.151-5.557l-.18-.241a3.1,3.1,0,0,0-4.1-1.077c-1.277.748-2.051,2.8-1.076,4.1" fill="#ffc403"/>
        <path id="Trazado_725557" data-name="Trazado 725557" d="M162.274,62.09l-2.8,3.834-7.578,10.371L140.633,91.706l-13.745,18.81-15.057,20.607q-7.564,10.35-15.127,20.7l-14.175,19.4L70.55,187.616l-8.577,11.739c-1.36,1.86-2.813,3.683-4.093,5.6-.055.083-.118.162-.177.242a3.022,3.022,0,0,0,1.076,4.1,3.069,3.069,0,0,0,4.1-1.076l2.8-3.835,7.579-10.371,11.26-15.41L98.269,159.8l15.058-20.607,15.127-20.7,14.175-19.4L154.607,82.7l8.578-11.739c1.359-1.861,2.812-3.684,4.092-5.6.056-.083.119-.162.178-.243a3.022,3.022,0,0,0-1.076-4.1,3.069,3.069,0,0,0-4.1,1.076" fill="#ffc403"/>
        <path id="Trazado_725558" data-name="Trazado 725558" d="M399.845,188.158V150.191a1.5,1.5,0,0,0-3,0v37.967a1.5,1.5,0,0,0,3,0" fill="#b20d0d"/>
        <path id="Trazado_725559" data-name="Trazado 725559" d="M479.845,188.158V150.191a1.5,1.5,0,0,0-3,0v37.967a1.5,1.5,0,0,0,3,0" fill="#b20d0d"/>
        <path id="Trazado_725560" data-name="Trazado 725560" d="M384.789,123.937q2.484,3.578,4.971,7.156l12.016,17.294q7.24,10.419,14.478,20.837l12.582,18.109c2.032,2.924,4.025,5.881,6.1,8.776.03.042.058.086.088.129a3.053,3.053,0,0,0,5.181,0l2.77-3.688,7.487-9.973,11.128-14.82,13.58-18.09,14.8-19.716,15.017-20q7-9.325,14-18.65,5.891-7.844,11.777-15.687,4.26-5.671,8.516-11.343c1.34-1.782,2.778-3.525,4.033-5.369.052-.079.114-.153.172-.229.972-1.3.208-3.353-1.078-4.1a3.071,3.071,0,0,0-4.1,1.076l-2.769,3.688-7.487,9.973-11.128,14.82q-6.791,9.045-13.58,18.089l-14.8,19.716q-7.508,10-15.018,20l-14,18.65-11.779,15.687q-4.256,5.672-8.515,11.342c-1.339,1.783-2.78,3.524-4.032,5.37-.053.078-.114.153-.172.228H440.2q-2.486-3.577-4.971-7.155l-12.017-17.295q-7.238-10.418-14.478-20.836l-12.582-18.109c-2.031-2.925-4.023-5.881-6.1-8.776l-.089-.129a3.08,3.08,0,0,0-4.105-1.077,3.026,3.026,0,0,0-1.076,4.1" fill="#ffc403"/>
        <path id="Trazado_725561" data-name="Trazado 725561" d="M66.4,459.873c1.409-9.159,13.94-9.15,21.013-9.333l34.08-.878,68.159-1.756,34.08-.879c5.123-.132,10.732-.924,15.813-.2,7.4,1.058,5.635,7.917,4.985,13.267-2.124,17.472,14.857,22.306,28.656,25.233,8.6,1.825,17.345,4.646,21.357,13.2,3.315,7.07,3,15.371,3.043,22.994.069,13.472.954,28.65,15.3,34.537,7.693,3.157,16.126,2.718,24.239,3.564,9.376.977,21.224,5.2,21.115,16.6-.081,8.459-11.737,9.394-11.585,18.076.119,6.808,6.095,11.4,12.212,12.8,4.564,1.045,9.362.836,14.008.856l17.334.077,32.934.145,68.469.3c17.066.075,36.146,2.163,52.508-3.936,5.905-2.2,11.331-5.648,15.085-10.795,5.309-7.281,5.2-16.843,10.057-24.28,9.9-15.178,32.532-6.048,47.149-7.938,6.228-.806,12.9-2.857,17.218-7.678,5.375-6,2.877-12.788,4.792-19.828,1.595-5.867,7.819-5.809,12.808-5.94q9.094-.242,18.191-.452l33.783-.839,67.566-1.678c11.115-.276,22.356-.091,33.446-.9,7.059-.516,13.978-2.618,17.276-9.417,3.352-6.908,1.206-15.948,5.609-22.292,3.764-5.422,11.481-6.255,17.49-6.948,5.936-.684,12.169-.9,17.814-3.046,6.308-2.395,12.925-7.022,16.815-12.578a19.933,19.933,0,0,0,3.56-10.1c.406-5.478-1.13-11.134.6-16.486,3.484-10.786,16.184-13.9,26.059-15.015,10.309-1.169,21.068-2.256,31.166.7,1.857.543,2.65-2.351.8-2.893-9.938-2.909-20.283-1.989-30.443-.965-8.364.843-17.08,2.309-23.74,7.843-7.179,5.965-7.776,13.3-7.441,22.093.2,5.4-.536,10.25-4.066,14.508a37.865,37.865,0,0,1-12.131,9.094c-10.924,5.507-25.124,1.282-35.352,8.526-4.982,3.529-6.079,8.877-6.859,14.609-.615,4.527-.926,9.655-3.653,13.519-3.377,4.785-9.429,5.643-14.841,5.927-22.777,1.192-45.686,1.16-68.488,1.726l-68.432,1.7c-5.485.136-10.975.22-16.458.409-3.445.118-7.2.281-10.127,2.34-6.706,4.721-3,13.771-5.465,20.3-2.988,7.9-12.573,10.435-20.146,11.038-8.127.647-16.2-1.21-24.327-1.084-7.209.111-14.834,1.548-20.093,6.875-6.332,6.414-6.527,15.813-10.276,23.563-7.447,15.39-27.209,17.2-42.271,17.4-45.635.6-91.345-.375-136.984-.576-8.874-.039-26.857,2.7-29.879-8.9-1.391-5.339,3.105-7.457,6.518-10.274a12.2,12.2,0,0,0,4.706-8.3c.675-6.264-2.938-12.632-8.057-16.069-7.315-4.91-16.635-4.845-25.076-5.444-9.336-.662-19.435-2.685-24.107-11.77-3.538-6.879-3.29-15.167-3.329-22.694-.073-14.212-.882-29.594-15.853-35.977-7.671-3.27-16.2-3.409-23.954-6.379-3.949-1.514-7.952-3.752-10.653-7.087-3.488-4.307-2.958-8.948-2.293-14.081.848-6.548.058-13.058-7.675-14.144-4.76-.668-9.891,0-14.678.124L208,444.433l-69.907,1.8-34.08.879c-9.33.24-19.434-.629-28.579,1.555-5.545,1.325-10.991,4.3-11.93,10.407-.29,1.889,2.6,2.7,2.893.8" fill="#b20d0d"/>
        <path id="Trazado_725562" data-name="Trazado 725562" d="M650.114,560.658H820.255a132.155,132.155,0,0,1,16.758.736,87.777,87.777,0,0,1,43.631,18.535,85.483,85.483,0,0,1,15.3,16,79.394,79.394,0,0,1,5.637,9.01,63.365,63.365,0,0,1,4.062,9.108,65.164,65.164,0,0,1,2.58,9.41,3.029,3.029,0,0,0,3.69,2.1,3.063,3.063,0,0,0,2.1-3.691c-2.777-14.253-10.353-27.359-20.214-37.893a93.174,93.174,0,0,0-41.012-25.3,102.093,102.093,0,0,0-29.535-4.006h-161c-3.871,0-7.745-.047-11.616,0-.173,0-.346,0-.519,0-3.861,0-3.867,6,0,6" fill="#b20d0d"/>
        <path id="Trazado_725563" data-name="Trazado 725563" d="M650.614,577.658H814.548a112.815,112.815,0,0,1,16.746.874,83.287,83.287,0,0,1,41.465,18.846c10.6,9.064,19.065,20.779,23.479,33.664a67.063,67.063,0,0,1,2.483,9.414,3.029,3.029,0,0,0,3.69,2.1,3.065,3.065,0,0,0,2.1-3.691c-2.621-13.989-9.725-26.948-19.136-37.521A89.3,89.3,0,0,0,846.59,576a93.8,93.8,0,0,0-29.278-4.34H662.42c-3.768,0-7.539-.045-11.307,0-.166,0-.333,0-.5,0-3.861,0-3.867,6,0,6" fill="#b20d0d"/>
        <path id="Trazado_725564" data-name="Trazado 725564" d="M388.614,467.708v-8.526L396,463.445l7.383,4.263L396,471.971l-7.384,4.263Z" fill="#b20d0d"/>
        <path id="Trazado_725565" data-name="Trazado 725565" d="M372.089,498.281l5.112-6.823,3.353,7.838,3.353,7.839-8.465-1.015-8.465-1.016Z" fill="#b20d0d"/>
        <path id="Trazado_725566" data-name="Trazado 725566" d="M358.089,515.281l5.112-6.823,3.353,7.838,3.353,7.839-8.465-1.015-8.465-1.016Z" fill="#b20d0d"/>
        <path id="Trazado_725567" data-name="Trazado 725567" d="M299.614,380.658c11.391,1.48,23.145,5,31.624,13.119,6.369,6.1,10.071,14.142,12.436,22.52,2.326,8.238,3.469,16.743,5.564,25.035,1.858,7.356,4.649,14.91,10.374,20.163,7.155,6.564,17.207,8.134,26.586,7.952,1.619-.031,3.237-.118,4.851-.24,1.913-.145,1.929-3.146,0-3-9.438.715-20.374.292-27.994-5.706-5.925-4.664-8.731-11.685-10.63-18.831-2.19-8.237-3.312-16.716-5.522-24.949-2.307-8.6-5.873-16.952-12.02-23.524-7.8-8.338-18.767-12.669-29.8-14.7-1.815-.333-3.639-.6-5.468-.84-1.909-.248-1.891,2.754,0,3" fill="#b20d0d"/>
        <path id="Trazado_725568" data-name="Trazado 725568" d="M282.614,411.658c11.391,1.48,23.145,5,31.624,13.119,6.369,6.1,10.071,14.142,12.436,22.52,2.326,8.238,3.469,16.743,5.564,25.035,1.858,7.356,4.649,14.91,10.374,20.163,7.155,6.564,17.207,8.134,26.586,7.952,1.619-.031,3.237-.118,4.851-.24,1.913-.145,1.929-3.146,0-3-9.438.715-20.374.292-27.994-5.706-5.925-4.664-8.731-11.685-10.63-18.831-2.19-8.237-3.312-16.716-5.522-24.949-2.307-8.6-5.873-16.952-12.02-23.524-7.8-8.338-18.767-12.669-29.8-14.7-1.815-.333-3.639-.6-5.468-.84-1.909-.248-1.891,2.754,0,3" fill="#b20d0d"/>
        <path id="Trazado_725569" data-name="Trazado 725569" d="M267.614,427.658c11.391,1.48,23.145,5,31.624,13.119,6.369,6.1,10.071,14.142,12.436,22.52,2.326,8.238,3.469,16.743,5.564,25.035,1.858,7.356,4.649,14.91,10.374,20.163,7.155,6.564,17.207,8.134,26.586,7.952,1.619-.031,3.237-.118,4.851-.24,1.913-.145,1.929-3.146,0-3-9.438.715-20.374.292-27.994-5.706-5.925-4.664-8.731-11.685-10.63-18.831-2.19-8.237-3.312-16.716-5.522-24.949-2.307-8.6-5.873-16.952-12.02-23.524-7.8-8.338-18.767-12.669-29.8-14.7-1.815-.333-3.639-.6-5.468-.84-1.909-.248-1.891,2.754,0,3" fill="#b20d0d"/>
      </g>
    </g>
  </g>
</svg>
