<svg xmlns="http://www.w3.org/2000/svg" xmlns:xlink="http://www.w3.org/1999/xlink" width="118" height="118" viewBox="0 0 118 118">
  <defs>
    <clipPath id="clip-path">
      <rect id="Rectángulo_345267" data-name="Rectángulo 345267" width="80.248" height="85.699" fill="none"/>
    </clipPath>
  </defs>
  <g id="Grupo_997442" data-name="Grupo 997442" transform="translate(-22696 9638.374)">
    <circle id="Elipse_5929" data-name="Elipse 5929" cx="59" cy="59" r="59" transform="translate(22696 -9638.374)" fill="#ffc403"/>
    <g id="Grupo_984702" data-name="Grupo 984702" transform="translate(22714.945 -9621.853)">
      <g id="Grupo_984701" data-name="Grupo 984701" clip-path="url(#clip-path)">
        <path id="Trazado_726030" data-name="Trazado 726030" d="M52.042.012c2.446,0,4.893.027,7.338-.01,1.549-.023,2.245.676,2.206,2.218s-.014,3.113-.012,4.669a1.771,1.771,0,0,1-1.953,1.979c-1.278.032-2.559-.023-3.835.038-2,.1-2.536,1.032-1.657,2.816.86,1.745,1.7,3.5,2.615,5.217.582,1.094-.063,1.476-.878,1.884s-1.5.743-2.028-.407c-.718-1.565-1.5-3.1-2.317-4.619-.258-.478-.29-1.435-1.088-1.2a1.9,1.9,0,0,0-1.524,1.6c-.139,2.048-.368,4.094,1.673,5.561,1.025.737,1.766,1.855,2.748,2.666,1.875,1.548,3.025,3.338,2.587,5.892-.185,1.076.391,1.5,1.451,1.462,1.166-.043,2.334-.006,3.5,0a2.024,2.024,0,0,1,2.24,2.147c.063,1.5.038,3,.027,4.5-.012,1.552-.818,2.492-2.363,2.364-1.75-.145-2.312.632-2.5,2.227-.707,5.952-1.5,11.895-2.268,17.84-.068.525-.117.974.5,1.244,2.651,1.166,5.322,2.054,8.173.667a14.183,14.183,0,0,1,8.013-.923,8.785,8.785,0,0,1,7.5,8.7c.084,2.777.073,5.56.006,8.337a8.805,8.805,0,0,1-8.975,8.793A16.4,16.4,0,0,1,63.91,84.4a6.5,6.5,0,0,0-5.652.276c-2.74,1.318-5.639,1.063-8.517.844a4.6,4.6,0,0,1-2.891-1.192c-1.368-1.369-2.983-1.425-4.747-1.417-9.617.044-19.235.023-28.853.019-2.714,0-3.012-.181-3.362-2.773-1.112-8.251-2.16-16.51-3.235-24.766C5.994,50.33,5.306,45.27,4.69,40.2c-.118-.975-.5-1.315-1.457-1.375C.207,38.636,0,38.38,0,35.3c0-1.112-.011-2.224.017-3.335a2.017,2.017,0,0,1,2.2-2.181c.777-.025,1.556-.015,2.334-.017,2.521-.006,2.523-.005,2.528-2.45,0-2.335.03-4.67-.009-7a4.67,4.67,0,0,1,1.344-3.8A13.718,13.718,0,0,0,12.957,3.524a8.825,8.825,0,0,1,.015-1.832,1.575,1.575,0,0,1,1.7-1.659C17.4.009,20.123,0,22.847.037c1.269.016,1.709.845,1.709,2,0,2.39.04,4.781-.009,7.17a3.5,3.5,0,0,0,1.023,2.875A14.757,14.757,0,0,1,30.442,26a16.6,16.6,0,0,0-.006,2.5c0,.79.317,1.256,1.188,1.248.919-.009,1.1-.575,1.095-1.324a15.424,15.424,0,0,0-.01-2.166,6.667,6.667,0,0,1,2.855-6.805,3.626,3.626,0,0,0,1.49-3.481c-.076-.955-.348-1.368-1.368-1.421-2.785-.144-3.14-.635-2.725-3.392A12.784,12.784,0,0,1,45.7.014c2.113-.017,4.225,0,6.338,0M28,79.727q6.753,0,13.506,0c.821,0,1.6.036,1.421-1.213a62.08,62.08,0,0,1-.181-9.986,8.664,8.664,0,0,1,8.491-8.753c1.064-.061,1.447-.448,1.571-1.451Q53.945,49.155,55.161,40c.131-.985-.356-1.152-1.131-1.151q-6.253.006-12.506,0c-.9,0-1.273.369-1.316,1.3A2.123,2.123,0,0,0,41.562,42.5c2.124.963,4.206,2.026,6.26,3.132a4.75,4.75,0,0,1,2.211,6.5,4.681,4.681,0,0,1-6.41,2.053,21.932,21.932,0,0,1-2.089-1.038c-1.079-.623-1.329-.2-1.318.874.033,3.223.024,6.447.007,9.67-.023,4.066-2.214,6.26-6.313,6.287-4.224.028-8.448.014-12.672.006-4.815-.009-6.922-2.1-6.925-6.889-.006-7.5-.024-15.006.018-22.508.007-1.28-.389-1.855-1.714-1.766a30.48,30.48,0,0,1-3.167.006c-1.207-.046-1.641.31-1.461,1.664q2.493,18.729,4.829,37.479c.168,1.348.692,1.789,2.012,1.772,4.39-.058,8.782-.022,13.172-.022M17.518,49.267c0,4.67.007,9.34-.005,14.009a3.77,3.77,0,0,0,.738,2.662c.333.382.736.793,1.267.657.658-.168.457-.811.46-1.274.019-3.169.034-6.338,0-9.506-.011-1.113.225-1.759,1.553-1.776,1.379-.017,1.7.6,1.677,1.819-.049,3.113-.011,6.226-.015,9.339,0,.82-.009,1.56,1.159,1.593,1.22.034,1.325-.673,1.32-1.608-.018-3.113.029-6.227-.02-9.339-.019-1.241.344-1.815,1.7-1.8s1.537.7,1.526,1.792c-.031,3.057-.006,6.115-.01,9.172,0,.916-.1,1.824,1.3,1.785,1.3-.036,1.175-.912,1.176-1.746.007-3.113.035-6.227-.008-9.339-.017-1.218.454-1.67,1.677-1.659,1.166.01,1.56.466,1.546,1.594-.041,3.224-.019,6.449,0,9.673,0,.465-.2,1.1.444,1.288.528.153.932-.26,1.294-.609a3.13,3.13,0,0,0,.731-2.478c0-4.281-.027-8.561.017-12.842.021-2.059,1.089-2.723,2.946-1.882,1.417.642,2.784,1.391,4.187,2.065,1,.481,2.167,1.194,2.891-.218.773-1.506-.547-2.04-1.586-2.57-2.129-1.087-4.246-2.2-6.422-3.188A3.15,3.15,0,0,1,37,41.476c.1-2.108-.057-4.228.051-6.335.079-1.543-.487-2.036-2.008-2.016-5.17.069-10.342.081-15.51-.006-1.651-.028-2.077.582-2.049,2.138.083,4.668.03,9.339.03,14.009M70.268,73.839c.381,0,.882.024,1.381,0a5.1,5.1,0,0,0,5.154-5.21,5.323,5.323,0,0,0-4.968-5.634,12.224,12.224,0,0,0-6.2.855,9.8,9.8,0,0,1-8.4-.019,12.076,12.076,0,0,0-6.2-.83,5.291,5.291,0,0,0-4.911,5.181c-.093,2.876,1.6,5.238,4.21,5.548a12.681,12.681,0,0,0,7.036-.691,9.465,9.465,0,0,1,8.08-.046,9.932,9.932,0,0,0,4.818.851M18.757,29.763c2.219,0,4.44-.045,6.658.017,1.238.035,1.673-.46,1.639-1.669-.061-2.162-.04-4.327-.011-6.49.013-.987-.388-1.389-1.385-1.383q-6.907.038-13.815,0c-1-.006-1.39.411-1.377,1.391.029,2.219.035,4.438,0,6.657-.019,1.061.4,1.5,1.473,1.486,2.274-.039,4.549-.012,6.824-.01m51.31,52.683c4.537.375,6.7-2.3,6.907-5.811.03-.5.288-1.482-.857-.861-3.986,2.164-7.984,1.854-12.015.139a6.42,6.42,0,0,0-5.182-.036c-4.084,1.736-8.136,2.106-12.161-.145-.576-.322-.833-.165-.83.464.016,2.972,1.427,5.7,4.678,6.155a11.563,11.563,0,0,0,6.687-.748,9.75,9.75,0,0,1,8.241-.053,9.22,9.22,0,0,0,4.531.895M44.426,29.763c2.224,0,4.448-.047,6.67.018,1.252.037,1.532-.494,1.652-1.671.194-1.9-1.1-2.79-2.177-3.869-4.2-4.213-4.2-4.208-10.1-3.995a2.006,2.006,0,0,0-1.426.332c-1.566,1.461-3.449,2.734-2.955,5.361a8.726,8.726,0,0,1,.013,2.164c-.08,1.206.411,1.709,1.647,1.676,2.222-.059,4.446-.016,6.67-.016m-2.559-18.4c1.4-.126,3.315.564,4.773-.256a32.5,32.5,0,0,0,5.61-4.4c.845-.763.613-2.022.279-2.992-.291-.845-1.257-.481-1.933-.5-1.829-.038-3.661-.053-5.489.012a9.879,9.879,0,0,0-8.625,6.776c-.341,1.132.071,1.384,1.08,1.358,1.33-.034,2.661-.008,4.3-.008m8.1,24.089q4.073,0,8.146,0c.792,0,1.625.042,1.628-1.123,0-1.137-.792-1.168-1.606-1.169q-8.146,0-16.291,0c-.8,0-1.6-.026-1.609,1.145s.787,1.147,1.586,1.148q4.073,0,8.146,0M24.874,16.935c-1.435-4.628-5.193-3.847-8.585-3.7-2.228.1-2.6,2.272-4.095,3.8,4.355,0,8.227,0,12.1,0a3.408,3.408,0,0,0,.582-.1M21.355,6.757a15.369,15.369,0,0,1,.009-1.639C21.528,3.694,21,3.136,19.5,3.18c-3.779.111-3.315-.326-3.348,3.269-.007.721,0,1.443.015,2.164.009.535.137,1.06.76,1.111,1.32.108,2.772.468,3.926-.168,1.056-.582.285-1.948.5-2.8M8.689,35.448h4.153c.768,0,1.455-.053,1.462-1.108.008-1.011-.6-1.185-1.407-1.184q-4.153.006-8.308,0c-.83,0-1.4.22-1.377,1.212.018.926.579,1.083,1.322,1.079,1.384-.006,2.769,0,4.154,0M42.862,17.009c.662,0,1.326.028,1.986-.007.759-.041.81-.609.81-1.2s-.051-1.174-.808-1.2q-1.9-.055-3.807,0c-.754.022-.81.608-.809,1.2s.047,1.153.807,1.2c.605.035,1.213.007,1.82.007" transform="translate(0 -0.001)"/>
        <path id="Trazado_726031" data-name="Trazado 726031" d="M210.156,198.626c-1.154.15-1.771-.24-1.772-1.515,0-1.177.4-1.7,1.64-1.689,1.138.006,1.774.3,1.76,1.564-.013,1.14-.347,1.837-1.628,1.64" transform="translate(-138.648 -130.023)"/>
      </g>
    </g>
  </g>
</svg>
