<svg xmlns="http://www.w3.org/2000/svg" xmlns:xlink="http://www.w3.org/1999/xlink" width="118" height="118" viewBox="0 0 118 118">
  <defs>
    <clipPath id="clip-path">
      <rect id="Rectángulo_345269" data-name="Rectángulo 345269" width="83.106" height="83.158" fill="#fff"/>
    </clipPath>
  </defs>
  <g id="Grupo_997440" data-name="Grupo 997440" transform="translate(-741 -2079.626)">
    <circle id="Elipse_5927" data-name="Elipse 5927" cx="59" cy="59" r="59" transform="translate(741 2079.626)" fill="#b20d0d"/>
    <g id="Grupo_984706" data-name="Grupo 984706" transform="translate(758.447 2097.419)">
      <g id="Grupo_984705" data-name="Grupo 984705" clip-path="url(#clip-path)">
        <path id="Trazado_726037" data-name="Trazado 726037" d="M.008,41.362C-.245,18.813,18.908-.083,41.7,0a41.929,41.929,0,0,1,41.406,41.88A41.913,41.913,0,0,1,41.261,83.158C18.775,83.029-.44,64.252.008,41.362m77.929.194c-.409-20.427-16.139-36.284-36.4-36.3A35.993,35.993,0,0,0,5.185,41.524,35.972,35.972,0,0,0,41.585,77.9c20.522-.056,35.989-16.155,36.352-36.347" transform="translate(0 0)" fill="#fff"/>
        <path id="Trazado_726038" data-name="Trazado 726038" d="M61.762,93.761a31.8,31.8,0,1,1,31.8-31.69,31.62,31.62,0,0,1-31.8,31.69m.047-5.093c15.108-.391,26.63-11.949,26.582-26.762A26.321,26.321,0,0,0,61.7,35.328,26.325,26.325,0,0,0,35.114,62.013c.047,15.089,11.876,26.352,26.7,26.656" transform="translate(-20.233 -20.379)" fill="#fff"/>
        <path id="Trazado_726039" data-name="Trazado 726039" d="M84.111,118.923c-6.305,0-12.611-.041-18.915.03-1.533.017-2.1-.444-2.075-2.012.076-4.363.06-8.728.007-13.091-.018-1.421.409-1.984,1.94-1.978q19.077.08,38.154,0c1.637-.007,2.01.633,1.99,2.1-.06,4.309-.066,8.621,0,12.929.024,1.512-.439,2.079-2.028,2.059-6.358-.076-12.718-.031-19.077-.031m.106-11.742H72.744c-4.337,0-4.337,0-4.318,4.356.009,2.1.009,2.107,2.2,2.108q11.876.006,23.752,0c1.4,0,2.8-.023,4.2,0,.958.015,1.372-.407,1.335-1.367s0-1.938-.006-2.907c-.005-2.176-.006-2.185-2.122-2.188q-6.786-.009-13.573,0" transform="translate(-42.649 -68.83)" fill="#fff"/>
      </g>
    </g>
  </g>
</svg>
