<svg xmlns="http://www.w3.org/2000/svg" xmlns:xlink="http://www.w3.org/1999/xlink" width="118" height="118" viewBox="0 0 118 118">
  <defs>
    <clipPath id="clip-path">
      <rect id="Rectángulo_345270" data-name="Rectángulo 345270" width="80.131" height="80.076" fill="none"/>
    </clipPath>
  </defs>
  <g id="Grupo_997439" data-name="Grupo 997439" transform="translate(-394 -2079.626)">
    <circle id="Elipse_5926" data-name="Elipse 5926" cx="59" cy="59" r="59" transform="translate(394 2079.626)" fill="#ffc403"/>
    <g id="Grupo_984708" data-name="Grupo 984708" transform="translate(412.934 2097.419)">
      <g id="Grupo_984707" data-name="Grupo 984707" clip-path="url(#clip-path)">
        <path id="Trazado_726040" data-name="Trazado 726040" d="M80.1.042a21.631,21.631,0,0,1,21.854,22.143c-.109,4.019-1.739,7.679-3.314,11.3A201.8,201.8,0,0,1,85.4,58.031c-2.52,4.129-7.961,4.354-10.462.3A191.706,191.706,0,0,1,59.717,29.229C54.425,16.066,63.617,1.825,77.3.057A22.067,22.067,0,0,1,80.1.042m-.013,28.848a8.742,8.742,0,0,0,8.568-8.563,8.6,8.6,0,1,0-17.2.06,8.736,8.736,0,0,0,8.629,8.5" transform="translate(-39.98 0)"/>
        <path id="Trazado_726041" data-name="Trazado 726041" d="M41.024,202.1c-10.715.058-20.33-.976-29.6-4.285a25.124,25.124,0,0,1-8.141-4.5c-4.224-3.647-4.39-8.552-.418-12.467a16.635,16.635,0,0,1,3.627-2.675c1.509-.839,2.924-.57,3.689.659s.36,2.657-1.056,3.6a16.005,16.005,0,0,0-2.984,2.239c-1.433,1.533-1.437,2.809,0,4.367a13.022,13.022,0,0,0,4.092,2.8A51.745,51.745,0,0,0,26.1,196.169a97.751,97.751,0,0,0,35.585-1.454,36.351,36.351,0,0,0,9.6-3.589c4.965-2.813,5.036-5.288.271-8.351a6.892,6.892,0,0,1-1.256-.91,2.482,2.482,0,0,1,2.2-4.163c3.471.644,7.58,5.641,7.625,9.149a8.209,8.209,0,0,1-3.265,6.45c-3.624,3.153-8.041,4.717-12.575,5.939A84.889,84.889,0,0,1,41.024,202.1" transform="translate(0 -122.039)"/>
        <path id="Trazado_726042" data-name="Trazado 726042" d="M70.891,182.021c4.836-.186,10.909-.438,16.732-2.463,1.156-.4,3.027-.674,3.017-1.79-.01-1.262-1.905-1.46-3.077-1.91a27.615,27.615,0,0,0-5.888-1.448c-1.043-.154-1.211-.579-.672-1.453,2.55-4.135,1.33-3.636,5.781-2.6a18.562,18.562,0,0,1,6.835,2.922c3.511,2.549,3.529,6.4,0,8.908a23.378,23.378,0,0,1-9.721,3.579c-11.025,1.957-22,1.919-32.86-1.1a16.1,16.1,0,0,1-5.6-2.659c-3.171-2.44-3.186-6.117,0-8.54,2.939-2.237,6.452-3.026,9.961-3.8a1.214,1.214,0,0,1,1.391.739c.476.8.922,1.63,1.436,2.41.646.979.491,1.426-.74,1.622a25.907,25.907,0,0,0-7.6,2.191c-.529.264-1.372.415-1.327,1.129.041.654.836.863,1.387,1.117a32.544,32.544,0,0,0,9.465,2.458,79.4,79.4,0,0,0,11.49.687" transform="translate(-29.574 -116.529)"/>
      </g>
    </g>
  </g>
</svg>
