<svg xmlns="http://www.w3.org/2000/svg" xmlns:xlink="http://www.w3.org/1999/xlink" width="118" height="118" viewBox="0 0 118 118">
  <defs>
    <clipPath id="clip-path">
      <rect id="Rectángulo_345261" data-name="Rectángulo 345261" width="78.356" height="89.488" fill="none"/>
    </clipPath>
  </defs>
  <g id="Grupo_997448" data-name="Grupo 997448" transform="translate(-22696 8660.374)">
    <circle id="Elipse_5935" data-name="Elipse 5935" cx="59" cy="59" r="59" transform="translate(22696 -8660.374)" fill="#ffc403"/>
    <g id="Grupo_984690" data-name="Grupo 984690" transform="translate(22715.891 -8645.746)">
      <g id="Grupo_984689" data-name="Grupo 984689" clip-path="url(#clip-path)">
        <path id="Trazado_726001" data-name="Trazado 726001" d="M46.034.03c6.427-.084,12.3.1,18,1.933C78.063,6.477,83.407,21.494,75.363,33.854a2.665,2.665,0,0,0-.717,1.7c.533,5.1-2.43,8.4-5.907,11.391a17.161,17.161,0,0,1-6.287,3.632,4.84,4.84,0,0,0-3.674,4.031c-.979,4.123-1.095,3.928-5.534,4.352-1.355.129-2.838,1.229-4.2.892-2.761-.682-5.857,1.149-8.355-1.179-.319-.3-.533.187-.8.226-2.522.363-4.426-.667-4.863-3.132C34.48,52.719,32.931,51.135,30,50.1a18.545,18.545,0,0,1-9.234-7.385c-.834-1.249-1.816-2.591-1.754-4.057.133-3.092-1.435-5.453-2.757-7.987C11.925,22.375,14.77,6.893,27.975,2.412A51.313,51.313,0,0,1,46.034.03m18.3,39.294c3.905.095,6.087-1.736,5.7-4.785-.68-5.379-7.294-11.649-12.688-12.028-4.467-.313-7.116,3.024-5.779,7.282a14.309,14.309,0,0,0,12.765,9.53m-34.614,0a13.914,13.914,0,0,0,11.753-8.579c.939-2.082,1.291-4.321-.326-6.229-1.683-1.986-3.975-2.364-6.445-1.769-5.177,1.245-8.3,4.879-10.55,9.364-2.062,4.107-.01,7.221,5.569,7.213m13.428,6.1c.1.454-.059,1.075.556,1.38a1.017,1.017,0,0,0,1.254-.36c1.206-1.35,2.32-1.294,3.563.012.805.846,1.817.64,1.79-.548a6.964,6.964,0,0,0-2.462-5.617,1.844,1.844,0,0,0-2.719.373,8.59,8.59,0,0,0-1.982,4.761" transform="translate(-7.594 0)"/>
        <path id="Trazado_726002" data-name="Trazado 726002" d="M28.225,118.708c-5.379-1.728-10.767-3.426-16.129-5.2-1.368-.454-1.748.389-2.348,1.265a5.119,5.119,0,0,1-5.938,2.275,5.029,5.029,0,0,1-3.734-4.4,3.433,3.433,0,0,1,1.1-3.432,5.992,5.992,0,0,0,2.264-5.623,5.6,5.6,0,0,1,2.141-5.218,4.9,4.9,0,0,1,5.539-.533c2.061,1.12,3.214,2.942,2.764,5.258-.36,1.851.38,2.495,1.9,3.089Q26.2,110.263,36.57,114.5a6.243,6.243,0,0,0,5,.035q10.371-4.22,20.792-8.311c1.449-.573,2.27-1.183,1.971-3.083a5.094,5.094,0,0,1,4.733-5.877,5.147,5.147,0,0,1,5.649,5.273c-.02,2.8.411,5.151,2.705,7.152,1.7,1.485.929,4.8-1.108,6.456-2.188,1.775-5.975,1.594-7.309-.852-1.292-2.372-2.657-1.924-4.54-1.273-4.72,1.631-9.577,2.871-14.151,4.851.126.647.542.735.893.849,4.932,1.6,9.874,3.173,14.8,4.8a1.735,1.735,0,0,0,2.432-.964,5.245,5.245,0,1,1,8.949,5.454,14.926,14.926,0,0,0-2.8,7.575c-.145,2.778-2.952,4.544-5.82,4.221a4.952,4.952,0,0,1-4.445-5.429c.355-2.214-.6-2.889-2.306-3.56C55,129.063,48,126.24,41.01,123.409a4.43,4.43,0,0,0-3.412-.116c-7.587,2.823-15.071,5.9-22.535,9.031-1.188.5-1.347,1.159-1.2,2.363.414,3.427-1.5,5.841-4.646,6.132a5.054,5.054,0,0,1-5.7-5.193c-.012-2.689-1.427-4.555-2.651-6.641a5.157,5.157,0,0,1,.644-6.518,5.129,5.129,0,0,1,6.062-1.1,4.682,4.682,0,0,1,2.31,2.268,1.49,1.49,0,0,0,2.054.964q8.165-2.626,16.339-5.219-.024-.338-.047-.676" transform="translate(0 -51.357)"/>
      </g>
    </g>
  </g>
</svg>
