<svg xmlns="http://www.w3.org/2000/svg" xmlns:xlink="http://www.w3.org/1999/xlink" width="118" height="118" viewBox="0 0 118 118">
  <defs>
    <clipPath id="clip-path">
      <rect id="Rectángulo_345276" data-name="Rectángulo 345276" width="73.434" height="78.648" fill="none"/>
    </clipPath>
  </defs>
  <g id="Grupo_997434" data-name="Grupo 997434" transform="translate(-20424 9697.746)">
    <circle id="Elipse_5923" data-name="Elipse 5923" cx="59" cy="59" r="59" transform="translate(20424 -9697.746)" fill="#06d1d1"/>
    <g id="Grupo_984722" data-name="Grupo 984722" transform="translate(20445.863 -9678.07)">
      <g id="Grupo_984721" data-name="Grupo 984721" clip-path="url(#clip-path)">
        <path id="Trazado_726086" data-name="Trazado 726086" d="M79.647,16.012q12.626,0,25.252,0c2.161,0,2.418.258,2.431,2.361.009,1.326-.024,2.653.008,3.979.03,1.258-.453,2.041-1.8,1.953-.94-.061-.99.438-.987,1.156q.025,7.871,0,15.743c0,.755.118,1.184,1.021,1.126,1.228-.079,1.774.6,1.761,1.808-.017,1.557-.014,3.114,0,4.671.009,1.1-.443,1.87-1.6,1.782-1.294-.1-1.178.671-1.177,1.5q.013,9.342-.008,18.683c0,.909.5,2.041-1.334,2.065-1.776.024-1.424-1.01-1.425-1.985-.007-6.17-.036-12.341.023-18.511.013-1.279-.212-1.792-1.659-1.758-4.495.1-8.994.085-13.49.008-1.245-.022-1.58.365-1.507,1.555.1,1.609,0,3.228.031,4.842.023,1.273-.493,1.952-1.828,1.943q-3.719-.027-7.437,0c-1.335.01-1.848-.67-1.827-1.943.03-1.729-.033-3.461.023-5.189.028-.879-.216-1.205-1.152-1.2q-7.177.064-14.355,0c-.966-.009-1.135.375-1.127,1.22.035,3.46.053,6.92-.011,10.379-.018.941.718,2.352-1.4,2.318-2.177-.035-1.281-1.516-1.305-2.4-.094-3.4-.063-6.8-.021-10.206.011-.9-.133-1.383-1.193-1.317-1.045.065-1.58-.573-1.585-1.618q-.011-2.508,0-5.017c0-1.043.529-1.657,1.581-1.626.852.025,1.209-.181,1.2-1.134q-.067-7.871,0-15.743c.007-.914-.278-1.2-1.173-1.162-1.157.043-1.625-.669-1.615-1.773.012-1.442.062-2.887-.015-4.324-.089-1.672.668-2.22,2.275-2.211,8.475.044,16.95.02,25.425.02m.038,26.3c6.856,0,13.712.008,20.567-.012.648,0,1.56.385,1.551-.934q-.052-8.038,0-16.077c0-.768-.28-.982-1.01-.978-4.839.023-9.679.037-14.518-.009-.994-.009-1.119.429-1.1,1.244.041,1.728-.009,3.457.017,5.186.02,1.294-.556,1.913-1.867,1.9-2.477-.022-4.955-.014-7.432,0a1.562,1.562,0,0,1-1.786-1.8c.013-1.728-.064-3.461.025-5.185.056-1.084-.307-1.358-1.36-1.346-4.608.055-9.219.073-13.826-.009-1.3-.023-1.477.47-1.465,1.594.054,4.955.076,9.912-.011,14.866-.024,1.341.4,1.6,1.648,1.592,6.855-.06,13.711-.029,20.567-.029M64.478,18.787c-2.82,0-5.642.056-8.46-.027-1.134-.034-1.325.4-1.312,1.4.013.954.116,1.436,1.285,1.422,5.64-.063,11.281-.053,16.921-.006,1.036.009,1.273-.376,1.212-1.305-.053-.819.122-1.557-1.187-1.51-2.817.1-5.639.031-8.46.031m30.474,0c-2.82,0-5.642.052-8.46-.026-1.1-.031-1.374.335-1.335,1.372.035.916.056,1.46,1.261,1.446q8.46-.1,16.921,0c1.226.015,1.2-.564,1.248-1.459.054-1.059-.27-1.388-1.347-1.358-2.761.075-5.525.025-8.287.025M64.6,45.091c-2.878,0-5.757.062-8.632-.03-1.208-.039-1.271.523-1.253,1.447.015.832.02,1.38,1.152,1.37q8.546-.082,17.093,0c1.114.011,1.165-.5,1.166-1.355,0-.9-.008-1.5-1.239-1.461-2.76.1-5.524.03-8.287.03m30.262,2.762c2.82,0,5.642-.062,8.46.03,1.205.04,1.274-.519,1.255-1.445-.017-.83-.017-1.382-1.15-1.371q-8.546.082-17.094,0c-1.112-.011-1.168.5-1.168,1.354,0,.9,0,1.5,1.237,1.463,2.817-.1,5.64-.03,8.46-.03m-15.1-23.529c-2.879,0-2.879,0-2.879,2.868,0,2.664,0,2.664,2.738,2.664,2.793,0,2.793,0,2.793-2.782,0-2.75,0-2.75-2.652-2.75m2.652,29.2c0-2.894,0-2.894-2.853-2.894a4.636,4.636,0,0,1-.859-.008c-1.569-.3-2.074.4-1.824,1.871a4.168,4.168,0,0,1,.005.688c0,2.98,0,2.98,2.939,2.98,2.592,0,2.592,0,2.592-2.638M79.57,21.55a11.317,11.317,0,0,1,1.547.012c1.1.154,1.317-.342,1.334-1.358.019-1.116-.292-1.554-1.436-1.435a13.134,13.134,0,0,1-2.578,0c-1.121-.106-1.611.152-1.606,1.449.005,1.253.531,1.44,1.535,1.337a11.993,11.993,0,0,1,1.2-.007m0,26.3a11.372,11.372,0,0,1,1.547.012c1.1.152,1.322-.334,1.337-1.354.016-1.111-.285-1.558-1.433-1.438a13.157,13.157,0,0,1-2.578,0c-1.117-.1-1.616.145-1.609,1.446.007,1.248.524,1.444,1.532,1.34a11.692,11.692,0,0,1,1.2-.007" transform="translate(-33.906 -10.439)"/>
        <path id="Trazado_726087" data-name="Trazado 726087" d="M9.753,171.962q0-2.161,0-4.323c0-1.946-.523-2.488-2.546-2.525-1.959-.035-3.922-.08-5.876.019-1.166.059-1.292-.45-1.295-1.416s.141-1.465,1.3-1.412c2.128.1,4.263.016,6.4.037a2.513,2.513,0,0,1,1.333.222c2,1.408,4.262,1.171,6.5,1.151.984-.008,1.939-.092,2.5,1.053.345.7.873.255,1.253-.107.626-.6,1.218-1.227,1.841-1.826a10.852,10.852,0,0,1,13.789-1.471,4.684,4.684,0,0,0,3.384.767c2.452-.33,4.926-.527,7.4-.671a6.073,6.073,0,0,1,6.126,3.384c.54,1.034,1.01,1.086,1.99.726,4.9-1.8,9.171-.963,12.525,3.25a2.847,2.847,0,0,0,1.5.761,8.213,8.213,0,0,1,5.3,5.506c.511,1.636.2,2.218-1.494,2.549-7.062,1.376-14.132,2.713-21.2,4.066-.452.086-.91.159-1.352.284a19.7,19.7,0,0,1-12.005-.253c-2.769-.939-5.712-1.355-8.52-2.2-3.239-.97-6.523-.413-9.784-.579-.169-.009-.444-.024-.5.065-1.331,2.243-3.512,1.005-5.31,1.3-.669.111-1.4-.156-2.02.273-1.72,1.194-3.664,1.2-5.636,1.129-1.209-.04-2.421-.035-3.63,0-.972.029-1.7.11-1.722-1.347-.028-1.555.768-1.463,1.8-1.445,1.843.033,3.689.046,5.531,0,1.891-.049,2.415-.623,2.419-2.476,0-1.5,0-3,0-4.5m60.394,3.159c-1.582-2.725-3.67-3.615-6.738-3.015-2.485.486-4.98.937-7.439,1.537-3.736.912-7.368,1.509-11-.559a12.864,12.864,0,0,0-10.451-1.223c-.682.208-1.039.018-1.2-.749-.274-1.265-.119-1.953,1.419-2.155,4.564-.6,9.108-1.357,13.657-2.07.367-.058.9.121,1.058-.352.165-.5-.267-.852-.576-1.172a3.687,3.687,0,0,0-3.135-1.126c-2.581.233-5.171.4-7.739.731a5.169,5.169,0,0,1-4.035-.942,8.063,8.063,0,0,0-7.854-1.17c-2.048.718-3.389,2.33-4.865,3.778-.609.6-1.137,1.367-2.15,1.235-.876-.115-1.066.294-1.046,1.088.046,1.9.087,3.807-.012,5.7-.062,1.2.278,1.578,1.515,1.545,3.908-.105,7.8-.147,11.622,1.078,2.952.946,6.027,1.5,9.016,2.345a11.117,11.117,0,0,0,5.749.125c2.629-.622,5.313-1.015,7.97-1.521,5.364-1.022,10.727-2.054,16.238-3.111m-7.032-5.779c-2.462-1.951-4.766-2.329-7.2-1.513a43.337,43.337,0,0,1-8.851,2.113c-.331.038-.837-.166-.991.6,1.387.458,2.859,1.459,4.171,1.282,4.178-.562,8.3-1.563,12.868-2.48m-47.826,2.769c0-1.437-.071-2.879.023-4.311.072-1.092-.319-1.385-1.362-1.339-.9.04-1.492.032-1.452,1.252q.139,4.308,0,8.622c-.04,1.22.55,1.212,1.452,1.252,1.043.046,1.437-.246,1.362-1.339-.094-1.373-.023-2.758-.023-4.138" transform="translate(-0.001 -104.151)"/>
        <path id="Trazado_726088" data-name="Trazado 726088" d="M108.444,2.821c-5.072,0-10.144-.027-15.216.022-1.077.01-1.494-.218-1.491-1.4,0-1.169.39-1.418,1.481-1.413Q108.435.081,123.65.018c1.222-.006,1.367.458,1.4,1.5.03,1.107-.358,1.338-1.386,1.328-5.071-.048-10.144-.022-15.216-.022" transform="translate(-59.886 -0.012)"/>
        <path id="Trazado_726089" data-name="Trazado 726089" d="M77.047,2.784c-1.472.348-1.1-.74-1.207-1.56-.186-1.477.837-1.1,1.643-1.2,1.342-.171,1.063.735,1.164,1.514.175,1.354-.614,1.378-1.6,1.249" transform="translate(-49.494 0)"/>
        <path id="Trazado_726090" data-name="Trazado 726090" d="M164.851,155.517c1.294-.3,1.491.286,1.53,1.365.044,1.227-.471,1.365-1.505,1.39-1.09.027-1.388-.327-1.336-1.373.049-.986.01-1.854,1.311-1.382" transform="translate(-106.754 -101.435)"/>
        <path id="Trazado_726091" data-name="Trazado 726091" d="M180.938,158.277c-1.135.251-1.484-.188-1.488-1.345s.355-1.451,1.465-1.432c1.008.017,1.446.21,1.383,1.331-.055.976-.052,1.769-1.36,1.446" transform="translate(-117.144 -101.509)"/>
        <path id="Trazado_726092" data-name="Trazado 726092" d="M164.85,75.771c1.294-.3,1.491.286,1.53,1.365.044,1.227-.471,1.365-1.505,1.39-1.09.027-1.388-.327-1.336-1.373.049-.986.01-1.854,1.312-1.382" transform="translate(-106.754 -49.377)"/>
        <path id="Trazado_726093" data-name="Trazado 726093" d="M182.241,77.117c.251,1.136-.188,1.485-1.344,1.488s-1.451-.356-1.432-1.465c.017-1.009.21-1.446,1.331-1.384.976.055,1.769.052,1.446,1.36" transform="translate(-117.153 -49.45)"/>
      </g>
    </g>
  </g>
</svg>
