<svg xmlns="http://www.w3.org/2000/svg" xmlns:xlink="http://www.w3.org/1999/xlink" width="118" height="118" viewBox="0 0 118 118">
  <defs>
    <clipPath id="clip-path">
      <rect id="Rectángulo_345272" data-name="Rectángulo 345272" width="98.924" height="77.322" fill="#fff"/>
    </clipPath>
  </defs>
  <g id="Grupo_997430" data-name="Grupo 997430" transform="translate(-741 -2020.254)">
    <circle id="Elipse_5919" data-name="Elipse 5919" cx="59" cy="59" r="59" transform="translate(741 2020.254)" fill="#b20d0d"/>
    <g id="Grupo_984714" data-name="Grupo 984714" transform="translate(750.539 2040.965)">
      <g id="Grupo_984713" data-name="Grupo 984713" clip-path="url(#clip-path)">
        <path id="Trazado_726058" data-name="Trazado 726058" d="M79.007,77.314c-4.575,0-9.15.009-13.725,0-4.016-.01-6.009-1.867-6.06-5.83-.017-1.33-.38-1.955-1.737-1.723-2.983.509-5.062-.741-6.988-2.984-2.639-3.073-5.633-5.84-8.419-8.79-.786-.832-1.259-1.046-2.326-.234-8.117,6.181-17,7.312-26.127,2.818S-.2,48.313.007,38.12c.2-9.862,5-17.26,13.9-21.507s17.543-3.179,25.488,2.67c1.222.9,1.829,1.038,2.921-.152,3.091-3.368,6.468-6.481,9.47-9.922,1.551-1.777,3.333-1.732,5.238-1.611,1.59.1,2.252-.241,2.231-2.063-.041-3.494,2.1-5.506,5.566-5.515q14.209-.038,28.417,0C96.81.024,98.862,2.088,98.9,5.647c.026,2.383.038,4.766-.005,7.148a5.1,5.1,0,0,1-5.324,5.378q-14.5.058-29,0c-3.124-.012-5.116-2.031-5.388-5.172-.067-.772.476-2.054-.493-2.216-1.441-.242-3.192-.8-4.426.422C50.7,14.745,47.256,18.406,43.742,22a.92.92,0,0,0-.074,1.461,23.857,23.857,0,0,1,5.148,12.5c.093.852.4,1.21,1.324,1.189q3.864-.087,7.731,0c.99.021,1.3-.285,1.349-1.3.236-4.736,1.9-6.292,6.592-6.3q13.338-.009,26.677,0c4.6.005,6.413,1.841,6.418,6.461,0,2.125.032,4.251-.011,6.376a5.1,5.1,0,0,1-5.359,5.358c-3.864.092-7.732.028-11.6.029-5.541,0-11.083.017-16.625-.007-4.111-.017-6.031-1.865-6.082-6.015-.016-1.32-.458-1.619-1.667-1.58-2.381.079-4.769.066-7.151,0-1-.026-1.518.189-1.633,1.3A23.431,23.431,0,0,1,43.711,53.8a1.009,1.009,0,0,0,.1,1.611c3.428,3.5,6.817,7.029,10.234,10.535.647.664,4.054,1.071,4.759.63.566-.354.35-.917.374-1.4.209-4.293,2-6.037,6.276-6.04q13.629-.009,27.257,0c4.3,0,6.179,1.921,6.186,6.277,0,2.125.023,4.251-.006,6.376-.046,3.424-2.122,5.5-5.582,5.518-4.768.031-9.536.008-14.305.009m4.816-44.7c-3.152,0-6.3.02-9.456-.012-.974-.01-1.585.151-1.564,1.345.053,3.149.041,6.3,0,9.45-.012,1.023.429,1.323,1.392,1.319,6.368-.026,12.736,0,19.1-.023,1.736-.005,2.565-.911,2.532-2.672-.041-2.121,0-4.243-.012-6.365-.014-2.424-.619-3.022-3.124-3.039-2.959-.02-5.918,0-8.877,0m.2-29.529c-3.283,0-6.566.028-9.848-.017-.972-.013-1.384.263-1.369,1.3q.07,4.727,0,9.456c-.014,1.021.377,1.311,1.358,1.306,6.372-.033,12.744-.023,19.116-.014,1.783,0,2.566-.9,2.551-2.634-.019-2.187.012-4.374-.009-6.562S95.151,3.1,92.9,3.089c-2.961-.016-5.921,0-8.882,0m-.1,59.125c-3.219,0-6.437.035-9.655-.02-1.061-.018-1.489.277-1.467,1.4q.087,4.631,0,9.263c-.021,1.116.4,1.41,1.463,1.4,6.307-.04,12.615-.005,18.923-.029,1.938-.007,2.61-.726,2.635-2.722q.04-3.28,0-6.562c-.025-2.057-.708-2.715-2.823-2.729-3.025-.019-6.05,0-9.075,0M24.445,60.085A21.425,21.425,0,1,0,3.005,38.559a21.454,21.454,0,0,0,21.44,21.526m45.3-21.372V37.172c0-5,0-4.981-5.059-4.556a2.283,2.283,0,0,0-2.412,2.429c-.036,1.348-.014,2.7-.014,4.047,0,5.753,0,5.753,5.793,5.618.193,0,.386-.016.578,0,.849.057,1.125-.39,1.114-1.174-.021-1.606-.006-3.212,0-4.817m0-29.572c0-1.608.008-3.215,0-4.823,0-.569.076-1.227-.815-1.221-1.608.01-3.224-.08-4.821.056-1.3.112-1.8,1.121-1.829,2.335-.033,1.286-.012,2.572-.013,3.858,0,5.97,0,5.97,6,5.766a2.781,2.781,0,0,1,.386,0c.861.087,1.115-.363,1.1-1.148-.026-1.608-.008-3.215-.007-4.823m0,58.936c0-1.544.009-3.087,0-4.63-.005-.567.082-1.229-.811-1.224-1.608.009-3.224-.081-4.821.054-1.306.11-1.8,1.119-1.832,2.332-.034,1.286-.013,2.572-.013,3.858,0,5.973,0,5.973,6,5.771a2.914,2.914,0,0,1,.386,0c.857.087,1.119-.355,1.106-1.144-.026-1.672-.008-3.344-.007-5.016" transform="translate(0 0)" fill="#fff"/>
        <path id="Trazado_726059" data-name="Trazado 726059" d="M11.637,68.072A19.946,19.946,0,1,1,31.617,88.11a19.969,19.969,0,0,1-19.98-20.038m3.079.15a16.866,16.866,0,1,0,16.861-17,16.855,16.855,0,0,0-16.861,17" transform="translate(-7.123 -29.467)" fill="#fff"/>
        <path id="Trazado_726060" data-name="Trazado 726060" d="M45.811,81.307c0-1.077.438-1.8,1.409-1.88,1.088-.085,1.5.635,1.69,1.676.387,2.137,1.585,3.3,3.366,3.36a3.4,3.4,0,0,0,3.573-2.385,3.1,3.1,0,0,0-1.87-4.245,35.78,35.78,0,0,0-3.525-.985c-2.71-.722-4.376-2.376-4.606-5.249s.75-5.247,3.321-6.66c1.173-.645,1.963-1.2,1.821-2.694a1.381,1.381,0,0,1,1.52-1.6,1.363,1.363,0,0,1,1.451,1.649c-.161,1.4.516,1.985,1.688,2.547a6.217,6.217,0,0,1,3.425,4.845c.2,1.136.066,2.188-1.227,2.418-1.212.216-1.621-.652-1.782-1.756a3.447,3.447,0,0,0-3.088-3.217,3.392,3.392,0,0,0-3.591,1.738,3.275,3.275,0,0,0,1.706,4.9c1.017.383,2.1.581,3.156.877,3.27.919,4.553,2.344,4.887,5.418a6.553,6.553,0,0,1-3.582,6.709c-1.142.543-1.733,1.1-1.582,2.414a1.391,1.391,0,0,1-1.38,1.723,1.42,1.42,0,0,1-1.6-1.709c.162-1.46-.637-1.958-1.754-2.532a6.416,6.416,0,0,1-3.422-5.36" transform="translate(-28.04 -37.12)" fill="#fff"/>
      </g>
    </g>
  </g>
</svg>
