<svg xmlns="http://www.w3.org/2000/svg" xmlns:xlink="http://www.w3.org/1999/xlink" width="118" height="118" viewBox="0 0 118 118">
  <defs>
    <clipPath id="clip-path">
      <rect id="Rectángulo_345274" data-name="Rectángulo 345274" width="107.127" height="94.641" fill="none"/>
    </clipPath>
  </defs>
  <g id="Grupo_997432" data-name="Grupo 997432" transform="translate(-19722 9697.746)">
    <circle id="Elipse_5921" data-name="Elipse 5921" cx="59" cy="59" r="59" transform="translate(19722 -9697.746)" fill="#ffc403"/>
    <g id="Grupo_984718" data-name="Grupo 984718" transform="translate(19729.115 -9686.066)">
      <g id="Grupo_984717" data-name="Grupo 984717" clip-path="url(#clip-path)">
        <path id="Trazado_726068" data-name="Trazado 726068" d="M21.13,52.794c2.251,2.642,4.532,5.259,6.737,7.939a2.758,2.758,0,0,0,2.8.9q5.68-.729,11.362-1.442a4.42,4.42,0,0,1,5.168,3.7,4.247,4.247,0,0,1-3.773,4.691q-7.942,1.1-15.913,1.983c-1.892.209-3.264-.908-4.438-2.3-2.408-2.859-4.851-5.688-7.506-8.388,1.911,4.032,3.408,8.285,6.164,11.812,1.613,2.063,4.161,2.412,6.682,2.113,1.658-.2,2.545.217,2.307,2.068-.591,4.6,1.607,8.556,3.193,12.579a16.334,16.334,0,0,1,.7,10.349c-1.472,6-2.58,12.09-3.922,18.124-.642,2.887-2.69,4.444-5.33,4.3a5.079,5.079,0,0,1-4.676-4.316,9,9,0,0,1,.379-3.291q1.85-8.874,3.767-17.733a4.294,4.294,0,0,0,.017-2.459c-1.385-3.785-2.766-7.572-4.171-11.35-.182-.489-.3-1.211-1.028-1.115-.771.1-.589.831-.627,1.348A35.384,35.384,0,0,0,18.7,87.9c.559,6.47-1.339,12.321-4,18.074-1.778,3.844-3.216,7.845-4.892,11.738-1.366,3.174-4.406,4.39-7.135,2.982-2.492-1.286-3.356-3.94-2.118-7.027,2.328-5.806,4.728-11.582,7.136-17.355a9.5,9.5,0,0,0,.7-3.224c.715-13.06.372-26.131.439-39.2.032-6.118,1.97-8.056,8.156-8.057,2.5,0,5.007-.039,7.509.015a5.984,5.984,0,0,1,6.2,6.182c.049,1.528.025,3.059-.008,4.588-.033,1.555-.783,1.831-2,1-2.466-1.683-4.912-3.394-7.366-5.093l-.194.265" transform="translate(0 -26.637)"/>
        <path id="Trazado_726069" data-name="Trazado 726069" d="M115.949,103.84q0-7.927,0-15.855a20.5,20.5,0,0,1,.944-7.569,6.635,6.635,0,0,0-1.615-6.976c-1.081-1.178-.767-1.734.549-2.194.59-.206,1.155-.482,1.739-.705,3.543-1.354,5.715.119,5.721,3.963q.031,21.8.011,43.6c0,2.749.007,2.756,2.756,2.756q21.07,0,42.139,0a18.818,18.818,0,0,1,2.292.056,3.533,3.533,0,0,1,3.272,3.662,3.485,3.485,0,0,1-3.35,3.578,34.518,34.518,0,0,1-3.961.043c-1.124-.034-1.7.247-1.958,1.537-.705,3.572-3.171,5.567-6.516,5.562-3.29-.005-5.751-2.035-6.51-5.605-.242-1.139-.7-1.506-1.785-1.492-2.99.037-5.981.044-8.97,0-1.191-.018-1.7.487-2,1.624-.92,3.575-3.177,5.451-6.391,5.476-3.285.025-5.7-1.877-6.613-5.507a1.771,1.771,0,0,0-2.176-1.591c-.761.054-1.529.01-2.294.008-4.1-.01-5.282-1.207-5.288-5.39q-.013-9.492,0-18.984" transform="translate(-66.633 -40.719)"/>
        <path id="Trazado_726070" data-name="Trazado 726070" d="M177,43.888c2.781,0,5.561-.021,8.341.006s3.643.87,3.672,3.587c.024,2.225-.012,4.449,0,6.674.013,1.952-1.015,3.107-2.876,3.135q-9.276.138-18.554.014c-1.939-.028-3.021-1.242-3.014-3.271.007-2.294-.05-4.589.02-6.881.067-2.2,1.039-3.188,3.233-3.236,3.057-.067,6.116-.017,9.175-.017v-.01" transform="translate(-95.66 -25.507)"/>
        <path id="Trazado_726071" data-name="Trazado 726071" d="M163.418,119.5c-5.7,0-11.4.01-17.1,0a4.639,4.639,0,0,1-3.962-6.945,1.579,1.579,0,0,1,1.609-.722c3.824-.011,7.648,0,11.472-.006,1.157,0,1.861.484,1.924,1.694.116,2.216,1.352,2.985,3.461,2.879,1.942-.1,3.894-.069,5.839-.01,1.762.053,2.846-.693,2.964-2.462.107-1.609.9-2.148,2.423-2.125,3.546.052,7.093.058,10.638,0,1.595-.028,2.343.568,2.211,2.2-.056.691.016,1.391-.02,2.085-.121,2.414-1.075,3.39-3.515,3.4-5.979.035-11.959.011-17.939.015" transform="translate(-82.401 -64.985)"/>
        <path id="Trazado_726072" data-name="Trazado 726072" d="M163.819,174.49c-5.9,0-11.8-.008-17.7.006-1.321,0-2.594-.152-3.1-1.567a8.194,8.194,0,0,1-.052-5.5c.208-.6,1.074-.551,1.692-.554,3.68-.015,7.359,0,11.039-.015,1.327-.007,2.071.5,2.151,1.926.105,1.874,1.2,2.665,3.044,2.623,2.082-.048,4.166-.041,6.248,0,1.75.031,2.823-.735,2.933-2.5.093-1.5.83-2.061,2.264-2.048q5.415.047,10.83,0c1.6-.017,2.305.666,2.169,2.265-.053.62.011,1.25-.015,1.874-.109,2.587-1,3.479-3.587,3.488-5.971.021-11.942.007-17.913.006" transform="translate(-82.844 -96.994)"/>
        <path id="Trazado_726073" data-name="Trazado 726073" d="M43.969,8.4a8.207,8.207,0,0,1-8.289,8.563A8.482,8.482,0,1,1,35.464,0a8.375,8.375,0,0,1,8.505,8.4" transform="translate(-15.694 0)"/>
        <path id="Trazado_726074" data-name="Trazado 726074" d="M176.637,150.444c-2.222,0-4.444.034-6.665-.01-1.882-.038-3.087.664-3.264,2.666-.142,1.6-1.108,1.942-2.574,1.963-1.529.022-2.379-.475-2.528-2.019-.2-2.025-1.456-2.628-3.311-2.612q-6.456.057-12.914-.006c-1.022-.009-2.416.42-2.521-1.331a2.841,2.841,0,0,1,1.987-3.26,6.354,6.354,0,0,1,1.848-.214q17.5-.018,34.992,0c2.41,0,3.536.855,3.77,2.7.166,1.316-.176,2.159-1.74,2.125-2.359-.052-4.721-.013-7.081-.013Z" transform="translate(-83.039 -84.643)"/>
        <path id="Trazado_726075" data-name="Trazado 726075" d="M164.363,90.7q8.339,0,16.678,0a10.994,10.994,0,0,1,2.078.094c1.731.337,2.364,1.578,2.353,3.2-.012,1.875-1.457,1.518-2.575,1.526-4.239.028-8.479.075-12.717-.014-2.062-.044-3.371.564-3.554,2.8-.124,1.525-1.108,1.831-2.474,1.831s-2.346-.309-2.472-1.833c-.183-2.231-1.493-2.838-3.556-2.795-4.237.089-8.478.042-12.717.015-1.12-.008-2.564.345-2.574-1.528-.009-1.623.623-2.866,2.355-3.2a11.066,11.066,0,0,1,2.078-.093q8.548-.009,17.1,0" transform="translate(-83.03 -52.723)"/>
      </g>
    </g>
  </g>
</svg>
