<svg id="Grupo_984347" data-name="Grupo 984347" xmlns="http://www.w3.org/2000/svg" xmlns:xlink="http://www.w3.org/1999/xlink" width="421.349" height="403.916" viewBox="0 0 421.349 403.916">
  <defs>
    <clipPath id="clip-path">
      <rect id="Rectángulo_345049" data-name="Rectángulo 345049" width="421.349" height="403.916" fill="none"/>
    </clipPath>
    <clipPath id="clip-path-3">
      <rect id="Rectángulo_345044" data-name="Rectángulo 345044" width="54.14" height="8.367" fill="none"/>
    </clipPath>
    <clipPath id="clip-path-4">
      <rect id="Rectángulo_345045" data-name="Rectángulo 345045" width="54.142" height="8.368" fill="none"/>
    </clipPath>
    <clipPath id="clip-path-5">
      <rect id="Rectángulo_345046" data-name="Rectángulo 345046" width="218.422" height="13.564" fill="none"/>
    </clipPath>
  </defs>
  <g id="Grupo_984346" data-name="Grupo 984346" clip-path="url(#clip-path)">
    <g id="Grupo_984345" data-name="Grupo 984345">
      <g id="Grupo_984344" data-name="Grupo 984344" clip-path="url(#clip-path)">
        <path id="Trazado_725392" data-name="Trazado 725392" d="M0,163.723c0,7.628,91.865,13.813,205.183,13.813s205.186-6.185,205.186-13.813S318.5,149.91,205.183,149.91,0,156.095,0,163.723" transform="translate(0 226.38)" fill="#a09d3f"/>
        <g id="Grupo_984337" data-name="Grupo 984337" transform="translate(343.124 385.237)" opacity="0.38" style="mix-blend-mode: multiply;isolation: isolate">
          <g id="Grupo_984336" data-name="Grupo 984336">
            <g id="Grupo_984335" data-name="Grupo 984335" clip-path="url(#clip-path-3)">
              <path id="Trazado_725393" data-name="Trazado 725393" d="M136.7,157.658c0,2.312,12.119,4.184,27.069,4.184s27.071-1.873,27.071-4.184-12.119-4.184-27.071-4.184-27.069,1.873-27.069,4.184" transform="translate(-136.697 -153.475)" fill="#969635"/>
            </g>
          </g>
        </g>
        <path id="Trazado_725394" data-name="Trazado 725394" d="M148.476,165.2a.627.627,0,0,1-.045-1.253l6.76-.5v-14.98a.628.628,0,0,1,1.255,0v15.565a.627.627,0,0,1-.582.625l-7.34.537-.048,0" transform="translate(223.268 223.261)" fill="#8c433b"/>
        <path id="Trazado_725395" data-name="Trazado 725395" d="M149.316,158.872a.621.621,0,0,1-.517-.274.629.629,0,0,1,.163-.873l5.234-3.569a.634.634,0,0,1,.565-.075l5.547,1.965a.627.627,0,1,1-.419,1.182l-5.249-1.857-4.97,3.394a.63.63,0,0,1-.354.108" transform="translate(224.536 232.624)" fill="#8c433b"/>
        <path id="Trazado_725396" data-name="Trazado 725396" d="M150.874,166.588a.627.627,0,0,1-.173-1.23l6.416-1.835V148.433a.628.628,0,0,1,1.255,0V164a.627.627,0,0,1-.454.6l-6.87,1.963a.6.6,0,0,1-.173.025" transform="translate(226.889 223.201)" fill="#b75a4e"/>
        <path id="Trazado_725397" data-name="Trazado 725397" d="M161.982,145.541s-3.507,7.714-7.151,8.414-5.891-8.414-5.891-8.414Z" transform="translate(224.913 219.782)" fill="#adb29a"/>
        <path id="Trazado_725398" data-name="Trazado 725398" d="M149.321,123.6s2.525-1.963,2.244-4.066a1.9,1.9,0,0,0-2.244-1.755s.281-3.155-1.963-4.415-4.488,1.122-4.488,1.122a2.788,2.788,0,0,0-2.244-.562c-1.263.281-1.4,1.963-1.4,1.963s-1.822-.281-2.382.981.7,4.488.7,4.488Z" transform="translate(206.426 170.627)" fill="#dd5845"/>
        <path id="Trazado_725399" data-name="Trazado 725399" d="M141.648,117.551l-9.252,2.944,4.626,1.122-3.364.981,7.99,1.122Z" transform="translate(199.932 177.514)" fill="#f9bf30"/>
        <path id="Trazado_725400" data-name="Trazado 725400" d="M153.1,120.848a9.13,9.13,0,0,0-11.268-5.532c-.073.025-.148.048-.226.073-7.573,2.525-4.207,18.093-4.348,20.056s-12.34,42.772,24.541,56.234,51.889-18.231,53.711-24.26,1.963-19.353,1.263-19.493-2.1,2.1-2.1,2.1.56-2.385-.981-1.682-11.92,6.31-20.194,7.852-23.279-1.26-28.188-5.47-9.669-23.118-12.207-29.88" transform="translate(204.186 173.505)" fill="#c7c9bc"/>
        <path id="Trazado_725401" data-name="Trazado 725401" d="M140.143,120.476a.627.627,0,0,1-.617-.527L139,116.761a.628.628,0,0,1,1.24-.206l.525,3.19a.628.628,0,0,1-.517.723.712.712,0,0,1-.1.008" transform="translate(209.889 175.215)"/>
        <path id="Trazado_725402" data-name="Trazado 725402" d="M141.726,139.313s10.093-11.386,28.889-8.03,25.816,9.594,25.483,10.826-6.042,3.66-6.042,3.66,7.739-1.935,6.052,0a20.911,20.911,0,0,1-4.709,3.612s3.02,1.679,2.683,2.686-17.45,10.068-34.9,4.363-17.453-17.116-17.453-17.116" transform="translate(214.021 197.317)" fill="#adb29a"/>
        <path id="Trazado_725403" data-name="Trazado 725403" d="M164.154,145.541s-3.507,7.714-7.151,8.414-5.891-8.414-5.891-8.414Z" transform="translate(228.195 219.782)" fill="#c7c9bc"/>
        <path id="Trazado_725404" data-name="Trazado 725404" d="M160.073,139.082a38.54,38.54,0,0,1-6.569-.515.627.627,0,0,1,.216-1.235c8.467,1.466,19.087-.861,19.195-.886a.629.629,0,0,1,.276,1.227,67.324,67.324,0,0,1-13.118,1.408" transform="translate(231.024 206.025)" fill="#f9bf30"/>
        <path id="Trazado_725405" data-name="Trazado 725405" d="M158.324,141.5c-.289,0-.58-.007-.871-.023a.626.626,0,0,1-.595-.658.6.6,0,0,1,.658-.595c5.264.269,10.708-2.274,10.761-2.3a.627.627,0,1,1,.54,1.132,27.576,27.576,0,0,1-10.492,2.44" transform="translate(236.872 208.198)" fill="#f9bf30"/>
        <path id="Trazado_725406" data-name="Trazado 725406" d="M151.915,159.663a.627.627,0,0,1-.452-1.064l4.262-4.4a.636.636,0,0,1,.66-.156l5.552,1.965a.627.627,0,1,1-.419,1.182l-5.171-1.83-3.981,4.114a.629.629,0,0,1-.452.191" transform="translate(228.459 232.566)" fill="#b75a4e"/>
        <g id="Grupo_984340" data-name="Grupo 984340" transform="translate(49.45 387.883)" opacity="0.38" style="mix-blend-mode: multiply;isolation: isolate">
          <g id="Grupo_984339" data-name="Grupo 984339">
            <g id="Grupo_984338" data-name="Grupo 984338" clip-path="url(#clip-path-4)">
              <path id="Trazado_725407" data-name="Trazado 725407" d="M73.843,158.712c0,2.312-12.121,4.184-27.071,4.184S19.7,161.024,19.7,158.712s12.121-4.184,27.071-4.184,27.071,1.873,27.071,4.184" transform="translate(-19.701 -154.529)" fill="#969635"/>
            </g>
          </g>
        </g>
        <path id="Trazado_725408" data-name="Trazado 725408" d="M37.679,166.258c-.045,0-7.387-.54-7.387-.54a.627.627,0,0,1-.582-.625V149.526a.628.628,0,1,1,1.255,0v14.983l6.76.5a.627.627,0,0,1-.045,1.253" transform="translate(44.864 224.852)" fill="#d89d19"/>
        <path id="Trazado_725409" data-name="Trazado 725409" d="M38.91,159.927a.63.63,0,0,1-.354-.108l-4.97-3.394-5.251,1.857a.628.628,0,0,1-.419-1.185l5.552-1.963a.629.629,0,0,1,.562.075l5.234,3.569a.628.628,0,0,1-.354,1.147" transform="translate(41.524 234.217)" fill="#d89d19"/>
        <path id="Trazado_725410" data-name="Trazado 725410" d="M35,167.644a.6.6,0,0,1-.173-.025l-6.873-1.963a.626.626,0,0,1-.454-.6V149.486a.628.628,0,1,1,1.255,0v15.093l6.418,1.835a.627.627,0,0,1-.173,1.23" transform="translate(41.523 224.791)" fill="#f9bf30"/>
        <path id="Trazado_725411" data-name="Trazado 725411" d="M26.848,146.6s3.507,7.714,7.151,8.414,5.891-8.414,5.891-8.414Z" transform="translate(40.543 221.374)" fill="#8c433b"/>
        <path id="Trazado_725412" data-name="Trazado 725412" d="M40.62,124.649s-2.525-1.963-2.244-4.066a1.9,1.9,0,0,1,2.244-1.757s-.281-3.153,1.963-4.413,4.488,1.12,4.488,1.12a2.791,2.791,0,0,1,2.244-.56c1.263.281,1.4,1.963,1.4,1.963s1.822-.281,2.382.981-.7,4.488-.7,4.488Z" transform="translate(57.919 172.218)" fill="#dd5845"/>
        <path id="Trazado_725413" data-name="Trazado 725413" d="M44.9,118.6l9.252,2.944-4.626,1.122,3.364.981-7.99,1.122Z" transform="translate(67.805 179.105)" fill="#f9bf30"/>
        <path id="Trazado_725414" data-name="Trazado 725414" d="M77.187,121.9a9.13,9.13,0,0,1,11.268-5.532c.073.025.148.048.223.073,7.573,2.525,4.209,18.09,4.35,20.056s12.34,42.77-24.544,56.234S16.6,174.5,14.775,168.472s-1.963-19.353-1.263-19.493,2.1,2.1,2.1,2.1-.56-2.385.981-1.682,11.92,6.31,20.194,7.852,23.279-1.26,28.188-5.47,9.669-23.118,12.207-29.88" transform="translate(19.816 175.096)" fill="#b75a4e"/>
        <path id="Trazado_725415" data-name="Trazado 725415" d="M41.912,121.53a.646.646,0,0,1-.62-.73l.525-3.19a.627.627,0,1,1,1.237.206L42.53,121a.627.627,0,0,1-.617.527" transform="translate(62.342 176.808)"/>
        <path id="Trazado_725416" data-name="Trazado 725416" d="M72.118,140.365s-10.093-11.383-28.889-8.027-25.816,9.594-25.483,10.826,6.042,3.66,6.042,3.66-7.739-1.935-6.052,0a20.91,20.91,0,0,0,4.709,3.612s-3.02,1.679-2.683,2.686,17.45,10.068,34.9,4.363,17.453-17.119,17.453-17.119" transform="translate(26.421 198.909)" fill="#8c433b"/>
        <path id="Trazado_725417" data-name="Trazado 725417" d="M24.675,146.6s3.507,7.714,7.151,8.414,5.891-8.414,5.891-8.414Z" transform="translate(37.262 221.374)" fill="#b75a4e"/>
        <path id="Trazado_725418" data-name="Trazado 725418" d="M33.358,140.135a67.285,67.285,0,0,1-13.115-1.408.629.629,0,0,1,.274-1.227c.108.025,10.726,2.357,19.195.886a.617.617,0,0,1,.725.51.624.624,0,0,1-.51.725,38.54,38.54,0,0,1-6.569.515" transform="translate(29.829 207.618)" fill="#b75a4e"/>
        <path id="Trazado_725419" data-name="Trazado 725419" d="M30.064,142.557a27.557,27.557,0,0,1-10.49-2.44.627.627,0,1,1,.54-1.132c.055.025,5.475,2.568,10.761,2.3a.6.6,0,0,1,.658.595.624.624,0,0,1-.592.658c-.294.015-.585.023-.876.023" transform="translate(29.021 209.791)" fill="#b75a4e"/>
        <path id="Trazado_725420" data-name="Trazado 725420" d="M35.727,160.716a.625.625,0,0,1-.452-.191l-3.981-4.114-5.171,1.83a.627.627,0,0,1-.419-1.182l5.55-1.965a.642.642,0,0,1,.66.156l4.265,4.4a.627.627,0,0,1-.452,1.064" transform="translate(38.185 234.158)" fill="#f9bf30"/>
        <path id="Trazado_725421" data-name="Trazado 725421" d="M128.884,38.72s10.723-9.448,5.407-12.5c-4.4-2.528-16.8,12.433-16.8,12.433Z" transform="translate(177.427 39.161)" fill="#ed7c70"/>
        <path id="Trazado_725422" data-name="Trazado 725422" d="M124.055,31.406l17.187-1.988,5.726,26.218s-26.67,7.581-31.6-2.114,8.687-22.117,8.687-22.117" transform="translate(172.595 44.424)" fill="#ed7c70"/>
        <path id="Trazado_725423" data-name="Trazado 725423" d="M127.014,362.265a4.164,4.164,0,0,0,4.164-4.167V19.987a4.167,4.167,0,0,0-8.334,0V358.1a4.167,4.167,0,0,0,4.169,4.167" transform="translate(185.509 23.894)" fill="#874742"/>
        <path id="Trazado_725424" data-name="Trazado 725424" d="M58.531,18s18.818,3.057,51.593.648,46.683-10.67,46.683-10.67L94.358,10.433Z" transform="translate(88.388 12.045)" fill="#c68e1e"/>
        <g id="Grupo_984343" data-name="Grupo 984343" transform="translate(112.706 385.237)" opacity="0.38" style="mix-blend-mode: multiply;isolation: isolate">
          <g id="Grupo_984342" data-name="Grupo 984342">
            <g id="Grupo_984341" data-name="Grupo 984341" clip-path="url(#clip-path-5)">
              <path id="Trazado_725425" data-name="Trazado 725425" d="M44.9,160.257c0,3.745,48.9,6.782,109.212,6.782s109.21-3.037,109.21-6.782-48.894-6.782-109.21-6.782S44.9,156.512,44.9,160.257" transform="translate(-44.9 -153.474)" fill="#969635"/>
            </g>
          </g>
        </g>
        <path id="Trazado_725426" data-name="Trazado 725426" d="M82.14,12.458s9.8-3.79,10.3,3.717c.572,8.7-9.789,8.419-9.789,8.419Z" transform="translate(124.04 17.367)" fill="#ed7c70"/>
        <path id="Trazado_725427" data-name="Trazado 725427" d="M84.334,19.093A.619.619,0,0,1,84,19a.627.627,0,0,1-.2-.866l3.414-5.414a.627.627,0,1,1,1.062.668L84.864,18.8a.62.62,0,0,1-.53.294" transform="translate(126.407 18.76)"/>
        <path id="Trazado_725428" data-name="Trazado 725428" d="M87.509,15.313c-.033,0-2.786-.143-2.786-.143a.625.625,0,0,1-.595-.658.609.609,0,0,1,.658-.595l2.756.143a.627.627,0,0,1-.033,1.253" transform="translate(127.04 21.014)"/>
        <path id="Trazado_725429" data-name="Trazado 725429" d="M110.565,178.446c0,3.394-1.1,7.279-3.356,8.256s-20.505,3.015-36.474,1.576c-15.287-1.386-18.459-2.553-19.586-3.994-.55-.733.525-4.127,1.757-7.415.078-.163.131-.351.211-.515.628-1.657,1.283-3.261,1.757-4.4a18.956,18.956,0,0,1,1.729-3.123c1.652-2.364,4.93-7.252,5.768-9.779,1.1-3.366,2.779-10.645,3.908-14.069a6.124,6.124,0,0,1,3.881-4.074s31.437-2.226,33.693-.271c2.229,1.928,3.356,17.952,3.356,20.37v2.417c0,2.257,1.494,6.71,2.465,10.4.261.921.472,1.792.63,2.58a11.007,11.007,0,0,1,.261,2.036" transform="translate(77.016 211.165)" fill="#ad584d"/>
        <path id="Trazado_725430" data-name="Trazado 725430" d="M184.854,185.5c-2.1.9-91.328,3.421-93.4,0-.63-1.032-1.074-4.536-1.363-8.936-.735-10.374-.735-25.8-.735-25.8s-.55-7.686-.419-10.131c.105-2.417,42.923.924,42.923.924l27.9,22.787a51.623,51.623,0,0,1,16.022,0c4.43.733,7.289,6.356,8.705,11.652,1.258,4.7,1.363,9.072.367,9.506" transform="translate(134.275 211.04)" fill="#ad584d"/>
        <path id="Trazado_725431" data-name="Trazado 725431" d="M59.334,152.963a.628.628,0,0,1-.168-1.232c.512-.143,12.666-3.482,19.092-2.342l3.968.705c-3.381-2.588-10.563-7.387-14.988-5.427a.627.627,0,0,1-.507-1.147c6.662-2.954,17.729,6.735,18.2,7.146a.627.627,0,0,1-.525,1.089l-6.366-1.132c-6.152-1.087-18.417,2.282-18.54,2.317a.627.627,0,0,1-.166.023" transform="translate(88.651 215.885)" fill="#f9bf30"/>
        <path id="Trazado_725432" data-name="Trazado 725432" d="M124.422,153.464c-.068,0-15.967-1.7-15.967-1.7a.625.625,0,0,1-.419-1.022l5.545-6.762a.628.628,0,1,1,.969.8l-4.809,5.861,14.744,1.571a.628.628,0,0,1-.063,1.253" transform="translate(162.927 217.08)" fill="#f9bf30"/>
        <path id="Trazado_725433" data-name="Trazado 725433" d="M53.469,271.013c-.595,2.553,55.069,4.026,56.984,2.134.306-.306.791-3.652,1.386-9.019.4-3.5.813-7.857,1.275-12.784,3.037-32.782,7.217-90.954,7.217-90.954s5.721,25.719,7.46,44.948c.924,10.452,3.256,29.549,5.191,44.84.617,4.774,1.187,9.174,1.652,12.827.813,6.16,1.34,10.141,1.34,10.141h58.172s-.218-3.63-.791-10.141c-.309-3.476-.728-7.789-1.278-12.827a789.627,789.627,0,0,0-14.277-85.9C163.058,98.941,144.972,62.725,144.972,62.725S77.209,35.159,72.566,72.452c-1.21,9.614-12.124,127.167-16.9,176.759-.482,5.015-.9,9.35-1.253,12.781-.53,5.457-.858,8.713-.946,9.021" transform="translate(80.736 79.909)" fill="#ffc403"/>
        <path id="Trazado_725434" data-name="Trazado 725434" d="M80.482,132.295a.631.631,0,0,1-.628-.673c.015-.241,1.83-24.117,2.357-34.695s.547-15.633.547-15.681a.622.622,0,0,1,.364-.567l18.843-8.687a.62.62,0,0,1,.831.3.632.632,0,0,1-.306.836L84.008,81.651c-.015,1.391-.1,6.406-.545,15.339-.527,10.6-2.342,34.486-2.36,34.727a.626.626,0,0,1-.622.577" transform="translate(120.585 108.625)" fill="#fff"/>
        <path id="Trazado_725435" data-name="Trazado 725435" d="M56.911,127.449a240.894,240.894,0,0,0,50.779,3.411c26.753-1.278,39.133-5.246,39.133-5.246l-7.671-56.623L119.9,24.023s-12.287-6.115-32.257,3.253c-7.222,3.389-19.1,51.615-25.523,78.237-.2.771-.374,1.541-.57,2.289-2.774,11.549-4.644,19.647-4.644,19.647" transform="translate(85.942 33.316)" fill="#ffe8ce"/>
        <path id="Trazado_725436" data-name="Trazado 725436" d="M75.177,21.509l-.434,10.143a21.408,21.408,0,0,0,8.738,2.5c6.607.341,8.971-3.5,8.971-3.5l.364-11.9Z" transform="translate(112.87 28.319)" fill="#ed7c70"/>
        <path id="Trazado_725437" data-name="Trazado 725437" d="M74.916,20.9s2.882,8.324,10.424,7.46c6.079-.693,8.108-9.21,8.108-9.21Z" transform="translate(113.131 28.915)"/>
        <path id="Trazado_725438" data-name="Trazado 725438" d="M104.33,13.632s3.594,18.715-2.011,26.755c-6.009,8.62-15.1,5.668-18.449,2.907a15.529,15.529,0,0,1-5.291-8.708s-6.418,1.049-8.364-4.222c-2.043-5.537,2.078-9.807,5.276-9.955s3.549.442,3.549.442l-.733-5.864S98.437-5.881,104.33,13.632" transform="translate(105.208 8)" fill="#ed7c70"/>
        <path id="Trazado_725439" data-name="Trazado 725439" d="M76.127,18.249a.624.624,0,0,1-.424-.166L70.928,13.7a.629.629,0,0,1,.851-.926l4.772,4.39a.628.628,0,0,1-.424,1.089" transform="translate(106.805 19.036)"/>
        <path id="Trazado_725440" data-name="Trazado 725440" d="M71.435,17.109a.627.627,0,0,1-.359-1.142l2.979-2.083a.627.627,0,0,1,.718,1.029L71.794,17a.626.626,0,0,1-.359.113" transform="translate(106.928 20.796)"/>
        <path id="Trazado_725441" data-name="Trazado 725441" d="M77.193,15.581a.625.625,0,0,1-.628-.612l-.075-3.13a.628.628,0,0,1,1.255-.03l.075,3.13a.632.632,0,0,1-.615.643Z" transform="translate(115.508 16.907)"/>
        <path id="Trazado_725442" data-name="Trazado 725442" d="M81.681,15.7a.626.626,0,0,1-.628-.61l-.075-3.13a.628.628,0,0,1,.612-.643.605.605,0,0,1,.643.612l.075,3.13a.624.624,0,0,1-.612.64Z" transform="translate(122.285 17.091)"/>
        <path id="Trazado_725443" data-name="Trazado 725443" d="M79.807,22.118a.693.693,0,0,1-.143-.015.632.632,0,0,1-.469-.756,16.486,16.486,0,0,0-.311-8.436.627.627,0,0,1,1.18-.427,17.478,17.478,0,0,1,.356,9.149.632.632,0,0,1-.612.484" transform="translate(119.066 18.227)"/>
        <path id="Trazado_725444" data-name="Trazado 725444" d="M84.6,12.115a.625.625,0,0,1-.459-.2,5.111,5.111,0,0,0-2.779-1.157.631.631,0,0,1-.567-.683.654.654,0,0,1,.68-.567,6.283,6.283,0,0,1,3.584,1.554.628.628,0,0,1-.459,1.054" transform="translate(122.009 14.354)"/>
        <path id="Trazado_725445" data-name="Trazado 725445" d="M76.538,12.229a.628.628,0,0,1-.457-1.057A6.3,6.3,0,0,1,79.67,9.633a.635.635,0,0,1,.68.57.628.628,0,0,1-.57.68,5.117,5.117,0,0,0-2.786,1.147.621.621,0,0,1-.457.2" transform="translate(114.632 14.544)"/>
        <path id="Trazado_725446" data-name="Trazado 725446" d="M73.293,13.992s1.8,5.8,2.555,5.587-.186-9.282-2.332-9.722-.223,4.134-.223,4.134" transform="translate(109.485 14.842)"/>
        <path id="Trazado_725447" data-name="Trazado 725447" d="M77.428,24.825s6.421-.633,10.68-4.029a16.554,16.554,0,0,0,4.947-6.91s2.759-.394,6.735,1.973,4.4,9.847,4.4,9.847,3.4-9.074-.131-13.509-5.462-4.345-5.462-4.345.884-8.308-10.55-4.932A20.2,20.2,0,0,0,74.133,16.246s-2.826-.921-3.356,2.7c-.941,6.456.1,7.952.1,7.952a4.25,4.25,0,0,1,4.315-.71l2.633.934Z" transform="translate(106.286 3.19)"/>
        <path id="Trazado_725448" data-name="Trazado 725448" d="M80.154,20.4a3.658,3.658,0,0,1-3.532-3.178.627.627,0,0,1,1.22-.289c.572,2.4,2.347,2.224,2.545,2.194a.627.627,0,0,1,.193,1.24,2.758,2.758,0,0,1-.427.033" transform="translate(115.682 24.839)"/>
        <path id="Trazado_725449" data-name="Trazado 725449" d="M90.014,53.721S90.4,89.786,127.262,95.2c18.705,2.751,33.605-6.381,42.325-13.893,1.263-1.087,2.41-2.121,3.391-3.087a55.721,55.721,0,0,0,5.2-5.726l-15.063-29.1a36,36,0,0,1-6.17,2.771,33.79,33.79,0,0,1-4.332,1.177c-17.024,3.64-39.554-7.249-47.255-12.528-9.33-6.393-23.03-10.517-23.03-10.517Z" transform="translate(124.321 36.68)" fill="#ffe8ce"/>
        <path id="Trazado_725450" data-name="Trazado 725450" d="M102.911,46.108a1.459,1.459,0,0,1-1.182-.56c-1.614-2.058,1.554-10.374,2.206-12.021a.61.61,0,0,1,.648-.394.623.623,0,0,1,.552.517c.158.9,1.473,8.843-.472,11.5a2.162,2.162,0,0,1-1.489.934,1.921,1.921,0,0,1-.264.02m1.325-9.774c-1.305,3.8-2.159,7.626-1.521,8.439.03.04.085.1.286.073a.924.924,0,0,0,.648-.432c1.022-1.4.889-5.244.587-8.08" transform="translate(152.937 50.026)" fill="#f9bf30"/>
        <path id="Trazado_725451" data-name="Trazado 725451" d="M57.066,144.452H106.7a1.254,1.254,0,0,0,1.248-1.137l5.608-62.253a1.251,1.251,0,0,0-1.245-1.36H51.458a1.249,1.249,0,0,0-1.245,1.36l5.608,62.253a1.25,1.25,0,0,0,1.245,1.137" transform="translate(75.819 120.357)" fill="#adb29a"/>
        <path id="Trazado_725452" data-name="Trazado 725452" d="M59.1,144.452h49.632a1.249,1.249,0,0,0,1.243-1.137l5.61-62.253a1.251,1.251,0,0,0-1.245-1.36H53.5a1.249,1.249,0,0,0-1.245,1.36l5.608,62.253a1.25,1.25,0,0,0,1.245,1.137" transform="translate(78.898 120.357)" fill="#c7c9bc"/>
        <path id="Trazado_725453" data-name="Trazado 725453" d="M101.98,103.056a1.422,1.422,0,0,1-1.408-1.476c.01-.183.8-18.171-8.007-26.73-3.451-3.356-8.022-4.845-13.54-4.413C55.869,72.237,56.652,100.4,56.7,101.595a1.406,1.406,0,0,1-1.353,1.458,1.382,1.382,0,0,1-1.461-1.35c-.01-.321-.936-32.062,24.923-34.072,6.371-.5,11.669,1.258,15.728,5.208,9.714,9.453,8.891,28.091,8.851,28.881a1.408,1.408,0,0,1-1.406,1.335" transform="translate(81.361 102.005)" fill="#adb29a"/>
        <path id="Trazado_725454" data-name="Trazado 725454" d="M149.358,126.458s-6.31-48.207-9.938-65.777-6.9-30.37-6.9-30.37l-10.653-6.885,4.059,44.243H101.609l.158-45.212s-6.737,1.86-9.448,3.042l-2.708,1.18s5.384,41.369-8.59,54.768-25.41,9.328-25.41,9.328l19.677,43.774,62.321,3.592Z" transform="translate(83.978 33.912)" fill="#ffc403"/>
        <path id="Trazado_725455" data-name="Trazado 725455" d="M71.922,61.812s16.742-1.3,18.291,19.114l-4.041-2.354s7.345,12.064,6.145,15.794c-1.446,4.488-5.58.919-5.58.919s.462,5.339-1.837,5.977c-3.055.846-5.234-2.8-5.234-2.8s1.014,6.692-4.593,5.168S50.551,79.7,57.918,67.452c3.64-6.049,14-5.64,14-5.64" transform="translate(84.925 93.318)" fill="#ed7c70"/>
        <path id="Trazado_725456" data-name="Trazado 725456" d="M71.708,81.138a.625.625,0,0,1-.54-.309l-4.892-8.306a.628.628,0,0,1,1.082-.638l4.89,8.306a.628.628,0,0,1-.54.946" transform="translate(99.953 108.088)"/>
        <path id="Trazado_725457" data-name="Trazado 725457" d="M68.415,81.784a.63.63,0,0,1-.547-.319l-4.1-7.272a.627.627,0,1,1,1.092-.617l4.1,7.272a.627.627,0,0,1-.241.856.608.608,0,0,1-.306.08" transform="translate(96.175 110.623)"/>
        <path id="Trazado_725458" data-name="Trazado 725458" d="M69.619,72.106a.625.625,0,0,1-.577-.384l-2.1-4.98a.628.628,0,1,1,1.157-.489l2.1,4.983a.623.623,0,0,1-.334.821.6.6,0,0,1-.243.05" transform="translate(101.008 99.472)"/>
        <path id="Trazado_725459" data-name="Trazado 725459" d="M73.426,121.754a.634.634,0,0,1-.625-.67l2.385-34.722a.628.628,0,1,1,1.253.085l-2.387,34.722a.628.628,0,0,1-.625.585" transform="translate(109.935 129.528)" fill="#fff"/>
        <path id="Trazado_725460" data-name="Trazado 725460" d="M58.638,124.355c.813,1.365,1.629,2.6,2.377,3.74a70.837,70.837,0,0,0,5.7,7.5L99.8,120.527,88.174,82.213l.971-4.4,13.1-53.671S64.843,31.2,51.135,66.161c-9.217,23.565-.153,45.521,7.5,58.194" transform="translate(71.343 36.452)" fill="#ffe8ce"/>
        <path id="Trazado_725461" data-name="Trazado 725461" d="M67.137,56.454a.626.626,0,0,1-.527-.286c-1.564-2.422-6.579-10.487-5.432-12.691a1.3,1.3,0,0,1,1.17-.7c3.547-.113,5.136,10.781,5.412,12.972a.624.624,0,0,1-.407.668.641.641,0,0,1-.216.038M62.415,44.027c-.625.6,1.029,4.44,3.622,8.831-.866-4.666-2.3-8.831-3.622-8.831" transform="translate(92.13 64.596)" fill="#f9bf30"/>
        <path id="Trazado_725462" data-name="Trazado 725462" d="M58.531,30.043s100.806-9.536,98.276-10.023S126.66,16.79,126.66,16.79,119.938.665,117.448.073,93.012,2.645,90.723,5.045s-2.811,14.631-2.811,14.631Z" transform="translate(88.388 0)" fill="#ffc403"/>
        <path id="Trazado_725463" data-name="Trazado 725463" d="M70.613,9.9a.627.627,0,0,1-.11-1.245L80.119,6.9a.638.638,0,0,1,.73.5.627.627,0,0,1-.5.73L70.726,9.89a.573.573,0,0,1-.113.01" transform="translate(105.684 10.404)" fill="#fff"/>
        <path id="Trazado_725464" data-name="Trazado 725464" d="M91.331,53.578a.629.629,0,0,1-.625-.57L89.891,44.2a.628.628,0,0,1,.567-.683.647.647,0,0,1,.683.567l.816,8.808a.627.627,0,0,1-.567.683l-.058,0" transform="translate(135.74 65.715)" fill="#f9bf30"/>
        <path id="Trazado_725465" data-name="Trazado 725465" d="M84.554,28.074a21.8,21.8,0,0,1-9.714-2.641.628.628,0,0,1-.281-.841.634.634,0,0,1,.843-.281c12.109,6.059,16.86-.725,16.906-.793a.635.635,0,0,1,.874-.171.626.626,0,0,1,.168.871c-.035.055-2.693,3.856-8.8,3.856" transform="translate(112.492 35.098)" fill="#f9bf30"/>
        <path id="Trazado_725466" data-name="Trazado 725466" d="M95.09,42.912H79.475a.628.628,0,0,1,0-1.255H95.09a.628.628,0,0,1,0,1.255" transform="translate(119.067 62.906)" fill="#fff"/>
        <path id="Trazado_725467" data-name="Trazado 725467" d="M118.245,43.926a.628.628,0,0,1-.033-1.255c8.888-.444,8.7-10.683,8.685-11.117a.628.628,0,1,1,1.255-.038c.005.12.243,11.9-9.875,12.407l-.033,0" transform="translate(177.616 46.669)"/>
        <path id="Trazado_725468" data-name="Trazado 725468" d="M140.1,39.285s11.506-4.219,6.592-8.334-26.921-1.157-27.7,5.319,21.11,3.015,21.11,3.015" transform="translate(179.654 43.878)" fill="#ed7c70"/>
        <path id="Trazado_725469" data-name="Trazado 725469" d="M140.308,42.978s11.178-4.144,6.366-8.283-26.218-1.318-26.938,5.143,20.573,3.14,20.573,3.14" transform="translate(180.785 49.457)" fill="#ed7c70"/>
        <path id="Trazado_725470" data-name="Trazado 725470" d="M134.951,46.226a17.08,17.08,0,0,0,8.193-1.378c2.239-1.029,4.014-2.6,2.156-4.762-3.71-4.327-23.6-5.05-25.282.479-1.248,4.1,9.37,5.311,14.933,5.66" transform="translate(181.088 55.313)" fill="#ed7c70"/>
        <path id="Trazado_725471" data-name="Trazado 725471" d="M123.223,35.2a.628.628,0,0,1-.058-1.253l14.363-1.386a.651.651,0,0,1,.685.565.631.631,0,0,1-.565.685L123.283,35.2l-.06,0" transform="translate(185.131 49.176)"/>
        <path id="Trazado_725472" data-name="Trazado 725472" d="M123.148,37.928a.628.628,0,0,1-.008-1.255l13.344-.136a.628.628,0,1,1,.013,1.255l-13.344.136Z" transform="translate(185.018 55.175)"/>
        <rect id="Rectángulo_345047" data-name="Rectángulo 345047" width="8.522" height="25.342" transform="translate(308.166 37.225)" fill="#c7c9bc"/>
        <path id="Trazado_725473" data-name="Trazado 725473" d="M117.171,4.962V20.323a3.59,3.59,0,0,0,.5,1.832l12.4,21.11a3.614,3.614,0,0,0,3.113,1.782h4.493a3.614,3.614,0,0,0,3.113-1.782l12.4-21.11a3.59,3.59,0,0,0,.5-1.832V4.962a3.615,3.615,0,0,0-3.615-3.615H120.786a3.632,3.632,0,0,0-3.615,3.615" transform="translate(176.94 2.034)" fill="#adb29a"/>
        <path id="Trazado_725474" data-name="Trazado 725474" d="M117.171,8.907a3.59,3.59,0,0,0,.5,1.832l12.4,21.11a3.614,3.614,0,0,0,3.113,1.782h4.493a3.614,3.614,0,0,0,3.113-1.782l12.4-21.11a3.59,3.59,0,0,0,.5-1.832Z" transform="translate(176.94 13.451)" fill="#c7c9bc"/>
        <path id="Trazado_725475" data-name="Trazado 725475" d="M130.718,15.5a.628.628,0,0,1-.628-.628V3.229a.628.628,0,1,1,1.255,0V14.87a.628.628,0,0,1-.628.628" transform="translate(196.449 3.928)" fill="#fff"/>
      </g>
    </g>
  </g>
</svg>
