<svg id="Grupo_997221" data-name="Grupo 997221" xmlns="http://www.w3.org/2000/svg" xmlns:xlink="http://www.w3.org/1999/xlink" width="205.212" height="193.52" viewBox="0 0 205.212 193.52">
  <defs>
    <clipPath id="clip-path">
      <rect id="Rectángulo_349649" data-name="Rectángulo 349649" width="205.212" height="193.519" fill="none"/>
    </clipPath>
  </defs>
  <g id="Grupo_997220" data-name="Grupo 997220" transform="translate(0 0)" clip-path="url(#clip-path)">
    <path id="Trazado_731211" data-name="Trazado 731211" d="M89.935,13.629s-19.96-1.778-20.633,23.7c-3.7,6.829-9.415,10.775-9.616,20.046C52.153,59.3,43.3,65.711,37.019,71.746,31.63,76.927,34.7,89.213,44.957,88.01,49.079,87.525,65,81.468,72.565,76.875s10.3-12.024,13.754-22.548c2.262-6.885,3.615-40.7,3.615-40.7" transform="translate(34.573 13.67)" fill="#f4ebea"/>
    <path id="Trazado_731212" data-name="Trazado 731212" d="M83.739,77.953a25.807,25.807,0,0,1,8.271-5.9c4.439-2,6.707-.826,10.388,4.16a37.658,37.658,0,0,0,11.984,3.244c4.471.656,8.393,2.625,5.9,7.12s-12.846,6.46-17.882,6.392-14.173,0-14.173,0Z" transform="translate(84.157 71.484)" fill="#3f2a28"/>
    <path id="Trazado_731213" data-name="Trazado 731213" d="M67.321,68.651a25.807,25.807,0,0,1,8.271-5.9c4.439-2,6.707-.826,10.388,4.16a37.658,37.658,0,0,0,11.984,3.244c4.471.656,8.393,2.625,5.9,7.12s-12.846,6.46-17.882,6.392-14.173,0-14.173,0Z" transform="translate(67.657 62.135)" fill="#3f2a28"/>
    <path id="Trazado_731214" data-name="Trazado 731214" d="M69.3,51.229S56.189,67.491,48.053,77.6,39.486,92.72,44.161,102.92s11.32,9.572,22.287,7.791,37.289-17.552,37.289-17.552v-29.1Z" transform="translate(41.37 51.484)" fill="#e5dbda"/>
    <path id="Trazado_731215" data-name="Trazado 731215" d="M68.721,58.065S57.952,84.547,55.129,95.6A24.717,24.717,0,0,0,62.2,120.174c3.846,3.571,23.338,3.86,36.779-1.161s22.979-6.632,26.516-10.757a13.053,13.053,0,0,0,1.592-14.685c-3.98-7.968-6.618-7.7-18.121-4.541-7.424,2.041-18.616,4.541-18.616,4.541s7.763-6.047,11.653-13.668,2.783-23.984,2.783-23.984Z" transform="translate(54.574 56.198)" fill="#f4ebea"/>
    <path id="Trazado_731216" data-name="Trazado 731216" d="M54.3,61.525s2.532,8.637,22.378,10.129c22.305,1.676,28.076-5.756,28.076-5.756l.18-5.971S85.968,63.492,76.681,62A178.508,178.508,0,0,1,56.091,56.99Z" transform="translate(54.574 57.273)" fill="#dbcbca"/>
    <path id="Trazado_731217" data-name="Trazado 731217" d="M64.78,18.135c-6.739,1.947-9.762,6.175-9.762,19.8,0,4.347,3.024,18.676,3.024,25.9,0,12.407-5.636,20.978-5.678,25.259-.078,8.066,9.291,14.781,15.39,16.86,14.9,5.079,30.777,2.075,37.676-4.373s1.851-13.56,2.121-20.972c.531-14.532,6.709-32.094.9-43.544-7.511-14.795-16.922-15.268-21.092-17.02-6.695-2.815-15.835-3.854-22.574-1.907" transform="translate(52.624 17.22)" fill="#fff"/>
    <path id="Trazado_731218" data-name="Trazado 731218" d="M56.62,8.063a115.289,115.289,0,0,0,.2,17.776C57.883,38.31,69.556,40.385,69.556,40.385S74.6,29.378,74.6,28.67,67.7,8.063,67.7,8.063Z" transform="translate(56.658 8.102)" fill="#dbcbca"/>
    <path id="Trazado_731219" data-name="Trazado 731219" d="M63.246,19.357s-1.327,9.153,0,11.851c3.775.447,5.49-.549,14.328-4.712s1.592-9.3,1.592-9.3Z" transform="translate(62.968 17.279)" fill="#ffb8a3"/>
    <path id="Trazado_731220" data-name="Trazado 731220" d="M58.592,17.8c.62-3.966,2.051-8.876,5.44-11.372C67.378,3.965,72.613,4.279,76.512,5c6.049,1.119,9.572,8.347,7.609,16.022-1.814,7.088-7.886,17.638-16.086,18.231-4.174.3-6.993-3.126-8.419-7.268A32.577,32.577,0,0,1,58.592,17.8" transform="translate(58.536 4.504)" fill="#ffc8b5"/>
    <path id="Trazado_731221" data-name="Trazado 731221" d="M89.206,23.708s.449.283-.834,3.208a60.9,60.9,0,0,1-3.864,6.9s-1.817-1.267-1.62-5.423a13.685,13.685,0,0,1,1.62-6.36s-4.227.794-8.832-2.707-5.2-6.1-5.2-6.1S66.9,18.351,62.08,18.088s-9.732-7.29-4.9-8.876,9.371-5.74,13.3-5.778c10.494-.1,21.489,2.105,18.727,20.274" transform="translate(55.47 3.447)" fill="#3f2a28"/>
    <path id="Trazado_731222" data-name="Trazado 731222" d="M70.21,9.1c11.8,2.105,12.615,16.327,11.609,24.17-1.682,13.131-8.427,13.716-8.427,13.716s11.11,1.147,17.917-6.266c9.231-10.053,6.767-18.041,4.1-26.947C92.225,3.166,84.949-1.722,73.578.544c-9.54,1.9-13.119,7.2-16.186,11.112,5.456-1.8,10.582-2.949,12.818-2.55" transform="translate(57.678 -0.001)" fill="#fff"/>
    <path id="Trazado_731223" data-name="Trazado 731223" d="M63.472,24.458a.817.817,0,0,1-.373-1.544,98.069,98.069,0,0,0,13.742-8.68c.05.8-.082,1.506-.068,2.131a102.278,102.278,0,0,1-12.928,8,.8.8,0,0,1-.373.09" transform="translate(62.967 14.305)" fill="#fff"/>
    <path id="Trazado_731224" data-name="Trazado 731224" d="M67.576,25.653a.8.8,0,0,1-.471-.192.811.811,0,0,1-.1-1.149,72.083,72.083,0,0,0,5.213-7.248,38.2,38.2,0,0,1-1.025,4.473c-1.574,2.2-2.817,3.681-2.939,3.828a.819.819,0,0,1-.68.289" transform="translate(67.146 17.148)" fill="#fff"/>
    <path id="Trazado_731225" data-name="Trazado 731225" d="M62.781,16.1,55.66,17.978l2.41,9.534,6.7-1.263Z" transform="translate(55.937 16.181)" fill="#3f2a28"/>
    <path id="Trazado_731226" data-name="Trazado 731226" d="M58.705,14.876s4.708-.71,11.092,4.168c7.122,5.442,9.049,7.831,9.049,7.831S71.5,36.071,63.361,30.238c-6.067-4.345-4.656-15.362-4.656-15.362" transform="translate(58.855 14.913)" fill="#493230"/>
    <path id="Trazado_731227" data-name="Trazado 731227" d="M70.31,26.051l3.425-3.28L71.016,19.9C69.5,18.464,66.5,19.168,64.3,21.478s-2.749,5.345-1.235,6.785l2.374,2.454,3.108-2.977a8.657,8.657,0,0,0,1.233-1.051c.194-.207.361-.423.529-.638" transform="translate(62.523 19.251)" fill="#3f2a28"/>
    <path id="Trazado_731228" data-name="Trazado 731228" d="M71.137,28.118c-2.2,2.308-5.2,3.014-6.715,1.574s-.96-4.475,1.235-6.785,5.2-3.013,6.715-1.574.96,4.477-1.235,6.785" transform="translate(63.885 20.689)" fill="#5b403e"/>
    <path id="Trazado_731229" data-name="Trazado 731229" d="M70,26.943c-1.678,1.764-3.978,2.3-5.135,1.2s-.734-3.423.946-5.187,3.976-2.3,5.133-1.2.734,3.425-.944,5.189" transform="translate(64.532 21.289)" fill="#493230"/>
    <path id="Trazado_731230" data-name="Trazado 731230" d="M58.672,21.451c.652,2.637.525,4.936-.279,5.135s-1.987-1.776-2.639-4.415-.525-4.936.279-5.135,1.987,1.778,2.639,4.415" transform="translate(55.614 17.106)" fill="#5b403e"/>
    <path id="Trazado_731231" data-name="Trazado 731231" d="M58.029,21.169c.547,2.216.525,4.124-.046,4.267S56.5,23.9,55.956,21.681s-.527-4.124.046-4.267,1.48,1.54,2.027,3.755" transform="translate(55.836 17.492)" fill="#493230"/>
    <path id="Trazado_731232" data-name="Trazado 731232" d="M75.345,76.743a24.478,24.478,0,0,0-4.688,2.919c-2.917,2.187-2.917,3.625-2.969,5.057,1.189.144,3.276-.906,4.561-2.759a51.167,51.167,0,0,0,3.1-5.217" transform="translate(68.026 77.125)" fill="#dbcbca"/>
    <path id="Trazado_731233" data-name="Trazado 731233" d="M76.432,75.552s-5.385.265-7.6,1.239a10.305,10.305,0,0,0-3.719,3.094,15.4,15.4,0,0,0,5.66-.706,16.782,16.782,0,0,0,5.66-3.627" transform="translate(65.437 75.928)" fill="#dbcbca"/>
    <path id="Trazado_731234" data-name="Trazado 731234" d="M66.956,23.469S65.084,31.8,64.163,38.1s-.922,15.5-1.275,20.982-2.881,20.561-4.359,25.491S56.083,95.332,56.288,95.48s3.322,2.165,3.322,2.165,1.686-9.909,3.1-16.1A100.925,100.925,0,0,0,65.6,58.021c0-14.5,4.068-33.118,4.068-33.118Z" transform="translate(56.541 23.585)" fill="#dbcbca"/>
    <path id="Trazado_731235" data-name="Trazado 731235" d="M70.129,132.686c-12.808,0-32.166,0-35.218-17.716-1.259-7.316,2.763-19.118,12.3-36.084l.569-1.013c8.511-15.126,14.662-26.055,6.641-34.9a3.432,3.432,0,0,0-2.52-1.141c-.074,0-.148,0-.221,0-4.4,0-10.506,5.592-10.568,5.648l-.72-.78c.267-.247,6.468-5.929,11.292-5.929.088,0,.176,0,.263.006a4.5,4.5,0,0,1,3.26,1.486c8.535,9.417,2.228,20.625-6.5,36.138l-.569,1.015c-9.413,16.744-13.4,28.316-12.18,35.382,2.9,16.836,21.72,16.836,34.173,16.836Z" transform="translate(34.86 40.965)" fill="#493230"/>
    <path id="Trazado_731236" data-name="Trazado 731236" d="M75.727,55.766H68.339A18.01,18.01,0,0,0,50.382,73.723v45.8a18.011,18.011,0,0,0,17.957,17.959h7.388a18.011,18.011,0,0,0,17.957-17.959v-45.8A18.01,18.01,0,0,0,75.727,55.766" transform="translate(50.633 56.043)" fill="#493230"/>
    <path id="Trazado_731237" data-name="Trazado 731237" d="M100.632,28.563c-6.544-6.787-11.868-6.336-17.5-1.2-8.267,7.527-7.286,12.928-3.723,22.123A26.306,26.306,0,0,0,90.378,62.572a22.32,22.32,0,0,0,4.658,11.653c-6.538.583-17.289-3.547-25.2-.832-7.569,2.6-5.768,17.048,0,18.612,7.443,2.019,23.178,6.741,32.916,4.212,12.313-3.2,11.5-2.9,13.091-14.043S108.289,36.5,100.632,28.563" transform="translate(65.139 23.604)" fill="#f4ebea"/>
    <path id="Trazado_731238" data-name="Trazado 731238" d="M40.554,43.84s-8.716,3.308-11.535,8.69-2.544,5.991-1.65,10.667,4.962,2.879,6.071.724c3.527-.806,6.807-2.161,8.505-3.84,2.6-2.572,6.6-7.318,7.773-10.931s-2.993-8.234-9.165-5.309" transform="translate(26.886 43.127)" fill="#4f8ee8"/>
    <path id="Trazado_731239" data-name="Trazado 731239" d="M56.8,55.775v6.492c0,2.58,3.932,4.672,8.784,4.672s8.784-2.091,8.784-4.672V55.775Z" transform="translate(57.083 56.052)" fill="#e52c2c"/>
    <path id="Trazado_731240" data-name="Trazado 731240" d="M74.368,58.117c0,2.58-3.932,4.672-8.784,4.672S56.8,60.7,56.8,58.117s3.934-4.672,8.784-4.672,8.784,2.091,8.784,4.672" transform="translate(57.083 53.711)" fill="#f9423e"/>
    <path id="Trazado_731241" data-name="Trazado 731241" d="M93.686,71.057c-.65,6.013-9.975,10.759-21.231,10.759-12.19,0-22.073-5.562-22.073-12.425v32.772c0,6.861,9.883,12.423,22.073,12.423s21.175-5.3,21.175-12.279Z" transform="translate(50.633 69.736)" fill="#e52c2c"/>
    <path id="Trazado_731242" data-name="Trazado 731242" d="M71.964,87.24,72,67.29l0,.018L71.959,87.24Z" transform="translate(72.318 67.625)" fill="#493230"/>
    <path id="Trazado_731243" data-name="Trazado 731243" d="M83.483,92.534A34.328,34.328,0,0,1,72.456,94.24c-12.192,0-22.075-5.562-22.075-12.423V83.8c0,6.861,9.883,12.423,22.075,12.423a34.478,34.478,0,0,0,11.027-1.694Z" transform="translate(50.632 82.224)" fill="#493230"/>
    <path id="Trazado_731244" data-name="Trazado 731244" d="M83.483,89.749a34.328,34.328,0,0,1-11.027,1.706c-12.192,0-22.075-5.562-22.075-12.423v1.979c0,6.861,9.883,12.423,22.075,12.423A34.478,34.478,0,0,0,83.483,91.74Z" transform="translate(50.632 79.425)" fill="#493230"/>
    <path id="Trazado_731245" data-name="Trazado 731245" d="M83.483,86.942a34.328,34.328,0,0,1-11.027,1.706c-12.192,0-22.075-5.562-22.075-12.423V78.2c0,6.861,9.883,12.423,22.075,12.423a34.478,34.478,0,0,0,11.027-1.694Z" transform="translate(50.632 76.604)" fill="#493230"/>
    <path id="Trazado_731246" data-name="Trazado 731246" d="M83.483,84.157a34.328,34.328,0,0,1-11.027,1.706c-12.192,0-22.075-5.562-22.075-12.423v1.979c0,6.861,9.883,12.423,22.075,12.423a34.477,34.477,0,0,0,11.027-1.694Z" transform="translate(50.632 73.805)" fill="#493230"/>
    <path id="Trazado_731247" data-name="Trazado 731247" d="M57.889,53.44v3.607c0,1.939,2.955,3.511,6.6,3.511s6.6-1.572,6.6-3.511V53.44Z" transform="translate(58.178 53.706)" fill="#493230"/>
    <path id="Trazado_731248" data-name="Trazado 731248" d="M71.09,55.2c0,1.939-2.955,3.511-6.6,3.511s-6.6-1.572-6.6-3.511,2.955-3.511,6.6-3.511,6.6,1.572,6.6,3.511" transform="translate(58.178 51.946)" fill="#604249"/>
    <path id="Trazado_731249" data-name="Trazado 731249" d="M79.742,50.609s-4.672-2.6-15.356,0c-9.634,2.346-8.822,6.348-9.678,10.665s7.711,4.878,12.69,3.292,8.874-1.706,11.366-3.721c4.018-3.246.978-10.235.978-10.235" transform="translate(54.921 49.698)" fill="#4f8ee8"/>
    <path id="Trazado_731250" data-name="Trazado 731250" d="M80.651,47.407a9.441,9.441,0,0,0,1.843,4.1,31.266,31.266,0,0,0,2.933,2.612s.628-1.283-.712-3.356a9.886,9.886,0,0,0-4.064-3.354" transform="translate(81.053 47.643)" fill="#dbcbca"/>
    <path id="Trazado_731251" data-name="Trazado 731251" d="M51.048,33.2A5.369,5.369,0,0,0,49.1,36.123a6.442,6.442,0,0,0,0,2.917,11.976,11.976,0,0,0,1.5-2.917,8.433,8.433,0,0,0,.443-2.919" transform="translate(49.189 33.369)" fill="#dbcbca"/>
    <path id="Trazado_731252" data-name="Trazado 731252" d="M61.586,42.925a1.938,1.938,0,0,0-2.526-.912l-40.7,34.594,2.36,3.593,40.7-34.594a1.939,1.939,0,0,0,.166-2.681" transform="translate(18.45 42.014)" fill="#3f2a28"/>
    <path id="Trazado_731253" data-name="Trazado 731253" d="M21.19,60.179a1.939,1.939,0,0,1-.166,2.681,1.939,1.939,0,0,1-2.524-.914,1.937,1.937,0,0,1,.164-2.681,1.941,1.941,0,0,1,2.526.914" transform="translate(18.144 59.353)" fill="#5b403e"/>
    <path id="Trazado_731254" data-name="Trazado 731254" d="M19.984,60.21a.971.971,0,0,1-.082,1.341,1.121,1.121,0,0,1-1.181-1.8.969.969,0,0,1,1.263.457" transform="translate(18.508 59.946)" fill="#fff"/>
    <path id="Trazado_731255" data-name="Trazado 731255" d="M33.094,63.043C26.1,68.733,13.1,79.324,8.517,83.33,2.219,88.839-.1,93.9,0,102.491c-.024.319.453.614,1.067.658s1.131-.174,1.155-.493c0-.024-.018-.046-.022-.07l.014,0c-.1-7.984,1.865-12.555,7.7-17.66,4.551-3.982,17.542-14.556,24.519-20.238,2.264-1.843,3.809-3.1,4.076-3.328L37.13,59.747c-.263.225-1.792,1.47-4.036,3.3" transform="translate(0 60.044)" fill="#fff"/>
    <path id="Trazado_731256" data-name="Trazado 731256" d="M32.745,45.956a31.34,31.34,0,0,0-2.578,6.274c-.706,2.721,1.161,5.953,2.578,3.96,1-1.4,1.959-2.9,4.726-6.254,2.651-3.212,2.234-5.839,2-5.642s-5.087.866-6.729,1.662" transform="translate(30.162 44.504)" fill="#4f8ee8"/>
  </g>
</svg>
