<svg xmlns="http://www.w3.org/2000/svg" xmlns:xlink="http://www.w3.org/1999/xlink" width="118" height="118" viewBox="0 0 118 118">
  <defs>
    <clipPath id="clip-path">
      <rect id="Rectángulo_345268" data-name="Rectángulo 345268" width="83.125" height="83.157" fill="none"/>
    </clipPath>
  </defs>
  <g id="Grupo_997441" data-name="Grupo 997441" transform="translate(-1096 -2079.626)">
    <circle id="Elipse_5928" data-name="Elipse 5928" cx="59" cy="59" r="59" transform="translate(1096 2079.626)" fill="#06d1d1"/>
    <g id="Grupo_984704" data-name="Grupo 984704" transform="translate(1113.438 2097.047)">
      <g id="Grupo_984703" data-name="Grupo 984703" clip-path="url(#clip-path)">
        <path id="Trazado_726032" data-name="Trazado 726032" d="M41.637,75.079a27.746,27.746,0,0,1-7.464-.868,1.66,1.66,0,0,0-2.136.914A17.39,17.39,0,0,1,.016,64.963,16.7,16.7,0,0,1,7.784,51.228,2,2,0,0,0,8.846,48.7,33.468,33.468,0,0,1,43.784,8.112a27.411,27.411,0,0,1,4.958.75,1.861,1.861,0,0,0,2.415-.97A17.387,17.387,0,1,1,75.3,31.91a2,2,0,0,0-1.021,2.541,33.455,33.455,0,0,1-32.64,40.628m-2.5-58.833A25.16,25.16,0,0,0,27,20.709c-2.584,1.8-2.6,1.823-.341,4.05.709.7,1.164,1.133.195,2.1s-1.461.536-2.108-.21c-.365-.421-.83-.759-1.17-1.2-.67-.863-1.138-.723-1.788.09a25.7,25.7,0,0,0-5.322,11.769c-.512,2.9-.481,2.91,2.517,2.91.5,0,1.008.035,1.508-.007.723-.06.912.235.984.95.135,1.349-.236,2-1.7,1.758-.544-.089-1.124.05-1.671-.027-1.583-.221-2.14.192-1.811,1.958.574,3.075.452,3.1,3.391,3.556,8.658,1.349,14.514,7.773,15.153,16.628.035.488-.1,1.074.578,1.222,1.518.332,3.2,1.089,4.544.478.754-.342.163-2.175.253-3.332a1.525,1.525,0,0,0,0-.335c-.153-1.046.2-1.445,1.343-1.442s1.455.379,1.362,1.438c-.078.887.025,1.788-.027,2.679-.053.906.148,1.273,1.2,1.151A25.815,25.815,0,0,0,57,61.771c1.642-1.248,1.636-1.256.124-2.767-.356-.355-.694-.729-1.072-1.06-.519-.455-.531-.8-.058-1.376.864-1.058,1.582-1.237,2.439-.038.289.4.747.683,1.047,1.079.7.924,1.214.786,1.9-.086a25.557,25.557,0,0,0,5.011-10.476c.889-4.106.881-4.136-3.175-4.123-1.033,0-1.591-.065-1.6-1.382-.008-1.378.661-1.339,1.638-1.338,4.145,0,4.119-.008,3.169-4.152-.193-.843-.48-1.174-1.4-1.235C56.311,34.247,49.9,28.48,48.467,20c-.552-3.262-.552-3.262-3.975-3.707a2.588,2.588,0,0,1-.331-.055c-.91-.24-1.347.012-1.277,1.047.072,1.056-.012,2.122.024,3.182.024.686-.17.951-.925,1.011-1.3.1-2.015-.158-1.792-1.673.121-.82-.01-1.674.03-2.509.039-.819-.127-1.345-1.085-1.053m41.3,1.15A14.745,14.745,0,1,0,65.808,32.172,14.757,14.757,0,0,0,80.44,17.4M32.166,65.772A14.745,14.745,0,1,0,17.427,80.441,14.759,14.759,0,0,0,32.166,65.772M72.4,41.451a29.708,29.708,0,0,0-.668-6.215c-.14-.716-.175-1.462-1.3-1.072-.848.293-1.7.306-1.362,1.67a21.536,21.536,0,0,1,.614,4.466c.618,18.587-15.393,32.24-33.785,28.777-1.477-.278-1.468.535-1.752,1.45-.389,1.254.579,1.08,1.192,1.208A30.842,30.842,0,0,0,72.4,41.451m-58.989-.137a19.487,19.487,0,0,1,.415-4.7A28.045,28.045,0,0,1,47.1,14.012c1.323.267,1.563-.24,1.867-1.289.375-1.291-.5-1.2-1.221-1.349a31.92,31.92,0,0,0-10.156-.386C19.929,13.083,7.5,30.585,11.4,47.928c.134.6.061,1.468,1.166,1.044.752-.289,1.876-.086,1.492-1.555a22.129,22.129,0,0,1-.649-6.1" transform="translate(0 0)"/>
        <path id="Trazado_726033" data-name="Trazado 726033" d="M119.535,87.158c0-2.007.05-4.016-.02-6.021-.037-1.067.121-1.56,1.4-1.575,1.4-.016,1.323.7,1.316,1.652-.026,3.68.037,7.361-.039,11.039a3.4,3.4,0,0,0,1.174,2.756c2.374,2.277,4.633,4.673,7.016,6.939.848.807.5,1.226-.132,1.856-.6.59-1,.877-1.735.119-2.72-2.8-5.494-5.545-8.271-8.287a2.477,2.477,0,0,1-.721-1.954c.027-2.174.01-4.349.009-6.523" transform="translate(-79.321 -52.807)"/>
        <path id="Trazado_726034" data-name="Trazado 726034" d="M199.746,39.894c2.034,0,3.539.081,5.03-.026,1.2-.086,1.208.539,1.2,1.414,0,.817-.033,1.354-1.125,1.322-2.622-.076-5.248-.035-7.872-.019a1.542,1.542,0,0,1-1.642-.894c-.309-.752.146-1.272.645-1.753l5.16-4.98-.157-.422c-1.357,0-2.715-.023-4.071.008-.993.023-1.778.12-1.749-1.394.026-1.4.716-1.324,1.664-1.311,2.289.031,4.578.014,6.868.008.844,0,1.747-.1,2.143.889.37.919-.326,1.442-.877,1.99-1.616,1.606-3.237,3.207-5.219,5.169" transform="translate(-129.535 -21.128)"/>
        <path id="Trazado_726035" data-name="Trazado 726035" d="M166.624,50.8a1.973,1.973,0,0,0-1.646-.283c-1.551.254-1.727-.552-1.645-1.81.05-.776.363-.917,1.026-.907,1.785.027,3.57.021,5.356,0a1.493,1.493,0,0,1,1.6.945,1.454,1.454,0,0,1-.586,1.622c-.847.8-1.695,1.591-2.576,2.418a1.783,1.783,0,0,0,1.727.357c1.276-.161,1.658.319,1.562,1.568-.063.82-.2,1.2-1.12,1.163-1.727-.066-3.458-.032-5.188-.014a1.553,1.553,0,0,1-1.654-.872c-.323-.75.117-1.273.617-1.756l2.525-2.435" transform="translate(-108.396 -31.727)"/>
        <path id="Trazado_726036" data-name="Trazado 726036" d="M34.457,184.869c-6.375,0-11.1-4.591-11.362-10.349a10.831,10.831,0,0,1,9.591-11.043c.76-.075,1.6-.256,2.176.487.6.771.128,1.463-.2,2.174a7.318,7.318,0,0,0,6.756,10.677c2.021.009,2.535.837,1.527,2.6a10.163,10.163,0,0,1-8.49,5.454m-3.054-18.2a7.7,7.7,0,0,0-5.36,7.389,8,8,0,0,0,5.354,7.713,7.091,7.091,0,0,0,7.954-2.18c-7.155-3.489-8.371-5.443-7.948-12.922" transform="translate(-15.321 -108.453)"/>
      </g>
    </g>
  </g>
</svg>
