<svg xmlns="http://www.w3.org/2000/svg" xmlns:xlink="http://www.w3.org/1999/xlink" width="118" height="118" viewBox="0 0 118 118">
  <defs>
    <clipPath id="clip-path">
      <rect id="Rectángulo_345275" data-name="Rectángulo 345275" width="77.902" height="89.824" fill="#fff"/>
    </clipPath>
  </defs>
  <g id="Grupo_997433" data-name="Grupo 997433" transform="translate(-20069 9697.746)">
    <circle id="Elipse_5922" data-name="Elipse 5922" cx="59" cy="59" r="59" transform="translate(20069 -9697.746)" fill="#b20d0d"/>
    <g id="Grupo_984720" data-name="Grupo 984720" transform="translate(20089.049 -9683.249)">
      <g id="Grupo_984719" data-name="Grupo 984719" clip-path="url(#clip-path)">
        <path id="Trazado_726076" data-name="Trazado 726076" d="M77.895,46.679c0,10.964.022,21.928-.01,32.891-.015,5.062-2.567,8.683-6.814,9.94a10.474,10.474,0,0,1-3.028.3q-24.272.011-48.543,0c-5.414-.007-8.615-3.264-8.628-8.741q-.031-12.908.012-25.816a8.518,8.518,0,0,0-.959-4.023q-4.5-8.861-8.9-17.773C-1.43,28.469.686,23.187,5.657,21.691a8.39,8.39,0,0,1,3.785-.2c1.128.182,1.466-.209,1.44-1.3-.055-2.357-.036-4.717-.009-7.075.059-5.1,3.458-8.451,8.574-8.48,1.911-.011,3.824-.051,5.733.013a1.76,1.76,0,0,0,2.047-1.472C27.934.789,29.047.019,31.568.014q12.8-.028,25.609,0c2.561.007,3.783.93,4.32,3.4a1.314,1.314,0,0,0,1.559,1.221c1.847-.02,3.695,0,5.542,0,6.084.008,9.28,3.193,9.292,9.347q.032,16.35,0,32.7M14.512,60.506l-.379.084q0,9.546,0,19.092c0,5.626,1.253,6.9,6.794,6.9q21.874,0,43.748,0c1.464,0,2.933.038,4.392-.06A5.624,5.624,0,0,0,74.312,82a14.3,14.3,0,0,0,.33-3.026q.028-32.4.012-64.8A12.109,12.109,0,0,0,74.6,12.65c-.405-3.171-2.15-4.719-5.361-4.752-1.846-.018-3.7.089-5.538-.032-1.686-.111-2.208.507-2.178,2.183.061,3.519-1.3,4.775-4.872,4.778q-12.035.012-24.071,0c-4.208,0-5.345-1.026-5.566-5.189-.062-1.159-.375-1.785-1.654-1.755-2.228.054-4.459-.035-6.685.042a4.272,4.272,0,0,0-4.325,3.625,84.633,84.633,0,0,0-.112,12.4,1.81,1.81,0,0,0,.293.7C20.841,36.658,26.6,48.947,32.7,61.059a10.763,10.763,0,0,1,1.248,6.073c-.261,2.6-.453,5.2-.688,7.8-.241,2.67-1.744,3.489-4.009,2.119-2.452-1.482-4.835-3.078-7.285-4.563A8.744,8.744,0,0,1,18.587,68.7c-1.337-2.742-2.715-5.464-4.076-8.194M8.138,24.675A4.658,4.658,0,0,0,3.5,27.663c-.61,1.688.186,4.961,1.421,6.052.5.44.932.258,1.393.028q3.151-1.578,6.293-3.174c.452-.23.878-.471.815-1.134-.208-2.187-3-4.722-5.287-4.76M44.22,8.5c1.963,0,3.927.011,5.89-.006.712-.006,1.511-.055,1.557-1,.053-1.077-.808-1.156-1.59-1.159q-5.7-.022-11.4,0c-.71,0-1.511.065-1.557,1-.053,1.079.805,1.145,1.59,1.153,1.836.018,3.673.006,5.51,0M30.669,66.953c.137-1.243-.132-1.786-1.338-1.162-1.75.906-3.528,1.759-5.276,2.669-.344.179-.948.259-.739.911.233.727,4,2.345,4.758,2.206,2.863-.528,2.256-2.9,2.6-4.624" transform="translate(0 0)" fill="#fff"/>
        <path id="Trazado_726077" data-name="Trazado 726077" d="M151.823,59.819c0,1.463,0,2.927,0,4.391.008,1.81-.874,2.977-2.663,3.123a66.892,66.892,0,0,1-10.477.008,2.745,2.745,0,0,1-2.625-2.989c-.075-3.052-.078-6.109.007-9.161a2.86,2.86,0,0,1,3.047-3.008c3.241-.08,6.489-.111,9.728,0,1.993.069,2.919,1.2,2.974,3.241.04,1.463.008,2.927.007,4.391M146.6,57.748a2.645,2.645,0,0,0-4.828-1.335c-.279.444-.506,1.04-.088,1.4.691.595.778-.284,1.031-.611.6-.772,1.311-1.1,2.086-.4.861.78.554,1.59-.249,2.245a2.256,2.256,0,0,0-1.084,1.688c-.008.415.368.951.608.641.892-1.154,2.5-1.841,2.525-3.631" transform="translate(-83.796 -32.108)" fill="#fff"/>
        <path id="Trazado_726078" data-name="Trazado 726078" d="M151.782,116.789c0,1.464.037,2.929-.009,4.391-.063,2-1.038,3.118-3.041,3.181q-4.86.151-9.728,0a2.829,2.829,0,0,1-3-3.053q-.14-4.481,0-8.97c.069-2.087.956-3.051,3.08-3.145,3.235-.143,6.485-.148,9.721-.011,2.093.089,2.889,1.128,2.971,3.218,0,.127,0,.255,0,.382q0,2-.005,4.009m-7.79-4.573a2.431,2.431,0,0,0-2.041.851c-.481.568-.875,1.4-.258,1.864.754.563.723-.552,1.055-.893.622-.638,1.3-.891,2.006-.282a1.264,1.264,0,0,1,.017,2.008c-.215.231-.509.388-.722.62-.489.531-1.042,1.269-.389,1.813.673.562.817-.466,1.186-.806a10.951,10.951,0,0,0,1.1-1.051,2.258,2.258,0,0,0,.312-2.665,2.387,2.387,0,0,0-2.268-1.46" transform="translate(-83.755 -67.208)" fill="#fff"/>
        <path id="Trazado_726079" data-name="Trazado 726079" d="M143.92,183.665c-1.588,0-3.177.034-4.764-.009-1.921-.051-3.041-.968-3.115-2.871-.121-3.109-.119-6.229,0-9.338.071-1.874,1.195-2.849,3.132-2.889q4.762-.1,9.527,0c2.054.04,3.035,1.035,3.074,3.088q.087,4.479,0,8.961c-.04,2.053-1.027,2.993-3.09,3.053-1.587.046-3.176.009-4.763.009m2.635-9.522a2.607,2.607,0,0,0-1.755-2.458,2.385,2.385,0,0,0-2.87.861c-.435.491-.807,1.259-.261,1.7.78.632.792-.458,1.105-.794.6-.65,1.263-.946,1.978-.324a1.318,1.318,0,0,1-.053,2.146c-.535.523-1.3.887-1.263,1.785.018.444.349,1.155.73.6.8-1.165,2.438-1.778,2.388-3.514" transform="translate(-83.764 -103.823)" fill="#fff"/>
        <path id="Trazado_726080" data-name="Trazado 726080" d="M66.029,60.43q-4.769,0-9.539,0c-1.082,0-2.167-.133-2.166-1.533,0-1.35,1.089-1.648,2.145-1.654q9.539-.052,19.077,0c1.059.005,2.167.3,2.168,1.635,0,1.521-1.213,1.555-2.337,1.557q-4.674.006-9.348,0" transform="translate(-33.471 -35.253)" fill="#fff"/>
        <path id="Trazado_726081" data-name="Trazado 726081" d="M85.393,81.642c-1.524,0-3.048.031-4.571-.011-1.072-.03-2.147-.3-2.227-1.592-.083-1.335.977-1.714,2.051-1.731q5.045-.079,10.091-.008c1.011.014,1.951.43,1.946,1.649s-.951,1.6-1.959,1.644c-1.775.068-3.554.019-5.331.019v.03" transform="translate(-48.422 -48.222)" fill="#fff"/>
        <path id="Trazado_726082" data-name="Trazado 726082" d="M92.642,118.9c-1.142,0-2.286.041-3.425-.012-1.036-.048-1.939-.453-1.953-1.645-.015-1.236.892-1.56,1.952-1.563q3.427-.01,6.853,0c1.057,0,1.964.322,1.95,1.563-.013,1.2-.918,1.595-1.951,1.644-1.139.055-2.283.012-3.425.012" transform="translate(-53.766 -71.271)" fill="#fff"/>
        <path id="Trazado_726083" data-name="Trazado 726083" d="M92.871,136.661c1.208,0,2.416-.035,3.622.011a1.474,1.474,0,0,1,1.618,1.512,1.507,1.507,0,0,1-1.542,1.622q-3.808.117-7.621,0a1.492,1.492,0,0,1-1.542-1.617,1.541,1.541,0,0,1,1.653-1.513c1.269-.05,2.541-.012,3.812-.012v-.007" transform="translate(-53.853 -84.193)" fill="#fff"/>
        <path id="Trazado_726084" data-name="Trazado 726084" d="M99.374,197.673c-.7,0-1.392.036-2.084-.009a1.55,1.55,0,0,1-.122-3.1,15.723,15.723,0,0,1,4.721.015,1.551,1.551,0,0,1-.24,3.09c-.757.036-1.516.008-2.275.008v-.008" transform="translate(-58.99 -119.775)" fill="#fff"/>
        <path id="Trazado_726085" data-name="Trazado 726085" d="M99.949,176.816a17.8,17.8,0,0,1-2.089-.016,1.528,1.528,0,0,1-1.527-1.624,1.483,1.483,0,0,1,1.472-1.482,34.713,34.713,0,0,1,4.178-.028,1.523,1.523,0,0,1,1.611,1.548c0,1.091-.745,1.547-1.743,1.613-.631.041-1.268.008-1.9.008v-.019" transform="translate(-59.353 -106.97)" fill="#fff"/>
      </g>
    </g>
  </g>
</svg>
