<svg xmlns="http://www.w3.org/2000/svg" xmlns:xlink="http://www.w3.org/1999/xlink" width="118" height="118" viewBox="0 0 118 118">
  <defs>
    <clipPath id="clip-path">
      <rect id="Rect치ngulo_349652" data-name="Rect치ngulo 349652" width="118" height="64.678" fill="none"/>
    </clipPath>
  </defs>
  <g id="Grupo_997386" data-name="Grupo 997386" transform="translate(-394 -750)">
    <circle id="Elipse_5888" data-name="Elipse 5888" cx="59" cy="59" r="59" transform="translate(394 750)" fill="#ffc403"/>
    <g id="Grupo_997225" data-name="Grupo 997225" transform="translate(394 776.661)">
      <g id="Grupo_997224" data-name="Grupo 997224" clip-path="url(#clip-path)">
        <path id="Trazado_731312" data-name="Trazado 731312" d="M56.326,52.65a12.845,12.845,0,0,1-1.707-3.592,15.492,15.492,0,0,1,1.707,3.592" transform="translate(-42.468 -38.144)" fill="#f7ca68"/>
        <path id="Trazado_731313" data-name="Trazado 731313" d="M.013,14.362c.046-.18.2-.27.337-.2a113.821,113.821,0,0,1,11.088,6.481l1.371.871.164.051c-3.377-2.381-6.718-6.249-9.8-8.949l11.408,5.036a17.08,17.08,0,0,0-.727-3.145,9.142,9.142,0,0,0,5.533,4q-.2-3.471-.41-6.942l3.966,4.861a21.49,21.49,0,0,0-.113-6.225c2.189.523,3.138,4.021,4.947,5.784,2.858,2.786,7.522-.88,6.834-5.372l3.62,4.549q.42-5.877.841-11.753c.437,3.55,1.043,7.074,1.806,10.549L40.562,2.368c-.005-.192.11-.346.258-.343a.334.334,0,0,1,.277.353l.391,14.212q.21.857.431,1.709a23.148,23.148,0,0,0,4.27-9.727l1.936,7.4a33.813,33.813,0,0,1,3.6-9.445L53.9,15.463c.149-.315.292-.636.437-.955L56.4.268c.027-.187.167-.3.312-.258a.378.378,0,0,1,.214.419l-1.758,12.18a64.188,64.188,0,0,0,3.008-9.321,76.621,76.621,0,0,1,1.711,12.223A20.009,20.009,0,0,0,70.173,6.773l1.055,7.616a23.614,23.614,0,0,0,5.131-8.772,35.28,35.28,0,0,0,6.722,11.1L89.675,4.053a32.241,32.241,0,0,1,3.167,8.893,13.883,13.883,0,0,0,3.211-7.458l2.857,7.438c.234.609.517,1.277,1.009,1.5a.852.852,0,0,0,.388.075,48.257,48.257,0,0,1,5.941-6.391.235.235,0,0,1,.376.085.415.415,0,0,1-.047.485,57.224,57.224,0,0,0-5.051,5.257l8.349-5.63a10.847,10.847,0,0,1-.006,4.585,69.713,69.713,0,0,1,6.343-7.1.234.234,0,0,1,.376.081.415.415,0,0,1-.044.486,64.438,64.438,0,0,0-4.657,5.027A12.528,12.528,0,0,1,118,8.474a11.518,11.518,0,0,1-4.81,8.927,20.474,20.474,0,0,1-8.005,2.918l-.538.773a.235.235,0,0,1-.17.107.242.242,0,0,1-.207-.1.428.428,0,0,1-.028-.492l.083-.119c-17.561,3.542-35.256,7.061-53.178,6.087-8.55-.465-17.079-1.965-25.627-2.568-1.56-.11-3.119-.059-4.657-.093.433.114.87.216,1.306.32-1.136.013-2.27-.279-3.4-.209-1.24-.354-2.473-.719-3.689-1.1q.538.332,1.079.66c-.61-.133-1.22-.258-1.831-.369q-.84-.524-1.673-1.051A89.438,89.438,0,0,0,1.969,19.348a.359.359,0,0,1-.242-.393c.013-.191.143-.324.291-.3a76.551,76.551,0,0,1,8.47,2.138,106.241,106.241,0,0,0-10.3-5.985.4.4,0,0,1-.172-.449" transform="translate(0 -0.001)" fill="#f7ca68"/>
        <path id="Trazado_731314" data-name="Trazado 731314" d="M311.979,17.772a23.5,23.5,0,0,0,1.613-9.589c0-.019,0-.037,0-.056q-.017-.287-.044-.568l-.008-.082q-.027-.269-.063-.531c0-.03-.008-.06-.012-.09q-.037-.26-.082-.513l-.014-.083q-.049-.264-.107-.519c0-.017-.007-.035-.011-.053a10.457,10.457,0,0,0-.5-1.6c-.007-.017-.015-.033-.022-.05-.059-.141-.12-.279-.185-.413-.02-.041-.041-.08-.061-.12-.054-.107-.11-.214-.168-.316-.027-.048-.056-.095-.084-.142-.055-.091-.11-.18-.168-.267-.033-.05-.067-.1-.1-.146q-.085-.12-.175-.234c-.037-.048-.075-.095-.114-.141-.061-.072-.123-.141-.186-.21-.041-.044-.081-.088-.123-.13-.066-.067-.135-.129-.2-.191-.042-.038-.084-.077-.127-.113-.077-.064-.158-.123-.238-.182-.039-.028-.076-.059-.115-.085a4.369,4.369,0,0,0-.377-.23c-.093-.05-.188-.095-.286-.136s-.175-.071-.264-.1h0C305.9-.5,298.969,3.353,295.644,9.507a17.678,17.678,0,0,0-1.62,4.058h0c-.06.237-.111.471-.157.7-.01.051-.019.1-.028.152q-.052.283-.091.56c-.006.046-.014.093-.02.139-.029.226-.052.45-.067.671,0,.017,0,.033,0,.05-.013.2-.019.4-.021.6,0,.051,0,.1,0,.153q0,.278.017.549c0,.027,0,.055,0,.082q.021.312.062.615c.005.038.012.075.017.113q.036.248.086.49c.009.046.018.092.029.137a8.3,8.3,0,0,0,.329,1.119c.016.042.033.085.049.127q.086.22.184.432c.016.035.031.07.048.1q.124.258.265.5c.012.022.026.042.039.064q.125.213.263.416l.08.117q.145.206.3.4l.038.049c.12.147.247.289.379.428.028.03.058.059.087.089q.163.166.336.324l.1.093c.146.129.3.255.454.375h0a9.04,9.04,0,0,0,1.2.772c4.836,2.614,11.3.616,13.974-6.223" transform="translate(-228.312 -0.468)" fill="#f08f4a"/>
        <path id="Trazado_731315" data-name="Trazado 731315" d="M336.286,8.425a.212.212,0,0,1-.139-.372c.092-.08,2.268-1.948,4.6-1.675a.212.212,0,0,1-.049.421c-2.147-.248-4.255,1.556-4.276,1.574a.212.212,0,0,1-.139.052" transform="translate(-261.307 -4.939)" fill="#ffe09c"/>
        <path id="Trazado_731316" data-name="Trazado 731316" d="M397.312,25.176a23.5,23.5,0,0,0,5.992-7.658l.023-.051q.122-.261.232-.521l.032-.076q.1-.249.2-.5l.032-.085q.092-.246.172-.49l.027-.08q.083-.255.153-.507l.015-.052a10.429,10.429,0,0,0,.322-1.644c0-.018,0-.036,0-.055.016-.152.027-.3.034-.451,0-.045,0-.09,0-.135,0-.12.006-.24,0-.358,0-.055,0-.11-.006-.165,0-.106-.011-.211-.02-.315-.005-.059-.012-.118-.019-.176q-.017-.146-.042-.289c-.01-.06-.021-.119-.033-.178-.019-.092-.041-.183-.064-.273-.015-.058-.029-.116-.046-.173-.027-.09-.057-.178-.089-.265-.019-.053-.037-.107-.058-.16-.037-.093-.08-.184-.123-.274-.021-.043-.039-.088-.061-.13a4.368,4.368,0,0,0-.221-.382c-.057-.088-.12-.173-.186-.256s-.119-.146-.183-.217h0c-2.723-3.047-10.65-2.968-16.508.854a17.672,17.672,0,0,0-3.36,2.794h0c-.166.18-.322.362-.474.544l-.1.12q-.181.223-.347.449c-.028.038-.057.075-.084.113-.133.185-.26.371-.379.557l-.026.043c-.107.17-.208.342-.3.513l-.073.135c-.087.163-.17.327-.247.491-.012.025-.024.049-.036.074q-.13.284-.238.57c-.014.036-.026.072-.039.108q-.086.235-.158.471c-.014.045-.028.089-.04.134a8.335,8.335,0,0,0-.244,1.14c-.006.045-.012.09-.017.135q-.029.234-.044.467c0,.038-.006.076-.008.114-.01.19-.013.38-.008.57,0,.025,0,.05,0,.075.005.164.017.328.032.491,0,.047.01.094.015.141.019.167.043.333.074.5,0,.02.006.041.01.061.036.187.079.372.128.557.011.04.023.08.034.119q.063.224.14.445c.015.044.03.087.045.13.067.183.139.365.22.546h0a9.08,9.08,0,0,0,.684,1.25c3,4.6,9.641,5.934,15.25,1.2" transform="translate(-295.984 -5.524)" fill="#f08f4a"/>
        <path id="Trazado_731317" data-name="Trazado 731317" d="M455.161,13.914a.21.21,0,0,1-.122-.039c-1.77-1.245-4.481-.663-4.509-.657a.212.212,0,0,1-.092-.414c.118-.026,2.923-.628,4.844.724a.212.212,0,0,1-.122.385" transform="translate(-350.1 -9.835)" fill="#ffe09c"/>
        <path id="Trazado_731318" data-name="Trazado 731318" d="M127.222,44.558a9.538,9.538,0,0,0-4.662.308,9.742,9.742,0,0,0,3.569-2.654l-2.249.383a3.321,3.321,0,0,1,1.428-3.549l-3.5,3.646,1.059-6.277-.96,4.053q-.287-4.052-.574-8.1l-5.452,11.728a16.979,16.979,0,0,1-.569-7.19,13.9,13.9,0,0,1-5.5,8.19l-.687-6.188c.238,2.508-1.418,5.182-3.436,5.111s-3.535-3.4-2.325-5.426c-.9,1.874-1.928,3.886-3.585,4.574a2.753,2.753,0,0,1-3.5-3.109c-.882,1.923-2.518,4.153-4.079,3.1-.457-.307-.8-.869-1.3-1.05-.953-.347-1.791.825-2.73,1.229-3.074,1.324-5.245-5.6-8.443-4.866Q79.7,41.538,79.68,44.6c-1.627.909-3.606.056-4.9-1.478a18.265,18.265,0,0,1-2.775-5.664q-.082,2.916-.165,5.831l-7.358-5.178q-.172,2.77-.343,5.54a20.7,20.7,0,0,1-8.474-5.081c-.355,3.737-4.31,5.019-7.247,4.2s-5.832-2.794-8.78-2.048q0,2.222.007,4.443l-11.228-3.32L30.177,45.6,16.023,41.007c-.422,1.866.672,3.749,1.908,4.918s2.714,2.029,3.619,3.6c.634,1.1.962,2.517,1.824,3.339a4.219,4.219,0,0,0,2.659.919A470.473,470.473,0,0,0,78.4,56q13.1-.178,26.19-1.086c3.862-.268,7.317-.187,10.771-2.21,4.051-2.373,7.936-5.457,11.865-8.142" transform="translate(-12.386 -25.164)" fill="#ffe09c"/>
        <rect id="Rect치ngulo_349651" data-name="Rect치ngulo 349651" width="106.233" height="42.156" transform="translate(6.194 22.522)" fill="#d49f74"/>
        <path id="Trazado_731319" data-name="Trazado 731319" d="M54.995,231.567h-.973a.212.212,0,0,1,0-.424c4.109,0,8.314,0,12.862-.016h0a.212.212,0,0,1,0,.424c-4.189.011-8.09.016-11.89.016" transform="translate(-41.839 -179.708)" fill="#382118"/>
        <path id="Trazado_731320" data-name="Trazado 731320" d="M164.711,230.694q-.912,0-1.825-.007a.212.212,0,0,1,0-.424h0c3.594.028,7.2-.034,10.694-.095,4.438-.077,9.028-.156,13.6-.049a.212.212,0,0,1,.207.217.214.214,0,0,1-.217.207c-4.56-.107-9.145-.028-13.579.049-2.9.05-5.889.1-8.88.1" transform="translate(-126.485 -178.884)" fill="#382118"/>
        <path id="Trazado_731321" data-name="Trazado 731321" d="M304.434,230.014a.212.212,0,0,1,0-.424c14.309-.149,28.882-.149,42.974-.149a.212.212,0,0,1,0,.424c-14.092,0-28.663,0-42.97.149Z" transform="translate(-236.541 -178.398)" fill="#382118"/>
        <path id="Trazado_731322" data-name="Trazado 731322" d="M85.076,162.844h-.721a.212.212,0,0,1,0-.424h0c2.106,0,9.482-.02,16.615-.044,6.9-.024,13.414-.046,15.4-.042a.212.212,0,0,1,0,.424h0c-1.987,0-8.5.018-15.4.042-6.469.022-13.138.045-15.9.045" transform="translate(-65.424 -126.219)" fill="#382118"/>
        <path id="Trazado_731323" data-name="Trazado 731323" d="M276.456,163.343c-5.825,0-11.932,0-18.443-.014a.212.212,0,0,1,0-.424h0c16.987.025,31.24.018,44.856-.024h0a.212.212,0,0,1,0,.424c-8.4.025-17.041.038-26.415.038" transform="translate(-200.448 -126.645)" fill="#382118"/>
      </g>
    </g>
  </g>
</svg>
