<svg id="Grupo_997281" data-name="Grupo 997281" xmlns="http://www.w3.org/2000/svg" xmlns:xlink="http://www.w3.org/1999/xlink" width="262.201" height="182.169" viewBox="0 0 262.201 182.169">
  <defs>
    <clipPath id="clip-path">
      <rect id="Rectángulo_349685" data-name="Rectángulo 349685" width="262.201" height="182.169" fill="none"/>
    </clipPath>
  </defs>
  <g id="Grupo_997280" data-name="Grupo 997280" clip-path="url(#clip-path)">
    <path id="Trazado_731699" data-name="Trazado 731699" d="M208.211,66.408c.535,5.175,1.791,10.108,4.322,13.753a4.814,4.814,0,0,0,2.811,2.253c1.74.338,3.9-1.03,5.258-3.052a11.85,11.85,0,0,0,1.9-6.794,9.8,9.8,0,0,0-.838-3.783c-1.038-2.248-2.924-3.586-4.265-5.531-1.022-1.482-1.717-3.3-2.726-4.8-1.094-1.622-3.923-5.684-5.893-2.969-1.607,2.217-.782,8.883-.571,10.92" transform="translate(-41.561 -10.915)" fill="#e34927"/>
    <path id="Trazado_731700" data-name="Trazado 731700" d="M165.614,15.589c-1.318-1.412-3.378-1.842-4.714-3.236-2.061-2.151-1.334-6.386,1.314-7.658,4.124-1.98,9.336,2.9,13.246.493,2.451-1.509,3.74-5.582,6.557-5.157,2.573.388,3.04,4.142,5.014,5.906,1.945,1.739,4.875,1.188,7.359.535a3.071,3.071,0,0,1,2.6.1,2.691,2.691,0,0,1,.8,1.138c1.683,3.88,0,8.578,1.329,12.6,1.306,3.955,5.286,6.566,6.218,10.634.248,1.086-21.867-4.845-23.643-5.39-3.985-1.223-7.754-1.378-11.784-2.014-3.572-.563-2,.782-2.811-2.551-.482-1.985.1-3.716-1.485-5.409" transform="translate(-31.941 0)" fill="#e34927"/>
    <path id="Trazado_731701" data-name="Trazado 731701" d="M189.721,38.973c-2.359-4.982-6.658-8.931-11.208-11.951-10.921-7.248-23.3-7.574-34.326-.516a38.418,38.418,0,0,0-8.252,7.577,150.532,150.532,0,0,1-17.283,17.365c-44.8,38.387-51.015,66-51.015,66-10.558,66.737,79.189,64.537,79.189,64.537,83.809-5.867,71.271-42.536,71.271-42.536,11.878-18.334-15.838-47.669-15.838-47.669-36.3-35.935-17.818-42.536-17.818-42.536Z" transform="translate(-13.354 -4.279)" fill="#c96f4f"/>
    <path id="Trazado_731702" data-name="Trazado 731702" d="M137.469,54.742c1.32-2.2,3.3-2.934,5.279-3.667-.66,4.4-2.639,8.067-1.98,12.468,2.64-1.467,1.98-5.134,3.96-6.6,1.32,4.4-2.64,9.534,1.979,13.2,1.32-2.934,5.28-3.667,5.939-2.2,2.64,3.666,2.64,8.8,1.98,13.934,2.64-2.2,2.64-5.866,4.619-8.8a99.494,99.494,0,0,1,1.32,13.934c3.3-1.466,2.64-7.334,5.279-7.334,3.3.734,3.3,5.867,5.279,9.534,1.32-2.2,1.32-6.6,2.64-7.334,3.3-1.466,3.959,5.134,6.6,7.334,1.319-2.934.659-5.867,1.319-8.8,3.3,2.2,3.96,8.067,8.579,8.8-.66-2.934,1.32-5.134,3.3-6.6.66-1.466,1.32,2.2,3.3,2.934,0-2.2,1.319-4.4.659-6.6,3.96.733,5.28,5.134,7.919,7.334,0-2.368.6-3.694,1.572-4.426-23.457-27.26-8.5-32.61-8.5-32.61l5.279-10.267c-2.359-4.982-6.658-8.932-11.208-11.952-10.921-7.248-23.3-7.573-34.326-.516A38.442,38.442,0,0,0,150,34.084q-4.555,5.412-9.57,10.294c-.988,3.4-4.4,6.113-2.966,10.363" transform="translate(-27.424 -4.279)" fill="#f08f4a"/>
    <path id="Trazado_731703" data-name="Trazado 731703" d="M202.26,97.523c-3.632-3.6-6.708-6.894-9.316-9.926-.976.731-1.573,2.058-1.573,4.426-2.639-2.2-3.959-6.6-7.918-7.334.66,2.2-.66,4.4-.66,6.6-1.98-.734-2.64-4.4-3.3-2.934-1.98,1.466-3.96,3.667-3.3,6.6-4.619-.734-5.279-6.6-8.578-8.8-.66,2.934,0,5.867-1.32,8.8-2.64-2.2-3.3-8.8-6.6-7.334-1.32.734-1.32,5.134-2.64,7.334-1.979-3.667-1.979-8.8-5.279-9.534-2.639,0-1.979,5.867-5.279,7.334a99.617,99.617,0,0,0-1.319-13.934c-1.98,2.934-1.98,6.6-4.62,8.8.66-5.134.66-10.267-1.979-13.934-.66-1.467-4.619-.734-5.939,2.2-4.619-3.667-.66-8.8-1.98-13.2-1.98,1.466-1.32,5.134-3.959,6.6-.66-4.4,1.32-8.067,1.979-12.467-1.979.734-3.959,1.467-5.279,3.667-1.434-4.25,1.978-6.962,2.966-10.363q-3.75,3.672-7.713,7.07c-44.8,38.387-51.015,66-51.015,66-10.559,66.737,79.189,64.537,79.189,64.537,83.808-5.867,71.27-42.535,71.27-42.535,11.878-18.334-15.838-47.67-15.838-47.67" transform="translate(-13.355 -10.025)" fill="#c96f4f"/>
    <path id="Trazado_731704" data-name="Trazado 731704" d="M252.029,160.625a.745.745,0,0,1-.716-.541c-3.855-13.568-9.026-19.449-9.078-19.507l-.055-.07a67.446,67.446,0,0,1-7.35-14.109.745.745,0,0,1,1.4-.5,67.238,67.238,0,0,0,7.143,13.725c.494.562,5.526,6.529,9.37,20.059a.744.744,0,0,1-.717.949" transform="translate(-46.956 -25.079)" fill="#382118"/>
    <path id="Trazado_731705" data-name="Trazado 731705" d="M73.814,171.555a.745.745,0,0,1-.685-.451c-4.537-10.56-1.421-30.7,20.935-55.54a.745.745,0,1,1,1.108,1C73.263,140.907,70.341,160.843,74.5,170.516a.744.744,0,0,1-.39.978.753.753,0,0,1-.294.06" transform="translate(-14.268 -23.063)" fill="#382118"/>
    <path id="Trazado_731706" data-name="Trazado 731706" d="M171.294,133.207a21.051,21.051,0,0,1,.963,2.706,25.2,25.2,0,0,1,.573,2.817,27.5,27.5,0,0,1,.2,5.773,25.22,25.22,0,0,1-1.08,5.677,14.353,14.353,0,0,1-2.638,5.029c.246-1.934.434-3.746.618-5.557s.324-3.6.471-5.39l.361-5.43c.087-.916.1-1.836.211-2.773.09-.937.138-1.876.319-2.853" transform="translate(-33.862 -26.641)" fill="#f08f4a"/>
    <path id="Trazado_731707" data-name="Trazado 731707" d="M184,66.1c-.275.466-.562.934-.879,1.377a13.345,13.345,0,0,1-1.057,1.243,8.315,8.315,0,0,1-2.682,1.886,5.7,5.7,0,0,1-3.323.418,7.282,7.282,0,0,1-3.1-1.387,14.578,14.578,0,0,1-4.1-5.257,21.258,21.258,0,0,1-2.021-6.347c1.088,1.886,2.158,3.708,3.317,5.412a19.007,19.007,0,0,0,3.906,4.364,5.575,5.575,0,0,0,4.869,1.162A14.784,14.784,0,0,0,184,66.1" transform="translate(-33.367 -11.607)" fill="#c96f4f"/>
    <path id="Trazado_731708" data-name="Trazado 731708" d="M215.5,150.179a10.588,10.588,0,0,0,2.592-.062c.4-.046.8-.085,1.222-.115s.849-.038,1.233-.054a9.438,9.438,0,0,0,2.037-.208,3.5,3.5,0,0,0,.963-.424,2.837,2.837,0,0,0,.942-.978,2.394,2.394,0,0,1,.133,1.784,3.6,3.6,0,0,1-.951,1.583,4.514,4.514,0,0,1-3.056,1.174,7.941,7.941,0,0,1-1.418-.1,6.8,6.8,0,0,1-1.417-.385,4.777,4.777,0,0,1-1.354-.822,3.136,3.136,0,0,1-.926-1.39" transform="translate(-43.099 -29.667)" fill="#f08f4a"/>
    <path id="Trazado_731709" data-name="Trazado 731709" d="M199.265,129.735c.81-.078,1.594-.064,2.332-.138a6.662,6.662,0,0,0,2-.454,3.518,3.518,0,0,0,1.358-1.076,2.028,2.028,0,0,0,.457-1.285l-.182-4.121,2.5,3.167a4.546,4.546,0,0,0,1.583,1.267,4.321,4.321,0,0,0,1.984.433,4.636,4.636,0,0,0,2.119-.638,6.341,6.341,0,0,0,1.961-1.786,5.136,5.136,0,0,1-6.946,4.652,5.859,5.859,0,0,1-2.714-2.065l2.318-.953A4.544,4.544,0,0,1,206.663,130a4.59,4.59,0,0,1-2.651,1.3,5.482,5.482,0,0,1-2.577-.366,9.385,9.385,0,0,1-2.17-1.2" transform="translate(-39.852 -24.532)" fill="#f08f4a"/>
    <path id="Trazado_731710" data-name="Trazado 731710" d="M138.5,150.264a14.491,14.491,0,0,0,2.447.83,15.41,15.41,0,0,0,2.127.356,15.956,15.956,0,0,0,2.149.067,14.428,14.428,0,0,0,2.542-.327,4.054,4.054,0,0,1-1.93,2.532,4.916,4.916,0,0,1-3,.649A5.1,5.1,0,0,1,140,153.134a4.272,4.272,0,0,1-1.494-2.87" transform="translate(-27.7 -30.052)" fill="#f08f4a"/>
    <path id="Trazado_731711" data-name="Trazado 731711" d="M103.82,154.479a15.151,15.151,0,0,0,2.2,1.43,16.06,16.06,0,0,0,1.981.886,16.261,16.261,0,0,0,2.061.616,14.3,14.3,0,0,0,2.527.334,3.755,3.755,0,0,1-2.39,1.967,4.819,4.819,0,0,1-3.038-.137,5.389,5.389,0,0,1-2.5-1.93,4.442,4.442,0,0,1-.841-3.167" transform="translate(-20.755 -30.895)" fill="#f08f4a"/>
    <path id="Trazado_731712" data-name="Trazado 731712" d="M180.982,165.478a9.669,9.669,0,0,0,2.075.457c.585.067,1.119.093,1.657.108s1.073.014,1.659-.022a9.826,9.826,0,0,0,2.094-.342,3.244,3.244,0,0,1-1.3,2.47,3.908,3.908,0,0,1-2.519.826,3.965,3.965,0,0,1-2.479-.963,3.3,3.3,0,0,1-1.19-2.534" transform="translate(-36.195 -33.095)" fill="#f08f4a"/>
    <path id="Trazado_731713" data-name="Trazado 731713" d="M114.859,118.539c.21.377.35.755.556,1.079.107.159.222.306.314.458a2.567,2.567,0,0,0,1.908,1.011,5.107,5.107,0,0,0,1.775-.32,10.415,10.415,0,0,0,1.754-.789l1.179-.682.588,1.412a8.814,8.814,0,0,0,1.349,2.326,3.548,3.548,0,0,0,1.9,1.2,5.994,5.994,0,0,0,2.6-.039,18.464,18.464,0,0,0,2.9-.893,8,8,0,0,1-2.382,2.39,5.939,5.939,0,0,1-3.339,1.025,4.7,4.7,0,0,1-1.874-.438,5.753,5.753,0,0,1-1.616-1.163,9.038,9.038,0,0,1-1.923-3.3l1.767.73a8.246,8.246,0,0,1-2.438.766,5.344,5.344,0,0,1-2.623-.19,3.549,3.549,0,0,1-2.083-1.929,4.806,4.806,0,0,1-.317-2.65" transform="translate(-22.961 -23.707)" fill="#f08f4a"/>
    <path id="Trazado_731714" data-name="Trazado 731714" d="M203.928,42.09c-2.947-4.419-11.3-9.566-16.172-10.875a6.21,6.21,0,0,0-6.69,2.053c-1.6,1.7-3.237,4.178-5.729,3.968,3.042,1.058,4.922,4.228,7.6,5.975a15.568,15.568,0,0,0,9.82,2.082c.046.83-1.842,4.32-2.367,4.9Z" transform="translate(-35.067 -6.188)" fill="#e34927"/>
    <path id="Trazado_731715" data-name="Trazado 731715" d="M185.817,38.07c.879.675,2.569-1.2,2.569-1.2,4.392-4.137,7.168.6,7.168.6a8.171,8.171,0,0,0,3.045,2.627,14.1,14.1,0,0,0-3.65,2.108c-4.258,3.084-6.561-1.573-6.561-1.573a8.489,8.489,0,0,0-2.571-2.553" transform="translate(-37.163 -7.034)" fill="#382118"/>
    <path id="Trazado_731716" data-name="Trazado 731716" d="M193.092,37.095a2.39,2.39,0,0,1,2.33,2.424,2.349,2.349,0,0,1-2.471,2.245,2.39,2.39,0,0,1-2.33-2.425,2.349,2.349,0,0,1,2.471-2.244" transform="translate(-38.123 -7.418)" fill="#f79854"/>
    <path id="Trazado_731717" data-name="Trazado 731717" d="M194.5,39.268a.962.962,0,0,1,.869,1.034.946.946,0,0,1-.93.966.963.963,0,0,1-.87-1.034.948.948,0,0,1,.931-.966" transform="translate(-38.713 -7.853)" fill="#382118"/>
    <path id="Trazado_731718" data-name="Trazado 731718" d="M200.923,61.538A36.2,36.2,0,0,0,193.2,76.19a8.948,8.948,0,0,0-.071,4.794,5.892,5.892,0,0,0,5.247,3.829,8.172,8.172,0,0,0,6.11-2.642,10.849,10.849,0,0,0,2.326-3.63c1.075-2.771.994-5.867,1.673-8.77.517-2.21,1.47-4.291,2-6.5.578-2.394,1.98-8.489-1.15-8.81-2.555-.262-7.022,5.394-8.411,7.074" transform="translate(-38.564 -10.891)" fill="#e34927"/>
    <path id="Trazado_731719" data-name="Trazado 731719" d="M218.181,42.735c7.041.234,11.959,9.778,11.959,9.778-8.766-1.754-12.631-.254-12.631-.254-.994-.761-5.289,1.8-5.289,1.8a23.961,23.961,0,0,1,4.265-7.706,6.137,6.137,0,0,0,1.7-3.622" transform="translate(-42.443 -8.547)" fill="#ffe09c"/>
    <path id="Trazado_731720" data-name="Trazado 731720" d="M220.289,45.211c-.05.306.284.627.746.72s.874-.081.924-.386-.284-.627-.746-.719-.874.08-.924.386" transform="translate(-44.056 -8.96)" fill="#382118"/>
    <path id="Trazado_731721" data-name="Trazado 731721" d="M.383,145.392c-1.362,15.334,9.681,30.725,23.436,32.662a85.541,85.541,0,0,1-9.138-25.319c7.375,14.778,19.555,26.52,33.761,32.547a67.666,67.666,0,0,1-12.89-35.957,91.7,91.7,0,0,0,31.171,34.489,39.582,39.582,0,0,0-1.962-17.438,98.557,98.557,0,0,0,11.519,18.51c1,1.263,2.4,2.618,3.835,2.078,1.158-.437,1.677-1.9,2.053-3.192q2.324-7.99,4.648-15.979l8.766,17.031,13.9-18.018a156.724,156.724,0,0,1,8.225,20.389,79.525,79.525,0,0,1,19.433-18.816q2.747,8.46,5.494,16.919a147.2,147.2,0,0,1,33.235-15.276,9.676,9.676,0,0,1-1.075,7.958,3.688,3.688,0,0,0,3.374-1.19q.157,3.689.316,7.376l19.825-15.188a31.524,31.524,0,0,0-3.606,11.854c10.094,1.141,20.548-5.057,25.317-15.01a14.759,14.759,0,0,0-2.594,10.237c8.827-.02,17.008-8.33,17.817-18.1q-.838,8.863-1.676,17.726c4.487.889,9.2-3.48,9.224-8.546q.276,7.018.554,14.035L262.2,167.4c-2.919,13.2-12.688,23.517-23.756,29.309s-23.418,7.7-35.575,9.217A693.536,693.536,0,0,1,100.2,211.042q-25.705-.624-51.335-3.154c-16.128-1.593-28.287-.254-38.3-15.768C1.586,178.19-1.1,162.152.383,145.392" transform="translate(0 -29.078)" fill="#ffe09c"/>
  </g>
</svg>
