<svg xmlns="http://www.w3.org/2000/svg" xmlns:xlink="http://www.w3.org/1999/xlink" width="118" height="118" viewBox="0 0 118 118">
  <defs>
    <clipPath id="clip-path">
      <rect id="Rectángulo_349592" data-name="Rectángulo 349592" width="96.062" height="80.912" fill="none"/>
    </clipPath>
  </defs>
  <g id="Grupo_997424" data-name="Grupo 997424" transform="translate(-1096 -1236.254)">
    <circle id="Elipse_5914" data-name="Elipse 5914" cx="59" cy="59" r="59" transform="translate(1096 1236.254)" fill="#06d1d1"/>
    <g id="Grupo_997114" data-name="Grupo 997114" transform="translate(1106.55 1254.798)">
      <g id="Grupo_997113" data-name="Grupo 997113" clip-path="url(#clip-path)">
        <path id="Trazado_730574" data-name="Trazado 730574" d="M31.43,62.18c-1.293.371-1.8,2.418-3.409,1.567-1.015-.537-1.476-.034-2.107.537-.7.631-.89,1.166-.069,1.84,4.376,3.6,3.1,6.119-.305,9.151-1.463,1.3-2.766,2.784-4.186,4.14-1.963,1.874-4.151,2.006-6.07.137Q8.21,72.661,1.312,65.592c-1.779-1.824-1.728-3.89.031-5.768q3.049-3.255,6.311-6.31c1.735-1.628,3.827-1.537,5.634.075.519.463.989.981,1.492,1.462.411.394.869.928,1.435.342.528-.546,1.729-.972,1.222-1.883-.875-1.57.035-2.4,1-3.225,1.047-.895,1.278-1.678.329-2.847A7.143,7.143,0,0,1,17.261,43c-.054-6.63-.729-13.292.568-19.877A28.852,28.852,0,0,1,43.115.3c6.46-.648,12.832-.444,18.772,2.42C72.51,7.849,78.2,16.422,78.835,28.2c.237,4.419.034,8.86.047,13.291a9.959,9.959,0,0,1-1.82,6.264c-.71.937-.457,1.513.307,2.237,1,.951,2.393,1.746,1.372,3.628-.383.7.666,1.254,1.216,1.734.626.546,1.03-.045,1.433-.421.509-.474.973-1,1.5-1.453a3.849,3.849,0,0,1,5.493.021q3.321,3.119,6.449,6.442a3.789,3.789,0,0,1-.036,5.622q-6.981,7.119-14.106,14.1a3.9,3.9,0,0,1-5.784-.067c-2.024-1.912-3.982-3.9-5.92-5.9-2.025-2.09-2-4.226,0-6.347.347-.369.731-.7,1.066-1.082.39-.443,1.157-.866.446-1.55-.575-.553-.974-1.709-2.116-1.065a1.791,1.791,0,0,1-2.367-.471c-.351-.332-.66-.946-1.209-.756-.594.2-.329.881-.387,1.352-1.274,10.4-11.45,17.143-21.255,13.914A15.943,15.943,0,0,1,31.887,64.8c-.165-.852-.3-1.711-.458-2.619m32.427-5.1c2.152-3.936,5.694-6.117,8.952-8.6a7.619,7.619,0,0,0,3.329-5.71,96.71,96.71,0,0,0-.084-16.1C74.971,16.157,69.361,8.925,59.79,4.645c-4.6-2.059-9.49-1.92-14.369-1.844A26.008,26.008,0,0,0,20.367,23.733c-1.117,5.945-.319,11.993-.5,17.992a7.7,7.7,0,0,0,3.285,6.691c3.3,2.516,6.888,4.729,9.053,8.8,2.963-7.248,8-11.429,15.543-11.548,7.8-.122,13.01,4.093,16.1,11.415M34.335,62A13.769,13.769,0,0,0,47.946,75.926,14,14,0,0,0,61.914,62.06,13.773,13.773,0,0,0,48.087,48.348,13.452,13.452,0,0,0,34.335,62M77.782,78.17a2.222,2.222,0,0,0,1.627-.866c4.349-4.337,8.679-8.694,13.043-13.015,1.064-1.053,1.169-1.985.056-3.064q-2.727-2.644-5.373-5.372c-1.069-1.1-2.007-1.046-3.07.027Q77.58,62.424,71.036,68.909c-1.066,1.055-1.164,2.03-.093,3.1q2.689,2.683,5.375,5.37a2.157,2.157,0,0,0,1.463.793m-67.492-23.2a4.007,4.007,0,0,0-1,.567C7.3,57.477,5.314,59.427,3.38,61.424c-.964,1-.562,1.951.3,2.813Q10.257,70.8,16.821,77.383c1,1,1.907,1.068,2.921.029,1.766-1.81,3.561-3.591,5.36-5.368,1.086-1.071.986-2.068-.056-3.106Q18.461,62.381,11.9,55.8a2.184,2.184,0,0,0-1.607-.835M30.16,58.9a4.579,4.579,0,0,0-.21-.536c-1.788-3.285-4.773-5.312-7.763-7.319-.74-.5-1.1.308-1.548.693-.526.455-.3.867.108,1.273q3.554,3.536,7.1,7.08c.369.368.778.734,1.3.3.472-.392,1.042-.749,1.011-1.489m45.576-6.763c-.524-.5-.885-1.753-1.953-1.033-2.874,1.939-5.724,3.933-7.565,7.024-.579.973-.148,1.481.5,2.087.764.718,1.242.179,1.742-.319q3.286-3.273,6.56-6.559a1.73,1.73,0,0,0,.718-1.2M23.023,63.157a3.548,3.548,0,0,0,1.742-1.465c.422-.533.031-.943-.326-1.305-1.28-1.3-2.609-2.547-3.845-3.884-.841-.91-1.353-.411-1.992.219-.671.662-1.016,1.213-.157,2.018,1.329,1.245,2.582,2.571,3.876,3.853a8.077,8.077,0,0,0,.7.564m55.154-5.224a3.094,3.094,0,0,0-1.418-1.814c-.559-.435-.92.092-1.268.436C74.233,57.8,73.027,59.1,71.72,60.294c-.986.9-.451,1.436.208,2.161.756.832,1.3.72,2-.039,1.119-1.2,2.321-2.327,3.471-3.5a10.8,10.8,0,0,0,.774-.98" transform="translate(0 0)"/>
        <path id="Trazado_730575" data-name="Trazado 730575" d="M145.367,71.279a10.728,10.728,0,1,1,10.706-10.788,10.807,10.807,0,0,1-10.706,10.788m.014-18.712a7.736,7.736,0,0,0-8.032,7.988,8.043,8.043,0,0,0,7.978,8.176,8.3,8.3,0,0,0,8.153-8.123,7.992,7.992,0,0,0-8.1-8.041" transform="translate(-83.285 -30.826)"/>
        <path id="Trazado_730576" data-name="Trazado 730576" d="M82.451,60.613A10.639,10.639,0,0,1,71.7,71.279a10.728,10.728,0,0,1,.095-21.455A10.7,10.7,0,0,1,82.451,60.613M63.77,60.568a8.074,8.074,0,0,0,8.018,8.164,8.311,8.311,0,0,0,8.133-8.14,7.993,7.993,0,0,0-8.1-8.025,7.794,7.794,0,0,0-8.05,8" transform="translate(-37.754 -30.827)"/>
        <path id="Trazado_730577" data-name="Trazado 730577" d="M113.328,25.98a1.115,1.115,0,0,1-1.762.857,4.581,4.581,0,0,1-1.226-1.152,20.305,20.305,0,0,0-14.967-7.1c-5.524-.182-10.887.138-15.578,3.544a22.485,22.485,0,0,0-4.2,3.806c-.6.727-1.334,1.63-2.35.726s-.185-1.756.415-2.457A22.889,22.889,0,0,1,89.01,16.049c7.119-.783,13.887.089,19.782,4.631a23.456,23.456,0,0,1,3.814,3.676,2.3,2.3,0,0,1,.722,1.623" transform="translate(-45.023 -9.772)"/>
        <path id="Trazado_730578" data-name="Trazado 730578" d="M104.526,146.09a4.243,4.243,0,0,1-4.416-4.2,4.337,4.337,0,1,1,8.673.017,4.291,4.291,0,0,1-4.258,4.182" transform="translate(-61.94 -85.097)"/>
        <path id="Trazado_730579" data-name="Trazado 730579" d="M104.523,173.92a4.32,4.32,0,0,1-4.407-4.236,4.327,4.327,0,0,1,8.651-.157,4.305,4.305,0,0,1-4.244,4.394" transform="translate(-61.944 -102.31)"/>
        <path id="Trazado_730580" data-name="Trazado 730580" d="M133.726,173.913a4.282,4.282,0,0,1-.02-8.563,4.372,4.372,0,0,1,4.328,4.378,4.325,4.325,0,0,1-4.308,4.185" transform="translate(-80.114 -102.305)"/>
        <path id="Trazado_730581" data-name="Trazado 730581" d="M133.709,146.093a4,4,0,0,1-4.227-4.122,4.308,4.308,0,0,1,4.223-4.429,4.5,4.5,0,0,1,4.327,4.218,4.29,4.29,0,0,1-4.323,4.333" transform="translate(-80.113 -85.099)"/>
        <path id="Trazado_730582" data-name="Trazado 730582" d="M158.889,68a6.047,6.047,0,0,1-6.36,6.088A6.195,6.195,0,1,1,158.889,68m-6.224-3.75a3.647,3.647,0,1,0,.068,7.294,3.759,3.759,0,0,0,3.6-3.669,3.805,3.805,0,0,0-3.672-3.625" transform="translate(-90.64 -38.178)"/>
        <path id="Trazado_730583" data-name="Trazado 730583" d="M79.211,61.707a6.194,6.194,0,1,1-6.351,6.213,6.249,6.249,0,0,1,6.351-6.213m-3.6,6.109a3.507,3.507,0,0,0,3.419,3.733A3.58,3.58,0,0,0,82.7,68.028a3.758,3.758,0,0,0-3.473-3.769,3.559,3.559,0,0,0-3.614,3.557" transform="translate(-45.08 -38.179)"/>
      </g>
    </g>
  </g>
</svg>
