<svg xmlns="http://www.w3.org/2000/svg" xmlns:xlink="http://www.w3.org/1999/xlink" width="118" height="118" viewBox="0 0 118 118">
  <defs>
    <clipPath id="clip-path">
      <rect id="Rectángulo_345277" data-name="Rectángulo 345277" width="90.486" height="90.639" fill="none"/>
    </clipPath>
  </defs>
  <g id="Grupo_997435" data-name="Grupo 997435" transform="translate(-19722 9255.746)">
    <circle id="Elipse_5924" data-name="Elipse 5924" cx="59" cy="59" r="59" transform="translate(19722 -9255.746)" fill="#ffc403"/>
    <g id="Grupo_984724" data-name="Grupo 984724" transform="translate(19735.824 -9241.693)">
      <g id="Grupo_984723" data-name="Grupo 984723" clip-path="url(#clip-path)">
        <path id="Trazado_726094" data-name="Trazado 726094" d="M56.815,71.858c2.225,1.126,4.33,2.174,6.416,3.257.693.36,1.242.024,1.833-.224q9.2-3.864,18.408-7.724c3.561-1.495,6.6.375,6.965,4.289a7.86,7.86,0,0,1-4.623,8.349c-6.73,3.4-13.467,6.779-20.187,10.2a6.46,6.46,0,0,1-3.042.718q-29.723-.028-59.447-.015C.5,90.706.009,90.243.007,87.647q-.014-14.861,0-29.722c0-2.64.436-3.046,3.112-3.061,4.462-.026,4.462-.026,4.462-4.509a7.283,7.283,0,0,0-.008-1.06c-.23-1.556.284-2.142,1.979-2.1,1.533.035,1.922.54,1.819,1.951-.107,1.466.018,2.948-.035,4.42-.036,1.006.365,1.4,1.353,1.309.585-.052,1.179.012,1.768-.011,1.444-.058,2.458.45,2.519,2.035.046,1.176.674.935,1.421.755a34.689,34.689,0,0,1,15.253-.2,9.932,9.932,0,0,1,5,2.479c1.278,1.21,2.906.48,4.377.5.469.006.376-.653.378-1.049.011-1.769-.022-3.539.017-5.307.018-.82-.25-1.161-1.111-1.152-3.184.034-6.369.027-9.554,0a3.658,3.658,0,0,0-1.795.654,9.414,9.414,0,0,1-11.427-1.487c-3.77-3.65-7.5-7.351-11.131-11.136A9.6,9.6,0,0,1,22.088,27.474Q27.6,32.842,32.973,38.356a9.147,9.147,0,0,1,2.5,9.424c-.41,1.408.131,1.458,1.2,1.432,1.709-.042,3.424-.075,5.129.011,1.184.06,1.679-.239,1.637-1.541-.093-2.828-.073-5.661-.007-8.49.026-1.091-.285-1.462-1.422-1.668a18.875,18.875,0,1,1,6.784-.032c-1.284.241-1.634.639-1.594,1.884.091,2.769.073,5.543.006,8.313-.027,1.114.246,1.6,1.46,1.536,1.824-.093,3.655-.043,5.483-.016.919.014,1.42-.039,1.06-1.263a9.419,9.419,0,0,1,2.7-9.856c3.458-3.464,6.9-6.943,10.388-10.378,4.049-3.989,9.932-4.09,13.794-.283a9.641,9.641,0,0,1-.112,13.8Q76.72,46.6,71.348,51.866A9.477,9.477,0,0,1,59.5,53.475a3.628,3.628,0,0,0-1.82-.555c-3.067.021-6.134.047-9.2-.011-1.054-.02-1.307.4-1.273,1.356.056,1.59.083,3.188-.008,4.775-.067,1.163.319,1.538,1.487,1.509,2.947-.071,5.9-.034,8.845-.019,2.475.013,3.018.6,2.808,3.1a14.75,14.75,0,0,1-3.529,8.225M40.409,86.9q10.706,0,21.412,0a4.66,4.66,0,0,0,2.239-.334c6.83-3.466,13.682-6.891,20.513-10.355a4.172,4.172,0,0,0,2.219-3.785c.079-1.642-.795-2.2-2.279-1.58-4.567,1.9-9.336,3.444-13.637,5.829-5.038,2.793-9.528,2.863-14.129-.575a5.817,5.817,0,0,0-6.389-.836,6.043,6.043,0,0,1-2.44.285c-3.539.036-7.081-.053-10.616.075-1.675.06-1.4-.934-1.411-1.914-.013-1.01-.2-1.942,1.44-1.886,3.476.118,6.961.087,10.439,0a8.613,8.613,0,0,0,8.182-5.679c.633-1.736.539-1.88-1.318-1.883q-8.052-.008-16.1,0c-.969,0-1.979-.011-2.418-1.061a3.334,3.334,0,0,0-2.618-1.87,30.319,30.319,0,0,0-14.868.218A1.957,1.957,0,0,0,16.961,63.8c.066,7.136.086,14.274.013,21.411-.015,1.49.545,1.722,1.845,1.712,7.2-.051,14.393-.024,21.589-.024M45.328,3.919A15.074,15.074,0,1,0,60.388,18.95,14.994,14.994,0,0,0,45.328,3.919M3.77,72.844c0,4.239.023,8.479-.017,12.717-.009.96.236,1.378,1.275,1.351,2.295-.06,4.593-.051,6.888,0,.952.02,1.351-.228,1.347-1.278q-.055-12.894,0-25.789c0-1.059-.428-1.285-1.365-1.265-2.119.046-4.243.086-6.358-.012C4.2,58.5,3.7,58.848,3.733,60.3c.1,4.178.036,8.36.037,12.54M31.037,47.792c1.506-2.717,1.1-4.882-.654-6.681-3.62-3.714-7.275-7.4-11-11a5.725,5.725,0,0,0-8.129-.043,5.709,5.709,0,0,0-.116,8.251c3.592,3.739,7.3,7.37,10.99,11.011a5.618,5.618,0,0,0,4.84,1.66c.5-.066,1.227-.175,1.418-.511.314-.551-.426-.868-.771-1.214C23.29,44.92,18.98,40.562,14.6,36.279c-1.089-1.064-.221-1.539.405-2.043s1-1.992,2.3-.659c3.833,3.917,7.749,7.753,11.6,11.651.779.788,1.426,1.705,2.134,2.563m27.525-2.31c-.013.481-.054,1.557.521,1.841.753.372,1.2-.7,1.7-1.2,4.107-4.061,8.174-8.162,12.276-12.227.374-.371.714-1.235,1.366-.789a6.058,6.058,0,0,1,2.075,2.12c.381.784-.706,1.214-1.2,1.718q-6.213,6.288-12.5,12.5c-.989.972-.638,1.288.458,1.49a5.9,5.9,0,0,0,5.472-1.8c3.556-3.528,7.127-7.043,10.617-10.636a5.839,5.839,0,1,0-8.3-8.2c-3.581,3.5-7.1,7.071-10.634,10.619a6.064,6.064,0,0,0-1.843,4.558" transform="translate(0 -0.081)"/>
        <path id="Trazado_726095" data-name="Trazado 726095" d="M13.1,7.086c0,1.934-.06,3.871.02,5.8.06,1.448.008,2.347-1.958,2.35-1.925,0-1.89-.9-1.846-2.253C9.377,11,9.33,9.01,9.33,6.475,7.956,7.842,6.879,8.858,5.869,9.938c-.581.622-.966.781-1.685.085C2.26,8.163,2.219,8.2,4.082,6.342,5.871,4.554,7.638,2.744,9.455.985,10.806-.322,11.6-.327,12.929.969c2.147,2.1,4.221,4.266,6.387,6.34.72.689.534,1.068-.063,1.684-1.784,1.84-1.77,1.877-3.535.076-.726-.741-1.387-1.545-2.077-2.32l-.543.336" transform="translate(-1.75 -0.001)"/>
        <path id="Trazado_726096" data-name="Trazado 726096" d="M215.082,7c0,2.269-.085,4.543.03,6.807.077,1.513-.807,1.427-1.782,1.36-.9-.061-2.1.435-2.034-1.3.086-2.268.021-4.543.021-6.814l-.484-.279c-1.026,1.089-2.077,2.154-3.067,3.276-.561.635-.935.6-1.556.021-1.98-1.841-2.008-1.812-.152-3.667,1.747-1.747,3.483-3.5,5.245-5.237,1.505-1.48,2.273-1.511,3.727-.091,2.1,2.055,4.141,4.178,6.261,6.216.684.657.613,1.042-.015,1.693-1.809,1.878-1.8,1.927-3.656.011-.716-.738-1.322-1.582-1.978-2.377Z" transform="translate(-132.029 -0.02)"/>
        <path id="Trazado_726097" data-name="Trazado 726097" d="M227.085,141.3c0,2.418-.087,4.839.032,7.251.073,1.47-.807,1.351-1.683,1.256-.84-.09-2.141.619-2.126-1.186.039-4.834.047-9.67,0-14.5-.021-1.916,1.344-1.141,2.234-1.279,1.044-.163,1.628.113,1.575,1.389-.1,2.354-.028,4.716-.028,7.074" transform="translate(-144.031 -85.651)"/>
        <path id="Trazado_726098" data-name="Trazado 726098" d="M22.932,56.783c-1.969.544-1.576-.849-1.726-2-.233-1.782.763-1.714,2.056-1.82,1.838-.149,1.667.9,1.781,2.132.166,1.791-.77,1.919-2.112,1.683" transform="translate(-13.655 -34.155)"/>
        <path id="Trazado_726099" data-name="Trazado 726099" d="M225.118,56.774c-1.634.415-1.908-.373-1.929-1.853-.021-1.545.422-1.953,1.968-1.976,1.631-.025,1.884.551,1.911,2.008.028,1.545-.368,2.2-1.95,1.821" transform="translate(-143.958 -34.149)"/>
        <path id="Trazado_726100" data-name="Trazado 726100" d="M108.286,36.233c.881.053,1.9-.308,2.261,1.038a1.281,1.281,0,0,0,1.293.772c1.354.022,2.71.064,4.06,0a1.805,1.805,0,0,0-.069-3.609c-1.059-.036-2.121.012-3.18-.021-3.486-.107-5.828-2.017-6.244-5.066-.394-2.882,1.411-5.275,4.757-6.2.536-.149.862-.289.839-.881-.073-1.828,1.324-1.043,2.139-1.127.727-.075,1.8-.373,1.682,1.044-.072.848.5.852,1.113.994a5.574,5.574,0,0,1,4.387,4.338c.209.811.052,1.293-.883,1.2-1.176-.114-2.471.478-3.288-1.168-.589-1.187-5.5-1.126-6.457-.126a1.715,1.715,0,0,0-.429,1.8,1.8,1.8,0,0,0,1.7,1.321c1.176.053,2.355.011,3.533.038a5.719,5.719,0,0,1,5.936,5.145c.3,2.779-1.535,5.22-4.553,6.078-.361.1-.986-.1-1.008.472-.1,2.734-2.152,1.042-3.267,1.448-.126.046-.539-.242-.525-.33.261-1.718-1.146-1.528-2.1-1.894a5.468,5.468,0,0,1-3.116-2.963c-.907-2.017-.731-2.3,1.409-2.3" transform="translate(-68.599 -13.571)"/>
      </g>
    </g>
  </g>
</svg>
