<svg id="Grupo_984545" data-name="Grupo 984545" xmlns="http://www.w3.org/2000/svg" xmlns:xlink="http://www.w3.org/1999/xlink" width="132" height="132" viewBox="0 0 132 132">
  <defs>
    <clipPath id="clip-path">
      <rect id="Rectángulo_345166" data-name="Rectángulo 345166" width="132" height="132" fill="none"/>
    </clipPath>
  </defs>
  <g id="Grupo_984544" data-name="Grupo 984544" clip-path="url(#clip-path)">
    <path id="Trazado_725738" data-name="Trazado 725738" d="M132,66A66,66,0,1,1,66,0a66,66,0,0,1,66,66" fill="#0a88a5"/>
    <path id="Trazado_725739" data-name="Trazado 725739" d="M63,5.251A57.748,57.748,0,1,0,120.75,63,57.749,57.749,0,0,0,63,5.251M22.661,49.933c0-4.612,1.111-7.265,3.4-8.115,5.084-1.894,13.425,6.787,22.363,17.056-.578.64-1.144,1.315-1.686,2.024-5.4-6.226-15.941-18.054-19.769-16.643-1.1.409-1.7,2.425-1.7,5.678,0,12.4,8.7,22.85,16.407,29.049a19.424,19.424,0,0,0,1.276,4.2c-9.015-6.306-20.286-18.659-20.286-33.25M63,92.772c-10.547,0-19.094-7.015-19.094-17.562,0-6.471,4.312-13.216,9.411-17.465,3.21-2.676,4.584-6.509,9.683-6.509,5.249,0,6.477,3.833,9.693,6.512,5.095,4.249,9.4,11,9.4,17.462,0,10.547-8.549,17.562-19.1,17.562M83.056,83.18a19.385,19.385,0,0,0,1.276-4.2c7.711-6.2,16.407-16.643,16.407-29.048,0-3.253-.605-5.269-1.7-5.678C95.217,42.832,84.67,54.669,79.271,60.9c-.544-.71-1.109-1.384-1.686-2.026C86.52,48.6,94.853,39.921,99.946,41.818c2.285.85,3.4,3.5,3.4,8.115,0,14.589-11.267,26.942-20.286,33.247M72.11,62.948c-1.3,0-3.9-5.2-9.108-5.2s-7.808,5.2-9.111,5.2a1.229,1.229,0,0,0-1.3,1.3,1.3,1.3,0,0,0,1.3,1.3c1.3,0,6.507-5.2,9.111-5.2s7.807,5.2,9.108,5.2a1.251,1.251,0,0,0,1.3-1.3,1.3,1.3,0,0,0-1.3-1.3" transform="translate(3 3.001)" fill="#f5f5f5"/>
  </g>
</svg>
