<svg xmlns="http://www.w3.org/2000/svg" xmlns:xlink="http://www.w3.org/1999/xlink" width="138" height="144.731" viewBox="0 0 138 144.731">
  <defs>
    <clipPath id="clip-path">
      <rect id="Rectángulo_349616" data-name="Rectángulo 349616" width="115.512" height="144.731" fill="none"/>
    </clipPath>
  </defs>
  <g id="Grupo_997413" data-name="Grupo 997413" transform="translate(-721 -1262)">
    <circle id="Elipse_5895" data-name="Elipse 5895" cx="59" cy="59" r="59" transform="translate(741 1262)" fill="#b20d0d"/>
    <g id="Grupo_997178" data-name="Grupo 997178" transform="translate(721 1262)">
      <g id="Grupo_997177" data-name="Grupo 997177" clip-path="url(#clip-path)">
        <path id="Trazado_730677" data-name="Trazado 730677" d="M5.875,166.294s-1.341-12.843,5.3-16.061,8.249-5.03,15.19-2.213,7.947,4.929,13.983,1.107,6.237-6.841,11.971-6.841,17.3-2.716,21.025-11.87S82.5,119.45,93.36,116.13s22.634-9.456,20.823-22.03-8.45-14.486-8.45-14.486,7.142-12.876,2.515-24.445S89.336,33.44,76.863,36.458,63.483,48.932,64.992,54.565c0,0-13.681-.8-18.409,6.841s-1.509,18.912,5.835,20.521c0,0-17.3,4.527-16.5,15.19s9.657,15.19,18.812,14.586,11.066,2.816,10.563,7.947-2.012,8.853-7.243,11.871-14.888,6.237-20.22,3.823-5.03,7.042-8.148,7.545-13.178-5.734-19.415-4.024S.007,154.156.007,159.185,3.83,171.559,3.83,171.559,1.717,165.523,2.019,161.3s1.71-6.639,2.414-5.633S4,165.356,5.875,166.294" transform="translate(-0.005 -26.828)" fill="#8cc63f"/>
        <path id="Trazado_730678" data-name="Trazado 730678" d="M65.289,366.694c-.444,6.521-2.716,11.728-14.859,15.645-12.82,4.1-13.564-2.185-16.093,1.433-1.377,1.935-1.9,5.19-3.627,6.384-2.934,2.171-14.27-6-20.972-3.545C4.364,388.88.234,400.851,0,406.229c-.094-5.613,3.461-17.795,9.355-20.509,3.5-1.394,7.969-.139,11.606,1.067,7.844,2.608,8.6,3.459,9.811,1.462,1.151-1.91,1.827-5.1,3.752-6.348,3.083-2.042,3.745,2.972,15.621-.485,12.293-3.594,14.309-8.682,15.142-14.721" transform="translate(0 -273.871)" fill="#9bd94a"/>
        <path id="Trazado_730679" data-name="Trazado 730679" d="M272.773,126.589s-4.694-3.219-10.73,4.158,1.341,14.888,1.341,14.888-2.548-11.938,2.28-15.559,7.109-3.487,7.109-3.487" transform="translate(-193.937 -94.023)" fill="#80b53a"/>
        <path id="Trazado_730680" data-name="Trazado 730680" d="M313.555,208.7s4.988,7.577,12.5,7.845,13.858-8.013,13.858-8.013a21.5,21.5,0,0,1-10.529,4.728c-6.17.8-15.827-4.56-15.827-4.56" transform="translate(-234.183 -155.742)" fill="#80b53a"/>
        <path id="Trazado_730681" data-name="Trazado 730681" d="M286.04,290.9c-2.7,3.29-9.821,4.381-13.51,2.667a6.113,6.113,0,0,1-2.4-1.831,23.668,23.668,0,0,1-8.072,4.779c-9.017,3.254-17.757-.813-21.624-9.431,2.475,13.526,17.8,21.463,29.645,6.945,5.05,4.73,17.109,1.01,17.166-5.336a5.343,5.343,0,0,1-1.2,2.207" transform="translate(-179.572 -214.411)" fill="#80b53a"/>
        <path id="Trazado_730682" data-name="Trazado 730682" d="M229.634,16.116S225.51,14.3,218.87,18.128s-1.107,17.5-1.107,17.5-1.609-8.752,2.113-13.882a14.6,14.6,0,0,1,9.758-5.633" transform="translate(-161.026 -11.716)" fill="#9bd94a"/>
        <path id="Trazado_730683" data-name="Trazado 730683" d="M355.681.979s9.657-1.006,17.1,8.852,6.639,24.344,6.639,24.344a31.972,31.972,0,0,0,.4-19.516C376.6,4.2,364.734-2.642,355.681.979" transform="translate(-265.645 0)" fill="#9bd94a"/>
        <path id="Trazado_730684" data-name="Trazado 730684" d="M308.958,63.157A13.946,13.946,0,0,1,320.979,64.4c6.425,3.731,13.058,13.265,13.265,22.591s-11.192,14.3-14.3,9.534,7.047-6.01,4.974-13.886-24.456-15.13-15.959-19.482" transform="translate(-229.318 -46.563)" fill="#9bd94a"/>
        <path id="Trazado_730685" data-name="Trazado 730685" d="M273.733,66.366s-3.264-.155-3.575,2.176,4.9,1.943,5.674.311-2.1-2.487-2.1-2.487" transform="translate(-201.761 -49.565)" fill="#9bd94a"/>
        <path id="Trazado_730686" data-name="Trazado 730686" d="M167.033,236s3.42-8.7,10.259-11.192,14.767-3.109,19.9,2.021,1.866,9.327-1.865,8.549-6.218-5.6-13.057-4.974-14.145,2.642-15.233,5.6" transform="translate(-124.751 -166.506)" fill="#9bd94a"/>
        <path id="Trazado_730687" data-name="Trazado 730687" d="M304.661,261.6s-3.575.933-.777,4.352,10.881,2.643,9.016-1.554-8.238-2.8-8.238-2.8" transform="translate(-226.161 -195.213)" fill="#9bd94a"/>
        <path id="Trazado_730688" data-name="Trazado 730688" d="M362.921,239.625s5.285-9.016,11.814-8.7,10,3.3,8.86,9.016c-.777,3.886-5.907-1.71-10.415-2.176s-10.259,1.865-10.259,1.865" transform="translate(-271.053 -172.46)" fill="#9bd94a"/>
        <path id="Trazado_730689" data-name="Trazado 730689" d="M215.515,126.43s-5.752-5.285-10.415,1.71,1.555-.777,5.285-.777,5.13,1.865,5.13-.933" transform="translate(-151.937 -92.997)" fill="#9bd94a"/>
      </g>
    </g>
  </g>
</svg>
