<svg xmlns="http://www.w3.org/2000/svg" xmlns:xlink="http://www.w3.org/1999/xlink" width="118" height="140.95" viewBox="0 0 118 140.95">
  <defs>
    <clipPath id="clip-path">
      <rect id="Rectángulo_349664" data-name="Rectángulo 349664" width="111.667" height="140.95" fill="none"/>
    </clipPath>
  </defs>
  <g id="Grupo_997389" data-name="Grupo 997389" transform="translate(2190 10979.475)">
    <circle id="Elipse_5893" data-name="Elipse 5893" cx="59" cy="59" r="59" transform="translate(-2190 -10968)" fill="#ffc403"/>
    <g id="Grupo_997233" data-name="Grupo 997233" transform="translate(-2190 -10979.475)">
      <g id="Grupo_997232" data-name="Grupo 997232" clip-path="url(#clip-path)">
        <path id="Trazado_731433" data-name="Trazado 731433" d="M176.553,419.748c-1.155,8.353-2.952,12.613-2.952,12.613,5.114,5.8,3.31,5.059,3.514,5.252s-3.431-2.282-3.431-2.282c-.3,3.574-3.877,3.079-3.877,3.079-2.777-.121-3.129,1.473-3.129,1.473-.638-1.567,1.7-2.821,1.7-2.821-13.126-1.815-12.07.533-12.07.533-1.682-3.519,10.827-2.48,10.827-2.48a11.709,11.709,0,0,0-6.764-1c2.31-2.441,9.711.127,9.711.127,1.831-5.4,2.9-14.395,2.9-14.395Z" transform="translate(-113.157 -304.165)" fill="#ecc362"/>
        <path id="Trazado_731434" data-name="Trazado 731434" d="M229.653,480.9a9.838,9.838,0,0,1-.993-.636,1.433,1.433,0,0,1,.576-.781c1.055,1.581.28,1.287.417,1.417" transform="translate(-165.696 -347.449)" fill="#a6513c"/>
        <path id="Trazado_731435" data-name="Trazado 731435" d="M194.075,489.895a1.457,1.457,0,0,1,.01-1.131,3.314,3.314,0,0,1,.8.138,1.764,1.764,0,0,0-.806.993" transform="translate(-140.555 -354.177)" fill="#a6513c"/>
        <path id="Trazado_731436" data-name="Trazado 731436" d="M156.719,484.555v0" transform="translate(-113.565 -351.127)" fill="#a6513c"/>
        <path id="Trazado_731437" data-name="Trazado 731437" d="M156.313,481.692a1.14,1.14,0,0,1-.031-1.088,1.7,1.7,0,0,1,.705.285c-.844.341-.687.772-.674.8" transform="translate(-113.159 -348.264)" fill="#a6513c"/>
        <path id="Trazado_731438" data-name="Trazado 731438" d="M172.82,470.082s0,.007,0,.011a7.367,7.367,0,0,0-1.338.132,2.833,2.833,0,0,1,.966-.645.612.612,0,0,1,.374.5" transform="translate(-124.261 -340.275)" fill="#a6513c"/>
        <path id="Trazado_731439" data-name="Trazado 731439" d="M234.9,420.574c-.058,9.222,2.278,13.3,2.278,13.3,5.114,5.8,3.31,5.059,3.514,5.252s-3.431-2.282-3.431-2.282c-.3,3.574-3.877,3.079-3.877,3.079-2.777-.121-3.129,1.473-3.129,1.473-.638-1.567,1.7-2.821,1.7-2.821-13.126-1.815-12.07.533-12.07.533-1.682-3.519,10.827-2.479,10.827-2.479a11.708,11.708,0,0,0-6.764-1c2.31-2.441,9.711.127,9.711.127a78.557,78.557,0,0,0-2.914-14.367Z" transform="translate(-159.23 -304.764)" fill="#ecc362"/>
        <path id="Trazado_731440" data-name="Trazado 731440" d="M293.234,484.2a9.794,9.794,0,0,1-.993-.636,1.436,1.436,0,0,1,.576-.781c1.055,1.581.28,1.287.418,1.417" transform="translate(-211.769 -349.842)" fill="#a6513c"/>
        <path id="Trazado_731441" data-name="Trazado 731441" d="M257.657,493.2a1.456,1.456,0,0,1,.01-1.131,3.315,3.315,0,0,1,.8.138,1.764,1.764,0,0,0-.806.993" transform="translate(-186.629 -356.571)" fill="#a6513c"/>
        <path id="Trazado_731442" data-name="Trazado 731442" d="M220.3,487.858v0" transform="translate(-159.639 -353.521)" fill="#a6513c"/>
        <path id="Trazado_731443" data-name="Trazado 731443" d="M219.9,484.995a1.14,1.14,0,0,1-.031-1.088,1.7,1.7,0,0,1,.705.285c-.845.341-.687.772-.675.8" transform="translate(-159.233 -350.658)" fill="#a6513c"/>
        <path id="Trazado_731444" data-name="Trazado 731444" d="M236.4,473.385s0,.007,0,.011a7.367,7.367,0,0,0-1.338.132,2.833,2.833,0,0,1,.966-.645.612.612,0,0,1,.374.5" transform="translate(-170.334 -342.668)" fill="#a6513c"/>
        <path id="Trazado_731445" data-name="Trazado 731445" d="M7.776,340.367a8.673,8.673,0,0,0-1.063-1.607,3.526,3.526,0,0,0-3.592-.645c-1.3,1.336-1.315,3.212-1.247,4.928a3.163,3.163,0,0,1-.154,1.4c-.47,1.095-2.154,1.994-1.613,3.066.311.617,1.215.837,1.815,1.283a2.7,2.7,0,0,1,.951,2.435c-.059.881-.344,1.747-.359,2.63a1.431,1.431,0,0,0,.205.866,2.155,2.155,0,0,0,.858.615,16.372,16.372,0,0,0,5.457,1.511c1.356-2.039.992-4.524.821-6.848-.15-2.022.293-4.129.082-6.12-.191-1.8-1.128-1.9-2.162-3.51" transform="translate(0 -244.843)" fill="#e34927"/>
        <path id="Trazado_731446" data-name="Trazado 731446" d="M41.1,400.417a4.8,4.8,0,0,1,4.648.744c4.381,5.928,7.1,3.006,6.968.6a6.442,6.442,0,0,0-2.453-4.773c-4.242-2.247-8.881,1.943-8.881,1.943Z" transform="translate(-29.78 -287.194)" fill="#e34927"/>
        <path id="Trazado_731447" data-name="Trazado 731447" d="M22.833,113.355c-6.067-5.54-5.8-12.663-2.374-14.773a33.486,33.486,0,0,0,5.534-4.639A19.724,19.724,0,0,1,30.15,90.78,49.6,49.6,0,0,0,43.937,78.27c1.78-5.162,18.092-16.809,28.515-23.84,7.03-4.742,10.647-12.84,16.986-18.473,12.35-10.975,14.645-31.815,14.645-31.815,3.245-9.761,5.619.791,5.619.791,5.8-3.166,5.276,7.65,5.276,7.65,2.1.7,4.893,1.048,3.957,6.067-1.872,10.035,3.35,22.159,3.35,22.159,5.012,13.19.791,23.478.791,23.478-2.374,4.485-1.055,11.871-1.055,11.871C123.6,93.307,105.4,99.9,105.4,99.9c-9.761,4.748-10.816,10.816-10.816,10.816-5.012,12.926-27.435,2.638-27.435,2.638C53.962,115.2,38.4,109.4,38.4,109.4c-7.914-3.429-14.245,4.485-14.245,4.485Z" transform="translate(-13.073 0)" fill="#f08f4a"/>
        <path id="Trazado_731448" data-name="Trazado 731448" d="M30.29,380.854c-1.66-1.4-3.454-5.2-3.832-7.367a2.916,2.916,0,0,1,1-2.881c.718-.658,1.74-1.313,1.728-2.41.331,1.36,1.529,2.265,2.142,3.483a7.472,7.472,0,0,1,.543,4.358,6.082,6.082,0,0,0,2-.913Z" transform="translate(-19.129 -266.809)" fill="#e34927"/>
        <path id="Trazado_731449" data-name="Trazado 731449" d="M33.56,405.628c-.463,2.97,2.68,5.716,2.68,5.716.036-3.8.893-5.316.893-5.316-.2-.472,1.08-2.089,1.08-2.089a8.77,8.77,0,0,0-3.182,1.237,2.165,2.165,0,0,1-1.471.452" transform="translate(-24.285 -292.71)" fill="#ecc362"/>
        <path id="Trazado_731450" data-name="Trazado 731450" d="M35.748,411.365c.117,0,.21.164.208.364s-.1.361-.215.36-.21-.164-.208-.364.1-.361.215-.36" transform="translate(-25.748 -298.091)" fill="#382118"/>
        <path id="Trazado_731451" data-name="Trazado 731451" d="M32.163,381.542c.242.4-.548,1.1-.548,1.1a1.982,1.982,0,0,0,.032,3.158,3.545,3.545,0,0,1,.95,1.4,6.37,6.37,0,0,1,.935-1.547,1.924,1.924,0,0,0-.435-2.916,3.606,3.606,0,0,1-.934-1.192" transform="translate(-22.35 -276.48)" fill="#382118"/>
        <path id="Trazado_731452" data-name="Trazado 731452" d="M33.038,388.768a.932.932,0,1,0,.955-1.026,1,1,0,0,0-.955,1.026" transform="translate(-23.941 -280.972)" fill="#f79854"/>
        <path id="Trazado_731453" data-name="Trazado 731453" d="M35.447,391.926a.4.4,0,1,0,.408-.383.4.4,0,0,0-.408.383" transform="translate(-25.686 -283.727)" fill="#382118"/>
        <path id="Trazado_731454" data-name="Trazado 731454" d="M339.2,41.322a.266.266,0,0,1-.068-.009.262.262,0,0,1-.185-.321c.41-1.523.791-3.052,1.132-4.545,1.421-6.219,2.635-12.848,1.9-19.191a.262.262,0,0,1,.521-.06c.745,6.421-.477,13.1-1.909,19.368-.343,1.5-.725,3.035-1.137,4.565a.262.262,0,0,1-.253.194" transform="translate(-245.604 -12.293)" fill="#382118"/>
        <path id="Trazado_731455" data-name="Trazado 731455" d="M353.1,72.707a.258.258,0,0,1-.088-.015.262.262,0,0,1-.159-.335c.055-.155,5.508-15.648,4.471-27.324a.262.262,0,1,1,.522-.046c1.048,11.792-4.443,27.39-4.5,27.546a.263.263,0,0,1-.247.174" transform="translate(-255.682 -32.426)" fill="#382118"/>
        <path id="Trazado_731456" data-name="Trazado 731456" d="M168.871,245.917a.262.262,0,0,1-.025-.523,64.5,64.5,0,0,0,28.941-10.065,16.034,16.034,0,0,0,3.673-3,18.755,18.755,0,0,0,2.126-3.408c3.772-7.138,8.048-15.228,7.841-23.9a.262.262,0,0,1,.524-.012c.211,8.81-4.1,16.964-7.9,24.158a19.2,19.2,0,0,1-2.189,3.5,16.5,16.5,0,0,1-3.787,3.1A65.026,65.026,0,0,1,168.9,245.916h-.025" transform="translate(-122.18 -148.369)" fill="#382118"/>
        <path id="Trazado_731457" data-name="Trazado 731457" d="M236.366,222.579a.262.262,0,0,1-.111-.5,33.024,33.024,0,0,0,18.414-24.454.262.262,0,1,1,.518.082,33.555,33.555,0,0,1-18.71,24.847.262.262,0,0,1-.111.025" transform="translate(-171.09 -143.047)" fill="#382118"/>
        <path id="Trazado_731458" data-name="Trazado 731458" d="M202.517,214.035a.262.262,0,0,1-.143-.482c3.732-2.426,7.621-4.7,11.56-6.773l.67-.351a35.109,35.109,0,0,0,5.39-3.239,11.2,11.2,0,0,0,4.024-5.5.262.262,0,0,1,.5.143,11.517,11.517,0,0,1-4.207,5.775,35.508,35.508,0,0,1-5.47,3.29l-.669.35c-3.924,2.061-7.8,4.332-11.518,6.749a.262.262,0,0,1-.143.042" transform="translate(-146.562 -143.114)" fill="#382118"/>
        <path id="Trazado_731459" data-name="Trazado 731459" d="M372.264,98.7a.262.262,0,0,1-.246-.352,47.964,47.964,0,0,0,2.359-13.11.262.262,0,0,1,.524.019,48.522,48.522,0,0,1-2.39,13.27.262.262,0,0,1-.246.173" transform="translate(-269.567 -61.582)" fill="#382118"/>
        <path id="Trazado_731460" data-name="Trazado 731460" d="M181.325,381.013a.746.746,0,0,0,.46-.474,2.575,2.575,0,0,0,.148-.663,6.455,6.455,0,0,0,.072-1.368,1.642,1.642,0,0,0-.146-.552,1.226,1.226,0,0,0-.31-.406.648.648,0,0,0-.366-.16,2.153,2.153,0,0,1-.454-.061.855.855,0,0,1-.393-.235.8.8,0,0,1-.211-.485,1.228,1.228,0,0,1,.143-.6,2.129,2.129,0,0,0,.1-.263,1.889,1.889,0,0,0,.073-.564,2.8,2.8,0,0,0-.3-1.188,6.7,6.7,0,0,0-1.886-2.043,5.2,5.2,0,0,1,1.406.555,3.84,3.84,0,0,1,1.186,1.053,3.2,3.2,0,0,1,.593,1.567,2.737,2.737,0,0,1-.064.886,2.982,2.982,0,0,1-.148.425c-.052.1-.054.18-.049.1a.265.265,0,0,0-.07-.156.194.194,0,0,0-.08-.055,2.265,2.265,0,0,0,.27.033,1.629,1.629,0,0,1,.931.462,2.03,2.03,0,0,1,.5.8,2.285,2.285,0,0,1,.109.88,4.872,4.872,0,0,1-.4,1.511,2.536,2.536,0,0,1-.4.687,1.116,1.116,0,0,1-.32.255.647.647,0,0,1-.385.062" transform="translate(-129.168 -269.528)" fill="#c96f4f"/>
        <path id="Trazado_731461" data-name="Trazado 731461" d="M131.63,355.709a.87.87,0,0,0,.592-.339,1.22,1.22,0,0,0,.254-.6,2.962,2.962,0,0,0,.014-.685c-.02-.238-.03-.484-.058-.713a2.047,2.047,0,0,0-.415-1.144c-.056-.064-.142-.136-.241-.232a1.359,1.359,0,0,1-.31-.42.975.975,0,0,1-.045-.643c.045-.179.11-.3.14-.4a3.747,3.747,0,0,0-1.632-4.413l-.525-.286.349-.448a2.9,2.9,0,0,0,.56-1.309,2.952,2.952,0,0,0-.122-1.462,3.128,3.128,0,0,0-.857-1.266,3.452,3.452,0,0,0-1.429-.773,3.03,3.03,0,0,1,1.665.451,3.321,3.321,0,0,1,1.241,1.316,3.52,3.52,0,0,1,.367,1.829,3.557,3.557,0,0,1-.625,1.8l-.175-.734a4.434,4.434,0,0,1,2.044,5.659c-.056.131-.108.223-.127.28s-.019.045-.019.074a.478.478,0,0,0,.109.176c.067.083.161.177.254.307a2.059,2.059,0,0,1,.35.815,3.7,3.7,0,0,1,.051.8c-.01.259-.027.5-.057.751a3.378,3.378,0,0,1-.165.765,1.43,1.43,0,0,1-.463.651.9.9,0,0,1-.726.2" transform="translate(-92.686 -246.789)" fill="#c96f4f"/>
        <path id="Trazado_731462" data-name="Trazado 731462" d="M93.091,324.738a1.99,1.99,0,0,1,1.305.452,2.826,2.826,0,0,1,1.051,2.521,1.98,1.98,0,0,1-.6,1.245,9.779,9.779,0,0,0-.229-1.208,7.935,7.935,0,0,0-.346-1.027,7.739,7.739,0,0,0-.485-.97,9.581,9.581,0,0,0-.7-1.012" transform="translate(-67.457 -235.316)" fill="#c96f4f"/>
        <path id="Trazado_731463" data-name="Trazado 731463" d="M57.889,498.03c0,.291-.473.528-1.055.528s-1.055-.236-1.055-.528.473-.528,1.055-.528,1.055.236,1.055.528" transform="translate(-40.42 -360.509)" fill="#c96f4f"/>
        <path id="Trazado_731464" data-name="Trazado 731464" d="M40.812,504.437c0,.656-.3,1.187-.659,1.187s-.659-.531-.659-1.187.3-1.187.659-1.187.659.531.659,1.187" transform="translate(-28.618 -364.674)" fill="#c96f4f"/>
        <path id="Trazado_731465" data-name="Trazado 731465" d="M15.21,501.3a.8.8,0,1,1-.791-.923.865.865,0,0,1,.791.923" transform="translate(-9.875 -362.592)" fill="#c96f4f"/>
      </g>
    </g>
  </g>
</svg>
