<svg xmlns="http://www.w3.org/2000/svg" xmlns:xlink="http://www.w3.org/1999/xlink" width="118" height="118" viewBox="0 0 118 118">
  <defs>
    <clipPath id="clip-path">
      <rect id="Rectángulo_345263" data-name="Rectángulo 345263" width="77.784" height="86.648" fill="#fff"/>
    </clipPath>
  </defs>
  <g id="Grupo_997446" data-name="Grupo 997446" transform="translate(-23043 9154.374)">
    <circle id="Elipse_5933" data-name="Elipse 5933" cx="59" cy="59" r="59" transform="translate(23043 -9154.374)" fill="#b20d0d"/>
    <g id="Grupo_984694" data-name="Grupo 984694" transform="translate(23063.107 -9138.326)">
      <g id="Grupo_984693" data-name="Grupo 984693" clip-path="url(#clip-path)">
        <path id="Trazado_726005" data-name="Trazado 726005" d="M20.76,32.7a23.963,23.963,0,0,0,3.311,4.609C28.555,42.5,33.8,46.528,40.714,47.9a19.26,19.26,0,0,0,9.208-.174,8.9,8.9,0,0,0,6.531-10.7,5.787,5.787,0,0,0-2.677-3.946c-2.627-1.633-5.331-2.929-8.562-1.615a15.062,15.062,0,0,1-3.115.742,1.557,1.557,0,0,1-1.991-1.344,1.61,1.61,0,0,1,1.285-1.9.585.585,0,0,1,.16-.053c3.917.022,5.094-2.471,5.912-5.821A26.8,26.8,0,0,1,52.908,12.5,17.238,17.238,0,0,1,60.9,6.761c.725-.238,1.077-.53,1.028-1.406A4.723,4.723,0,0,1,64.756.573a5.2,5.2,0,0,1,5.717.659c.678.5,1.372.99,2.094,1.425a5.161,5.161,0,0,1,2.666,5.709c-.158.92-.194,1.478,1.016,1.517a1.5,1.5,0,0,1,1.515,1.841,1.57,1.57,0,0,1-1.926,1.453c-1.469-.238-2.151.174-2.569,1.711-.509,1.873-2.132,2.839-3.955,3.347-.809.225-1.651.331-2.578.51.82,2.664,1.729,5.3,2.436,7.98,1.752,6.652,2.615,13.385,1.323,20.239C68.776,56.082,63.5,62.322,54.908,65.648a33.259,33.259,0,0,0-7.508,4.1Q44.246,72.024,41,74.17c-.769.508-.938.978-.465,1.786.453.775.777,1.624,1.162,2.439,1.665,3.532,1.665,3.533,5.643,3.805.956.066,1.916.092,2.868.187,1.081.107,1.88.646,1.8,1.816s-.907,1.6-2.022,1.539a27.839,27.839,0,0,1-3.036-.188,14.541,14.541,0,0,0-8.273.847c-.3.129-.8.336-.955.206-1.955-1.632-4.034.082-6.069-.26-2.582-.435-2.868-.3-3.455-2.826-.365-1.57-1.016-1.935-2.4-1.239a3.759,3.759,0,0,1-.8.27c-1.033.253-1.974.154-2.338-1.013a1.531,1.531,0,0,1,1.279-2.161c3.106-.322,3.38-2.4,3.975-4.931.739-3.139-1.785-4.351-2.749-6.453-.167-.366-.716-.235-1.1-.287a15,15,0,0,1-12.522-11.3,8.114,8.114,0,0,0-3.2-5.29,8.211,8.211,0,0,1-3.161-6.307,2.13,2.13,0,0,0-.474-1.56c-2.332-2.263-2.7-5.12-2.253-8.134a4.571,4.571,0,0,0-.573-3.059,15.247,15.247,0,0,1-1.7-3.849c-.976-4.093,2.112-7.11,6.149-5.984a33.833,33.833,0,0,1,6.576,3.049c3.638,1.92,7.265,3.865,11.352,4.693.826.168,1.673.233,2.5.381a1.6,1.6,0,0,1,1.505,1.884c-.143,1.06-.908,1.479-1.958,1.43a43.224,43.224,0,0,1-5.55-.96M47.712,65.044c1.75-1.261,3.834-1.662,5.762-2.411,6.989-2.718,11.61-7.583,13.425-14.941a32.665,32.665,0,0,0,.622-11.258A58.814,58.814,0,0,0,62.854,18.7c-1.091-2.479-.435-3.4,2.333-3.426a10.584,10.584,0,0,0,3.183-.313,2.555,2.555,0,0,0,2.015-2.411,2.626,2.626,0,0,0-1.733-2.8A7.242,7.242,0,0,0,65,9.295a13.615,13.615,0,0,0-9.022,4.81c-2.921,3.34-4.532,7.338-5.872,11.5-.489,1.52-.306,2.155,1.4,2.676,3.73,1.141,6.894,3.161,8.042,7.244a12.271,12.271,0,0,1-9.167,15.583,24.322,24.322,0,0,1-16.312-1.835c-8.121-3.706-13.682-10.1-18.1-17.642-.307-.525-.443-1.2-1.053-1.489-3.04-1.466-5.877-3.343-9.064-4.51-.678-.248-1.447-.58-2.042.086a2.138,2.138,0,0,0-.173,2.235,7.319,7.319,0,0,0,6.512,5.541c1.3.159,2.268.612,2,2.082-.25,1.4-1.408,1.484-2.527,1.262-1.257-.251-2.487-.632-3.734-.958C5.261,39.8,6.6,41.53,10.36,41.7c1.012.046,2.029-.01,3.042.036a1.644,1.644,0,0,1,1.8,1.629,1.557,1.557,0,0,1-1.666,1.721c-.787.05-1.582-.018-2.364.063s-1.95-.6-2.3.226c-.4.95.48,1.881,1.108,2.678a3.974,3.974,0,0,0,2.089,1.359,11.441,11.441,0,0,0,6.33.189,1.563,1.563,0,0,1,2.07,1.223,1.532,1.532,0,0,1-1.14,1.969,13.624,13.624,0,0,1-2.475.506c-2.732.349-2.734.334-1.856,3.044,1.295,4,5.2,7.466,8.685,7.614-.266-.825-.5-1.622-.784-2.4a1.622,1.622,0,0,1,.913-2.357c1.112-.433,1.847.132,2.235,1.171.454,1.212.933,2.421,1.286,3.664C28.6,68.5,31.707,70.938,36,72.2a2.414,2.414,0,0,0,2.592-.572A24.152,24.152,0,0,0,45.666,60.7c.346-1.1.92-1.9,2.168-1.552,1.348.374,1.442,1.429,1.057,2.58-.372,1.112-.784,2.211-1.179,3.315m-11.7,19.37c.625-1.1,1.72-1.274,2.74-1.545.937-.25,1.107-.637.63-1.524-.8-1.481-1.48-3.025-2.17-4.562a1.833,1.833,0,0,0-1.3-1.151A33.487,33.487,0,0,1,32.245,74.4c-.681-.272-1.017-.289-1.111.56-.149,1.339-.445,2.663-.552,4a6.741,6.741,0,0,0,.922,3.54c.44.862,1.529.389,2.32.466a2.853,2.853,0,0,1,2.186,1.443m35.8-76.777a1.142,1.142,0,0,0-.127-1.281,13.681,13.681,0,0,0-4.294-2.861,1.558,1.558,0,0,0-2.051,1.255c-.175.607-.072,1.119.776,1.1a8.773,8.773,0,0,1,5.7,1.79" transform="translate(0 0)" fill="#fff"/>
        <path id="Trazado_726006" data-name="Trazado 726006" d="M97.628,88.865c.95.16,1.606.635,1.615,1.646a1.65,1.65,0,0,1-3.3.106c-.031-1.058.659-1.611,1.684-1.751" transform="translate(-63.375 -58.699)" fill="#fff"/>
      </g>
    </g>
  </g>
</svg>
