<svg xmlns="http://www.w3.org/2000/svg" xmlns:xlink="http://www.w3.org/1999/xlink" width="118" height="118" viewBox="0 0 118 118">
  <defs>
    <clipPath id="clip-path">
      <rect id="Rectángulo_345265" data-name="Rectángulo 345265" width="75.825" height="75.844" fill="none"/>
    </clipPath>
  </defs>
  <g id="Grupo_997444" data-name="Grupo 997444" transform="translate(-23398 9638.374)">
    <circle id="Elipse_5931" data-name="Elipse 5931" cx="59" cy="59" r="59" transform="translate(23398 -9638.374)" fill="#06d1d1"/>
    <g id="Grupo_984698" data-name="Grupo 984698" transform="translate(23418.668 -9617.296)">
      <g id="Grupo_984697" data-name="Grupo 984697" clip-path="url(#clip-path)">
        <path id="Trazado_726023" data-name="Trazado 726023" d="M37.914,75.813q-17.926,0-35.852,0C.018,75.812.01,75.806.01,73.8c0-12.1-.024-24.192.007-36.287a37.926,37.926,0,0,1,75.374-5.6,28.542,28.542,0,0,1,.408,4.693c-.017,12.44-.029,24.88.027,37.32.007,1.485-.416,1.925-1.911,1.918-12-.056-24-.031-36-.031m-.031-38.851c10.528,0,21.057-.02,31.585.026,1.256.006,1.546-.351,1.487-1.586C70.223,20.169,57.026,6.325,41.912,4.976c-1.115-.1-1.622.177-1.6,1.407.055,3.787.081,7.576-.012,11.361-.036,1.467.495,1.817,1.873,1.8,5.51-.067,11.02-.03,16.53-.026,2.008,0,2.011.009,2.017,2.073,0,1.328.014,2.656,0,3.984a7,7,0,1,1-14,.146c-.028-1.234-.431-1.6-1.634-1.583-4.624.055-9.249.021-13.873.023-1.972,0-1.972,0-2.1,1.964A7.012,7.012,0,0,1,15.1,25.909c-.044-1.524.066-3.054-.034-4.573-.094-1.426.441-1.863,1.853-1.847,5.657.066,11.315,0,16.973.049,1.227.011,1.629-.393,1.607-1.608-.063-3.343-.021-6.689-.021-10.034,0-3.091,0-3.091-3-2.672C17.81,7.275,5.578,20.657,4.843,35.365c-.069,1.375.338,1.628,1.6,1.623,10.479-.046,20.958-.026,31.437-.026M29.124,56.523c0,4.377.029,8.754-.02,13.13-.013,1.139.336,1.554,1.514,1.541q7.23-.08,14.46,0c1.2.014,1.63-.342,1.624-1.583q-.064-13.056,0-26.112c.006-1.262-.346-1.738-1.666-1.72-4.77.063-9.542.054-14.312.005-1.206-.012-1.639.38-1.623,1.61.056,4.376.022,8.753.022,13.129m-4.848.028c0-4.423-.012-8.847.009-13.27,0-.923-.193-1.491-1.292-1.486q-8.553.04-17.107.005c-.854,0-1.245.3-1.244,1.207q.027,13.491,0,26.981c0,.909.373,1.21,1.239,1.191q2.506-.055,5.014,0c.863.019,1.268-.281,1.247-1.189-.038-1.621-.006-3.244-.019-4.865A2.417,2.417,0,0,0,10.6,62.635c-1.963-.5-1.774-1.857-1.75-3.284.035-2.139.034-2.191,2.181-1.732.909.194,1.143-.089,1.11-.93-.038-.932.013-1.867,0-2.8-.009-.726.346-1.033,1.044-1.153,3.218-.552,3.781-.1,3.788,3.152a5.591,5.591,0,0,1,0,.59c-.1.961.2,1.328,1.253,1.1,1.925-.417,2.027-.291,2.043,1.634,0,.442-.03.887.006,1.326a1.448,1.448,0,0,1-1.268,1.777,2.627,2.627,0,0,0-2.015,2.753c-.014,1.573.035,3.147-.029,4.717-.046,1.135.47,1.447,1.512,1.4a37.189,37.189,0,0,1,4.127.007c1.286.088,1.722-.363,1.7-1.668-.066-4.324-.025-8.649-.026-12.974m27.251-.177c0,4.423.026,8.847-.018,13.269-.011,1.127.329,1.61,1.517,1.548,1.52-.081,3.048-.048,4.57-.011.884.022,1.25-.342,1.235-1.218-.03-1.671,0-3.342-.027-5.012a2.485,2.485,0,0,0-1.84-2.569,1.671,1.671,0,0,1-1.437-2.109,11.941,11.941,0,0,0,.009-1.621c-.045-1.042.424-1.4,1.448-1.252,1.839.274,1.843.25,1.845-1.63,0-3.233.033-3.259,3.316-3.059.1.006.2.012.295.015.831.023,1.259.4,1.229,1.281-.032.933.012,1.867,0,2.8-.009.653.117.979.929.847,2.342-.379,2.349-.34,2.349,2.109,0,.246-.019.493,0,.737a1.489,1.489,0,0,1-1.2,1.837,2.845,2.845,0,0,0-2.074,2.906c-.009,1.573.021,3.146-.015,4.718-.02.88.327,1.241,1.217,1.219,1.573-.039,3.15-.078,4.718.013,1.255.073,1.583-.422,1.577-1.616q-.06-13.048,0-26.1c.007-1.281-.37-1.715-1.673-1.7q-8.111.088-16.222,0c-1.342-.015-1.8.405-1.782,1.768.071,4.275.026,8.551.027,12.827m-29.4-32.222c-.854.179-2.276-.561-2.2,1.357.06,1.529.939,2.59,2.247,2.542C23.433,28,24.206,27,24.286,25.525c.1-1.771-1.158-1.289-2.164-1.374m31.622.009c-2.126,0-2.2.045-2.212,1.316-.017,1.544.885,2.6,2.2,2.575,1.26-.023,2.065-1.033,2.149-2.5.109-1.891-1.264-1.278-2.139-1.4" transform="translate(0 0)"/>
        <path id="Trazado_726024" data-name="Trazado 726024" d="M130.126,182.6c2.466,0,2.466,0,2.466,2.389,0,2.43,0,2.43-2.481,2.43-2.363,0-2.363,0-2.364-2.356,0-2.462,0-2.462,2.379-2.463" transform="translate(-89.923 -128.537)"/>
      </g>
    </g>
  </g>
</svg>
