<svg xmlns="http://www.w3.org/2000/svg" xmlns:xlink="http://www.w3.org/1999/xlink" width="118" height="118" viewBox="0 0 118 118">
  <defs>
    <clipPath id="clip-path">
      <rect id="Rectángulo_345266" data-name="Rectángulo 345266" width="77.782" height="77.833" fill="#fff"/>
    </clipPath>
  </defs>
  <g id="Grupo_997443" data-name="Grupo 997443" transform="translate(-23043 9638.374)">
    <circle id="Elipse_5930" data-name="Elipse 5930" cx="59" cy="59" r="59" transform="translate(23043 -9638.374)" fill="#b20d0d"/>
    <g id="Grupo_984700" data-name="Grupo 984700" transform="translate(23063.107 -9619.285)">
      <g id="Grupo_984699" data-name="Grupo 984699" clip-path="url(#clip-path)">
        <path id="Trazado_726025" data-name="Trazado 726025" d="M36.931,157.279q-16.348,0-32.7,0c-3.719,0-5.15-2.134-3.646-5.512a38.132,38.132,0,0,1,7.758-11.108,4.315,4.315,0,0,0,1.368-3.475c-.1-2.317-.043-4.64-.018-6.961C9.716,128.5,10.247,128,12,128a10.051,10.051,0,0,1,6.642,2.541,1.979,1.979,0,0,0,2.683.208c1.3-.769,2.692-1.374,4.062-2.015a1.787,1.787,0,1,1,1.456,3.234,56.618,56.618,0,0,0-6.282,3.323,1.9,1.9,0,0,1-2.778-.552,8.6,8.6,0,0,0-3.29-2.6c-.932-.43-1.3-.162-1.283.846.026,1.816-.082,3.638.03,5.447a4.829,4.829,0,0,1-1.687,4.135,36.869,36.869,0,0,0-7.316,9.767c-.594,1.113-.45,1.433.869,1.427q14.38-.061,28.76,0c1.239.006,1.726-.375,2.019-1.614a14.8,14.8,0,0,1,14.137-11.365c1.058-.034,2.122-.041,3.177.027,1.137.073,1.978.641,1.949,1.872a1.775,1.775,0,0,1-1.914,1.754c-1.308.075-2.623.021-3.933.072a11.083,11.083,0,0,0-9.782,7.8c-.31,1.1-.043,1.444,1.083,1.441q12.791-.036,25.582.006c1.172,0,1.478-.487,1.414-1.558a30.046,30.046,0,0,0-3.847-13.7c-.153-.261-.312-.519-.465-.78-.837-1.413-.781-2.488.23-3.036,1.4-.758,2.146.161,2.821,1.188a30.039,30.039,0,0,1,4.387,11.825,33.934,33.934,0,0,1,.537,4.5c.033,1.146.535,1.52,1.552,1.8a6.573,6.573,0,0,1-1.741,12.948q-18.089.023-36.178.005c-1.772,0-2.655-.617-2.62-1.786.034-1.13.949-1.73,2.724-1.731q17.483-.009,34.967,0c2.757,0,4.219-1.033,4.233-2.981.015-2.054-1.482-3.18-4.267-3.181q-16.5-.006-33,0" transform="translate(0 -89.136)" fill="#fff"/>
        <path id="Trazado_726026" data-name="Trazado 726026" d="M128.926,39.076c-5.8,0-11.6.015-17.394-.005-4.425-.015-6.762-3.949-4.475-7.749q8.654-14.38,17.5-28.643c2.22-3.584,6.586-3.565,8.793.009q8.818,14.28,17.5,28.644c2.223,3.675-.1,7.714-4.383,7.735-5.848.029-11.7.007-17.545.008m-19.074-5.343c-.035,1.707,1,1.82,2.144,1.819q16.936,0,33.871-.006c2.261,0,2.785-.988,1.59-2.95q-5.468-8.971-10.955-17.931c-2.024-3.31-4.03-6.631-6.081-9.925-.92-1.479-1.922-1.469-2.907-.046-.2.29-.383.592-.567.893Q118.669,19.132,110.4,32.679c-.232.381-.412.794-.545,1.054" transform="translate(-73.929 0)" fill="#fff"/>
        <path id="Trazado_726027" data-name="Trazado 726027" d="M56.377,177.028a3.39,3.39,0,0,1-3.37-3.362,3.394,3.394,0,0,1,6.789.046,3.393,3.393,0,0,1-3.418,3.316" transform="translate(-36.911 -118.586)" fill="#fff"/>
        <path id="Trazado_726028" data-name="Trazado 726028" d="M175.511,40.519c0-2.011.005-4.023,0-6.034,0-1.138.345-2.044,1.64-2.081,1.343-.038,1.863.844,1.868,2.055q.028,6.035,0,12.069c0,1.187-.452,2.18-1.764,2.185s-1.765-.929-1.752-2.16c.021-2.011.006-4.023.006-6.034" transform="translate(-122.213 -22.563)" fill="#fff"/>
        <path id="Trazado_726029" data-name="Trazado 726029" d="M177.241,96.117a1.658,1.658,0,0,1,1.814,1.65,1.609,1.609,0,0,1-1.648,1.78,1.718,1.718,0,0,1-.166-3.431" transform="translate(-122.311 -66.931)" fill="#fff"/>
      </g>
    </g>
  </g>
</svg>
