<svg xmlns="http://www.w3.org/2000/svg" xmlns:xlink="http://www.w3.org/1999/xlink" width="118" height="118" viewBox="0 0 118 118">
  <defs>
    <clipPath id="clip-path">
      <rect id="Rectángulo_349680" data-name="Rectángulo 349680" width="105.667" height="101.778" fill="none"/>
    </clipPath>
  </defs>
  <g id="Grupo_997401" data-name="Grupo 997401" transform="translate(2184 9504)">
    <circle id="Elipse_5903" data-name="Elipse 5903" cx="59" cy="59" r="59" transform="translate(-2184 -9504)" fill="#ffc403"/>
    <g id="Grupo_997271" data-name="Grupo 997271" transform="translate(-2175.424 -9487.778)">
      <g id="Grupo_997270" data-name="Grupo 997270" clip-path="url(#clip-path)">
        <path id="Trazado_731651" data-name="Trazado 731651" d="M48.449,80.95H3.637c-.55,0-1.1,0-1.651-.005C.916,80.928,0,80.61,0,79.363s.881-1.585,1.971-1.584q3.408,0,6.815-.005c.463,0,.926-.045,1.426-.071-.06-.74-.648-.948-1-1.317a15.045,15.045,0,0,1-4.42-10.781C4.8,61,4.774,56.387,4.8,51.778c.005-1.1-.061-1.842-1.421-2.273a4.6,4.6,0,0,1-2.9-5.328c.444-2.526,2.1-4.161,4.659-4.051,1.969.084,2.188-.65,2.164-2.362a24.953,24.953,0,0,1,5.239-15.948,12.637,12.637,0,0,1,7.149-4.953,1.741,1.741,0,0,0,1.5-1.607,29.054,29.054,0,0,1,1.061-3.547,1.263,1.263,0,0,1,1.754-.938,1.445,1.445,0,0,1,1.194,1.663,1.165,1.165,0,0,1-.048.407c-1.761,3.13.083,4.215,2.631,5.6,3.843,2.084,5.765,5.956,7.419,9.918.7-.6.8-1.452,1.16-2.16,2.08-4.08,4.67-7.647,9.263-9.172.772-.256.9-.612.714-1.366-.979-3.869-2.533-7.431-5.54-10.169C37.582,2.555,34.251,2.368,30.669,4.8c-.113.077-.219.166-.327.251-.877.689-1.8.877-2.5-.141s-.085-1.761.747-2.432a10.509,10.509,0,0,1,12.153-.889,17.261,17.261,0,0,1,6.421,7.363c.461.908.871,1.841,1.313,2.779.677-.44.735-1.186,1.021-1.789a20.927,20.927,0,0,1,4.735-6.693c4.8-4.363,10.645-4.329,15.36.119a22.638,22.638,0,0,1,6.35,11.807c.2.89.476,1.437,1.464,1.671,3.552.84,6.046,3.166,8.032,6.08a26.05,26.05,0,0,1,4.492,15.385c-.019,1.324.277,1.789,1.678,1.793,2.852.007,4.5,1.324,4.978,3.663.555,2.736-.484,4.743-3.2,5.887-.7.295-1,.622-.943,1.337a2.326,2.326,0,0,1,0,.413c-.264,2.8-.4,5.387,3.382,6.1,1.431.271,2.585,1.562,3.558,2.729a25.282,25.282,0,0,1,5.484,23.133c-.251,1.064-.54,2.376-2.049,2.023-1.6-.374-1.25-1.562-.952-2.808a22.265,22.265,0,0,0-3.734-18.99c-4.244-5.852-10.074-5.806-14.513-.062a23.112,23.112,0,0,0-4.266,10.595,1.846,1.846,0,0,0,.737,1.948A13.313,13.313,0,0,1,85.04,87.938,2.135,2.135,0,0,0,86.7,90.513a11.81,11.81,0,0,0,8.47-.072c1.028-.4,2.069-.779,2.62.54.593,1.42-.456,1.976-1.553,2.382a14.794,14.794,0,0,1-10.881-.078c-.921-.364-1.412-.413-1.959.569-2.707,4.865-7.156,7.111-12.458,7.74A25.932,25.932,0,0,1,55.931,98.87C47.78,94.746,45.6,89.618,48.449,80.95m27.783-7.367c.2-.859.35-1.665.563-2.456,1.546-5.728,3.865-11.153,9.527-13.77,2.6-1.2,3.312-2.509,2.96-4.973a2.16,2.16,0,0,1,0-.618c.215-1.431-.362-1.869-1.82-1.866q-38.925.061-77.85,0c-1.505,0-1.826.525-1.8,1.908.077,4.4.013,8.806.033,13.208.032,7.54,5.189,12.678,12.74,12.689,8.81.012,17.622-.066,26.431.043a14.254,14.254,0,0,0,7.908-2.031,24.838,24.838,0,0,1,21.31-2.133m-8.594,1.665A24.179,24.179,0,0,0,56.614,78.2a16.023,16.023,0,0,0-4.1,3.1c-3.428,3.662-3.408,7.724.043,11.362C57.6,97.983,68,100.237,74.8,97.485a11.232,11.232,0,0,0,.133-20.966,18.4,18.4,0,0,0-7.291-1.271M22,40.06c3.368,0,6.736-.027,10.1.016,1.068.014,1.681-.215,1.68-1.45C33.773,32.809,32.376,27.444,28.459,23c-4.021-4.558-8.89-4.523-12.9.085-3.836,4.4-5.226,9.7-5.247,15.444,0,1.145.425,1.565,1.584,1.546,3.367-.055,6.735-.019,10.1-.019m52.913,0c3.433,0,6.868-.039,10.3.022,1.149.02,1.574-.355,1.593-1.512a22.5,22.5,0,0,0-5.012-15.3c-4.012-4.831-9.293-4.839-13.314-.015a22.475,22.475,0,0,0-5.025,15.3c.018,1.136.4,1.556,1.569,1.532,3.295-.066,6.592-.023,9.889-.023m-26.44,0c3.433,0,6.867-.024,10.3.014,1,.011,1.5-.227,1.512-1.359.085-5.753-1.285-11.052-5.1-15.465-3.947-4.571-9.415-4.514-13.309.1-3.662,4.338-4.984,9.52-5.016,15.1-.007,1.213.463,1.665,1.721,1.635,3.294-.078,6.592-.026,9.888-.027m0,3.04H7c-.55,0-1.1-.026-1.65.018-1.192.094-2,.724-1.942,1.948a1.743,1.743,0,0,0,1.947,1.706q.619.006,1.238.007,41.989,0,83.978,0a12.27,12.27,0,0,0,1.648-.044,1.8,1.8,0,0,0,.19-3.513,9.289,9.289,0,0,0-2.049-.116q-20.943-.008-41.886,0M61.687,28.128c.535-.089.572-.468.71-.769,2.1-4.618,4.774-8.7,9.941-10.383.711-.232.746-.684.589-1.286-1.009-3.853-2.573-7.416-5.58-10.153-3.651-3.323-7.612-3.252-11.2.175a20.58,20.58,0,0,0-5.28,9.647c-.282.991-.011,1.443,1.021,1.784a13.648,13.648,0,0,1,6.436,4.965,30.6,30.6,0,0,1,3.362,6.021" transform="translate(-0.001 0)"/>
        <path id="Trazado_731652" data-name="Trazado 731652" d="M180.882,198.781c.056.983-.135,1.857-1.285,1.986-1.225.137-1.675-.605-1.767-1.741a4.827,4.827,0,0,0-2.656-4.124c-1-.528-1.444-1.34-.822-2.368.661-1.093,1.6-.8,2.5-.261a7.672,7.672,0,0,1,4.029,6.508" transform="translate(-101.975 -112.359)"/>
        <path id="Trazado_731653" data-name="Trazado 731653" d="M125.859,64.6c0,1.037-.3,1.552-.97,1.763a1.348,1.348,0,0,1-1.8-.567,21.587,21.587,0,0,0-3.254-5.218,1.266,1.266,0,0,1,.262-1.843,1.224,1.224,0,0,1,1.673-.289,13.5,13.5,0,0,1,4.086,6.154" transform="translate(-70.03 -34.104)"/>
        <path id="Trazado_731654" data-name="Trazado 731654" d="M153.272,18.2a1.765,1.765,0,0,1,1.385.753,15.643,15.643,0,0,1,3.183,5.192,1.483,1.483,0,0,1-.863,2.166,1.436,1.436,0,0,1-1.969-.958,16.1,16.1,0,0,0-2.9-4.657A1.29,1.29,0,0,1,151.945,19a1.531,1.531,0,0,1,1.327-.807" transform="translate(-88.872 -10.659)"/>
      </g>
    </g>
  </g>
</svg>
