<svg id="Grupo_984535" data-name="Grupo 984535" xmlns="http://www.w3.org/2000/svg" xmlns:xlink="http://www.w3.org/1999/xlink" width="132" height="132" viewBox="0 0 132 132">
  <defs>
    <clipPath id="clip-path">
      <rect id="Rectángulo_345161" data-name="Rectángulo 345161" width="132" height="132" fill="none"/>
    </clipPath>
  </defs>
  <g id="Grupo_984534" data-name="Grupo 984534" clip-path="url(#clip-path)">
    <path id="Trazado_725734" data-name="Trazado 725734" d="M132,66A66,66,0,1,1,66,0a66,66,0,0,1,66,66" fill="#0a88a5"/>
    <path id="Trazado_725735" data-name="Trazado 725735" d="M63,5.25A57.749,57.749,0,1,0,120.75,63,57.748,57.748,0,0,0,63,5.25M95.016,91.36A3.112,3.112,0,0,1,91.8,94.388a3.165,3.165,0,0,1-2.866-3.4l1.571-28.933a3.1,3.1,0,0,1,3.215-3.023,3.158,3.158,0,0,1,2.863,3.4c.091,0,.179.027.267.036a36.934,36.934,0,0,0-9.573-20.4c-1.318.093-3.7-1.043-6.048-3.014a18.734,18.734,0,0,1-2.788-2.858,12.445,12.445,0,0,1-6.015-1.278,16.177,16.177,0,0,1-4.221-2.593A14.583,14.583,0,0,1,63,33.166a14.555,14.555,0,0,1-5.2-.842,16.17,16.17,0,0,1-4.227,2.593,12.43,12.43,0,0,1-6.009,1.278,18.675,18.675,0,0,1-2.789,2.858c-2.352,1.974-4.735,3.107-6.053,3.012a36.944,36.944,0,0,0-9.573,20.4c.091-.008.179-.03.272-.036a3.155,3.155,0,0,1,2.866-3.4,3.1,3.1,0,0,1,3.21,3.023l1.575,28.933a3.167,3.167,0,0,1-2.866,3.4,3.11,3.11,0,0,1-3.214-3.028c-5.036.3-9.466-5.926-9.9-13.912a19.865,19.865,0,0,1,1.856-9.875v-.049C22.938,44.181,40.907,25.19,63,25.19s40.064,18.991,40.064,42.334v.053a19.923,19.923,0,0,1,1.857,9.87c-.437,7.986-4.868,14.21-9.9,13.912" transform="translate(3 3)" fill="#f5f5f5"/>
  </g>
</svg>
