<svg id="Grupo_984555" data-name="Grupo 984555" xmlns="http://www.w3.org/2000/svg" xmlns:xlink="http://www.w3.org/1999/xlink" width="132" height="132" viewBox="0 0 132 132">
  <defs>
    <clipPath id="clip-path">
      <rect id="Rectángulo_345171" data-name="Rectángulo 345171" width="132" height="132" fill="none"/>
    </clipPath>
  </defs>
  <g id="Grupo_984554" data-name="Grupo 984554" clip-path="url(#clip-path)">
    <path id="Trazado_725744" data-name="Trazado 725744" d="M132,66A66,66,0,1,1,66,0a66,66,0,0,1,66,66" fill="#0a88a5"/>
    <path id="Trazado_725745" data-name="Trazado 725745" d="M63,5.25A57.75,57.75,0,1,0,120.75,63,57.75,57.75,0,0,0,63,5.25M53.647,25.6H84.818l0,3.635H61.436v6.759H54.021l-.187-2.09c-.107-1.136-.187-3-.187-4.145ZM38.758,94.168H33.9a5.083,5.083,0,0,1-2.6-.517,3.663,3.663,0,0,1-.519-2.081c0-.849.234-1.554.519-1.554s.288-.467,0-1.04a8.843,8.843,0,0,1-.515-3.116,5.105,5.105,0,0,1,1.034-3.116,9.232,9.232,0,0,1,3.014-1.7l2.291-.762a31.825,31.825,0,0,1,4.02-1l8.368-1.4a7.568,7.568,0,0,0,3.518-1.812l3.3-3.3a4.813,4.813,0,0,0,1.207-3.534l-1.559-12.5c-.146-1.135-.346-2.992-.445-4.133L54.305,39.1h7.236c.03.462.058.9.094,1.273l.212,2.363,1.49,16.355c.105,1.161.31,3.056.454,4.213l1.564,12.507a2.39,2.39,0,0,1-.471,1.367L61.59,80.474a5.176,5.176,0,0,1-2.1,1.086l-8.374,1.394A34.847,34.847,0,0,0,46.7,84.046l-2.294.765a11.746,11.746,0,0,0-4.026,2.327,7.6,7.6,0,0,0-1.8,4.953,13.855,13.855,0,0,0,.176,2.076M93.314,58.855c-.1,1.135-.341,2.989-.528,4.12l-1.4,8.366a30.477,30.477,0,0,0-.343,4.131,15.421,15.421,0,0,0,.657,4.042l.765,2.293a15.332,15.332,0,0,1,.657,4.053v7.271a5.587,5.587,0,0,1-.519,2.079c-.288.577-.288,1.037,0,1.037s.519.706.519,1.562a6.6,6.6,0,0,1-.258,2.076c-.145.288-1.2.519-2.34.519H80.66c-1.144,0-2.079-.47-2.079-1.039s-.935-1.037-2.074-1.037H74.426a5.111,5.111,0,0,0-3.116,1.037,5.066,5.066,0,0,1-3.118,1.039H44.3a5.032,5.032,0,0,1-2.594-.519,3.639,3.639,0,0,1-.523-2.076c0-.856.237-1.562.523-1.562s.288-.46,0-1.037a8.789,8.789,0,0,1-.523-3.118,5.062,5.062,0,0,1,1.042-3.116,9.2,9.2,0,0,1,3.009-1.7l2.291-.767a33.1,33.1,0,0,1,4.023-.992l8.369-1.4a7.634,7.634,0,0,0,3.518-1.812l3.294-3.292a4.822,4.822,0,0,0,1.212-3.533l-1.567-12.5c-.14-1.135-.336-3-.445-4.13L64.7,45.339H94.545Zm1.892-22.866c0,1.142-.088,3.008-.187,4.147l-.187,2.085H64.417l-.193-2.085c-.1-1.139-.19-3-.19-4.147l0-4.158H95.206Z" transform="translate(3 3)" fill="#f5f5f5"/>
  </g>
</svg>
