<svg xmlns="http://www.w3.org/2000/svg" xmlns:xlink="http://www.w3.org/1999/xlink" width="118" height="118" viewBox="0 0 118 118">
  <defs>
    <clipPath id="clip-path">
      <rect id="Rectángulo_349676" data-name="Rectángulo 349676" width="104.667" height="98.491" fill="none"/>
    </clipPath>
  </defs>
  <g id="Grupo_997397" data-name="Grupo 997397" transform="translate(1482 10396)">
    <circle id="Elipse_5899" data-name="Elipse 5899" cx="59" cy="59" r="59" transform="translate(-1482 -10396)" fill="#06d1d1"/>
    <g id="Grupo_997263" data-name="Grupo 997263" transform="translate(-1475.333 -10386.246)">
      <g id="Grupo_997262" data-name="Grupo 997262" clip-path="url(#clip-path)">
        <path id="Trazado_731639" data-name="Trazado 731639" d="M61.528,57.836a20.227,20.227,0,0,1,5.418-4.067c4.432-2.057,8.192-1.224,11.221,2.612.612.775,1,.824,1.8.331A12.518,12.518,0,0,1,85.1,54.824,2.881,2.881,0,0,0,86.813,53.8a24.8,24.8,0,0,0,6.775-13.027c.356-1.821-.206-2.405-2.061-2.356-4.291.115-8.586.045-12.879.049-.477,0-.955.013-1.43-.017-1-.063-1.766-.488-1.739-1.59s.788-1.514,1.8-1.514c5.316,0,10.633-.077,15.946.045,2.483.057,3.894,2.133,3.541,4.735A27.2,27.2,0,0,1,90.9,53.844c-.336.415-.648.849-1.014,1.329,5.427,3.155,5.863,8.218,5.249,13.586-.139,1.215.127,1.67,1.181,2.091a14.827,14.827,0,0,1,6.615,4.964c2.9,3.936,2.123,8.427-1.969,11.164a14.894,14.894,0,0,1-10.378,2.154,3.05,3.05,0,0,0-2.7.907A31.051,31.051,0,0,1,66.929,98.4c-5.11.084-10.222.03-15.333.036-1.061,0-2.214-.025-2.265-1.433-.055-1.532,1.108-1.587,2.278-1.616,6.33-.159,12.681.465,18.989-.373a27.638,27.638,0,0,0,14.748-6.83c-2.076-1.159-3.885-2.294-6.35-1.419a10.1,10.1,0,0,1-5.461.4,31.967,31.967,0,0,0-11.684,0,15.917,15.917,0,0,1-8.019-1.133,4.305,4.305,0,0,0-3.154.03,20.475,20.475,0,0,1-12.261.471,6.468,6.468,0,0,0-3.424.058,17.1,17.1,0,0,1-9.294.161c-2.566-.765-4.429.333-6.61,1.479a28.787,28.787,0,0,0,18.4,7.148c2.315.078,4.634.019,6.95.028a1.492,1.492,0,0,1,1.668,1.436,1.407,1.407,0,0,1-1.52,1.557c-7.763.308-15.41.011-22.352-4.153-2.29-1.374-4.189-3.341-6.428-4.649s-5.186.1-7.731-.782c-.064-.022-.133-.03-.2-.048C4.24,87.754.955,86.155.157,82.068c-.79-4.047,1.492-6.86,4.509-9.179a3.3,3.3,0,0,1,1.009-.683c3.539-.939,4.269-3.243,3.667-6.61a10.239,10.239,0,0,1,1.211-6.131c.757-1.579,1.74-3.251,3.38-3.653,3.049-.748,2.495-2.474,2.119-4.72a48.272,48.272,0,0,1,1.156-21.446,2.465,2.465,0,0,0-.594-2.721,24.229,24.229,0,0,1-3.269-4.68c-1.556-2.732-.829-4.854,2.112-6.028a29.405,29.405,0,0,1,9-1.673,5.785,5.785,0,0,0,5.064-3.467A20.994,20.994,0,0,1,39.2,1.186,9.95,9.95,0,0,1,45.336.126c2.118.367,3.724,1.479,4.115,3.686.2,1.126.72,1.257,1.639,1.228a9.834,9.834,0,0,1,5.292,1.283c1.223.7,2.344,1.659,2.418,3.1a2.753,2.753,0,0,0,1.915,2.8c2.227.988,2.891,3.222,1.929,5.532A8.44,8.44,0,0,1,56.771,22.7c-.7.2-1.558.232-1.128,1.4,1.2,3.252,2.014,6.639,3.508,9.79A2.216,2.216,0,0,0,61.5,35.37c2.86-.09,5.724-.017,8.586-.033,1.132-.006,2.173.247,2.178,1.564,0,1.334-1.078,1.562-2.185,1.568-3.816.021-7.64-.107-11.445.1A11.593,11.593,0,0,0,47.779,51.391c.147,1.422.482,1.786,2,1.349,4.008-1.152,7.352.242,10.131,3.194.554.589,1.05,1.232,1.616,1.9m31.13,28.276a12.039,12.039,0,0,0,6.136-1.384c2.993-1.64,3.6-4.437,1.582-7.2a9.333,9.333,0,0,0-2.351-2.251,17.176,17.176,0,0,0-12.607-2.933,7.235,7.235,0,0,1-4-.308,18.1,18.1,0,0,0-11.619-.61,7.208,7.208,0,0,1-3.816.064,18.507,18.507,0,0,0-11.443.39,6.313,6.313,0,0,1-4.565-.047,17.792,17.792,0,0,0-10.85-.464,9.109,9.109,0,0,1-4.612-.008,17.763,17.763,0,0,0-11.032.577,8.3,8.3,0,0,1-4.394.393,16.691,16.691,0,0,0-13.21,3.555c-1.751,1.4-3.17,3.118-2.668,5.59s2.522,3.478,4.662,4.068a16.346,16.346,0,0,0,12.1-1.242,7.331,7.331,0,0,1,5.485-.712,18.3,18.3,0,0,0,9.491-.13,6.209,6.209,0,0,1,3.414-.1,19.056,19.056,0,0,0,11.845-.346,5.924,5.924,0,0,1,4.185,0,18.57,18.57,0,0,0,11.639.414,6.208,6.208,0,0,1,3.411-.013,18.789,18.789,0,0,0,10.089.114,6.025,6.025,0,0,1,4.708.594,16.8,16.8,0,0,0,8.417,2M18.371,42.994a54.6,54.6,0,0,0,.609,7.519c.3,2.753,1.08,4.978,4.25,5.446a2.612,2.612,0,0,1,1.08.558c.987.739,1.59.683,2.389-.461a7.588,7.588,0,0,1,7.846-3.228,14.261,14.261,0,0,1,7.589,4.109c.319.294.514.863,1.1.725.7-.165,2.191-2.91,1.978-3.671a13.06,13.06,0,0,1-.468-5.846,14.493,14.493,0,0,1,10.322-12c1.165-.39,1.415-.692.92-1.921-1.189-2.958-2.171-6-3.2-9.021a31.686,31.686,0,0,0-3.917-8.48,9.823,9.823,0,0,0-8.7-4.41c-7.8.194-13.148,4.241-16.9,10.717-3.57,6.161-4.842,12.928-4.9,19.968M61.431,66.52c-.689-4.061-2.124-7.74-5.754-10.112-2.569-1.678-5.45-1.347-7.877.838a14.761,14.761,0,0,0-4.551,8.89c-.192,1.142.112,1.368,1.27,1.6,4.993,1,9.943,1.63,14.919-.028a2.813,2.813,0,0,1,1.015-.046c.827.046,1.111-.342.979-1.143m-34.464-.985c-.309,1.518.287,2.447,2.518,2.171a16.228,16.228,0,0,1,5.85.694,3.764,3.764,0,0,0,2.591.08c.7-.315,2.058-.088,2.011-.952-.137-2.565,2.167-4.995.847-7.388a9.2,9.2,0,0,0-5.7-4.049,5.062,5.062,0,0,0-6.313,2.365,13.394,13.394,0,0,0-1.8,7.079m47.268,2.127c3.483.013,3.488.013,3.374-2.9a12.748,12.748,0,0,0-.174-1.622c-.513-3.032-1.242-6.063-4.6-7.107-3.281-1.02-5.7.932-8.032,2.919-1.351,1.15-1.841,2.338-1.019,4.053a6.015,6.015,0,0,1,.664,2.96c-.179,2.012,1.055,2.291,2.526,2.615a4.538,4.538,0,0,0,2.2-.173,23.632,23.632,0,0,1,5.065-.749M33.58,10.1c1.049-.206,1.572-.3,2.093-.412,8.324-1.729,13.692.806,17.5,8.265,1.126,2.208,1.892,2.465,4.068,1.245a7.345,7.345,0,0,0,1.754-1.372c1.562-1.675,1.348-2.62-.814-3.36-1.527-.523-2.678-1.493-2.432-3.071.332-2.135-.941-2.621-2.438-3.017a13.324,13.324,0,0,0-3.643-.313,2.79,2.79,0,0,1-3.094-2.591c-.312-1.949-1.206-2.716-3.153-2.386-4.207.714-7.071,3.36-9.836,7.012M88.194,69.069a10.5,10.5,0,0,1,1.831.148c1.633.418,2.14-.36,2.255-1.838a13.393,13.393,0,0,0-.674-5.833,5.281,5.281,0,0,0-6.634-3.619,13.217,13.217,0,0,0-3.92,1.686,1.455,1.455,0,0,0-.8,1.848,14.694,14.694,0,0,1,.291,5.48c-.127,1.2.372,1.577,1.394,2.029,2.118.936,4.181-.183,6.253.1M12.259,65.9l.071,0c0,.406-.01.813,0,1.22.046,1.566.472,2.529,2.414,2.093a18.046,18.046,0,0,1,5.67.15c2.585.247,3.665-.8,3.605-3.305a16.4,16.4,0,0,1,.355-4.65,1.224,1.224,0,0,0-.49-1.579c-2.353-1.455-4.8-2.718-7.641-1.738-2.773.956-3.418,3.447-3.856,5.983a17.6,17.6,0,0,0-.13,1.824m6.579-41.266a48.647,48.647,0,0,1,4.1-6.893,25.57,25.57,0,0,0-6.362,1.34c-.685.275-1.212.626-.657,1.5a19.7,19.7,0,0,0,2.919,4.054" transform="translate(0 0)"/>
        <path id="Trazado_731640" data-name="Trazado 731640" d="M79.5,49.221c.017,1.011-.094,2.011-1.345,2.145-1.212.13-1.7-.609-1.676-1.759a1.324,1.324,0,0,0-1.109-1.485c-.7-.127-1.124.32-1.4.931-.457,1-1.187,1.583-2.259.969-1.187-.681-.822-1.735-.353-2.681a4.361,4.361,0,0,1,4.822-2.228A4.251,4.251,0,0,1,79.5,49.221" transform="translate(-41.827 -26.552)"/>
      </g>
    </g>
  </g>
</svg>
