<svg xmlns="http://www.w3.org/2000/svg" xmlns:xlink="http://www.w3.org/1999/xlink" width="118" height="118" viewBox="0 0 118 118">
  <defs>
    <clipPath id="clip-path">
      <rect id="Rectángulo_345278" data-name="Rectángulo 345278" width="91.982" height="91.987" fill="#fff"/>
    </clipPath>
  </defs>
  <g id="Grupo_997436" data-name="Grupo 997436" transform="translate(-20069 9255.746)">
    <circle id="Elipse_5925" data-name="Elipse 5925" cx="59" cy="59" r="59" transform="translate(20069 -9255.746)" fill="#b20d0d"/>
    <g id="Grupo_984726" data-name="Grupo 984726" transform="translate(20082.008 -9248.054)">
      <g id="Grupo_984725" data-name="Grupo 984725" clip-path="url(#clip-path)">
        <path id="Trazado_726101" data-name="Trazado 726101" d="M16.379,38.7c.948-.328,1.525-.942,2.326-.965a2.89,2.89,0,0,1,2.2,4.932c-1.773,1.763-3.611,3.46-5.422,5.185l.215.562c2.1,0,4.2.1,6.3-.021,4.607-.267,5.912,1.327,4.782,6.181-1.514,6.511-8.04,11.194-14.394,10.409C5.345,64.115-.028,58.43,0,51.889c.009-2.307,1.03-3.407,3.367-3.455,2.665-.055,5.332-.013,8-.013l.253-.452c-1.773-1.727-3.551-3.448-5.314-5.185a2.873,2.873,0,0,1-.714-3.29,2.775,2.775,0,0,1,2.5-1.763c.933-.091,1.643.557,2.637,1.041,0-2.029-.008-3.86,0-5.69,0-.729-.514-1-1.026-1.328-3.711-2.4-5.139-5.841-4.017-9.608,1.111-3.727,4.276-5.962,8.592-5.978,7.106-.026,14.213-.043,21.318.019,1.511.013,2.119-.379,2.126-2,.009-2.272,1.064-3.365,3.307-3.345,1.775.015,2.115-.751,2.036-2.269-.09-1.727-.052-3.464-.006-5.195C43.117,1.242,44.2.018,45.955,0s2.9,1.2,2.958,3.315Q49,6.18,48.919,9.049c-.031,1.163.3,1.714,1.6,1.768,2.822.116,3.687.934,3.746,3.667.033,1.575.828,1.694,2.047,1.69q10.749-.039,21.5,0a8.486,8.486,0,0,1,8.244,5.23c1.533,3.844.127,7.883-3.564,10.238-1.072.684-1.824,4.671-1.047,5.635.444.55,1.1.354,1.675.388,2.3.135,3.5,1.168,3.472,3-.029,1.754-1.217,2.852-3.4,2.852-1.428,0-2.158.388-1.96,1.925a4.36,4.36,0,0,1-.917,2.977c2.71,0,5.128-.009,7.547,0,3.319.014,4.3,1.052,4.1,4.332-.394,6.673-6.83,12.423-13.756,12.291-7.072-.135-13.251-6.111-13.339-12.9-.034-2.63.974-3.68,3.654-3.714,2.558-.032,5.116-.007,7.933-.007A5.472,5.472,0,0,1,75.6,45c.106-1.1-.44-1.521-1.487-1.457a5.728,5.728,0,0,1-1.073-.037,2.871,2.871,0,0,1-2.791-2.924c.009-1.586,1.079-2.622,2.827-2.914.879-.147,2.457.571,2.423-.968-.038-1.719,1.127-3.788-1.2-5.134a7.775,7.775,0,0,1-4.026-7.987c.114-1.181-.192-1.577-1.411-1.56-4.3.061-8.6.053-12.9.008-1.24-.013-1.64.458-1.689,1.681-.11,2.744-.936,3.564-3.745,3.679-1.288.052-1.619.583-1.612,1.756q.049,8.779,0,17.558c-.007,1.189.357,1.687,1.629,1.74,2.878.12,3.746,1.1,3.753,4.053.018,6.987.045,13.976-.022,20.962-.015,1.586.384,2.179,2.1,2.179,7.5,0,12.78,4.621,13.933,12,.457,2.926-.7,4.343-3.625,4.344q-20.691.013-41.383,0c-2.923,0-4.086-1.416-3.631-4.34,1.149-7.374,6.435-12,13.928-12,1.706,0,2.118-.581,2.1-2.174-.068-6.927-.037-13.855-.024-20.783.005-3.192.741-4.021,3.93-4.247,1.092-.077,1.45-.514,1.446-1.547q-.031-8.958,0-17.916c0-1.011-.308-1.49-1.42-1.571-3.158-.231-3.741-.81-3.939-3.864-.069-1.05-.421-1.5-1.5-1.5-4.419.026-8.838.032-13.257-.009-1.042-.009-1.337.346-1.238,1.37a8.1,8.1,0,0,1-4.477,8.453,1.6,1.6,0,0,0-.852,1.62c.024,1.668.008,3.336.008,5.225M45.992,86.35c5.492,0,10.984.006,16.477-.012.437,0,1.04.257,1.275-.317.17-.417-.236-.77-.458-1.112a8.075,8.075,0,0,0-7.182-3.65q-10.118-.083-20.237,0a8.06,8.06,0,0,0-6.973,3.362c-.3.427-.853.871-.645,1.4.246.622.953.311,1.446.313,5.433.022,10.865.014,16.3.014M48.42,65.106c0-2.926-.072-5.853.029-8.775.054-1.566-.473-2.234-2.048-2.037a8.531,8.531,0,0,1-1.432.011c-.971-.043-1.415.385-1.412,1.377q.022,9.314,0,18.627c0,.9.39,1.324,1.3,1.288a13.094,13.094,0,0,1,1.79.009c1.3.131,1.822-.381,1.791-1.725-.069-2.924-.021-5.85-.02-8.776m-34.781-10.8c-2.02,0-4.04.011-6.06,0-1-.008-1.167.417-.65,1.192a7.588,7.588,0,0,0,6.727,3.656A7.58,7.58,0,0,0,20.2,55.48c.532-.8.292-1.186-.676-1.178-1.96.016-3.921.005-5.881.005m64.811,0c-1.96,0-3.921.016-5.881-.007-1-.012-1.386.3-.755,1.238a7.838,7.838,0,0,0,13.174.054c.555-.8.5-1.306-.658-1.291-1.96.024-3.92.006-5.881.006M43.557,19.067c0,2.47,0,2.47,2.439,2.469,2.417,0,2.417,0,2.424-2.307.009-2.552.009-2.552-2.35-2.557-2.511-.005-2.511-.005-2.513,2.4m-27.54,5.456a2.46,2.46,0,1,0-2.458,2.353,2.452,2.452,0,0,0,2.458-2.353m64.861-.084A2.463,2.463,0,1,0,78.5,26.873a2.459,2.459,0,0,0,2.374-2.434" transform="translate(0 0)" fill="#fff"/>
      </g>
    </g>
  </g>
</svg>
