<svg xmlns="http://www.w3.org/2000/svg" xmlns:xlink="http://www.w3.org/1999/xlink" width="118" height="118" viewBox="0 0 118 118">
  <defs>
    <clipPath id="clip-path">
      <rect id="Rectángulo_345273" data-name="Rectángulo 345273" width="78.128" height="78.066" fill="none"/>
    </clipPath>
  </defs>
  <g id="Grupo_997431" data-name="Grupo 997431" transform="translate(-1096 -2020.254)">
    <circle id="Elipse_5920" data-name="Elipse 5920" cx="59" cy="59" r="59" transform="translate(1096 2020.254)" fill="#06d1d1"/>
    <g id="Grupo_984716" data-name="Grupo 984716" transform="translate(1115.936 2040.221)">
      <g id="Grupo_984715" data-name="Grupo 984715" clip-path="url(#clip-path)">
        <path id="Trazado_726061" data-name="Trazado 726061" d="M41.536,0q12.235,0,24.471,0c4.751.007,7.516,2.785,7.519,7.559q.014,20.522-.016,41.044a4.785,4.785,0,0,0,1.071,3.185,16.222,16.222,0,0,1-10.15,26.138,15.68,15.68,0,0,1-2.576.125q-22.5.011-44.991,0c-4.575,0-7.534-2.823-7.618-7.419-.027-1.456-.554-1.759-1.88-1.776C3.041,68.81.034,65.842.048,61.791a6.93,6.93,0,0,1,7.263-6.965c1.6,0,2.02-.566,1.918-2.042a33.563,33.563,0,0,1,0-4.709c.108-1.5-.353-2.022-1.934-2.027A6.96,6.96,0,0,1,.051,39.371a7.036,7.036,0,0,1,7.027-7.388c2.122-.1,2.123-.1,2.126-2.226q0-2.2,0-4.408c0-1.995-.007-1.995-1.98-2.066a7.2,7.2,0,0,1-6.811-4.7A7.027,7.027,0,0,1,7,9.2C9.22,9.121,9.163,9.148,9.23,7.035A6.98,6.98,0,0,1,16.456.012C24.816-.011,33.176.005,41.536,0m8.716,73.06c-.438-.574-.81-1.05-1.171-1.536A16.247,16.247,0,0,1,48.9,52.481a16.029,16.029,0,0,1,18.187-5.937c1.652.546,1.656.546,1.656-1.278q0-18.318,0-36.635c0-3.184-.654-3.845-3.807-3.845q-23.559,0-47.118,0a12.592,12.592,0,0,0-1.367.029c-1.093.12-2.1.576-2.155,1.757-.06,1.251-.7,2.642.913,3.661,4.726,2.99,4.7,8.965-.006,12.017a1.8,1.8,0,0,0-1.019,1.685c.036,2.482.029,4.966,0,7.448a1.7,1.7,0,0,0,.929,1.58c4.8,3.163,4.832,9,.056,12.109a1.808,1.808,0,0,0-.988,1.7q.05,3.648,0,7.3a1.813,1.813,0,0,0,.96,1.719c4.791,3.129,4.78,8.964.008,12.12-.424.28-.827.5-.945,1.093-.578,2.917.49,4.28,3.431,4.281q15.579.006,31.159,0a2.272,2.272,0,0,0,1.449-.213m11.73-22.4a11.3,11.3,0,0,0-11.226,11.2A11.263,11.263,0,1,0,73.28,61.79a11.287,11.287,0,0,0-11.3-11.13M9.434,14.194c-.86,0-1.723-.05-2.578.012a1.9,1.9,0,0,0-1.922,1.965A1.894,1.894,0,0,0,6.89,18.25a48.127,48.127,0,0,0,5-.013,1.843,1.843,0,0,0,1.829-2.025,1.89,1.89,0,0,0-1.863-2,22.8,22.8,0,0,0-2.425-.015M9.46,37c-.86,0-1.724-.053-2.578.013A1.917,1.917,0,0,0,4.935,39.1a1.879,1.879,0,0,0,1.93,1.953c1.666.064,3.341.087,5-.008a1.849,1.849,0,0,0,1.855-2,1.886,1.886,0,0,0-1.838-2.025A22.081,22.081,0,0,0,9.46,37m-.1,26.87v.015c.809,0,1.624.059,2.426-.014a1.905,1.905,0,0,0,1.937-2.086,1.854,1.854,0,0,0-1.9-1.96c-1.665-.078-3.339-.072-5,.007a1.87,1.87,0,0,0-1.883,1.994A1.891,1.891,0,0,0,6.781,63.85c.852.082,1.717.016,2.577.016" transform="translate(0 0)"/>
        <path id="Trazado_726062" data-name="Trazado 726062" d="M75.451,49.127a2.591,2.591,0,0,1,1.724.637c.384.327.737.691,1.095,1.047,2.465,2.458,2.464,2.458,4.975-.054,1.465-1.465,2.919-2.941,4.4-4.391,1.388-1.36,2.777-1.516,3.879-.48,1.142,1.074,1.015,2.56-.4,3.985q-4.053,4.094-8.146,8.148c-1.6,1.584-2.864,1.6-4.439.054s-3.161-3.128-4.7-4.732a2.315,2.315,0,0,1-.5-2.79,2.464,2.464,0,0,1,2.108-1.426" transform="translate(-50.789 -31.423)"/>
        <path id="Trazado_726063" data-name="Trazado 726063" d="M92.3,107.5a3.2,3.2,0,0,1-.986,2.036c-2.861,2.856-5.7,5.737-8.586,8.565-1.333,1.306-2.645,1.287-4-.012q-2.405-2.309-4.715-4.718c-1.18-1.23-1.223-2.6-.215-3.641,1.046-1.079,2.445-1.015,3.753.211.774.725,1.538,1.466,2.25,2.251.668.736,1.2.684,1.881-.012,2.046-2.1,4.129-4.161,6.217-6.218a2.5,2.5,0,0,1,3.039-.628A2.446,2.446,0,0,1,92.3,107.5" transform="translate(-50.797 -73.016)"/>
        <path id="Trazado_726064" data-name="Trazado 726064" d="M80.748,178.85a3.222,3.222,0,0,1-2.117-1.052c-1.494-1.508-3.016-2.987-4.494-4.511-1.271-1.309-1.368-2.675-.335-3.752,1.072-1.118,2.479-1.011,3.865.295.074.069.143.143.216.213,2.9,2.832,2.9,2.832,5.725,0,1.394-1.393,2.77-2.8,4.188-4.173,1.3-1.255,2.711-1.352,3.768-.325s1.014,2.49-.239,3.765c-2.834,2.883-5.71,5.724-8.567,8.584a3.09,3.09,0,0,1-2.009.952" transform="translate(-50.804 -114.57)"/>
        <path id="Trazado_726065" data-name="Trazado 726065" d="M159.822,64.946c-2.075,0-4.151.029-6.225-.009-1.822-.034-2.862-.945-2.89-2.43-.03-1.552,1.035-2.523,2.934-2.538q6.3-.046,12.6,0c1.821.014,2.862.944,2.89,2.429.03,1.552-1.035,2.507-2.934,2.539-2.125.036-4.251.008-6.377.008" transform="translate(-104.742 -41.664)"/>
        <path id="Trazado_726066" data-name="Trazado 726066" d="M159.919,124.769c-2.075,0-4.151.024-6.225-.007-1.923-.029-2.987-.945-2.986-2.489s1.066-2.471,2.99-2.484q6.225-.04,12.451,0c1.923.012,2.987.943,2.986,2.488s-1.066,2.456-2.99,2.485c-2.075.031-4.15.007-6.225.007" transform="translate(-104.743 -83.24)"/>
        <path id="Trazado_726067" data-name="Trazado 726067" d="M195.514,184.411c0-.76-.041-1.523.009-2.279a2.419,2.419,0,0,1,2.325-2.354,2.274,2.274,0,0,1,2.37,2.265c-.117,1.8.509,2.373,2.292,2.333a2.26,2.26,0,0,1,2.313,2.483,2.338,2.338,0,0,1-2.306,2.366,34.274,34.274,0,0,1-4.706,0,2.357,2.357,0,0,1-2.3-2.53c-.033-.759-.006-1.52-.006-2.28h.007" transform="translate(-135.872 -124.947)"/>
      </g>
    </g>
  </g>
</svg>
