<svg xmlns="http://www.w3.org/2000/svg" xmlns:xlink="http://www.w3.org/1999/xlink" width="118" height="118" viewBox="0 0 118 118">
  <defs>
    <clipPath id="clip-path">
      <rect id="Rectángulo_349590" data-name="Rectángulo 349590" width="81.091" height="77.923" fill="#fff"/>
    </clipPath>
  </defs>
  <g id="Grupo_997426" data-name="Grupo 997426" transform="translate(-17033 10481.746)">
    <circle id="Elipse_5916" data-name="Elipse 5916" cx="59" cy="59" r="59" transform="translate(17033 -10481.746)" fill="#b20d0d"/>
    <g id="Grupo_997110" data-name="Grupo 997110" transform="translate(17051.453 -10467.811)">
      <g id="Grupo_997109" data-name="Grupo 997109" clip-path="url(#clip-path)">
        <path id="Trazado_730564" data-name="Trazado 730564" d="M40.453,153.468q-18.541,0-37.081,0c-2.882,0-3.365-.5-3.368-3.411,0-.631-.014-1.263.018-1.894a2.065,2.065,0,0,1,2.088-2.126c.208-.022.42-.014.63-.018,3.444-.074,3.906-.427,5.058-3.61.279-.77.025-.947-.67-.927-.525.015-1.052.015-1.578-.008a3.657,3.657,0,0,1-3.182-5.53c1.769-3.167,3.7-6.246,5.573-9.353.471-.781,1.1-1.389,2.055-.75.907.608.688,1.434.216,2.224-1.645,2.755-3.306,5.5-4.94,8.261-1.109,1.874-.8,2.44,1.341,2.442q13.018.013,26.036,0c2.059,0,2.392-.593,1.339-2.355Q27.51,125.576,21.01,114.755c-1.107-1.843-1.705-1.826-2.835.045q-2.242,3.716-4.467,7.441c-.487.814-1.067,1.6-2.122,1.014-1.144-.635-.75-1.556-.221-2.435,1.6-2.658,3.159-5.344,4.795-7.98,1.842-2.968,5.03-3.024,6.836-.054q6.926,11.393,13.712,22.872c1.756,2.975.03,5.776-3.457,5.822-.368,0-.736.013-1.1,0-.886-.021-.985.4-.623,1.089a.859.859,0,0,1,.068.142c.778,2.517,2.25,3.6,5.094,3.378,4.021-.309,4.038-.078,4.038-4.147,0-4.209-.006-8.418,0-12.627.005-2.4.65-3.15,3.1-3.079,1.663.048,2.193-.6,2.318-2.164.234-2.931.619-5.851.987-8.769a2.408,2.408,0,0,1,2.715-2.438q1.735-.042,3.471,0a2.412,2.412,0,0,1,2.7,2.451c.361,2.866.673,5.739,1,8.61.042.365.05.737.127,1.095.125.582.294,1.14,1.073,1.126s.96-.595,1.034-1.169c.277-2.136.506-4.278.751-6.417.126-1.1.22-2.2.378-3.288a2.428,2.428,0,0,1,2.745-2.408c1.1-.025,2.209-.022,3.314,0,1.81.033,2.617.718,2.836,2.485.361,2.919.738,5.839.985,8.77.123,1.465.583,2.151,2.2,2.116,2.62-.057,3.2.64,3.211,3.286.005,2.157,0,4.314,0,6.471,0,.981,0,2.073-1.35,2.035-1.294-.037-1.338-1.127-1.347-2.1-.018-1.788-.046-3.578,0-5.366.03-1.09-.409-1.491-1.487-1.488q-13.333.034-26.666,0c-1.006,0-1.409.393-1.4,1.406.026,4.735.015,9.47.008,14.205,0,.771.131,1.358,1.111,1.314.94-.042.913-.683.914-1.333,0-2.052-.011-4.1.008-6.156.019-1.982.665-2.79,2.583-2.8q10.177-.08,20.354,0c1.852.016,2.507.821,2.532,2.692.025,1.894-.032,3.789.028,5.681.023.73-.467,1.876.946,1.9,1.518.021.946-1.2,1.051-1.976.077-.57,0-1.163.089-1.729a1.31,1.31,0,0,1,1.386-1.245c.824.032,1.154.6,1.23,1.372.105,1.092-.423,2.4.257,3.228.728.884,2.089.223,3.155.407.052.009.1.011.156.021,1.6.316,1.931,1.289,1.819,4.921-.044,1.428-.631,2.306-2.1,2.457a15.471,15.471,0,0,1-1.577.027H40.453m.071-4.736H5.2c-.42,0-.841.013-1.261,0-.727-.019-1.231.171-1.215,1.045.017.91.611.978,1.29.97.263,0,.526,0,.789,0H76.236c.316,0,.631-.01.946,0,.663.011,1.118-.182,1.136-.964.02-.872-.482-1.068-1.211-1.049-.42.011-.841,0-1.262,0H40.524m17.545-2.718c2.888,0,5.775-.029,8.663.015,1.049.016,1.557-.3,1.514-1.431-.059-1.573-.04-3.151-.009-4.726.018-.942-.4-1.318-1.322-1.316q-8.742.022-17.483,0c-.967,0-1.286.468-1.269,1.367.028,1.522.057,3.048-.011,4.568-.053,1.178.422,1.563,1.57,1.539,2.781-.057,5.565-.019,8.347-.019M51.616,126.2c2.837,0,2.937-.086,2.654-2.4-.286-2.339-.663-4.669-.852-7.015-.114-1.416-1.028-1.174-1.894-1.205-.939-.034-1.728-.053-1.812,1.3-.131,2.087-.425,4.167-.73,6.239-.449,3.051-.444,3.088,2.635,3.087m13.256,0c2.839,0,2.939-.086,2.656-2.4-.285-2.339-.663-4.669-.852-7.015-.114-1.415-1.024-1.178-1.892-1.207-.937-.032-1.73-.058-1.815,1.295-.131,2.087-.425,4.167-.73,6.239-.449,3.053-.444,3.09,2.632,3.089M19.7,146.013c1.466,0,2.932-.015,4.4.006.783.011,1.025-.177.691-1.011-1.409-3.518-1.386-3.528-5.227-3.527-.733,0-1.467.032-2.2,0a1.522,1.522,0,0,0-1.624.959c-.4.855-.841,1.687-1.272,2.525-.386.75-.135,1.06.677,1.053,1.518-.013,3.037,0,4.555,0m-9.6-.015c.592.043.918-.348,1.17-.841.405-.794.836-1.577,1.2-2.389.167-.373.71-.875.039-1.193a1.058,1.058,0,0,0-1.47.522q-.792,1.539-1.574,3.083c-.329.652-.026.86.635.819m19.683-.763c-.676-1.019-.994-2.515-2.051-3.582a1.126,1.126,0,0,0-1.2-.074c-.244.1-.2.361-.1.548.591,1.169,1.169,2.346,1.811,3.488.269.479.8.43,1.278.335.231-.046.344-.217.266-.714" transform="translate(0 -75.551)" fill="#fff"/>
        <path id="Trazado_730565" data-name="Trazado 730565" d="M48.474,4.8c.937.327,1.839-.115,2.8-.8a5.76,5.76,0,0,1,5.85-.619,5.077,5.077,0,0,0,2.834.03c2.95-.322,5.634-1.675,8.444-2.124C70.719.912,73.065.705,75.385.139a5.794,5.794,0,0,1,4.78,1.14,2.128,2.128,0,0,0,2.188.3,6.811,6.811,0,0,1,6.825,1.159,2.751,2.751,0,0,0,2.451.615,7.065,7.065,0,0,1,7.8,4.019,4.225,4.225,0,0,0,1.877,1.99,7.212,7.212,0,0,1,.141,12.583,4.569,4.569,0,0,0-2.005,2.073,6.682,6.682,0,0,1-5.463,4.031A2.968,2.968,0,0,0,91.2,30.156a10.333,10.333,0,0,1-.92,1.83c-.861,1.418-2.067,1.421-2.943.05-.386-.6-.461-1.554-1.266-1.711a22.445,22.445,0,0,0-3.44-.276c-.2-.008-.466.235-.621.427a7.633,7.633,0,0,1-4,2.668,2,2,0,0,0-1.024.927c-1.007,1.388-2.16,1.422-2.9-.056-.621-1.233-1.247-1.229-2.343-.674a6.523,6.523,0,0,1-5.652.147,2.7,2.7,0,0,0-2.124-.144,1.852,1.852,0,0,1-1.076.185c-2.572-.8-5.1.043-7.641.1a5.7,5.7,0,0,1-5.408-4.725c-.34-1.514-.9-2.219-2.592-2.241a5.951,5.951,0,0,1-5.161-3.147,3.075,3.075,0,0,0-2.117-1.626,6.47,6.47,0,0,1,.294-12.608,2.2,2.2,0,0,0,1.684-1.175A6.3,6.3,0,0,1,48.474,4.8m27.371,14a7.3,7.3,0,0,1,7.574,6.82c.126,1.679.759,2.086,2.236,1.887a2.7,2.7,0,0,1,2.24.528c.713.635,1.121.509,1.5-.346a3.819,3.819,0,0,1,3.649-2.3,4.23,4.23,0,0,0,4.228-3.356,2.808,2.808,0,0,1,1.943-2.045,4.347,4.347,0,0,0,3.085-4.294A4.395,4.395,0,0,0,99.189,11.4a2.759,2.759,0,0,1-1.883-1.909c-.975-3.014-3.224-4.142-6.27-3.128a2.267,2.267,0,0,1-2.783-.722,4.437,4.437,0,0,0-5.821-1.116,2.421,2.421,0,0,1-3.122-.41,4.206,4.206,0,0,0-5.741-.452,2.8,2.8,0,0,1-2.8.442A4.035,4.035,0,0,0,66.063,5.3a2,2,0,0,1-2.4.616,3.521,3.521,0,0,0-3.709.536,2.155,2.155,0,0,1-2.86-.011c-1.947-1.294-3.572-1.1-5.21.624a2.35,2.35,0,0,1-2.795.7,3.634,3.634,0,0,0-5.035,2.391,2.426,2.426,0,0,1-2.461,1.769,3.707,3.707,0,1,0-.032,7.415,2.407,2.407,0,0,1,2.511,1.928,3.294,3.294,0,0,0,1.7,2.166c.955.493,1.55.7,1.663-.843A6.041,6.041,0,0,1,54.5,16.724a2.109,2.109,0,0,0,1.826-.621,5.977,5.977,0,0,1,7.39-1.033,1.971,1.971,0,0,0,2.036,0c3.509-1.742,6.82-.646,8.613,2.847.363.707.707,1.154,1.481.871m-21.855.674a3.257,3.257,0,0,0-3.492,1.9,3.151,3.151,0,0,0,.656,3.771,3.4,3.4,0,0,1,1.189,2.115c.305,3.352,2.736,4.588,5.674,2.925a2.046,2.046,0,0,1,2.351-.034,3.709,3.709,0,0,0,3.618.288,2.4,2.4,0,0,1,2.38.157,4.276,4.276,0,0,0,5.156-.265,2.035,2.035,0,0,1,2.737-.06,2.84,2.84,0,0,0,3.169.221c2.335-.922,3.67-2.969,3.195-5.13a4.384,4.384,0,0,0-5.205-3.664c-2.537.268-2.537.268-3.413-2.234a3.3,3.3,0,0,0-5.552-1.493c-1.224,1.1-2.162,1.128-3.391.013a3.252,3.252,0,0,0-5.185.559c-.852,1.293-1.729,1.718-3.137,1.049a1.786,1.786,0,0,0-.751-.119" transform="translate(-23.976 0)" fill="#fff"/>
        <path id="Trazado_730566" data-name="Trazado 730566" d="M156.618,174.806c3.208,0,6.417-.006,9.625.005a10.145,10.145,0,0,1,1.725.125,1.268,1.268,0,0,1,1.179,1.27,1.255,1.255,0,0,1-1.107,1.329,7.373,7.373,0,0,1-1.563.148c-6.68.009-13.359.02-20.039-.008-1.11,0-2.656.208-2.612-1.47.043-1.652,1.591-1.372,2.693-1.384,3.366-.04,6.732-.015,10.1-.015" transform="translate(-98.261 -119.421)" fill="#fff"/>
        <path id="Trazado_730567" data-name="Trazado 730567" d="M57.822,140.857q0-2.436,0-4.873c0-.877.276-1.635,1.272-1.644.963-.009,1.381.723,1.389,1.587q.046,5.029,0,10.058a1.327,1.327,0,0,1-1.309,1.486c-.979.007-1.338-.692-1.344-1.586-.01-1.677,0-3.353-.006-5.03" transform="translate(-39.503 -91.78)" fill="#fff"/>
        <path id="Trazado_730568" data-name="Trazado 730568" d="M58.311,185.951a1.593,1.593,0,0,1-1.663-1.691,1.676,1.676,0,0,1,3.352.033,1.59,1.59,0,0,1-1.69,1.658" transform="translate(-38.702 -124.77)" fill="#fff"/>
        <path id="Trazado_730569" data-name="Trazado 730569" d="M166.742,206.424q3.071,0,6.141,0c.869,0,1.624.233,1.638,1.267.014.995-.7,1.394-1.564,1.4q-6.377.042-12.754,0c-.865-.006-1.576-.41-1.56-1.4.017-1.035.775-1.261,1.642-1.262q3.228,0,6.456,0" transform="translate(-108.384 -141.027)" fill="#fff"/>
      </g>
    </g>
  </g>
</svg>
