<svg xmlns="http://www.w3.org/2000/svg" xmlns:xlink="http://www.w3.org/1999/xlink" width="118" height="118" viewBox="0 0 118 118">
  <defs>
    <clipPath id="clip-path">
      <rect id="Rectángulo_345271" data-name="Rectángulo 345271" width="93.723" height="93.676" fill="none"/>
    </clipPath>
  </defs>
  <g id="Grupo_997429" data-name="Grupo 997429" transform="translate(-394 -2020.254)">
    <circle id="Elipse_5918" data-name="Elipse 5918" cx="59" cy="59" r="59" transform="translate(394 2020.254)" fill="#ffc403"/>
    <g id="Grupo_984712" data-name="Grupo 984712" transform="translate(406.139 2032.788)">
      <g id="Grupo_984711" data-name="Grupo 984711" clip-path="url(#clip-path)">
        <path id="Trazado_726043" data-name="Trazado 726043" d="M76.2,95.323c-2.667,0-5.334.034-8-.018-.975-.019-1.486.215-1.348,1.288a10.85,10.85,0,0,1,.009,1.364c0,3.872.394,4.174,4.275,3.63.757-.106.9-.619,1.236-1.057a4.663,4.663,0,1,1,5.35,7.011,4.44,4.44,0,0,1-5.294-1.813,2.039,2.039,0,0,0-2.038-1.059c-1.427.077-2.863-.026-4.291.032-1.625.065-2.416-.577-2.381-2.275.055-2.665.039-5.332,0-8-.018-1.408.484-2.313,2.009-2.217,1.038.065,1.106-.458,1.14-1.285.2-4.778.214-4.827,4.9-4.946,1.2-.031,1.373-.491,1.343-1.506-.159-5.4-.018-4.747,4.914-4.77,2.8-.013,5.595.038,8.391-.017,1.668-.033,2.311.688,2.327,2.339.041,3.921.125,4.257,3.924,3.835,4.712-.524,7.9.707,9.149,5.57.4,1.574,1.982,1.589,3.161,1.885,1.916.481,2.69,1.466,2.52,3.46a52.132,52.132,0,0,0-.024,5.653c.037,1.542-.6,2.329-2.189,2.262-.649-.028-1.3.036-1.951-.012a3.338,3.338,0,0,0-3.408,1.487,4.308,4.308,0,0,1-7.029-.238,2.736,2.736,0,0,0-2.726-1.256c-1.428.062-2.862,0-4.292.013a1.651,1.651,0,0,1-1.712-1.038,1.4,1.4,0,0,1,.675-1.838c1.479-.856.664-2.226.707-3.328.122-3.159.043-3.162-3.109-3.162H76.2m12.526-.061c0,1.43-.07,2.864.031,4.287.047.667-.562,1.835.565,1.925,1.08.086,2.322.637,3.3-.774,2.121-3.054,5.692-3.1,7.754-.091,1.013,1.479,2.312.994,3.443.844.983-.13.373-1.294.5-1.987.082-.439-.039-.915.025-1.36.179-1.237-.336-1.78-1.528-2.221-1.914-.708-3.84-.526-5.774-.557-5.131-.08-5.373.782-5.2-4.891a1.694,1.694,0,0,1,0-.195c.177-1.2-.59-1.231-1.436-1.164-.765.061-1.771-.351-1.7,1.116.083,1.686.019,3.379.018,5.068m-7.815-3.07c1.1,0,2.212-.071,3.308.02,1.144.094,1.433-.367,1.4-1.442-.072-2.2-.087-4.413,0-6.614.05-1.208-.482-1.386-1.5-1.345-.956.038-1.76-.087-1.689,1.359.064,1.3.588,3.3-1.616,3.233-2.007-.065-1.424-1.969-1.444-3.231-.015-.954-.213-1.313-1.278-1.387-1.579-.109-2.065.455-1.886,1.951a23.178,23.178,0,0,1,.019,2.722c0,4.735,0,4.735,4.68,4.735m-9.15-3.087c-1.108-.145-2-.118-1.8,1.4.114.875-.2,1.892,1.308,1.7.906-.115,2.056.308,1.846-1.351-.116-.921.3-2.143-1.356-1.752m26.88,3.086-1.228-2.519c-.468-.959-1.423-.742-2.011-.494-.852.36-.308,1.346-.419,2.052-.121.77.3,1,1.016.969.766-.037,1.535-.008,2.642-.008M77.786,102.964a1.53,1.53,0,0,0-1.547-1.354,1.424,1.424,0,0,0-1.519,1.605,1.4,1.4,0,0,0,1.507,1.424c.989-.009,1.475-.637,1.559-1.675m20.3.113c-.144-.882-.623-1.464-1.514-1.466a1.418,1.418,0,0,0-1.547,1.575,1.4,1.4,0,0,0,1.479,1.452c.991.011,1.484-.613,1.582-1.561" transform="translate(-38.762 -48.476)"/>
        <path id="Trazado_726044" data-name="Trazado 726044" d="M100.876,112.332a27.068,27.068,0,0,1-9.721-1.771c-1.107-.419-2.713-.719-2.1-2.418s1.969-.935,3.133-.515A24.806,24.806,0,0,0,124.9,90.958c2.75-10.154-.139-18.831-7.969-25.855-.338-.3-.718-.56-1.049-.87a1.492,1.492,0,0,1-.295-2.1,1.47,1.47,0,0,1,2.232-.283A21.388,21.388,0,0,1,122.6,66.4c7.082,9.207,8.484,19.218,3.672,29.824a27.748,27.748,0,0,1-25.4,16.1" transform="translate(-54.092 -37.392)"/>
        <path id="Trazado_726045" data-name="Trazado 726045" d="M47.834,77.493c.036-21.08,19.495-34.648,37.7-27.995.427.156.849.328,1.259.523.843.4,1.434,1,1.054,2a1.548,1.548,0,0,1-2.257.853A29.139,29.139,0,0,0,79.4,51.207,24.952,24.952,0,0,0,59.77,94.936c1,.832,2.725,1.656,1.365,3.191-1.314,1.484-2.48-.057-3.443-.9-6.5-5.659-9.7-12.861-9.859-19.738" transform="translate(-29.098 -29.075)"/>
        <path id="Trazado_726046" data-name="Trazado 726046" d="M26.993,29.182c0,1.2.031,1.828-.007,2.455a1.489,1.489,0,0,1-1.591,1.6,1.421,1.421,0,0,1-1.484-1.491c-.049-2.077-.061-4.156,0-6.233.031-1.1.763-1.586,1.827-1.589,1.754-.006,3.509.01,5.262-.011,1.148-.014,2.207.219,2.187,1.593s-1.1,1.582-2.236,1.542c-.387-.013-.775,0-1.159,0-.239.747.39.947.7,1.265,2.644,2.683,5.315,5.341,7.983,8,.778.775,1.536,1.616.539,2.656-1.092,1.138-1.97.317-2.792-.511-2.925-2.947-5.858-5.886-9.228-9.271" transform="translate(-14.52 -14.544)"/>
        <path id="Trazado_726047" data-name="Trazado 726047" d="M185.8,27.027a26.134,26.134,0,0,1-2.728-.018,1.437,1.437,0,0,1-1.366-1.6,1.372,1.372,0,0,1,1.347-1.416c2.207-.061,4.422-.087,6.626.018.992.048,1.354.881,1.352,1.835q-.006,2.73,0,5.46c0,1.124-.414,1.986-1.651,1.937-1.116-.044-1.493-.879-1.477-1.916.008-.514,0-1.028,0-2.065l-5.6,5.6c-1.288,1.286-2.581,2.568-3.863,3.86-.764.77-1.6,1.246-2.523.331s-.459-1.75.318-2.52c3.041-3.011,6.073-6.032,9.564-9.5" transform="translate(-106.705 -14.562)"/>
        <path id="Trazado_726048" data-name="Trazado 726048" d="M27.013,185.738l8.114-8.161q.481-.484.965-.964c.842-.832,1.736-1.909,2.921-.653s.008,2.1-.8,2.921c-2.425,2.444-4.869,4.869-7.3,7.307-.443.445-.861.917-1.341,1.431.77.465,1.491.17,2.162.276a1.515,1.515,0,0,1,1.479,1.519,1.4,1.4,0,0,1-1.419,1.545c-2.141.064-4.288.071-6.428,0-1-.034-1.46-.761-1.466-1.733-.012-1.948-.016-3.9,0-5.845a1.49,1.49,0,0,1,1.5-1.685c1.119-.022,1.589.723,1.609,1.78.011.566,0,1.131,0,2.265" transform="translate(-14.532 -106.691)"/>
        <path id="Trazado_726049" data-name="Trazado 726049" d="M185.467,187.594l-8.146-8.1c-.414-.412-.83-.823-1.235-1.245a1.553,1.553,0,1,1,2.182-2.184c2.121,2.1,4.242,4.209,6.342,6.334.956.968,1.863,1.987,2.9,3.094.635-.8.362-1.516.43-2.154.1-.976.574-1.631,1.58-1.618a1.485,1.485,0,0,1,1.53,1.656c.026,1.948.022,3.9.006,5.844a1.638,1.638,0,0,1-1.823,1.808c-1.884.016-3.768.008-5.651.005-1.05,0-1.828-.441-1.831-1.558s.776-1.529,1.825-1.573a2.94,2.94,0,0,0,1.9-.309" transform="translate(-106.735 -106.722)"/>
        <path id="Trazado_726050" data-name="Trazado 726050" d="M5.851,108.352a38.967,38.967,0,0,1,5.189.052c1.571.213,4.42-1.206,4.366,1.557-.052,2.656-2.87,1.255-4.463,1.47a39.884,39.884,0,0,1-5.18.05c.19.926.919,1.3,1.4,1.842.7.785.944,1.586.119,2.387a1.457,1.457,0,0,1-2.239-.123c-1.482-1.454-2.942-2.93-4.408-4.4a1.6,1.6,0,0,1,.005-2.544c1.467-1.469,2.923-2.95,4.411-4.4a1.442,1.442,0,0,1,2.237-.054,1.433,1.433,0,0,1-.076,2.232,18.63,18.63,0,0,1-1.679,1.333l.317.6" transform="translate(-0.004 -63.073)"/>
        <path id="Trazado_726051" data-name="Trazado 726051" d="M209.652,108.319c-.909-.986-1.515-1.574-2.036-2.229a1.346,1.346,0,0,1,.152-1.93,1.3,1.3,0,0,1,1.92-.179q2.61,2.475,5.082,5.091a1.334,1.334,0,0,1-.208,1.932q-2.243,2.3-4.538,4.547a1.46,1.46,0,0,1-2.24.129c-.825-.8-.615-1.618.122-2.379.483-.5.954-1.009,1.749-1.853-2.822,0-5.248-.01-7.673,0-1.154.007-2.422-.007-2.452-1.512-.033-1.659,1.32-1.629,2.531-1.624,2.382.009,4.764,0,7.592,0" transform="translate(-121.378 -63.04)"/>
        <path id="Trazado_726052" data-name="Trazado 726052" d="M111.464,5.416c0,2.875-.01,5.274,0,7.673.007,1.157-.008,2.428-1.516,2.455-1.663.029-1.625-1.33-1.62-2.541.009-2.381,0-4.763,0-7.531-.886.808-1.468,1.377-2.091,1.9a1.4,1.4,0,0,1-2.092-.084,1.378,1.378,0,0,1-.026-2.09Q106.424,2.8,108.807.5a1.476,1.476,0,0,1,2.257.054c1.49,1.453,2.953,2.932,4.418,4.41a1.491,1.491,0,0,1,.1,2.381,1.48,1.48,0,0,1-2.245-.157c-.508-.479-1.016-.961-1.871-1.77" transform="translate(-63.058 0)"/>
        <path id="Trazado_726053" data-name="Trazado 726053" d="M111.479,209.681c.9-.849,1.438-1.39,2.01-1.892a1.533,1.533,0,1,1,2.142,2.193c-1.487,1.546-3.01,3.059-4.547,4.556a1.543,1.543,0,0,1-2.406-.058c-1.431-1.419-2.851-2.85-4.278-4.274-.734-.732-1.051-1.542-.238-2.382s1.653-.606,2.374.161c.445.473.81,1.02,1.21,1.534l.6-.215c0-2.2-.036-4.41.014-6.613.029-1.28-.479-3.155,1.592-3.107,2.036.047,1.473,1.923,1.508,3.193.058,2.139.016,4.28.016,6.9" transform="translate(-63.073 -121.411)"/>
        <path id="Trazado_726054" data-name="Trazado 726054" d="M219.917.047a4.693,4.693,0,0,1,4.748,4.641,4.672,4.672,0,0,1-9.342.157,4.7,4.7,0,0,1,4.593-4.8m1.625,4.731a1.5,1.5,0,0,0-1.407-1.573,1.424,1.424,0,0,0-1.654,1.468,1.4,1.4,0,0,0,1.376,1.555,1.5,1.5,0,0,0,1.685-1.45" transform="translate(-130.986 -0.028)"/>
        <path id="Trazado_726055" data-name="Trazado 726055" d="M9.342,4.735A4.7,4.7,0,0,1,4.6,9.388,4.67,4.67,0,0,1,4.64.048a4.7,4.7,0,0,1,4.7,4.688m-4.6,1.526A1.493,1.493,0,0,0,6.186,4.75,1.408,1.408,0,0,0,4.61,3.208,1.411,1.411,0,0,0,3.163,4.874,1.494,1.494,0,0,0,4.741,6.261" transform="translate(0 -0.029)"/>
        <path id="Trazado_726056" data-name="Trazado 726056" d="M9.345,219.866a4.7,4.7,0,0,1-4.624,4.768,4.67,4.67,0,1,1,4.624-4.768m-3.111.083a1.531,1.531,0,0,0-1.414-1.5,1.426,1.426,0,0,0-1.661,1.46,1.4,1.4,0,0,0,1.367,1.562c.985.09,1.523-.506,1.708-1.525" transform="translate(-0.002 -130.968)"/>
        <path id="Trazado_726057" data-name="Trazado 726057" d="M215.322,219.931a4.683,4.683,0,0,1,9.285-.828c.183,1.047.051,2.038-1.149,2.327-1.089.262-1.709-.387-1.891-1.436-.165-.953-.647-1.581-1.657-1.55a1.39,1.39,0,0,0-1.421,1.34c-.092,1.115.605,1.588,1.638,1.769a1.45,1.45,0,0,1,1.36,1.78c-.2,1.095-1.041,1.378-2.064,1.28a4.734,4.734,0,0,1-4.1-4.682" transform="translate(-130.985 -130.964)"/>
      </g>
    </g>
  </g>
</svg>
