<svg xmlns="http://www.w3.org/2000/svg" xmlns:xlink="http://www.w3.org/1999/xlink" width="118" height="118" viewBox="0 0 118 118">
  <defs>
    <clipPath id="clip-path">
      <rect id="Rectángulo_349675" data-name="Rectángulo 349675" width="105.333" height="79.783" fill="#fff"/>
    </clipPath>
  </defs>
  <g id="Grupo_997396" data-name="Grupo 997396" transform="translate(1837 10396)">
    <circle id="Elipse_5898" data-name="Elipse 5898" cx="59" cy="59" r="59" transform="translate(-1837 -10396)" fill="#b20d0d"/>
    <g id="Grupo_997261" data-name="Grupo 997261" transform="translate(-1830.667 -10376.892)">
      <g id="Grupo_997260" data-name="Grupo 997260" clip-path="url(#clip-path)">
        <path id="Trazado_731586" data-name="Trazado 731586" d="M102.619,48.9c1.968,1.85,2.641,3.675,2,5.91-.956,3.331-2.031,3.786-4.944,1.984a3.467,3.467,0,0,0-3.556-.272c-1.486.738-2.888,1.645-4.347,2.44-.577.315-.894,1.465-1.824.725a3.209,3.209,0,0,1-1.267-2.364c-.029-.945,1.008-.587,1.525-.891,1.858-1.093,3.758-2.114,5.636-3.175a6.492,6.492,0,0,1,2.825-.91,3.785,3.785,0,0,0,3.954-3.447" transform="translate(-44.039 -24.286)" fill="#fff"/>
        <path id="Trazado_731587" data-name="Trazado 731587" d="M23.483,84.693c-1.873,2.372-3.792,3.108-6.246,2.423-3.24-.9-3.621-1.667-1.969-4.565A3.39,3.39,0,0,0,15.34,78.8c-.924-1.474-1.941-2.89-2.9-4.341-.317-.478-1.322-.718-.624-1.577a3.7,3.7,0,0,1,2.052-1.345c.979-.211.944.7,1.154,1.278a11.254,11.254,0,0,0,1.6,2.505c1.316,1.892,2.742,3.71,3.119,6.134.283,1.821,1.221,3.273,3.749,3.24" transform="translate(-5.746 -35.51)" fill="#fff"/>
        <path id="Trazado_731588" data-name="Trazado 731588" d="M0,23.3a3.324,3.324,0,0,0,4.267-2.083c1.005-2.335,2.955-3.751,4.726-5.362.672-.612,1.354-1.213,2.031-1.818.452-.4.475-1.481,1.347-1.165A3.184,3.184,0,0,1,14.2,14.823c.354.959-.629.987-1.077,1.379-1.126.984-2.269,1.95-3.384,2.946A3.824,3.824,0,0,0,8.526,23.61c.842,2.593.347,3.181-2.378,3.571C3.518,27.557,1.517,26.4,0,23.3" transform="translate(0 -6.365)" fill="#fff"/>
        <path id="Trazado_731589" data-name="Trazado 731589" d="M127.355,117.59a3.084,3.084,0,0,0,3.136,3.256c2.645.213,4.688,1.6,6.812,2.889a10.275,10.275,0,0,0,2.4,1.3c.57.166,1.48.107,1.361,1.1a3.248,3.248,0,0,1-1.208,2.13c-.8.652-1.135-.284-1.649-.585-1.293-.758-2.577-1.533-3.873-2.286a3.81,3.81,0,0,0-4.841.454c-1.663,1.473-2.733.815-3.673-.9-1.513-2.762-1.08-5.228,1.53-7.364" transform="translate(-62.055 -58.397)" fill="#fff"/>
        <path id="Trazado_731590" data-name="Trazado 731590" d="M61.959,136.55a20.791,20.791,0,0,0-3.152,2.132c-1.851,1.826-1.189,3.953-.5,6.081.18.557,1.243,1.63-.431,1.813-.939.1-1.916.481-2.007-1.255-.162-3.04-2.919-4.284-4.857-5.988a20.792,20.792,0,0,0-4.152-2.262c-.624-.33-1.918-.114-1.178-1.536.589-1.13,1.28-.907,2.244-.46,1.736.8,3.545,1.456,5.34,2.126s3.664.571,4.764-1.06c1.755-2.6,2.651-.746,3.928.408" transform="translate(-22.576 -66.899)" fill="#fff"/>
        <path id="Trazado_731591" data-name="Trazado 731591" d="M73.081,26.554c.653-.118.789.473,1.118.8.994,1,2,1.981,3,2.981,1.564,1.578,3.252,2.142,5.375.993,1.159-.627,2.408-.815,2.96.925.451,1.422.964,2.413-1.017,3.575-3.065,1.8-4.916-.143-7.059-1.368-2.239-1.279-3.418-3.856-5.825-4.987a.761.761,0,0,1-.33-1.228,4.344,4.344,0,0,1,1.781-1.694" transform="translate(-35.317 -13.179)" fill="#fff"/>
        <path id="Trazado_731592" data-name="Trazado 731592" d="M198.725,26.989c-3.372-3.17-5.677-2.79-7.776,1.136-.259.484-.263,1.284-1.117.92a1.144,1.144,0,0,1-.735-1.574,27.8,27.8,0,0,0,.433-11.4c-.087-.65-.323-1.422.776-1.4.729.015,1.568-.108,1.6,1.048.09,3.774,2.352,6.01,5.414,7.743,2.2,1.245,2.19,1.363,1.41,3.527" transform="translate(-93.868 -7.286)" fill="#fff"/>
        <path id="Trazado_731593" data-name="Trazado 731593" d="M90.026,144.793c1.252-4.485.972-5.1-3.368-6.784a1.505,1.505,0,0,1-1.137-1.433c-.006-.736.733-.47,1.154-.548A39.206,39.206,0,0,0,96.8,132.543c.687-.336,1.359-.879,1.69.364.191.716.563,1.316-.581,1.752-3.189,1.215-4.623,3.808-5.17,7.041-.5,2.98-.567,3-2.717,3.093" transform="translate(-42.471 -65.618)" fill="#fff"/>
        <path id="Trazado_731594" data-name="Trazado 731594" d="M119.413,15.6c3.832-3.27,3.611-5.34-.908-8.577.5-.6.748-1.486,1.924-.918,3.37,1.629,7.03,2.007,10.7,2.307.716.058,1.852-.366,1.695,1.106-.134,1.253-.778,1.18-1.9,1.128-3.2-.151-5.717,1.341-7.728,3.826-.936,1.156-1.9,2.8-3.788,1.128" transform="translate(-58.851 -2.941)" fill="#fff"/>
        <path id="Trazado_731595" data-name="Trazado 731595" d="M104.234,90.313a12.828,12.828,0,0,1-1.4.671,17.863,17.863,0,0,0-7.326,5.071c-.813.864-1.668,1.665-1.5,3,.177,1.423-.828,1.117-1.626,1.109-1.339-.013-.955-.877-.683-1.536,1.217-2.947,1.228-5.5-1.952-7.3-.6-.341-1.16-1.1-.277-1.848.658-.56,1.206-1.052,1.946.073,1.491,2.262,3.592,2.428,5.94,1.414,1.6-.693,3.25-1.293,4.843-2.011.545-.245.937-.276,1.293.2.243.324.439.682.743,1.163" transform="translate(-44.203 -44.088)" fill="#fff"/>
        <path id="Trazado_731596" data-name="Trazado 731596" d="M152.247,45.914c-3.032.134-6.134-.027-6.864,4.125-.236,1.342-1.366.238-2.02.126-.795-.136-.623-.618-.216-1.245,2.309-3.566,2.245-4.234-.226-7.5-.456-.6-1.708-1.186-.242-2.114,1.31-.829,1.285.325,1.86.961,2.23,2.47,5.3,3.151,8.444,3.69,1.086.186,3.125-1.053,3.146.95.024,2.308-2.092.532-3.139.992a2.008,2.008,0,0,1-.743.013" transform="translate(-70.514 -19.377)" fill="#fff"/>
        <path id="Trazado_731597" data-name="Trazado 731597" d="M68.353,102.79c-1.579-1.04-2.334-1.854-.536-3.255a3.438,3.438,0,0,0,.9-4.515c-.715-1.5-1.311-3.062-2.069-4.541-.424-.83-.776-1.522.284-2.072,1.156-.6,1.226.453,1.483,1.063A17.557,17.557,0,0,0,73.984,96.1a2.868,2.868,0,0,0,2.483.917c1.329-.322,1.345.413,1.289,1.349-.077,1.291-.851.86-1.591.717-4.778-.93-5.539-.569-7.813,3.7" transform="translate(-32.893 -43.816)" fill="#fff"/>
        <path id="Trazado_731598" data-name="Trazado 731598" d="M43.7,48.11c1.206,1.283.347,2.139-.682,2.8-3.074,1.958-5.513,4.264-5.3,8.314.044.86-.736.737-1.281.792-.753.075-.984-.273-.934-1.037a28.486,28.486,0,0,0-1.116-11.317c-.208-.6.184-.926.612-1.2.713-.464.775.218,1.031.591,2.61,3.809,4.25,4.037,7.675,1.066" transform="translate(-17.046 -22.992)" fill="#fff"/>
        <path id="Trazado_731599" data-name="Trazado 731599" d="M34.066,127a8.439,8.439,0,0,1-3.9,3.4c-1.765.657-2.621,2.242-3.711,3.594-.868,1.076-1.787,2.043-3.209.693,3.454-3.56,3.343-4.975-.7-8.1-.455-.352-.841-.544-.418-1.119.349-.475.693-.928,1.428-.561,3.208,1.6,6.789,1.463,10.513,2.1" transform="translate(-10.897 -61.961)" fill="#fff"/>
        <path id="Trazado_731600" data-name="Trazado 731600" d="M171.288,95.659c-1.022,1.066-1.939.732-2.693-.29-2.2-2.983-4.669-5.416-8.809-5.008-.758.075-.87-.626-.922-1.228-.076-.877.52-.845,1.135-.876,3.734-.187,7.473-.366,10.986-1.856a.953.953,0,0,1,1.277.417c.4.593-.044.8-.456,1.139-3.732,3.12-3.811,4.468-.518,7.7" transform="translate(-78.891 -42.858)" fill="#fff"/>
        <path id="Trazado_731601" data-name="Trazado 731601" d="M9.514,11.62C8.6,13.377,6.924,13.85,5.9,15.039,4.665,16.48,3.057,17.6,2.4,19.523c-.2.575-.553,1.334-1.451.944-.8-.349-.982-.937-.766-1.832.85-3.521,5.323-7.048,9.331-7.016" transform="translate(-0.049 -5.77)" fill="#fff"/>
        <path id="Trazado_731602" data-name="Trazado 731602" d="M145.542,121.553c-.862.315-1.384-.327-1.989-.705-2.388-1.493-4.689-3.148-7.661-3.349-.682-.046-1.576-.223-1.364-1.349.151-.8.654-.992,1.421-1.055,3.737-.309,8.482,2.844,9.593,6.457" transform="translate(-66.793 -57.148)" fill="#fff"/>
        <path id="Trazado_731603" data-name="Trazado 731603" d="M22.4,71.38c4.012,1.3,7.238,5.567,7.289,9.261a1.407,1.407,0,0,1-.923,1.56.861.861,0,0,1-1.315-.68c-.488-3.662-2.86-6.309-4.815-9.187a3.737,3.737,0,0,1-.236-.954" transform="translate(-11.125 -35.448)" fill="#fff"/>
        <path id="Trazado_731604" data-name="Trazado 731604" d="M89.283,53.007c1.239-3.677,6.464-7.063,9.8-6.514a1.236,1.236,0,0,1,1.2,1.034c.152.718-.185,1.26-.816,1.292-3.7.187-6.428,2.525-9.465,4.18-.126.068-.323.009-.721.009" transform="translate(-44.339 -23.06)" fill="#fff"/>
        <path id="Trazado_731605" data-name="Trazado 731605" d="M44.22,143.1c4,.75,6.334,3.229,8.65,5.716a.867.867,0,0,1,.1,1.144.944.944,0,0,1-1.144.206c-3.454-1.131-6.364-2.869-7.6-7.066" transform="translate(-21.96 -71.067)" fill="#fff"/>
        <path id="Trazado_731606" data-name="Trazado 731606" d="M70.27,36.035c1.85,1.684,3.371,3.058,4.878,4.445a7.894,7.894,0,0,0,3.126,1.978c.525.154,1.589.186,1.221,1.151a1.643,1.643,0,0,1-1.906,1.218c-3.142-.493-7.013-4.82-7.318-8.792" transform="translate(-34.897 -17.896)" fill="#fff"/>
        <path id="Trazado_731607" data-name="Trazado 731607" d="M97.478,127.258a33.538,33.538,0,0,1-9.986,3.573c2.254-4.373,6.138-5.834,9.986-3.573" transform="translate(-43.45 -62.675)" fill="#fff"/>
        <path id="Trazado_731608" data-name="Trazado 731608" d="M38.882,121.193a31.529,31.529,0,0,1-10.374-1.207c3.676-2.942,8.076-2.457,10.374,1.207" transform="translate(-14.158 -58.637)" fill="#fff"/>
        <path id="Trazado_731609" data-name="Trazado 731609" d="M111.64,97.033c-1.08,3.878-3.85,5.428-6.959,6.6-.455.171-1.025.3-1.346-.219a.923.923,0,0,1,.27-1.126c2.179-2.268,4.324-4.589,8.035-5.251" transform="translate(-51.267 -48.188)" fill="#fff"/>
        <path id="Trazado_731610" data-name="Trazado 731610" d="M125.274,1.576c4.594-2.623,8.517-1.92,10.4,1.713a36.037,36.037,0,0,1-10.4-1.713" transform="translate(-62.213 0)" fill="#fff"/>
        <path id="Trazado_731611" data-name="Trazado 731611" d="M159.772,40.586c-3.1.567-5.585-.61-8.084-1.78-.587-.275-1.077-.652-.9-1.3.148-.541.8-.479,1.286-.543a7.756,7.756,0,0,1,7.7,3.62" transform="translate(-74.865 -18.324)" fill="#fff"/>
        <path id="Trazado_731612" data-name="Trazado 731612" d="M74.144,87.289c3.115.281,6.537,3.434,6.859,6.1.043.352.1.7-.243.853a1.248,1.248,0,0,1-1.371-.264c-2.2-1.765-4.334-3.584-5.246-6.687" transform="translate(-36.821 -43.349)" fill="#fff"/>
        <path id="Trazado_731613" data-name="Trazado 731613" d="M182.952,27.305c-2.814-2.618-3.336-7.3-1.2-9.5.28-.288.532-.681,1.017-.572.445.1.351.526.379.827a34.145,34.145,0,0,1-.2,9.248" transform="translate(-89.609 -8.548)" fill="#fff"/>
        <path id="Trazado_731614" data-name="Trazado 731614" d="M170.226,81.4a28.285,28.285,0,0,1-8.538,1.3c-.388.012-.913.139-1.087-.317-.218-.57.333-.874.666-1.2,2.038-1.989,5.513-1.965,8.959.214" transform="translate(-79.732 -39.595)" fill="#fff"/>
        <path id="Trazado_731615" data-name="Trazado 731615" d="M78.186,145.232c-.15,1.978-.816,4.049-2.559,4.239-1.317.143-1.4-2.122-1.527-3.417-.193-1.966,1.436-2.541,2.905-2.716,1.392-.166.971,1.211,1.181,1.894" transform="translate(-36.792 -71.177)" fill="#fff"/>
        <path id="Trazado_731616" data-name="Trazado 731616" d="M29.77,61.782c-3.386-1.941-3.652-5.525-.879-9.392,1.112,3.1.726,6.1.879,9.392" transform="translate(-13.409 -26.018)" fill="#fff"/>
        <path id="Trazado_731617" data-name="Trazado 731617" d="M81.192,113.963a4.311,4.311,0,0,1-3.357,2.645c-.853.179-2.288.729-2.487-.645a2.388,2.388,0,0,1,2.037-2.73,7.794,7.794,0,0,1,3.807.731" transform="translate(-37.406 -56.205)" fill="#fff"/>
        <path id="Trazado_731618" data-name="Trazado 731618" d="M137.165,44.616c2.653,2.369,3.083,3.806,1.695,5.385-.908,1.032-1.662,1.009-2.212-.284a4.582,4.582,0,0,1,.517-5.1" transform="translate(-67.597 -22.157)" fill="#fff"/>
        <path id="Trazado_731619" data-name="Trazado 731619" d="M52.55,131.133c2.3-1.178,4.263-.771,6.206-.348.662.144,1.8.061,1.575,1.107a1.674,1.674,0,0,1-2.14,1.26c-1.807-.544-3.56-1.262-5.641-2.019" transform="translate(-26.097 -64.738)" fill="#fff"/>
        <path id="Trazado_731620" data-name="Trazado 731620" d="M96.965,70.933c3.043-3.124,4.725-3.444,7.117-1.349a9.132,9.132,0,0,1-7.117,1.349" transform="translate(-48.154 -33.895)" fill="#fff"/>
        <path id="Trazado_731621" data-name="Trazado 731621" d="M87.739,27.876c-2.929,1.535-4.32.92-6.662-2.835,2.667-.109,4.626,1.077,6.662,2.835" transform="translate(-40.264 -12.432)" fill="#fff"/>
        <path id="Trazado_731622" data-name="Trazado 731622" d="M9.189,80.4c3.262,2.83,3.656,4.376,1.736,7.021A8.829,8.829,0,0,1,9.189,80.4" transform="translate(-4.484 -39.928)" fill="#fff"/>
        <path id="Trazado_731623" data-name="Trazado 731623" d="M25.011,23.141a7.3,7.3,0,0,1-1.841,4.751c-.448.577-.968,1.9-1.739,1.248a1.989,1.989,0,0,1-.11-3.059c1.081-.985,1.931-2.263,3.689-2.941" transform="translate(-10.255 -11.492)" fill="#fff"/>
        <path id="Trazado_731624" data-name="Trazado 731624" d="M142.2,139.025a8.108,8.108,0,0,1-5.29-.3c-.651-.255-2.007-.2-1.556-1.295a1.923,1.923,0,0,1,2.477-1.121,11.938,11.938,0,0,1,4.37,2.713" transform="translate(-67.174 -67.617)" fill="#fff"/>
        <path id="Trazado_731625" data-name="Trazado 731625" d="M104.632,85.437c-1.928.67-3.536,1.268-5.17,1.783a1.5,1.5,0,0,1-2.115-1.127c-.137-.979.988-.914,1.65-1.031,1.751-.312,3.53-.761,5.635.376" transform="translate(-48.338 -42.066)" fill="#fff"/>
        <path id="Trazado_731626" data-name="Trazado 731626" d="M18.4,133.832c.158-.755-.1-1.826,1.027-1.653a2.253,2.253,0,0,1,2.166,2.265,1.906,1.906,0,0,1-1.928,1.888c-1.32-.149-.935-1.645-1.264-2.5" transform="translate(-9.136 -65.633)" fill="#fff"/>
        <path id="Trazado_731627" data-name="Trazado 731627" d="M63.2,96.01c.558,1.37,1.166,2.722,1.656,4.116a1.481,1.481,0,0,1-.943,2.034c-1.062.267-.982-.83-1.167-1.486A5.15,5.15,0,0,1,63.2,96.01" transform="translate(-30.988 -47.68)" fill="#fff"/>
        <path id="Trazado_731628" data-name="Trazado 731628" d="M159.848,57.483a7.731,7.731,0,0,1-4.426,2.209c-.689.132-1.816.9-1.947-.487a1.605,1.605,0,0,1,1.748-1.721c1.385-.007,2.77,0,4.625,0" transform="translate(-76.214 -28.546)" fill="#fff"/>
        <path id="Trazado_731629" data-name="Trazado 731629" d="M114.91,14.845c.213-.725-.329-1.973.916-1.939a2.22,2.22,0,0,1,2.16,2.054,1.916,1.916,0,0,1-2.041,2.051c-1.1-.023-.855-1.34-1.035-2.167" transform="translate(-57.066 -6.409)" fill="#fff"/>
        <path id="Trazado_731630" data-name="Trazado 731630" d="M198.143,42.668c-.772-.05-1.63.077-1.4-.982s.665-2.14,2.01-2.193c1.178-.046,2.2.921,2.091,1.735-.183,1.333-1.712,1.239-2.7,1.44" transform="translate(-97.688 -19.612)" fill="#fff"/>
        <path id="Trazado_731631" data-name="Trazado 731631" d="M45.553,44.66c-.484,1-.975,1.835-2.02,1.774a2.193,2.193,0,0,1-1.984-2.167c-.143-1.255,1.016-.75,1.607-.751a2.491,2.491,0,0,1,2.4,1.144" transform="translate(-20.628 -21.561)" fill="#fff"/>
        <path id="Trazado_731632" data-name="Trazado 731632" d="M186.442,94.869c-.359.769.171,2.222-1.194,2.289a1.737,1.737,0,0,1-1.7-1.826,2.092,2.092,0,0,1,2.1-2.057c.931-.063.623.94.791,1.594" transform="translate(-91.152 -46.321)" fill="#fff"/>
        <path id="Trazado_731633" data-name="Trazado 731633" d="M86.1,149.472c.1-.248-.193-1.319.973-1.167a1.562,1.562,0,0,1,1.472,2.093c-.181.738-.365,1.863-1.432,1.569-.837-.23-1.53-1-1.013-2.495" transform="translate(-42.671 -73.643)" fill="#fff"/>
        <path id="Trazado_731634" data-name="Trazado 731634" d="M203.426,22.712c-2.909-.934-3.775-2.881-4.834-5.368,2.5,1.212,3.594,2.974,4.834,5.368" transform="translate(-98.624 -8.613)" fill="#fff"/>
        <path id="Trazado_731635" data-name="Trazado 731635" d="M104.111,147.377c.075-3.144,1.52-4.733,3.479-6.559-.239,2.807-1.6,4.467-3.479,6.559" transform="translate(-51.703 -69.932)" fill="#fff"/>
        <path id="Trazado_731636" data-name="Trazado 731636" d="M137.192,18.921c-1.8,2.423-3.824,3.1-6.265,3.975,1.389-2.679,3.55-3.132,6.265-3.975" transform="translate(-65.02 -9.396)" fill="#fff"/>
        <path id="Trazado_731637" data-name="Trazado 731637" d="M163.132,98.943c1.945.424,3.859.927,4.913,3.177a6.955,6.955,0,0,1-4.913-3.177" transform="translate(-81.014 -49.137)" fill="#fff"/>
        <path id="Trazado_731638" data-name="Trazado 731638" d="M45.634,65.176c.532-1.988,1.192-3.876,3.738-4.855a8.812,8.812,0,0,1-3.738,4.855" transform="translate(-22.663 -29.956)" fill="#fff"/>
      </g>
    </g>
  </g>
</svg>
