<svg xmlns="http://www.w3.org/2000/svg" xmlns:xlink="http://www.w3.org/1999/xlink" width="118" height="118" viewBox="0 0 118 118">
  <defs>
    <clipPath id="clip-path">
      <rect id="Rectángulo_345264" data-name="Rectángulo 345264" width="80.246" height="80.267" fill="none"/>
    </clipPath>
  </defs>
  <g id="Grupo_997445" data-name="Grupo 997445" transform="translate(-22696 9154.374)">
    <circle id="Elipse_5932" data-name="Elipse 5932" cx="59" cy="59" r="59" transform="translate(22696 -9154.374)" fill="#ffc403"/>
    <g id="Grupo_984696" data-name="Grupo 984696" transform="translate(22714.945 -9135.508)">
      <g id="Grupo_984695" data-name="Grupo 984695" clip-path="url(#clip-path)">
        <path id="Trazado_726007" data-name="Trazado 726007" d="M60.132,56.483c0,2.768.033,5.536-.013,8.3-.027,1.589.534,2.629,2.2,2.861,1.036.144,1.69.7,1.523,1.777a1.508,1.508,0,0,1-2.113,1.261c-1.524-.484-1.645.149-1.628,1.439.066,5.012-.007,10.026.044,15.038a4.709,4.709,0,1,0,9.4-.328,4.242,4.242,0,0,0-.842-2.155,1.432,1.432,0,0,1,.32-2.192,1.471,1.471,0,0,1,2.2.378,6.178,6.178,0,0,1,1.435,4.667c-.136,1.245.409,1.511,1.476,1.562A7.113,7.113,0,0,0,81.5,80.7c-.171-.937-.518-1.241-1.451-1.024a9.594,9.594,0,0,1-2.172.239,1.5,1.5,0,0,1-1.665-1.509,1.461,1.461,0,0,1,1.562-1.59,9.678,9.678,0,0,0,7.35-3.613,1.441,1.441,0,0,1,2.21-.267,1.52,1.52,0,0,1,.106,2.349,10.287,10.287,0,0,1-2.51,2.34,1.164,1.164,0,0,0-.61,1.53A10.163,10.163,0,0,1,72.235,91.935a1.528,1.528,0,0,0-1.621.563c-3.357,3.348-7.785,3.433-11.316.2-.606-.556-.863-.562-1.473,0-3.536,3.239-7.965,3.162-11.311-.2a1.723,1.723,0,0,0-1.778-.535A10.12,10.12,0,0,1,32.762,79.313a1.43,1.43,0,0,0-.671-1.786,12.357,12.357,0,0,1,2.245-21.418,1.5,1.5,0,0,0,1-1.77,8.693,8.693,0,0,1,8.4-9.545,1.884,1.884,0,0,0,1.711-1.021,7.77,7.77,0,0,1,12.228-1.662c.8.757,1.121.585,1.817-.058A7.79,7.79,0,0,1,71.633,43.7a2.014,2.014,0,0,0,1.827,1.1,8.682,8.682,0,0,1,8.326,9.453c-.053.971.108,1.5,1.087,1.874a10.987,10.987,0,0,1,4.359,3.233c.731.841,1.1,1.754.111,2.592-.914.775-1.735.347-2.425-.472A9.242,9.242,0,0,0,78.1,58.126c-1.017-.057-1.806-.4-1.88-1.463a1.5,1.5,0,0,1,1.655-1.671c.792-.017.765-.506.806-1.038a5.7,5.7,0,0,0-9.809-4.313c-.873.919-1.732,2.234-3.026.848-1.207-1.292.1-2.262.9-3.177a6.543,6.543,0,0,1,1.078-.9c1.39-1.017,1.419-1.29.062-2.332a4.758,4.758,0,0,0-7.739,3.632c-.045,2.923-.012,5.848-.016,8.772m-3.171,14c-.3.037-.5.052-.7.091-1.149.22-2.467.56-2.891-.952-.446-1.594.854-1.84,2.028-2.112a1.965,1.965,0,0,0,1.578-2.071c.019-6.007.066-12.014-.03-18.02a4.331,4.331,0,0,0-3.123-4.1A4.564,4.564,0,0,0,48.9,44.382c-.721.657-1.1,1.238.13,1.857a6.285,6.285,0,0,1,2.35,2.259,1.5,1.5,0,0,1-.291,2.218,1.455,1.455,0,0,1-2.1-.246c-.289-.3-.525-.654-.829-.938a5.5,5.5,0,0,0-6.085-1.23,5.379,5.379,0,0,0-3.627,5.017c-.058.918-.1,1.728,1.263,1.761a1.328,1.328,0,0,1,1.207,1.574c-.129,1.162-.992,1.383-2.037,1.484-6.139.6-10.029,5.992-8.512,11.736,1.035,3.916,4.2,6.458,8.712,6.91,1.1.11,1.893.514,1.824,1.666S39.962,80,38.886,79.925a8.35,8.35,0,0,1-1.7-.232c-1.115-.319-1.433.158-1.592,1.2a7.111,7.111,0,0,0,7.588,8.188c.956-.08,1.406-.354,1.279-1.434A6.4,6.4,0,0,1,45.627,83.2c.587-.857,1.347-1.421,2.367-.772.991.63.915,1.467.319,2.427a4.343,4.343,0,0,0,.237,5.243,4.72,4.72,0,0,0,4.908,1.64,4.448,4.448,0,0,0,3.467-4c.1-5.736.034-11.474.034-17.259" transform="translate(-18.438 -27.326)"/>
        <path id="Trazado_726008" data-name="Trazado 726008" d="M54.622,8.575c.908,1.157,1.727,2.222,2.571,3.267.7.873,1.029,1.794.008,2.584-1.037.8-1.83.178-2.5-.678q-1.742-2.211-3.5-4.406c-1.86-2.321-1.529-3.243,1.461-3.818-.405-1.079-1.36-1.681-2.053-2.48-.729-.84-1.177-1.706-.219-2.585S52.189.1,52.935.915c1.271,1.381,2.573,2.734,3.838,4.12,1.567,1.717,1.2,2.8-1.095,3.3-.3.064-.593.135-1.056.242" transform="translate(-34.173 0)"/>
        <path id="Trazado_726009" data-name="Trazado 726009" d="M183.183,8.635c-3.84-1.116-3.967-1.62-1.261-4.512,1.069-1.142,2.131-2.291,3.207-3.426a1.511,1.511,0,0,1,2.336-.239,1.511,1.511,0,0,1-.023,2.348c-.756.843-1.534,1.665-2.285,2.478.3.524.718.349,1.042.429,1.579.388,2.072,1.491,1.114,2.768-1.407,1.876-2.9,3.69-4.37,5.517-.633.785-1.44,1.123-2.307.432-.931-.741-.745-1.617-.073-2.464.867-1.093,1.726-2.193,2.62-3.33" transform="translate(-123.425 -0.003)"/>
        <path id="Trazado_726010" data-name="Trazado 726010" d="M7.151,51.447c1.308.751,2.512,1.45,3.723,2.134.939.53,1.469,1.3.911,2.312s-1.5.964-2.434.431c-1.855-1.056-3.717-2.1-5.566-3.168-1.916-1.105-1.93-2.239-.061-3.44.172-.11.335-.233.7-.485-1.166-.563-2.2-1.056-3.236-1.563C.3,47.229-.28,46.563.158,45.543c.471-1.1,1.4-1.154,2.364-.707,1.8.828,3.571,1.7,5.359,2.546.767.363,1.539.7,1.548,1.741.008.952-.687,1.329-1.37,1.729-.266.155-.516.337-.908.595" transform="translate(-0.005 -30.565)"/>
        <path id="Trazado_726011" data-name="Trazado 726011" d="M221.936,51.486c-3.165-2.281-3.1-2.956.315-4.576q2.115-1,4.232-2.006c.947-.451,1.875-.545,2.42.526.6,1.173-.125,1.845-1.118,2.323l-2.97,1.428c2.764,2.326,2.715,2.76-.446,4.545q-2.244,1.267-4.48,2.547c-.97.557-1.95.726-2.558-.4-.552-1.022.009-1.774.947-2.3,1.18-.657,2.346-1.34,3.657-2.091" transform="translate(-148.875 -30.572)"/>
        <path id="Trazado_726012" data-name="Trazado 726012" d="M3.369,174.04c-1.929-1.583-1.858-2.479.129-3.626,1.487-.859,2.985-1.7,4.476-2.548.943-.538,1.819-.562,2.414.472.57.992.043,1.692-.792,2.206s-1.708.988-2.535,1.463c-.094.566.4.586.639.8,1.077.973,1.029,2.1-.244,2.766-1.655.872-3.366,1.641-5.068,2.422a1.5,1.5,0,0,1-2.228-.73,1.488,1.488,0,0,1,.86-2.06c.728-.39,1.478-.738,2.348-1.169" transform="translate(0 -114.855)"/>
        <path id="Trazado_726013" data-name="Trazado 726013" d="M228.883,174.08c.806.408,1.606.775,2.367,1.21a1.44,1.44,0,0,1,.729,1.978,1.459,1.459,0,0,1-2.085.786c-1.806-.8-3.615-1.611-5.343-2.563-1.359-.749-1.144-1.787.681-3.393-.924-.533-1.816-1.024-2.684-1.555-.836-.511-1.369-1.2-.8-2.2.589-1.036,1.465-1.024,2.409-.486l4.2,2.4c2.28,1.3,2.391,2.013.526,3.827" transform="translate(-151.891 -114.853)"/>
        <path id="Trazado_726014" data-name="Trazado 726014" d="M176.964,221.915c-.578-.745-1.106-1.39-1.6-2.064a1.477,1.477,0,0,1,.2-2.223,1.444,1.444,0,0,1,2.206.267c1.009,1.2,1.977,2.43,2.948,3.659,1.381,1.747,1.249,2.421-.7,3.5.481.558,1,1.076,1.417,1.666a1.44,1.44,0,0,1-.264,2.1,1.365,1.365,0,0,1-1.987-.056c-1.28-1.3-2.565-2.613-3.717-4.027-.9-1.105-.43-1.961,1.5-2.823" transform="translate(-119.969 -148.956)"/>
        <path id="Trazado_726015" data-name="Trazado 726015" d="M60.51,225.018c-1.951-.949-2.151-1.667-.934-3.239q1.48-1.911,3.013-3.78a1.491,1.491,0,0,1,2.305-.364,1.52,1.52,0,0,1,.107,2.34c-.475.616-.953,1.229-1.432,1.847,2.331,1.442,2.4,1.94.531,3.963q-1.269,1.377-2.552,2.738a1.5,1.5,0,0,1-2.325.235,1.53,1.53,0,0,1,.024-2.348c.373-.43.764-.844,1.263-1.393" transform="translate(-40.24 -148.958)"/>
        <path id="Trazado_726016" data-name="Trazado 726016" d="M175.732,123.533a5.594,5.594,0,0,1-5.123-5.168c-.027-1.012.328-1.767,1.423-1.863a1.438,1.438,0,0,1,1.681,1.434,2.55,2.55,0,0,0,2.477,2.514c1.006.124,1.669.719,1.511,1.786s-.966,1.388-1.97,1.3" transform="translate(-116.986 -79.879)"/>
        <path id="Trazado_726017" data-name="Trazado 726017" d="M148.261,94.921c-.944.033-1.669-.285-1.807-1.312a1.428,1.428,0,0,1,1.353-1.762,2.449,2.449,0,0,0,2.386-2.421,1.419,1.419,0,0,1,1.636-1.331,1.552,1.552,0,0,1,1.44,1.74,5.351,5.351,0,0,1-5.009,5.087" transform="translate(-100.41 -60.401)"/>
        <path id="Trazado_726018" data-name="Trazado 726018" d="M152.806,152.842a1.5,1.5,0,0,1-1.4,1.665,3.405,3.405,0,0,0-2.265,1.2,1.542,1.542,0,0,1-2.376-1.965,5.2,5.2,0,0,1,4.534-2.3,1.424,1.424,0,0,1,1.5,1.395" transform="translate(-100.384 -103.847)"/>
        <path id="Trazado_726019" data-name="Trazado 726019" d="M220.156,125.919c-1.038-.146-1.65-.644-1.616-1.622a1.53,1.53,0,0,1,3.059.011,1.551,1.551,0,0,1-1.444,1.611" transform="translate(-149.853 -84.212)"/>
        <path id="Trazado_726020" data-name="Trazado 726020" d="M63.972,123.536c-1.021.064-1.782-.323-1.89-1.393a1.474,1.474,0,0,1,1.462-1.682,2.624,2.624,0,0,0,2.558-2.617,1.411,1.411,0,0,1,1.753-1.332c1.01.135,1.342.847,1.334,1.789a5.589,5.589,0,0,1-5.218,5.236" transform="translate(-42.563 -79.877)"/>
        <path id="Trazado_726021" data-name="Trazado 726021" d="M92.059,94.91a5.35,5.35,0,0,1-4.9-4.865c-.066-1.023.318-1.806,1.37-1.945a1.451,1.451,0,0,1,1.714,1.419,2.369,2.369,0,0,0,2.309,2.31,1.445,1.445,0,0,1,1.416,1.719c-.121,1.123-.91,1.42-1.913,1.362" transform="translate(-59.763 -60.398)"/>
        <path id="Trazado_726022" data-name="Trazado 726022" d="M90.994,151.485a5.136,5.136,0,0,1,3.676,2.237,1.486,1.486,0,0,1-.223,2.221,1.42,1.42,0,0,1-2.1-.19,3.409,3.409,0,0,0-2.257-1.222,1.453,1.453,0,0,1-1.42-1.71c.123-1.12.907-1.415,2.319-1.336" transform="translate(-60.796 -103.866)"/>
      </g>
    </g>
  </g>
</svg>
