<svg id="Grupo_997277" data-name="Grupo 997277" xmlns="http://www.w3.org/2000/svg" xmlns:xlink="http://www.w3.org/1999/xlink" width="130.59" height="183.218" viewBox="0 0 130.59 183.218">
  <defs>
    <clipPath id="clip-path">
      <rect id="Rectángulo_349683" data-name="Rectángulo 349683" width="130.59" height="183.218" fill="none"/>
    </clipPath>
  </defs>
  <g id="Grupo_997276" data-name="Grupo 997276" transform="translate(0 0)" clip-path="url(#clip-path)">
    <path id="Trazado_731666" data-name="Trazado 731666" d="M79.536,69.665c0,5.755.026,11.511-.006,17.266-.065,11.677.506,22.611,6.3,33.857,9.646,18.7,2.174,42.23-14.415,53.709C53.194,187.1,30.58,185.952,15.074,171.624-1.1,156.677-4.743,134.079,6.508,115.3a28.539,28.539,0,0,0,4.065-15.628c-.138-21.339-.356-42.688.043-64.023.5-26.644,26.637-43.493,49.395-31.963C73.293,10.416,79.1,22.093,79.463,36.576c.277,11.024.055,22.059.072,33.089m-14.325.271c0-11.766-.2-23.534.067-35.294.2-8.747-3.95-14.651-11.172-18.646-7.543-4.173-14.922-2.771-21.713,1.889-7.1,4.875-8.566,12.454-8.6,20.35q-.167,33.493.006,66.988c.03,5.44-1,10.017-4.378,14.68-9.081,12.555-7.072,30.645,3.8,40.841a32.032,32.032,0,0,0,41.607,1.744c11.589-9.148,15.743-26.5,7.386-38.847-6.151-9.086-7.46-18.252-7.062-28.5.327-8.392.067-16.805.064-25.209" transform="translate(0 0)" fill="#06d1d1"/>
    <path id="Trazado_731667" data-name="Trazado 731667" d="M82.479,7.481c4.066,0,8.137-.119,12.2.033,4.081.154,7.107,2.219,7.273,6.427.151,3.817-3.17,5.37-6.3,5.7a129.583,129.583,0,0,1-26.486.035c-3.245-.323-5.915-2.58-5.825-6.242.091-3.724,2.875-5.5,6.235-5.735,4.282-.3,8.6-.072,12.9-.072V7.481" transform="translate(28.415 3.336)" fill="#b20d0d"/>
    <path id="Trazado_731668" data-name="Trazado 731668" d="M82.988,75.463c-4.307,0-8.638.281-12.911-.09-3.32-.29-6.01-2.1-6.012-5.944s2.7-5.825,6-5.944c8.36-.3,16.75-.326,25.107.045,3.529.156,6.693,2.342,6.451,6.394-.24,4.021-3.548,5.487-7.14,5.7-3.819.225-7.66.051-11.492.051,0-.07,0-.141,0-.21" transform="translate(28.74 28.377)" fill="#b20d0d"/>
    <path id="Trazado_731669" data-name="Trazado 731669" d="M82.163,46.15c4.543,0,9.09-.1,13.63.03,3.493.1,6.177,1.66,6.3,5.47.114,3.472-2.444,5.454-5.464,5.555-9.31.311-18.642.32-27.957.1a5.246,5.246,0,0,1-5.463-5.534c.007-3.837,2.428-5.539,6.039-5.61,4.3-.084,8.609-.02,12.914-.012" transform="translate(28.356 20.687)" fill="#b20d0d"/>
    <path id="Trazado_731670" data-name="Trazado 731670" d="M82.488,27.277c4.54,0,9.084-.127,13.617.043,3.083.117,5.913,1.359,6.064,4.859a5.656,5.656,0,0,1-5.283,5.891,116.506,116.506,0,0,1-28.559-.12,5.633,5.633,0,0,1-4.964-6.145c.284-3.637,3.143-4.494,6.222-4.554,4.3-.085,8.6-.022,12.9-.022v.048" transform="translate(28.416 12.205)" fill="#b20d0d"/>
    <path id="Trazado_731671" data-name="Trazado 731671" d="M47.619,73.7c0,4.8.123,9.606-.029,14.4-.227,7.237.174,13.517,6.183,19.484,7.4,7.344,5.111,21.367-2.936,28.39-8.348,7.288-19.23,7.032-27.318-.642-8.3-7.879-9.442-20.715-1.407-29.045,4.552-4.72,5.57-9.5,5.457-15.475-.217-11.518-.061-23.044.048-34.565a42.008,42.008,0,0,1,.771-8.569c1.142-5.209,4.113-8.771,9.955-8.4,6.058.388,9.064,4.079,9.19,9.933.175,8.157.045,16.321.045,24.483h.042" transform="translate(7.47 17.609)" fill="#06d1d1"/>
  </g>
</svg>
