<svg xmlns="http://www.w3.org/2000/svg" xmlns:xlink="http://www.w3.org/1999/xlink" width="118" height="118" viewBox="0 0 118 118">
  <defs>
    <clipPath id="clip-path">
      <rect id="Rectángulo_349593" data-name="Rectángulo 349593" width="81.013" height="80.912" fill="#fff"/>
    </clipPath>
  </defs>
  <g id="Grupo_997423" data-name="Grupo 997423" transform="translate(-741 -1236.254)">
    <circle id="Elipse_5913" data-name="Elipse 5913" cx="59" cy="59" r="59" transform="translate(741 1236.254)" fill="#b20d0d"/>
    <g id="Grupo_997116" data-name="Grupo 997116" transform="translate(763.316 1254.798)">
      <g id="Grupo_997115" data-name="Grupo 997115" clip-path="url(#clip-path)">
        <path id="Trazado_730584" data-name="Trazado 730584" d="M50.422,62.339c1.677,2.4,3.237,4.6,4.761,6.827.49.715,1.276,1.4.675,2.419-.529.9-1.434.725-2.264.739-.415.007-.831,0-1.44,0A23.855,23.855,0,0,0,54.91,76.21c1.4,1.886,2.876,3.713,4.254,5.612.566.779,1.643,1.457,1.078,2.658s-1.752.794-2.73.842c-.821.041-1.646.008-2.831.008,2.06,2.9,3.924,5.532,5.79,8.158,1.116,1.57,2.238,3.135,3.352,4.706.483.682,1.115,1.342.6,2.277s-1.421.751-2.247.752c-3.914.008-7.83.059-11.742-.027-1.288-.029-1.706.355-1.574,1.612.19,1.832-.783,4.3.41,5.34,1.037.908,3.436.28,5.233.294,2.529.02,5.06.058,7.587-.019,1.1-.033,1.28.42,1.266,1.375s-.055,1.537-1.319,1.532q-17.524-.071-35.049,0c-1.334.006-1.221-.692-1.267-1.579-.05-.977.209-1.38,1.281-1.363,3.793.057,7.59-.058,11.38.06,1.561.049,1.98-.473,1.839-1.93a20.415,20.415,0,0,1,0-3.789c.12-1.323-.418-1.591-1.634-1.569-3.853.072-7.708.033-11.562.022-.881,0-1.86.206-2.423-.776-.593-1.035.217-1.7.718-2.405,2.93-4.113,5.884-8.208,8.914-12.427a5.754,5.754,0,0,0-2.332-.246c-1.075-.124-2.421.481-3.064-.888-.6-1.268.56-1.981,1.171-2.8,1.98-2.653,4.023-5.258,6.038-7.886.283-.37.54-.761,1.014-1.432-.893,0-1.522.026-2.148-.005-1.8-.088-2.381-1.125-1.389-2.611,1.47-2.2,3.022-4.349,4.534-6.522.165-.236.3-.493.534-.882-.5-.043-.843-.049-1.175-.107-1.471-.254-1.947-1.148-1.156-2.449Q39.64,54.2,43.144,48.724c.88-1.371,1.925-1.345,2.822.056q3.457,5.4,6.795,10.866c.991,1.63.357,2.4-2.338,2.693M32.99,82.435c1.395,0,2.354,0,3.314,0,.841,0,1.708-.094,2.175.875.43.891-.137,1.5-.582,2.119-2.656,3.719-5.336,7.42-7.98,11.147-.358.5-.969.913-.9,1.6H60.283c-.37-.534-.6-.88-.846-1.217q-4.112-5.708-8.222-11.418c-.473-.661-1.192-1.292-.716-2.254.511-1.031,1.491-.806,2.376-.854a10.466,10.466,0,0,0,3.055-.192c-1.374-1.786-2.617-3.405-3.865-5.021q-1.929-2.5-3.866-4.993c-.449-.58-.882-1.154-.482-1.958s1.092-.821,1.836-.845a4.672,4.672,0,0,0,2.154-.219c-1.732-2.481-3.409-4.822-5.018-7.21-1.04-1.543-.571-2.468,1.265-2.677.287-.033.574-.056,1.138-.11C47.662,56.93,46.326,54.813,45,52.689c-.312-.5-.583-.541-.912-.015-1.327,2.124-2.663,4.241-4.039,6.43,3.264.542,3.5,1.18,1.652,3.831-1.46,2.089-2.918,4.18-4.494,6.437.645.029.946.026,1.243.059,1.015.114,2.278-.435,2.866.9.53,1.2-.5,1.889-1.082,2.665-2.308,3.057-4.659,6.082-7.243,9.443M43.1,104.888c0,.839.056,1.683-.013,2.516-.111,1.341.832,1,1.549,1.042.756.044,1.421.086,1.367-1.053-.08-1.674-.054-3.356-.006-5.033.024-.829-.22-1.121-1.1-1.164-1.308-.064-2.059.192-1.815,1.717a12.772,12.772,0,0,1,.018,1.975" transform="translate(-15.553 -30.42)" fill="#fff"/>
        <path id="Trazado_730585" data-name="Trazado 730585" d="M162.528,17.33A17.337,17.337,0,1,1,145.374,0a17.346,17.346,0,0,1,17.154,17.33M145.352,2.888a14.447,14.447,0,1,0,14.287,14.654A14.461,14.461,0,0,0,145.352,2.888" transform="translate(-81.516 0)" fill="#fff"/>
        <path id="Trazado_730586" data-name="Trazado 730586" d="M4.544,82.421h7.191C10.8,84.3,9.981,85.672,7.679,85.389a43.906,43.906,0,0,0-5.591-.042c-.743,0-1.489-.011-1.9-.753-.451-.818-.016-1.488.458-2.146Q4.709,76.81,8.75,71.16c.338-.472.647-.963,1.149-1.714-1.385,0-2.5,0-3.616,0-.741,0-1.48-.016-1.847-.815a1.839,1.839,0,0,1,.474-1.986q3.444-4.522,6.881-9.049c.208-.274.386-.572.778-1.159-.9,0-1.531.026-2.158-.005-1.813-.091-2.364-1.1-1.357-2.614,1.465-2.2,3.01-4.353,4.516-6.529.164-.237.294-.5.459-.781-3.05-.5-3.291-1.085-1.636-3.732,2.008-3.212,4-6.433,6.034-9.63,1.077-1.7,2.022-1.708,3.111-.061.9,1.354,1.611,2.844,2.626,4.1,1.373,1.693,1.162,3.092-.478,4.6l-3.631-5.7L15.65,43.129c.382.449.822.246,1.2.3,1.575.229,2.046,1.174,1.141,2.53-1.63,2.442-3.337,4.833-5.049,7.3.555.444,1.105.255,1.6.277.892.039,1.867-.152,2.358.889.457.968-.258,1.587-.754,2.239-2.077,2.728-4.175,5.441-6.261,8.162-.357.466-.69.95-1.251,1.725,1.324,0,2.373,0,3.421,0,.788,0,1.619-.063,2.046.794.413.83-.033,1.487-.509,2.143Q9.509,75.11,5.458,80.753a3.213,3.213,0,0,0-.914,1.668" transform="translate(-0.001 -20.316)" fill="#fff"/>
        <path id="Trazado_730587" data-name="Trazado 730587" d="M99.555,43.364c-1.423-2.262-2.742-4.389-4.093-6.5-.615-.959-.863-.05-1.093.3-.948,1.457-1.847,2.946-2.774,4.437-2.035-1.958-2.06-2.135-.661-4.374.86-1.376,1.694-2.771,2.59-4.123.98-1.479,1.994-1.539,2.914-.1q3.454,5.39,6.786,10.859c.976,1.606.383,2.309-2.3,2.688,1.522,2.18,3.019,4.267,4.45,6.4.537.8,1.556,1.513.965,2.7s-1.758.764-2.733.848c-.275.024-.551.043-1.121.087l6.811,8.883q.494.645.984,1.292c.451.592.845,1.19.392,1.967a1.711,1.711,0,0,1-1.7.779c-1.14-.013-2.28,0-3.445,0-.09.845.523,1.253.88,1.757,2.639,3.732,5.31,7.44,7.966,11.16.452.633,1,1.258.547,2.125-.443.847-1.246.819-2.038.817-1.625,0-3.25,0-4.874,0-2.8,0-2.8,0-4.336-2.763H110.5c.107-.935-.508-1.342-.865-1.845-2.644-3.728-5.325-7.43-7.982-11.149-.445-.623-1.014-1.224-.586-2.118.466-.972,1.332-.876,2.173-.877.96,0,1.92,0,3.042,0a12.1,12.1,0,0,0-2.138-3.129c-1.7-2.26-3.432-4.493-5.158-6.732-.552-.715-1.251-1.4-.694-2.405.508-.921,1.429-.718,2.254-.738.479-.012.959,0,1.829,0C100.56,51,98.893,48.624,97.24,46.237c-.716-1.034-.914-2.032.489-2.639a7.453,7.453,0,0,1,1.826-.234" transform="translate(-57.357 -20.38)" fill="#fff"/>
        <path id="Trazado_730588" data-name="Trazado 730588" d="M79.685,171.369c.6,0,1.2.039,1.8-.008,1.071-.085,1.754-.017,1.749,1.446,0,1.428-.624,1.525-1.728,1.475-1.5-.068-3.007-.079-4.5,0-1.136.062-1.109-.605-1.059-1.366.047-.713-.312-1.665,1.037-1.561.9.069,1.8.013,2.7.012" transform="translate(-48.408 -109.238)" fill="#fff"/>
        <path id="Trazado_730589" data-name="Trazado 730589" d="M62.81,172.83c.312,1.3-.391,1.411-1.473,1.47-1.329.073-1.377-.56-1.425-1.594-.055-1.18.412-1.367,1.455-1.379,1.147-.013,1.732.259,1.442,1.5" transform="translate(-38.195 -109.232)" fill="#fff"/>
        <path id="Trazado_730590" data-name="Trazado 730590" d="M153.427,41.936c-6.437-.012-12.466-5.859-12.686-12.274-.049-1.433.619-2,1.983-1.827a13.929,13.929,0,0,1,4.98,1.519c1.151.635,1.727.671,2.14-.761a11.539,11.539,0,0,1,2.1-3.767c1.033-1.335,1.869-1.352,2.892-.041a13.8,13.8,0,0,1,2.257,4.092c.315.939.693,1.194,1.645.661a15.01,15.01,0,0,1,5.3-1.7c1.329-.186,2.079.3,2.032,1.769-.207,6.42-6.263,12.338-12.637,12.326m1.8-3.38a8.5,8.5,0,0,0,7.373-7.392,9.332,9.332,0,0,0-7.373,7.392m-3.64.121c-1.117-4.434-4-7.171-7.534-7.285a9.382,9.382,0,0,0,7.534,7.285m1.834-4.112c1.93-2.442,1.892-4.218-.178-6.344-1.213,2.131-2.3,4.217.178,6.344" transform="translate(-89.729 -15.183)" fill="#fff"/>
      </g>
    </g>
  </g>
</svg>
