<svg xmlns="http://www.w3.org/2000/svg" xmlns:xlink="http://www.w3.org/1999/xlink" width="118" height="118" viewBox="0 0 118 118">
  <defs>
    <clipPath id="clip-path">
      <rect id="Rectángulo_345262" data-name="Rectángulo 345262" width="98.08" height="98.11" fill="none"/>
    </clipPath>
  </defs>
  <g id="Grupo_997447" data-name="Grupo 997447" transform="translate(-23398 9154.374)">
    <circle id="Elipse_5934" data-name="Elipse 5934" cx="59" cy="59" r="59" transform="translate(23398 -9154.374)" fill="#06d1d1"/>
    <g id="Grupo_984692" data-name="Grupo 984692" transform="translate(23407.541 -9144.057)">
      <g id="Grupo_984691" data-name="Grupo 984691" clip-path="url(#clip-path)">
        <path id="Trazado_726003" data-name="Trazado 726003" d="M73.475,15.706a7.269,7.269,0,0,1,2.091.547c1.418.809,2.279.243,3.277-.772Q86.007,8.2,93.282,1.032c1.318-1.3,3-1.351,4.065-.254s.921,2.688-.358,4.072c-.345.374-.714.726-1.074,1.086-4.41,4.41-8.8,8.843-13.247,13.213-1.052,1.033-1.548,1.856-.85,3.436,1.2,2.723.362,5.258-1.618,7.368-1.784,1.9-3.648,3.732-5.529,5.539a1.943,1.943,0,0,0-.586,2.482c1.743,4.313.718,8.088-2.521,11.328-9.538,9.541-19.05,19.109-28.651,28.588-1.392,1.375-1.415,2.175.016,3.474,2.221,2.016,2.466,3.495,1.169,4.854q-1.92,2.014-5.063-1.113c-4.552-4.538-9.135-9.046-13.626-13.644-1.18-1.209-1.943-1.411-3.205-.072-2.966,3.148-6.064,6.175-9.165,9.193-.954.928-.954,1.581.009,2.5,3.919,3.725,2.593,3.6,6.259.091,1.24-1.189,2.4-2.459,3.676-3.612,1.454-1.317,3.006-1.357,4.078-.226a2.89,2.89,0,0,1-.326,4.1c-1.855,1.924-3.741,3.82-5.67,5.669-.784.751-.8,1.306.005,2.024a25.22,25.22,0,0,1,2.28,2.307c1.19,1.371,1.222,2.883.059,3.912a2.623,2.623,0,0,1-3.795-.086c-1.65-1.492-3.192-3.1-4.768-4.678Q8.229,85.965,1.624,79.34A7.292,7.292,0,0,1,.415,77.877a2.51,2.51,0,0,1,.469-3.3,2.349,2.349,0,0,1,3.3-.188,29.754,29.754,0,0,1,2.907,2.75c.63.65,1.114.63,1.746-.008q5.1-5.156,10.263-10.256c.807-.794.4-1.285-.2-1.882q-3.118-3.092-6.193-6.226A7.13,7.13,0,0,1,11.4,57.14a2.484,2.484,0,0,1,.449-3.152,2.466,2.466,0,0,1,3.313-.283,7.929,7.929,0,0,1,1.154.993c2.291,2.26,1.889,2.36,4.223.027q13.908-13.9,27.812-27.807c5.122-5.117,10.719-5.1,15.871.033,1.488,1.482,3,2.938,4.444,4.465.8.848,1.418,1.082,2.328.1,1.6-1.724,3.3-3.357,4.978-5.01,1.353-1.335.831-2.443-.3-3.592-1.924-1.951-2.5-2.12-3.978-.944a15.624,15.624,0,0,1-1.335,1.074,2.4,2.4,0,0,1-3.287-.393,2.391,2.391,0,0,1-.311-3.3,8.279,8.279,0,0,1,6.716-3.648M47.2,49.131a2.7,2.7,0,0,1-4.64,1.636c-1.387-1.311-2.765-2.638-4.055-4.042-.87-.947-1.507-.864-2.328.039-1.068,1.176-2.208,2.292-3.371,3.376-.834.777-.87,1.407-.01,2.207,1.3,1.212,2.549,2.49,3.781,3.777,1.376,1.437,1.476,3.109.3,4.2-1.113,1.037-2.687.9-4.065-.428q-2-1.916-3.915-3.913a1.139,1.139,0,0,0-1.923,0c-1.1,1.147-2.194,2.312-3.387,3.36-1.053.926-1.082,1.586-.036,2.605q6.356,6.2,12.554,12.552c1,1.029,1.608,1,2.607-.008q14.462-14.559,29-29.046c2.479-2.485,2.468-4.774,0-7.293-2.361-2.408-4.761-4.778-7.148-7.16-3.4-3.389-5.422-3.314-8.806.182-.845.873-.983,1.445-.021,2.312,1.369,1.233,2.656,2.564,3.916,3.911,1.3,1.388,1.349,2.74.259,3.9-1.14,1.211-2.588,1.187-4.031-.167-1.392-1.306-2.74-2.66-4.055-4.042-.658-.692-1.179-.82-1.887-.07q-1.768,1.873-3.646,3.642c-.846.8-.8,1.451.022,2.23,1.248,1.18,2.438,2.42,3.649,3.64a3.5,3.5,0,0,1,1.236,2.6" transform="translate(0 0)"/>
        <path id="Trazado_726004" data-name="Trazado 726004" d="M226.248,100.34a9.238,9.238,0,1,1-17.417-4.119c1.811-3.357,3.786-6.631,5.809-9.866,1.345-2.151,3.536-2.112,4.893.074,1.979,3.188,3.85,6.444,5.719,9.7a7.389,7.389,0,0,1,1,4.211m-9.184,3.975a3.82,3.82,0,0,0,3.349-5.689c-.764-1.595-1.767-3.073-2.638-4.618-.419-.744-.87-.954-1.364-.118a50.309,50.309,0,0,0-2.894,5.124,3.771,3.771,0,0,0,3.547,5.3" transform="translate(-128.188 -52.302)"/>
      </g>
    </g>
  </g>
</svg>
