<svg xmlns="http://www.w3.org/2000/svg" xmlns:xlink="http://www.w3.org/1999/xlink" width="118" height="118" viewBox="0 0 118 118">
  <defs>
    <clipPath id="clip-path">
      <rect id="Rectángulo_349678" data-name="Rectángulo 349678" width="97.52" height="84.659" fill="#fff"/>
    </clipPath>
  </defs>
  <g id="Grupo_997399" data-name="Grupo 997399" transform="translate(1837 9950)">
    <circle id="Elipse_5901" data-name="Elipse 5901" cx="59" cy="59" r="59" transform="translate(-1837 -9950)" fill="#b20d0d"/>
    <g id="Grupo_997267" data-name="Grupo 997267" transform="translate(-1822.937 -9933.33)">
      <g id="Grupo_997266" data-name="Grupo 997266" clip-path="url(#clip-path)">
        <path id="Trazado_731645" data-name="Trazado 731645" d="M50.306,30.828a4.937,4.937,0,0,1,1.873-3.783c.689-.606.657-1.059.01-1.689A19.793,19.793,0,0,1,48.4,20.147c-.284-.556-.739-1.243-.616-1.75.488-2.019-.892-3-2.038-4.139q-5.6-5.573-11.2-11.141c-.8-.791-1.672-1.668-.538-2.708,1.048-.962,1.842-.018,2.567.7C40.582,5.085,44.6,9.051,48.588,13.053a3.384,3.384,0,0,0,2.761,1.176c2.355-.057,4.172,1.488,5.795,2.95,1.681,1.514,2.814,2.407,4.942.374,1.769-1.69,4.527-1.014,6.511.944,3.748,3.7,7.456,7.44,11.181,11.164q8.953,8.95,17.894,17.912c.82.825,1.322,1.353,2.548.326,1.891-1.584,4.324-1.1,6.112.838a4.445,4.445,0,0,1,.148,6.2c-1.271,1.414-2.635,2.75-4.027,4.047-.748.7-.918,1.169-.063,1.946,1.5,1.365,2.929,2.815,4.309,4.3.7.759,1.193.72,1.809-.041a14.657,14.657,0,0,1,1.338-1.353c2.221-2.109,4.807-2.092,6.888.039,1.992,2.04,1.958,4.579-.117,6.745q-1.383,1.443-2.84,2.812a1.412,1.412,0,1,1-2-2c.912-.97,1.873-1.894,2.808-2.843a1.758,1.758,0,0,0-.012-2.815,1.674,1.674,0,0,0-2.657.056Q105.664,72.1,99.4,78.353a1.7,1.7,0,0,0-.089,2.669,1.738,1.738,0,0,0,2.807.041c1.482-1.48,2.97-2.953,4.444-4.44.739-.746,1.535-1.265,2.441-.336.833.855.333,1.62-.348,2.3-1.57,1.571-3.1,3.185-4.724,4.7a4.79,4.79,0,0,1-6.715-6.817c2.416-2.656,2.439-2.679-.1-5.153-1.16-1.13-2.177-3.18-3.56-3.084-1.208.084-2.291,1.992-3.426,3.1-.5.487-.972,1-1.491,1.469a4.533,4.533,0,0,1-6.351-.006c-2-1.831-2.4-4.241-.743-6.269.882-1.078.464-1.528-.272-2.261Q70.677,53.724,60.124,43.143c-.314-.314-.634-.623-.934-.949a1.4,1.4,0,0,1-.126-2.045,1.351,1.351,0,0,1,2.162.076c2.211,2.186,4.477,4.323,6.579,6.611,1.105,1.2,1.743,1.3,2.935.04,3.264-3.461,6.642-6.82,10.091-10.1,1.233-1.172.372-1.69-.356-2.343-.7-.628-1.218-2.01-2.483-.522-1.106,1.3-2.406,2.437-3.613,3.653-.688.693-1.48,1.171-2.313.377-.912-.87-.428-1.712.321-2.455,1.262-1.251,2.513-2.513,3.772-3.766,1.439-1.431-.433-1.735-.9-2.458-.406-.633-.969-1.4-1.874-.32a38.415,38.415,0,0,1-2.813,2.837c-.665.645-1.416.913-2.172.17s-.522-1.493.126-2.171,1.367-1.327,2.006-2.03c.5-.547,1.607-1.1,1.361-1.645a7.683,7.683,0,0,0-2.164-2.341c-.563-.479-.894.212-1.223.53-1.275,1.237-2.518,2.507-3.779,3.758-.707.7-1.53,1.053-2.325.241-.815-.831-.362-1.616.335-2.307,1.126-1.117,2.282-2.209,3.347-3.381.408-.448,1.459-.759.883-1.613a2.625,2.625,0,0,0-2.734-1.349A3.4,3.4,0,0,0,62.5,20.756c-2.734,2.74-5.487,5.461-8.205,8.218-1.629,1.651-1.59,2.648.061,4.365.7.731,1.439,1.433,2.1,2.2a1.236,1.236,0,0,1-.058,1.732,1.32,1.32,0,0,1-1.55.4c-1.805-.625-4.571-4.663-4.546-6.841M97.165,51.209c-.552-.607-.754-.849-.975-1.071-2.642-2.646-5.318-5.26-7.912-7.953-.731-.759-1.085-.421-1.658.113-.9.841-1.722,1.588-.221,2.622a9.779,9.779,0,0,1,1.08,1.068c.726.692,1.088,1.5.325,2.318-.8.861-1.562.4-2.3-.256-2.446-2.188-2.457-2.176-4.731.116a3.784,3.784,0,0,1-.4.4c-.894.66-.771,1.22,0,1.957,1.974,1.878,3.87,3.838,5.8,5.765,2.772,2.769,2.73,2.727,5.461.029.9-.892.906-1.419-.033-2.224-.837-.719-1.994-1.617-.756-2.8,1.111-1.066,1.929,0,2.7.755a2.144,2.144,0,0,0,.272.265c.376.252.594.958,1.231.506.717-.509,1.4-1.06,2.122-1.607M85.4,71.246c.869.013,1.355-.61,1.886-1.141q8.2-8.187,16.4-16.373c1.005-1,1.688-1.97.392-3.2s-2.242-.43-3.211.548c-3.43,3.463-6.89,6.9-10.337,10.344-2.1,2.1-4.2,4.22-6.315,6.308a1.784,1.784,0,0,0-.563,2.206A2.23,2.23,0,0,0,85.4,71.246m19.945-3.214c.015-.317-.366-.507-.613-.763-.789-.818-1.606-1.609-2.409-2.413-3.065-3.067-3.041-3.046-5.946.186-.561.625-.547.953.026,1.5,1.548,1.488,3.043,3.03,4.569,4.54.257.254.468.618.925.551a20.284,20.284,0,0,0,3.447-3.6M77.218,51.541a26.935,26.935,0,0,0-1.892,2.146c-.429.6.288.876.6,1.189,2.528,2.565,5.137,5.052,7.6,7.674.976,1.038,1.441.429,2.066-.239s1.534-1.123.361-2.225c-2.623-2.465-5.116-5.067-7.667-7.609-.26-.26-.553-.487-1.068-.937m-4.292.268a4.493,4.493,0,0,0,.522-.375q5.767-5.756,11.532-11.515c.7-.7-.05-.962-.359-1.341-.434-.534-.827-.828-1.5-.142-3.675,3.739-7.4,7.427-11.106,11.136-.3.3-.765.587-.3,1.082.38.408.809.771,1.217,1.155M57.581,21.628a2.3,2.3,0,0,0-.281-.548A18.762,18.762,0,0,0,51.939,17.2a.915.915,0,0,0-1.065.129.977.977,0,0,0-.079,1.234,17.284,17.284,0,0,0,2.9,4.214c.43.457.78,1.5,1.541,1.052a13.758,13.758,0,0,0,2.345-2.2" transform="translate(-20.682 0)" fill="#fff"/>
        <path id="Trazado_731646" data-name="Trazado 731646" d="M15.254,85a7.726,7.726,0,0,1-7.627,7.632c-.932-.032-1.861-.2-1.905-1.386-.042-1.147.74-1.433,1.749-1.524,4.218-.384,5.953-3.445,4.115-7.206a38.4,38.4,0,0,0-3.229-5.143c-.49-.7-.881-.781-1.409-.028a35.34,35.34,0,0,0-3.637,6,5.44,5.44,0,0,0-.192,3.35A1.354,1.354,0,0,1,2.09,88.46c-.882.2-1.416-.33-1.7-1.142a6.267,6.267,0,0,1,.051-4.464A33.47,33.47,0,0,1,6.06,73.877c.793-.974,1.98-1.266,2.82-.3,2.746,3.163,5.271,6.5,6.324,10.678a3.18,3.18,0,0,1,.05.75" transform="translate(0 -45.108)" fill="#fff"/>
        <path id="Trazado_731647" data-name="Trazado 731647" d="M26,42.462a5.778,5.778,0,0,1-5.379-7.985,22.494,22.494,0,0,1,3.744-5.921,2,2,0,0,1,3.379.042,22.691,22.691,0,0,1,3.723,5.934A5.778,5.778,0,0,1,26,42.462m.02-11.256a14.576,14.576,0,0,0-2.759,4.364,2.69,2.69,0,0,0,.947,3.391,2.793,2.793,0,0,0,3.681-.029,2.673,2.673,0,0,0,.909-3.391,14.407,14.407,0,0,0-2.778-4.335" transform="translate(-12.473 -17.085)" fill="#fff"/>
      </g>
    </g>
  </g>
</svg>
