<svg id="Grupo_997211" data-name="Grupo 997211" xmlns="http://www.w3.org/2000/svg" xmlns:xlink="http://www.w3.org/1999/xlink" width="214.522" height="165.593" viewBox="0 0 214.522 165.593">
  <defs>
    <clipPath id="clip-path">
      <rect id="Rect치ngulo_349641" data-name="Rect치ngulo 349641" width="214.522" height="165.593" fill="none"/>
    </clipPath>
  </defs>
  <g id="Grupo_997210" data-name="Grupo 997210" clip-path="url(#clip-path)">
    <path id="Trazado_730816" data-name="Trazado 730816" d="M451.169,421.257a13.388,13.388,0,0,1-1.779-3.744,16.145,16.145,0,0,1,1.779,3.744" transform="translate(-345.189 -320.704)" fill="#f7ca68"/>
    <path id="Trazado_730817" data-name="Trazado 730817" d="M394.785,383.424c.048-.188.206-.281.351-.21a118.586,118.586,0,0,1,11.557,6.755l1.429.907.171.054c-3.52-2.482-7-6.514-10.211-9.327l11.89,5.249a17.8,17.8,0,0,0-.757-3.278,9.528,9.528,0,0,0,5.767,4.174q-.214-3.618-.427-7.236l4.133,5.066a22.389,22.389,0,0,0-.118-6.488c2.282.545,3.27,4.191,5.156,6.029,2.979,2.9,7.84-.917,7.123-5.6l3.773,4.742q.438-6.125.876-12.25c.455,3.7,1.087,7.373,1.882,10.995l-.332-12.085c-.005-.2.114-.361.269-.358a.348.348,0,0,1,.289.368l.407,14.812q.218.893.45,1.781a24.127,24.127,0,0,0,4.45-10.138l2.018,7.712a35.241,35.241,0,0,1,3.751-9.844l2.273,9.316c.156-.329.3-.662.455-1l2.142-14.842c.028-.2.173-.314.325-.269a.394.394,0,0,1,.223.437L452.268,381.6a66.894,66.894,0,0,0,3.135-9.715,79.854,79.854,0,0,1,1.784,12.74,20.855,20.855,0,0,0,10.723-9.107l1.1,7.938a24.613,24.613,0,0,0,5.348-9.143,36.77,36.77,0,0,0,7.006,11.566l6.872-13.2a33.6,33.6,0,0,1,3.3,9.269,14.47,14.47,0,0,0,3.347-7.773l2.978,7.752c.244.635.539,1.331,1.052,1.564a.888.888,0,0,0,.4.078,50.3,50.3,0,0,1,6.192-6.661.244.244,0,0,1,.391.089.432.432,0,0,1-.049.505,59.614,59.614,0,0,0-5.264,5.479l8.7-5.868a11.305,11.305,0,0,1-.006,4.779,72.624,72.624,0,0,1,6.611-7.4.244.244,0,0,1,.392.085.433.433,0,0,1-.046.506,67.163,67.163,0,0,0-4.853,5.24,13.058,13.058,0,0,1,6.371-3.04,12,12,0,0,1-5.013,9.3c-2.534,1.784-5.456,2.454-8.344,3.041l-.56.806a.245.245,0,0,1-.178.112.253.253,0,0,1-.215-.1.446.446,0,0,1-.029-.513l.086-.124c-18.3,3.692-36.746,7.359-55.425,6.344-8.911-.484-17.8-2.048-26.71-2.676-1.625-.115-3.251-.061-4.854-.1.451.118.906.226,1.361.333-1.184.013-2.366-.291-3.549-.218-1.292-.368-2.577-.75-3.845-1.146q.56.346,1.125.688c-.636-.138-1.272-.269-1.908-.384q-.876-.546-1.743-1.1a93.227,93.227,0,0,0-11.132-2.942.375.375,0,0,1-.253-.41c.014-.2.149-.338.3-.309a79.777,79.777,0,0,1,8.828,2.228,110.624,110.624,0,0,0-10.738-6.238.417.417,0,0,1-.179-.468" transform="translate(-303.235 -283.021)" fill="#f7ca68"/>
    <path id="Trazado_730818" data-name="Trazado 730818" d="M707.526,386.953a24.493,24.493,0,0,0,1.681-9.994c0-.02,0-.039,0-.059-.012-.2-.028-.4-.046-.592,0-.029-.006-.057-.009-.086q-.028-.28-.065-.553l-.013-.094q-.038-.27-.086-.534c-.005-.029-.01-.058-.015-.087q-.051-.275-.112-.541l-.012-.055a10.886,10.886,0,0,0-.523-1.666c-.007-.018-.016-.035-.023-.052q-.092-.22-.193-.43c-.02-.042-.042-.083-.064-.125-.057-.112-.115-.223-.175-.33-.028-.05-.058-.1-.087-.148-.057-.095-.115-.188-.175-.278-.034-.052-.07-.1-.105-.152-.059-.084-.12-.165-.182-.244-.039-.049-.078-.1-.119-.147-.063-.075-.128-.147-.194-.218-.042-.046-.085-.092-.128-.135-.069-.069-.141-.134-.213-.2-.044-.039-.087-.08-.132-.117-.08-.067-.164-.129-.249-.19-.04-.029-.079-.061-.12-.089a4.5,4.5,0,0,0-.393-.24c-.1-.052-.2-.1-.3-.142s-.182-.075-.275-.108h0c-4.009-1.437-11.231,2.577-14.7,8.99a18.421,18.421,0,0,0-1.689,4.23h0c-.062.247-.115.492-.163.734-.01.053-.019.105-.029.158q-.055.294-.095.584c-.007.049-.014.1-.02.146-.03.236-.054.469-.07.7,0,.018,0,.035,0,.052-.013.209-.02.416-.022.621,0,.053,0,.107,0,.16,0,.193.007.384.018.572,0,.029,0,.058,0,.086q.022.325.065.641c.005.039.012.078.018.118q.038.258.089.51c.01.048.019.1.03.143a8.677,8.677,0,0,0,.343,1.167c.017.044.034.088.051.132q.09.229.192.45c.017.036.032.073.05.109.086.179.178.354.276.526.013.023.027.044.04.067q.13.222.274.434l.084.121c.1.143.205.284.315.421l.04.051c.126.153.258.3.395.446.03.031.06.061.091.092q.169.173.35.338l.106.1c.152.134.309.265.473.39a9.414,9.414,0,0,0,1.248.8c5.041,2.724,11.782.642,14.564-6.485" transform="translate(-528.787 -283.483)" fill="#f08f4a"/>
    <path id="Trazado_730819" data-name="Trazado 730819" d="M731.066,376.968a.221.221,0,0,1-.145-.387c.1-.083,2.364-2.03,4.8-1.745a.221.221,0,1,1-.051.438c-2.238-.259-4.435,1.621-4.457,1.64a.221.221,0,0,1-.145.054" transform="translate(-561.383 -287.9)" fill="#ffe09c"/>
    <path id="Trazado_730820" data-name="Trazado 730820" d="M792.786,394.395a24.49,24.49,0,0,0,6.245-7.981l.025-.053q.127-.272.242-.543l.033-.079q.109-.26.207-.518l.033-.088q.1-.257.18-.511l.028-.083q.086-.265.16-.528l.016-.054a10.873,10.873,0,0,0,.336-1.714c0-.019,0-.038,0-.057.016-.158.029-.315.036-.47,0-.047,0-.094,0-.141,0-.125.006-.25,0-.373,0-.058,0-.115-.007-.172,0-.11-.011-.22-.021-.328-.006-.062-.013-.123-.02-.184q-.018-.152-.044-.3c-.01-.062-.022-.125-.034-.186-.019-.1-.042-.191-.067-.285-.016-.06-.031-.121-.048-.18-.028-.094-.06-.185-.093-.277-.02-.056-.038-.112-.06-.167-.039-.1-.083-.192-.128-.285-.022-.045-.04-.091-.063-.135a4.551,4.551,0,0,0-.231-.4c-.06-.092-.125-.18-.194-.267s-.124-.152-.191-.226h0c-2.838-3.176-11.1-3.093-17.206.89a18.419,18.419,0,0,0-3.5,2.912h0c-.173.187-.336.377-.494.567l-.1.125q-.188.233-.362.468c-.029.039-.059.079-.087.118-.139.193-.271.386-.395.581l-.027.045c-.112.178-.216.356-.316.535l-.076.14q-.137.255-.257.512c-.012.026-.026.051-.037.077q-.136.3-.249.594c-.014.038-.027.075-.041.113q-.09.245-.165.491c-.014.047-.029.093-.042.14a8.684,8.684,0,0,0-.255,1.189c-.007.047-.012.094-.018.141q-.03.244-.046.487c0,.04-.006.079-.008.119-.01.2-.013.4-.009.594,0,.026,0,.052,0,.078.006.171.017.342.034.512q.007.073.016.147c.02.174.045.347.077.52,0,.021.007.043.01.064.037.195.083.388.134.581.011.042.024.083.035.125q.066.233.146.464c.016.045.031.091.047.136.07.191.145.381.229.569h0a9.46,9.46,0,0,0,.713,1.3c3.13,4.8,10.049,6.185,15.894,1.248" transform="translate(-595.641 -288.478)" fill="#f08f4a"/>
    <path id="Trazado_730821" data-name="Trazado 730821" d="M850.139,382.422a.219.219,0,0,1-.127-.04c-1.845-1.3-4.671-.691-4.7-.684a.221.221,0,0,1-.1-.431c.123-.027,3.046-.655,5.049.755a.221.221,0,0,1-.127.4" transform="translate(-649.102 -292.737)" fill="#ffe09c"/>
    <path id="Trazado_730822" data-name="Trazado 730822" d="M526.7,413.529a9.943,9.943,0,0,0-4.859.321,10.154,10.154,0,0,0,3.719-2.766l-2.344.4a3.461,3.461,0,0,1,1.488-3.7l-3.653,3.8,1.1-6.543-1,4.224q-.3-4.223-.6-8.446l-5.682,12.224a17.7,17.7,0,0,1-.593-7.494,14.482,14.482,0,0,1-5.734,8.536l-.716-6.449c.249,2.614-1.478,5.4-3.581,5.327s-3.685-3.548-2.424-5.655c-.935,1.953-2.01,4.051-3.737,4.768a2.869,2.869,0,0,1-3.651-3.241c-.919,2-2.625,4.329-4.251,3.236-.476-.32-.835-.905-1.354-1.095-.993-.362-1.867.86-2.845,1.281-3.2,1.38-5.467-5.834-8.8-5.071q-.019,3.2-.038,6.391c-1.7.947-3.759.058-5.107-1.541a19.038,19.038,0,0,1-2.892-5.9q-.086,3.039-.172,6.078l-7.669-5.4q-.179,2.887-.358,5.775a21.58,21.58,0,0,1-8.832-5.3c-.37,3.9-4.492,5.232-7.553,4.38s-6.078-2.912-9.151-2.135l.007,4.631-11.7-3.46,1.835,3.9L410.8,409.827c-.44,1.945.7,3.907,1.989,5.126s2.829,2.115,3.772,3.755c.66,1.148,1,2.623,1.9,3.48a4.4,4.4,0,0,0,2.771.958,490.359,490.359,0,0,0,54.578,2.3q13.656-.185,27.3-1.132c4.026-.279,7.626-.195,11.226-2.3,4.223-2.473,8.271-5.687,12.366-8.486" transform="translate(-315.472 -307.88)" fill="#ffe09c"/>
    <rect id="Rect치ngulo_349640" data-name="Rect치ngulo 349640" width="110.722" height="43.937" transform="translate(97.992 108.908)" fill="#d49f74"/>
    <path id="Trazado_730823" data-name="Trazado 730823" d="M449.816,600.041H448.8a.221.221,0,1,1,0-.441c4.282,0,8.666,0,13.405-.017h0a.221.221,0,0,1,0,.442c-4.366.012-8.432.017-12.392.017" transform="translate(-344.568 -460.556)" fill="#382118"/>
    <path id="Trazado_730824" data-name="Trazado 730824" d="M559.569,599.175q-.951,0-1.9-.007a.221.221,0,0,1,0-.441h0c3.746.029,7.508-.036,11.146-.1,4.626-.08,9.409-.162,14.171-.051a.221.221,0,0,1,.215.226.223.223,0,0,1-.226.216c-4.752-.111-9.531-.029-14.152.051-3.026.052-6.137.106-9.255.106" transform="translate(-428.192 -459.742)" fill="#382118"/>
    <path id="Trazado_730825" data-name="Trazado 730825" d="M699.214,598.493a.221.221,0,0,1,0-.441c14.914-.155,30.1-.155,44.79-.155a.221.221,0,0,1,0,.442c-14.687,0-29.874,0-44.785.155Z" transform="translate(-536.916 -459.262)" fill="#382118"/>
    <path id="Trazado_730826" data-name="Trazado 730826" d="M479.886,531.321h-.752a.221.221,0,0,1,0-.441h0c2.195,0,9.882-.02,17.317-.046,7.19-.025,13.98-.048,16.053-.044a.221.221,0,1,1,0,.441h0c-2.071,0-8.861.019-16.05.044-6.743.023-13.694.047-16.568.047" transform="translate(-367.867 -407.714)" fill="#382118"/>
    <path id="Trazado_730827" data-name="Trazado 730827" d="M672.016,531.818c-6.072,0-12.437,0-19.222-.015a.221.221,0,0,1,0-.441h0c17.7.026,32.561.018,46.752-.025h0a.221.221,0,0,1,0,.442c-8.753.026-17.76.04-27.531.04" transform="translate(-501.26 -408.135)" fill="#382118"/>
    <path id="Trazado_730828" data-name="Trazado 730828" d="M317.806,549.658c.791,9.846,8.874,16.571,10.413,19.649,1.066,2.132-1.272,2.147-2.077,2.378-11.123,3.2-10.054,5.619-10.363,5.879-.324.273,10.427-2.243,10.427-2.243-.558,3.256,4.749,3.269,4.749,3.269a5.715,5.715,0,0,1,5.427,3.348c1.1-2.312-2.567-5.436-2.567-5.436,19.981-1.6,18.419,2.878,18.419,2.878,1.034-6.076-14.422-5.81-14.422-5.81,5.863-1.066,8.586.2,8.586.2-2.99-2.866-13.742-2.086-13.742-2.086-4.86-13.665-7.668-21.121-7.668-21.121Z" transform="translate(-242.553 -422.208)" fill="#ecc362"/>
    <path id="Trazado_730829" data-name="Trazado 730829" d="M313.351,666.445a14.9,14.9,0,0,0,1.555-.874,2.172,2.172,0,0,0-.8-1.23c-1.731,2.3-.535,1.92-.753,2.1" transform="translate(-240.539 -510.299)" fill="#a6513c"/>
    <path id="Trazado_730830" data-name="Trazado 730830" d="M400.912,683.213A2.2,2.2,0,0,0,401,681.5a5,5,0,0,0-1.214.139,2.667,2.667,0,0,1,1.131,1.57" transform="translate(-307.083 -523.482)" fill="#a6513c"/>
    <path id="Trazado_730831" data-name="Trazado 730831" d="M473.028,677.831v0" transform="translate(-363.346 -520.661)" fill="#a6513c"/>
    <path id="Trazado_730832" data-name="Trazado 730832" d="M469.889,670.954a2.616,2.616,0,0,0-.033-2.076c-.417.049-.619.614-.916.805,1.246.588.971,1.225.949,1.271" transform="translate(-360.206 -513.784)" fill="#a6513c"/>
    <path id="Trazado_730833" data-name="Trazado 730833" d="M439.186,649.817c0,.006,0,.011,0,.016a11.144,11.144,0,0,1,2.009.315,4.284,4.284,0,0,0-1.4-1.058.927.927,0,0,0-.608.727" transform="translate(-337.351 -498.585)" fill="#a6513c"/>
    <path id="Trazado_730834" data-name="Trazado 730834" d="M253.2,571.494c.791,9.846,5.676,17.37,7.216,20.448,1.066,2.132-1.272,2.147-2.077,2.378-11.123,3.2-10.054,5.619-10.363,5.879-.324.273,10.427-2.243,10.427-2.243-.558,3.256,4.749,3.269,4.749,3.269a5.715,5.715,0,0,1,5.427,3.348c1.1-2.312-2.567-5.436-2.567-5.436,19.981-1.6,18.419,2.878,18.419,2.878,1.034-6.076-14.422-5.809-14.422-5.809,5.863-1.066,8.586.2,8.586.2-2.99-2.865-13.742-2.086-13.742-2.086-4.86-13.664-4.471-21.92-4.471-21.92Z" transform="translate(-190.469 -438.981)" fill="#ecc362"/>
    <path id="Trazado_730835" data-name="Trazado 730835" d="M245.544,691.73a14.891,14.891,0,0,0,1.555-.874,2.171,2.171,0,0,0-.8-1.23c-1.731,2.3-.535,1.92-.753,2.1" transform="translate(-188.454 -529.721)" fill="#a6513c"/>
    <path id="Trazado_730836" data-name="Trazado 730836" d="M333.1,708.5a2.2,2.2,0,0,0,.083-1.709,5,5,0,0,0-1.214.139,2.667,2.667,0,0,1,1.131,1.57" transform="translate(-254.999 -542.904)" fill="#a6513c"/>
    <path id="Trazado_730837" data-name="Trazado 730837" d="M405.222,703.115v0" transform="translate(-311.262 -540.083)" fill="#a6513c"/>
    <path id="Trazado_730838" data-name="Trazado 730838" d="M402.082,696.238a2.616,2.616,0,0,0-.033-2.076c-.417.049-.619.615-.916.805,1.246.588.971,1.225.949,1.271" transform="translate(-308.122 -533.206)" fill="#a6513c"/>
    <path id="Trazado_730839" data-name="Trazado 730839" d="M371.379,675.1c0,.006,0,.011,0,.016a11.144,11.144,0,0,1,2.009.315,4.286,4.286,0,0,0-1.4-1.058.927.927,0,0,0-.608.727" transform="translate(-285.267 -518.006)" fill="#a6513c"/>
    <path id="Trazado_730840" data-name="Trazado 730840" d="M123.252,148.286a71.353,71.353,0,0,0-4.808-19.853,51.772,51.772,0,0,0-3.709-6.938,2.145,2.145,0,0,0-.234.407c0,.22-.44-.22-.44-.661-.881.22-.661,1.541-1.321,1.762-.881.22-1.1-1.762-1.762-1.762-1.1,0-.661,3.083-1.762,2.2-.881-.44-1.1-1.982-1.982-2.422-.441-.441-.22.881-.441,1.321-.881-.441-1.1-1.321-1.1-2.422-1.541.661-.44,3.523-1.762,3.083-1.1-.44-.881-2.642-1.762-3.964-.661,1.541-1.1,3.743-2.2,3.743-2.2.22-1.762-4.184-2.2-6.386-.441,1.321-.661,2.642-1.762,3.523-.661-1.982-.881-4.4-1.541-6.386,0,1.1-.881,2.2-.881,3.3-1.1-1.321-.661-2.863-1.1-4.4-1.1.881-1.982,2.2-3.3,2.643a33.175,33.175,0,0,1-.22-6.606c-.661.661-.661,1.762-1.762,2.2,0-1.1-.661-2.2-.44-3.523-.881,1.1-1.762,2.2-1.762,3.523V102.3c-1.1,1.1-1.541,2.642-2.422,3.964a3.364,3.364,0,0,1-.561-2.2c-.95,4.525-1.674,8.379-1.674,8.379-8.5,32.349-64.285-11.459-76.886-21.861A1.731,1.731,0,0,0,.621,91.85c-.354,9.069,3.5,12.067,3.5,12.067-9.86,2.665,1.066,26.648,1.066,26.648-4.53,11.725,7.195,20.253,7.195,20.253A46.215,46.215,0,0,1,22.957,167.44a44.2,44.2,0,0,0,3.635,7.716c10.864,18.089,22.4,23.773,27.023,25.411a10.924,10.924,0,0,1,4.549,3.067,27.144,27.144,0,0,1,3.047,4.148c8.147,5.725,12.992-3.523,12.992-3.523a8.551,8.551,0,0,1,.631-1.022,4.19,4.19,0,0,0,2.415.685,11.061,11.061,0,0,0,3.219-.676,7.528,7.528,0,0,0,2.751-1.3,6.8,6.8,0,0,0,1.764-4.065l.444-2.372a102.8,102.8,0,0,1,12.05-5.009,8.482,8.482,0,0,0,2.823-1.63c24.486-21.4,22.952-40.58,22.952-40.58" transform="translate(0 -69.274)" fill="#f08f4a"/>
    <path id="Trazado_730841" data-name="Trazado 730841" d="M403.313,8.047a12.554,12.554,0,0,1-1.773-2.156,5.108,5.108,0,0,1,.635-5.249c2.4-1.234,5.007-.454,7.354.37a4.587,4.587,0,0,0,2,.381c1.716-.185,3.678-2.134,4.933-.929.721.693.642,2.038,1,3.06a3.911,3.911,0,0,0,2.967,2.353c1.246.293,2.566.266,3.794.622a2.075,2.075,0,0,1,1.112.653,3.122,3.122,0,0,1,.486,1.45,23.72,23.72,0,0,1-.23,8.2c-3.4,1.01-6.687-.551-9.832-1.778-2.736-1.068-5.842-1.351-8.51-2.491-2.406-1.028-2.152-2.371-3.941-4.487" transform="translate(-308.081 0)" fill="#e34927"/>
    <path id="Trazado_730842" data-name="Trazado 730842" d="M354.231,60.524c.881-1.321,1.321-2.863,2.422-3.964v8.368c0-1.321.881-2.422,1.762-3.523-.22,1.321.44,2.422.44,3.523,1.1-.44,1.1-1.541,1.762-2.2a33.175,33.175,0,0,0,.22,6.606c1.321-.44,2.2-1.762,3.3-2.642.44,1.541,0,3.083,1.1,4.4,0-1.1.881-2.2.881-3.3.661,1.982.881,4.4,1.541,6.386,1.1-.881,1.321-2.2,1.762-3.523.44,2.2,0,6.606,2.2,6.386,1.1,0,1.541-2.2,2.2-3.744.881,1.321.661,3.523,1.762,3.964,1.321.441.22-2.422,1.762-3.083,0,1.1.22,1.982,1.1,2.422.22-.44,0-1.762.441-1.321.881.441,1.1,1.982,1.982,2.422,1.1.881.661-2.2,1.762-2.2.661,0,.881,1.982,1.762,1.762.661-.22.44-1.541,1.321-1.762,0,.44.44.881.44.661a2.15,2.15,0,0,1,.234-.407c-1.383-2.263-2.8-4.488-4.019-6.919-1.6-2.665-1.865-4-3.2-6.662-.533-.533-1.08-3.07-1.332-4a12.78,12.78,0,0,1-.267-6.129c.533-4.8,15.229-6.61,15.19-6.929-.021.194-4.946-9.518-9.311-12.079a17.5,17.5,0,0,0-12.482-2.006,15.978,15.978,0,0,0-8.053,4.758s-5.2,7.225-6.129,9.86a128.765,128.765,0,0,0-3.123,12.673,3.364,3.364,0,0,0,.561,2.2" transform="translate(-271.66 -23.53)" fill="#c96f4f"/>
    <path id="Trazado_730843" data-name="Trazado 730843" d="M458.6,59.135c-1.239-2.9-5.728-6.994-8.57-8.442a4.225,4.225,0,0,0-4.414.158c-1.216.714-2.558,1.851-4.073,1.366,1.743,1.038,2.487,3.081,3.911,4.448a10.828,10.828,0,0,0,5.8,2.607c-.082.469-2.578,1.651-2.98,1.9Z" transform="translate(-339.162 -38.519)" fill="#e34927"/>
    <path id="Trazado_730844" data-name="Trazado 730844" d="M463.934,61.773c.455.506,1.75-.293,1.75-.293,3.268-1.657,4.359,1.388,4.359,1.388a5.136,5.136,0,0,0,1.537,1.912,9.222,9.222,0,0,0-2.539.636,2.788,2.788,0,0,1-3.853-1.843,5.223,5.223,0,0,0-1.253-1.8" transform="translate(-356.361 -46.846)" fill="#382118"/>
    <path id="Trazado_730845" data-name="Trazado 730845" d="M475.377,64.917a1.349,1.349,0,1,1-1.828.886,1.443,1.443,0,0,1,1.828-.886" transform="translate(-363.714 -49.817)" fill="#f79854"/>
    <path id="Trazado_730846" data-name="Trazado 730846" d="M480.363,69.753a.573.573,0,1,1-.7.4.573.573,0,0,1,.7-.4" transform="translate(-368.424 -53.563)" fill="#382118"/>
    <path id="Trazado_730847" data-name="Trazado 730847" d="M463.982,289.174a1.026,1.026,0,0,1-.274.867,3.55,3.55,0,0,1-.706.612,8.887,8.887,0,0,1-1.611.98,2.271,2.271,0,0,1-.764.183,1.687,1.687,0,0,1-.694-.112.893.893,0,0,1-.432-.339,2.96,2.96,0,0,0-.371-.51,1.177,1.177,0,0,0-.542-.323,1.1,1.1,0,0,0-.725.061,1.69,1.69,0,0,0-.634.565,2.849,2.849,0,0,1-.254.291,2.6,2.6,0,0,1-.636.456,3.852,3.852,0,0,1-1.635.412,9.214,9.214,0,0,1-3.705-.951,7.151,7.151,0,0,0,1.589,1.341,5.282,5.282,0,0,0,2.049.75,4.4,4.4,0,0,0,2.285-.3,3.779,3.779,0,0,0,1.032-.656,4.11,4.11,0,0,0,.418-.457c.089-.129.183-.182.087-.123a.362.362,0,0,1-.234.017.257.257,0,0,1-.119-.061,3.36,3.36,0,0,1,.216.306,2.241,2.241,0,0,0,1.167.826,2.792,2.792,0,0,0,1.293.078,3.144,3.144,0,0,0,1.137-.442,6.7,6.7,0,0,0,1.568-1.471,3.486,3.486,0,0,0,.571-.934,1.533,1.533,0,0,0,.1-.554.888.888,0,0,0-.176-.507" transform="translate(-346.424 -222.123)" fill="#c96f4f"/>
    <path id="Trazado_730848" data-name="Trazado 730848" d="M366.767,233.169a1.321,1.321,0,0,1-1.386.835,2.847,2.847,0,0,1-.768-.2c-.258-.105-.527-.2-.771-.312a2.141,2.141,0,0,1-1.109-.936c-.049-.1-.095-.237-.162-.4a1.649,1.649,0,0,0-.344-.557.948.948,0,0,0-.7-.271,4.95,4.95,0,0,0-.5.058,4.024,4.024,0,0,1-4.265-3.653l-.109-.8-.638.326a3.1,3.1,0,0,1-1.68.329,2.851,2.851,0,0,1-1.579-.644,3.688,3.688,0,0,1-1.069-1.574,5.265,5.265,0,0,1-.293-2.186,5,5,0,0,0-.16,2.4,4.292,4.292,0,0,0,.972,2.11,3.481,3.481,0,0,0,1.891,1.1,3.683,3.683,0,0,0,2.253-.257l-.747-.477a5.425,5.425,0,0,0,1.864,3.681,4.168,4.168,0,0,0,3.623.938c.169-.034.291-.074.362-.08s.058-.011.09,0a.545.545,0,0,1,.152.2c.065.118.133.276.24.445a2.19,2.19,0,0,0,.768.74,3.564,3.564,0,0,0,.872.333c.292.07.569.128.859.168a3.321,3.321,0,0,0,.918.028,1.71,1.71,0,0,0,.909-.414,1.481,1.481,0,0,0,.509-.918" transform="translate(-269.731 -171.426)" fill="#c96f4f"/>
    <path id="Trazado_730849" data-name="Trazado 730849" d="M494.254,345.085a2.737,2.737,0,0,0,1.436,1.245,3.887,3.887,0,0,0,3.728-.48,2.725,2.725,0,0,0,1.071-1.571,13.509,13.509,0,0,1-1.6.558,10.9,10.9,0,0,1-1.462.294,10.589,10.589,0,0,1-1.489.089,13.158,13.158,0,0,1-1.686-.135" transform="translate(-379.651 -264.45)" fill="#c96f4f"/>
    <path id="Trazado_730850" data-name="Trazado 730850" d="M400.883,326.785a2.736,2.736,0,0,0,.688,1.772,3.889,3.889,0,0,0,3.52,1.318,2.726,2.726,0,0,0,1.681-.889,13.509,13.509,0,0,1-1.673-.253,10.906,10.906,0,0,1-1.43-.423,10.587,10.587,0,0,1-1.358-.617,13.151,13.151,0,0,1-1.427-.908" transform="translate(-307.929 -251.013)" fill="#c96f4f"/>
    <path id="Trazado_730851" data-name="Trazado 730851" d="M463.155,99.537a11.776,11.776,0,0,0,.033,5.025,14.571,14.571,0,0,1,.3,4.42,4.449,4.449,0,0,1-2.388,3.524,4.5,4.5,0,0,1-1.761.317,5.274,5.274,0,0,1-4.433-2.088,7.094,7.094,0,0,1-.847-2.068c-.656-2.365-1.014-4.963-.054-7.222a8.549,8.549,0,0,1,5.229-4.493,14.016,14.016,0,0,1,3.363-.662c.8-.065,2.384-.365,3.078.1-1.122.917-2.092,1.621-2.517,3.146" transform="translate(-348.279 -73.844)" fill="#e34927"/>
    <path id="Trazado_730852" data-name="Trazado 730852" d="M497.531,75.581c4.31.622,6.775,6.143,6.775,6.143-5.281-1.567-7.741-1.025-7.741-1.025-.567-.483-3.352.606-3.352.606a12.7,12.7,0,0,1,3.067-3.879,3.137,3.137,0,0,0,1.252-1.845" transform="translate(-378.85 -58.056)" fill="#ecc362"/>
    <path id="Trazado_730853" data-name="Trazado 730853" d="M512.608,79.961c-.048.162.138.36.416.443s.542.018.59-.144-.138-.36-.416-.443-.542-.018-.59.144" transform="translate(-393.743 -61.282)" fill="#382118"/>
    <path id="Trazado_730854" data-name="Trazado 730854" d="M31.7,169.68a.222.222,0,0,1-.14-.05,59.607,59.607,0,0,1-14.719-20.869.221.221,0,0,1,.406-.175,59.143,59.143,0,0,0,14.594,20.7.221.221,0,0,1-.14.392" transform="translate(-12.923 -114.031)" fill="#382118"/>
    <path id="Trazado_730855" data-name="Trazado 730855" d="M32.035,277.414a.22.22,0,0,1-.112-.03c-.187-.11-4.65-2.821-10.475-13.676a.221.221,0,1,1,.389-.209C27.6,274.245,32.1,276.976,32.147,277a.221.221,0,0,1-.112.411" transform="translate(-16.454 -202.311)" fill="#382118"/>
    <path id="Trazado_730856" data-name="Trazado 730856" d="M148.611,365.068a46.744,46.744,0,0,1-7.686-.629,45.587,45.587,0,0,1-13.62-4.572,51,51,0,0,1-11.966-8.749,64.476,64.476,0,0,1-9.988-12.7.221.221,0,0,1,.377-.229,64.034,64.034,0,0,0,9.919,12.613,50.555,50.555,0,0,0,11.862,8.674A45.147,45.147,0,0,0,141,364a47.927,47.927,0,0,0,14.627.121,59.746,59.746,0,0,0,15.452-4.49c.654-.286,1.317-.588,1.971-.9a.221.221,0,1,1,.189.4c-.658.312-1.325.615-1.983.9a60.193,60.193,0,0,1-15.566,4.522,50.34,50.34,0,0,1-7.076.506" transform="translate(-80.898 -259.692)" fill="#382118"/>
    <path id="Trazado_730857" data-name="Trazado 730857" d="M160.273,335.651c-11.3,0-23.5-3.45-36.343-10.28a.221.221,0,1,1,.207-.39c14.1,7.5,27.416,10.9,39.592,10.118a.224.224,0,0,1,.235.206.221.221,0,0,1-.206.235q-1.726.111-3.484.111" transform="translate(-95.104 -249.607)" fill="#382118"/>
  </g>
</svg>
