<svg id="Grupo_997219" data-name="Grupo 997219" xmlns="http://www.w3.org/2000/svg" xmlns:xlink="http://www.w3.org/1999/xlink" width="195.458" height="172.568" viewBox="0 0 195.458 172.568">
  <defs>
    <clipPath id="clip-path">
      <rect id="Rectángulo_349648" data-name="Rectángulo 349648" width="195.458" height="172.568" fill="none"/>
    </clipPath>
  </defs>
  <g id="Grupo_997218" data-name="Grupo 997218" clip-path="url(#clip-path)">
    <path id="Trazado_731133" data-name="Trazado 731133" d="M405.411,122.377c-.91-3.338.3-6.676-.91-10.013-.91,1.821-.91,3.945-1.517,5.765v-10.62c-.257,1.54-.945,2.863-.968,4.335.019.274.04.547.058.823a4.528,4.528,0,0,1-.058-.823c-.317-4.548-.87-8.86-1.156-13.438a27,27,0,0,1-.36,2.82c.011.476.028.952.056,1.428a4.8,4.8,0,0,1-.056-1.428c-.1-4.682.467-9.364-1.461-14.047,0,1.517-.607,2.731-.607,4.248-.91-3.338,0-6.979-2.124-10.013a17.7,17.7,0,0,1-2.427,5.462c0-2.731,0-5.765-1.214-8.5-1.517,1.214-1.214,3.034-1.214,4.855-.3-1.82.3-3.944-.3-5.765-.607,2.124-1.82,3.945-2.731,6.069a37.08,37.08,0,0,0-.607-10.013c-1.517,1.517-1.517,3.944-2.124,5.765V73.222c-1.214,3.034-2.427,5.765-3.338,8.8-1.821-2.427-.607-5.159-.91-7.586a7.14,7.14,0,0,0-1.517,4.855V75.649c-1.821.91-1.517,5.158-3.945,3.945V78.077c-.68,1.812-2.373,3.118-2.936,4.925a7.278,7.278,0,0,0-.1,2.054,4.059,4.059,0,0,1,.1-2.054c.391-2.14,1.562-4.051,2.026-6.139-1.82,3.641-4.551,6.979-6.979,10.317-1.517-1.214,0-2.731-.607-4.248-.279.18-.553.367-.824.556a93.939,93.939,0,0,1-34.677,29.483l68.879,54.01a120.633,120.633,0,0,0,6.068-31.557c.184-3.441.281-7.029.3-10.676-.312-1.5-.622-3-.9-4.5-.91.607-.607,1.517-.91,2.124" transform="translate(-229.6 -50.641)" fill="#8c4d37"/>
    <path id="Trazado_731134" data-name="Trazado 731134" d="M473.771,17.727s-.3-15.171-8.5-11.833c0,0-4.248-13.654-6.979.607a97.179,97.179,0,0,1-13.872,26.347c.272-.189.546-.375.825-.556.607,1.517-.91,3.034.607,4.248,2.428-3.338,5.159-6.676,6.979-10.317-.464,2.088-1.634,4-2.026,6.139.563-1.808,2.257-3.113,2.936-4.925v1.517c2.427,1.214,2.124-3.035,3.944-3.945V28.65a7.137,7.137,0,0,1,1.517-4.855c.3,2.427-.91,5.158.91,7.586.91-3.035,2.124-5.765,3.337-8.8V28.65c.607-1.82.607-4.248,2.124-5.765a37.1,37.1,0,0,1,.607,10.013c.91-2.124,2.124-3.944,2.731-6.068.607,1.82,0,3.945.3,5.765,0-1.82-.3-3.641,1.214-4.854,1.214,2.731,1.214,5.765,1.214,8.5a17.7,17.7,0,0,0,2.427-5.461c2.124,3.034,1.214,6.675,2.124,10.013,0-1.517.607-2.731.607-4.248,1.928,4.682,1.356,9.364,1.461,14.047a27.083,27.083,0,0,0,.36-2.82c.286,4.579.839,8.891,1.156,13.439.023-1.473.711-2.8.968-4.336v10.62c.607-1.821.607-3.945,1.517-5.765,1.214,3.337,0,6.675.91,10.013.3-.607,0-1.517.91-2.124.281,1.5.591,3,.9,4.5.117-27.064-4.267-57.452-11.22-56.383" transform="translate(-307.366 0)" fill="#c96f4f"/>
    <path id="Trazado_731135" data-name="Trazado 731135" d="M216.926,27.625c-.6-1.479-1.643-3.007-1.165-4.531a3.816,3.816,0,0,1,2.773-2.249c1.2-.332,2.462-.371,3.648-.738,2.45-.757,4.252-2.783,6.321-4.3a17.232,17.232,0,0,1,16.883-1.775,8.369,8.369,0,0,1,4.348,3.79c.831,1.78.48,4.208-1.174,5.268a11.19,11.19,0,0,1-2.171.868,7.964,7.964,0,0,0-3.727,2.919,6.336,6.336,0,0,1-1.415,1.77,4.814,4.814,0,0,1-2.818.53c-8.014-.047-14.246,2.778-21.449,5.665-.207-2.468,1.021-4.587-.052-7.219" transform="translate(-149.137 -8.716)" fill="#e34927"/>
    <path id="Trazado_731136" data-name="Trazado 731136" d="M189.444,127.878c-.48,4.175-1.606,8.155-3.876,11.1a4.262,4.262,0,0,1-2.52,1.817c-1.56.274-3.5-.831-4.714-2.463a8.855,8.855,0,0,1-1.7-5.48,7.243,7.243,0,0,1,.751-3.053c.93-1.814,2.622-2.893,3.824-4.462.915-1.2,1.539-2.665,2.444-3.87.982-1.308,3.518-4.586,5.283-2.395,1.442,1.788.7,7.167.513,8.811" transform="translate(-122.154 -81.839)" fill="#e34927"/>
    <path id="Trazado_731137" data-name="Trazado 731137" d="M163.062,101.82c0,.607,1.214-1.517,2.427-2.124-.3,3.944-4.551,7.282-2.427,10.62,1.214,1.517,3.034-1.517,4.551-2.731v9.1c3.338-.607,2.124-4.855,4.855-6.069a26.073,26.073,0,0,0,1.517,9.71c3.034-1.821,2.731-5.765,4.855-8.193.607,3.337,1.517,6.372,3.944,8.8,2.124-2.124,1.214-4.855,3.034-6.979,1.517,1.82,1.517,4.551,3.338,6.069,1.214-2.427.91-5.158,1.214-7.889,2.124.607,2.124,3.034,3.641,4.551,1.214-1.82.3-3.945.607-6.069a5.54,5.54,0,0,1,2.427,3.945c2.124-1.214.3-5.462,2.428-3.945,1.517,1.214,2.731,3.641,4.855,4.248-.3-3.034,1.517-5.765,1.214-8.8,1.517.3,1.517,1.82,2.427,2.427.91-1.214-.3-3.641.607-3.945,1.82-.91,2.427,3.338,4.855,3.338,0-2.124-.607-4.855.3-6.372.91-1.214,3.034,1.82,3.641,1.214,2.124-2.427-.91-4.552-2.427-7.282,2.124.91,4.855,2.124,6.372,1.517,1.517-.91-1.517-2.428-1.517-4.248,1.517,0,3.944.607,4.551-.3,1.517-2.124-2.427-3.641-3.944-5.462.91,0,2.124.3,2.427-.3,1.517-1.517-.91-2.124-1.517-3.945h2.705c-2.344-1.506-4.685-3.04-6.992-4.59-5.29-3.553-7.746-10.052-7.782-16.424-.03-5.24-1.835-11.562-9.475-14.488-6.689-2.562-18.185,2.712-24.578,14.565L178.234,82.7s-8.5,9.406-15.778,14.261l-.084.048a10.048,10.048,0,0,0,.691,4.806" transform="translate(-112.264 -32.208)" fill="#8c4d37"/>
    <path id="Trazado_731138" data-name="Trazado 731138" d="M185.9,181.638c-8.5-4.737-21.78-12.375-34.781-20.8l-1.282,1c.662,1.74,2.968,2.353,1.48,3.841-.3.607-1.517.3-2.428.3,1.517,1.82,5.462,3.338,3.945,5.462-.607.91-3.034.3-4.551.3,0,1.82,3.034,3.338,1.517,4.248-1.517.607-4.248-.607-6.372-1.517,1.517,2.731,4.552,4.855,2.427,7.282-.607.607-2.731-2.427-3.641-1.214-.91,1.517-.3,4.248-.3,6.372-2.427,0-3.034-4.248-4.855-3.338-.91.3.3,2.731-.607,3.944-.91-.607-.91-2.124-2.427-2.427.3,3.034-1.517,5.765-1.214,8.8-2.124-.607-3.338-3.034-4.855-4.248-2.124-1.517-.3,2.731-2.428,3.944a5.541,5.541,0,0,0-2.427-3.944c-.3,2.124.607,4.248-.607,6.069-1.517-1.517-1.517-3.945-3.641-4.552-.3,2.731,0,5.462-1.214,7.889-1.82-1.517-1.82-4.248-3.338-6.069-1.82,2.124-.91,4.855-3.034,6.979-2.427-2.427-3.338-5.462-3.944-8.8-2.124,2.427-1.821,6.372-4.855,8.193a26.072,26.072,0,0,1-1.517-9.71c-2.731,1.214-1.517,5.462-4.855,6.069v-9.1c-1.517,1.214-3.338,4.248-4.551,2.731-2.124-3.338,2.124-6.676,2.427-10.62-1.214.607-2.427,2.731-2.427,2.124a10.049,10.049,0,0,1-.691-4.806c-2.322,1.349-51.722,30.48-22.976,50.927,0,0-11.834,53.4,52.493,47.031,0,0,19.42,6.069,28.826-1.214,0,0,16.082,13.351,42.784,3.337,25.132-9.425,46.681-37.406,19.933-72.2a84.818,84.818,0,0,0-26.01-22.294" transform="translate(-40.747 -111.238)" fill="#c96f4f"/>
    <path id="Trazado_731139" data-name="Trazado 731139" d="M554.153,165.458c-.028-.476-.046-.952-.056-1.428a4.79,4.79,0,0,0,.056,1.428" transform="translate(-383.196 -113.444)" fill="#c96f4f"/>
    <path id="Trazado_731140" data-name="Trazado 731140" d="M464.612,106.988a7.279,7.279,0,0,1,.1-2.054,4.059,4.059,0,0,0-.1,2.054" transform="translate(-321.268 -72.573)" fill="#c96f4f"/>
    <path id="Trazado_731141" data-name="Trazado 731141" d="M559.131,199.283c-.017-.276-.039-.548-.058-.823a4.524,4.524,0,0,0,.058.823" transform="translate(-386.657 -137.256)" fill="#c96f4f"/>
    <path id="Trazado_731142" data-name="Trazado 731142" d="M515.908,383.138s10.131-10.092-3.772-5.9a97.186,97.186,0,0,1-29.776-.084c.293.154.586.31.875.473-1.063,1.241-3.111.6-3.483,2.506,4.083.6,8.306,1.478,12.376,1.4-2.065.557-4.3.4-6.379,1.05,1.863-.339,3.8.557,5.725.32l-1.345.7c.049,2.714,3.673.476,5.324,1.668l-3.227,1.687a7.138,7.138,0,0,1,5.005-.905c-2.01,1.394-4.993,1.584-6.3,4.322,3.11-.6,6.093-.789,9.344-1.12L494.9,392.07c1.894-.306,4.046-1.431,6.093-.789a37.088,37.088,0,0,1-8.592,5.178c2.3-.178,4.48.054,6.643-.392-1.332,1.382-3.5,1.828-4.968,2.941,1.613-.844,3.086-1.956,4.865-1.174-1.858,2.341-4.546,3.747-6.966,5.012a17.7,17.7,0,0,0,5.965-.38c-1.7,3.288-5.353,4.169-7.889,6.522,1.344-.7,2.7-.727,4.046-1.431-3.256,3.878-7.67,5.541-11.771,7.8a27.1,27.1,0,0,0,2.665-.988c-3.925,2.375-7.489,4.863-11.373,7.251,1.316-.662,2.807-.665,4.29-1.151l-9.411,4.921c1.894-.306,3.777-1.29,5.812-1.327-1.439,1.575-3.942,2.243-5.735,3.14,1.765-.4,3.765-.821,5.695-1.3a21.592,21.592,0,0,0,6-2.505c17.915-10.926,32.347-22.828,29.095-27.247,0,0,13.3-7.3,6.55-13.012" transform="translate(-324.013 -260.194)" fill="#8c4d37"/>
    <path id="Trazado_731143" data-name="Trazado 731143" d="M260.831,129.128c.247.377.5.753.789,1.111a11.016,11.016,0,0,0,.947,1,7.53,7.53,0,0,0,2.4,1.522,5.63,5.63,0,0,0,2.98.337,6.886,6.886,0,0,0,2.775-1.119,12.016,12.016,0,0,0,3.677-4.241,15.969,15.969,0,0,0,1.812-5.121c-.976,1.521-1.935,2.992-2.974,4.367a16.037,16.037,0,0,1-3.5,3.521,5.419,5.419,0,0,1-4.365.937,13.7,13.7,0,0,1-4.542-2.316" transform="translate(-180.392 -84.804)" fill="#c96f4f"/>
    <path id="Trazado_731144" data-name="Trazado 731144" d="M224.551,78.845c2.642-3.565,10.132-7.718,14.5-8.774a5.952,5.952,0,0,1,6,1.656c1.433,1.375,2.9,3.371,5.137,3.2-2.727.854-4.413,3.411-6.812,4.821a15.252,15.252,0,0,1-8.805,1.68c-.041.67,1.652,3.485,2.123,3.955Z" transform="translate(-155.301 -48.309)" fill="#e34927"/>
    <path id="Trazado_731145" data-name="Trazado 731145" d="M257.6,81.037c-.789.545-2.3-.972-2.3-.972-3.939-3.338-6.427.48-6.427.48a7.238,7.238,0,0,1-2.73,2.12,12.984,12.984,0,0,1,3.273,1.7A3.928,3.928,0,0,0,255.3,83.1a7.356,7.356,0,0,1,2.306-2.059" transform="translate(-170.232 -54.427)" fill="#382118"/>
    <path id="Trazado_731146" data-name="Trazado 731146" d="M260.257,82.724a1.9,1.9,0,1,0,2.216,1.811,2.032,2.032,0,0,0-2.216-1.811" transform="translate(-178.55 -57.211)" fill="#f79854"/>
    <path id="Trazado_731147" data-name="Trazado 731147" d="M260.812,87.275a.808.808,0,1,0,.834.78.808.808,0,0,0-.834-.78" transform="translate(-179.839 -60.359)" fill="#382118"/>
    <path id="Trazado_731148" data-name="Trazado 731148" d="M213.733,124.776a28.358,28.358,0,0,1,6.929,11.821,6.527,6.527,0,0,1,.064,3.868,5.264,5.264,0,0,1-4.7,3.089,7.73,7.73,0,0,1-5.478-2.131,8.7,8.7,0,0,1-2.085-2.929c-.964-2.236-.892-4.734-1.5-7.076-.463-1.783-1.318-3.462-1.8-5.242-.519-1.931-1.775-6.849,1.031-7.108,2.291-.212,6.3,4.351,7.541,5.708" transform="translate(-141.384 -82.343)" fill="#e34927"/>
    <path id="Trazado_731149" data-name="Trazado 731149" d="M179.258,94.747c-6.885.206-11.694,8.6-11.694,8.6,8.571-1.543,12.35-.223,12.35-.223.973-.669,5.171,1.587,5.171,1.587a20.727,20.727,0,0,0-4.17-6.78,5.14,5.14,0,0,1-1.658-3.187" transform="translate(-115.888 -65.527)" fill="#ecc362"/>
    <path id="Trazado_731150" data-name="Trazado 731150" d="M200.237,99.824c.048.269-.278.552-.729.633s-.855-.071-.9-.339.278-.552.729-.633.855.071.9.339" transform="translate(-137.352 -68.789)" fill="#382118"/>
    <path id="Trazado_731151" data-name="Trazado 731151" d="M238.926,444.982a37.252,37.252,0,0,1-3.575-7.477,43.826,43.826,0,0,1-2.471-16.388,37.157,37.157,0,0,1,1.215-8.2c-.191,2.753-.282,5.483-.206,8.205a67.311,67.311,0,0,0,2.421,16.078c.729,2.624,1.622,5.206,2.617,7.78" transform="translate(-161.033 -285.577)" fill="#8c4d37"/>
    <path id="Trazado_731152" data-name="Trazado 731152" d="M258.669,315.077a2.9,2.9,0,0,0,.81,1.128,3.8,3.8,0,0,0,1.17.662,4.481,4.481,0,0,0,2.6.117,8.774,8.774,0,0,0,2.471-1.037c.2-.118.393-.236.588-.362s.4-.269.664-.406a1.969,1.969,0,0,1,1.018-.239,1.791,1.791,0,0,1,1.012.428c.238.2.4.394.551.524a3.582,3.582,0,0,0,.479.381,4.352,4.352,0,0,0,1.123.545,4.727,4.727,0,0,0,2.52.116,4.328,4.328,0,0,0,2.213-1.326,4.527,4.527,0,0,0,1.163-2.481,4.152,4.152,0,0,1-.658,2.866,4.763,4.763,0,0,1-2.427,1.915,5.428,5.428,0,0,1-4.637-.57,4.717,4.717,0,0,1-.651-.505c-.21-.189-.359-.358-.493-.465a.518.518,0,0,0-.281-.146.757.757,0,0,0-.363.1c-.164.076-.352.2-.573.329s-.431.251-.653.367a8.523,8.523,0,0,1-2.9.966,5.23,5.23,0,0,1-1.564-.027,4.785,4.785,0,0,1-1.466-.516,3.984,3.984,0,0,1-1.164-.991,2.656,2.656,0,0,1-.55-1.371" transform="translate(-178.897 -216.56)" fill="#8c4d37"/>
    <path id="Trazado_731153" data-name="Trazado 731153" d="M283.7,367.358c.962-.024,1.887.073,2.789.136a20.853,20.853,0,0,0,2.634.068,9.551,9.551,0,0,0,2.5-.456,7.156,7.156,0,0,0,2.331-1.274,4.128,4.128,0,0,1-1.9,2.2,6.341,6.341,0,0,1-2.861.824,8.851,8.851,0,0,1-2.881-.362,11.153,11.153,0,0,1-2.607-1.132" transform="translate(-196.208 -253.011)" fill="#8c4d37"/>
    <path id="Trazado_731154" data-name="Trazado 731154" d="M158.576,372.314a6.967,6.967,0,0,0,1.555,2.183,5.4,5.4,0,0,0,4.557,1.471,7,7,0,0,0,2.539-.859,4.13,4.13,0,0,1-2.3,1.846,4.827,4.827,0,0,1-5.569-1.8,4.14,4.14,0,0,1-.784-2.84" transform="translate(-109.654 -257.494)" fill="#8c4d37"/>
    <path id="Trazado_731155" data-name="Trazado 731155" d="M226.132,353.816a6.968,6.968,0,0,0,2.1,1.671,5.4,5.4,0,0,0,4.785.159,7,7,0,0,0,2.2-1.525,4.13,4.13,0,0,1-1.7,2.407,4.827,4.827,0,0,1-5.85-.2,4.14,4.14,0,0,1-1.536-2.514" transform="translate(-156.394 -244.701)" fill="#8c4d37"/>
    <path id="Trazado_731156" data-name="Trazado 731156" d="M141.379,311.53a2.5,2.5,0,0,0-.093,1.428,3.225,3.225,0,0,0,.606,1.248,3.943,3.943,0,0,0,1,.918,3.565,3.565,0,0,0,.6.288,4.58,4.58,0,0,0,.652.2,6.248,6.248,0,0,0,1.374.156,12.757,12.757,0,0,0,1.424-.056c.241-.02.482-.045.726-.073l.366-.043c.121-.016.257-.028.337-.043a1.415,1.415,0,0,0,.476-.162c.053-.031.073-.063.063-.052a.134.134,0,0,0-.02.079l1.136.308a.916.916,0,0,0-.185.487,1.515,1.515,0,0,0,.092.606,2.957,2.957,0,0,0,1.471,1.591,4.781,4.781,0,0,0,.726.32,5.714,5.714,0,0,0,1.595.264,5.793,5.793,0,0,0,1.646-.193,7.934,7.934,0,0,0,.807-.248l.388-.173.194-.088.184-.106a5.913,5.913,0,0,0,1.379-1.026l.3-.319c.1-.108.177-.232.268-.349a6.551,6.551,0,0,0,.48-.757,5.123,5.123,0,0,1-.75,1.673,5.87,5.87,0,0,1-1.309,1.344l-.19.144-.2.126c-.135.082-.27.168-.408.247a6.894,6.894,0,0,1-.874.39,6.771,6.771,0,0,1-1.89.4l-.49.016c-.164,0-.328-.023-.492-.035l-.247-.021-.244-.047c-.163-.034-.327-.062-.487-.1a6.035,6.035,0,0,1-.938-.359,3.947,3.947,0,0,1-.886-.544,4.032,4.032,0,0,1-1.244-1.707,2.66,2.66,0,0,1-.164-1.159,2.213,2.213,0,0,1,.464-1.164l.9-1.134.235,1.442a1.157,1.157,0,0,1-.177.793,1.435,1.435,0,0,1-.486.446,2.615,2.615,0,0,1-.935.3c-.167.022-.279.029-.406.039l-.377.027c-.253.017-.507.031-.764.041a8.8,8.8,0,0,1-3.131-.366,5.282,5.282,0,0,1-.751-.311c-.121-.056-.241-.14-.36-.209s-.225-.162-.336-.243a4.177,4.177,0,0,1-1.036-1.241,3.377,3.377,0,0,1-.44-1.523,2.4,2.4,0,0,1,.418-1.468" transform="translate(-97.489 -215.456)" fill="#8c4d37"/>
    <path id="Trazado_731157" data-name="Trazado 731157" d="M87.395,287.177a.258.258,0,0,1-.259-.258c0-11.2,5.637-21.3,10.366-27.8A73.756,73.756,0,0,1,107.86,247.58a.259.259,0,1,1,.336.394,73.247,73.247,0,0,0-10.283,11.458c-4.68,6.438-10.259,16.433-10.259,27.488a.258.258,0,0,1-.258.258" transform="translate(-60.264 -171.185)" fill="#382118"/>
    <path id="Trazado_731158" data-name="Trazado 731158" d="M403.1,443.612q-1.4,0-2.923-.152a34.84,34.84,0,0,1-20.112-8.592,26.377,26.377,0,0,1-8.745-19.784.259.259,0,0,1,.258-.251h.008a.258.258,0,0,1,.25.266,25.853,25.853,0,0,0,8.578,19.388,34.321,34.321,0,0,0,19.813,8.458c5.391.538,9.555-.377,12.375-2.718a.259.259,0,0,1,.33.4c-2.392,1.986-5.691,2.987-9.833,2.987" transform="translate(-256.803 -286.901)" fill="#382118"/>
    <path id="Trazado_731159" data-name="Trazado 731159" d="M459.962,446.251c-7.005,0-13.724-2.615-17.909-7.325a.258.258,0,0,1,.386-.343c5.715,6.433,16.285,8.861,25.7,5.907a.259.259,0,0,1,.155.493,27.9,27.9,0,0,1-8.336,1.268" transform="translate(-305.68 -303.266)" fill="#382118"/>
    <path id="Trazado_731160" data-name="Trazado 731160" d="M490.594,45.312a.259.259,0,0,1-.236-.365c.6-1.338,1.178-2.748,1.71-4.19a83.728,83.728,0,0,0,4.7-22.25.255.255,0,0,1,.279-.237.258.258,0,0,1,.237.278,84.277,84.277,0,0,1-4.731,22.388c-.536,1.454-1.116,2.875-1.724,4.224a.259.259,0,0,1-.236.152" transform="translate(-339.119 -12.635)" fill="#382118"/>
    <path id="Trazado_731161" data-name="Trazado 731161" d="M536.422,78.738a.258.258,0,0,1-.256-.3,109.924,109.924,0,0,0,.813-17.65c-.01-1.3-.019-2.592-.019-3.889a.258.258,0,0,1,.517,0c0,1.3.01,2.591.019,3.885a110.284,110.284,0,0,1-.818,17.734.259.259,0,0,1-.255.218" transform="translate(-370.813 -39.174)" fill="#382118"/>
    <path id="Trazado_731162" data-name="Trazado 731162" d="M153.816,503.614a6.614,6.614,0,0,1-.976,2.039,5.241,5.241,0,0,1-3.533,1.639,37.726,37.726,0,0,0-3.971.406c-.447.1-.993.453-.827.881.131.338.591.367.952.339l6.026-.469a3.049,3.049,0,0,0-1.755,1.737c-.079.2-.122.467.041.613a.572.572,0,0,0,.531.045c2.067-.564,3.7-2.583,5.837-2.5a7.089,7.089,0,0,1,1.6.327,28.447,28.447,0,0,0,6.011.979c.289-.44-.348-.9-.853-1.043l-2.411-.7a7.513,7.513,0,0,1-2.174-.886c-1.582-1.075-2.111-3.189-2.04-5.1s.609-3.787.625-5.7a1.434,1.434,0,0,0-.109-.667,1.186,1.186,0,0,0-1.686-.227c-.49.522-.011,1.7,0,2.35a17.648,17.648,0,0,1-1.289,5.939" transform="translate(-99.922 -342.393)" fill="#f08f4a"/>
    <path id="Trazado_731163" data-name="Trazado 731163" d="M160.493,543.864l-.448,1.065,1.344-.355Z" transform="translate(-110.688 -376.139)" fill="#a6513c"/>
    <path id="Trazado_731164" data-name="Trazado 731164" d="M205.943,540.545a1.26,1.26,0,0,1,1.35.54h-1.08Z" transform="translate(-142.431 -373.806)" fill="#a6513c"/>
    <path id="Trazado_731165" data-name="Trazado 731165" d="M142.8,536.83c-.81-.54-1.619.54-1.619.54H142.8Z" transform="translate(-97.639 -371.17)" fill="#a6513c"/>
    <path id="Trazado_731166" data-name="Trazado 731166" d="M182.609,381.612c-2.731-12.744-10.167-16.7-15.778-14.565-6.372,2.427-7.282,7.282-7.282,7.282l.607,4.855a4.5,4.5,0,0,0,1.517,2.124c-18.206,20.937-5.765,23.364-5.765,23.364,16.992,20.633,32.163,2.427,32.163,2.427,7.6-2.42,5.969-12.432,2.124-18.812a17.284,17.284,0,0,0-7.586-6.676" transform="translate(-104.957 -253.473)" fill="#f2cc5a"/>
    <path id="Trazado_731167" data-name="Trazado 731167" d="M195.17,392.034a2.041,2.041,0,1,0,1.47-2.008,1.79,1.79,0,0,0-1.47,2.008" transform="translate(-134.948 -269.674)" fill="#fff2d4"/>
    <path id="Trazado_731168" data-name="Trazado 731168" d="M199.258,392.474a.99.99,0,0,0-.221-.542c0,.255-.138.511-.4.5-.425-.012-.484-.676-.209-.913a1.673,1.673,0,0,0-.734-.066,1.464,1.464,0,0,0-1.383,1.4,1.287,1.287,0,0,0,1.569,1.018,1.464,1.464,0,0,0,1.383-1.4" transform="translate(-135.764 -270.723)" fill="#382118"/>
    <path id="Trazado_731169" data-name="Trazado 731169" d="M253.725,461.955a.259.259,0,0,1-.107-.023c-10.106-4.594-6.548-15.979-6.511-16.093a.258.258,0,1,1,.492.159,16.651,16.651,0,0,0-.556,6.094,10.953,10.953,0,0,0,6.789,9.37.258.258,0,0,1-.107.494" transform="translate(-170.46 -308.221)" fill="#382118"/>
    <path id="Trazado_731170" data-name="Trazado 731170" d="M164.4,459.528a.259.259,0,0,1-.253-.2c-1.523-7,2.726-13.485,2.769-13.549a.259.259,0,0,1,.43.287c-.042.063-4.169,6.366-2.694,13.153a.258.258,0,0,1-.253.313" transform="translate(-113.295 -308.22)" fill="#382118"/>
    <path id="Trazado_731171" data-name="Trazado 731171" d="M240.884,417.726a.259.259,0,0,1-.1-.5A7.627,7.627,0,0,0,244,414.3a.258.258,0,1,1,.449.257,8.017,8.017,0,0,1-3.46,3.143.257.257,0,0,1-.1.021" transform="translate(-166.418 -286.445)" fill="#382118"/>
    <path id="Trazado_731172" data-name="Trazado 731172" d="M187.081,417.8a6.787,6.787,0,0,1-4.431-2.2.258.258,0,1,1,.365-.365,6.365,6.365,0,0,0,4.065,2.048.258.258,0,1,1,0,.517" transform="translate(-126.27 -287.126)" fill="#382118"/>
    <path id="Trazado_731173" data-name="Trazado 731173" d="M168.126,392.423c-2.826-.033-5.369,4.076-5.369,4.076a36.911,36.911,0,0,1,7.185.933,14.655,14.655,0,0,0-1.178-2.808,4.034,4.034,0,0,1-.637-2.2" transform="translate(-112.564 -271.401)" fill="#f08f4a"/>
    <path id="Trazado_731174" data-name="Trazado 731174" d="M176.275,396.025c.019.122-.117.243-.3.271s-.351-.047-.369-.169.117-.243.3-.271.351.048.369.169" transform="translate(-121.447 -273.772)" fill="#382118"/>
    <path id="Trazado_731175" data-name="Trazado 731175" d="M220.721,515.421a6.614,6.614,0,0,1-.976,2.039,5.241,5.241,0,0,1-3.533,1.639,37.71,37.71,0,0,0-3.971.406c-.447.1-.993.453-.827.881.131.338.591.367.952.339l6.026-.469a3.049,3.049,0,0,0-1.755,1.737c-.079.2-.122.468.041.613a.572.572,0,0,0,.531.045c2.067-.564,3.7-2.583,5.837-2.5a7.09,7.09,0,0,1,1.6.327,28.449,28.449,0,0,0,6.011.979c.289-.44-.348-.9-.853-1.044l-2.411-.7a7.517,7.517,0,0,1-2.174-.886c-1.582-1.075-2.111-3.189-2.04-5.1s.609-3.787.625-5.7a1.434,1.434,0,0,0-.109-.667,1.186,1.186,0,0,0-1.686-.227c-.49.522-.011,1.7,0,2.35a17.649,17.649,0,0,1-1.289,5.939" transform="translate(-146.194 -350.559)" fill="#f08f4a"/>
    <path id="Trazado_731176" data-name="Trazado 731176" d="M227.4,555.671l-.448,1.065,1.344-.355Z" transform="translate(-156.96 -384.305)" fill="#a6513c"/>
    <path id="Trazado_731177" data-name="Trazado 731177" d="M272.848,552.353a1.26,1.26,0,0,1,1.35.54h-1.08Z" transform="translate(-188.703 -381.972)" fill="#a6513c"/>
    <path id="Trazado_731178" data-name="Trazado 731178" d="M209.7,548.636c-.81-.54-1.62.54-1.62.54h1.62Z" transform="translate(-143.911 -379.335)" fill="#a6513c"/>
    <path id="Trazado_731179" data-name="Trazado 731179" d="M97.927,531.448a32.369,32.369,0,0,0-3.411-.187c-1.137-.085-2.415.278-3.629-.936-.459-.459-2.428-1.82-2.731-2.124-1.676-1.676-1.82-1.517-2.4-2.794a23.484,23.484,0,0,1-2.155,1.277c.706.732,1.214.607,2.427,1.821,1.158,1.158,2.731,1.214.77,2.887a5.4,5.4,0,0,1-1.823.845l-2.033.7c-.427.146-.952.562-.688.926a24.346,24.346,0,0,0,5.1-1.08,6.067,6.067,0,0,1,1.355-.344c1.828-.155,3.3,1.5,5.092,1.9a.489.489,0,0,0,.452-.06c.133-.131.086-.355.01-.525a2.611,2.611,0,0,0-1.571-1.415l5.171.158c.31.01.7-.034.8-.328.125-.373-.356-.649-.743-.72" transform="translate(-56.841 -363.374)" fill="#f08f4a"/>
    <path id="Trazado_731180" data-name="Trazado 731180" d="M119.715,552.279l.426.893-1.163-.249Z" transform="translate(-82.285 -381.959)" fill="#a6513c"/>
    <path id="Trazado_731181" data-name="Trazado 731181" d="M80.7,551.264a1.079,1.079,0,0,0-1.132.516l.923-.043Z" transform="translate(-55.027 -381.233)" fill="#a6513c"/>
    <path id="Trazado_731182" data-name="Trazado 731182" d="M133.982,545.61c.67-.494,1.407.4,1.407.4l-1.385.065Z" transform="translate(-92.663 -377.243)" fill="#a6513c"/>
    <path id="Trazado_731183" data-name="Trazado 731183" d="M32.321,528.818a9.8,9.8,0,0,0-3.1-1.268c-1.261-.331-3.018-.525-3.641-2.124-.236-.6-1.959-3.508-1.973-4.91a23.368,23.368,0,0,1-2.487.3c.352.954.2.277.818,1.876.594,1.526,1,1.742,0,3.034a5.61,5.61,0,0,1-1.821,1.214,11.679,11.679,0,0,0-1.82.91c-.375.25-.785.676-.689,1.116,1.657.536,2.765-1.231,4.5-1.061a6.083,6.083,0,0,1,1.379.23c1.736.593,2.417,2.706,3.9,3.791a.489.489,0,0,0,.438.127c.175-.066.221-.29.221-.477a6.9,6.9,0,0,0-1.55-3.12l3.945.91c.28.133,1.612.533,1.82.3.264-.291.387-.636.061-.856" transform="translate(-12.172 -359.991)" fill="#f08f4a"/>
    <path id="Trazado_731184" data-name="Trazado 731184" d="M50,556.114l.089,1.021-.7-.718Z" transform="translate(-34.162 -384.611)" fill="#a6513c"/>
    <path id="Trazado_731185" data-name="Trazado 731185" d="M17.612,546.2a1.079,1.079,0,0,0-.663,1.053l.748-.543Z" transform="translate(-11.721 -377.757)" fill="#a6513c"/>
    <path id="Trazado_731186" data-name="Trazado 731186" d="M63.309,547.579c.813-.183,1.128.929,1.128.929l-1.294-.5Z" transform="translate(-43.67 -378.695)" fill="#a6513c"/>
    <path id="Trazado_731187" data-name="Trazado 731187" d="M36.928,395.453c.3,3.945-2.124,5.462-2.124,5.462,11.227,9.1,2.883,22.419-3.338,26.095-20.026,11.834-27.916-4.855-27.916-4.855-6.372-.607-3.243-12.081,2.124-18.813a19.355,19.355,0,0,1,8.8-6.069c.607-6.675,4.615-11.38,7.586-12.44C34.8,380.281,36.928,390.9,36.928,390.9Z" transform="translate(0 -265.368)" fill="#f2cc5a"/>
    <path id="Trazado_731188" data-name="Trazado 731188" d="M89.953,408.377A2.041,2.041,0,1,0,92,406.967a1.79,1.79,0,0,0-2.05,1.411" transform="translate(-62.211 -281.458)" fill="#fff2d4"/>
    <path id="Trazado_731189" data-name="Trazado 731189" d="M91.77,408.828a.988.988,0,0,1,.154-.565c.033.252.2.49.462.45.42-.064.4-.73.1-.932a1.673,1.673,0,0,1,.72-.155,1.464,1.464,0,0,1,1.544,1.226,1.287,1.287,0,0,1-1.432,1.2,1.464,1.464,0,0,1-1.544-1.226" transform="translate(-63.468 -281.916)" fill="#382118"/>
    <path id="Trazado_731190" data-name="Trazado 731190" d="M11.428,473.558a.258.258,0,0,1-.048-.512c7.615-1.465,9.484-14.817,9.5-14.952a.259.259,0,0,1,.513.068c-.075.565-1.937,13.856-9.917,15.391a.267.267,0,0,1-.049,0" transform="translate(-7.725 -316.665)" fill="#382118"/>
    <path id="Trazado_731191" data-name="Trazado 731191" d="M100.352,440.246a3.139,3.139,0,0,1-.41-.023.259.259,0,1,1,.073-.512,4.769,4.769,0,0,0,3.725-1.444.259.259,0,0,1,.365.366,5.318,5.318,0,0,1-3.754,1.613" transform="translate(-68.967 -303.056)" fill="#382118"/>
    <path id="Trazado_731192" data-name="Trazado 731192" d="M48.669,429.936a.255.255,0,0,1-.143-.043,4.4,4.4,0,0,1-1.935-3.249.258.258,0,0,1,.517,0,3.933,3.933,0,0,0,1.705,2.819.259.259,0,0,1-.144.474" transform="translate(-32.222 -294.89)" fill="#382118"/>
    <path id="Trazado_731193" data-name="Trazado 731193" d="M115.608,406.986c2.816-.184,5.6,3.645,5.6,3.645a37.848,37.848,0,0,0-7.106,1.287,13.8,13.8,0,0,1,1-2.773,3.78,3.78,0,0,0,.5-2.158" transform="translate(-78.917 -281.469)" fill="#f08f4a"/>
    <path id="Trazado_731194" data-name="Trazado 731194" d="M121.595,410.311c-.011.118.131.228.318.245s.347-.065.358-.183-.131-.228-.318-.245-.347.065-.358.183" transform="translate(-84.095 -283.645)" fill="#382118"/>
    <path id="Trazado_731195" data-name="Trazado 731195" d="M291.456,521.466c-.222.646-1.2.88-1.749,1.29a6.447,6.447,0,0,1-3.53,1.116,34.132,34.132,0,0,0-3.579.366c-.4.094-.9.408-.746.794.118.3.533.331.858.306l5.432-.423a2.75,2.75,0,0,0-1.582,1.566c-.071.184-.109.421.037.553a.515.515,0,0,0,.478.04c1.864-.509,3.331-2.328,5.262-2.255a6.386,6.386,0,0,1,1.443.295,25.642,25.642,0,0,0,5.419.883c.26-.4-.313-.808-.769-.94l-2.173-.63a6.788,6.788,0,0,1-1.96-.8c-1.426-.969-.689-1.964-.625-3.687s.549-3.414.564-5.138a1.3,1.3,0,0,0-.1-.6,1.07,1.07,0,0,0-1.52-.205c-.441.471-.19,1.5-.18,2.086a15.891,15.891,0,0,1-.982,5.385" transform="translate(-194.912 -355.322)" fill="#f08f4a"/>
    <path id="Trazado_731196" data-name="Trazado 731196" d="M296.262,554.8l-.4.96,1.211-.32Z" transform="translate(-204.617 -383.7)" fill="#a6513c"/>
    <path id="Trazado_731197" data-name="Trazado 731197" d="M337.232,551.807a1.136,1.136,0,0,1,1.217.487h-.973Z" transform="translate(-233.231 -381.598)" fill="#a6513c"/>
    <path id="Trazado_731198" data-name="Trazado 731198" d="M280.31,548.456c-.73-.487-1.46.487-1.46.487h1.46Z" transform="translate(-192.854 -379.221)" fill="#a6513c"/>
    <path id="Trazado_731199" data-name="Trazado 731199" d="M354.347,519.175c-.07.679-.971,1.131-1.409,1.654a6.448,6.448,0,0,1-3.183,1.89,34.134,34.134,0,0,0-3.4,1.171c-.371.183-.779.6-.545.943.185.27.594.2.905.1l5.193-1.648a2.751,2.751,0,0,0-1.184,1.885c-.027.195-.01.435.162.529a.516.516,0,0,0,.475-.069c1.7-.919,2.714-3.025,4.61-3.394a6.4,6.4,0,0,1,1.472-.041,25.646,25.646,0,0,0,5.478-.373c.163-.446-.489-.716-.963-.741l-2.26-.119a6.772,6.772,0,0,1-2.09-.332c-1.609-.619-1.118-1.756-1.448-3.448s-.242-3.449-.62-5.131a1.29,1.29,0,0,0-.233-.563,1.069,1.069,0,0,0-1.527.146c-.323.559.155,1.5.3,2.072a15.887,15.887,0,0,1,.269,5.468" transform="translate(-239.114 -353.572)" fill="#f08f4a"/>
    <path id="Trazado_731200" data-name="Trazado 731200" d="M361.444,556.239l-.175,1.027,1.107-.587Z" transform="translate(-249.856 -384.698)" fill="#a6513c"/>
    <path id="Trazado_731201" data-name="Trazado 731201" d="M400.2,544.007a1.136,1.136,0,0,1,1.3.2l-.948.221Z" transform="translate(-276.777 -376.141)" fill="#a6513c"/>
    <path id="Trazado_731202" data-name="Trazado 731202" d="M344.3,553.332c-.822-.308-1.311.806-1.311.806l1.421-.332Z" transform="translate(-237.212 -382.65)" fill="#a6513c"/>
    <path id="Trazado_731203" data-name="Trazado 731203" d="M300.649,378.987c.91-6.372-4.7-15.627-13.048-10.316-9.909,6.306-.91,15.475-.91,15.475a8.346,8.346,0,0,0-.691,8.733,18.265,18.265,0,0,1,2.055,8.383,28.952,28.952,0,0,1-.151,2.91c.361,4.144,1.683,6.255,2.7,7.287a9.188,9.188,0,0,1,1.869,2.874,6.653,6.653,0,0,0,1.2,1.977,4.493,4.493,0,0,0,4.552-2.427c.91-1.517,3.641,0,3.641,0a31.58,31.58,0,0,0,8.951,1.669c1.093-.057,2.427-.3,2.035-2.469l.544-2.538c1.214-16.082-7.282-20.026-7.282-20.026-5.159-7.586-5.462-11.53-5.462-11.53" transform="translate(-195.689 -253.881)" fill="#f2cc5a"/>
    <path id="Trazado_731204" data-name="Trazado 731204" d="M295.528,392.034a2.04,2.04,0,1,0,1.47-2.008,1.79,1.79,0,0,0-1.47,2.008" transform="translate(-204.356 -269.674)" fill="#fff2d4"/>
    <path id="Trazado_731205" data-name="Trazado 731205" d="M299.615,392.474a.99.99,0,0,0-.221-.542c0,.255-.138.511-.4.5-.424-.012-.483-.676-.209-.913a1.672,1.672,0,0,0-.734-.066,1.464,1.464,0,0,0-1.383,1.4,1.287,1.287,0,0,0,1.568,1.018,1.464,1.464,0,0,0,1.383-1.4" transform="translate(-205.172 -270.723)" fill="#382118"/>
    <path id="Trazado_731206" data-name="Trazado 731206" d="M298.033,422.793l-.037,0a6.767,6.767,0,0,1-3.18-1.287.258.258,0,1,1,.365-.365,6.4,6.4,0,0,0,2.888,1.14.259.259,0,0,1-.036.514" transform="translate(-203.843 -291.209)" fill="#382118"/>
    <path id="Trazado_731207" data-name="Trazado 731207" d="M272.263,398.037c-2.795.114-5.312,3.693-5.312,3.693a41.949,41.949,0,0,1,7.1.423,10.765,10.765,0,0,0-1.163-2.3c-.6-.46-.629-1.817-.629-1.817" transform="translate(-184.625 -275.284)" fill="#f08f4a"/>
    <path id="Trazado_731208" data-name="Trazado 731208" d="M280.323,401.214c.018.1-.116.21-.3.243s-.347-.022-.365-.123.116-.21.3-.243.347.022.365.123" transform="translate(-193.413 -277.39)" fill="#382118"/>
    <path id="Trazado_731209" data-name="Trazado 731209" d="M337.1,338.382c-42.784,52.8,7.539,63.853,7.539,63.853Z" transform="translate(-221.22 -234.027)" fill="#c96f4f"/>
    <path id="Trazado_731210" data-name="Trazado 731210" d="M338.8,402.8a.265.265,0,0,1-.081-.013c-.145-.048-14.593-4.935-18.629-18.532-3.489-11.754,1.615-26.277,15.17-43.169a.259.259,0,0,1,.4.324c-13.441,16.748-18.515,31.112-15.08,42.693,3.956,13.336,18.154,18.146,18.3,18.193a.259.259,0,0,1-.081.5" transform="translate(-220.64 -235.829)" fill="#382118"/>
  </g>
</svg>
