<svg id="Grupo_984561" data-name="Grupo 984561" xmlns="http://www.w3.org/2000/svg" xmlns:xlink="http://www.w3.org/1999/xlink" width="479.421" height="540.489" viewBox="0 0 479.421 540.489">
  <defs>
    <clipPath id="clip-path">
      <rect id="Rectángulo_345184" data-name="Rectángulo 345184" width="479.421" height="540.489" fill="none"/>
    </clipPath>
  </defs>
  <path id="Trazado_725746" data-name="Trazado 725746" d="M1.707,177.716l4.261.613,1.906-2.1-4.343-2.8Z" transform="translate(3.447 350.309)" fill="#c4a599"/>
  <path id="Trazado_725747" data-name="Trazado 725747" d="M28.92,180.476l4.258.613,1.051-2.12-2.57-1.06Z" transform="translate(58.414 359.355)" fill="#c4a599"/>
  <g id="Grupo_984560" data-name="Grupo 984560">
    <g id="Grupo_984559" data-name="Grupo 984559" clip-path="url(#clip-path)">
      <path id="Trazado_725748" data-name="Trazado 725748" d="M108.4,183.932,6.422,169.28a5.845,5.845,0,0,1-4.953-6.614l1.872-13.025a5.845,5.845,0,0,1,6.614-4.953l101.978,14.652a5.842,5.842,0,0,1,4.953,6.613l-1.872,13.025a5.841,5.841,0,0,1-6.614,4.953" transform="translate(2.849 292.133)" fill="#b3aeba"/>
      <path id="Trazado_725749" data-name="Trazado 725749" d="M5.6,222.75a4.316,4.316,0,0,1-3.66-4.889l9.011-62.717a4.319,4.319,0,1,1,8.549,1.229L10.484,219.09A4.318,4.318,0,0,1,5.6,222.75" transform="translate(3.818 305.889)" fill="#b3aeba"/>
      <path id="Trazado_725750" data-name="Trazado 725750" d="M32.808,226.659a4.316,4.316,0,0,1-3.66-4.889l9.008-62.717a4.32,4.32,0,0,1,8.552,1.229L37.7,223a4.318,4.318,0,0,1-4.889,3.66" transform="translate(58.785 313.785)" fill="#b3aeba"/>
      <path id="Trazado_725751" data-name="Trazado 725751" d="M106.99,183.729,5.011,169.077a5.845,5.845,0,0,1-4.953-6.614l1.872-13.025a5.845,5.845,0,0,1,6.614-4.953l101.978,14.652a5.843,5.843,0,0,1,4.953,6.614L113.6,178.777a5.841,5.841,0,0,1-6.614,4.953" transform="translate(-0.001 291.723)" fill="#ccc5d6"/>
      <path id="Trazado_725752" data-name="Trazado 725752" d="M4.185,222.547a4.316,4.316,0,0,1-3.66-4.889l9.008-62.717a4.32,4.32,0,0,1,8.552,1.229L9.074,218.887a4.318,4.318,0,0,1-4.889,3.66" transform="translate(0.97 305.479)" fill="#ccc5d6"/>
      <path id="Trazado_725753" data-name="Trazado 725753" d="M31.4,226.457a4.316,4.316,0,0,1-3.66-4.889l9.008-62.717A4.32,4.32,0,0,1,45.3,160.08L36.286,222.8a4.318,4.318,0,0,1-4.889,3.66" transform="translate(55.935 313.377)" fill="#ccc5d6"/>
      <path id="Trazado_725754" data-name="Trazado 725754" d="M202.066,35.741C200.934,59.474,182.9,75.28,161.183,84.929a77.929,77.929,0,0,1-28.943,6.589c-39.748,1.492-32.165-50.287-32.165-50.287s20.5,3.563,27.342-2.5,19.469-46.34,53.159-37.462c15,3.953,22.087,21.945,21.489,34.469" transform="translate(200.973 -0.001)"/>
      <path id="Trazado_725755" data-name="Trazado 725755" d="M76.5,73.045s-10.742-11.932-14.8-17.751C52.375,41.955,46.35,23.489,50.65,18.234c1.742-2.132,6.659,5.729,6.659,5.729S53.039,8.108,56.3,7.281s7.809,7.163,7.809,7.163-2.83-10.974,1.525-11.6,17.47,28.6,19.759,28.45.559-10.932,5.164-9.818,16.887,39.207,9.6,46.663S76.5,73.045,76.5,73.045" transform="translate(99.45 5.72)" fill="#f98875"/>
      <path id="Trazado_725756" data-name="Trazado 725756" d="M55.081,28.541a.755.755,0,0,1-.507-1.317l17.047-15.48a.756.756,0,0,1,1.012,1.123L55.588,28.348a.757.757,0,0,1-.507.193" transform="translate(109.732 23.331)"/>
      <path id="Trazado_725757" data-name="Trazado 725757" d="M65.628,39.99a.757.757,0,0,1-.637-.35A29.106,29.106,0,0,1,62.5,12.421a.756.756,0,0,1,1.35.679A27.575,27.575,0,0,0,66.265,38.83a.755.755,0,0,1-.637,1.16" transform="translate(121.671 24.252)"/>
      <path id="Trazado_725758" data-name="Trazado 725758" d="M167.975,88.288,153.1,63.857,132.174,85.817l10.246,19.868Z" transform="translate(266.976 128.983)" fill="#f98875"/>
      <path id="Trazado_725759" data-name="Trazado 725759" d="M78.462,154.334l-15.936,17.5-39.28-20.4,8.782-13.916,16.223-14.106Z" transform="translate(46.955 249.28)" fill="#f98875"/>
      <path id="Trazado_725760" data-name="Trazado 725760" d="M221.8,54.163S152.849,110.4,105.1,163.4s-82.1,91.4-82.1,91.4L78.91,304.961l107.635-98.536L253.438,98.187Z" transform="translate(46.445 109.403)" fill="#ffc403"/>
      <path id="Trazado_725761" data-name="Trazado 725761" d="M117.447,97.068,96.468,99.3l5.034,43.676,22.066-2.419Z" transform="translate(194.854 196.065)" fill="#f98875"/>
      <path id="Trazado_725762" data-name="Trazado 725762" d="M195.74,90.256s5.81,26.182-5.569,46.778-37.323,61.7-37.323,61.7S127,268.589,85.657,247.166c-51.262-26.566-9.748-80.274-9.748-80.274L171.865,60.9Z" transform="translate(121.272 123.017)" fill="#ffc403"/>
      <path id="Trazado_725763" data-name="Trazado 725763" d="M188.4,75.6s-14.628,73.147-15.894,74.3-29.909,2.032-60.44-5.554-36.426-13.242-37.918-14.574S105.41,35.19,105.41,35.19Z" transform="translate(149.664 71.08)" fill="#8a3d02"/>
      <path id="Trazado_725764" data-name="Trazado 725764" d="M79.482,202.445a5.925,5.925,0,0,0,8.114-.852c8.652-9.534,29.211-29.842,27.472-31.422-2.22-2.011-30.012-16.138-30.012-16.138s11.349-13.789,0-19.756c-8.7-4.578-24.5-3.591-31.38-2.881a10.737,10.737,0,0,1-6.2-1.19c-8.06-4.318-31.029-15.323-40.086-5.859-11.071,11.572-5.085,14.529-2.866,16.543,1.906,1.727,58.86,48.375,74.953,61.554" transform="translate(1.843 243.627)" fill="#b20d0d"/>
      <path id="Trazado_725765" data-name="Trazado 725765" d="M159.523,104.035a5.926,5.926,0,0,0-5.4-6.115c-12.783-1.513-44.791-2.159-45.066.175-.353,2.975,3.9,27.75,3.9,27.75s-13.913.5-12.188,13.206c1.323,9.745,11.291,22.036,15.86,27.227a10.737,10.737,0,0,1,2.63,5.738c1.163,9.072,5.529,34.164,18.491,36.045,15.848,2.3,14.782-4.285,15.136-7.263.3-2.552,5.242-76.01,6.635-96.763" transform="translate(203.246 195.038)" fill="#b20d0d"/>
      <path id="Trazado_725766" data-name="Trazado 725766" d="M173.427,59.514S129.3,63.12,119.232,53.949s-15.238-33.358-15.238-33.358L51.949,25.344s2.772,67.4,37.61,86.456c39.539,21.634,83.645-2.419,83.645-2.419Z" transform="translate(104.931 41.591)" fill="#8a3d02"/>
      <path id="Trazado_725767" data-name="Trazado 725767" d="M166.412,157.332,151.322,96.66l-22.99,8.1L71.6,178.432s18.424,9.621,94.812-21.1" transform="translate(144.623 195.241)" fill="#ffc403"/>
      <path id="Trazado_725768" data-name="Trazado 725768" d="M149.7,69.109s15.975,1.588,22.9,3.153c15.869,3.588,32.76,13.182,33.119,19.961.148,2.751-8.779.245-8.779.245s13.831,8.851,11.98,11.657-10.6-.033-10.6-.033S207.8,110.3,205,113.7s-40.581-12.016-42.173-10.361,2.805,12.1-1.35,14.381-28-25.261-27.641-35.677S149.7,69.109,149.7,69.109" transform="translate(270.334 139.592)" fill="#f98875"/>
      <path id="Trazado_725769" data-name="Trazado 725769" d="M168.216,86.342a.809.809,0,0,1-.251-.042l-18.72-6.565a.757.757,0,1,1,.5-1.428l18.72,6.568a.755.755,0,0,1-.251,1.468" transform="translate(300.436 158.093)"/>
      <path id="Trazado_725770" data-name="Trazado 725770" d="M164.688,81.515a.791.791,0,0,1-.317-.069c-.085-.039-8.45-3.917-13.964-5.046a.76.76,0,0,1-.589-.891.769.769,0,0,1,.891-.592c5.689,1.169,13.949,5,14.3,5.158a.755.755,0,0,1-.317,1.44" transform="translate(302.584 151.3)"/>
      <path id="Trazado_725771" data-name="Trazado 725771" d="M92.484,36.98s28.713-7.468,60.367-1.329,117.724,86.828,117.724,86.828l-40.086,45.815-72.042-59.848L82.823,60.882Z" transform="translate(167.292 67.118)" fill="#8a3d02"/>
      <path id="Trazado_725772" data-name="Trazado 725772" d="M64.576,202a.757.757,0,0,1-.707-.489c-.1-.272-10.1-27.6,5.158-55.542,11.551-21.145,33.931-53.192,37.069-57.662L93.99,76.3a.755.755,0,1,1,1.063-1.072l12.56,12.457a.752.752,0,0,1,.085.972c-.248.35-25.011,35.459-37.344,58.042-14.921,27.312-5.17,54.014-5.07,54.282A.755.755,0,0,1,64.576,202" transform="translate(122.318 151.502)" fill="#507849"/>
      <path id="Trazado_725773" data-name="Trazado 725773" d="M103.566,99.929a.768.768,0,0,1-.516-.2c-.1-.094-9.772-9.325-4.651-22.1a.756.756,0,0,1,1.4.562c-4.744,11.829,4.189,20.351,4.279,20.436a.755.755,0,0,1-.516,1.308" transform="translate(195.734 155.837)" fill="#507849"/>
      <path id="Trazado_725774" data-name="Trazado 725774" d="M121.606,29.392,120.2,47.65s-3.7,4.995-14.447,5.04c-8.006.033-10.663-1.981-10.663-1.981l1.824-9.162L98.7,32.614l19.614-2.757Z" transform="translate(192.066 59.368)" fill="#f98875"/>
      <path id="Trazado_725775" data-name="Trazado 725775" d="M120.422,29.1a6.014,6.014,0,0,1-.667,1.721c-4.787,8.806-19.436,11.249-24.062,11.306L97.483,33.2Z" transform="translate(193.286 58.785)"/>
      <path id="Trazado_725776" data-name="Trazado 725776" d="M102.014,20.575S90.666,42.729,93.465,55.738s14.574,11.714,21.7,9.673a23.131,23.131,0,0,0,10.624-6.121,9.845,9.845,0,0,0,11.1-3.18c4.729-5.786,2.473-12.907-1.148-14.731s-8.208.592-8.208.592l3.875-6.4s-12.514-34.52-29.4-14.994" transform="translate(187.891 29.474)" fill="#f98875"/>
      <path id="Trazado_725777" data-name="Trazado 725777" d="M95.274,21.747a.754.754,0,0,1-.269-1.459l4.488-1.7A.755.755,0,1,1,100.03,20l-4.488,1.7a.708.708,0,0,1-.269.051" transform="translate(190.92 37.43)"/>
      <path id="Trazado_725778" data-name="Trazado 725778" d="M103.495,23.68a.764.764,0,0,1-.483-.172l-4.083-3.355a.757.757,0,1,1,.963-1.169l4.08,3.358a.755.755,0,0,1-.477,1.338" transform="translate(199.269 38.001)"/>
      <path id="Trazado_725779" data-name="Trazado 725779" d="M96.226,34.261a.758.758,0,0,1-.755-.707c-.48-7.828,2.941-11.59,3.089-11.747a.755.755,0,0,1,1.105,1.03c-.033.03-3.126,3.491-2.685,10.621a.761.761,0,0,1-.707.8Z" transform="translate(192.746 43.564)"/>
      <path id="Trazado_725780" data-name="Trazado 725780" d="M104.832,30.3a.756.756,0,0,1-.287-1.456l9.356-3.811a.747.747,0,0,1,.984.414.756.756,0,0,1-.414.984l-9.353,3.811a.759.759,0,0,1-.287.057" transform="translate(210.225 50.441)"/>
      <path id="Trazado_725781" data-name="Trazado 725781" d="M110.12,31.341a.748.748,0,0,1-.553-.239l-3.893-4.164a.755.755,0,1,1,1.1-1.033l3.9,4.164a.755.755,0,0,1-.553,1.271" transform="translate(213.037 51.847)"/>
      <path id="Trazado_725782" data-name="Trazado 725782" d="M112.562,26.2a17.448,17.448,0,0,0-10.79,2.081c-5.59,3.083-6.84,6.254-6.84,6.254a15.532,15.532,0,0,1,4.66-15.875c7.7-7.227,21.982-8.746,29.815.471s7.021,17.05,7.021,17.05L124.871,45.74s-17.108-4-12.309-19.539" transform="translate(190.558 25.701)"/>
      <path id="Trazado_725783" data-name="Trazado 725783" d="M92.121,114.132c-1.93,0-2.5-.84-2.63-1.561-.664-3.672,10.932-12.173,21.4-15.685a.757.757,0,0,1,.849.272.747.747,0,0,1-.006.894c-.48.646-11.865,15.815-19.357,16.078-.085,0-.166,0-.251,0m16.76-14.9c-10.065,4.019-18.255,11.128-17.9,13.07.033.184.474.368,1.344.32,5.224-.184,13.161-9.211,16.561-13.39" transform="translate(180.704 195.617)" fill="#507849"/>
      <path id="Trazado_725784" data-name="Trazado 725784" d="M104.891,41.466A24.931,24.931,0,0,1,95.305,39.6a.757.757,0,1,1,.58-1.4c12.36,5.113,24.787-2.757,24.911-2.839a.755.755,0,0,1,.818,1.268,33.706,33.706,0,0,1-16.724,4.838" transform="translate(191.562 71.178)" fill="#f9bf30"/>
      <path id="Trazado_725785" data-name="Trazado 725785" d="M73.416,43.085a4.849,4.849,0,0,1-1.117-.133c-1.262-.308-1.585-.969-1.637-1.471-.275-2.7,9.244-7.474,13.348-9.4a.754.754,0,0,1,.969,1.069c-.254.429-5.955,9.935-11.563,9.935m-1.25-1.767a3.6,3.6,0,0,0,.486.166c3.216.776,7.16-3.566,9.522-6.834-5.566,2.808-9.929,5.674-10.008,6.668" transform="translate(142.717 64.655)" fill="#f9bf30"/>
      <path id="Trazado_725786" data-name="Trazado 725786" d="M78.525,78.631a.756.756,0,0,1-.755-.728c-1-28.314,14.4-35.417,15.048-35.7a.755.755,0,0,1,.613,1.38c-.154.066-15.115,7.045-14.151,34.267a.756.756,0,0,1-.728.782Z" transform="translate(156.992 85.109)" fill="#f9bf30"/>
      <path id="Trazado_725787" data-name="Trazado 725787" d="M95.32,27.609a.817.817,0,0,1-.223-.033.758.758,0,0,1-.5-.945l.978-3.156L94.29,21.032a.754.754,0,1,1,1.335-.7l1.431,2.715a.767.767,0,0,1,.057.577l-1.072,3.455a.754.754,0,0,1-.722.532" transform="translate(190.279 40.245)"/>
      <path id="Trazado_725788" data-name="Trazado 725788" d="M99.475,28.336a.818.818,0,0,1-.223-.033.758.758,0,0,1-.5-.945l.975-3.144-1.54-2.724a.756.756,0,0,1,1.317-.743l1.7,3a.778.778,0,0,1,.066.6L100.2,27.8a.755.755,0,0,1-.722.531" transform="translate(198.134 41.137)"/>
      <path id="Trazado_725789" data-name="Trazado 725789" d="M104.106,32.086H96.665a.746.746,0,0,1-.607-.311.73.73,0,0,1-.112-.67c.541-1.721,2.47-4.862,6-4.744a3.276,3.276,0,0,1,2.8,1.386c.972,1.534.148,3.639.051,3.875a.754.754,0,0,1-.7.465m-6.293-1.51h5.747a2.764,2.764,0,0,0-.085-2.026,1.88,1.88,0,0,0-1.6-.679,4.538,4.538,0,0,0-4.062,2.706" transform="translate(193.726 53.238)"/>
    </g>
  </g>
</svg>
