<svg xmlns="http://www.w3.org/2000/svg" xmlns:xlink="http://www.w3.org/1999/xlink" width="118" height="118" viewBox="0 0 118 118">
  <defs>
    <clipPath id="clip-path">
      <rect id="Rectángulo_349628" data-name="Rectángulo 349628" width="98.433" height="97.854" fill="none"/>
    </clipPath>
  </defs>
  <g id="Grupo_997419" data-name="Grupo 997419" transform="translate(-1096 -6189)">
    <circle id="Elipse_5911" data-name="Elipse 5911" cx="59" cy="59" r="59" transform="translate(1096 6189)" fill="#06d1d1"/>
    <g id="Grupo_997204" data-name="Grupo 997204" transform="translate(1105.283 6199.073)">
      <g id="Grupo_997203" data-name="Grupo 997203" clip-path="url(#clip-path)">
        <path id="Trazado_730758" data-name="Trazado 730758" d="M61.183,88.48c-2.23-2.281-4.444-4.578-6.7-6.831a2.391,2.391,0,0,1-.519-1.952c0-5.054-.047-10.109.029-15.162.02-1.336-.347-1.912-1.7-1.688a1.1,1.1,0,0,1-.192,0c-3.577-.042-7.4.7-10.661-.347s-5.954-3.864-8.892-5.912c-1.731-1.207-3.412-2.494-5.2-3.616-1.051-.66-1.025-1.189-.312-2.076a30.865,30.865,0,0,0,2.537-3.606c.706-1.2,1.266-1.4,2.486-.494,3.487,2.6,7.105,5.016,10.641,7.548a4.3,4.3,0,0,0,2.663.828q20.161-.036,40.322,0a4.323,4.323,0,0,0,2.653-.859c3.545-2.519,7.142-4.967,10.676-7.5.863-.618,1.356-.654,1.954.309.876,1.41,1.863,2.755,2.851,4.091.543.733.671,1.22-.233,1.838-4.487,3.07-8.935,6.2-13.379,9.327a3.2,3.2,0,0,1-2,.469c-3.136-.006-6.275.072-9.408-.036-1.431-.049-1.823.354-1.814,1.8.064,10.683,0,21.368.077,32.051.012,1.571-.436,2.014-1.949,2.186-1.932.22-3.568.29-4.943-1.466a3.823,3.823,0,0,1-.851-2.6c.015-9.98-.025-19.961.045-29.94.011-1.543-.3-2.227-1.966-2.033a16.927,16.927,0,0,1-3.642,0c-1.611-.164-2.184.263-2.155,2.046.12,7.163.049,14.33.049,21.5v1.879l-.467.235" transform="translate(-16.306 -28.42)"/>
        <path id="Trazado_730759" data-name="Trazado 730759" d="M42.053,160.959c-3.783-.436-7.065-.743-10.324-1.2a68.187,68.187,0,0,1-21.1-6.057,23.989,23.989,0,0,1-7.413-5.376c-4.334-4.863-4.278-10.764.157-15.538,2.943-3.168,6.676-5.132,10.612-6.73A76.534,76.534,0,0,1,28.551,122c1.371-.261,1.487.194,1.442,1.292-.063,1.534-.085,3.076.006,4.606.073,1.234-.274,1.753-1.6,1.994a54.5,54.5,0,0,0-12.651,3.778,20.567,20.567,0,0,0-6.4,4.164c-2.142,2.172-2.134,3.5.044,5.679a19.611,19.611,0,0,0,5.9,3.893c6.3,2.857,12.993,4.2,19.805,5.065a30.573,30.573,0,0,0,6.18.387c-1.91-1.875-3.455-3.462-5.082-4.959-.816-.751-1.04-1.275-.077-2.117,1.3-1.135,2.487-2.4,3.671-3.658.567-.6.956-.605,1.545-.012q7.17,7.224,14.4,14.391c.608.6.544.967-.029,1.534q-7.158,7.1-14.256,14.26c-.761.771-1.2.591-1.828-.093-1.38-1.5-3.8-2.856-3.96-4.454-.165-1.66,2.5-2.922,3.862-4.413.681-.743,1.47-1.386,2.536-2.377" transform="translate(0 -74.946)"/>
        <path id="Trazado_730760" data-name="Trazado 730760" d="M162.454,156.4c0-3.836,0-3.82,3.826-4.367a63.083,63.083,0,0,0,17.16-4.632,15.747,15.747,0,0,0,5.8-4c1.683-1.993,1.68-3.674.015-5.685a14.925,14.925,0,0,0-5.264-3.773,51.839,51.839,0,0,0-13.9-4.214c-1.5-.252-2.117-.795-1.892-2.325a17.349,17.349,0,0,0,.021-2.493c0-3.422.007-3.455,3.257-2.808a65.487,65.487,0,0,1,16.936,5.409,47.677,47.677,0,0,1,4.575,2.806c6.964,4.56,7.09,15.594.019,20.472-5.815,4.012-12.321,6.136-19.086,7.677-3.242.739-6.536,1.21-9.836,1.643-1.444.19-1.807-.287-1.643-1.6a17.119,17.119,0,0,0,.015-2.11" transform="translate(-99.825 -74.855)"/>
        <path id="Trazado_730761" data-name="Trazado 730761" d="M109.283,23.036a11.518,11.518,0,1,1,11.5-11.422,11.507,11.507,0,0,1-11.5,11.422m-.054-7.7a3.785,3.785,0,0,0,3.858-3.864,3.833,3.833,0,1,0-7.664.136,3.792,3.792,0,0,0,3.806,3.728" transform="translate(-60.072 0)"/>
      </g>
    </g>
  </g>
</svg>
