<svg xmlns="http://www.w3.org/2000/svg" xmlns:xlink="http://www.w3.org/1999/xlink" width="118" height="118" viewBox="0 0 118 118">
  <defs>
    <clipPath id="clip-path">
      <rect id="Rectángulo_349627" data-name="Rectángulo 349627" width="90" height="97.854" fill="#fff"/>
    </clipPath>
  </defs>
  <g id="Grupo_997418" data-name="Grupo 997418" transform="translate(-741 -6189)">
    <circle id="Elipse_5910" data-name="Elipse 5910" cx="59" cy="59" r="59" transform="translate(741 6189)" fill="#b20d0d"/>
    <g id="Grupo_997202" data-name="Grupo 997202" transform="translate(755 6199.073)">
      <g id="Grupo_997201" data-name="Grupo 997201" clip-path="url(#clip-path)">
        <path id="Trazado_730750" data-name="Trazado 730750" d="M54.988,66.53c0-1.824.024-3.411-.008-5-.027-1.356.558-1.984,1.946-1.949,1.908.048,3.819-.044,5.725.031,1.133.044,1.769-.224,1.93-1.477a21.363,21.363,0,0,1,.848-3.516,3.764,3.764,0,0,1,4.079-2.991c2.035-.016,4.072.026,6.107-.011a3.7,3.7,0,0,1,3.843,2.791c.105.3.207.6.285.909,1.089,4.275,1.088,4.258,5.4,4.28,5.264.027,4.854-.705,4.855,4.951q0,10.978,0,21.956c0,2.45-.2,2.642-2.573,2.658-.954.006-1.909-.011-2.863,0-1.777.027-3.54-.368-4.738,1.78-.784,1.408-2.676,1.25-4.215,1.15-1.135-.074-1.77.083-2.054,1.48a5.328,5.328,0,0,1-5.4,4.257q-31.2.037-62.408,0a5.537,5.537,0,0,1-5.611-5.6c-.148-3.939-.2-7.9.031-11.831.263-4.468,2.656-7.577,6.876-9.213,5.508-2.134,11-4.31,16.526-6.39,1.162-.438,1.888-.936,1.606-2.283a1.805,1.805,0,0,1,0-.571c.465-3.991-.079-7.4-3.692-10.13-2.418-1.827-3.668-4.878-4.308-7.912-.338-1.6-1.048-1.924-2.556-1.92-4.042.013-6.509-3.507-5-6.944.337-.771.769-1.662,1.523-1.892,2.386-.728,2.031-2.556,2.147-4.376.119-1.872-.345-2.595-2.369-2.446-2.482.183-3.188-1.18-1.94-3.339A5.716,5.716,0,0,1,11.8,20.516,2.176,2.176,0,0,0,13.251,18c-.082-1.841-.043-3.691.013-5.535a5.242,5.242,0,0,1,2.864-4.872C21.888,4.943,27.616,2.157,33.752.446a14.543,14.543,0,0,1,9.523.9c4.412,1.8,8.785,3.687,13.179,5.525a6.358,6.358,0,0,1,4.24,6.376,25.961,25.961,0,0,1-.015,2.671c-.272,2.522-.126,4.756,2.819,5.725a3.142,3.142,0,0,1,1.541,1.644c1.007,1.9.34,3.039-1.807,3.091-2.537.061-2.5.061-2.553,2.7-.037,1.734-.071,3.157,2.007,4.071,1.852.814,2.407,3.34,1.794,5.365a4.706,4.706,0,0,1-4.744,3.436c-2-.106-2.669.611-3.151,2.462a18.525,18.525,0,0,1-6.676,9.97,2.63,2.63,0,0,0-1.128,2.4c.066,2.034.018,4.072.021,6.109,0,.624-.11,1.263.711,1.559,1.775.64,3.529,1.336,5.474,2.078M37.031,26.374c-4.772,0-9.544.028-14.315-.02-1.16-.011-1.743.2-1.683,1.551.1,2.267.4,4.651-1.831,6.278-.147.107-.138.471-.148.717-.156,4.233.061,8.372,2.22,12.212a17.842,17.842,0,0,0,21.835,8.109C52.8,51.477,55.528,43.033,54.881,34.7c-.014-.18-.046-.43-.165-.517-2.2-1.605-2.061-3.954-1.936-6.248.07-1.283-.408-1.6-1.626-1.588-4.707.061-9.415.025-14.123.025m50.28,50.3c0-2.673-.076-5.349.031-8.018.057-1.42-.358-1.84-1.806-1.828q-13.074.1-26.148,0c-1.506-.013-1.772.509-1.752,1.862.073,5.027.008,10.055.037,15.084.018,3.075-.481,2.685,2.746,2.709,3.254.025,3.319.005,3.3-3.258-.012-1.667.641-2.246,2.271-2.221,4.389.067,8.78.054,13.169.006,1.447-.016,2.066.535,2.113,2,.11,3.482.151,3.481,3.679,3.475a8.5,8.5,0,0,1,.953,0c1.074.119,1.452-.326,1.429-1.414-.059-2.8-.02-5.6-.019-8.4m-29.3-57.543c0-2.018-.033-3.919.009-5.817a3.891,3.891,0,0,0-2.626-4c-4.391-1.831-8.775-3.68-13.174-5.49a13.4,13.4,0,0,0-10.567.011c-3.226,1.328-6.44,2.687-9.663,4.023-6.743,2.794-6.063,2.177-6.082,9.493,0,.064.007.127,0,.19-.1,1.032.22,1.267,1.306,1.008a68.6,68.6,0,0,1,13.965-1.7c8.975-.257,17.9.094,26.833,2.28M27.839,57.2c0,2.4-.058,4.748.022,7.094a2.209,2.209,0,0,1-1.787,2.453c-6.185,2.29-12.324,4.7-18.472,7.1a7.336,7.336,0,0,0-4.484,4.869c-.34,1.067-.172,1.622,1.176,1.574,2.664-.095,5.336-.063,8-.009a2.953,2.953,0,0,0,2.325-.953c2.684-2.614,6.892-3.227,9.527-.824,1.928,1.759,3.869,1.777,6.059,1.76,1.334-.01,2.672-.064,4,.016,1.106.068,1.416-.366,1.4-1.422-.054-2.987-.122-5.979.021-8.959.085-1.767-.306-2.6-2.243-2.327-1.494.209-2.237-.531-2.147-2.115.075-1.331.015-2.669.015-4,0-3.258,0-3.259-3.009-4.322-.052-.019-.123.019-.405.071m18.283-.1c-3.413,1.013-3.413,1.013-3.413,4.19q0,1.622,0,3.242c0,2.911-.04,3.013-2.963,3.037-1.2.01-1.513.426-1.493,1.556.059,3.242.053,6.486,0,9.728-.016,1.054.293,1.444,1.4,1.431q6.96-.079,13.921,0c1.045.011,1.461-.253,1.432-1.372q-.105-4.1,0-8.2a1.592,1.592,0,0,0-1.268-1.778c-2.035-.715-4.009-1.616-6.067-2.245a1.915,1.915,0,0,1-1.567-2.2c.052-2.413.015-4.827.015-7.386m7.693,38.072c4.574,0,9.149-.013,13.723.009a3.282,3.282,0,0,0,2.751-1.012c.414-.487.9-1.05.654-1.695-.258-.684-1-.355-1.508-.345-1.894.039-3.814.018-4.9-1.821a2.264,2.264,0,0,0-2.339-1.142c-6.544.025-13.088.013-19.632.012-4.41,0-4.356,0-4.321,4.461.01,1.306.47,1.573,1.662,1.557,4.638-.059,9.276-.024,13.914-.024M20,95.171c4.766,0,9.532-.024,14.3.019,1,.009,1.512-.348,1.265-1.3-.4-1.554,1.235-4.015-.989-4.563-2.456-.606-5.176-.133-7.782-.142-.67,0-.977.509-1.388.893-3.323,3.1-7.567,3.073-10.921-.072a2.219,2.219,0,0,0-1.614-.838c-2.986.033-5.974.012-8.96.017-.517,0-.959.025-1.155.7-.846,2.919.862,5.276,3.9,5.283,4.448.01,8.9,0,13.345,0M12.44,23.541h48.8c-7.786-5.341-43.437-5.495-48.8,0M24.876,84.766a4.829,4.829,0,0,0-4.925-4.948A4.922,4.922,0,0,0,15,84.8a5.03,5.03,0,0,0,4.879,4.9,4.921,4.921,0,0,0,4.993-4.93M72.6,83.7H69.939c-3.723,0-3.69,0-3.536,3.784.055,1.355.627,1.962,1.972,1.951,2.724-.023,5.448-.015,8.171,0,.809,0,1.624-.1,1.852-.978a7.276,7.276,0,0,0,0-4.3c-.4-1.031-1.934-.33-2.956-.433-.94-.094-1.9-.02-2.848-.02m-25.853-.755c-2.417,0-4.835.062-7.249-.023-1.5-.053-1.22.924-1.219,1.772s-.271,1.82,1.211,1.8q7.153-.076,14.307,0c1.513.018,1.181-.972,1.176-1.795s.367-1.84-1.169-1.784c-2.349.087-4.7.023-7.057.023M72.522,62.275c-4.507,0-9.013-.007-13.519.009-.581,0-1.31-.216-1.346.837-.037,1.072.607,1.059,1.352,1.059q13.424-.008,26.848-.005c.688,0,1.445.138,1.454-.966.01-1.156-.812-.924-1.461-.926-4.443-.013-8.886-.007-13.328-.007m-.079-2.684c1.457,0,2.915.014,4.371-.01.4-.006,1.1.133.981-.522a11.483,11.483,0,0,0-1.215-4.347c-.451-.694-7.836-.651-8.234.044A6.617,6.617,0,0,0,67.3,59.092c.232,1.122,1.867.326,2.863.48a14.741,14.741,0,0,0,2.277.02M33.933,61.6c0,3.318,0,3.318,2.487,3.319,3.607,0,3.607,0,3.609-2.433,0-3.49,0-3.441-4.691-3.567-2.7-.072-.73,2-1.4,2.68M7.569,86.481H9.657c2.7,0,2.645,0,2.758-2.561.034-.779-.139-.992-.876-.984-2.594.025-5.189.008-7.784.013-.372,0-.737,0-.954.428a2.057,2.057,0,0,0,1.92,3.1c.95,0,1.9,0,2.848,0m23.893,0c1.01,0,2.021-.026,3.03.007,1.541.049,1.048-1.1,1.076-1.87.028-.741.338-1.722-1.06-1.683-2.018.056-4.039.009-6.058.02-.424,0-.818-.046-.96.6-.482,2.2.046,2.927,2.267,2.93q.852,0,1.7,0M16.363,37.11c-.031-1.2.463-2.577-1.636-2.369-1.818.18-2.9.883-2.879,2.305.018,1.4,1.134,2.151,2.919,2.323,2.125.2,1.514-1.254,1.6-2.259m42.744-2.331c-1.022-.267-1.883.143-1.478,1.513.31,1.046-1.316,3.056,1.369,3.052,1.881,0,3.124-.886,3.028-2.333-.107-1.614-1.118-2.3-2.919-2.231m-1.1-5.449c0-.7-.026-1.394.007-2.088.039-.843-.494-.911-1.107-.86-.576.049-1.409-.253-1.438.739a24.761,24.761,0,0,0,.1,3.783c.108.862.861,1.189,1.713,1.163,1.078-.033.645-.872.719-1.41a8.917,8.917,0,0,0,.007-1.327m-42.088-.181H15.91a8.51,8.51,0,0,0,.013,1.327c.095.593-.4,1.554.753,1.584a1.479,1.479,0,0,0,1.687-1.609c.015-1.075-.01-2.151.01-3.227.015-.845-.544-.861-1.144-.848-.621.014-1.336-.125-1.311.874.016.632,0,1.265,0,1.9" transform="translate(0 0)" fill="#fff"/>
        <path id="Trazado_730751" data-name="Trazado 730751" d="M82,122.756a9.167,9.167,0,0,1-8.908-7.177c-.393-1.856.5-3.221,2.4-3.259q6.466-.132,12.936,0c1.94.038,2.772,1.281,2.445,3.238a9.154,9.154,0,0,1-8.873,7.2m6.1-6.964c-.024-1.078-.764-.813-1.248-.817q-4.752-.041-9.5,0c-.505,0-1.286-.291-1.4.53a2.123,2.123,0,0,0,.749,1.69c.577.577.871-.167,1.229-.406a6.722,6.722,0,0,1,8.151.016c.342.226.676.851,1.092.482a5.737,5.737,0,0,0,.934-1.5m-3.307,3.546c-2.181-1.621-3.721-1.586-5.433.042a5.573,5.573,0,0,0,5.433-.042" transform="translate(-45.025 -69.237)" fill="#fff"/>
        <path id="Trazado_730752" data-name="Trazado 730752" d="M70.347,75.651a8.768,8.768,0,0,1,2.75.374c.8.305,1.381.787,1.119,1.685a1.288,1.288,0,0,1-1.8.889,5.828,5.828,0,0,0-3.36,0,1.24,1.24,0,0,1-1.756-.918c-.227-.914.314-1.437,1.144-1.65.727-.187,1.473-.3,1.9-.382" transform="translate(-41.48 -46.661)" fill="#fff"/>
        <path id="Trazado_730753" data-name="Trazado 730753" d="M110.88,75.705a6.769,6.769,0,0,1,2.589.445,1.276,1.276,0,0,1,.838,1.665,1.155,1.155,0,0,1-1.463.874,7.245,7.245,0,0,0-3.909,0,1.159,1.159,0,0,1-1.47-.866,1.274,1.274,0,0,1,.827-1.67,6.7,6.7,0,0,1,2.588-.449" transform="translate(-66.237 -46.694)" fill="#fff"/>
        <path id="Trazado_730754" data-name="Trazado 730754" d="M75.506,91.122c.019.938-.29,1.66-1.36,1.616-1.053-.044-1.314-.821-1.3-1.721.012-.858.4-1.522,1.306-1.535,1.019-.014,1.4.68,1.355,1.641" transform="translate(-44.93 -55.191)" fill="#fff"/>
        <path id="Trazado_730755" data-name="Trazado 730755" d="M113.051,91.162c.027-1.022.379-1.731,1.42-1.679.935.047,1.235.754,1.231,1.586,0,.886-.232,1.669-1.323,1.67s-1.293-.787-1.328-1.578" transform="translate(-69.729 -55.19)" fill="#fff"/>
        <path id="Trazado_730756" data-name="Trazado 730756" d="M185.837,184.068c-.063,1.158-.855,1.506-1.829,1.384-1.747-.22-2.633.266-2.336,2.212.142.928-.093,1.913-1.277,1.924-1.158.01-1.482-.942-1.351-1.884.257-1.856-.446-2.518-2.277-2.253-.967.14-1.861-.2-1.832-1.377.03-1.2.983-1.4,1.921-1.262,1.756.253,2.389-.429,2.188-2.173-.114-.984.089-2.04,1.427-1.98,1.232.055,1.313,1.09,1.2,1.979-.221,1.757.45,2.412,2.2,2.175.913-.124,1.824,0,1.97,1.254" transform="translate(-107.897 -110.194)" fill="#fff"/>
        <path id="Trazado_730757" data-name="Trazado 730757" d="M87.868,23c-1.15-.212-1.385-1.076-1.271-2,.2-1.593-.409-2.165-1.988-1.985-.912.1-1.908-.077-1.929-1.287-.024-1.37,1.077-1.445,2.035-1.343,1.531.162,2.039-.449,1.88-1.925-.107-1,.086-2.071,1.365-2.061,1.326.011,1.393,1.142,1.272,2.105-.2,1.582.509,2.007,1.947,1.874.984-.091,2.091.036,2.053,1.347-.037,1.282-1.151,1.407-2.126,1.294-1.558-.181-2.02.489-1.869,1.943.1.991-.022,1.958-1.369,2.042" transform="translate(-50.995 -7.645)" fill="#fff"/>
      </g>
    </g>
  </g>
</svg>
