<svg id="Grupo_997106" data-name="Grupo 997106" xmlns="http://www.w3.org/2000/svg" xmlns:xlink="http://www.w3.org/1999/xlink" width="428.161" height="407.907" viewBox="0 0 428.161 407.907">
  <defs>
    <clipPath id="clip-path">
      <rect id="Rectángulo_349588" data-name="Rectángulo 349588" width="428.161" height="407.907" fill="none"/>
    </clipPath>
    <clipPath id="clip-path-3">
      <rect id="Rectángulo_349547" data-name="Rectángulo 349547" width="205.469" height="18.751" transform="translate(122.042 137.386)" fill="none"/>
    </clipPath>
    <clipPath id="clip-path-4">
      <rect id="Rectángulo_349548" data-name="Rectángulo 349548" width="39.667" height="51.557" transform="translate(130.257 355.086)" fill="none"/>
    </clipPath>
    <clipPath id="clip-path-5">
      <rect id="Rectángulo_349549" data-name="Rectángulo 349549" width="39.667" height="51.557" transform="translate(279.629 355.086)" fill="none"/>
    </clipPath>
    <clipPath id="clip-path-7">
      <rect id="Rectángulo_349551" data-name="Rectángulo 349551" width="66.333" height="122.559" transform="translate(142.289 57.88)" fill="none"/>
    </clipPath>
    <clipPath id="clip-path-8">
      <rect id="Rectángulo_349552" data-name="Rectángulo 349552" width="55.378" height="88.941" transform="translate(147.325 86.292)" fill="none"/>
    </clipPath>
    <clipPath id="clip-path-9">
      <rect id="Rectángulo_349553" data-name="Rectángulo 349553" width="54.541" height="41.072" transform="translate(152.257 87.397)" fill="none"/>
    </clipPath>
    <clipPath id="clip-path-10">
      <rect id="Rectángulo_349554" data-name="Rectángulo 349554" width="74.853" height="24.431" transform="translate(97.764 383.476)" fill="none"/>
    </clipPath>
    <clipPath id="clip-path-11">
      <rect id="Rectángulo_349555" data-name="Rectángulo 349555" width="66.363" height="55.056" transform="translate(0 352.849)" fill="none"/>
    </clipPath>
    <clipPath id="clip-path-12">
      <rect id="Rectángulo_349556" data-name="Rectángulo 349556" width="12.072" height="23.967" transform="translate(95.532 49.388)" fill="none"/>
    </clipPath>
    <clipPath id="clip-path-14">
      <rect id="Rectángulo_349558" data-name="Rectángulo 349558" width="120.498" height="260.44" transform="translate(255.552 146.203)" fill="none"/>
    </clipPath>
    <clipPath id="clip-path-16">
      <rect id="Rectángulo_349562" data-name="Rectángulo 349562" width="74.374" height="6.681" transform="translate(305.886 140.41)" fill="none"/>
    </clipPath>
    <clipPath id="clip-path-18">
      <rect id="Rectángulo_349572" data-name="Rectángulo 349572" width="114.38" height="259.552" transform="translate(308.997 147.091)" fill="none"/>
    </clipPath>
    <clipPath id="clip-path-19">
      <rect id="Rectángulo_349573" data-name="Rectángulo 349573" width="69.401" height="35.6" transform="translate(358.76 273.005)" fill="none"/>
    </clipPath>
    <clipPath id="clip-path-20">
      <rect id="Rectángulo_349574" data-name="Rectángulo 349574" width="39.806" height="30.618" transform="translate(358.76 277.988)" fill="none"/>
    </clipPath>
    <clipPath id="clip-path-21">
      <rect id="Rectángulo_349575" data-name="Rectángulo 349575" width="81.616" height="153.79" transform="translate(327.982 114.276)" fill="none"/>
    </clipPath>
    <clipPath id="clip-path-22">
      <rect id="Rectángulo_349576" data-name="Rectángulo 349576" width="71.361" height="24.47" transform="translate(328.397 335.428)" fill="none"/>
    </clipPath>
    <clipPath id="clip-path-23">
      <rect id="Rectángulo_349577" data-name="Rectángulo 349577" width="28.481" height="29.139" transform="translate(363.137 16.6)" fill="none"/>
    </clipPath>
    <clipPath id="clip-path-24">
      <rect id="Rectángulo_349578" data-name="Rectángulo 349578" width="2.924" height="15.779" transform="translate(384.528 29.809)" fill="none"/>
    </clipPath>
    <clipPath id="clip-path-25">
      <rect id="Rectángulo_349579" data-name="Rectángulo 349579" width="2.628" height="9.267" transform="translate(387.848 31.555)" fill="none"/>
    </clipPath>
    <clipPath id="clip-path-26">
      <rect id="Rectángulo_349580" data-name="Rectángulo 349580" width="7.143" height="5.825" transform="translate(362.325 19.462)" fill="none"/>
    </clipPath>
    <clipPath id="clip-path-27">
      <rect id="Rectángulo_349581" data-name="Rectángulo 349581" width="4.7" height="4.716" transform="translate(361.51 22.821)" fill="none"/>
    </clipPath>
    <clipPath id="clip-path-28">
      <rect id="Rectángulo_349582" data-name="Rectángulo 349582" width="18.533" height="8.301" transform="translate(368.5 16.547)" fill="none"/>
    </clipPath>
    <clipPath id="clip-path-29">
      <rect id="Rectángulo_349583" data-name="Rectángulo 349583" width="6.891" height="5.1" transform="translate(367.994 12.857)" fill="none"/>
    </clipPath>
    <clipPath id="clip-path-30">
      <rect id="Rectángulo_349584" data-name="Rectángulo 349584" width="3.566" height="3.806" transform="translate(372.513 16.231)" fill="none"/>
    </clipPath>
    <clipPath id="clip-path-31">
      <rect id="Rectángulo_349585" data-name="Rectángulo 349585" width="8.367" height="5.206" transform="translate(377.83 18.888)" fill="none"/>
    </clipPath>
    <clipPath id="clip-path-32">
      <rect id="Rectángulo_349586" data-name="Rectángulo 349586" width="2.799" height="3.684" transform="translate(376.382 18.573)" fill="none"/>
    </clipPath>
  </defs>
  <g id="Grupo_997105" data-name="Grupo 997105" clip-path="url(#clip-path)">
    <rect id="Rectángulo_349546" data-name="Rectángulo 349546" width="229.701" height="28.74" transform="translate(109.926 108.646)" fill="#ffc727"/>
    <path id="Trazado_730389" data-name="Trazado 730389" d="M312.283,403.137H137.269L122.041,137.385h205.47Z" fill="#ffc727"/>
    <g id="Grupo_997027" data-name="Grupo 997027">
      <g id="Grupo_997026" data-name="Grupo 997026" clip-path="url(#clip-path)">
        <path id="Trazado_730390" data-name="Trazado 730390" d="M195.74,254.483l24.967.021v23.089s-12.742-.048-18.845.033a12.36,12.36,0,0,1-4.686-.828,9.328,9.328,0,0,1-4.932-4.119c-.625-1.093-13.961-26.494-14.134-27.793a6.994,6.994,0,0,1,.869-4.6c1.262-2.142,5.834-9.973,5.834-9.973s-5-3.108-7.343-4.507c-.019-.011,22.684.239,22.684.239s12.251,20.054,12.228,19.88l-8.432-5.079Z" fill="#fff"/>
        <path id="Trazado_730391" data-name="Trazado 730391" d="M255.388,254.483l-13.455-22.266L260.69,221.19s6.417,11.009,9.579,16.229a12.363,12.363,0,0,1,1.661,4.459,9.321,9.321,0,0,1-1.051,6.339c-.625,1.094-15.764,25.463-16.8,26.271a6.989,6.989,0,0,1-4.406,1.582c-2.487,0-11.555.025-11.555.025s-.147,5.882-.163,8.615c0,.021-11.29-19.677-11.29-19.677s11.079-20.724,10.94-20.616l-.107,10.071Z" fill="#fff"/>
        <path id="Trazado_730392" data-name="Trazado 730392" d="M225.563,204.95l-12.9,21.423-19.2-10.182s6.013-11.235,8.8-16.664a12.375,12.375,0,0,1,2.927-3.751,9.325,9.325,0,0,1,5.95-2.428c1.259-.04,29.947.08,31.176.536a6.985,6.985,0,0,1,3.657,2.923c1.3,2.119,6.078,9.827,6.078,9.827s5.086-2.956,7.422-4.376c.018-.011-10.84,19.929-10.84,19.929s-23.456,1.427-23.292,1.487l8.442-5.071s-8.135-13.536-8.222-13.653" fill="#fff"/>
        <g id="Grupo_997019" data-name="Grupo 997019" opacity="0.1">
          <g id="Grupo_997018" data-name="Grupo 997018">
            <g id="Grupo_997017" data-name="Grupo 997017" clip-path="url(#clip-path-3)">
              <path id="Trazado_730393" data-name="Trazado 730393" d="M122.042,137.385l.593,9.884,203.752,8.867,1.125-18.751Z"/>
            </g>
          </g>
        </g>
        <path id="Trazado_730394" data-name="Trazado 730394" d="M169.924,406.643H133.03l-2.773-51.557h39.667Z" fill="#ffc727"/>
        <g id="Grupo_997022" data-name="Grupo 997022" opacity="0.1">
          <g id="Grupo_997021" data-name="Grupo 997021">
            <g id="Grupo_997020" data-name="Grupo 997020" clip-path="url(#clip-path-4)">
              <path id="Trazado_730395" data-name="Trazado 730395" d="M169.924,406.643H133.03l-2.773-51.557h39.667Z"/>
            </g>
          </g>
        </g>
        <path id="Trazado_730396" data-name="Trazado 730396" d="M279.629,406.643h36.894l2.773-51.557H279.629Z" fill="#ffc727"/>
        <g id="Grupo_997025" data-name="Grupo 997025" opacity="0.1">
          <g id="Grupo_997024" data-name="Grupo 997024">
            <g id="Grupo_997023" data-name="Grupo 997023" clip-path="url(#clip-path-5)">
              <path id="Trazado_730397" data-name="Trazado 730397" d="M279.629,406.643h36.894l2.773-51.557H279.629Z"/>
            </g>
          </g>
        </g>
      </g>
    </g>
    <g id="Grupo_997047" data-name="Grupo 997047">
      <g id="Grupo_997046" data-name="Grupo 997046" clip-path="url(#clip-path)">
        <g id="Grupo_997030" data-name="Grupo 997030" opacity="0.8">
          <g id="Grupo_997029" data-name="Grupo 997029">
            <g id="Grupo_997028" data-name="Grupo 997028" clip-path="url(#clip-path-7)">
              <path id="Trazado_730398" data-name="Trazado 730398" d="M142.289,170.987l48.4,9.416,10.852-56.552a9.629,9.629,0,0,1-2.885-1.353.874.874,0,0,1,.311-1.56,11.713,11.713,0,0,1,3.219-.344l.581-3.04a9.6,9.6,0,0,1-2.885-1.353.907.907,0,0,1,.318-1.6,14.275,14.275,0,0,1,3.212-.3l.581-3.04a9.63,9.63,0,0,1-2.885-1.354.911.911,0,0,1,.318-1.6,14.281,14.281,0,0,1,3.212-.3l.6-3.079a11.275,11.275,0,0,1-2.906-1.314.911.911,0,0,1,.318-1.6,18.244,18.244,0,0,1,3.219-.345l2.482-12.773c.874-4.488-13.263-24.644-13.263-24.644l.667-3.482L182.28,58.139l-.681,3.479S160.9,74.6,159.955,79.459l-2.482,12.774a17.949,17.949,0,0,1,2.856,1.534.8.8,0,0,1,.283.36.894.894,0,0,1-.3,1.089.56.56,0,0,1-.3.152,11.33,11.33,0,0,1-3.169.124l-.6,3.079A14.008,14.008,0,0,1,159,100a.884.884,0,0,1-.214,1.66c-.088.015-.162.031-.25.045a9.477,9.477,0,0,1-2.94.119l-.581,3.04a13.588,13.588,0,0,1,2.332,1.164c.2.117.362.23.531.328a.911.911,0,0,1-.318,1.6,4.91,4.91,0,0,1-.762.132,9.391,9.391,0,0,1-2.428.032l-.581,3.04a12.192,12.192,0,0,1,1.943.929c.336.211.644.418.9.6a.874.874,0,0,1-.3,1.562,7.815,7.815,0,0,1-1.227.184,9.18,9.18,0,0,1-1.963-.02l-5.706,29.315,0,.028Z" fill="#fff"/>
              <path id="Trazado_730399" data-name="Trazado 730399" d="M142.289,170.987c-.075-.049,49.017,9.274,48.274,9.391.1.044,10.667-57.334,10.929-56.351a9.784,9.784,0,0,1-2.915-1.358,1.029,1.029,0,0,1-.444-1.114,1.061,1.061,0,0,1,.867-.818,11.794,11.794,0,0,1,3.194-.334l-.2.155.579-3.04.139.223a9.852,9.852,0,0,1-2-.8c-.638-.349-1.6-.8-1.364-1.695.161-.908,1.206-.9,1.923-1.024a11.746,11.746,0,0,1,2.148-.124l-.207.164.578-3.04.147.235a9.861,9.861,0,0,1-2-.8c-.644-.35-1.6-.814-1.366-1.707a1.1,1.1,0,0,1,.873-.859,14.185,14.185,0,0,1,3.205-.3l-.219.172.6-3.079.154.249a11.435,11.435,0,0,1-2.95-1.328,1.128,1.128,0,0,1,.441-2.024,18.07,18.07,0,0,1,3.2-.339l-.219.181c.348-1.815,2.133-11.029,2.446-12.655.184-2.489-1.341-4.877-2.356-7.1-1.572-3.043-3.351-5.983-5.17-8.893q-2.771-4.4-5.734-8.676l.019-.1.67-3.48.185.273-13.474-2.638.258-.174-.684,3.479c-5.663,3.859-11.629,7.626-16.864,12.152-1.8,1.684-4.075,3.362-4.824,5.774-.288,1.569-2.14,10.891-2.476,12.681l-.108-.2a17.89,17.89,0,0,1,2.9,1.561,1.064,1.064,0,0,1,.424.871,1.118,1.118,0,0,1-.427.834,1.639,1.639,0,0,1-.936.288,11.281,11.281,0,0,1-2.674.039l.186-.136-.6,3.078-.106-.188a14.138,14.138,0,0,1,2.778,1.444,1.032,1.032,0,0,1,.534,1.066,1.053,1.053,0,0,1-.786.9,10.045,10.045,0,0,1-3.246.165l.173-.128-.583,3.039-.1-.175a15.376,15.376,0,0,1,2.885,1.506,1.065,1.065,0,0,1-.287,1.856,9.723,9.723,0,0,1-3.314.188l.162-.119-.584,3.039c-.441-.484,1.61.62,1.836.758.537.393,1.558.8,1.358,1.632a.978.978,0,0,1-.8.818l-1.06.159a8.781,8.781,0,0,1-2.137,0l.151-.109c-2.786,14.062-8.321,42.451-10.989,56.539m0,0c2.6-14.138,7.957-42.493,10.72-56.591l.024-.125.127.015a10.192,10.192,0,0,0,3.108-.16.692.692,0,0,0,.579-.592c.156-.667-.694-.921-1.226-1.339a12.187,12.187,0,0,0-1.882-.895l-.116-.042.023-.121.578-3.04.026-.134a9.569,9.569,0,0,0,3.323-.165.7.7,0,0,0,.407-.337.76.76,0,0,0-.193-.978,15.084,15.084,0,0,0-2.95-1.515l.024-.13.579-3.039.027-.144a10.217,10.217,0,0,0,1.722.062,10.324,10.324,0,0,0,1.557-.21.746.746,0,0,0,.164-1.366,13.615,13.615,0,0,0-2.86-1.462l.027-.14.6-3.079.03-.154.155.018a8.493,8.493,0,0,0,3.319-.226.742.742,0,0,0,.332-.6.7.7,0,0,0-.29-.59,17.69,17.69,0,0,0-2.951-1.563l.028-.143,1.961-10.148.491-2.537c.768-2.569,3.083-4.241,4.938-6a156.06,156.06,0,0,1,16.794-12.08l-.1.142.677-3.48.042-.216.217.042L195.8,60.534l.229.044-.044.229-.664,3.482-.038-.18c4.759,7.14,9.89,14.224,12.956,22.3a5.6,5.6,0,0,1,.321,2.648l-.494,2.53-1.976,10.12-.035.181a15.2,15.2,0,0,0-2.263.159c-.5.13-1.463.025-1.576.691a.666.666,0,0,0,.26.7,11.016,11.016,0,0,0,3.013,1.329l-.038.195-.6,3.078-.035.18-.183-.008a13.838,13.838,0,0,0-3.1.285.7.7,0,0,0-.275,1.253,9.476,9.476,0,0,0,2.978,1.36l-.035.186-.584,3.038-.033.172a11.383,11.383,0,0,0-2.249.109c-.547.139-1.436.006-1.592.713a.681.681,0,0,0,.28.725,9.493,9.493,0,0,0,2.974,1.362l-.033.175-.584,3.039-.031.162-.166-.007a11.409,11.409,0,0,0-3.094.319.675.675,0,0,0-.585.534.647.647,0,0,0,.287.722,9.4,9.4,0,0,0,2.8,1.315c.508-.045-10.9,56.54-10.774,56.752.066.4-48.377-9.544-48.527-9.44" fill="#263238"/>
            </g>
          </g>
        </g>
        <g id="Grupo_997033" data-name="Grupo 997033" opacity="0.8">
          <g id="Grupo_997032" data-name="Grupo 997032">
            <g id="Grupo_997031" data-name="Grupo 997031" clip-path="url(#clip-path-8)">
              <path id="Trazado_730400" data-name="Trazado 730400" d="M162.96,86.538l-10.3,52.924-5.339,28.024,39.858,7.747L202.7,94.871c-3.609.537-33.5-6.818-39.666-8.578a.776.776,0,0,0-.077.245" fill="#ebebeb"/>
            </g>
          </g>
        </g>
        <path id="Trazado_730401" data-name="Trazado 730401" d="M180.047,57.707,198.4,61.282a.511.511,0,0,0,.6-.4l1.744-8.95a.512.512,0,0,0-.4-.6l-18.356-3.575a.512.512,0,0,0-.6.4l-1.743,8.951a.511.511,0,0,0,.4.6" fill="#ffc727"/>
        <path id="Trazado_730402" data-name="Trazado 730402" d="M200.654,128.469l-48.4-9.495.886-4.552a9.143,9.143,0,0,0,1.965.022,7.331,7.331,0,0,0,1.225-.184.874.874,0,0,0,.3-1.561c-.254-.184-.562-.393-.9-.607a12.2,12.2,0,0,0-1.944-.924l.582-3.044a9.23,9.23,0,0,0,2.428-.029,5.887,5.887,0,0,0,.762-.133.912.912,0,0,0,.314-1.6c-.166-.1-.331-.206-.53-.326a13.649,13.649,0,0,0-2.328-1.163l.582-3.044a9.368,9.368,0,0,0,2.936-.115c.091-.012.163-.035.254-.047a.912.912,0,0,0,.315-1.6A.814.814,0,0,1,159,100a13.908,13.908,0,0,0-2.758-1.433l.6-3.078a11.121,11.121,0,0,0,3.168-.129.5.5,0,0,0,.3-.15.9.9,0,0,0,.311-1.091.824.824,0,0,0-.288-.353,17.955,17.955,0,0,0-2.855-1.541l.94-4.832L206.8,96.89l-.929,4.774a18.2,18.2,0,0,0-3.218.343.912.912,0,0,0-.314,1.6,11.279,11.279,0,0,0,2.908,1.314l-.6,3.077a14.652,14.652,0,0,0-3.218.305.911.911,0,0,0-.314,1.6,9.768,9.768,0,0,0,2.885,1.354l-.581,3.037a14.075,14.075,0,0,0-3.211.306.9.9,0,0,0-.32,1.594,9.52,9.52,0,0,0,2.885,1.354l-.582,3.043a11.545,11.545,0,0,0-3.218.343.875.875,0,0,0-.313,1.558,9.519,9.519,0,0,0,2.885,1.354Z" fill="#ffc727"/>
        <g id="Grupo_997036" data-name="Grupo 997036" opacity="0.6">
          <g id="Grupo_997035" data-name="Grupo 997035">
            <g id="Grupo_997034" data-name="Grupo 997034" clip-path="url(#clip-path-9)">
              <path id="Trazado_730403" data-name="Trazado 730403" d="M200.654,128.469l-48.4-9.495.886-4.552a9.143,9.143,0,0,0,1.965.022,7.331,7.331,0,0,0,1.225-.184.874.874,0,0,0,.3-1.561c-.254-.184-.562-.393-.9-.607a12.2,12.2,0,0,0-1.944-.924l.582-3.044a9.23,9.23,0,0,0,2.428-.029,5.887,5.887,0,0,0,.762-.133.912.912,0,0,0,.314-1.6c-.166-.1-.331-.206-.53-.326a13.649,13.649,0,0,0-2.328-1.163l.582-3.044a9.368,9.368,0,0,0,2.936-.115c.091-.012.163-.035.254-.047a.912.912,0,0,0,.315-1.6A.814.814,0,0,1,159,100a13.908,13.908,0,0,0-2.758-1.433l.6-3.078a11.121,11.121,0,0,0,3.168-.129.5.5,0,0,0,.3-.15.9.9,0,0,0,.311-1.091.824.824,0,0,0-.288-.353,17.955,17.955,0,0,0-2.855-1.541l.94-4.832L206.8,96.89l-.929,4.774a18.2,18.2,0,0,0-3.218.343.912.912,0,0,0-.314,1.6,11.279,11.279,0,0,0,2.908,1.314l-.6,3.077a14.652,14.652,0,0,0-3.218.305.911.911,0,0,0-.314,1.6,9.768,9.768,0,0,0,2.885,1.354l-.581,3.037a14.075,14.075,0,0,0-3.211.306.9.9,0,0,0-.32,1.594,9.52,9.52,0,0,0,2.885,1.354l-.582,3.043a11.545,11.545,0,0,0-3.218.343.875.875,0,0,0-.313,1.558,9.519,9.519,0,0,0,2.885,1.354Z" fill="#fff"/>
            </g>
          </g>
        </g>
        <path id="Trazado_730404" data-name="Trazado 730404" d="M99.519,341.241s-1.752,42.928-1.753,42.958c.219,8.39.561,15.742,1.093,19.528a.13.13,0,0,0,.009.061,5.885,5.885,0,0,0,.687,2.576c.021.02.031.041.051.051,2.541,1.626,69.638,1.83,71.981,1.049s.3-7.518-2.3-9.6c-2.617-2.085-28.262-13.652-28.262-13.652l1.337-42.9Z" fill="#d3766a"/>
        <path id="Trazado_730405" data-name="Trazado 730405" d="M97.485,375.194s.282,8.975.282,9.005c.219,8.39.561,15.741,1.092,19.528a.131.131,0,0,0,.01.061,11.379,11.379,0,0,0,.687,2.575c.02.021.03.041.05.052,2.541,1.626,69.639,1.83,71.981,1.049s.3-7.518-2.3-9.6c-2.618-2.085-28.262-13.652-28.262-13.652l-.162-9.143Z" fill="#ebebeb"/>
        <path id="Trazado_730406" data-name="Trazado 730406" d="M171.588,407.465c-2.346.783-69.437.58-71.985-1.051-.978-.6-1.519-10.381-1.832-22.214,0-.124-.005-.248-.007-.371l43.286-.353-.019.735s25.646,11.564,28.26,13.653c2.593,2.081,4.644,8.828,2.3,9.6" fill="#ffc727"/>
        <g id="Grupo_997039" data-name="Grupo 997039" opacity="0.4">
          <g id="Grupo_997038" data-name="Grupo 997038">
            <g id="Grupo_997037" data-name="Grupo 997037" clip-path="url(#clip-path-10)">
              <path id="Trazado_730407" data-name="Trazado 730407" d="M171.588,407.465c-2.346.783-69.437.58-71.985-1.051-.978-.6-1.519-10.381-1.832-22.214,0-.124-.005-.248-.007-.371l43.286-.353-.019.735s25.646,11.564,28.26,13.653c2.593,2.081,4.644,8.828,2.3,9.6"/>
            </g>
          </g>
        </g>
        <path id="Trazado_730408" data-name="Trazado 730408" d="M170.836,404.862c-11.309-.312-56.95-.5-68.152.048-.091.005-.092.067,0,.072,11.2.553,56.843.374,68.152.065.238-.006.239-.178,0-.185" fill="#263238"/>
        <path id="Trazado_730409" data-name="Trazado 730409" d="M144.667,384.352c-4.448-.844-9.893-.177-13.3,2.983-.132.122.044.308.188.264a62.572,62.572,0,0,1,13.1-2.685.284.284,0,0,0,.019-.562" fill="#263238"/>
        <path id="Trazado_730410" data-name="Trazado 730410" d="M147.874,386.3c-4.448-.844-9.893-.177-13.3,2.983-.133.122.044.309.188.264a62.574,62.574,0,0,1,13.1-2.685.284.284,0,0,0,.019-.562" fill="#263238"/>
        <path id="Trazado_730411" data-name="Trazado 730411" d="M151.081,388.244c-4.449-.844-9.893-.177-13.3,2.983-.132.123.043.309.188.264a62.572,62.572,0,0,1,13.1-2.685.285.285,0,0,0,.02-.562" fill="#263238"/>
        <path id="Trazado_730412" data-name="Trazado 730412" d="M94.9,380.3l46.938-.938s5.724-80.694,4.658-108.854c-1.159-30.587-14.3-121.6-14.3-121.6H92.555s10.133,91.368,10.348,121.968c.2,28.369-8,109.424-8,109.424" fill="#263238"/>
        <path id="Trazado_730413" data-name="Trazado 730413" d="M132.2,148.906,101.986,250.039c-2.819-38.988-9.431-101.132-9.431-101.132Z" fill="#37474f"/>
        <path id="Trazado_730414" data-name="Trazado 730414" d="M100.08,153.392,102.6,180.56l2.331,27.184c1.493,18.129,2.91,36.261,3.989,54.43.264,4.54.424,9.1.36,13.667-.1,4.555-.28,9.1-.511,13.648q-.7,13.632-1.752,27.235-1.032,13.605-2.2,27.2l-2.533,23.4,2.029-23.437q1.017-13.6,1.913-27.213c.573-9.074,1.188-18.146,1.606-27.225.215-4.539.381-9.079.463-13.616.049-4.53-.129-9.06-.4-13.6-.991-18.15-2.424-36.286-3.747-54.423Z" fill="#37474f"/>
        <path id="Trazado_730415" data-name="Trazado 730415" d="M139.879,370.132c-7.077-.067-5.045-.151-12.122-.136-3.463.008-26.222.078-29.45.672a.079.079,0,0,0,0,.15c3.242.515,26,.034,29.457-.043,7.076-.156,5.042-.191,12.116-.429a.107.107,0,0,0,0-.214" fill="#37474f"/>
        <path id="Trazado_730416" data-name="Trazado 730416" d="M31.338,316.349s-22.643,36.8-22.657,36.829C5,360.722,1.914,367.4.638,371.006a.13.13,0,0,0-.02.058,5.848,5.848,0,0,0-.579,2.6.215.215,0,0,0,.021.069c1.5,2.615,60.933,33.763,63.371,34.151s3.738-6.53,2.4-9.579c-1.36-3.058-18.771-25.155-18.771-25.155l22.259-36.966Z" fill="#d3766a"/>
        <path id="Trazado_730417" data-name="Trazado 730417" d="M.043,373.672a.136.136,0,0,0,.011.065c1.508,2.616,60.937,33.762,63.379,34.153s3.733-6.533,2.4-9.583c-1.367-3.06-18.775-25.156-18.775-25.156l3.972-6.6c-9.713-5.177-27.37-14.271-38.331-19.9-2.388,3.875-4.015,6.523-4.015,6.534C5,360.725,1.91,367.4.64,371a.157.157,0,0,0-.022.065,5.65,5.65,0,0,0-.575,2.605" fill="#ebebeb"/>
        <path id="Trazado_730418" data-name="Trazado 730418" d="M63.431,407.889C60.989,407.5,1.564,376.357.057,373.733c-.59-.987,3.443-9.91,8.626-20.552.056-.111.111-.221.166-.332l38.563,19.665-.356.643s17.414,22.1,18.769,25.155c1.339,3.042.044,9.975-2.394,9.577" fill="#ffc727"/>
        <g id="Grupo_997042" data-name="Grupo 997042" opacity="0.4">
          <g id="Grupo_997041" data-name="Grupo 997041">
            <g id="Grupo_997040" data-name="Grupo 997040" clip-path="url(#clip-path-11)">
              <path id="Trazado_730419" data-name="Trazado 730419" d="M63.431,407.889C60.989,407.5,1.564,376.357.057,373.733c-.59-.987,3.443-9.91,8.626-20.552.056-.111.111-.221.166-.332l38.563,19.665-.356.643s17.414,22.1,18.769,25.155c1.339,3.042.044,9.975-2.394,9.577"/>
            </g>
          </g>
        </g>
        <path id="Trazado_730420" data-name="Trazado 730420" d="M63.966,405.232c-9.888-5.5-50.29-26.73-60.482-31.411-.083-.038-.112.016-.033.063,9.682,5.661,50.254,26.567,60.429,31.512.215.1.294-.048.086-.164" fill="#263238"/>
        <path id="Trazado_730421" data-name="Trazado 730421" d="M50.216,374.96c-3.556-2.8-8.695-4.723-13.178-3.493-.174.047-.1.293.045.32A62.564,62.564,0,0,1,49.94,375.45a.285.285,0,0,0,.276-.49" fill="#263238"/>
        <path id="Trazado_730422" data-name="Trazado 730422" d="M52.163,378.166c-3.556-2.8-8.695-4.723-13.178-3.493-.174.047-.1.293.045.32a62.58,62.58,0,0,1,12.856,3.663.285.285,0,0,0,.277-.49" fill="#263238"/>
        <path id="Trazado_730423" data-name="Trazado 730423" d="M54.11,381.372c-3.556-2.8-8.695-4.723-13.179-3.494-.174.048-.1.294.046.321a62.535,62.535,0,0,1,12.856,3.663.285.285,0,0,0,.277-.49" fill="#263238"/>
        <path id="Trazado_730424" data-name="Trazado 730424" d="M132.2,148.869a.168.168,0,0,1-.01.041c-.173.815-2.945,13.675-5.819,24.722-2.089,8.071-4.239,15.164-5.472,15.9-1.4.825-8.2,3.842-10.487,4.789,0,0-10.629,76.426-18.711,100.125-7.458,21.869-37.672,76.644-37.672,76.644L9.25,348.464s34.32-55.644,38-66.291c5.7-16.5,23-96.077,23-96.077s-.411-6.774-.312-9.27c.187-4.7,6.538-24.559,8.016-27.957Z" fill="#263238"/>
        <path id="Trazado_730425" data-name="Trazado 730425" d="M54.6,362.109c-6.4-3.574-4.512-2.639-10.949-6.142-3.15-1.714-23.862-12.958-27.081-14.041a.078.078,0,0,0-.07.132c2.7,2.063,23.6,12.945,26.785,14.6,6.5,3.377,4.673,2.337,11.215,5.642a.107.107,0,0,0,.1-.189" fill="#37474f"/>
        <path id="Trazado_730426" data-name="Trazado 730426" d="M85.168,175.89c1.174-.517,10.57-2.542,12.828-6.23,1.2-1.957,3.323-12.744,3.438-13.5.016-.11.185-.078.159.026-.125.512-.137,10.831-3.032,15.107-2.031,3-12.107,4.921-13.305,4.942a.182.182,0,0,1-.088-.344" fill="#37474f"/>
        <path id="Trazado_730427" data-name="Trazado 730427" d="M122.275,188.426a89.032,89.032,0,0,0-14.033,6.536.158.158,0,0,0,.131.288c4.727-2.03,9.547-3.972,14.157-6.26a.31.31,0,0,0-.255-.564" fill="#37474f"/>
        <path id="Trazado_730428" data-name="Trazado 730428" d="M123.7,156.047c-.013-.163-.3-.2-.3-.023a157.4,157.4,0,0,1-.792,15.794c-.22,2.436-2.179,15.893-6.4,14.911-.707-.164-1.068-.86-1.179-1.925a16.925,16.925,0,0,1,.561-4.127c.468-2.817.845-5.644,1.087-8.489a77.219,77.219,0,0,0-.172-15.92.136.136,0,0,0-.272.016,145.97,145.97,0,0,1-1.286,21.976c-.528,3.5-2.291,8.77,1.369,9.308,3.73.549,6.141-8.278,6.6-10.692a80.586,80.586,0,0,0,.788-20.829" fill="#37474f"/>
        <path id="Trazado_730429" data-name="Trazado 730429" d="M116.318,187.091a22.841,22.841,0,0,0-.95,2.789,6.334,6.334,0,0,0-.394,2.293c.016.149.213.163.292.062a8.073,8.073,0,0,0,.981-2.231c.321-.862.661-1.719.958-2.59a.472.472,0,0,0-.887-.323" fill="#37474f"/>
        <path id="Trazado_730430" data-name="Trazado 730430" d="M23.062,339.664c6.374-12,10.572-18.838,17.166-30.716,3.251-5.855,6.644-11.644,9.747-17.579a106.614,106.614,0,0,0,7.085-18.33C61,260.224,73.333,192.66,74.1,189.4c.467-1.984-.4-13.167.078-16.305.475-3.1,4.721-19.165,5.262-20.726a.144.144,0,0,1,.276.083c-1.93,6.317-4.085,17.2-4.643,20.487-.539,3.178.25,15.331-.034,16.831-.316,1.666-11.747,66.351-15.655,79.242-1.9,6.268-3.677,12.637-6.373,18.621s-6.122,11.658-9.34,17.383c-6.652,11.832-10.988,18.584-17.845,30.3-.868,1.484-1.746,2.964-2.621,4.444-.056.1-.195.007-.144-.089" fill="#37474f"/>
        <path id="Trazado_730431" data-name="Trazado 730431" d="M134.88,173.844c-.847-.011-3.332-1.743-3.63-2.194-2.072-3.126-2.578-13.055-2.753-15.665-.009-.129-.067-.085-.068.036-.027,2.926.1,5.907.341,8.728a31.138,31.138,0,0,0,1.081,6.785c.632,1.777,4.122,3,5.031,2.6.056-.025.057-.291,0-.292" fill="#37474f"/>
        <path id="Trazado_730432" data-name="Trazado 730432" d="M73.267,159.5c.139.156,60.945-.517,61.491-1.135.049-.056-6.333-50.273-19.008-70.147-2.181-3.419-11.414-5.482-15.087-1.484-12.844,13.981-27.435,72.721-27.4,72.766" fill="#ffc727"/>
        <path id="Trazado_730433" data-name="Trazado 730433" d="M133.3,148.406l-57.27.52c.19-.67.38-1.37.58-2.09l56.36-.5q.165,1.08.33,2.07" fill="#ebebeb"/>
        <path id="Trazado_730434" data-name="Trazado 730434" d="M134.034,153.076l-59.26.53c.17-.65.36-1.34.55-2.08l58.39-.52c.12.74.22,1.43.32,2.07" fill="#ebebeb"/>
        <path id="Trazado_730435" data-name="Trazado 730435" d="M101.118,73.686a27.809,27.809,0,0,1-1.1,4.893c-.569,1.2-3.672,1.995-3.672,1.995s3.033,1.766,4,1.721,2.9-2.131,2.9-2.131-2.089,3.529-3.446,3.478c-.843-.031,1.982.534,1.982.534a3.887,3.887,0,0,0,2.691-.678c1.168-.907-3.36-9.812-3.36-9.812" fill="#263238"/>
        <path id="Trazado_730436" data-name="Trazado 730436" d="M114.917,96.369c-3.492.766-10.1-6.185-12.392-10.531-.155-.3.318-2.318.75-6.121.254-2.309.482-4.885.52-7.252l14.782,3.846A37.709,37.709,0,0,0,117,85.373a5.3,5.3,0,0,0,.086.973c0,.044.016.1.019.161.271,1.849,1.189,9.119-2.185,9.862" fill="#d3766a"/>
        <path id="Trazado_730437" data-name="Trazado 730437" d="M116.593,88.888c.269.012.528.007.78.006-.079-1.023-.195-1.9-.268-2.387-.008-.061-.024-.119-.024-.163a5.5,5.5,0,0,1-.088-.975,37.687,37.687,0,0,1,1.585-9.057l-14.789-3.848c-.011.5-.022,1-.047,1.51.9,4.96,3.825,14.572,12.851,14.914" fill="#263238"/>
        <path id="Trazado_730438" data-name="Trazado 730438" d="M97.507,62.32c-.011,5.5,7.057,19.247,11.622,21.4,6.618,3.13,15.258,1,17.362-6.45C128.531,70.05,119,52.3,114.108,50.566c-7.209-2.557-16.585,3.626-16.6,11.754" fill="#d3766a"/>
        <path id="Trazado_730439" data-name="Trazado 730439" d="M114.669,67.228c-.023-.033-.055.078-.036.116.447.941.8,2.093.078,2.787-.022.022,0,.069.032.05.987-.609.5-2.134-.074-2.953" fill="#263238"/>
        <path id="Trazado_730440" data-name="Trazado 730440" d="M113.382,66.605c-1.585.556-.357,3.684,1.111,3.169,1.445-.506.217-3.635-1.111-3.169" fill="#263238"/>
        <path id="Trazado_730441" data-name="Trazado 730441" d="M120.134,64.9c-.007-.04.094.016.108.057.349.98.915,2.045,1.918,2.023.031,0,.047.049.013.057-1.129.27-1.865-1.151-2.039-2.137" fill="#263238"/>
        <path id="Trazado_730442" data-name="Trazado 730442" d="M120.6,63.552c1.512-.73,2.861,2.348,1.46,3.024-1.379.666-2.728-2.413-1.46-3.024" fill="#263238"/>
        <path id="Trazado_730443" data-name="Trazado 730443" d="M111.321,65.1a13.155,13.155,0,0,0,1.07-.871,2.234,2.234,0,0,0,.922-1.1.711.711,0,0,0-.4-.77,1.76,1.76,0,0,0-1.733.429,2.586,2.586,0,0,0-1.025,1.559.758.758,0,0,0,1.165.751" fill="#263238"/>
        <path id="Trazado_730444" data-name="Trazado 730444" d="M120.9,60.629a13.162,13.162,0,0,1-1.37.165,2.225,2.225,0,0,1-1.429-.1.709.709,0,0,1-.278-.822,1.761,1.761,0,0,1,1.512-.949,2.592,2.592,0,0,1,1.833.343.759.759,0,0,1-.268,1.361" fill="#263238"/>
        <path id="Trazado_730445" data-name="Trazado 730445" d="M116.846,76.594c.272.218.552.528.931.522a2.744,2.744,0,0,0,1.089-.37.037.037,0,0,1,.05.05,1.405,1.405,0,0,1-1.26.691,1.108,1.108,0,0,1-.9-.837c-.022-.058.055-.088.1-.056" fill="#263238"/>
        <path id="Trazado_730446" data-name="Trazado 730446" d="M116.665,73.051a3.545,3.545,0,0,0,2.778.6,4.466,4.466,0,0,0,1.209-.411,1.339,1.339,0,0,0,.216-.115c.068-.037.128-.07.2-.116a.259.259,0,0,0,.109-.294l0-.007a.5.5,0,0,0-.048-.1l0-.007-.035-.085c-.272-.754-.79-1.86-.79-1.86.326.029,1.962.109,1.787-.272a53.323,53.323,0,0,0-5.2-9.484.1.1,0,0,0-.167.1c1.282,3.084,3.1,5.922,4.436,9a6.221,6.221,0,0,0-1.743.139c-.1.072,1.038,2.12,1.133,2.468a.148.148,0,0,1,.008.039,4.914,4.914,0,0,1-3.831.279c-.094-.027-.145.069-.057.123" fill="#263238"/>
        <path id="Trazado_730447" data-name="Trazado 730447" d="M120.545,73.1a4.556,4.556,0,0,1-1.139,2.005,2.054,2.054,0,0,1-1.119.55c-.922.127-1.26-.626-1.379-1.342a4.908,4.908,0,0,1-.044-1.154,5.892,5.892,0,0,0,3.681-.059" fill="#263238"/>
        <path id="Trazado_730448" data-name="Trazado 730448" d="M119.406,75.108a2.051,2.051,0,0,1-1.119.55c-.921.127-1.259-.626-1.379-1.342a2.115,2.115,0,0,1,2.5.792" fill="#ff9abb"/>
        <path id="Trazado_730449" data-name="Trazado 730449" d="M101.607,74.466c2.261-1.635.469-10.558.469-10.558l2.172,4.471a11.9,11.9,0,0,0,1.526-4.687,8.743,8.743,0,0,0-1.462-4.67,16.206,16.206,0,0,0,7.387,1.6c1.3-.117,10.018-3.33,9.822-3.873-.586-1.617-6.129-6.145-8.869-6.843a12.145,12.145,0,0,0-11.864,2.735c-4.492,3.893-4.64,7.744-4.469,10.624s4.457,11.8,5.288,11.2" fill="#263238"/>
        <path id="Trazado_730450" data-name="Trazado 730450" d="M105.689,72.746s-4.789-3.613-6.532-1.758,2.919,7.834,5.711,7.952a2.664,2.664,0,0,0,2.952-2.465Z" fill="#d3766a"/>
        <path id="Trazado_730451" data-name="Trazado 730451" d="M100.536,72.669c-.041.009-.031.068.009.071,1.976.14,3.422,1.46,4.612,2.93a1.471,1.471,0,0,0-2.217.3c-.035.047.032.1.077.078a1.64,1.64,0,0,1,1.892-.014,7.956,7.956,0,0,1,1.272,1.12c.133.13.387-.045.27-.206l-.028-.036c-.679-2.24-3.423-4.794-5.887-4.241" fill="#263238"/>
        <path id="Trazado_730452" data-name="Trazado 730452" d="M107.6,49.386a21.835,21.835,0,0,0-6.268,1.047c-2.249.77-8.676,4.557-9.623,6.68s1.712,8.624,2.12,9.567,3.544,6.305,6.217,6.662-1.762-9.193-.115-13.887S107.6,49.386,107.6,49.386" fill="#ffc727"/>
        <g id="Grupo_997045" data-name="Grupo 997045" opacity="0.1">
          <g id="Grupo_997044" data-name="Grupo 997044">
            <g id="Grupo_997043" data-name="Grupo 997043" clip-path="url(#clip-path-12)">
              <path id="Trazado_730453" data-name="Trazado 730453" d="M107.6,49.388s-6.024,5.375-7.669,10.069,2.787,14.242.112,13.889c-1.177-.158-2.039-.826-3.128-2.126-.931-2.969-1.912-7.8-1.062-11.9.795-3.838,3.818-7.061,7.571-9.454a24.955,24.955,0,0,1,4.176-.478"/>
            </g>
          </g>
        </g>
        <path id="Trazado_730454" data-name="Trazado 730454" d="M103.348,78.686c-1.053-2.608-1.794-10.607-1-15.789s7.59-11.309,8.727-11.786c2.756-1.159,3.515-.123,3.822-.571s-2.891-1.781-3.867-1.863-3.528-.154-4.681.444-7.991,4.833-9.1,9.177-.6,14.746,1.152,16.614c.42.448,1.29.444,1.879,1.083.775.839,1.537,1.874,2.171,2.416.51.437.991.5.9.275" fill="#ffc727"/>
        <path id="Trazado_730455" data-name="Trazado 730455" d="M102.118,60.859a14.2,14.2,0,0,1-2.368-.425,10.292,10.292,0,0,1-2.27-.862c-.052-.028-.1.042-.054.076a7.844,7.844,0,0,0,2.232,1.123,6.687,6.687,0,0,0,2.465.245c.091-.008.083-.149-.005-.157" fill="#263238"/>
        <path id="Trazado_730456" data-name="Trazado 730456" d="M102.091,76.182c-.159-.148-.357-.25-.529-.382a3.465,3.465,0,0,1-.54-.508,6.419,6.419,0,0,0-.885-1.083,5.055,5.055,0,0,0-1-.55,1.869,1.869,0,0,1-1-.781.047.047,0,0,0-.085.04c.372.767,1.152,1.059,1.8,1.535a8.941,8.941,0,0,1,.986,1.14,2.2,2.2,0,0,0,1.181.727c.066.007.128-.086.072-.138" fill="#263238"/>
        <path id="Trazado_730457" data-name="Trazado 730457" d="M101.627,73.033a12.356,12.356,0,0,1-1.126-.509,8.952,8.952,0,0,1-1-.678c-.316-.241-.611-.508-.921-.756-.367-.293-.772-.546-1.124-.856-.045-.039-.1.037-.053.077.364.321.674.707,1.029,1.041a9.622,9.622,0,0,0,.984.794,6.241,6.241,0,0,0,1.039.615,3.026,3.026,0,0,0,1.164.321.025.025,0,0,0,.011-.049" fill="#263238"/>
        <path id="Trazado_730458" data-name="Trazado 730458" d="M101.337,70.121a8.012,8.012,0,0,1-2.13-.877c-.643-.389-1.267-.817-1.882-1.249-.042-.029-.1.031-.063.069a9.566,9.566,0,0,0,1.805,1.487,4.881,4.881,0,0,0,1.033.482,5.19,5.19,0,0,0,1.215.183c.053,0,.078-.081.022-.1" fill="#263238"/>
        <path id="Trazado_730459" data-name="Trazado 730459" d="M101.181,67.274a2.737,2.737,0,0,1-1-.347c-.357-.176-.71-.36-1.056-.555s-.669-.365-1-.553a2.737,2.737,0,0,1-.9-.7c-.031-.042-.1,0-.078.049a2.841,2.841,0,0,0,.772.844,7.349,7.349,0,0,0,1.052.706,9.893,9.893,0,0,0,1.133.531,1.839,1.839,0,0,0,1.085.158.065.065,0,0,0,0-.129" fill="#263238"/>
        <path id="Trazado_730460" data-name="Trazado 730460" d="M100.436,63.931c-.346-.115-.689-.231-1.025-.373s-.663-.3-.987-.461c-.34-.169-.688-.333-1.016-.524a.047.047,0,0,0-.053.077,7.478,7.478,0,0,0,.913.689,8.072,8.072,0,0,0,1.006.514,8.666,8.666,0,0,0,1.049.386,2.913,2.913,0,0,0,1.1.172.066.066,0,0,0,.026-.118,5.393,5.393,0,0,0-1.012-.362" fill="#263238"/>
        <path id="Trazado_730461" data-name="Trazado 730461" d="M103.348,58.481c-.4-.188-.79-.372-1.207-.521a13.522,13.522,0,0,0-3.895-.739c-.049,0-.075.076-.021.09,1.692.437,3.4.8,5.091,1.257a.046.046,0,0,0,.032-.087" fill="#263238"/>
        <path id="Trazado_730462" data-name="Trazado 730462" d="M103.816,55.579a5.8,5.8,0,0,0-1.252-.393,12.564,12.564,0,0,0-2.747-.144.047.047,0,0,0-.009.093c.866.114,1.734.214,2.592.378a11.616,11.616,0,0,1,1.262.3c.415.127.789.341,1.195.485.031.011.063-.029.038-.055a3.278,3.278,0,0,0-1.079-.661" fill="#263238"/>
        <path id="Trazado_730463" data-name="Trazado 730463" d="M105.43,53.564a6.24,6.24,0,0,0-1.187-.424,7.121,7.121,0,0,0-2.368-.179c-.054.005-.049.088,0,.093a13.909,13.909,0,0,1,2.353.409c.386.1.767.224,1.148.341s.752.316,1.141.393c.032.006.043-.038.021-.055a6.577,6.577,0,0,0-1.111-.578" fill="#263238"/>
        <path id="Trazado_730464" data-name="Trazado 730464" d="M106.331,51.566c-.37-.086-.744-.152-1.118-.215a3.552,3.552,0,0,0-1.116-.064c-.056.008-.046.082,0,.092.716.157,1.431.331,2.144.5a9.741,9.741,0,0,1,1.859.811c.027.013.054-.026.033-.048a3.583,3.583,0,0,0-1.805-1.08" fill="#263238"/>
        <path id="Trazado_730465" data-name="Trazado 730465" d="M108.023,50.234a5.79,5.79,0,0,0-2.194-.224c-.053,0-.05.092,0,.092a7.063,7.063,0,0,1,2.092.4,9.776,9.776,0,0,1,1.939.905c.03.017.071-.02.043-.048a4.775,4.775,0,0,0-1.883-1.126" fill="#263238"/>
        <path id="Trazado_730466" data-name="Trazado 730466" d="M111.053,50.149a3.554,3.554,0,0,0-.4-.277,4.7,4.7,0,0,0-.9-.411,10.033,10.033,0,0,0-1.968-.4c-.059-.008-.068.086-.009.093a8.19,8.19,0,0,1,1.892.476,6.6,6.6,0,0,1,.869.406c.137.076.268.16.4.247a2.575,2.575,0,0,0,.383.255.047.047,0,0,0,.059-.063,1.279,1.279,0,0,0-.323-.325" fill="#263238"/>
        <path id="Trazado_730467" data-name="Trazado 730467" d="M112.635,49.542a7.056,7.056,0,0,0-.739-.34,6.449,6.449,0,0,0-.77-.247c-.269-.067-.541-.123-.807-.2a.046.046,0,1,0-.02.09,4.843,4.843,0,0,1,.791.267c.244.1.488.2.731.3s.487.2.729.3a7.7,7.7,0,0,0,.739.315.038.038,0,0,0,.035-.066,3.6,3.6,0,0,0-.689-.412" fill="#263238"/>
        <path id="Trazado_730468" data-name="Trazado 730468" d="M99.462,98.279c1.821,11.852,24.321,42.808,29.386,45.415,4.9,2.526,35.112.639,45.887-3.032,3.316-1.13-7.889-25.862-11.536-25.005-6.744,1.585-20.442,5.987-22.456,5.421-2.725-.766-22.608-16.625-31.52-25.6-7.514-7.563-10.682-3.2-9.761,2.8" fill="#d3766a"/>
        <path id="Trazado_730469" data-name="Trazado 730469" d="M181.416,112.461c-1.808,0-1.818-.953.712-2.934,2.555-2.01,14.226-7.675,11.895-11.587-2.333-3.93-18.717,4.359-22.677,7.981s-9.1,10.869-9.1,10.869c3.512-.971,12.254-2.513,19.168-4.329" fill="#d3766a"/>
        <path id="Trazado_730470" data-name="Trazado 730470" d="M173.052,141.088c9.791-3.1,21.3-5.733,29.052-14.346a5.737,5.737,0,0,0,1.547-3.424c3.542-3.8,2.812-6.611,2.812-6.611,2.215-4.549,1.072-7.323,1.072-7.323s4.11-4.506,1.8-7.442c-2.582-3.3-7.847,3.673-13.088,5.737-12.009,4.728-30.4,8.091-34,9.111Z" fill="#d3766a"/>
        <path id="Trazado_730471" data-name="Trazado 730471" d="M187.144,121.478a83,83,0,0,0,10.278-4.736,83.288,83.288,0,0,0,9.97-7.369.1.1,0,0,1,.138.146,43.874,43.874,0,0,1-20.322,12.119c-.178.048-.24-.087-.064-.16" fill="#263238"/>
        <path id="Trazado_730472" data-name="Trazado 730472" d="M188.945,129.14c3.333-1.612,9.172-4.482,17.433-12.524.027-.026.08.011.054.044a39.38,39.38,0,0,1-17.41,12.638c-.217.084-.3-.051-.077-.158" fill="#263238"/>
        <path id="Trazado_730473" data-name="Trazado 730473" d="M189.989,133.24c5.563-2.956,8.7-5.525,13.625-9.925.028-.025.079.017.051.048-5.077,5.589-7.553,7.041-13.6,10.082-.208.1-.292-.09-.075-.205" fill="#263238"/>
        <path id="Trazado_730474" data-name="Trazado 730474" d="M99.4,90.7c-5.642,3.481-7.663,31.171-.429,33.582s8.6-10.724,8.846-16.377S104.207,87.733,99.4,90.7" fill="#455a64"/>
        <path id="Trazado_730475" data-name="Trazado 730475" d="M139.74,119.463l-15.991,22.751s-17.724-22.2-23.6-39.376c-4.588-13.414-.5-16.028,8.764-8.443s30.825,25.068,30.825,25.068" fill="#ffc727"/>
        <path id="Trazado_730476" data-name="Trazado 730476" d="M139.74,119.463l-15.991,22.751s-17.724-22.2-23.6-39.376c-4.588-13.414-.5-16.028,8.764-8.443s30.825,25.068,30.825,25.068" fill="#455a64"/>
        <path id="Trazado_730477" data-name="Trazado 730477" d="M121.84,139.843c-3.354-4.311-6.45-8.805-9.5-13.333-2.924-4.6-6.061-9.13-8.21-14.161,5.289,9,12.273,18.507,17.708,27.494" fill="#263238"/>
        <path id="Trazado_730478" data-name="Trazado 730478" d="M103.775,114.073c.889,1.109,1.837,2.114,2.793,3.169a7.984,7.984,0,0,1-2.793-3.169" fill="#263238"/>
        <path id="Trazado_730479" data-name="Trazado 730479" d="M142.757,119.09l-17.45,25.957-.429-1.2-2.015.48-.325-.908-2.177-1.535L138.7,116.556l.451,1.26,1.826-.089.268,1.2Z" fill="#37474f"/>
      </g>
    </g>
    <path id="Trazado_730480" data-name="Trazado 730480" d="M255.552,406.643h6.465l52.208-254.836H368.94L337.407,406.643h6.38L376.05,146.2H308.967Z" fill="#ffc727"/>
    <g id="Grupo_997052" data-name="Grupo 997052">
      <g id="Grupo_997051" data-name="Grupo 997051" clip-path="url(#clip-path)">
        <g id="Grupo_997050" data-name="Grupo 997050" opacity="0.6">
          <g id="Grupo_997049" data-name="Grupo 997049">
            <g id="Grupo_997048" data-name="Grupo 997048" clip-path="url(#clip-path-14)">
              <path id="Trazado_730481" data-name="Trazado 730481" d="M255.552,406.643h6.465l52.208-254.836H368.94L337.407,406.643h6.38L376.05,146.2H308.967Z"/>
            </g>
          </g>
        </g>
      </g>
    </g>
    <rect id="Rectángulo_349560" data-name="Rectángulo 349560" width="74.374" height="6.681" transform="translate(305.886 140.41)" fill="#ffc727"/>
    <g id="Grupo_997057" data-name="Grupo 997057">
      <g id="Grupo_997056" data-name="Grupo 997056" clip-path="url(#clip-path)">
        <g id="Grupo_997055" data-name="Grupo 997055" opacity="0.4">
          <g id="Grupo_997054" data-name="Grupo 997054">
            <g id="Grupo_997053" data-name="Grupo 997053" clip-path="url(#clip-path-16)">
              <rect id="Rectángulo_349561" data-name="Rectángulo 349561" width="74.374" height="6.681" transform="translate(305.886 140.41)"/>
            </g>
          </g>
        </g>
      </g>
    </g>
    <path id="Trazado_730482" data-name="Trazado 730482" d="M309,147.091l26.167,259.552h6.38l-25.532-253.2h54.736l46.175,253.2h6.455L376.048,147.091Z" fill="#ffc727"/>
    <rect id="Rectángulo_349564" data-name="Rectángulo 349564" width="64.677" height="6.349" transform="translate(315.792 202.891)" fill="#ffc727"/>
    <rect id="Rectángulo_349565" data-name="Rectángulo 349565" width="64.677" height="6.349" transform="translate(326.055 254.358)" fill="#ffc727"/>
    <rect id="Rectángulo_349566" data-name="Rectángulo 349566" width="70.581" height="6.349" transform="translate(331.092 305.825)" fill="#ffc727"/>
    <rect id="Rectángulo_349567" data-name="Rectángulo 349567" width="75.106" height="6.349" transform="translate(334.987 357.291)" fill="#ffc727"/>
    <g id="Grupo_997104" data-name="Grupo 997104">
      <g id="Grupo_997103" data-name="Grupo 997103" clip-path="url(#clip-path)">
        <g id="Grupo_997060" data-name="Grupo 997060" opacity="0.4">
          <g id="Grupo_997059" data-name="Grupo 997059">
            <g id="Grupo_997058" data-name="Grupo 997058" clip-path="url(#clip-path-18)">
              <path id="Trazado_730483" data-name="Trazado 730483" d="M309,147.091l26.167,259.552h6.38l-25.532-253.2h54.736l46.175,253.2h6.455L376.048,147.091Z"/>
              <rect id="Rectángulo_349568" data-name="Rectángulo 349568" width="64.677" height="6.349" transform="translate(315.792 202.891)"/>
              <rect id="Rectángulo_349569" data-name="Rectángulo 349569" width="64.677" height="6.349" transform="translate(326.055 254.358)"/>
              <rect id="Rectángulo_349570" data-name="Rectángulo 349570" width="70.581" height="6.349" transform="translate(331.092 305.825)"/>
              <rect id="Rectángulo_349571" data-name="Rectángulo 349571" width="75.106" height="6.349" transform="translate(334.987 357.291)"/>
            </g>
          </g>
        </g>
        <path id="Trazado_730484" data-name="Trazado 730484" d="M403.288,231.261s22.343,42.072,22.349,42.1c1.3,7.949,2.306,14.942,2.487,18.607a.134.134,0,0,1,0,.06,5.634,5.634,0,0,1-.183,2.552c-.016.023-.021.044-.039.057-2.1,1.991-65.327,14.268-67.676,13.954s-1.639-7.034.435-9.468c2.092-2.438,24.187-17.963,24.187-17.963L362.9,239.045Z" fill="#ad6359"/>
        <path id="Trazado_730485" data-name="Trazado 730485" d="M421.474,264.966s4.157,8.367,4.163,8.4c1.3,7.949,2.306,14.942,2.487,18.607a.135.135,0,0,1,0,.06,10.938,10.938,0,0,1-.184,2.552c-.015.023-.021.044-.038.057-2.1,1.991-65.328,14.268-67.677,13.954s-1.638-7.034.435-9.468c2.093-2.438,24.188-17.963,24.188-17.963l-4.3-8.5Z" fill="#fff"/>
        <path id="Trazado_730486" data-name="Trazado 730486" d="M380.963,281.836c4.112-1.4,9.377-1.508,13.046,1.034.142.1,0,.3-.143.276a60.007,60.007,0,0,0-12.809-.778.273.273,0,0,1-.094-.532" fill="#263238"/>
        <path id="Trazado_730487" data-name="Trazado 730487" d="M378.179,284.119c4.112-1.4,9.377-1.508,13.046,1.034.142.1,0,.3-.143.275a60.142,60.142,0,0,0-12.809-.778.273.273,0,0,1-.094-.531" fill="#263238"/>
        <path id="Trazado_730488" data-name="Trazado 730488" d="M375.395,286.4c4.112-1.4,9.377-1.508,13.046,1.034.142.1,0,.3-.143.276a60.011,60.011,0,0,0-12.809-.778.273.273,0,0,1-.094-.532" fill="#263238"/>
        <path id="Trazado_730489" data-name="Trazado 730489" d="M360.226,308.593c2.353.316,65.572-11.959,67.68-13.956.814-.745-.437-10.062-2.273-21.275-.021-.117-.04-.234-.061-.35L384.7,280.476l.149.689s-22.1,15.522-24.185,17.962c-2.069,2.429-2.788,9.161-.436,9.466" fill="#37474f"/>
        <path id="Trazado_730490" data-name="Trazado 730490" d="M425.578,273.005l.061.362c1.826,11.209,3.087,20.525,2.268,21.271-.954.9-14.593,3.946-29.378,6.967-17.693,3.607-37.021,7.165-38.3,6.995-2.351-.315-1.626-7.044.439-9.477,2.089-2.436,24.184-17.959,24.184-17.959l-.152-.683,13.631-2.493Z" fill="#ffc727"/>
        <g id="Grupo_997063" data-name="Grupo 997063" opacity="0.2">
          <g id="Grupo_997062" data-name="Grupo 997062">
            <g id="Grupo_997061" data-name="Grupo 997061" clip-path="url(#clip-path-19)">
              <path id="Trazado_730491" data-name="Trazado 730491" d="M425.578,273.005l.061.362c1.826,11.209,3.087,20.525,2.268,21.271-.954.9-14.593,3.946-29.378,6.967-17.693,3.607-37.021,7.165-38.3,6.995-2.351-.315-1.626-7.044.439-9.477,2.089-2.436,24.184-17.959,24.184-17.959l-.152-.683,13.631-2.493Z"/>
            </g>
          </g>
        </g>
        <path id="Trazado_730492" data-name="Trazado 730492" d="M360.466,306c10.606-2.331,53.6-10.731,64.265-12.229.087-.013.1.046.013.067-10.462,2.54-53.526,10.591-64.245,12.337-.225.036-.257-.126-.033-.175" fill="#263238"/>
        <g id="Grupo_997066" data-name="Grupo 997066" opacity="0.1">
          <g id="Grupo_997065" data-name="Grupo 997065">
            <g id="Grupo_997064" data-name="Grupo 997064" clip-path="url(#clip-path-20)">
              <path id="Trazado_730493" data-name="Trazado 730493" d="M398.327,277.988c.146,7.031.316,17.4.2,23.616-17.693,3.607-37.021,7.165-38.3,6.995-2.35-.314-1.626-7.044.439-9.476,2.089-2.437,24.184-17.96,24.184-17.96l-.151-.682Z"/>
            </g>
          </g>
        </g>
        <path id="Trazado_730494" data-name="Trazado 730494" d="M419.856,259.033l-45.7,9.035s-50.827-80.011-45.826-106.412c2.751-14.524,52.142-37.338,52.142-37.338l5-10.039H420.3s11.236,26.131,4.006,40.6c-6.729,13.463-45,23.555-46.4,27.85-1.849,5.665,41.953,76.308,41.953,76.308" fill="#37474f"/>
        <path id="Trazado_730495" data-name="Trazado 730495" d="M419.856,259.033l-45.7,9.035s-50.827-80.011-45.826-106.412c2.751-14.524,52.142-37.338,52.142-37.338l5-10.039H420.3s11.236,26.131,4.006,40.6c-6.729,13.463-45,23.555-46.4,27.85-1.849,5.665,41.953,76.308,41.953,76.308" fill="#37474f"/>
        <path id="Trazado_730496" data-name="Trazado 730496" d="M411.136,250.65a30.792,30.792,0,0,0-3.512.378c-1.3.151-2.6.3-3.9.488-2.49.368-4.969.8-7.442,1.267-4.988.942-9.965,1.947-14.915,3.073-2.817.641-5.627,1.307-8.426,2.024a.1.1,0,0,0,.041.187c4.978-.765,9.937-1.638,14.9-2.493s9.923-1.707,14.837-2.76c1.412-.3,2.826-.59,4.225-.949,1.381-.354,2.863-.554,4.2-1.036.081-.029.087-.179-.016-.179" fill="#263238"/>
        <path id="Trazado_730497" data-name="Trazado 730497" d="M377.049,252.185c-4.139-6.328-26.4-46.559-29.73-53.332-1.67-3.383-3.273-6.8-4.729-10.272a92.589,92.589,0,0,1-3.851-10.588c-.994-3.572-1.911-7.336-1.151-10.891a15.331,15.331,0,0,1,2.116-5.024,24.132,24.132,0,0,1,1.59-2.269c.6-.707,1.192-1.425,1.842-2.092,5.223-5.359,11.74-9.332,18.293-13.009,6.6-3.648,13.472-6.8,20.326-10,1.707-.813,3.415-1.628,5.1-2.491.841-.438,1.677-.887,2.493-1.379a5.6,5.6,0,0,0,2.135-1.918,26.807,26.807,0,0,0,3.044-10.872,26.7,26.7,0,0,1-3.283,10.726,5.3,5.3,0,0,1-2.075,1.764c-.815.464-1.656.888-2.5,1.3-1.7.817-3.424,1.588-5.149,2.358-6.9,3.089-13.823,6.161-20.512,9.734a106.49,106.49,0,0,0-9.778,5.83A56.713,56.713,0,0,0,342.384,157c-.671.683-1.289,1.424-1.914,2.154a25.354,25.354,0,0,0-1.673,2.363,15.368,15.368,0,0,0-2.4,11.186c.178.944.307,1.9.528,2.833.24.925.439,1.865.714,2.777a93.79,93.79,0,0,0,3.945,10.7c1.483,3.493,3.11,6.918,4.8,10.307,3.387,6.777,26.368,46.645,30.662,52.87" fill="#263238"/>
        <g id="Grupo_997069" data-name="Grupo 997069" opacity="0.2">
          <g id="Grupo_997068" data-name="Grupo 997068">
            <g id="Grupo_997067" data-name="Grupo 997067" clip-path="url(#clip-path-21)">
              <path id="Trazado_730498" data-name="Trazado 730498" d="M377.9,182.726c-.78,2.41,6.71,16.61,15.57,32.12l-8.18,51.02-11.13,2.2s-50.83-80.01-45.83-106.41c2.75-14.52,52.14-37.34,52.14-37.34l5-10.04H409.6l-9.2,57.38c-11.05,5.03-21.77,8.83-22.5,11.07"/>
            </g>
          </g>
        </g>
        <path id="Trazado_730499" data-name="Trazado 730499" d="M393.582,293.631s6.179,42.123,6.18,42.152c-.026,8.056-.192,15.118-.619,18.764a.138.138,0,0,1-.008.059,5.619,5.619,0,0,1-.6,2.486c-.018.02-.028.04-.047.051-2.4,1.616-66.787,3.288-69.051,2.59s-.455-7.208,1.992-9.266c2.466-2.059,26.82-13.724,26.82-13.724l-5.779-42.1Z" fill="#ad6359"/>
        <path id="Trazado_730500" data-name="Trazado 730500" d="M354.3,336.767c4.288-.706,9.5.061,12.7,3.173.124.121-.049.295-.187.249a59.949,59.949,0,0,0-12.5-2.882.273.273,0,0,1-.005-.54" fill="#263238"/>
        <path id="Trazado_730501" data-name="Trazado 730501" d="M351.179,338.56c4.288-.706,9.5.061,12.7,3.173.124.121-.049.3-.186.248a60.04,60.04,0,0,0-12.5-2.881.273.273,0,0,1-.006-.54" fill="#263238"/>
        <path id="Trazado_730502" data-name="Trazado 730502" d="M348.057,340.352c4.288-.706,9.5.061,12.7,3.173.124.121-.049.3-.187.249a60.013,60.013,0,0,0-12.5-2.882.273.273,0,0,1-.005-.54" fill="#263238"/>
        <path id="Trazado_730503" data-name="Trazado 730503" d="M329.433,359.735c2.268.7,66.647-.971,69.055-2.593.927-.6,1.23-9.995,1.27-21.357,0-.119,0-.238,0-.356l-41.546.614.035.7s-24.356,11.662-26.819,13.724c-2.442,2.054-4.262,8.575-1.993,9.264" fill="#ffc727"/>
        <g id="Grupo_997072" data-name="Grupo 997072" opacity="0.2">
          <g id="Grupo_997071" data-name="Grupo 997071">
            <g id="Grupo_997070" data-name="Grupo 997070" clip-path="url(#clip-path-22)">
              <path id="Trazado_730504" data-name="Trazado 730504" d="M329.433,359.735c2.268.7,66.647-.971,69.055-2.593.927-.6,1.23-9.995,1.27-21.357,0-.119,0-.238,0-.356l-41.546.614.035.7s-24.356,11.662-26.819,13.724c-2.442,2.054-4.262,8.575-1.993,9.264"/>
            </g>
          </g>
        </g>
        <path id="Trazado_730505" data-name="Trazado 730505" d="M330.1,357.219c10.845-.548,54.64-1.735,65.4-1.453.088,0,.089.062,0,.068-10.738.779-54.541,1.61-65.4,1.563-.229,0-.233-.166,0-.178" fill="#263238"/>
        <path id="Trazado_730506" data-name="Trazado 730506" d="M400.089,158.868c-.01.029-19.112,60.241-19.457,71.313-.295,9.438,20.69,92.723,20.69,92.723l-46.848.288s-17.226-85.2-16.471-95.039c1.413-18.394,17.527-68.889,29.051-113.874h52.162s-1.345,25.281-12.059,42.319a22.728,22.728,0,0,0-7.068,2.27" fill="#37474f"/>
        <path id="Trazado_730507" data-name="Trazado 730507" d="M395.193,312.966c-5.116-.234-36.218.111-39.417.406a.085.085,0,0,0,0,.168c5.111.4,28.065.478,39.244-.116.31-.016.481-.444.171-.458" fill="#263238"/>
        <path id="Trazado_730508" data-name="Trazado 730508" d="M368.394,142.661c-1.724,5.756-16.562,71.127-18.8,82.634-2.25,11.581,13.97,84.805,14.368,85.3.091.113.554-.033.532-.176-1.373-8.815-16.25-73.7-14.188-85.47,2.022-11.546,16.949-75.64,18.434-82.2a.179.179,0,0,0-.348-.087" fill="#263238"/>
        <path id="Trazado_730509" data-name="Trazado 730509" d="M388.124,160.031a43.052,43.052,0,0,0,7.185-.652,70.417,70.417,0,0,0,6.962-1.93,54.754,54.754,0,0,1,6.825-1.116,23.943,23.943,0,0,0,6.69-1.992c.1-.049.182.1.083.15a41.556,41.556,0,0,1-6.412,2.78c-2.294.724-4.692.823-7.02,1.392a58.252,58.252,0,0,1-7.164,1.649,25.932,25.932,0,0,1-7.175-.121c-.094-.016-.062-.158.026-.16" fill="#263238"/>
        <path id="Trazado_730510" data-name="Trazado 730510" d="M341.6,208.6c1.8-6.252,3.779-13.721,5.473-20l5-18.848L357,150.891q1.215-4.721,2.516-9.417c.875-3.127,1.67-6.283,2.821-9.324-2.592,5.98-4.309,12.284-6.185,18.506-1.824,6.245-3.494,12.53-5.184,18.81-1.6,6.3-3.233,12.6-4.747,18.922s-3.282,13.848-4.623,20.214" fill="#263238"/>
        <path id="Trazado_730511" data-name="Trazado 730511" d="M274.944,68.861c5.093,24.533,37.711,22.01,41.92,19.368,1.288-.792,5.744-9.139,10.985-19.869.6-1.257-4.553-4.339-3.911-5.653.885-1.857,7.645-2.059,8.56-4.021.564-1.2-3.5-1.711-2.949-2.959.458-.981,5.548-2.65,6-3.678.243-.543.5-1.038.739-1.581,4.547-9.953,8.737-19.687,11.15-26.006,1.476-3.954,2.224-6.529,1.923-7.067C339.005-.126,301.674-2.26,298.458,1.681c-.241.294-3.134,7.994-6.868,18.039-.753,2.03.848,7.282.027,9.473-1.067,2.983-4.546,2.955-5.642,6.043-.949,2.564,1.76,5.568.9,8.066-.391,1.068-4.392,1.684-4.745,2.7-.42,1.172-.8,2.287-1.184,3.4-2.458,7.12-4.477,13.165-5.413,16.569a10.335,10.335,0,0,0-.588,2.892" fill="#455a64"/>
        <path id="Trazado_730512" data-name="Trazado 730512" d="M346.235,17.041c-.675,2.368-12.518,2.559-24.151-.452C309.936,13.443,298.043,6.952,300.6,2.855c1.512-2.427,15-1.328,26.446,2.422,10.872,3.561,19.791,9.666,19.193,11.764" fill="#ebebeb"/>
        <path id="Trazado_730513" data-name="Trazado 730513" d="M275.532,65.969c15.991-14.972,39.93-11.764,60.753-15.5,4.546-9.952,8.736-19.687,11.15-26-11.226,17.832-29.372,21.553-50.176,23.055A130.934,130.934,0,0,0,280.945,49.4c-2.458,7.121-4.477,13.165-5.413,16.57" fill="#37474f"/>
        <path id="Trazado_730514" data-name="Trazado 730514" d="M385.331,58.583c-.157,1.015-4.418,7.848-8.99,7.983-1.488.041-2.078-8.075-2.078-8.075l-.18-.59-2.52-8.25,9.375-7.081,1.361-.947s.541,2.3,1.185,5.176c.031.134.061.267.092.41.041.161.081.314.112.466.1.428.2.866.3,1.3.071.333.143.656.205,1.008s.135.7.207,1.048a55.378,55.378,0,0,1,.934,7.548" fill="#ad6359"/>
        <path id="Trazado_730515" data-name="Trazado 730515" d="M383.484,46.8a17.3,17.3,0,0,1-9.4,11.1l-2.52-8.25,9.375-7.082,1.361-.947s.54,2.3,1.185,5.177" fill="#263238"/>
        <path id="Trazado_730516" data-name="Trazado 730516" d="M390.151,37.892a2.869,2.869,0,0,0,2.283-.151c.209-.132.388-.307.6-.436a1.819,1.819,0,0,1,1.078-.217,7,7,0,0,0,1.253-.044,3.359,3.359,0,0,0,2.958-2.161,4.153,4.153,0,0,0,4.78-2.045,3.6,3.6,0,0,0,.272-.706,2.581,2.581,0,0,1,.313-1.05,3.381,3.381,0,0,1,.966-.59,4.05,4.05,0,0,0,.723-.51,1.6,1.6,0,0,0,.352-2.1,2.648,2.648,0,0,0,1.62-2.417,4.569,4.569,0,0,0-1.321-3.569,3.139,3.139,0,0,0-.362-4.391,2.791,2.791,0,0,0-1.31-3.979,4.091,4.091,0,0,0-1.467-3.579,1.8,1.8,0,0,1-.485-.628,3.112,3.112,0,0,0-.652-2.584,2.356,2.356,0,0,0-2.682-.617,4.632,4.632,0,0,0-1.6-1.572,3.152,3.152,0,0,0-3.138-.159A4.475,4.475,0,0,0,387.65,3.9a3.241,3.241,0,0,0-3.325-1.315,6.227,6.227,0,0,0-3.6,2.575,2.258,2.258,0,0,0-2.911-.312,2.487,2.487,0,0,0-1.012,2.16A3.486,3.486,0,0,0,374.6,8.517a2.086,2.086,0,0,0,.09,2.249,3.1,3.1,0,0,0-1.035,5.107,3.688,3.688,0,0,0-1.743,6.547,3.3,3.3,0,0,0-1.5,3.283,4.858,4.858,0,0,0,2.678,3.439,3.3,3.3,0,0,0,.346,3.634,4.257,4.257,0,0,0,3.061,1.466,3.117,3.117,0,0,1-3.365-.822,3.476,3.476,0,0,1-.089-4.29c.007-.01-.01-.022-.018-.013a3.39,3.39,0,0,0-.1,4.5,3.538,3.538,0,0,0,4.27.691,3.849,3.849,0,0,0,5.71,4.015c1.732,2.837,6.163,3.033,7.249-.431m12.091-29.02c-.009-.035-.021-.064-.03-.1a3.452,3.452,0,0,0-.3-.792,3.239,3.239,0,0,0-1.358-1.306,3.121,3.121,0,0,0-.864-.3c-.165-.028-.508-.049-.508-.049s-.02-.047-.056-.116a2.483,2.483,0,0,1,2.666,1.071,3.009,3.009,0,0,1,.452,1.588M377.1,6.924l-.014,0a2.08,2.08,0,0,1,.839-1.906,2.123,2.123,0,0,1,2.708.249l-.05.062a2.4,2.4,0,0,0-2.721.353,2.643,2.643,0,0,0-.762,1.238m7,32.3a4.319,4.319,0,0,0,5.856-1.379l.036.009c-1.261,2.844-3.852,2.795-5.892,1.37" fill="#263238"/>
        <path id="Trazado_730517" data-name="Trazado 730517" d="M359.513,35.632c-2.8,14.878,5.725,18.379,9,18.838,2.935.411,12.9,2.033,17.226-12.476s-1.705-20.515-8.3-22.115-15.122.875-17.925,15.753" fill="#ad6359"/>
        <path id="Trazado_730518" data-name="Trazado 730518" d="M363.452,33.9a9.935,9.935,0,0,1-1.024.209,1.688,1.688,0,0,1-1.085.015.539.539,0,0,1-.262-.6,1.337,1.337,0,0,1,1.084-.81,1.955,1.955,0,0,1,1.4.146.574.574,0,0,1-.118,1.044" fill="#263238"/>
        <path id="Trazado_730519" data-name="Trazado 730519" d="M369.875,35.537a9.59,9.59,0,0,0,.926.486,1.686,1.686,0,0,0,1.038.316.542.542,0,0,0,.419-.507,1.339,1.339,0,0,0-.815-1.08,1.965,1.965,0,0,0-1.392-.251.574.574,0,0,0-.176,1.036" fill="#263238"/>
        <path id="Trazado_730520" data-name="Trazado 730520" d="M369.2,38.28c.015-.037.07.063.06.1-.234,1-.333,2.194.514,2.712.026.016.013.066-.02.055-1.084-.38-.937-1.958-.554-2.872" fill="#263238"/>
        <path id="Trazado_730521" data-name="Trazado 730521" d="M370.319,37.4c1.65.2,1.126,3.487-.4,3.3-1.5-.184-.98-3.47.4-3.3" fill="#263238"/>
        <path id="Trazado_730522" data-name="Trazado 730522" d="M370.936,37.681c.257.231.486.6.827.694.394.1.751-.193,1.065-.482.033-.03.056,0,.05.047-.091.632-.436,1.239-1.126,1.225-.629-.013-.982-.641-1.038-1.3-.011-.122.118-.279.222-.185" fill="#263238"/>
        <path id="Trazado_730523" data-name="Trazado 730523" d="M363.326,37.136c0-.04-.087.036-.092.078-.122,1.024-.434,2.176-1.408,2.375-.03.006-.035.058,0,.058,1.149.012,1.548-1.521,1.5-2.511" fill="#263238"/>
        <path id="Trazado_730524" data-name="Trazado 730524" d="M362.577,35.933c-1.62-.373-2.247,2.9-.746,3.24,1.477.34,2.1-2.927.746-3.24" fill="#263238"/>
        <path id="Trazado_730525" data-name="Trazado 730525" d="M361.854,36.018c-.292.124-.607.389-.92.351-.362-.046-.558-.45-.722-.832-.017-.04-.048-.018-.057.026-.137.621-.055,1.311.522,1.546.526.214,1.031-.245,1.3-.838.05-.11-.005-.3-.122-.253" fill="#263238"/>
        <path id="Trazado_730526" data-name="Trazado 730526" d="M367.889,46.472c-.255.233-.512.557-.887.576a2.721,2.721,0,0,1-1.1-.3.036.036,0,0,0-.046.052,1.387,1.387,0,0,0,1.289.6,1.1,1.1,0,0,0,.84-.884c.018-.059-.06-.084-.1-.05" fill="#263238"/>
        <path id="Trazado_730527" data-name="Trazado 730527" d="M363.932,42.374s-.35,1.514-.416,2.237c-.006.068.166.116.41.153.012,0,.018.009.028,0a3.453,3.453,0,0,0,3.456-.982c.056-.066-.029-.149-.1-.11a5.206,5.206,0,0,1-3.221.616c-.033-.205.687-2.573.573-2.592a6.319,6.319,0,0,0-1.675.223c.638-3.175,1.781-6.221,2.369-9.392a.1.1,0,0,0-.184-.064,52.385,52.385,0,0,0-2.983,10.008c-.1.405,1.441,0,1.742-.1" fill="#263238"/>
        <path id="Trazado_730528" data-name="Trazado 730528" d="M364.024,44.5a4.176,4.176,0,0,0,1.461,1.532,1.876,1.876,0,0,0,1.118.241c.85-.091.983-.837.93-1.5a4.543,4.543,0,0,0-.217-1.038,5.41,5.41,0,0,1-3.292.766" fill="#263238"/>
        <path id="Trazado_730529" data-name="Trazado 730529" d="M365.484,46.035a1.877,1.877,0,0,0,1.118.241c.85-.091.983-.838.93-1.5a1.942,1.942,0,0,0-2.048,1.261" fill="#ff9abb"/>
        <path id="Trazado_730530" data-name="Trazado 730530" d="M385.21,43.957C382.77,43.749,382,37.43,382,37.43s-4.9-.787-5.36-8.091a11,11,0,0,0,1.214,6.176s-8.482-2.328-10.934-10.147c0,0,.848,3.917,1.993,5.448a10.249,10.249,0,0,1-4.739-4.832s-2.194,3.922-3.546,4.883c0,0,2.829-15.045,16.558-11.148,0,0,8.666,2.016,10.677,9.466s-2.655,14.772-2.655,14.772" fill="#263238"/>
        <path id="Trazado_730531" data-name="Trazado 730531" d="M381.885,41.8s4.306-3.835,6.121-2.193-2.186,7.733-4.852,8.063a2.56,2.56,0,0,1-3.02-2.131Z" fill="#ad6359"/>
        <path id="Trazado_730532" data-name="Trazado 730532" d="M386.816,41.321a.035.035,0,0,1,0,.069c-1.882.288-3.164,1.665-4.19,3.166a1.414,1.414,0,0,1,2.147.113c.037.042-.022.1-.068.081a1.573,1.573,0,0,0-1.813.134,7.611,7.611,0,0,0-1.132,1.172c-.116.135-.374-.013-.274-.176l.024-.037c.476-2.2,2.906-4.86,5.309-4.522" fill="#263238"/>
        <path id="Trazado_730533" data-name="Trazado 730533" d="M384.286,47.279c-.12.681,2.2-1.357,2.35-1.691s1.646-1.155,2.092-1.784a17.088,17.088,0,0,0,1.524-2.982c.119-.469,1.156-1.542,1.264-2.382s.78-8.371-3.571-14.066-8.771-6.618-8.771-6.618a31.526,31.526,0,0,0-6.751-1.2c-3.7-.236-10.129,7.66-10.168,7.848a3.118,3.118,0,0,1-.11,1.3c-.242.494-.873.955-.653,1.486s-.69,1.71-.75,2.242.063.686-.08,1.035,2.821-8.744,14.485-10.487c0,0,11.726,12.669,9.139,27.308" fill="#ffc727"/>
        <path id="Trazado_730534" data-name="Trazado 730534" d="M360.7,30.359a.435.435,0,0,1-.033.1c-.012.028,0-.006.033-.1" fill="#ffc727"/>
        <path id="Trazado_730535" data-name="Trazado 730535" d="M360.7,30.36a.453.453,0,0,1-.033.1c-.012.028,0-.006.033-.1" fill="#ffc727"/>
        <g id="Grupo_997075" data-name="Grupo 997075" opacity="0.3">
          <g id="Grupo_997074" data-name="Grupo 997074">
            <g id="Grupo_997073" data-name="Grupo 997073" clip-path="url(#clip-path-23)">
              <path id="Trazado_730536" data-name="Trazado 730536" d="M367.134,21.4a.963.963,0,0,1-1.843-.423v0c.306-.308.627-.616.959-.925v0a.966.966,0,0,1,.882,1.353m4.361-1.378a.962.962,0,0,0-1.27.493.948.948,0,0,0,0,.777c.572-.232,1.176-.445,1.811-.634a.959.959,0,0,0-.542-.636m-7.006,4.125a.963.963,0,0,0-.882,1.709,18.081,18.081,0,0,1,1.325-1.308.932.932,0,0,0-.443-.4m20.163-3.284a.937.937,0,0,0-.3.38.964.964,0,0,0,1.686.919c-.47-.484-.935-.913-1.385-1.3m-.381,8.068a.964.964,0,1,0,.494,1.27.964.964,0,0,0-.494-1.27m-9.406-12.116h0c-.572-.084-1.184-.16-1.82-.214l0,.007a.962.962,0,1,0,1.762.774.95.95,0,0,0,.063-.566m4.316,2.155a.963.963,0,1,0,.494,1.27.962.962,0,0,0-.494-1.27m2.107,4.97a.963.963,0,1,0,.494,1.27.964.964,0,0,0-.494-1.27m7.007,2.028a.963.963,0,1,0,.495,1.269.962.962,0,0,0-.495-1.269m-.912,7.272a.963.963,0,1,0,.495,1.27.963.963,0,0,0-.495-1.27m-2.207,10.654a.938.938,0,0,0-.531-.069c-.019.619-.064,1.245-.136,1.873a.963.963,0,0,0,.667-1.8m-1.253-7.977a.993.993,0,0,0-.214-.065q.223.847.4,1.72a.927.927,0,0,0,.311-.386.963.963,0,0,0-.494-1.269m7.044-5.015a.964.964,0,0,0-.4,1.846.955.955,0,0,0,.77,0c-.092-.592-.212-1.212-.365-1.847M387.86,38.9a.963.963,0,1,0,.494,1.269.963.963,0,0,0-.494-1.269m1.307,3.392a.946.946,0,0,0,.007.785c.235-.42.492-.916.7-1.343a.95.95,0,0,0-.705.558m2.449-6.109a.964.964,0,0,0-.569,1.829.928.928,0,0,0,.505.072c.034-.4.074-1.06.064-1.9" fill="#fff"/>
            </g>
          </g>
        </g>
        <g id="Grupo_997078" data-name="Grupo 997078" opacity="0.1">
          <g id="Grupo_997077" data-name="Grupo 997077">
            <g id="Grupo_997076" data-name="Grupo 997076" clip-path="url(#clip-path-24)">
              <path id="Trazado_730537" data-name="Trazado 730537" d="M386.636,45.588a10.332,10.332,0,0,0,.312-2.019c.064-.679.1-1.361.139-2.043.068-1.364.128-2.73.126-4.093,0-.34,0-.684-.018-1.016a4.383,4.383,0,0,0-.248-.962c-.223-.641-.495-1.268-.755-1.9s-.541-1.254-.823-1.876l-.841-1.871q.976,1.8,1.833,3.673c.288.622.554,1.253.791,1.9a4.6,4.6,0,0,1,.271,1.015c.028.351.026.691.029,1.035-.018,1.371-.074,2.739-.182,4.1-.057.682-.118,1.364-.206,2.044-.045.339-.1.678-.161,1.015a4.837,4.837,0,0,1-.267.991" fill="#050400"/>
            </g>
          </g>
        </g>
        <g id="Grupo_997081" data-name="Grupo 997081" opacity="0.1">
          <g id="Grupo_997080" data-name="Grupo 997080">
            <g id="Grupo_997079" data-name="Grupo 997079" clip-path="url(#clip-path-25)">
              <path id="Trazado_730538" data-name="Trazado 730538" d="M387.848,31.555a16.783,16.783,0,0,1,1.2,2.136,16.485,16.485,0,0,1,.9,2.283,11.569,11.569,0,0,1,.5,2.408,6.767,6.767,0,0,1-.191,2.44q.031-.306.073-.606a1.805,1.805,0,0,0,.016-.3v-.3c0-.1.007-.2.005-.3l-.025-.3c-.021-.2-.021-.4-.062-.6l-.094-.6-.13-.591c-.039-.2-.1-.392-.15-.587s-.1-.391-.17-.582a23.946,23.946,0,0,0-.839-2.279c-.155-.376-.323-.746-.5-1.113s-.349-.735-.534-1.1" fill="#050400"/>
            </g>
          </g>
        </g>
        <g id="Grupo_997084" data-name="Grupo 997084" opacity="0.1">
          <g id="Grupo_997083" data-name="Grupo 997083">
            <g id="Grupo_997082" data-name="Grupo 997082" clip-path="url(#clip-path-26)">
              <path id="Trazado_730539" data-name="Trazado 730539" d="M362.325,25.287a12.583,12.583,0,0,1,1.543-1.742c.549-.549,1.12-1.074,1.7-1.591a23.115,23.115,0,0,1,1.8-1.485,7.937,7.937,0,0,1,2.1-1.007,10.434,10.434,0,0,0-1.032.528,8.484,8.484,0,0,0-.964.629c-.3.232-.59.488-.88.745l-.868.769-1.731,1.545c-.289.257-.573.519-.855.784a9.6,9.6,0,0,0-.814.825" fill="#050400"/>
            </g>
          </g>
        </g>
        <g id="Grupo_997087" data-name="Grupo 997087" opacity="0.1">
          <g id="Grupo_997086" data-name="Grupo 997086">
            <g id="Grupo_997085" data-name="Grupo 997085" clip-path="url(#clip-path-27)">
              <path id="Trazado_730540" data-name="Trazado 730540" d="M361.51,27.537a12.454,12.454,0,0,1,.952-1.382,15.955,15.955,0,0,1,1.094-1.277,7.075,7.075,0,0,1,.621-.577c.222-.169.441-.343.668-.507l.675-.5c.23-.159.455-.324.69-.476-.2.2-.412.378-.617.568l-.632.548c-.209.184-.426.358-.639.537a7.982,7.982,0,0,0-.594.57c-.386.4-.753.815-1.125,1.228q-.279.311-.549.629c-.186.208-.364.421-.544.636" fill="#050400"/>
            </g>
          </g>
        </g>
        <g id="Grupo_997090" data-name="Grupo 997090" opacity="0.1">
          <g id="Grupo_997089" data-name="Grupo 997089">
            <g id="Grupo_997088" data-name="Grupo 997088" clip-path="url(#clip-path-28)">
              <path id="Trazado_730541" data-name="Trazado 730541" d="M387.033,23.25c-1.99.558-6.54,1.78-7.514,1.574a6.864,6.864,0,0,1-.963-.324,37.106,37.106,0,0,0-3.409-4.529,21.74,21.74,0,0,0-3.986.971,20.793,20.793,0,0,1-2.662-2.76,6.776,6.776,0,0,1,3.925-1.63,31.581,31.581,0,0,1,6.75,1.2s3.822.8,7.859,5.494" fill="#050400"/>
            </g>
          </g>
        </g>
        <path id="Trazado_730542" data-name="Trazado 730542" d="M376.079,17.994s-3.166-5.353-8.528-6.058c0,0,.116,5.33,1.973,7.12.923.891,5.126,1.332,5.631.642a9.67,9.67,0,0,0,.924-1.7" fill="#ffc727"/>
        <g id="Grupo_997093" data-name="Grupo 997093" opacity="0.3">
          <g id="Grupo_997092" data-name="Grupo 997092">
            <g id="Grupo_997091" data-name="Grupo 997091" clip-path="url(#clip-path-29)">
              <path id="Trazado_730543" data-name="Trazado 730543" d="M372.075,13.771a.962.962,0,0,1-1.539-.914,11.276,11.276,0,0,1,1.539.914m-3.432,1.888a.952.952,0,0,0-.65-.044,11.516,11.516,0,0,0,.543,1.846.952.952,0,0,0,.6-.531.966.966,0,0,0-.493-1.271m5.666.453a.963.963,0,1,0,.494,1.27.964.964,0,0,0-.494-1.27" fill="#fff"/>
            </g>
          </g>
        </g>
        <g id="Grupo_997096" data-name="Grupo 997096" opacity="0.1">
          <g id="Grupo_997095" data-name="Grupo 997095">
            <g id="Grupo_997094" data-name="Grupo 997094" clip-path="url(#clip-path-30)">
              <path id="Trazado_730544" data-name="Trazado 730544" d="M376.079,18a9.941,9.941,0,0,1-.921,1.694.224.224,0,0,1-.086.08.388.388,0,0,1-.122.077c-.034.008-.064.028-.108.038a5.918,5.918,0,0,1-2.329.08,12.809,12.809,0,0,1,.62-2.3,3.5,3.5,0,0,1,1.631-1.434A12.867,12.867,0,0,1,376.079,18" fill="#050400"/>
            </g>
          </g>
        </g>
        <path id="Trazado_730545" data-name="Trazado 730545" d="M377.378,18.749s7.5-1.019,11.074.668c0,0-2.032,3.864-5.795,4.761-1.686.4-6.546-2.736-6.264-3.612a7.532,7.532,0,0,1,.985-1.817" fill="#ffc727"/>
        <g id="Grupo_997099" data-name="Grupo 997099" opacity="0.3">
          <g id="Grupo_997098" data-name="Grupo 997098">
            <g id="Grupo_997097" data-name="Grupo 997097" clip-path="url(#clip-path-31)">
              <path id="Trazado_730546" data-name="Trazado 730546" d="M386.115,22.017a.963.963,0,1,1-.494-1.269.964.964,0,0,1,.494,1.269m-6.934-3.047a.963.963,0,1,0,.495,1.269.963.963,0,0,0-.495-1.269m2.108,4.969a.948.948,0,0,0-.477-.076,6.366,6.366,0,0,0,.723.231.941.941,0,0,0-.246-.155" fill="#fff"/>
            </g>
          </g>
        </g>
        <g id="Grupo_997102" data-name="Grupo 997102" opacity="0.1">
          <g id="Grupo_997101" data-name="Grupo 997101">
            <g id="Grupo_997100" data-name="Grupo 997100" clip-path="url(#clip-path-32)">
              <path id="Trazado_730547" data-name="Trazado 730547" d="M379.086,18.573a4.386,4.386,0,0,1-.178,2.474,3.74,3.74,0,0,1-1.006,1.21c-.954-.681-1.613-1.352-1.51-1.695a7.62,7.62,0,0,1,.987-1.816s.669-.094,1.707-.173" fill="#050400"/>
            </g>
          </g>
        </g>
        <path id="Trazado_730548" data-name="Trazado 730548" d="M378.132,20.458a2.46,2.46,0,1,1-.991-3.335,2.46,2.46,0,0,1,.991,3.335" fill="#ffc727"/>
        <path id="Trazado_730549" data-name="Trazado 730549" d="M367.514,97.613l-.46,16.666H420.3S403.583,72.534,390.333,59.9c-7.285-6.945-13.473-4.4-17.825,1.42-1.1,1.473-9.916,16.909-10.467,24.836-.47,6.992,5.473,11.458,5.473,11.458" fill="#ffc727"/>
        <path id="Trazado_730550" data-name="Trazado 730550" d="M416.81,106.016H367.28l.06-2.08H415.9c.32.72.62,1.42.91,2.08" fill="#ebebeb"/>
        <path id="Trazado_730551" data-name="Trazado 730551" d="M418.82,110.686H367.15l.06-2.07h50.72c.33.76.62,1.45.89,2.07" fill="#ebebeb"/>
        <path id="Trazado_730552" data-name="Trazado 730552" d="M367.543,77.153c-.153,4.044,7.35,6.465,12.592.257s6.709-12.858,5.616-16.179c-1.682-5.114-17.618.368-18.208,15.922" fill="#455a64"/>
        <path id="Trazado_730553" data-name="Trazado 730553" d="M378.042,69.465c-8.323,6.218-36.495,20.954-45.547,18.37-7.632-2.179-21.335-14.522-28.574-21.163-2.3-2.11,18.786-23.793,22.74-19.237,5.106,5.884,13.932,13.6,15.658,14.157.656.21,17.712-2.2,31.88-3.966,12.114-1.5,14.386,3.96,3.843,11.839" fill="#ad6359"/>
        <path id="Trazado_730554" data-name="Trazado 730554" d="M330.062,51.761s-3.184-4.064-3.4-4.325a18.14,18.14,0,0,1-2.511-4.679c-2.7-6.331-13.31-20.029-32.641-19.458-7.407.218-10.488,5.51-2.753,6.65,5.448.8,9.292.89,11,1.65,0,0-7.29,4.232-7.736,9.1a89.98,89.98,0,0,0-.259,12.794,18.953,18.953,0,0,0,2.39.262,10.266,10.266,0,0,0,5.8,9.277l5.9,5.411Z" fill="#ad6359"/>
        <path id="Trazado_730555" data-name="Trazado 730555" d="M320.613,37.125c-3.247-1.57-10.184-4.784-16.773-5.438-7.318-.728-21.613-.156-22.094,5.252-.353,3.965,5.124,4.227,5.124,4.227s-5.858,1.481-5.394,5.133c.424,3.328,4.673,3.276,4.673,3.276s-3.4,1.51-2.374,4.637c1.233,3.761,8.155-.02,12.7,2.71,1.019.613,24.142-19.8,24.142-19.8" fill="#ad6359"/>
        <path id="Trazado_730556" data-name="Trazado 730556" d="M304.361,39.548a29.3,29.3,0,0,0-17.4,1.492c-.137.063-.164.2-.026.169a72.246,72.246,0,0,1,17.424-1.592c.04,0,.044-.058.007-.069" fill="#263238"/>
        <path id="Trazado_730557" data-name="Trazado 730557" d="M303.412,46.915c-2.93-.55-11.245-.485-17.285,2.528-.135.067-.152.207-.016.17a77.439,77.439,0,0,1,17.3-2.629c.041,0,.041-.062,0-.069" fill="#263238"/>
        <path id="Trazado_730558" data-name="Trazado 730558" d="M351.94,59.658l-.363,26.508S375.2,73.572,381.753,67.54c7.377-6.79,3.836-10.6-4.838-10.134-9.516.515-24.975,2.252-24.975,2.252" fill="#455a64"/>
        <path id="Trazado_730559" data-name="Trazado 730559" d="M356.335,82.5c.155-.915.4-9.174.411-10.97s.142-9.138,0-10.994a.066.066,0,0,0-.131-.008c-.21,1.84-.36,9.245-.412,11.074s-.111,10.007.007,10.906c.01.077.112.054.123-.008" fill="#263238"/>
        <path id="Trazado_730560" data-name="Trazado 730560" d="M351.612,83.6c.061.855.085,1.71.126,2.566l-.238-.144q7.807-4.643,15.747-9.047c1.765-.979,3.529-1.959,5.323-2.9-3.3,2.337-6.75,4.451-10.241,6.487q-5.359,3.129-10.934,5.867c.074-.944.124-1.889.217-2.833" fill="#263238"/>
        <path id="Trazado_730561" data-name="Trazado 730561" d="M368.664,76.586a24.05,24.05,0,0,1,4.046-1.239,5.568,5.568,0,0,1-4.046,1.239" fill="#263238"/>
      </g>
    </g>
  </g>
</svg>
