<svg id="Grupo_984526" data-name="Grupo 984526" xmlns="http://www.w3.org/2000/svg" xmlns:xlink="http://www.w3.org/1999/xlink" width="376.244" height="825.439" viewBox="0 0 376.244 825.439">
  <defs>
    <clipPath id="clip-path">
      <rect id="Rectángulo_345154" data-name="Rectángulo 345154" width="376.244" height="825.439" fill="none"/>
    </clipPath>
    <clipPath id="clip-path-3">
      <rect id="Rectángulo_345144" data-name="Rectángulo 345144" width="98.739" height="202.709" fill="none"/>
    </clipPath>
    <clipPath id="clip-path-4">
      <rect id="Rectángulo_345145" data-name="Rectángulo 345145" width="55.546" height="99.631" fill="none"/>
    </clipPath>
    <clipPath id="clip-path-5">
      <rect id="Rectángulo_345146" data-name="Rectángulo 345146" width="81.223" height="202.709" fill="none"/>
    </clipPath>
    <clipPath id="clip-path-6">
      <rect id="Rectángulo_345147" data-name="Rectángulo 345147" width="65.464" height="103.811" fill="none"/>
    </clipPath>
    <clipPath id="clip-path-7">
      <rect id="Rectángulo_345148" data-name="Rectángulo 345148" width="181.455" height="315.283" fill="none"/>
    </clipPath>
    <clipPath id="clip-path-8">
      <rect id="Rectángulo_345149" data-name="Rectángulo 345149" width="8.099" height="41.812" fill="none"/>
    </clipPath>
    <clipPath id="clip-path-9">
      <rect id="Rectángulo_345150" data-name="Rectángulo 345150" width="18.274" height="26.727" fill="none"/>
    </clipPath>
    <clipPath id="clip-path-10">
      <rect id="Rectángulo_345151" data-name="Rectángulo 345151" width="60.285" height="105.36" fill="none"/>
    </clipPath>
    <clipPath id="clip-path-11">
      <rect id="Rectángulo_345152" data-name="Rectángulo 345152" width="12.062" height="105.003" fill="none"/>
    </clipPath>
  </defs>
  <g id="Grupo_984525" data-name="Grupo 984525" clip-path="url(#clip-path)">
    <g id="Grupo_984524" data-name="Grupo 984524">
      <g id="Grupo_984523" data-name="Grupo 984523" clip-path="url(#clip-path)">
        <path id="Trazado_725663" data-name="Trazado 725663" d="M129.141,200.224c0,25.377-21.33,9.188-38.2,9.188S52.753,225.6,52.753,200.224,74.074,7.232,90.944,7.232s38.2,167.615,38.2,192.992" transform="translate(97.173 13.322)" fill="#681e1e"/>
        <path id="Trazado_725664" data-name="Trazado 725664" d="M40.66,281.872H3.461C3.461,173.263,61.319,91.8,83.308,79.163l18.527,32.254.364-.225C91.337,118.869,40.66,187.811,40.66,281.872" transform="translate(6.375 145.821)" fill="#ffcc80"/>
        <g id="Grupo_984498" data-name="Grupo 984498" transform="translate(9.838 224.984)" opacity="0.05">
          <g id="Grupo_984497" data-name="Grupo 984497">
            <g id="Grupo_984496" data-name="Grupo 984496" clip-path="url(#clip-path-3)">
              <path id="Trazado_725665" data-name="Trazado 725665" d="M101.836,111.417,83.306,79.163c-.239.136-.5.327-.75.48l16.87,29.364.364-.227C88.925,116.456,38.249,185.4,38.249,279.462H3.5c-.009.8-.04,1.6-.04,2.41h37.2c0-94.06,50.676-163,61.539-170.682Z" transform="translate(-3.46 -79.163)" fill="#212121"/>
            </g>
          </g>
        </g>
        <path id="Trazado_725666" data-name="Trazado 725666" d="M.046,188.67c-.833,21.924,9.762,40.286,23.646,40.977,37.742,1.887,25.834-16.524,26.673-38.453S40.61,150.91,26.721,150.214C3.26,149.037,1.558,148.949.046,188.67" transform="translate(0 276.101)" fill="#ff8f00"/>
        <path id="Trazado_725667" data-name="Trazado 725667" d="M20.582,180.684c8.41,12.707,18.59,20.082,22.748,16.458s.7-16.862-7.7-29.574-18.581-20.1-22.745-16.478-.713,16.865,7.7,29.594" transform="translate(20.477 276.615)" fill="#ff8f00"/>
        <path id="Trazado_725668" data-name="Trazado 725668" d="M52.235,145.653c.716,10.18-3.965,30.367-3.965,30.367l-44.8,3.044s-5.249-29.026-1.893-37.592c7.628,3.177,41.326,7.483,50.654,4.181" transform="translate(0.848 260.597)" fill="#ff8f00"/>
        <g id="Grupo_984501" data-name="Grupo 984501" transform="translate(10.018 406.25)" opacity="0.5">
          <g id="Grupo_984500" data-name="Grupo 984500">
            <g id="Grupo_984499" data-name="Grupo 984499" clip-path="url(#clip-path-4)">
              <path id="Trazado_725669" data-name="Trazado 725669" d="M49.609,180.876a69.6,69.6,0,0,0-6.733-8.674c.946-4.306,4.331-20.483,3.715-29.259a15.2,15.2,0,0,1-2.35.58c-.134,9.058-2.927,22.412-3.777,26.272a69.255,69.255,0,0,1,6.736,8.668c8.4,12.718,11.857,25.959,7.7,29.577-2.68,2.336-7.87.057-13.468-5.229-.375,21.378,10.385,39.07-26.647,37.219a18.367,18.367,0,0,1-11.263-4.945c3.831,4.4,8.523,7.1,13.676,7.355,37.029,1.85,26.272-15.842,26.647-37.222,5.6,5.289,10.788,7.565,13.466,5.232,4.152-3.615.7-16.859-7.7-29.574" transform="translate(-3.525 -142.943)" fill="#212121"/>
            </g>
          </g>
        </g>
        <path id="Trazado_725670" data-name="Trazado 725670" d="M192.907,281.872H155.716c0-94.066-50.679-163.005-61.536-170.679l18.888-32.03c21.989,12.633,79.839,94.091,79.839,202.709" transform="translate(173.483 145.821)" fill="#ffcc80"/>
        <g id="Grupo_984504" data-name="Grupo 984504" transform="translate(285.168 224.984)" opacity="0.05">
          <g id="Grupo_984503" data-name="Grupo 984503">
            <g id="Grupo_984502" data-name="Grupo 984502" clip-path="url(#clip-path-5)">
              <path id="Trazado_725671" data-name="Trazado 725671" d="M101.721,79.163l-1.381,2.348c24.007,18.24,76.4,96.97,76.4,200.361h4.82c0-108.617-57.853-190.076-79.839-202.709" transform="translate(-100.337 -79.163)" fill="#212121"/>
            </g>
          </g>
        </g>
        <path id="Trazado_725672" data-name="Trazado 725672" d="M165.728,188.67c.833,21.924-9.76,40.286-23.646,40.977-37.748,1.887-25.846-16.524-26.673-38.453s9.748-40.283,23.634-40.979c23.47-1.177,25.175-1.265,26.684,38.456" transform="translate(210.47 276.101)" fill="#ff8f00"/>
        <path id="Trazado_725673" data-name="Trazado 725673" d="M133.82,180.684c-8.41,12.707-18.6,20.082-22.748,16.458s-.7-16.862,7.71-29.574c8.393-12.718,18.584-20.1,22.736-16.478s.71,16.865-7.7,29.594" transform="translate(201.361 276.615)" fill="#ff8f00"/>
        <path id="Trazado_725674" data-name="Trazado 725674" d="M113.756,145.653c-.722,10.18,3.959,30.367,3.959,30.367l44.793,3.044s5.258-29.026,1.9-37.592c-7.631,3.177-41.332,7.483-50.651,4.181" transform="translate(209.404 260.597)" fill="#ff8f00"/>
        <g id="Grupo_984507" data-name="Grupo 984507" transform="translate(310.78 402.069)" opacity="0.5">
          <g id="Grupo_984506" data-name="Grupo 984506">
            <g id="Grupo_984505" data-name="Grupo 984505" clip-path="url(#clip-path-6)">
              <path id="Trazado_725675" data-name="Trazado 725675" d="M174.769,204.173c-.611-15.935-1.268-25.4-3.331-31.018,1.33-8.941,3.345-25.544.944-31.683a29.142,29.142,0,0,1-3.8,1.179c.443,7.688-.955,18.888-1.967,25.684,2.06,5.622,2.72,15.08,3.325,31.015.833,21.923-9.757,40.286-23.646,40.979-10.535.526-17.191-.534-21.349-2.808,2.788,5.442,9.808,8.447,26.172,7.628,13.889-.691,24.481-19.053,23.649-40.977m-63.764,8.987c1.822,1.586,4.812,1,8.293-1.168,3.3-2.359,6.218-4.087,5.917-7.551-3.862,3.655-13.079,4.488-15.864,4.741a5.945,5.945,0,0,0,1.654,3.979" transform="translate(-109.351 -141.472)" fill="#212121"/>
            </g>
          </g>
        </g>
        <path id="Trazado_725676" data-name="Trazado 725676" d="M135.37,474.815H95.277L68.542,178.083,168.781,159.53Z" transform="translate(126.258 293.861)" fill="#184054"/>
        <path id="Trazado_725677" data-name="Trazado 725677" d="M61.98,474.815h40.09l26.744-296.732L28.569,159.53Z" transform="translate(52.625 293.861)" fill="#184054"/>
        <path id="Trazado_725678" data-name="Trazado 725678" d="M110.248,258.278,92.1,247.555H74.938L56.783,258.278V156.269h53.464Z" transform="translate(104.597 287.853)" fill="#184054"/>
        <g id="Grupo_984510" data-name="Grupo 984510" transform="translate(113.583 453.394)" opacity="0.4">
          <g id="Grupo_984509" data-name="Grupo 984509">
            <g id="Grupo_984508" data-name="Grupo 984508" clip-path="url(#clip-path-7)">
              <path id="Trazado_725679" data-name="Trazado 725679" d="M210.54,161.543,178.368,465.173H147.046l.87,9.643h40.1l33.411-315.285ZM121.183,231.9H96.275l-4.033,2.382L71.436,465.173H39.966l1.02,9.643H81.079l20.807-230.89,4.033-2.379h17.163l4.03,2.379Z" transform="translate(-39.964 -159.531)" fill="#212121"/>
            </g>
          </g>
        </g>
        <path id="Trazado_725680" data-name="Trazado 725680" d="M29.549,236.821C29.549,98.965,76.178,62.2,133.693,62.2S237.825,98.965,237.825,236.821Z" transform="translate(54.43 114.58)" fill="#153d51"/>
        <path id="Trazado_725681" data-name="Trazado 725681" d="M129.158,180.522c41.653,0,48.6-36.75,48.6-45.942s-20.832-45.956-69.431-64.335-6.943,73.524-6.943,73.524Z" transform="translate(156.154 124.917)" fill="#153d51"/>
        <path id="Trazado_725682" data-name="Trazado 725682" d="M63.487,180.522c-41.653,0-48.593-36.75-48.593-45.942S35.712,88.625,84.317,70.246s6.94,73.524,6.94,73.524Z" transform="translate(27.435 124.917)" fill="#153d51"/>
        <path id="Trazado_725683" data-name="Trazado 725683" d="M260.709,131.131c0,38.069-52.845,68.922-118.019,68.922S24.663,169.2,24.663,131.131,77.508,62.2,142.69,62.2s118.019,30.856,118.019,68.928" transform="translate(45.43 114.58)" fill="#153d51"/>
        <path id="Trazado_725684" data-name="Trazado 725684" d="M170.378,222.931c-31.1-15.446-37.791-66.535-23.524-137.452.432-2.163.864-4.263,1.31-6.4L104.068,62.2,66.192,164.373V343.195c0,14.094,8.978,25.544,20.048,25.544l73.509-8.518c11.067,0,20.053-11.442,20.053-25.55l-7-107.1c-.469-2.575.81-3.044-2.427-4.644" transform="translate(121.928 114.579)" fill="#f57f17"/>
        <path id="Trazado_725685" data-name="Trazado 725685" d="M169.735,218.469c-.466-2.566.793-3.038-2.393-4.624l2.791,105.119c0,14.111-8.987,25.55-20.053,25.55L76.57,353.031a16.442,16.442,0,0,1-8.711-2.637c3.68,5.6,9.131,9.237,15.31,9.237l73.509-8.518c11.07,0,20.056-11.439,20.056-25.547Zm-16.953-16.524c-18.291-22.8-20.67-67.535-9-125.576.432-2.16.867-4.263,1.31-6.4l-7.378-2.822c-.176.873-.355,1.736-.537,2.623-12.94,64.369-8.56,112.3,15.6,132.175" transform="translate(124.999 123.688)" fill="#e26910"/>
        <path id="Trazado_725686" data-name="Trazado 725686" d="M175.314,145.144H66.191V128.115H174.254Z" transform="translate(121.927 235.993)" fill="#212121"/>
        <path id="Trazado_725687" data-name="Trazado 725687" d="M178.128,160.122H66.192V143.1H177Z" transform="translate(121.928 263.588)" fill="#212121"/>
        <path id="Trazado_725688" data-name="Trazado 725688" d="M119.877,67.983,86.716,245.116l-1.609,8.512-13.039-3.916.87-4.6L111.041,64.6Z" transform="translate(132.753 118.992)" fill="#212121"/>
        <path id="Trazado_725689" data-name="Trazado 725689" d="M35.642,222.931C66.74,207.484,73.424,156.4,59.163,85.478c-.435-2.163-.873-4.263-1.307-6.4L101.944,62.2l37.882,102.171V343.195c0,14.094-8.981,25.544-20.051,25.544L46.26,360.221c-11.073,0-20.042-11.442-20.042-25.55l7-107.1c.472-2.575-.813-3.044,2.427-4.644" transform="translate(48.295 114.579)" fill="#f57f17"/>
        <path id="Trazado_725690" data-name="Trazado 725690" d="M98.459,62.2,95.8,63.22l35.719,96.334V338.378c0,14.088-8.981,25.539-20.053,25.539L37.955,355.4a16.738,16.738,0,0,1-9.845-3.416c3.661,5.036,8.853,8.236,14.665,8.236l73.512,8.518c11.073,0,20.053-11.448,20.053-25.541V164.374Z" transform="translate(51.78 114.58)" fill="#e26910"/>
        <path id="Trazado_725691" data-name="Trazado 725691" d="M27.793,145.144H136.924V128.115H28.861Z" transform="translate(51.195 235.993)" fill="#212121"/>
        <path id="Trazado_725692" data-name="Trazado 725692" d="M26.805,160.122H138.745V143.1H27.936Z" transform="translate(49.376 263.588)" fill="#212121"/>
        <path id="Trazado_725693" data-name="Trazado 725693" d="M43.561,67.9,76.537,245.116l1.6,8.512,13.036-3.916-.867-4.6L52.209,64.6Z" transform="translate(80.241 118.993)" fill="#212121"/>
        <path id="Trazado_725694" data-name="Trazado 725694" d="M71.7,272.716c0,2.35-1.489,4.255-3.337,4.255s-3.345-1.9-3.345-4.255v-170.3c0-2.35,1.5-4.26,3.345-4.26s3.337,1.91,3.337,4.26Z" transform="translate(119.762 180.805)" fill="#212121"/>
        <path id="Trazado_725695" data-name="Trazado 725695" d="M76.03,101.149H69.343L62.664,126.7,66,135.211H79.372l3.339-8.515Zm-3.342,30.128a5.234,5.234,0,1,1,5.235-5.229,5.229,5.229,0,0,1-5.235,5.229" transform="translate(115.43 186.321)" fill="#e0e0e0"/>
        <path id="Trazado_725696" data-name="Trazado 725696" d="M125.473,88.049C120.215,99.039,106.15,106.9,89.507,106.9S58.793,99.039,53.535,88.049c.858-7.284,1.813-15.336,2.961-23.859,6.6-8.427,18.848-14.111,33.01-14.111s26.4,5.684,33.007,14.111c1.148,8.523,2.1,16.575,2.959,23.859" transform="translate(98.614 92.248)" fill="#ffb74d"/>
        <path id="Trazado_725697" data-name="Trazado 725697" d="M167.659,77.483c0,45.774-27.565,97.513-61.561,97.513s-61.57-51.739-61.57-97.513S72.09,9.226,106.1,9.226s61.561,22.481,61.561,68.257" transform="translate(82.022 16.995)" fill="#ffcc80"/>
        <path id="Trazado_725698" data-name="Trazado 725698" d="M97.515,53.141c-1.495,11.618,1.353,21.472-5.042,20.792s-10.359-10.66-8.867-22.279,7.909-20.488,14.3-19.812,1.108,9.666-.4,21.3" transform="translate(153.428 58.588)" fill="#ffcc80"/>
        <path id="Trazado_725699" data-name="Trazado 725699" d="M46.345,53.141c1.492,11.618-1.367,21.472,5.039,20.792,6.386-.676,10.365-10.66,8.864-22.279s-7.907-20.488-14.3-19.812-1.1,9.666.4,21.3" transform="translate(78.949 58.588)" fill="#ffcc80"/>
        <path id="Trazado_725700" data-name="Trazado 725700" d="M123.469,82.009c0,19.189-15.557,31.962-34.755,31.962S53.964,101.2,53.964,82.009c0-11.772,7.85-24.052,17.126-31.785,5.849-4.868,8.341-11.831,17.624-11.831,9.544,0,11.792,6.966,17.643,11.84,9.268,7.733,17.112,20.008,17.112,31.777" transform="translate(99.404 70.72)" fill="#f5f5f5"/>
        <path id="Trazado_725701" data-name="Trazado 725701" d="M83.936,72.04a2.377,2.377,0,0,1-1.594-.614L44.477,37.1a2.366,2.366,0,0,1,3.183-3.5L85.527,67.916a2.371,2.371,0,0,1-1.592,4.124" transform="translate(80.499 60.755)" fill="#f5f5f5"/>
        <path id="Trazado_725702" data-name="Trazado 725702" d="M76.054,72.043a2.372,2.372,0,0,1-1.614-4.1l36.679-34.32a2.369,2.369,0,1,1,3.237,3.459L77.674,71.4a2.362,2.362,0,0,1-1.62.639" transform="translate(135.743 60.751)" fill="#f5f5f5"/>
        <path id="Trazado_725703" data-name="Trazado 725703" d="M73.083,78.478a2.349,2.349,0,0,1-1.674-.693L47.723,54.1a2.366,2.366,0,1,1,3.342-3.351L74.757,74.431a2.371,2.371,0,0,1,0,3.348,2.347,2.347,0,0,1-1.677.7" transform="translate(86.623 92.201)" fill="#f5f5f5"/>
        <path id="Trazado_725704" data-name="Trazado 725704" d="M77.716,78.477a2.331,2.331,0,0,1-1.66-.693,2.36,2.36,0,0,1,0-3.354L99.725,50.747a2.368,2.368,0,0,1,3.348,3.351L79.4,77.783a2.386,2.386,0,0,1-1.688.693" transform="translate(138.811 92.202)" fill="#f5f5f5"/>
        <path id="Trazado_725705" data-name="Trazado 725705" d="M97.408,54.4a2.277,2.277,0,0,1-2.365,2.373c-2.37,0-11.84-9.481-16.572-9.475s-14.213,9.475-16.58,9.475A2.368,2.368,0,0,1,59.526,54.4a2.238,2.238,0,0,1,2.365-2.367c2.367,0,7.105-9.47,16.58-9.475s14.2,9.475,16.572,9.475A2.363,2.363,0,0,1,97.408,54.4" transform="translate(109.649 78.388)" fill="#757575"/>
        <path id="Trazado_725706" data-name="Trazado 725706" d="M88.748,53.6a1.532,1.532,0,0,1-1.293,1.64c-8.248.247-16.538.247-24.788,0a1.525,1.525,0,0,1-1.29-1.64A1.474,1.474,0,0,1,62.675,52H87.449a1.478,1.478,0,0,1,1.3,1.594" transform="translate(113.057 95.792)" fill="#bdbdbd"/>
        <path id="Trazado_725707" data-name="Trazado 725707" d="M93.207,56.819a1.864,1.864,0,0,1-1.532,1.788,101.708,101.708,0,0,1-29.719,0,1.872,1.872,0,0,1-1.532-1.788,1.347,1.347,0,0,1,1.538-1.364,134.5,134.5,0,0,0,29.708,0,1.343,1.343,0,0,1,1.538,1.364" transform="translate(111.303 102.133)" fill="#bdbdbd"/>
        <path id="Trazado_725708" data-name="Trazado 725708" d="M90.872,60.281a2.026,2.026,0,0,1-1.4,1.924,58.675,58.675,0,0,1-27.161,0,2.031,2.031,0,0,1-1.393-1.924,1.174,1.174,0,0,1,1.4-1.273,67.914,67.914,0,0,0,27.15,0,1.174,1.174,0,0,1,1.4,1.273" transform="translate(112.223 108.647)" fill="#bdbdbd"/>
        <path id="Trazado_725709" data-name="Trazado 725709" d="M152.067,53.2c0,39.635-42.636,13.21-52.109,13.21s-52.1,26.32-52.1-13.309c0-28.42,0-23.686,52.1-23.686S152.067,24.68,152.067,53.2" transform="translate(88.156 53.638)" fill="#263238"/>
        <path id="Trazado_725710" data-name="Trazado 725710" d="M167.665,34.326c0,3.283-2.12,5.954-4.729,5.954H49.269c-2.615,0-4.741-2.672-4.741-5.954s2.126-5.96,4.741-5.96H162.936c2.609,0,4.729,2.669,4.729,5.96" transform="translate(82.022 52.251)" fill="#263238"/>
        <path id="Trazado_725711" data-name="Trazado 725711" d="M87.6,52.907c2.609,0,4.735-10.6,4.735-23.683H82.855c0,13.085,2.114,23.683,4.746,23.683" transform="translate(152.622 53.832)" fill="#263238"/>
        <path id="Trazado_725712" data-name="Trazado 725712" d="M50.923,52.907c2.623,0,4.752-10.6,4.752-23.683H46.194c0,13.085,2.117,23.683,4.729,23.683" transform="translate(85.091 53.832)" fill="#263238"/>
        <path id="Trazado_725713" data-name="Trazado 725713" d="M91.8,43.756V34.284l-1.182-2.367c-7.483,0-9.157-.091-14.659-.176-4.056-.065-7.605-.122-10.717-.122-10.95,0-13.318.892-13.753,1.415C50.359,34.4,50.359,41.889,50.359,48.5c0,5.937,1.1,10.231,3.192,12.42.554.588,2.237,2.359,7.29,2.359,6.633,0,14.969-2.91,21.662-5.244,5.528-1.933,6.929-3.325,6.929-3.325Z" transform="translate(92.763 58.242)" fill="#bbdefb"/>
        <path id="Trazado_725714" data-name="Trazado 725714" d="M61.094,44.555c-2.939,0-5.315-2-5.315-4.471s2.376-4.471,5.315-4.471,5.32,2,5.32,4.471-2.384,4.471-5.32,4.471" transform="translate(102.747 65.602)" fill="#90caf9"/>
        <path id="Trazado_725715" data-name="Trazado 725715" d="M107.747,33.044c-.438-.531-2.814-1.424-13.8-1.424-3.109,0-6.656.051-10.72.117-5.491.082-7.151.176-14.605.176L67.441,34.28v9.473L69.806,54.7s1.421,1.4,6.974,3.345c6.7,2.35,15.037,5.281,21.673,5.281,4.152,0,10.425,0,10.425-14.744,0-6.972,0-14.168-1.131-15.54" transform="translate(124.229 58.245)" fill="#bbdefb"/>
        <path id="Trazado_725716" data-name="Trazado 725716" d="M78.173,44.566c-2.936,0-5.312-2-5.312-4.471s2.376-4.471,5.312-4.471,5.317,2,5.317,4.471-2.376,4.471-5.317,4.471" transform="translate(134.213 65.623)" fill="#90caf9"/>
        <path id="Trazado_725717" data-name="Trazado 725717" d="M112.239,12.037c34.613,0,62.678,31.805,62.678,71.042h8.364c0-44.469-31.811-80.518-71.042-80.518S41.194,38.61,41.194,83.08H49.55c0-39.237,28.065-71.042,62.69-71.042" transform="translate(75.881 4.719)" fill="#ff8f00"/>
        <path id="Trazado_725718" data-name="Trazado 725718" d="M55.681,81.464a5.6,5.6,0,0,1-11.183.642l-2.885-50.3a5.6,5.6,0,1,1,11.181-.642Z" transform="translate(76.636 47.69)" fill="#212121"/>
        <path id="Trazado_725719" data-name="Trazado 725719" d="M54.467,78.269C45.2,78.8,37.051,67.975,36.261,54.086S42.323,28.5,51.579,27.973Z" transform="translate(66.675 51.527)" fill="#ff8f00"/>
        <g id="Grupo_984513" data-name="Grupo 984513" transform="translate(113.059 87.981)" opacity="0.1">
          <g id="Grupo_984512" data-name="Grupo 984512">
            <g id="Grupo_984511" data-name="Grupo 984511" clip-path="url(#clip-path-8)">
              <path id="Trazado_725720" data-name="Trazado 725720" d="M39.781,70.2C43.734,62.1,46,40.887,45.468,30.957l2.413,41.8a12.647,12.647,0,0,1-8.1-2.555" transform="translate(-39.78 -30.957)" fill="#212121"/>
            </g>
          </g>
        </g>
        <path id="Trazado_725721" data-name="Trazado 725721" d="M85.832,81.464a5.6,5.6,0,0,0,11.186.642l2.868-50.3a5.592,5.592,0,1,0-11.166-.642Z" transform="translate(158.089 47.69)" fill="#212121"/>
        <path id="Trazado_725722" data-name="Trazado 725722" d="M89.757,78.269c9.265.529,17.407-10.294,18.212-24.183S101.907,28.5,92.639,27.973Z" transform="translate(165.336 51.527)" fill="#ff8f00"/>
        <g id="Grupo_984516" data-name="Grupo 984516" transform="translate(255.077 103.072)" opacity="0.1">
          <g id="Grupo_984515" data-name="Grupo 984515">
            <g id="Grupo_984514" data-name="Grupo 984514" clip-path="url(#clip-path-9)">
              <path id="Trazado_725723" data-name="Trazado 725723" d="M108.025,36.267c0,.819,0,1.688-.045,2.555-.821,13.886-8.969,24.683-18.229,24.152l.335-5.593c11.084-.77,15.773-14.844,17.939-21.114" transform="translate(-89.752 -36.267)" fill="#212121"/>
            </g>
          </g>
        </g>
        <path id="Trazado_725724" data-name="Trazado 725724" d="M176.735,73.183c-2.893,0-22.753,6.315-61.945,6.315s-59.058-6.315-62-6.315c-12.681,0-18.948-2.313-5.306-13.645,3.715-17.209,12-31,23.867-40.448a4.879,4.879,0,0,1,1.879-6.6l8.583-5.013A5.018,5.018,0,0,1,88.609,9.3l.051.145c.1-.048.193-.048.29-.1a69.721,69.721,0,0,1,15.907-3.757V4.968a2.991,2.991,0,0,1,.051-.676A4.987,4.987,0,0,1,109.825,0h9.93a4.959,4.959,0,0,1,4.962,4.968v.625a.313.313,0,0,1,.2.045,68.055,68.055,0,0,1,16,3.811l.051-.145c0-.048.051-.048.1-.1a4.927,4.927,0,0,1,6.7-1.736l8.58,5.013a4.873,4.873,0,0,1,1.876,6.6c11.863,9.45,20.156,23.239,23.865,40.448,13.645,11.331,7.381,13.645-5.352,13.645" transform="translate(73.33)" fill="#f57f17"/>
        <path id="Trazado_725725" data-name="Trazado 725725" d="M87.753,5.554,85.1,30.575a8.194,8.194,0,0,1-16.347-.821,4.981,4.981,0,0,1,.051-.87l2.8-26.9a68.076,68.076,0,0,1,16,3.808l.051-.142c0-.048.048-.048.1-.1" transform="translate(126.642 3.655)" fill="#e26910"/>
        <path id="Trazado_725726" data-name="Trazado 725726" d="M76.045,28.916a4.687,4.687,0,0,1,.048.821,8.244,8.244,0,0,1-7.378,8.194A8.158,8.158,0,0,1,59.7,30.6L57.1,5.728a69.538,69.538,0,0,1,15.907-3.76Z" transform="translate(105.181 3.625)" fill="#e26910"/>
        <path id="Trazado_725727" data-name="Trazado 725727" d="M133.489,36.884c-45.262,12.678-56.164,8.967-67.3,8.967C79.885,42.284,133.057,43.634,123.7,12.3a75.845,75.845,0,0,1,9.785,24.586" transform="translate(121.928 22.653)" fill="#e26910"/>
        <path id="Trazado_725728" data-name="Trazado 725728" d="M182.991,355.376a3.236,3.236,0,0,1,.426-1.6,18.23,18.23,0,0,0,1.071-6.454c0-2.37-.975-5.272-2.149-6.454a19.1,19.1,0,0,0-6.233-3.518l-4.752-1.58a64.863,64.863,0,0,0-8.324-2.063l-17.342-2.9a15.8,15.8,0,0,1-7.293-3.743l-6.824-6.827a10.011,10.011,0,0,1-2.5-7.318l3.243-25.9c.29-2.347.7-6.193.921-8.552l2.532-27.994H73.945l2.541,27.994c.225,2.359.711,6.2,1.106,8.535l2.893,17.334a63.2,63.2,0,0,1,.7,8.546,31.488,31.488,0,0,1-1.373,8.4l-1.569,4.735a31.5,31.5,0,0,0-1.367,8.4v15.066a11.579,11.579,0,0,0,1.077,4.3,2.941,2.941,0,0,1,.4,1.7c15.014-2.5,69.445,1.705,104.633-.1" transform="translate(136.21 461.381)" fill="#dedede"/>
        <g id="Grupo_984519" data-name="Grupo 984519" transform="translate(260.414 711.855)" opacity="0.5">
          <g id="Grupo_984518" data-name="Grupo 984518">
            <g id="Grupo_984517" data-name="Grupo 984517" clip-path="url(#clip-path-10)">
              <path id="Trazado_725729" data-name="Trazado 725729" d="M149.766,340.867a19.048,19.048,0,0,0-6.233-3.516l-4.752-1.583a64.9,64.9,0,0,0-8.327-2.063l-17.339-2.893a15.832,15.832,0,0,1-7.3-3.743L99,320.239a10,10,0,0,1-2.5-7.318l3.243-25.9c.287-2.348.7-6.2.921-8.555l2.529-27.994H98.37l-2.532,27.994c-.222,2.359-.637,6.207-.927,8.555l-3.234,25.9a9.994,9.994,0,0,0,2.5,7.318L101,327.069a15.855,15.855,0,0,0,7.3,3.743l17.342,2.893a65.057,65.057,0,0,1,8.322,2.063l4.755,1.583a19.034,19.034,0,0,1,6.235,3.516c1.171,1.182,2.143,4.084,2.143,6.454a18.283,18.283,0,0,1-1.071,6.454,3.241,3.241,0,0,0-.423,1.6c-5.946.307-12.459.429-19.215.455,8.492.026,16.691-.077,24.035-.455a3.25,3.25,0,0,1,.426-1.6,18.282,18.282,0,0,0,1.071-6.454c0-2.37-.978-5.272-2.149-6.454" transform="translate(-91.629 -250.474)" fill="#212121"/>
            </g>
          </g>
        </g>
        <path id="Trazado_725730" data-name="Trazado 725730" d="M181.515,288.235c-.273,0-.406-.222-.426-.554-35.187,1.8-89.621-2.4-104.635.1-.043.267-.159.455-.4.455-.588,0-1.077,1.449-1.077,3.226a13.808,13.808,0,0,0,.537,4.311c.29.588,2.475,1.069,4.84,1.069h20.451c2.365,0,4.294-.969,4.294-2.151s1.944-2.154,4.314-2.154h4.3c2.37,0,5.283.978,6.454,2.154,1.188,1.182,4.1,2.151,6.466,2.151h49.5c2.367,0,4.792-.48,5.386-1.069s1.071-2.535,1.071-4.311-.483-3.226-1.071-3.226" transform="translate(138.113 528.599)" fill="#212121"/>
        <path id="Trazado_725731" data-name="Trazado 725731" d="M21.04,355.376a3.258,3.258,0,0,0-.423-1.6,18.288,18.288,0,0,1-1.074-6.454c0-2.37.975-5.272,2.149-6.454a19.1,19.1,0,0,1,6.233-3.518l4.755-1.58A64.706,64.706,0,0,1,41,333.705l17.342-2.9a15.8,15.8,0,0,0,7.3-3.743l6.824-6.827a10.018,10.018,0,0,0,2.5-7.318l-3.24-25.9c-.287-2.347-.7-6.193-.921-8.552l-2.535-27.994h61.82l-2.541,27.994c-.222,2.359-.711,6.2-1.1,8.535l-2.9,17.334a63.665,63.665,0,0,0-.7,8.546,31.6,31.6,0,0,0,1.373,8.4l1.572,4.735a31.617,31.617,0,0,1,1.367,8.4v15.066a11.584,11.584,0,0,1-1.08,4.3,2.988,2.988,0,0,0-.4,1.7c-15.014-2.5-69.445,1.705-104.633-.1" transform="translate(35.997 461.381)" fill="#dedede"/>
        <g id="Grupo_984522" data-name="Grupo 984522" transform="translate(154.019 711.855)" opacity="0.5">
          <g id="Grupo_984521" data-name="Grupo 984521">
            <g id="Grupo_984520" data-name="Grupo 984520" clip-path="url(#clip-path-11)">
              <path id="Trazado_725732" data-name="Trazado 725732" d="M62.611,287c.392-2.331.884-6.179,1.1-8.537l2.541-27.994h-4.82l-2.544,27.994c-.219,2.359-.711,6.207-1.1,8.537l-2.9,17.334a63.158,63.158,0,0,0-.7,8.543,31.717,31.717,0,0,0,1.37,8.4l1.574,4.735a31.616,31.616,0,0,1,1.367,8.4v15.063a11.584,11.584,0,0,1-1.08,4.3,3.622,3.622,0,0,0-.372,1.211c1.83.128,3.5.279,4.792.492a2.992,2.992,0,0,1,.4-1.7,11.584,11.584,0,0,0,1.08-4.3V334.413a31.617,31.617,0,0,0-1.367-8.4l-1.572-4.735a31.605,31.605,0,0,1-1.373-8.4,63.622,63.622,0,0,1,.7-8.543Z" transform="translate(-54.193 -250.474)" fill="#212121"/>
            </g>
          </g>
        </g>
        <path id="Trazado_725733" data-name="Trazado 725733" d="M20.615,288.235c.27,0,.4-.222.423-.554,35.187,1.8,89.621-2.4,104.635.1.043.267.162.455.4.455.588,0,1.077,1.449,1.077,3.226a13.788,13.788,0,0,1-.54,4.311c-.29.588-2.473,1.069-4.84,1.069H101.326c-2.37,0-4.3-.969-4.3-2.151s-1.947-2.154-4.314-2.154h-4.3c-2.367,0-5.283.978-6.454,2.154-1.188,1.182-4.1,2.151-6.463,2.151H26c-2.365,0-4.789-.48-5.383-1.069s-1.074-2.535-1.074-4.311.486-3.226,1.074-3.226" transform="translate(35.995 528.599)" fill="#212121"/>
      </g>
    </g>
  </g>
</svg>
