<svg id="Grupo_984733" data-name="Grupo 984733" xmlns="http://www.w3.org/2000/svg" xmlns:xlink="http://www.w3.org/1999/xlink" width="428.818" height="443.241" viewBox="0 0 428.818 443.241">
  <defs>
    <clipPath id="clip-path">
      <rect id="Rect치ngulo_345281" data-name="Rect치ngulo 345281" width="428.819" height="443.241" fill="none"/>
    </clipPath>
    <clipPath id="clip-path-3">
      <rect id="Rect치ngulo_345279" data-name="Rect치ngulo 345279" width="10.946" height="82.294" fill="none"/>
    </clipPath>
  </defs>
  <g id="Grupo_984732" data-name="Grupo 984732" clip-path="url(#clip-path)">
    <g id="Grupo_984731" data-name="Grupo 984731">
      <g id="Grupo_984730" data-name="Grupo 984730" clip-path="url(#clip-path)">
        <path id="Trazado_726102" data-name="Trazado 726102" d="M91.331,181.328c-5.175,0-9.649-1.539-11.625-4.246l1.906-1.391c1.819,2.493,7.74,4.284,15.127,2.69,7.529-1.631,25.8-9.1,32.806-43.068,9.626-46.69,8.186-89.463-3.352-99.5-10.69-9.3-23.345,2.21-23.472,2.331l-1.605-1.733c.145-.13,14.358-13.054,26.625-2.378,12.33,10.725,14.06,53.519,4.113,101.753-7.286,35.331-26.634,43.17-34.617,44.9a28.056,28.056,0,0,1-5.906.642" transform="translate(150.839 56.416)" fill="#3f2a28"/>
        <path id="Trazado_726103" data-name="Trazado 726103" d="M70.39,23.353s-9.869,5.93-13.294,8.909-3.225,7.269-1.478,12.07,6.687,4.59,11.341.165,17.653-8.374,14.454-14.54S74.42,22.1,70.39,23.353" transform="translate(102.925 43.463)" fill="#fff"/>
        <path id="Trazado_726104" data-name="Trazado 726104" d="M74.491,18.768s25.263-4.81,31.027,11.813S91.513,64.7,91.513,64.7Z" transform="translate(140.97 34.294)" fill="#e52c2c"/>
        <path id="Trazado_726105" data-name="Trazado 726105" d="M39.132,43.8c-6.146-.214-9.869,3.488-4.177,11.107S51.968,64.1,56.113,63.12s12.608-2.033,12.608-2.033L71.646,49.7S56.721,49.069,52.9,48.016,43.768,43.961,39.132,43.8" transform="translate(60.82 82.87)" fill="#fff"/>
        <path id="Trazado_726106" data-name="Trazado 726106" d="M105.136,29.494a39.381,39.381,0,0,1-2.528-3.477L35.3,86.5l3.563,5.079,67.2-60.99c-.307-.364-.619-.738-.926-1.1" transform="translate(66.799 49.236)" fill="#3f2a28"/>
        <path id="Trazado_726107" data-name="Trazado 726107" d="M67.709,22.871c-3.769.68-4.767,3.176-9.241,12.212s1.837,9.056,7.26,3.98,12.05-5.47,12.232-9.6-7.251-7.13-10.251-6.589" transform="translate(107.772 43.163)" fill="#fff"/>
        <path id="Trazado_726108" data-name="Trazado 726108" d="M64.472,23.724c-1.452.616-4.68,2.719-4.55,5.993,3.254.292,6.754,1.756,8.429,4.029,2.606,3.54,1.114,7.1.205,9.088,1.77,2.065,24.366.813,27.461-8.929s-.986-13.71-8.7-14.231-17.687,1.854-22.847,4.049" transform="translate(113.393 37.095)" fill="#e52c2c"/>
        <path id="Trazado_726109" data-name="Trazado 726109" d="M93.313,121.981c-2.632,1.195-5.342,1.252-8.452,1.377-9.328.37-11.648-1.637-16.111-7.862.04.44-2.881,11.547-2.9,11.711-6.372-2.178-12.409-5.666-17.87-2.346-5.73,3.483-6.146,8.744-4.781,13.939a30.805,30.805,0,0,0,10.555,8.614,76.807,76.807,0,0,0,19.215,5.721c4.559,2.736,10.965,4.882,15.7,2.4,4.871-2.557,7.315-4.7,5.872-10.092-1.325-4.963-1.808-19.8-1.226-23.464" transform="translate(80.522 218.57)" fill="#3f2a28"/>
        <path id="Trazado_726110" data-name="Trazado 726110" d="M117.889,104.555c-4.119,2.551-14.407,9.774-17.69,6.288-.726.043-6.8,3.315-11.451,3.3-8.07-.026-15.544,1.325-15.564,10.338-.006,2.239,5.131,8.591,7.272,9.86,11.4,6.78,18.543,3.653,23.168,2.519,3.937,3.4,13.192.4,18.671-4.668,1.811-1.675-1.073-9.9-3.043-11.972.353-1.628-1.559-13.817-1.362-15.668" transform="translate(138.495 197.864)" fill="#3f2a28"/>
        <path id="Trazado_726111" data-name="Trazado 726111" d="M112.116,147.3c3.2-12.55,3.248-28.615-5.606-37.92,14.144-14.294,3.708-41.307-7.917-55.127.116-.069.246-.139.359-.211,2.3-1.458.159-5.146-2.14-3.662-7.11,4.587-20.9,10-25.445,17.381-4.379,7.11-2.976,19.8-3.474,27.9-1.417,23.1-.74,49.646,16.342,65.962.8,4.833,10.115,15.981,12.938,31.175,2.337,12.579-.009,18.376,4.521,26.139,4.128,7.078,22.784,11.908,28.248.139,3-6.467-2.352-33.628-3.286-38.105-4.683-22.393-8.64-29.7-14.54-33.671" transform="translate(127.567 94.686)" fill="#dd2424"/>
        <path id="Trazado_726112" data-name="Trazado 726112" d="M124.824,70.075c-1.4-4.026-4.275-11.341-9.053-12.354-3.65-.772-8.414,2.89-11.185,3.919-3.613,1.345-27.322,1.672-27.2,2.071-9.912,16.446-20.215,58.083-21.907,87.149-2.58,12.287-2.482,39.161-3.364,51.7-.868,12.3-5.519,28.76.969,36.425,3.532,4.174,21.291,8.969,28.369,1.573,8.186-6.682,12.024-66.763,6.065-74.848,9.788-6.829,15.214-23.834,19.654-33.468a71.2,71.2,0,0,0,5.811-18.2c.4-2.435.6-4.729.816-6.919a32.644,32.644,0,0,0,11.029-37.044" transform="translate(94.027 109.034)" fill="#e52c2c"/>
        <path id="Trazado_726113" data-name="Trazado 726113" d="M58.288,71.507s6.757,12.733,32.936,7.049c20.3-4.405,27.8-14.613,27.8-14.613l-2.088-7.61L60.781,64.909Z" transform="translate(110.307 106.607)" fill="#dd2424"/>
        <path id="Trazado_726114" data-name="Trazado 726114" d="M131.9,28.925c-15.113-20.678-40.63.758-54.939,9.785C56.629,51.532,61.867,78.68,61.5,87.656c-.4,9.944-5.14,15.5-3.2,20.3,2.525,6.222,6.135,7.876.61,12.935-.871.8-2.285,2.132-.761,4.11a35.266,35.266,0,0,0,4.564,4.567c-2.794,1.773-3.017,5.267.223,7.789,6.32,4.923,21.974,6.531,29.665,3.928,13.49-4.564,27.336-10.832,31.988-19.9,2.051-4,.683-6.129.529-13.282-.1-4.807-.223-9.4,2.282-13.7,9.351-16.05,17.794-47.28,4.492-65.479" transform="translate(108.775 38.247)" fill="#f9423e"/>
        <path id="Trazado_726115" data-name="Trazado 726115" d="M121.679,46.783c-3.4-9.953-17.531-22.9-27.782-16.325-2.114,1.357-10.41,6.352-8.709,19.1C77.9,54.627,73.407,61.821,73.511,71.652c-3.37-1.261-16.892-1.345-19.7,2.719-5.672-1.134-9.2,2.551-10.367,6.332S42.212,91.454,44.57,93.088C50.149,96.955,60.113,99,70.121,100.7c15,2.545,16.345,1.921,32.326-9.71,14.647-10.664,26.243-23.692,19.232-44.2" transform="translate(80.72 54.259)" fill="#e52c2c"/>
        <path id="Trazado_726116" data-name="Trazado 726116" d="M99.689,28.991c-3.043-5.175-4.243-7.008-4.871-12.808-.1-.963-21.667,5.791-20.7,6.415-1.009,7.283-5.42,14.523-8.021,20.458,5.342,0,8.839.946,14.876-.671,4.807-1.29,12.539-3.315,16.4-6.754,1.631-1.455,3.442-4.738,2.323-6.641" transform="translate(125.077 30.449)" fill="#ffb8a3"/>
        <path id="Trazado_726117" data-name="Trazado 726117" d="M75.974,4.9C63.715,10.837,60.227,28.773,64.7,41.63a16.551,16.551,0,0,0,5.4,9.259c6.462,5.571,15.093,1.432,21.508-2.051,7.463-4.055,15.475-9.985,16.608-19.11C110.02,15.274,89.71-1.745,75.974,4.9" transform="translate(118.911 6.474)" fill="#ffc8b5"/>
        <path id="Trazado_726118" data-name="Trazado 726118" d="M95.236,6.256c-.749-9.383-15.6-7.274-18.749.15-1.842-1.226-4.451-1.744-5.5.72a2.923,2.923,0,0,0-.191,1.278C64.928,7.393,58.58,13.2,60.486,19.726c2.641,9.045,16.848,7.59,24.392,4.041-2,3.083-2.632,7.02-.5,10.349a7.706,7.706,0,0,0,9.643,3.106c1.3,5.5,5.423,12.322,12.764,11.029,9.2-1.62,17.716-16.817,6.647-29.451,0-7.914-9.215-16.66-18.193-12.545" transform="translate(113.813 0)" fill="#3f2a28"/>
        <path id="Trazado_726119" data-name="Trazado 726119" d="M71.963,16.333s5.632-6.022,7.153.524c1.041,4.469-3.358,6.783-3.358,6.783Z" transform="translate(136.186 26.125)" fill="#ffc8b5"/>
        <path id="Trazado_726120" data-name="Trazado 726120" d="M60.128,58.99s5.088,2.9,14.827,2.9a32.848,32.848,0,0,0,16.091-3.942s-12.235,1.1-16.5,1.3-14.422-.266-14.422-.266" transform="translate(113.789 109.671)" fill="#e52c2c"/>
        <path id="Trazado_726121" data-name="Trazado 726121" d="M61.045,66.411a64.927,64.927,0,0,0,18.162-3.242c8.593-3.08,15.987-13.135,15.987-13.135S84.439,58.465,77.445,61.06s-16.4,5.351-16.4,5.351" transform="translate(115.524 94.687)" fill="#e52c2c"/>
        <path id="Trazado_726122" data-name="Trazado 726122" d="M58.634,59.183s14.647,12.851,28.248,4.894S95.947,48.8,95.947,48.8s-6.939,11.1-17.534,11.761-15.457-4.182-15.457-4.182Z" transform="translate(110.962 92.349)" fill="#3f2a28"/>
        <path id="Trazado_726123" data-name="Trazado 726123" d="M64.213,28.405s9.724.865,16.015,5.976A40.808,40.808,0,0,1,89.2,44.033l3.552-2.285s-5-8.027-11.564-12.822a16.579,16.579,0,0,0-13.328-2.9Z" transform="translate(121.52 48.551)" fill="#3f2a28"/>
        <path id="Trazado_726124" data-name="Trazado 726124" d="M76.079,21.856s9.724.865,16.015,5.976a40.809,40.809,0,0,1,8.969,9.652l3.552-2.285s-5-8.027-11.564-12.822a16.579,16.579,0,0,0-13.328-2.9Z" transform="translate(143.975 36.157)" fill="#3f2a28"/>
        <path id="Trazado_726125" data-name="Trazado 726125" d="M65.481,39.857s-.738-7.633,9.588-10.563S91.9,25.444,97.726,19.008c1.7-1.874,1.981.55,3.491,3.182s3.714,5.073-2.933,11.162-16.134,7.3-21.436,7.708a40.1,40.1,0,0,1-11.367-1.2" transform="translate(123.896 34.716)" fill="#e52c2c"/>
        <path id="Trazado_726126" data-name="Trazado 726126" d="M56.625,93.463a14.05,14.05,0,0,0,7.957,4.955c5.337,1.218,7.974,0,7.974,0s-9.337-5.851-15.932-4.955" transform="translate(107.16 176.697)" fill="#dd2424"/>
        <path id="Trazado_726127" data-name="Trazado 726127" d="M58.343,89.853s2.282,4.871,5.175,6.849a66.716,66.716,0,0,0,7.61,4.177,20.467,20.467,0,0,0-3.8-6c-2.892-3.347-8.981-5.021-8.981-5.021" transform="translate(110.411 170.042)" fill="#dd2424"/>
        <path id="Trazado_726128" data-name="Trazado 726128" d="M39.52,48.35c.983,1.4.931,3.135-.119,3.873s-2.7.2-3.685-1.2-.928-3.138.121-3.873,2.7-.2,3.682,1.2" transform="translate(66.26 88.596)" fill="#5b403e"/>
        <path id="Trazado_726129" data-name="Trazado 726129" d="M77.949,50a1.568,1.568,0,0,0-.188-1.788c-.515-.735-1.319-1.059-1.8-.726-.04.029-61.742,53.438-61.742,53.438l1.955,2.525S77.909,50.044,77.949,50l.009-.009Z" transform="translate(26.916 89.609)" fill="#fff"/>
        <path id="Trazado_726130" data-name="Trazado 726130" d="M13.971,66.489s4.813-2.774,6.47-2.317a3.476,3.476,0,0,1,1.845,2.482c0,2.965-3.488,5.6-3.488,5.6Z" transform="translate(26.439 121.346)" fill="#3f2a28"/>
        <path id="Trazado_726131" data-name="Trazado 726131" d="M19.14,66.679c1.206,1.718,1.14,3.838-.145,4.744s-3.306.24-4.509-1.475-1.14-3.841.145-4.744,3.306-.24,4.509,1.475" transform="translate(25.78 122.631)" fill="#5b403e"/>
        <path id="Trazado_726132" data-name="Trazado 726132" d="M17.171,66.38a1.9,1.9,0,0,1-.081,2.629,1.9,1.9,0,0,1-2.5-.816,1.9,1.9,0,0,1,.081-2.626,1.9,1.9,0,0,1,2.5.813" transform="translate(26.71 123.657)" fill="#3f2a28"/>
        <path id="Trazado_726133" data-name="Trazado 726133" d="M113.62,30.174s-4.284,8.084-20.169,13.892a161.185,161.185,0,0,1-22.411,5.9L70.7,62.506a131.563,131.563,0,0,0,24.84-6.647c7.159-2.814,13.855-6.667,17.786-13.875,1.571-2.881.3-11.81.3-11.81" transform="translate(133.794 57.103)" fill="#fff"/>
        <path id="Trazado_726134" data-name="Trazado 726134" d="M67.938,37.6a1.179,1.179,0,0,1-.538-2.227c.136-.072,14.025-7.257,21.667-14.08a112.141,112.141,0,0,0,12.99-13.78,1.179,1.179,0,0,1,1.874,1.432A114.566,114.566,0,0,1,90.638,23.055C82.77,30.078,69.057,37.173,68.476,37.471a1.153,1.153,0,0,1-.538.13" transform="translate(126.336 13.343)" fill="#fff"/>
        <path id="Trazado_726135" data-name="Trazado 726135" d="M72.017,36.321a1.179,1.179,0,0,1-.821-1.935c.1-.124,10.526-12.565,13.386-22.726a1.2,1.2,0,0,1,1.458-.816,1.182,1.182,0,0,1,.813,1.458C83.853,22.955,73.44,35.381,73,35.9a1.181,1.181,0,0,1-.981.417" transform="translate(134.205 20.449)" fill="#fff"/>
        <path id="Trazado_726136" data-name="Trazado 726136" d="M70.038,14.381,59.764,17.088l3.477,13.754L72.9,29.019Z" transform="translate(113.1 27.214)" fill="#3f2a28"/>
        <path id="Trazado_726137" data-name="Trazado 726137" d="M62.873,13.171s6.791-1.024,16,6.013c10.274,7.85,13.054,11.3,13.054,11.3S81.336,43.747,69.59,35.333c-8.753-6.268-6.716-22.162-6.716-22.162" transform="translate(118.596 24.827)" fill="#493230"/>
        <path id="Trazado_726138" data-name="Trazado 726138" d="M78,27.382l4.94-4.732-3.922-4.139c-2.184-2.074-6.52-1.059-9.687,2.273s-3.966,7.711-1.782,9.788l3.425,3.537,4.483-4.292A12.326,12.326,0,0,0,77.235,28.3c.281-.3.521-.607.764-.917" transform="translate(125.502 32.995)" fill="#3f2a28"/>
        <path id="Trazado_726139" data-name="Trazado 726139" d="M78.59,29.731C75.422,33.06,71.087,34.078,68.9,32s-1.385-6.456,1.782-9.788,7.506-4.347,9.687-2.271,1.385,6.459-1.782,9.788" transform="translate(128.067 35.702)" fill="#5b403e"/>
        <path id="Trazado_726140" data-name="Trazado 726140" d="M76.664,27.77c-2.421,2.545-5.739,3.323-7.408,1.735s-1.059-4.937,1.365-7.483,5.736-3.323,7.4-1.738,1.059,4.94-1.362,7.486" transform="translate(129.284 36.833)" fill="#493230"/>
        <path id="Trazado_726141" data-name="Trazado 726141" d="M64.253,21.69c.94,3.8.758,7.121-.4,7.408s-2.866-2.563-3.806-6.369-.758-7.121.4-7.408,2.866,2.566,3.806,6.369" transform="translate(112.493 28.957)" fill="#5b403e"/>
        <path id="Trazado_726142" data-name="Trazado 726142" d="M63.227,21.114c.79,3.2.758,5.953-.067,6.155s-2.135-2.221-2.924-5.418-.761-5.95.067-6.155,2.135,2.221,2.924,5.418" transform="translate(112.908 29.683)" fill="#493230"/>
        <path id="Trazado_726143" data-name="Trazado 726143" d="M59.5,46.208c-3.9-.752-10.393-1.895-13.6-1.686-4.425.286-8.212-.3-9.588,1.458s-.188,3.02,1.643,3.442,4.784,3.106,8.579,5.452c2.253,1.394,6.4,2.545,9.418,3.257-.327-4.512.064-9.227,3.552-11.923" transform="translate(67.588 84.207)" fill="#fff"/>
        <path id="Trazado_726144" data-name="Trazado 726144" d="M37.381,67.265C28.92,74,18.652,77.03,8.442,80.22c-2.164.674-8.923,1.024-8.18,4.449,1.935,8.894,28.187-7.885,37.119-17.4" transform="translate(0.389 127.295)" fill="#4f8ee8"/>
        <path id="Trazado_726145" data-name="Trazado 726145" d="M28.667,71.706c-3.04,2.337-39.187,35.756-25.642,39.9,2.913.891,5.788-6.178,10.179-15.191C17.216,88.181,22.5,82.4,28.667,71.706" transform="translate(0 135.7)" fill="#4f8ee8"/>
        <path id="Trazado_726146" data-name="Trazado 726146" d="M19.641,80.714c-2.389,3-29.442,44.13-15.3,44.9,3.04.165,4.13-7.39,6.227-17.193,1.915-8.958,5.652-15.836,9.068-27.7" transform="translate(0.516 152.747)" fill="#4f8ee8"/>
        <path id="Trazado_726147" data-name="Trazado 726147" d="M67.568,33.066l-.269,67.62.023-.006a7.511,7.511,0,0,0,3.161,5.114V32.262Z" transform="translate(127.36 61.054)" fill="#3a85dd"/>
        <path id="Trazado_726148" data-name="Trazado 726148" d="M72.185,42.307V124.6c5.47,1.55,11.824,1.241,15.833-1.073L130.164,99.2c2.516-1.455,3.656-3.442,3.5-5.5l.014,0V25.36Z" transform="translate(136.606 47.992)" fill="#3a85dd"/>
        <path id="Trazado_726149" data-name="Trazado 726149" d="M68.4,34.236v73.532a14.937,14.937,0,0,0,1.814,1.241l4.472,2.58a20.44,20.44,0,0,0,4.663,1.923V31.219Z" transform="translate(129.443 59.08)" fill="#3a85dd"/>
        <g id="Grupo_984729" data-name="Grupo 984729" transform="translate(197.844 90.299)" opacity="0.5">
          <g id="Grupo_984728" data-name="Grupo 984728">
            <g id="Grupo_984727" data-name="Grupo 984727" clip-path="url(#clip-path-3)">
              <path id="Trazado_726150" data-name="Trazado 726150" d="M68.4,34.236v73.532a14.937,14.937,0,0,0,1.814,1.241l4.472,2.58a20.44,20.44,0,0,0,4.663,1.923V31.219Z" transform="translate(-68.401 -31.219)" fill="#6eaef9"/>
            </g>
          </g>
        </g>
        <path id="Trazado_726151" data-name="Trazado 726151" d="M139.41,52.548,97.267,76.88C93.255,79.2,86.9,79.5,81.43,77.956a20.736,20.736,0,0,1-4.66-1.923L72.3,73.449a14.4,14.4,0,0,1-1.814-1.241,7.5,7.5,0,0,1-3.161-5.114l-.017.006L67.3,69.42l.026-.006a7.5,7.5,0,0,0,3.161,5.114A14.392,14.392,0,0,0,72.3,75.766l4.472,2.583a20.6,20.6,0,0,0,4.66,1.923c5.473,1.55,11.824,1.241,15.836-1.073L139.41,54.865c2.516-1.452,3.656-3.439,3.5-5.5l.012,0v-2.32l-.012.006c.153,2.057-.986,4.047-3.5,5.5" transform="translate(127.358 89.028)" fill="#493230"/>
        <path id="Trazado_726152" data-name="Trazado 726152" d="M139.41,31.856,97.267,56.188C93.255,58.5,86.9,58.814,81.43,57.261a20.472,20.472,0,0,1-4.66-1.923L72.3,52.757a14.4,14.4,0,0,1-1.814-1.241A7.5,7.5,0,0,1,67.324,46.4l-.017.006-.009,2.32.026-.006a7.5,7.5,0,0,0,3.161,5.114A14.394,14.394,0,0,0,72.3,55.074l4.472,2.583a20.6,20.6,0,0,0,4.66,1.923c5.473,1.55,11.824,1.241,15.836-1.073L139.41,34.173c2.516-1.452,3.656-3.439,3.5-5.5l.012,0v-2.32l-.012.006c.153,2.057-.986,4.044-3.5,5.5" transform="translate(127.358 49.87)" fill="#493230"/>
        <path id="Trazado_726153" data-name="Trazado 726153" d="M139.41,38.392,97.27,62.723c-5.235,3.023-14.459,2.638-20.5-.847L72.3,59.293c-6.042-3.488-6.7-8.813-1.472-11.833L112.97,23.129c5.232-3.023,14.456-2.638,20.5.847l4.472,2.583c6.042,3.488,6.7,8.813,1.472,11.833" transform="translate(127.357 39.912)" fill="#6eaef9"/>
        <path id="Trazado_726154" data-name="Trazado 726154" d="M100.052,36.959c0,4.761-6.858,8.619-15.316,8.619S69.418,41.72,69.418,36.959s6.858-8.619,15.318-8.619,15.316,3.859,15.316,8.619" transform="translate(131.37 53.632)" fill="#8fc2ff"/>
        <path id="Trazado_726155" data-name="Trazado 726155" d="M111.646,30.507c0,4.761-6.858,8.619-15.316,8.619s-15.318-3.859-15.318-8.619,6.858-8.619,15.318-8.619,15.316,3.859,15.316,8.619" transform="translate(153.311 41.422)" fill="#8fc2ff"/>
        <path id="Trazado_726156" data-name="Trazado 726156" d="M71.107,25.817V35.3c0,3.5,5.047,6.346,11.275,6.346S93.656,38.8,93.656,35.3V25.817Z" transform="translate(134.566 48.857)" fill="#493230"/>
        <path id="Trazado_726157" data-name="Trazado 726157" d="M93.656,29.969c0,3.506-5.047,6.346-11.275,6.346s-11.275-2.84-11.275-6.346,5.047-6.346,11.275-6.346,11.275,2.84,11.275,6.346" transform="translate(134.566 44.705)" fill="#5b403e"/>
        <path id="Trazado_726158" data-name="Trazado 726158" d="M86.747,27.973c0,2.207-3.179,3.994-7.1,3.994s-7.1-1.788-7.1-3.994,3.176-3.994,7.1-3.994,7.1,1.788,7.1,3.994" transform="translate(137.299 45.379)" fill="#6b4c4b"/>
        <path id="Trazado_726159" data-name="Trazado 726159" d="M82.41,19.451v9.481c0,3.5,5.047,6.346,11.275,6.346s11.275-2.846,11.275-6.346V19.451Z" transform="translate(155.956 36.81)" fill="#493230"/>
        <path id="Trazado_726160" data-name="Trazado 726160" d="M104.959,23.6c0,3.506-5.047,6.346-11.275,6.346S82.41,27.107,82.41,23.6s5.047-6.343,11.275-6.343,11.275,2.84,11.275,6.343" transform="translate(155.956 32.66)" fill="#5b403e"/>
        <path id="Trazado_726161" data-name="Trazado 726161" d="M86.279,93.438l-8.353-4.822v-49.4l8.353,4.822Z" transform="translate(147.47 74.215)" fill="#493230"/>
        <path id="Trazado_726162" data-name="Trazado 726162" d="M80.459,38.778l-2.534,1.267,8.353,4.822L88.813,43.6Z" transform="translate(147.47 73.386)" fill="#6b4c4b"/>
        <path id="Trazado_726163" data-name="Trazado 726163" d="M78.76,37.294V98.339c0,2.632,3.795,4.773,8.475,4.773s8.472-2.14,8.472-4.773V37.294Z" transform="translate(149.049 70.577)" fill="#6b4c4b"/>
        <path id="Trazado_726164" data-name="Trazado 726164" d="M95.707,40.416c0,2.635-3.795,4.77-8.475,4.77s-8.472-2.135-8.472-4.77,3.792-4.77,8.472-4.77,8.475,2.135,8.475,4.77" transform="translate(149.049 67.458)" fill="#7c5959"/>
        <path id="Trazado_726165" data-name="Trazado 726165" d="M91.147,38.916c0,1.767-2.545,3.2-5.684,3.2s-5.684-1.432-5.684-3.2,2.545-3.2,5.684-3.2,5.684,1.432,5.684,3.2" transform="translate(150.979 67.592)" fill="#8e6868"/>
        <path id="Trazado_726166" data-name="Trazado 726166" d="M98.052,21.693c0,2.207-3.179,3.994-7.1,3.994s-7.1-1.788-7.1-3.994,3.179-3.994,7.1-3.994,7.1,1.788,7.1,3.994" transform="translate(158.687 33.494)" fill="#6b4c4b"/>
        <path id="Trazado_726167" data-name="Trazado 726167" d="M88.283,41.78l9.12-5.267a4.027,4.027,0,0,0,1.681-3.2c0-1.232-.755-1.8-1.681-1.27l-9.12,5.267a4.032,4.032,0,0,0-1.678,3.2c0,1.232.755,1.8,1.678,1.27" transform="translate(163.895 60.254)" fill="#fff"/>
        <path id="Trazado_726168" data-name="Trazado 726168" d="M88.283,56.983l9.12-5.267a4.017,4.017,0,0,0,1.681-3.2c0-1.232-.755-1.8-1.681-1.27l-9.12,5.267a4.028,4.028,0,0,0-1.678,3.2c0,1.232.755,1.8,1.678,1.267" transform="translate(163.895 89.03)" fill="#fff"/>
        <path id="Trazado_726169" data-name="Trazado 726169" d="M111.9,208.656a30.089,30.089,0,0,1-4.978-6.635c-11.338-21.066-.176-38.811,13.956-61.274,3.274-5.2,6.655-10.572,10.019-16.371,6.546-11.275,12.163-35.58,8.935-44.989-1.9-5.551-5.235-9.016-9.383-9.759-4.047-.723-8.284,1.25-11.665,5.4l1.212.992c3.017-3.694,6.719-5.455,10.178-4.845,3.561.636,6.465,3.734,8.177,8.724,3.049,8.9-2.557,32.919-8.808,43.693-3.355,5.773-6.728,11.139-9.99,16.325-14.41,22.894-25.786,40.977-14.011,62.85a31.026,31.026,0,0,0,4.159,5.892Z" transform="translate(190.48 131.489)" fill="#e52c2c"/>
        <path id="Trazado_726170" data-name="Trazado 726170" d="M147.256,31.581c-6.514-3.193-20.745-.182-26.37,21-5.548,3.925-11.512,12.86-8.828,27.82a102.123,102.123,0,0,1-7.529,17.453c.645,1.533,14.075,13.791,21.98,13.085,14.051-10.757,22.266-32.361,29.844-48.755,5.2-11.252,2.994-24.675-9.1-30.6" transform="translate(197.815 57.72)" fill="#4f8ee8"/>
        <path id="Trazado_726171" data-name="Trazado 726171" d="M128.754,30.811s7.517,1.093,7.992,5.661-3.459,8.732-5.77,8.139-2.221-13.8-2.221-13.8" transform="translate(243.659 58.308)" fill="#3a85dd"/>
        <path id="Trazado_726172" data-name="Trazado 726172" d="M123.179,125.592c.046.3.1.631.133.871,1,6.577-2,9.357-5.872,12.021s-14.086,8.108-14.775,15.752,2.858,10.962,13.074,13.641c5.571,1.464,11.882-2.091,16.817-6.242,5.342-4.495,11.1-12.073,11.116-14.847,7.966-2.9,8.128-7.436,4.975-19.541-7.532,4.645-17.667,3.656-25.468-1.654" transform="translate(194.133 237.676)" fill="#3f2a28"/>
        <path id="Trazado_726173" data-name="Trazado 726173" d="M163.046,136.294c-7.5,4.287-16.8,5.582-23.9,1.545a19.76,19.76,0,0,1-.107,3.592c-.842,5.95-6.118,16.068-10,22.737a14.247,14.247,0,0,0,4.246,18.645c4.576,3.049,17.485,4.613,21.751-3.173A44.9,44.9,0,0,0,160.7,158c3.3-3.94,3.3-3.94,4.4-6.022,3.023-5.759-1.111-11.162-2.016-15.2a3.949,3.949,0,0,1-.038-.486" transform="translate(240.757 257.929)" fill="#3f2a28"/>
        <path id="Trazado_726174" data-name="Trazado 726174" d="M107.375,172.705c-.347-7.431-.3-17.106-.02-24.563.257-6.985-3.483-63.385,22.81-79.791.437-.55,25.164,2.9,33.442,3.607a2.743,2.743,0,0,1,2.334,2.282c4.72,27.446,4.368,57.967-10.216,82.614a47.426,47.426,0,0,1-11.46,13.253c4.544,7.925,3.994,25.346,3.046,38.25-.81,11.012-3.2,22.766-5.36,27.712-5.07,11.625-19.267,11.555-26.535,5.49-3.332-2.783-8.284-10.2-2.612-23.79-5.672-13.126-5.195-40.092-5.429-45.064" transform="translate(202.741 129.24)" fill="#3a85dd"/>
        <path id="Trazado_726175" data-name="Trazado 726175" d="M128.682,112.422c-8.819-6.086-11.659-17.4-10.288-38.42,7.318-10.9,38.562-2.8,50.034-2.722,10.485,8.235,8.05,22.266,5.319,36.17,2.89,12.472,9.331,31.131,11.544,50.687.552,4.9,1.079,15.955-3.723,20.421,6.525,14.72,11.483,73.225,4.113,84.662-3,4.663-13.661,9.253-20.369,7.4-2.236-.616-11.5-1.125-14.639-11.581-1.738-5.794-1.469-21.124-2.722-38.953-.874-12.388-3.847-26.79-3.046-36.67-3.679-5.84-7.15-9.3-8.582-16.033-3.708-17.424-5.024-37.408-7.642-54.959" transform="translate(223.433 129.276)" fill="#6eaef9"/>
        <path id="Trazado_726176" data-name="Trazado 726176" d="M180.467,71.569l1.547,4.119s-6.768,8.6-22.243,10.676-29.659-.471-36.17-3.08-9.114-9.3-9.114-9.3,35.832,6.1,45.284,3.433,20.7-5.851,20.7-5.851" transform="translate(216.66 135.44)" fill="#3a85dd"/>
        <path id="Trazado_726177" data-name="Trazado 726177" d="M116.05,136c-3.769-6.4-1.336-30.391.81-40.818-4.628-17.274-6.4-29.977-2.858-43.965,2.207-8.721,10.155-18.746,20.878-19.293,5.227-.269,22.911,7.078,26.243,8.915,13.725,3.893,21.9,10.445,31.143,20.626,1.145,1.264-3.494,41.813-5.791,49.412-2.678,8.86-1.177,22.422-3.225,30.7,4.8,2.681,2.3,6.644-.078,9.218-8.6,6.118-24.233,8.388-31.461,7.451-14.893-1.929-29.387-3.338-38.817-14.867-1.663-2.036,0-6.965,3.156-7.376" transform="translate(212.197 60.396)" fill="#6eaef9"/>
        <path id="Trazado_726178" data-name="Trazado 726178" d="M122.788,33.675c3.078.622,8.264,1.6,11.333,1a26.125,26.125,0,0,0,12.035-5.831c.289,4.237,1.652,15.023,3.584,19.29,3.749,8.284-17.378,11.032-23.7,11.286-1.626-2.369-6.152-5.221-6.1-11.043,1.935-6.927,2.155-11.471,2.843-14.705" transform="translate(226.987 54.593)" fill="#ffb8a3"/>
        <path id="Trazado_726179" data-name="Trazado 726179" d="M117.885,36.152c.914-5.86,3.028-13.117,8.035-16.805,4.949-3.647,12.683-3.185,18.448-2.117,8.941,1.654,14.147,12.339,11.246,23.68-2.681,10.476-11.654,26.07-23.773,26.946-6.17.445-10.338-4.619-12.443-10.74-2.5-7.254-2.271-16.128-1.513-20.964" transform="translate(222.119 31.155)" fill="#ffc8b5"/>
        <path id="Trazado_726180" data-name="Trazado 726180" d="M128.584,22.164c-.1,0-5.42,2.56-9.724,2.247a6.767,6.767,0,0,1-6.381-5.837s7.121-2.033,11.414-1.44,4.692,5.03,4.692,5.03" transform="translate(212.86 32.22)" fill="#3a85dd"/>
        <path id="Trazado_726181" data-name="Trazado 726181" d="M164.514,40.461s.662.422-1.232,4.744a90.093,90.093,0,0,1-5.71,10.2s-2.687-1.871-2.395-8.015,2.395-9.4,2.395-9.4-6.248,1.171-13.054-4-7.694-9.019-7.694-9.019-5.273,7.581-12.4,7.194-14.381-10.777-7.237-13.123,23.417-.093,23.417-.093,24.375,13.343,23.912,21.517" transform="translate(216.207 34.008)" fill="#3f2a28"/>
        <path id="Trazado_726182" data-name="Trazado 726182" d="M158.171,51.033c-5.432-12.229-25.549-26.226-40.512-25.323.078-.133.133-.257.217-.39,7.948-12.426,16.406-15.2,33.225-7.983S163.525,39.2,162.639,40.958c-.22.44-2.022,6.988-4.469,10.074" transform="translate(222.663 25.38)" fill="#6eaef9"/>
        <path id="Trazado_726183" data-name="Trazado 726183" d="M158.79,33.331s-4.819-8.4-16.562-13.8c-14.766-6.791-29.749.014-29.749.014s10.792,1.773,15.2,6.641,6.962,8.747,15.631,8.9c10.329.176,15.48-1.75,15.48-1.75" transform="translate(212.86 31.251)" fill="#4f8ee8"/>
        <path id="Trazado_726184" data-name="Trazado 726184" d="M134.382,42.136s-2.861,5.964-4.194,19.478-2.832,31.059-1.406,41.235c.949,6.763-1.762,19.087-3.361,24.684s0,13.2,0,15.428c-3.373,0-8.287-2.519-8.287-2.519s-.642-11.657,1.617-17.765,3.352-20.771,2.687-25.213c-1.452-9.707,1.782-26.336,2.826-35.849,1.157-10.557,1.594-22.853,3.6-23.027a34.982,34.982,0,0,1,6.522,3.549" transform="translate(221.51 73.024)" fill="#4f8ee8"/>
        <path id="Trazado_726185" data-name="Trazado 726185" d="M122.083,52.006s-.856-3.971,4.735-7.1c1.958-1.1,5.461-1.527,9.033-2.427a22.239,22.239,0,0,0,13.606-9.707l.847,8.171s-.359,6.115-8.807,10.7-19.414.364-19.414.364" transform="translate(230.946 62.012)" fill="#4f8ee8"/>
        <path id="Trazado_726186" data-name="Trazado 726186" d="M122.524,34.564c.665,2.068,1.559,4.668,2.566,7.06a55.361,55.361,0,0,1,2.369,9.62s-5.328-2.664-7.546-6.809c-1.519-2.835-.289-8.151.645-11.266a11.264,11.264,0,0,0,1.967,1.394" transform="translate(225.573 62.772)" fill="#4f8ee8"/>
        <path id="Trazado_726187" data-name="Trazado 726187" d="M151.665,69.339s-6.994,4.316-13.294,5.794a24.866,24.866,0,0,1-11.448,0,76.458,76.458,0,0,0,11.448-2.568c7.61-2.166,13.294-3.225,13.294-3.225" transform="translate(240.195 131.22)" fill="#4f8ee8"/>
        <path id="Trazado_726188" data-name="Trazado 726188" d="M151.42,71.052a19.563,19.563,0,0,1-13.459,1.134,28.607,28.607,0,0,1-11.952-6.164s9.736,3.144,14.089,3.94a105.586,105.586,0,0,0,11.321,1.09" transform="translate(238.467 124.943)" fill="#4f8ee8"/>
        <path id="Trazado_726189" data-name="Trazado 726189" d="M146.849,101.628c-1,.888-1.3,5.328-4.556,9.765a25.557,25.557,0,0,1-6.068,6.216,12.564,12.564,0,0,1,4.657-9.765c4.963-3.968,5.967-6.216,5.967-6.216" transform="translate(257.792 192.325)" fill="#4f8ee8"/>
        <path id="Trazado_726190" data-name="Trazado 726190" d="M136.023,108.278s5.895,1.949,7.48,4.9,2.991,5.941,2.991,5.941-3.456.819-6.091-3.329-4.379-7.509-4.379-7.509" transform="translate(257.416 204.91)" fill="#4f8ee8"/>
        <path id="Trazado_726191" data-name="Trazado 726191" d="M134.834,102.217v83.774c0,6.034,8.689,10.925,19.408,10.925s19.411-4.891,19.411-10.925V102.217Z" transform="translate(255.166 193.44)" fill="#3f2a28"/>
        <path id="Trazado_726192" data-name="Trazado 726192" d="M154.242,118.108c-10.719,0-19.408-4.891-19.408-10.925v54.332c0,6.034,8.689,10.925,19.408,10.925s19.411-4.891,19.411-10.925V107.183c0,6.034-8.692,10.925-19.411,10.925" transform="translate(255.166 202.838)" fill="#f9423e"/>
        <path id="Trazado_726193" data-name="Trazado 726193" d="M168.534,130.162a27.884,27.884,0,0,1-14.292,3.549c-10.719,0-19.408-4.891-19.408-10.925v2.728c0,6.031,8.689,10.922,19.408,10.922a27.884,27.884,0,0,0,14.292-3.549Z" transform="translate(255.166 232.366)" fill="#fff"/>
        <path id="Trazado_726194" data-name="Trazado 726194" d="M168.534,116.94a27.884,27.884,0,0,1-14.292,3.549c-10.719,0-19.408-4.891-19.408-10.922v2.725c0,6.031,8.689,10.922,19.408,10.922a27.884,27.884,0,0,0,14.292-3.549Z" transform="translate(255.166 207.349)" fill="#fff"/>
        <path id="Trazado_726195" data-name="Trazado 726195" d="M173.653,109.365c0,6.034-8.689,10.925-19.411,10.925s-19.408-4.891-19.408-10.925,8.689-10.925,19.408-10.925,19.411,4.891,19.411,10.925" transform="translate(255.166 186.292)" fill="#493230"/>
        <path id="Trazado_726196" data-name="Trazado 726196" d="M136.932,98.44v8.744c0,4.159,5.993,7.532,13.386,7.532s13.383-3.373,13.383-7.532V98.44Z" transform="translate(259.136 186.292)" fill="#3f2a28"/>
        <path id="Trazado_726197" data-name="Trazado 726197" d="M163.7,103.368c0,4.159-5.993,7.535-13.383,7.535s-13.386-3.375-13.386-7.535,5.993-7.532,13.386-7.532,13.383,3.373,13.383,7.532" transform="translate(259.136 181.364)" fill="#493230"/>
        <path id="Trazado_726198" data-name="Trazado 726198" d="M140.486,93.834v12.912c0,.931,1.339,1.683,2.991,1.683s2.994-.752,2.994-1.683V97.519Z" transform="translate(265.862 177.576)" fill="#f9423e"/>
        <path id="Trazado_726199" data-name="Trazado 726199" d="M158.378,118.154a8.852,8.852,0,0,1-4.405-1.3l-8.157-4.709c-5.224-3.014-9.317-10.737-9.317-17.58,0-4.009,1.466-7.156,4.015-8.628,2.242-1.3,4.981-1.154,7.694.419l8.157,4.709c5.221,3.014,9.311,10.737,9.311,17.58,0,4.012-1.461,7.153-4.012,8.625a6.477,6.477,0,0,1-3.286.879m-2.013-5.438c.683.393,1.961.966,2.907.417,1-.576,1.62-2.294,1.62-4.483,0-5.117-3.167-11.272-6.919-13.438L145.817,90.5c-.677-.39-1.964-.966-2.91-.417-1,.578-1.62,2.3-1.62,4.483,0,5.117,3.167,11.272,6.922,13.435Z" transform="translate(258.319 160.975)" fill="#f9423e"/>
        <path id="Trazado_726200" data-name="Trazado 726200" d="M151.756,132.04a6.2,6.2,0,0,1-1.516-1.741c.1-.362-.026-.726-.292-.772a4.3,4.3,0,0,0-.807.04c-.012-.081-.023-.153-.038-.234a20.344,20.344,0,0,0-.544-2.279,1.087,1.087,0,0,0,.419-.217,12.754,12.754,0,0,0,1.628,2.048c1.038,1.009,2.34,1.061,2.372.541.029-.44-1.212-.659-2.178-1.319a6.252,6.252,0,0,1-1.516-1.744c.1-.362-.023-.726-.292-.772a4.761,4.761,0,0,0-.9.055c-.307-.839-.55-1.362-.567-1.4l.009-.006a6.865,6.865,0,0,0-.205-.908,6.263,6.263,0,0,0-.518-1.252,3.256,3.256,0,0,1,.772-.547,3.708,3.708,0,0,0,1.883-1.753,8.518,8.518,0,0,0,.564-2.406c.017-.755-.443-.781-.443-.078a4.839,4.839,0,0,1-.957,2.748,5.172,5.172,0,0,1-2.453,1.192,2.34,2.34,0,0,0-1.255-.668,1.94,1.94,0,0,0-.822.012,1.5,1.5,0,0,0-.39.153,8.392,8.392,0,0,1-2.271-1.955,6.6,6.6,0,0,1-.957-3.086c0-.7-.46-.842-.443-.081a10.749,10.749,0,0,0,.567,2.609,6.1,6.1,0,0,0,1.883,2.412,5.524,5.524,0,0,1,.625.642,4.323,4.323,0,0,0-.625,2.074,13.418,13.418,0,0,0-.581,1.241,6.008,6.008,0,0,0-1-.414c-.269-.052-.393.269-.292.665a3.716,3.716,0,0,1-1.516,1.209c-.966.324-2.207.1-2.178.55.032.535,1.333.94,2.372.3a7.6,7.6,0,0,0,1.628-1.472,1.858,1.858,0,0,0,.515.422,16.032,16.032,0,0,0-.529,2.048c-.017.087-.029.168-.043.252a5.373,5.373,0,0,0-.911-.37c-.266-.055-.39.266-.292.665a3.74,3.74,0,0,1-1.516,1.209c-.963.321-2.2.1-2.178.552.032.532,1.336.934,2.375.292a7.815,7.815,0,0,0,1.628-1.469,1.8,1.8,0,0,0,.512.422,1.485,1.485,0,0,0,.174.081c-.075.625-.124,1.226-.15,1.8l0-.009,0,.035v.014a5.508,5.508,0,0,0-.96-.029c-.252.055-.246.419-.02.775a4.071,4.071,0,0,1-.9,1.785c-.729.686-1.886.943-1.707,1.38.217.518,1.493.425,2.172-.613a8.6,8.6,0,0,0,.9-2.085,1.612,1.612,0,0,0,.495.2c.014.778.064,1.51.142,2.184h0a4.531,4.531,0,0,0,.136.995c.11.7.237,1.328.364,1.9a8.112,8.112,0,0,0,.978,2.276,5,5,0,0,0,2.809,2.421v0l.029.009.055.009.052.009.029,0v0c2.051.252,3.5-2.138,3.789-3.364.136-.573.275-1.223.391-1.955a4.21,4.21,0,0,0,.121-.874v.006c.069-.622.116-1.3.127-2.036a1.242,1.242,0,0,0,.385-.038,12.242,12.242,0,0,0,.9,2.407c.68,1.276,1.955,1.822,2.172,1.38.179-.373-.978-1.038-1.7-1.981a5.989,5.989,0,0,1-.9-2.106c.226-.275.231-.636-.02-.778a5.1,5.1,0,0,0-.842-.281l0-.058-.012.029c-.026-.6-.078-1.238-.156-1.906a.314.314,0,0,0,.069-.012,1.1,1.1,0,0,0,.512-.24,13.083,13.083,0,0,0,1.628,2.048c1.038,1.007,2.343,1.061,2.375.541.029-.44-1.215-.659-2.178-1.322" transform="translate(257.325 217.809)" fill="#3f2a28"/>
        <path id="Trazado_726201" data-name="Trazado 726201" d="M158.735,124.631a14.573,14.573,0,0,0-2.088-2.866c-.4-.437-1.837-1.727-1.95-1.819-3.656-2.991-8.643-4.822-13.282-3.911-6.314,1.238-7.575,7.465-5.574,14.569,2.054,7.292,9.805,14.26,18.289,11.275,7.35-2.589,7.789-11.428,4.6-17.248m-21.054-4.885c1.837-2.69,6.436-3.083,8.614-2.54a16.567,16.567,0,0,1,7.509,3.743c-5.238,3.711-10.184,8.157-15.055,12.3-2.054-3.853-3.381-10.112-1.067-13.5m17.574,19.92c-5.718,3.65-12.556-.417-15.784-5.18l-.014-.029c5.177-3.864,10.711-8.044,15.191-12.692a18.458,18.458,0,0,1,1.675,1.978c3.24,4.53,4.486,12.38-1.067,15.923" transform="translate(255.417 219.145)" fill="#fff"/>
        <path id="Trazado_726202" data-name="Trazado 726202" d="M148.326,124.806c-.046-.159-.315-.182-.344,0-.107.648-.081,1.313-.145,1.97-.081.824-.263,1.623-.425,2.435a.357.357,0,0,0,.688.188,9.143,9.143,0,0,0,.226-4.593" transform="translate(278.952 235.946)" fill="#e52c2c"/>
        <path id="Trazado_726203" data-name="Trazado 726203" d="M147.594,126.084a.174.174,0,0,0-.341.046,10.822,10.822,0,0,1-.176,2.54,4.978,4.978,0,0,0-.422,1.86.271.271,0,0,0,.4.162c.622-.393.706-1.232.8-1.918a5.514,5.514,0,0,0-.252-2.69" transform="translate(277.5 238.376)" fill="#e52c2c"/>
        <path id="Trazado_726204" data-name="Trazado 726204" d="M148.141,127.5c-.495.281-.908.654-1.432.894a5.684,5.684,0,0,1-1.756.471c-.15.014-.263.249-.087.324a2.655,2.655,0,0,0,2.152.093,2.45,2.45,0,0,0,1.556-1.446.3.3,0,0,0-.434-.336" transform="translate(273.982 241.217)" fill="#e52c2c"/>
        <path id="Trazado_726205" data-name="Trazado 726205" d="M149.6,110.072a11.967,11.967,0,0,0-1.7,1.047,16.3,16.3,0,0,1-2.152.937.21.21,0,0,0,.055.411c1.391.119,3.578-.668,4.073-2.117a.227.227,0,0,0-.278-.278" transform="translate(275.549 208.285)" fill="#e52c2c"/>
        <path id="Trazado_726206" data-name="Trazado 726206" d="M148.829,110.174c-.049-.116-.246-.081-.272.035a11.849,11.849,0,0,1-.518,2.169c-.266.654-.816,1.18-1.009,1.84-.069.234.179.541.434.434,1.449-.6,1.929-3.156,1.365-4.478" transform="translate(278.223 208.362)" fill="#e52c2c"/>
        <path id="Trazado_726207" data-name="Trazado 726207" d="M147.917,117.146a3.625,3.625,0,0,0-.827-2,.106.106,0,0,0-.179.072,8.7,8.7,0,0,0,.237,2.085,15.788,15.788,0,0,0,.15,2.135.335.335,0,0,0,.639,0,4.622,4.622,0,0,0-.02-2.291" transform="translate(277.984 217.845)" fill="#e52c2c"/>
        <path id="Trazado_726208" data-name="Trazado 726208" d="M148.476,120.673a.083.083,0,0,0-.1.012c-.4.318-.318,1.151-.469,1.628-.214.688-.659,1.241-.911,1.9-.1.269.246.506.474.364a3.221,3.221,0,0,0,1.206-2.057c.107-.492.33-1.553-.205-1.851" transform="translate(278.157 228.347)" fill="#e52c2c"/>
        <path id="Trazado_726209" data-name="Trazado 726209" d="M139.911,129.386c-.746-.477-1.652-.622-2.412-1.082a4.508,4.508,0,0,1-1.576-1.819.123.123,0,0,0-.223.029c-.393,2,2.412,3.462,4.052,3.456a.316.316,0,0,0,.159-.584" transform="translate(256.733 239.256)" fill="#e52c2c"/>
        <path id="Trazado_726210" data-name="Trazado 726210" d="M138.689,112.351a3.275,3.275,0,0,1-2.01-1.088c-.451-.573-.755-1.232-1.238-1.785a.1.1,0,0,0-.176.072c.049,1.55,1.594,4.151,3.491,3.3a.277.277,0,0,0-.066-.5" transform="translate(255.98 207.123)" fill="#e52c2c"/>
        <path id="Trazado_726211" data-name="Trazado 726211" d="M140.433,112.988a11.2,11.2,0,0,1-1.88-.963c-.483-.408-.784-1.021-1.278-1.4a.154.154,0,0,0-.226.093c-.148.749.518,1.556,1.053,2a2.826,2.826,0,0,0,2.259.821.309.309,0,0,0,.072-.558" transform="translate(259.317 209.314)" fill="#e52c2c"/>
        <path id="Trazado_726212" data-name="Trazado 726212" d="M164.39,94.719c-.026-.1-.191-.081-.179.023a11.761,11.761,0,0,1-1.793,7.937c-1.44,2.1-3.914,3.937-6.6,3.234a24.62,24.62,0,0,1-4.6-2.216,41.086,41.086,0,0,1-8.145-5.25,27.628,27.628,0,0,1-5.452-7.026.27.27,0,0,0-.492.208c2.288,7.162,11.515,12.481,18.107,14.864,6.459,2.334,10.6-6.664,9.155-11.775" transform="translate(259.483 172.771)" fill="#e52c2c"/>
        <path id="Trazado_726213" data-name="Trazado 726213" d="M146.012,89.169c-1.539-1.336-5.151-3.844-6.9-1.568-1.851,2.412-1.053,6.6.217,9.042.041.081.148.02.136-.058-.4-2.7-1.368-5.079-.205-7.792,1.377-3.208,4.57-.353,6.725.419a.026.026,0,0,0,.026-.043" transform="translate(261.198 164.042)" fill="#e52c2c"/>
        <path id="Trazado_726214" data-name="Trazado 726214" d="M143.668,84.121s-1.316,6.47-3.04,9.933c-1.915,3.847-4.269,7.8-2.346,11.075,3.653,6.219,5.559,4.865,9.013,6.569,7.83,3.864,11.625-.526,11.625-.526s4.339-8.009,4.356-11.04c.02-4.1-2.5-9.288-6.112-13.08a11.665,11.665,0,0,0-13.5-2.93" transform="translate(260.337 157.274)" fill="#fff"/>
        <path id="Trazado_726215" data-name="Trazado 726215" d="M158.12,127.669c-3.173,8.9-4.689,36.436-4.689,45.929,0,4.318,13.372,9.412,20.14,4.969,9.053-23.006,6.41-32.615,4.819-50.372,2.863-10.372,1.689-22.616-2.112-29.9.269-14.786-2.265-32.7-9.409-45.406-2.777-4.935-14.546-16.438-22.1-14.057-23.5,7.4-12.683,56.75,6.765,63.7-.873,9.5-.873,19.1,6.583,25.13" transform="translate(248.664 72.89)" fill="#4f8ee8"/>
        <path id="Trazado_726216" data-name="Trazado 726216" d="M153.763,72.126c-1.009-1.438-2.7-1.99-3.775-1.235L83.219,131.479l3.653,5.2,66.769-60.588c1.076-.755,1.128-2.531.121-3.968" transform="translate(157.487 133.518)" fill="#3f2a28"/>
        <path id="Trazado_726217" data-name="Trazado 726217" d="M87.545,93.073c1.009,1.438.954,3.214-.121,3.968s-2.765.2-3.775-1.235-.952-3.214.121-3.968,2.765-.2,3.775,1.235" transform="translate(156.936 173.159)" fill="#5b403e"/>
        <path id="Trazado_726218" data-name="Trazado 726218" d="M85.616,92.889a1.24,1.24,0,1,1-1.886-.616,1.434,1.434,0,0,1,1.886.616" transform="translate(157.653 174.3)" fill="#fff"/>
        <path id="Trazado_726219" data-name="Trazado 726219" d="M121.875,76.407s-5.814-4.078-9.736-5.163a16.549,16.549,0,0,0-7.841,0s-8.029,11.049-8.524,15.278,5.177,7.332,5.177,7.332l8.162-7.332s.9,5.927-1.224,8.741a2.259,2.259,0,0,0,1.062,3.59c1.354.283,4.356-2.464,6.58-5,4.449-5.068,6.343-17.447,6.343-17.447" transform="translate(181.187 133.915)" fill="#fff"/>
        <path id="Trazado_726220" data-name="Trazado 726220" d="M123.37,51.1a20.137,20.137,0,0,0-7.529,7.772c-3.138,5.562-11.766,21.988-14.118,31.964s-3.26,12.449-3.164,18.205c3.558-1.067,11,.486,17.537,7.049,7.121-4.712,14.509-15.972,18.107-26.952s6.719-19.813,6.719-19.813Z" transform="translate(186.504 96.704)" fill="#4f8ee8"/>
        <path id="Trazado_726221" data-name="Trazado 726221" d="M112.563,92.162c-1.264,1.114-30.932,27.177-35.606,31.658-4.932,4.723-8.486,23.478-8.88,25.6-.087.414.524.894,1.362,1.07s1.591-.014,1.678-.431c1.012-5.487,4.451-20.562,8.009-23.973,4.628-4.434,35.106-31.207,35.415-31.478Z" transform="translate(128.817 174.411)" fill="#fff"/>
        <path id="Trazado_726222" data-name="Trazado 726222" d="M201.472,104.954c-6.748-.848-20.175,10.028-24.742,28.331-4.2,16.828-16.594,28.115-33.156,30.188-15.376,1.938-30.1-4.949-36.653-17.106-8.92-16.574-3.89-31.1,5.533-47.479h-1.811c-9.389,16.478-14.263,31.209-5.1,48.226,6.086,11.307,18.891,18.251,32.907,18.248a42.348,42.348,0,0,0,5.316-.333c17.233-2.161,30.125-13.884,34.484-31.366,4.217-16.875,16.689-27.921,23.033-27.154,2.811.347,3.4,3.075,3.4,5.3a.828.828,0,0,0,.772.535c.8,0,.8-.535.8-.535,0-3.986-1.741-6.485-4.778-6.858" transform="translate(190.483 187.142)" fill="#e52c2c"/>
      </g>
    </g>
  </g>
</svg>
