<svg xmlns="http://www.w3.org/2000/svg" xmlns:xlink="http://www.w3.org/1999/xlink" width="239" height="221" viewBox="0 0 239 221">
  <defs>
    <clipPath id="clip-path">
      <rect id="Rect치ngulo_349644" data-name="Rect치ngulo 349644" width="239" height="221" transform="translate(-5299 -9672)" fill="#fff" stroke="#707070" stroke-width="1"/>
    </clipPath>
    <clipPath id="clip-path-2">
      <rect id="Rect치ngulo_349643" data-name="Rect치ngulo 349643" width="182.333" height="254.137" fill="none"/>
    </clipPath>
  </defs>
  <g id="Enmascarar_grupo_981478" data-name="Enmascarar grupo 981478" transform="translate(5299 9672)" clip-path="url(#clip-path)">
    <g id="Grupo_997215" data-name="Grupo 997215" transform="translate(-5269.426 -9650.002)">
      <g id="Grupo_997214" data-name="Grupo 997214" transform="translate(0 0.002)" clip-path="url(#clip-path-2)">
        <path id="Trazado_730961" data-name="Trazado 730961" d="M4.105,271.133c-5.36-26.95-4.071-41.3-3.7-46.882a10.9,10.9,0,0,1,1.88-5.431C4.7,215.3,6.258,214.3,6.258,214.3c1.839-5.518,4.292-5.518,4.292-5.518.2-4.905,3.474-3.27,3.474-3.27l1.635,1.431c4.088-4.7,6.744-5.723,6.744-5.723,4.905-1.022,2.657,2.861,2.657,2.861l-5.621,7.051c.817,5.11.306,6.234.306,6.234-.613,1.839-1.839,1.431-1.839,1.431a9.261,9.261,0,0,0,1.395,4.069,2.059,2.059,0,0,0,3.429,0c.363-.547.8-1.109.8-1.109,2.044-3.27,4.823-4.12,7.112-5.079a2.455,2.455,0,0,1,3.042.975,1.292,1.292,0,0,1-.261,1.659,51.268,51.268,0,0,1-4.273,3.364,17.643,17.643,0,0,0-4.905,7.358c-4.088,7.154-9.2,8.789-9.2,8.789a102.735,102.735,0,0,0,8.136,25.175Z" transform="translate(0 -153.948)" fill="#fcaa97"/>
        <path id="Trazado_730962" data-name="Trazado 730962" d="M98.874,215.148c1.569,4.276.472,8.612-2.45,9.685s-6.564-1.525-8.133-5.8-.472-8.612,2.45-9.685,6.564,1.525,8.133,5.8" transform="translate(-67.057 -160.113)" fill="#f08f4a"/>
        <path id="Trazado_730963" data-name="Trazado 730963" d="M337.109,236.662a40.733,40.733,0,0,1-.935,10.247,3.281,3.281,0,0,1-2.294,2.415L319.5,253.433l28.93,37.944,23.479-39.411-7.666-2.447a3.484,3.484,0,0,1-2.411-3.036c-.4-4.924-.4-9.611-.4-9.611Z" transform="translate(-244.643 -181.214)" fill="#fcaa97"/>
        <path id="Trazado_730964" data-name="Trazado 730964" d="M427.48,257.023a3.482,3.482,0,0,1-2.275-2.986c-.237-2.882-.335-5.682-.376-7.51l-22.564,2.825c8.595,13.207,24.238,8.094,25.215,7.672" transform="translate(-308.016 -188.767)" fill="#c77f6d"/>
        <path id="Trazado_730965" data-name="Trazado 730965" d="M127.132,289.005C120,310.6,111.409,319.4,111.409,319.4,98.621,299.7,96.735,289.215,96.735,289.215c-13.224,3.456-25.024,7.8-30.172,10.454a15.157,15.157,0,0,0-5.178,4.384C46.634,323.74,35.312,341.2,35.312,341.2l-3.564-12.159c-10.063,1.677-21.383,8.8-21.383,8.8,3.564,11.949,9.224,25.366,9.224,25.366,7.547,27.043,44.862-6.918,44.862-6.918L62.564,475.161h98.109l2.935-120.33c16.351-1.048,24.318,14.674,24.318,14.674,10.691-15.3-18.658-57.23-18.658-57.23-15.723-17.819-42.137-23.269-42.137-23.269" transform="translate(-7.937 -221.293)" fill="#73c0e6"/>
        <path id="Trazado_730966" data-name="Trazado 730966" d="M424.328,574.042h0a.223.223,0,0,1-.221-.225l1.368-151.673,2.547-4.245a.223.223,0,0,1,.383.23l-2.484,4.141L424.551,573.82a.223.223,0,0,1-.223.221" transform="translate(-324.739 -319.904)" fill="#382118"/>
        <path id="Trazado_730967" data-name="Trazado 730967" d="M111.638,520.4h-.008a.223.223,0,0,1-.215-.231,100.568,100.568,0,0,1,1.051-10.93.223.223,0,1,1,.44.073,100.044,100.044,0,0,0-1.045,10.872.223.223,0,0,1-.223.215" transform="translate(-85.311 -389.786)" fill="#382118"/>
        <path id="Trazado_730968" data-name="Trazado 730968" d="M100.006,527.059a.223.223,0,0,1-.215-.282,29.412,29.412,0,0,1,2.115-5.078.223.223,0,0,1,.393.212,28.92,28.92,0,0,0-2.078,4.984.223.223,0,0,1-.215.164" transform="translate(-76.404 -399.378)" fill="#382118"/>
        <path id="Trazado_730969" data-name="Trazado 730969" d="M253.908,856.183H234.452a.223.223,0,1,1,0-.446h19.007l-.207-40.44-18.013-.6a.223.223,0,1,1,.015-.446l18.442.616Z" transform="translate(-179.35 -623.475)" fill="#382118"/>
        <path id="Trazado_730970" data-name="Trazado 730970" d="M591.895,856.183H572.439l.212-41.318,18.442-.616a.223.223,0,0,1,.015.446l-18.013.6-.207,40.44h19.007a.223.223,0,0,1,0,.446" transform="translate(-438.319 -623.475)" fill="#382118"/>
        <path id="Trazado_730971" data-name="Trazado 730971" d="M442.9,442.35a2.133,2.133,0,1,1-2.133-2.133,2.133,2.133,0,0,1,2.133,2.133" transform="translate(-335.868 -337.077)" fill="#4d99bf"/>
        <path id="Trazado_730972" data-name="Trazado 730972" d="M440.529,593.184a2.133,2.133,0,1,1-2.133-2.133,2.133,2.133,0,0,1,2.133,2.133" transform="translate(-334.049 -452.571)" fill="#4d99bf"/>
        <path id="Trazado_730973" data-name="Trazado 730973" d="M440.529,754.1a2.133,2.133,0,1,1-2.133-2.133,2.133,2.133,0,0,1,2.133,2.133" transform="translate(-334.049 -575.786)" fill="#4d99bf"/>
        <path id="Trazado_730974" data-name="Trazado 730974" d="M440.529,898.4a2.133,2.133,0,1,1-2.133-2.133,2.133,2.133,0,0,1,2.133,2.133" transform="translate(-334.049 -686.273)" fill="#4d99bf"/>
        <path id="Trazado_730975" data-name="Trazado 730975" d="M716.971,556.077a.223.223,0,0,1-.135-.045c-.035-.027-3.544-2.618-9.217-.389a.223.223,0,1,1-.163-.415c5.919-2.325,9.5.335,9.651.45a.223.223,0,0,1-.136.4" transform="translate(-541.594 -424.413)" fill="#382118"/>
        <path id="Trazado_730976" data-name="Trazado 730976" d="M720.888,566.386a.222.222,0,0,1-.165-.073c-.02-.022-2.059-2.233-4.237-2.233a.223.223,0,0,1,0-.446c2.377,0,4.479,2.282,4.567,2.379a.223.223,0,0,1-.165.373" transform="translate(-548.446 -431.578)" fill="#382118"/>
        <path id="Trazado_730977" data-name="Trazado 730977" d="M240.481,519.534h-.006a.223.223,0,0,1-.217-.229l.419-17.19a.223.223,0,0,1,.446.011l-.419,17.19a.223.223,0,0,1-.223.218" transform="translate(-183.966 -384.306)" fill="#382118"/>
        <path id="Trazado_730978" data-name="Trazado 730978" d="M34.014,321.033H34a.167.167,0,0,1-.152-.181c.006-.071.691-7.089,6.473-8.121a.167.167,0,1,1,.059.329c-5.533.988-6.193,7.753-6.2,7.821a.167.167,0,0,1-.166.152" transform="translate(-25.916 -239.458)" fill="#382118"/>
        <path id="Trazado_730979" data-name="Trazado 730979" d="M69.967,230.122a.167.167,0,0,1-.15-.092,15.4,15.4,0,0,0-3.637-4.239.167.167,0,1,1,.216-.256,15.414,15.414,0,0,1,3.72,4.345.167.167,0,0,1-.075.224.164.164,0,0,1-.075.018" transform="translate(-50.629 -172.663)" fill="#382118"/>
        <path id="Trazado_730980" data-name="Trazado 730980" d="M39.009,250.107a2.05,2.05,0,0,1-.778-.154l-.035-.015a2.141,2.141,0,0,1-1.31-2.188c.1-1.058.277-2.036.328-2.3l-1.592-2.19a.167.167,0,1,1,.271-.2l1.678,2.307-.015.072c0,.011-.223,1.123-.337,2.342a1.807,1.807,0,0,0,1.105,1.847l.034.014a1.706,1.706,0,0,0,1.99-.523,8.689,8.689,0,0,0,.982-1.54l.046-.092h.547a1.435,1.435,0,0,0,1.33-.888,16.956,16.956,0,0,0,.946-3.4,2.95,2.95,0,0,0-.288-1.9l-3.193-6.03c-.011-.019-1.187-2.13-2.882-1.754a.167.167,0,1,1-.072-.327c1.94-.432,3.2,1.826,3.249,1.923l3.193,6.032a3.287,3.287,0,0,1,.322,2.121,17.258,17.258,0,0,1-.966,3.466,1.768,1.768,0,0,1-1.639,1.1h-.341a8.994,8.994,0,0,1-.973,1.507,2.046,2.046,0,0,1-1.6.778" transform="translate(-27.252 -178.509)" fill="#382118"/>
        <path id="Trazado_730981" data-name="Trazado 730981" d="M34.132,262.112a.167.167,0,0,1-.155-.229,17.5,17.5,0,0,0,.665-2.06,2.364,2.364,0,0,0-.158-1.554,29.314,29.314,0,0,0-3.218-5.446,1.866,1.866,0,0,0-1.85-.652,17.82,17.82,0,0,0-3.188,1.138.167.167,0,0,1-.136-.306,18.167,18.167,0,0,1,3.251-1.159,2.2,2.2,0,0,1,2.181.766,29.649,29.649,0,0,1,3.262,5.516,2.7,2.7,0,0,1,.181,1.774,17.5,17.5,0,0,1-.68,2.107.168.168,0,0,1-.155.105" transform="translate(-19.904 -192.799)" fill="#382118"/>
        <path id="Trazado_730982" data-name="Trazado 730982" d="M42.736,284.48a.167.167,0,0,1-.018-.334l1.839-.2a.167.167,0,1,1,.037.333l-1.839.2h-.019" transform="translate(-32.595 -217.416)" fill="#382118"/>
        <path id="Trazado_730983" data-name="Trazado 730983" d="M51.46,362.935a.167.167,0,0,1-.036-.331,12.021,12.021,0,0,0,2.812-1,.167.167,0,0,1,.172.287,12.107,12.107,0,0,1-2.911,1.042.161.161,0,0,1-.036,0" transform="translate(-39.275 -276.863)" fill="#382118"/>
        <path id="Trazado_730984" data-name="Trazado 730984" d="M550.865,282.8a4.206,4.206,0,0,1,2.023-1.749,3.079,3.079,0,0,1,2.577.889,9.212,9.212,0,0,0,2.25,1.694,14.2,14.2,0,0,0,3.367.4,5.868,5.868,0,0,1,4.035,2.709,7.005,7.005,0,0,1,.9,4.824,3.125,3.125,0,0,1-.574,1.474,1.451,1.451,0,0,1-1.409.56,2.84,2.84,0,0,1-.831-.446,5.249,5.249,0,0,0-2.342-.813.916.916,0,0,1-.54-.159.888.888,0,0,1-.212-.406,8.882,8.882,0,0,0-5.055-5.237,12.8,12.8,0,0,0-7.746-.526,17.82,17.82,0,0,0,3.558-3.218" transform="translate(-419.076 -215.164)" fill="#e34927"/>
        <path id="Trazado_730985" data-name="Trazado 730985" d="M516.843,698.232a30.4,30.4,0,0,0-9.157,3.541.035.035,0,0,0-.015.038c.916,3.713-.7,7.993-1.083,8.914a.035.035,0,0,1-.068-.018,22.453,22.453,0,0,0-.52-6.569.036.036,0,0,0-.055-.018,10.975,10.975,0,0,0-3.312,3.115l0,0a33.859,33.859,0,0,1-6.469,5.259.036.036,0,0,1-.05-.048c1.6-2.555,5.442-7.331,6.027-8.055a.036.036,0,0,0-.039-.057,66.007,66.007,0,0,0-9.086,4.079.036.036,0,0,1-.038-.06c4.927-3.974,8.246-6.526,8.668-6.85a.037.037,0,0,0-.008-.061,9.327,9.327,0,0,0-3.929-1.651,10.274,10.274,0,0,1,3.67-.1,31.373,31.373,0,0,0,5.864.21l.011,0c3.787-1.794,7.95-3.965,8.349-4.174a.035.035,0,0,1,.047.016l1.221,2.442a.035.035,0,0,1-.025.051" transform="translate(-377.464 -532.716)" fill="#ffe09c"/>
        <path id="Trazado_730986" data-name="Trazado 730986" d="M492.236,747.123h0a.181.181,0,0,0-.27-.055c-.464.364-.6.4-1.122.82a3.5,3.5,0,0,0,1.316-.517.182.182,0,0,0,.075-.249" transform="translate(-375.842 -572.005)" fill="#d67623"/>
        <path id="Trazado_730987" data-name="Trazado 730987" d="M506.864,762.149c-.309.447-.585.863-.809,1.228,0,0,.495-.311,1.232-.817a.216.216,0,0,0,.022-.339l-.124-.11a.216.216,0,0,0-.32.039" transform="translate(-387.489 -583.51)" fill="#d67623"/>
        <path id="Trazado_730988" data-name="Trazado 730988" d="M550.826,755.312c-.005.347-.016.709-.034,1.086,0,0,.17-.381.393-1.019a.186.186,0,0,0-.156-.246.183.183,0,0,0-.2.18" transform="translate(-421.744 -578.208)" fill="#d67623"/>
        <path id="Trazado_730989" data-name="Trazado 730989" d="M514.261,712.651a.139.139,0,0,0-.154-.139c-.284.033-.583.078-.894.141a6.259,6.259,0,0,1,.871.188.14.14,0,0,0,.177-.134Z" transform="translate(-392.97 -545.574)" fill="#d67623"/>
        <path id="Trazado_730990" data-name="Trazado 730990" d="M452.347,696.253a40.961,40.961,0,0,0-8.368,5.666.035.035,0,0,0,0,.041c1.868,3.338,1.439,7.893,1.319,8.882a.036.036,0,0,1-.07,0,22.472,22.472,0,0,0-2.242-6.2.036.036,0,0,0-.058,0,10.983,10.983,0,0,0-2.368,3.882l0,0a33.853,33.853,0,0,1-4.844,6.785.036.036,0,0,1-.061-.033c.869-2.888,3.3-8.511,3.676-9.364a.036.036,0,0,0-.052-.044,66.026,66.026,0,0,0-7.68,6.341.036.036,0,0,1-.052-.048c3.7-5.138,6.221-8.478,6.542-8.9.016-.021,0-.047-.024-.056a9.329,9.329,0,0,0-4.227-.551,10.28,10.28,0,0,1,3.511-1.074,31.365,31.365,0,0,0,5.71-1.352.029.029,0,0,0,.009-.006c3.176-2.734,6.615-5.931,6.944-6.237.015-.014,2.747-2.362,2.76-2.347l2.1,2.515c.016.018-2.495,2.086-2.516,2.1" transform="translate(-330.427 -529.593)" fill="#ffe09c"/>
        <path id="Trazado_730991" data-name="Trazado 730991" d="M430.877,775.917h0a.181.181,0,0,0-.275.019c-.35.473-.471.541-.864,1.088,0,0,.276-.057,1.132-.847a.181.181,0,0,0,.007-.26" transform="translate(-329.052 -594.082)" fill="#d67623"/>
        <path id="Trazado_730992" data-name="Trazado 730992" d="M449.366,786.739c-.179.512-.335.987-.455,1.4,0,0,.395-.431.971-1.114a.216.216,0,0,0-.068-.333l-.149-.073a.216.216,0,0,0-.3.122" transform="translate(-343.733 -602.299)" fill="#d67623"/>
        <path id="Trazado_730993" data-name="Trazado 730993" d="M489.041,769.163q.131.5.255,1.056s.063-.412.108-1.087a.186.186,0,0,0-.216-.2.183.183,0,0,0-.148.227" transform="translate(-374.457 -588.777)" fill="#d67623"/>
        <path id="Trazado_730994" data-name="Trazado 730994" d="M442.357,737.127a.139.139,0,0,0-.186-.094c-.265.107-.541.23-.824.373a6.285,6.285,0,0,1,.89-.05.14.14,0,0,0,.135-.176Z" transform="translate(-337.941 -564.343)" fill="#d67623"/>
        <path id="Trazado_730995" data-name="Trazado 730995" d="M480.754,300.15c15.723-4.193,15.3,8.8,15.3,8.8.839,23.9,13,35.848,13,35.848A46.153,46.153,0,0,1,519.536,377.3c11.32,10.691,4.822,11.949,4.822,11.949,3.145,7.547-5.241,2.516-5.241,2.516,0,8.385-14.675-5.031-14.675-5.031-6.079,14.884-13,8.385-13,8.385l-1.467-2.1a78.059,78.059,0,0,0,2.1-7.966c-10.691,13.836-15.094,9.014-15.094,9.014l-1.467-2.306a4.658,4.658,0,0,1,.629-5.241c3.564-6.5-.209-16.352-.209-16.352-33.542-27.043,2.516-51.989,2.516-51.989,8.595-6.708,1.887-14.884,1.887-14.884Z" transform="translate(-353.488 -229.189)" fill="#f08f4a"/>
        <path id="Trazado_730996" data-name="Trazado 730996" d="M557.489,307.387c5.9,5.328,7.737-4.821.1-.817a.5.5,0,0,0-.1.817" transform="translate(-426.745 -234.007)" fill="#e34927"/>
        <path id="Trazado_730997" data-name="Trazado 730997" d="M565.688,308.964a.314.314,0,1,1-.244-.121l.027,0a1.981,1.981,0,0,0-.79-.156c-.753,0-1.363.375-1.363.839s.61.839,1.363.839,1.363-.375,1.363-.839a.7.7,0,0,0-.356-.564" transform="translate(-431.336 -236.365)" fill="#382118"/>
        <path id="Trazado_730998" data-name="Trazado 730998" d="M528.667,317.166a5.718,5.718,0,0,1-.549,4.617c-4.612,4.4-2.3,7.075-.419,6.918a5.01,5.01,0,0,0,3.722-2.479c1.729-4.229-1.589-8.791-1.589-8.791Z" transform="translate(-402.32 -242.856)" fill="#e34927"/>
        <path id="Trazado_730999" data-name="Trazado 730999" d="M522.932,302.792c-3.443-.431-6.588,2.713-6.588,2.713,4.4,0,6.165.835,6.165.835.544-.206,2.431,1.052,2.431,1.052a8.119,8.119,0,0,0-1.467-3.145,1.928,1.928,0,0,1-.54-1.455" transform="translate(-395.367 -231.819)" fill="#ffe09c"/>
        <path id="Trazado_731000" data-name="Trazado 731000" d="M540,305.32c0,.116-.188.21-.419.21s-.42-.094-.42-.21.188-.21.42-.21.419.094.419.21" transform="translate(-412.837 -233.625)" fill="#382118"/>
        <path id="Trazado_731001" data-name="Trazado 731001" d="M677.659,666.414a.222.222,0,0,1-.2-.135c-1.836-4.284-8.438-8.242-8.5-8.281a.223.223,0,0,1,.228-.384c.276.164,6.792,4.071,8.686,8.49a.223.223,0,0,1-.117.293.22.22,0,0,1-.088.018" transform="translate(-512.135 -503.514)" fill="#382118"/>
        <path id="Trazado_731002" data-name="Trazado 731002" d="M697.5,652.938a.223.223,0,0,1-.2-.13c-2.249-4.907-9.478-9.082-9.551-9.123a.223.223,0,1,1,.221-.387c.3.173,7.426,4.286,9.735,9.325a.223.223,0,0,1-.2.316" transform="translate(-526.522 -492.554)" fill="#382118"/>
        <path id="Trazado_731003" data-name="Trazado 731003" d="M623.458,665.494a.223.223,0,0,1-.051-.006,37.372,37.372,0,0,1-6.331-2.111.223.223,0,1,1,.187-.405,36.874,36.874,0,0,0,6.247,2.082.223.223,0,0,1-.051.44" transform="translate(-472.398 -507.625)" fill="#382118"/>
        <path id="Trazado_731004" data-name="Trazado 731004" d="M576.62,522.723a15.241,15.241,0,0,1-6.325-1.353,20.328,20.328,0,0,1-3.109-1.815,31.2,31.2,0,0,1-12.684-32.3.223.223,0,0,1,.436.1,30.752,30.752,0,0,0,12.5,31.843,19.917,19.917,0,0,0,3.04,1.776,14.967,14.967,0,0,0,11.517.31.223.223,0,0,1,.164.415,15.148,15.148,0,0,1-5.541,1.033" transform="translate(-424.042 -372.956)" fill="#382118"/>
        <path id="Trazado_731005" data-name="Trazado 731005" d="M620.776,577.35a.222.222,0,0,1-.1-.023,40.012,40.012,0,0,1-12.039-9.256c-1.605-1.82-3.769-4.625-4.024-7.942a.223.223,0,0,1,.445-.034c.245,3.184,2.351,5.908,3.914,7.681a39.56,39.56,0,0,0,11.9,9.152.223.223,0,0,1-.1.423" transform="translate(-462.955 -428.71)" fill="#382118"/>
        <path id="Trazado_731006" data-name="Trazado 731006" d="M650.655,569.131a.222.222,0,0,1-.127-.04c-4.31-2.988-7.313-8.156-8.926-15.36a.223.223,0,0,1,.436-.1c1.588,7.091,4.53,12.169,8.745,15.091a.223.223,0,0,1-.127.406" transform="translate(-491.274 -423.787)" fill="#382118"/>
        <path id="Trazado_731007" data-name="Trazado 731007" d="M523.208,402.148a3.456,3.456,0,0,1-.849-.108A2.186,2.186,0,0,1,520.935,401c-.04-.068-.078-.141-.116-.213a2.093,2.093,0,0,0-.2-.332c-.22-.272-.466-.213-.935-.026l-.06.023a1.713,1.713,0,0,1-1.676-.1,2.492,2.492,0,0,1-.921-2.127.223.223,0,1,1,.445.035,2.07,2.07,0,0,0,.728,1.723,1.264,1.264,0,0,0,1.26.052l.058-.023c.4-.158,1-.4,1.446.16a2.408,2.408,0,0,1,.248.406c.034.066.069.131.105.193a1.76,1.76,0,0,0,1.149.83,2.917,2.917,0,0,0,2.343-.392.223.223,0,0,1,.241.376,3.387,3.387,0,0,1-1.844.556" transform="translate(-395.886 -304.77)" fill="#985419"/>
        <path id="Trazado_731008" data-name="Trazado 731008" d="M583.574,417.745a2.937,2.937,0,0,1-.306-.017,3.7,3.7,0,0,1-2.035-.907.223.223,0,0,1,.292-.337,3.253,3.253,0,0,0,1.79.8,1.727,1.727,0,0,0,1-.15c.078-.041.152-.09.227-.139a1.858,1.858,0,0,1,.5-.259,1.763,1.763,0,0,1,.857.034l.064.014a7.475,7.475,0,0,0,1.68.155,1.5,1.5,0,0,0,1.144-.388.223.223,0,0,1,.335.295,1.914,1.914,0,0,1-1.47.54,7.936,7.936,0,0,1-1.781-.165l-.066-.014a1.39,1.39,0,0,0-.643-.041,1.5,1.5,0,0,0-.381.2c-.086.056-.173.113-.263.16a2.006,2.006,0,0,1-.948.216" transform="translate(-444.993 -318.863)" fill="#985419"/>
        <path id="Trazado_731009" data-name="Trazado 731009" d="M500.932,426.639a2.751,2.751,0,0,1-2.466-1.526.223.223,0,0,1,.406-.186,2.274,2.274,0,0,0,2.716,1.159.223.223,0,0,1,.146.422,2.448,2.448,0,0,1-.8.132" transform="translate(-381.663 -325.269)" fill="#985419"/>
        <path id="Trazado_731010" data-name="Trazado 731010" d="M513.508,443.589a2.751,2.751,0,0,1-2.479-1.557.223.223,0,0,1,.408-.181,2.274,2.274,0,0,0,2.7,1.192.223.223,0,0,1,.141.423,2.441,2.441,0,0,1-.772.123" transform="translate(-391.282 -338.227)" fill="#985419"/>
        <path id="Trazado_731011" data-name="Trazado 731011" d="M566.108,526.059a22.218,22.218,0,0,1-19.129,5.839c-7.45-1.812-11.074-1.611-11.074-1.611-7.08-1.2-10.683-1.866-12.5-2.227a9.755,9.755,0,0,1-3.217-1.263c-8.739-5.383-11.466-7.383-11.466-7.383a2.171,2.171,0,0,1,0-2.416c-3.423-2.819-3.826-4.229-3.826-4.229-.6-2.014,2.014-1.812,2.014-1.812-5.437-4.027-.805-4.631-.805-4.631-.6-2.819,2.215-2.416,2.215-2.416,9.665,3.222,14.3,3.02,14.3,3.02,9.866.4,8.457-3.222,8.457-3.222a6.432,6.432,0,0,0-2.416-3.423c-2.482-2.73-2.21-4.619-1.637-5.666a1.049,1.049,0,0,1,1.626-.257c3.623,3.32,6.253,6.124,6.253,6.124a18.936,18.936,0,0,1,6.846,9.665c1.266,2.824,2.862,4.047,4.172,4.557a3.59,3.59,0,0,0,3.749-.74,10.114,10.114,0,0,0,1.543-1.8c11.679,2.014,14.9,13.893,14.9,13.893" transform="translate(-386.119 -378.323)" fill="#fcaa97"/>
        <path id="Trazado_731012" data-name="Trazado 731012" d="M523.246,550.584a.162.162,0,0,1-.038,0c-.355-.082-8.733-2.053-11.75-4.667a.167.167,0,1,1,.219-.253c2.955,2.561,11.521,4.575,11.607,4.594a.167.167,0,0,1-.038.33" transform="translate(-391.581 -417.783)" fill="#382118"/>
        <path id="Trazado_731013" data-name="Trazado 731013" d="M524.871,570.351a.168.168,0,0,1-.051-.008,50.148,50.148,0,0,1-9.9-4.648.167.167,0,0,1,.177-.284,49.774,49.774,0,0,0,9.829,4.614.167.167,0,0,1-.051.327" transform="translate(-394.213 -432.918)" fill="#382118"/>
        <path id="Trazado_731014" data-name="Trazado 731014" d="M531.6,595.528a.168.168,0,0,1-.048-.007,36.884,36.884,0,0,1-8.909-4.051.167.167,0,0,1,.193-.273,36.5,36.5,0,0,0,8.81,4,.167.167,0,0,1-.047.328" transform="translate(-400.136 -452.659)" fill="#382118"/>
        <path id="Trazado_731015" data-name="Trazado 731015" d="M319.687,42.228a4.316,4.316,0,0,1-1.249-1.4L314.9,35.441a11.186,11.186,0,0,1-1.724-3.43,11.309,11.309,0,0,1,.1-4.343q.749-4.85,1.5-9.7a6.655,6.655,0,0,1,1.02-3.093c.791-1.035,2.1-1.487,3.139-2.261,2.345-1.744,3.2-5.005,5.5-6.812a12.348,12.348,0,0,1,3.512-1.715L336.981.809a7.813,7.813,0,0,1,4.5-.679c.865.22,1.631.731,2.481,1,3.032.969,6.352-1.257,9.424-.425,3.251.881,4.876,4.771,7.966,6.128,1.531.672,3.357.687,4.673,1.729,2.663,2.107,1.391,6.5,2.7,9.661.833,2.011,2.757,3.587,2.916,5.763.156,2.148-1.478,3.989-1.932,6.093-.5,2.311.433,4.913-.669,7-1.057,2-3.5,2.646-5.419,3.8-1.754,1.05-3.177,2.62-4.986,3.57-2.312,1.214-5.018,1.3-7.62,1.359l-18.343.418c-2.4.055-5.368.157-7.386-1.4-.813-.625-.907-1.384-1.931-1.882-1.12-.544-2.531-.024-3.664-.715" transform="translate(-239.665 -0.002)" fill="#87cbed"/>
        <path id="Trazado_731016" data-name="Trazado 731016" d="M387.315,71.456a2.61,2.61,0,0,0-1.416,0c.42-14.462-7.488-25.879-20.622-25.115C351,47.17,345.845,58.487,347.35,72.913a2.665,2.665,0,0,0-2.1-.233c-1.907.661-2.548,3.8-1.433,7.023s3.564,5.29,5.471,4.63a2.228,2.228,0,0,0,.543-.279c4.016,11.4,11.772,19.212,18.363,18.73,7.184-.526,13.014-8.77,15.88-19.439,1.992.385,4.282-1.739,5.2-4.89.956-3.268.077-6.4-1.963-7" transform="translate(-262.842 -35.455)" fill="#fcaa97"/>
        <path id="Trazado_731017" data-name="Trazado 731017" d="M442.539,192.365h-.025a.223.223,0,0,1-.2-.246,13.517,13.517,0,0,0,0-2.931.223.223,0,1,1,.44-.073,13.686,13.686,0,0,1,0,3.054.223.223,0,0,1-.221.2" transform="translate(-338.683 -144.663)" fill="#382118"/>
        <path id="Trazado_731018" data-name="Trazado 731018" d="M440.028,213.05a3.568,3.568,0,0,1-1.862-.521.223.223,0,0,1,.23-.383,3.614,3.614,0,0,0,3.747-.191.223.223,0,0,1,.256.366,4.5,4.5,0,0,1-2.37.729" transform="translate(-335.423 -162.265)" fill="#382118"/>
        <path id="Trazado_731019" data-name="Trazado 731019" d="M353.474,179.541a.222.222,0,0,1-.123-.038,3.517,3.517,0,0,1-1.087-4.041.223.223,0,1,1,.426.131,3.031,3.031,0,0,0,.909,3.539.223.223,0,0,1-.125.408" transform="translate(-269.567 -134.232)" fill="#382118"/>
        <path id="Trazado_731020" data-name="Trazado 731020" d="M525.272,174.46a.223.223,0,0,1-.123-.409,3.228,3.228,0,0,0,1.075-3.5.223.223,0,1,1,.435-.1,3.722,3.722,0,0,1-1.264,3.977.221.221,0,0,1-.123.037" transform="translate(-402.032 -130.38)" fill="#382118"/>
        <path id="Trazado_731021" data-name="Trazado 731021" d="M483.178,170.668a2.879,2.879,0,0,1,.147-.935.667.667,0,0,0,.713.348.743.743,0,0,0,.094-1.436,1.228,1.228,0,0,1,.627-.181c.881-.006,1.6.972,1.609,2.184s-.7,2.2-1.582,2.2-1.6-.973-1.61-2.184" transform="translate(-369.971 -128.994)" fill="#382118"/>
        <path id="Trazado_731022" data-name="Trazado 731022" d="M395.488,172.534a2.874,2.874,0,0,1,.1-.94.666.666,0,0,0,.728.315.743.743,0,0,0,.029-1.439,1.232,1.232,0,0,1,.618-.209c.88-.045,1.645.9,1.707,2.109s-.6,2.228-1.481,2.274-1.644-.9-1.707-2.109" transform="translate(-302.824 -130.368)" fill="#382118"/>
        <path id="Trazado_731023" data-name="Trazado 731023" d="M483.53,147.189c-.236.5-1.754.272-3.391-.5s-2.772-1.809-2.536-2.306,1.754-.272,3.391.5,2.772,1.809,2.536,2.306" transform="translate(-365.679 -110.349)" fill="#943c26"/>
        <path id="Trazado_731024" data-name="Trazado 731024" d="M383.947,152.3c.236.5,1.754.272,3.391-.5s2.772-1.809,2.536-2.306-1.754-.272-3.391.5-2.772,1.809-2.536,2.306" transform="translate(-293.966 -114.261)" fill="#943c26"/>
        <path id="Trazado_731025" data-name="Trazado 731025" d="M425.388,231.346a55.939,55.939,0,0,0,11.171-.6c-5.386,10.373-11.171.6-11.171.6" transform="translate(-325.722 -176.685)" fill="#fff"/>
        <path id="Trazado_731026" data-name="Trazado 731026" d="M486.915,195.931c0,.992-1.384,1.8-3.092,1.8s-3.092-.8-3.092-1.8,1.384-1.8,3.092-1.8,3.092.8,3.092,1.8" transform="translate(-368.098 -148.651)" fill="#ff8382"/>
        <path id="Trazado_731027" data-name="Trazado 731027" d="M387.925,198.485c0,.992,1.384,1.8,3.092,1.8s3.092-.8,3.092-1.8-1.384-1.8-3.092-1.8-3.092.8-3.092,1.8" transform="translate(-297.036 -150.607)" fill="#ff8382"/>
        <path id="Trazado_731028" data-name="Trazado 731028" d="M403.763,98.26a24.02,24.02,0,0,1-6.262-1.822c-1-.433-1.976-.919-2.936-1.442s-1.96-1-2.964-1.451c-1.465-.656-2.949-1.254-4.418-1.874a37.5,37.5,0,0,1,8.915,3.57c9.4,4.552,19.761,1.457,19.761,1.457-6.715-17.844-32.616-5.645-32.616-5.645a19.924,19.924,0,0,1,2.167.251l-.092.213c2.029.851,4.092,1.593,6.1,2.44,1.007.422,2,.876,2.969,1.37s1.974.974,2.994,1.387a24.237,24.237,0,0,0,6.359,1.694,23.859,23.859,0,0,0,6.559-.217,23.8,23.8,0,0,1-6.54.069" transform="translate(-293.451 -66.604)" fill="#943c26"/>
        <path id="Trazado_731029" data-name="Trazado 731029" d="M355.509,64.234c1.476-6.725,7.281-12.667,19.151-12.767,16.26-.137,20.134,11.632,20.134,11.632.014-10.635.014-26.793-19.652-26.495-27.052.41-19.633,27.63-19.633,27.63" transform="translate(-271.502 -28.026)" fill="#87cbed"/>
        <path id="Trazado_731030" data-name="Trazado 731030" d="M357.346,111.241a13.924,13.924,0,0,1,3.939-9.248c3.507-3.655,8.95-5.577,16.177-5.714,8.485-.16,13.565,3.426,16.333,6.462a18.746,18.746,0,0,1,4.02,6.742l-1.5.433a17.531,17.531,0,0,0-3.72-6.173c-3.707-4.035-8.784-6.019-15.1-5.9-6.8.128-11.871,1.889-15.08,5.233a12.481,12.481,0,0,0-3.5,8.132Z" transform="translate(-273.621 -73.718)" fill="#4d99bf"/>
        <path id="Trazado_731031" data-name="Trazado 731031" d="M92,219.76a.223.223,0,0,1-.222-.2,4.72,4.72,0,0,1,1.536-3.935.223.223,0,1,1,.268.357c-1.555,1.166-1.361,3.513-1.359,3.537a.223.223,0,0,1-.2.242H92" transform="translate(-70.264 -165.07)" fill="#ffe09c"/>
        <path id="Trazado_731032" data-name="Trazado 731032" d="M391.238,320.71l-.5-.727c-.534-.784-13.105-19.346-14.576-31.11l1.328-.166c1.269,10.156,11.485,26.17,13.862,29.783a76.1,76.1,0,0,0,15.215-30.04l1.313.259a77.586,77.586,0,0,1-16.078,31.329Z" transform="translate(-288.033 -220.869)" fill="#4d99bf"/>
        <path id="Trazado_731033" data-name="Trazado 731033" d="M715.8,582.273a.669.669,0,0,1-.645-.493c-.03-.111-3.192-11.158-14.575-13.355a.669.669,0,0,1,.254-1.314,19.776,19.776,0,0,1,12.444,8.049,21.565,21.565,0,0,1,3.168,6.268.67.67,0,0,1-.47.822.677.677,0,0,1-.177.024" transform="translate(-536.025 -434.23)" fill="#4d99bf"/>
        <path id="Trazado_731034" data-name="Trazado 731034" d="M9.588,467.177l-.685-1.15c8.779-5.226,21.416-8.838,21.543-8.874l.365,1.288c-.125.035-12.6,3.6-21.223,8.736" transform="translate(-6.817 -350.045)" fill="#4d99bf"/>
      </g>
    </g>
  </g>
</svg>
