<svg xmlns="http://www.w3.org/2000/svg" xmlns:xlink="http://www.w3.org/1999/xlink" width="165.482" height="195.324" viewBox="0 0 165.482 195.324">
  <defs>
    <clipPath id="clip-path">
      <rect id="Rectángulo_349642" data-name="Rectángulo 349642" width="165.482" height="195.324" transform="translate(0 0)" fill="none"/>
    </clipPath>
  </defs>
  <g id="Grupo_997213" data-name="Grupo 997213" transform="translate(0 -0.002)">
    <g id="Grupo_997212" data-name="Grupo 997212" transform="translate(0 0.002)" clip-path="url(#clip-path)">
      <path id="Trazado_730858" data-name="Trazado 730858" d="M686.342,454.1c9.916,11.542,13.492,16.581,13.492,16.581,12.192,17.231-19.669,15.443-19.669,15.443L678.377,474.1l-5.527-5.039Z" transform="translate(-550.607 -371.603)" fill="#fcaa97"/>
      <path id="Trazado_730859" data-name="Trazado 730859" d="M77.49,467.524c-5.852,6.177-13.33,14.955-13.33,14.955C54.244,497.76,80.416,496.3,80.416,496.3l9.591-17.231Z" transform="translate(-50.668 -382.585)" fill="#fcaa97"/>
      <path id="Trazado_730860" data-name="Trazado 730860" d="M348.617,236.68l-1.127,7.261a3.331,3.331,0,0,1-2.461,2.715l-8.6,2.216,22.27,29.1L375.439,247.9l-5.036-1.171a2.682,2.682,0,0,1-2.07-2.458l-.372-6.45Z" transform="translate(-275.304 -193.681)" fill="#fcaa97"/>
      <path id="Trazado_730861" data-name="Trazado 730861" d="M425.328,251.422a2.68,2.68,0,0,1-1.349-2.173l-.372-6.45-.541-.032-18.64,2.8c7.023,14.041,17.778,8.022,20.9,5.853" transform="translate(-330.95 -198.662)" fill="#c77f6d"/>
      <path id="Trazado_730862" data-name="Trazado 730862" d="M175.415,285.891c1.626,10.4,12.192,20.645,12.192,20.645,10.729-10.079,11.867-20.157,11.867-20.157a210.363,210.363,0,0,1,22.433,6.665c14.955,14.3,22.27,25.521,22.27,25.521a58.852,58.852,0,0,1-16.256,15.443l-7.64-6.34,2.6,62.259H150.544l2.6-58.52-6.827,4.877c-10.241-5.69-18.369-16.581-18.369-16.581,5.039-7.478,26.172-28.285,26.172-28.285,5.689-3.089,21.295-5.527,21.295-5.527" transform="translate(-104.703 -233.951)" fill="#73c0e6"/>
      <path id="Trazado_730863" data-name="Trazado 730863" d="M346.836,33.161a3.533,3.533,0,0,1-.877-1.254l-2.369-4.718a9.4,9.4,0,0,1-1.088-2.963,9.7,9.7,0,0,1,.44-3.57l1.99-7.872A5.647,5.647,0,0,1,346,10.317,11.2,11.2,0,0,1,348.681,8.7c2.008-1.25,2.956-3.869,4.932-5.175A9.724,9.724,0,0,1,356.546,2.4L364,.414a6.049,6.049,0,0,1,3.63-.2c.669.25,1.237.732,1.89,1.023,2.331,1.039,5.153-.53,7.526.4,2.512.985,3.483,4.318,5.827,5.682,1.162.676,2.612.833,3.572,1.8,1.944,1.948.57,5.464,1.35,8.174.5,1.723,1.9,3.174,1.843,4.98-.053,1.782-1.5,3.169-2.038,4.866-.587,1.864.167,2.372-.881,4a19.16,19.16,0,0,1-5.527,5.039c-1.481.725-2.064,1.273-3.579,1.911a13.187,13.187,0,0,1-6.169.513l-14.616-1.115c-1.91-.146-4.28-.3-5.756-1.738-.594-.58-.607-1.213-1.379-1.7-.846-.537-2.01-.221-2.854-.88" transform="translate(-280.243 -0.002)" fill="#87cbed"/>
      <path id="Trazado_730864" data-name="Trazado 730864" d="M398.629,81.409a2.023,2.023,0,0,0-1.089-.142c1.764-11.079-3.18-20.647-13.356-21.368-11.063-.784-16.153,7.406-16.434,18.649a2.066,2.066,0,0,0-1.592-.388c-1.532.318-2.339,2.672-1.8,5.257s2.214,4.424,3.746,4.105a1.731,1.731,0,0,0,.446-.16c1.952,9.168,7.139,15.947,12.255,16.233,5.577.312,10.882-5.447,14.149-13.366,1.493.495,3.466-.911,4.489-3.242,1.061-2.418.7-4.915-.812-5.578" transform="translate(-298.025 -48.974)" fill="#fcaa97"/>
      <path id="Trazado_730865" data-name="Trazado 730865" d="M458.511,208.417a.17.17,0,0,1-.041,0,.173.173,0,0,1-.127-.209,10.494,10.494,0,0,0,.293-2.254.173.173,0,0,1,.346-.013,10.625,10.625,0,0,1-.3,2.349.173.173,0,0,1-.168.132" transform="translate(-375.067 -168.386)" fill="#382118"/>
      <path id="Trazado_730866" data-name="Trazado 730866" d="M454.526,229.786a2.788,2.788,0,0,1-1.766-.611.173.173,0,0,1,.215-.271,2.8,2.8,0,0,0,2.9.226.173.173,0,0,1,.16.307,3.536,3.536,0,0,1-1.509.349" transform="translate(-370.449 -187.287)" fill="#382118"/>
      <path id="Trazado_730867" data-name="Trazado 730867" d="M373.155,180.555a.173.173,0,0,1-.114-.043,2.727,2.727,0,0,1-.433-3.216.173.173,0,1,1,.315.143,2.375,2.375,0,0,0,.346,2.812.173.173,0,0,1-.114.3" transform="translate(-304.651 -145.003)" fill="#382118"/>
      <path id="Trazado_730868" data-name="Trazado 730868" d="M543.439,198.072a.173.173,0,0,1-.076-.328,2.5,2.5,0,0,0,1.176-2.588.173.173,0,1,1,.344-.034,2.885,2.885,0,0,1-1.368,2.932.17.17,0,0,1-.076.018" transform="translate(-444.566 -159.545)" fill="#382118"/>
      <path id="Trazado_730869" data-name="Trazado 730869" d="M505.806,165.395c-.231.359-1.376.035-2.557-.725s-1.952-1.667-1.721-2.026,1.376-.035,2.557.725,1.952,1.667,1.721,2.026" transform="translate(-410.377 -132.975)" fill="#943c26"/>
      <path id="Trazado_730870" data-name="Trazado 730870" d="M411.949,159.847c.132.406,1.322.384,2.658-.05s2.312-1.115,2.18-1.521-1.322-.384-2.658.05-2.312,1.115-2.18,1.521" transform="translate(-337.097 -129.283)" fill="#943c26"/>
      <path id="Trazado_730871" data-name="Trazado 730871" d="M439.716,248.4a56.576,56.576,0,0,0,7.159.64c-3.955,3.762-7.159-.64-7.159-.64" transform="translate(-359.829 -203.272)" fill="#fff"/>
      <path id="Trazado_730872" data-name="Trazado 730872" d="M502.172,215.41c-.1.763-1.243,1.243-2.557,1.073s-2.3-.926-2.2-1.689,1.243-1.243,2.557-1.073,2.3.926,2.2,1.689" transform="translate(-407.041 -174.865)" fill="#ff8382"/>
      <path id="Trazado_730873" data-name="Trazado 730873" d="M405.051,205.4c-.1.763.886,1.519,2.2,1.689s2.458-.31,2.557-1.073-.886-1.518-2.2-1.689-2.458.31-2.557,1.073" transform="translate(-331.456 -167.18)" fill="#ff8382"/>
      <path id="Trazado_730874" data-name="Trazado 730874" d="M434.817,110.6a18.18,18.18,0,0,1-4.146-2.6c-.634-.516-1.238-1.065-1.823-1.638s-1.209-1.122-1.842-1.65c-.923-.772-1.871-1.506-2.8-2.254a28.317,28.317,0,0,1,5.7,4.4c5.852,5.2,13.963,5.132,13.963,5.132-1.19-14.134-22.382-10.784-22.382-10.784a15.122,15.122,0,0,1,1.513.628l-.11.133c1.29,1.028,2.627,1.985,3.9,3.006q.96.764,1.862,1.594c.6.561,1.225,1.1,1.876,1.61a18.359,18.359,0,0,0,4.243,2.527,18.112,18.112,0,0,0,4.778,1.2,18.055,18.055,0,0,1-4.734-1.305" transform="translate(-344.909 -82.538)" fill="#943c26"/>
      <path id="Trazado_730875" data-name="Trazado 730875" d="M383.009,70.312c1.805-5.024,6.59-9.8,15.727-8.692,12.518,1.515,14.183,11.455,14.183,11.455,1.07-8.177,2.821-21.106-12.331-22.836-20.844-2.38-17.579,20.073-17.579,20.073" transform="translate(-313.272 -40.968)" fill="#87cbed"/>
      <path id="Trazado_730876" data-name="Trazado 730876" d="M383.751,119.117a8.659,8.659,0,0,1,.56-2.452,10.38,10.38,0,0,1,1.189-2.255,10.632,10.632,0,0,1,1.729-1.908,11.2,11.2,0,0,1,2.145-1.448,14.71,14.71,0,0,1,4.922-1.5,23.519,23.519,0,0,1,5.107-.074,22.652,22.652,0,0,1,2.536.359,18.146,18.146,0,0,1,2.481.695,14.5,14.5,0,0,1,4.469,2.554,13.63,13.63,0,0,1,1.8,1.838,13.728,13.728,0,0,1,2.4,4.47,11.127,11.127,0,0,1,.509,2.462,11,11,0,0,0-.361-1.193q-.206-.586-.463-1.149a15.024,15.024,0,0,0-1.184-2.154,14.13,14.13,0,0,0-3.292-3.536,14.969,14.969,0,0,0-4.257-2.207,17.8,17.8,0,0,0-2.336-.607,22.038,22.038,0,0,0-2.409-.327,25.08,25.08,0,0,0-4.863.005,15.233,15.233,0,0,0-4.645,1.2,10.8,10.8,0,0,0-3.819,2.872,10.62,10.62,0,0,0-1.353,2.03,10.385,10.385,0,0,0-.5,1.128,8.265,8.265,0,0,0-.363,1.189" transform="translate(-314.032 -89.507)" fill="#4d99bf"/>
      <path id="Trazado_730877" data-name="Trazado 730877" d="M501.405,191.32a5.511,5.511,0,0,1-3.009-.907.173.173,0,1,1,.187-.291,5.038,5.038,0,0,0,4.234.634.173.173,0,0,1,.124.323,4.6,4.6,0,0,1-1.536.241" transform="translate(-407.783 -155.558)" fill="#382118"/>
      <path id="Trazado_730878" data-name="Trazado 730878" d="M504.009,194.6a1.118,1.118,0,0,0-.113.408,1.138,1.138,0,1,0,2.269.172,1.1,1.1,0,0,0,0-.167c-1-.245-1.323-.245-2.155-.413" transform="translate(-412.346 -159.245)" fill="#382118"/>
      <path id="Trazado_730879" data-name="Trazado 730879" d="M416.267,183.072a4.868,4.868,0,0,1-2.884-.72.173.173,0,0,1,.213-.273c.013.011,1.453,1.078,4.579.443a.173.173,0,1,1,.069.339,9.909,9.909,0,0,1-1.977.212" transform="translate(-338.225 -148.97)" fill="#382118"/>
      <path id="Trazado_730880" data-name="Trazado 730880" d="M422.723,186.6a1.133,1.133,0,1,1-2.223.022,1.1,1.1,0,0,1,.043-.161,6.762,6.762,0,0,0,2.18.139" transform="translate(-344.089 -152.589)" fill="#382118"/>
      <path id="Trazado_730881" data-name="Trazado 730881" d="M165.483,885.43H0l11.549-42.112H153.934Z" transform="translate(0 -690.105)" fill="#dbdbdb"/>
      <path id="Trazado_730882" data-name="Trazado 730882" d="M263.171,475.283h-.014A.173.173,0,0,1,263,475.1c0-.062.489-6.29.65-16.407a.173.173,0,0,1,.173-.17h0a.173.173,0,0,1,.17.176c-.161,10.129-.646,16.367-.651,16.429a.173.173,0,0,1-.172.159" transform="translate(-215.217 -375.216)" fill="#382118"/>
      <path id="Trazado_730883" data-name="Trazado 730883" d="M634.451,464.712a.173.173,0,0,1-.172-.152,99.4,99.4,0,0,1-.164-11.241.167.167,0,0,1,.176-.17.173.173,0,0,1,.17.176,99.029,99.029,0,0,0,.161,11.192.173.173,0,0,1-.15.193h-.022" transform="translate(-518.873 -370.822)" fill="#382118"/>
      <path id="Trazado_730884" data-name="Trazado 730884" d="M452.47,423.168a1.654,1.654,0,1,1-1.654-1.654,1.654,1.654,0,0,1,1.654,1.654" transform="translate(-367.56 -344.934)" fill="#4d99bf"/>
      <path id="Trazado_730885" data-name="Trazado 730885" d="M450.68,547.538a1.654,1.654,0,1,1-1.654-1.654,1.654,1.654,0,0,1,1.654,1.654" transform="translate(-366.095 -446.709)" fill="#4d99bf"/>
      <path id="Trazado_730886" data-name="Trazado 730886" d="M453.365,662.066a1.654,1.654,0,1,1-1.654-1.654,1.654,1.654,0,0,1,1.654,1.654" transform="translate(-368.291 -540.43)" fill="#4d99bf"/>
      <path id="Trazado_730887" data-name="Trazado 730887" d="M398.9,306.678l-.277-.229a40.539,40.539,0,0,1-12.207-20.937l1.015-.216a39.542,39.542,0,0,0,11.578,20.114c7.18-4.485,11.43-19.5,11.473-19.657l1,.279c-.182.652-4.535,16.024-12.271,20.468Z" transform="translate(-316.216 -233.464)" fill="#4d99bf"/>
      <path id="Trazado_730888" data-name="Trazado 730888" d="M436.752,461.5a.173.173,0,0,1-.173-.173V401.591l3.474-2.978a.173.173,0,1,1,.225.263l-3.353,2.874v59.579a.173.173,0,0,1-.173.173" transform="translate(-357.262 -326.16)" fill="#382118"/>
      <path id="Trazado_730889" data-name="Trazado 730889" d="M677.261,480.114l-.546-.883c6.679-4.135,16.038-15.224,16.131-15.336l.795.668c-.387.461-9.56,11.328-16.38,15.55" transform="translate(-553.77 -379.616)" fill="#4d99bf"/>
      <path id="Trazado_730890" data-name="Trazado 730890" d="M139.42,484.748a81.919,81.919,0,0,1-13.768-13.831l.834-.617a80.82,80.82,0,0,0,13.566,13.625Z" transform="translate(-102.824 -384.857)" fill="#4d99bf"/>
      <path id="Trazado_730891" data-name="Trazado 730891" d="M544.287,572.056c-.959,4.395.726,8.495,3.764,9.158s6.279-2.362,7.238-6.756-.726-8.495-3.764-9.158-6.279,2.362-7.238,6.756" transform="translate(-445.181 -462.523)" fill="#fff"/>
      <path id="Trazado_730892" data-name="Trazado 730892" d="M262.249,590.594c0,4.5,2.521,8.144,5.63,8.144s5.63-3.646,5.63-8.144-2.521-8.144-5.63-8.144-5.63,3.646-5.63,8.144" transform="translate(-214.604 -476.632)" fill="#fff"/>
      <path id="Trazado_730893" data-name="Trazado 730893" d="M667.647,863.614a.173.173,0,0,1-.146-.266c.393-.618.772-1.26,1.139-1.882.511-.867,1.04-1.763,1.618-2.611a.173.173,0,0,1,.286.195c-.573.839-1.1,1.73-1.606,2.592-.368.624-.748,1.269-1.145,1.892a.173.173,0,0,1-.146.08" transform="translate(-546.209 -702.758)" fill="#382118"/>
      <path id="Trazado_730894" data-name="Trazado 730894" d="M698.017,548.175a.173.173,0,0,1-.072-.33c3.875-1.776,11.824-3.41,11.9-3.426a.173.173,0,0,1,.069.339c-.08.016-7.991,1.642-11.829,3.4a.176.176,0,0,1-.072.016" transform="translate(-571.061 -445.507)" fill="#382118"/>
      <path id="Trazado_730895" data-name="Trazado 730895" d="M601.159,544.349l-6.177,2.113c-4.227-5.2-9.428-3.739-9.428-3.739a20.846,20.846,0,0,0-7.176,4.4,1.551,1.551,0,0,0,1.458,2.627,18.7,18.7,0,0,0,5.231-2.146c2.438-.813,3.739,0,3.739,0a38.363,38.363,0,0,0-9.46,5.831,1.542,1.542,0,0,0,1.368,2.675c4.1-1.029,10.531-3.3,10.531-3.3-2.282,2.282-8.323,4.565-10.87,5.458a1.609,1.609,0,0,0,.05,3.053,9.1,9.1,0,0,0,1.067.267c-2.276,1.463.162,2.276.162,2.276,6.177,1.788,14.468-3.9,14.468-3.9l8.29-.325c-.488-13.167-3.251-15.28-3.251-15.28" transform="translate(-472.902 -443.967)" fill="#99d3f0"/>
      <path id="Trazado_730896" data-name="Trazado 730896" d="M597.106,634.465a.13.13,0,0,1-.011-.259,41.513,41.513,0,0,0,10.852-2.754.13.13,0,1,1,.1.239,41.828,41.828,0,0,1-10.93,2.773h-.012" transform="translate(-488.518 -516.723)" fill="#382118"/>
      <path id="Trazado_730897" data-name="Trazado 730897" d="M672.834,575.243a.13.13,0,0,1-.113-.193c.021-.037,2.033-3.785-1.468-11.424a.13.13,0,1,1,.236-.108c3.563,7.773,1.546,11.5,1.458,11.659a.13.13,0,0,1-.113.066" transform="translate(-549.291 -461.077)" fill="#382118"/>
      <path id="Trazado_730898" data-name="Trazado 730898" d="M142.2,536.55c-.672,0-3.057-.262-7.089-3.459a.173.173,0,0,1,.215-.271c4.6,3.651,7,3.38,7.022,3.378a.173.173,0,0,1,.046.343,1.554,1.554,0,0,1-.194.01" transform="translate(-110.514 -435.988)" fill="#382118"/>
      <path id="Trazado_730899" data-name="Trazado 730899" d="M151.029,530.439a12.237,12.237,0,0,0,4.714-.163,19.123,19.123,0,0,1,3.272-3.3,4.083,4.083,0,0,1,4.275-.433c6.5,3.2,10.659,10.722,10.659,10.722,1.3,4.064-2.763,3.414-2.763,3.414.438.827.759,1.465.995,1.953a2.291,2.291,0,0,1-3.072,3.052c-1.1-.538-1.923-1.061-1.923-1.061.737.943,1.611,2.073,2.2,2.834a1.8,1.8,0,0,1-1.678,2.875,9.328,9.328,0,0,1-2.859-.875c-.975,2.6-8.941-3.9-8.941-3.9-2.438-2.113-7.965,0-7.965,0-5.689-8.615,3.089-15.118,3.089-15.118" transform="translate(-119.493 -430.545)" fill="#99d3f0"/>
      <path id="Trazado_730900" data-name="Trazado 730900" d="M240.746,564.754a.13.13,0,0,1-.111-.062c-1.756-2.873-9.483-9.008-9.561-9.069a.13.13,0,0,1,.161-.2c.319.253,7.841,6.225,9.621,9.137a.13.13,0,0,1-.11.2" transform="translate(-189.053 -454.489)" fill="#382118"/>
      <path id="Trazado_730901" data-name="Trazado 730901" d="M227.163,595.746a.13.13,0,0,1-.1-.049c-1.919-2.4-7.563-6.924-7.62-6.97a.13.13,0,1,1,.162-.2c.057.046,5.723,4.589,7.66,7.01a.13.13,0,0,1-.1.211" transform="translate(-179.534 -481.58)" fill="#382118"/>
      <path id="Trazado_730902" data-name="Trazado 730902" d="M216.1,624.784a.129.129,0,0,1-.081-.028c-3.218-2.575-7.283-6.471-7.324-6.51a.13.13,0,0,1,.18-.187c.041.039,4.1,3.927,7.306,6.494a.13.13,0,0,1-.081.231" transform="translate(-170.748 -505.741)" fill="#382118"/>
      <path id="Trazado_730903" data-name="Trazado 730903" d="M180.391,614.442a.129.129,0,0,1-.068-.019,8.6,8.6,0,0,1-2.97-3.374.13.13,0,0,1,.235-.109,8.489,8.489,0,0,0,2.872,3.262.13.13,0,0,1-.068.24" transform="translate(-145.121 -499.884)" fill="#382118"/>
      <path id="Trazado_730904" data-name="Trazado 730904" d="M311.643,864.214,308.1,834.807h-1.078l-.924,2.309-5.235.154-2.617-4.311-2.925.154-1.848,3.541h-5.7l-2.463-4.157-3.695.154-2,4h-5.081l-2.31-3.849-3.541.154-1.954,3.533-6.667-.146-2.155-4.157-3.387.154-2.155,3.849-5.081.154-2.155-3.7H241.59l-2.463,4.311-3.387.308-2.155-2.925c-.77,6.159-4.424,29.8-4.424,29.8Z" transform="translate(-187.527 -680.999)" fill="#deb08e"/>
      <path id="Trazado_730905" data-name="Trazado 730905" d="M229.868,954.573c0,4.571,2.646,8.276,5.911,8.276s5.911-3.705,5.911-8.276-2.646-8.276-5.911-8.276-5.911,3.705-5.911,8.276" transform="translate(-188.106 -774.375)" fill="#fff"/>
      <path id="Trazado_730906" data-name="Trazado 730906" d="M305.338,957.856c0,4.571,2.646,8.276,5.911,8.276s5.911-3.705,5.911-8.276-2.646-8.276-5.911-8.276-5.911,3.705-5.911,8.276" transform="translate(-249.865 -777.062)" fill="#fff"/>
      <path id="Trazado_730907" data-name="Trazado 730907" d="M383.353,958.677c0,4.571,2.646,8.276,5.911,8.276s5.911-3.705,5.911-8.276-2.646-8.276-5.911-8.276-5.911,3.705-5.911,8.276" transform="translate(-313.706 -777.734)" fill="#fff"/>
      <path id="Trazado_730908" data-name="Trazado 730908" d="M457.927,961.219c0,4.571,2.647,8.276,5.911,8.276s5.911-3.705,5.911-8.276-2.646-8.276-5.911-8.276-5.911,3.705-5.911,8.276" transform="translate(-374.731 -779.814)" fill="#fff"/>
      <path id="Trazado_730909" data-name="Trazado 730909" d="M537.586,956.982c0,4.571,2.646,8.276,5.911,8.276s5.911-3.705,5.911-8.276-2.646-8.276-5.911-8.276-5.911,3.705-5.911,8.276" transform="translate(-439.918 -776.347)" fill="#fff"/>
      <path id="Trazado_730910" data-name="Trazado 730910" d="M613.856,956.135c0,4.571,2.647,8.276,5.911,8.276s5.911-3.705,5.911-8.276-2.646-8.276-5.911-8.276-5.911,3.705-5.911,8.276" transform="translate(-502.331 -775.654)" fill="#fff"/>
      <path id="Trazado_730911" data-name="Trazado 730911" d="M309.8,1007.493l-3.757,6.113a2.681,2.681,0,0,1-2.284,1.277h-1.61a2.68,2.68,0,0,1-2.292-1.291l-2.116-3.491a2.055,2.055,0,0,0-3.495-.034l-2.209,3.492a2.68,2.68,0,0,1-2.265,1.247h-1.589a2.681,2.681,0,0,1-2.326-1.348l-2.036-3.554a2.055,2.055,0,0,0-3.541-.043l-2.26,3.731a2.681,2.681,0,0,1-2.293,1.292h-1.6a2.68,2.68,0,0,1-2.292-1.291l-2.116-3.491a2.055,2.055,0,0,0-3.495-.034l-2.209,3.492a2.681,2.681,0,0,1-2.265,1.247h-1.6a2.68,2.68,0,0,1-2.314-1.328l-1.982-3.394a2.055,2.055,0,0,0-3.554.008l-2,3.453a2.68,2.68,0,0,1-2.32,1.338h-1.563a2.68,2.68,0,0,1-2.292-1.291l-2.116-3.491a2.055,2.055,0,0,0-3.495-.034l-2.209,3.492a2.68,2.68,0,0,1-2.265,1.247h-1.456a2.879,2.879,0,0,1-2.511-1.471l-3.255-6.15Z" transform="translate(-185.611 -824.201)" fill="#deb08e"/>
      <path id="Trazado_730912" data-name="Trazado 730912" d="M311.643,789.639,308.1,760.232h-1.078l-.924,2.309-5.235.154-2.617-4.311-2.925.154-1.848,3.541h-5.7l-2.463-4.157-3.695.154-2,4h-5.081l-2.31-3.849-3.541.154-1.954,3.533-6.667-.146-2.155-4.157-3.387.154-2.155,3.849-5.081.154-2.155-3.7H241.59l-2.463,4.311-3.387.308-2.155-2.925c-.77,6.159-4.424,29.8-4.424,29.8Z" transform="translate(-187.527 -619.973)" fill="#deb08e"/>
      <path id="Trazado_730913" data-name="Trazado 730913" d="M229.868,880c0,4.571,2.646,8.276,5.911,8.276s5.911-3.705,5.911-8.276-2.646-8.276-5.911-8.276-5.911,3.705-5.911,8.276" transform="translate(-188.106 -713.35)" fill="#fff"/>
      <path id="Trazado_730914" data-name="Trazado 730914" d="M305.338,883.282c0,4.571,2.646,8.276,5.911,8.276s5.911-3.705,5.911-8.276-2.646-8.276-5.911-8.276-5.911,3.705-5.911,8.276" transform="translate(-249.865 -716.036)" fill="#fff"/>
      <path id="Trazado_730915" data-name="Trazado 730915" d="M383.353,884.1c0,4.571,2.646,8.276,5.911,8.276s5.911-3.705,5.911-8.276-2.646-8.276-5.911-8.276-5.911,3.705-5.911,8.276" transform="translate(-313.706 -716.707)" fill="#fff"/>
      <path id="Trazado_730916" data-name="Trazado 730916" d="M457.927,886.645c0,4.571,2.647,8.276,5.911,8.276s5.911-3.705,5.911-8.276-2.646-8.276-5.911-8.276-5.911,3.705-5.911,8.276" transform="translate(-374.731 -718.788)" fill="#fff"/>
      <path id="Trazado_730917" data-name="Trazado 730917" d="M537.586,882.408c0,4.571,2.646,8.276,5.911,8.276s5.911-3.705,5.911-8.276-2.646-8.276-5.911-8.276-5.911,3.705-5.911,8.276" transform="translate(-439.918 -715.321)" fill="#fff"/>
      <path id="Trazado_730918" data-name="Trazado 730918" d="M613.856,881.56c0,4.571,2.647,8.276,5.911,8.276s5.911-3.705,5.911-8.276-2.646-8.276-5.911-8.276-5.911,3.705-5.911,8.276" transform="translate(-502.331 -714.627)" fill="#fff"/>
      <path id="Trazado_730919" data-name="Trazado 730919" d="M309.8,932.919l-3.757,6.113a2.68,2.68,0,0,1-2.284,1.277h-1.61a2.68,2.68,0,0,1-2.292-1.291l-2.116-3.492a2.055,2.055,0,0,0-3.495-.034l-2.209,3.492a2.68,2.68,0,0,1-2.265,1.247h-1.589a2.68,2.68,0,0,1-2.326-1.348l-2.036-3.554a2.055,2.055,0,0,0-3.541-.043l-2.26,3.731a2.681,2.681,0,0,1-2.293,1.292h-1.6a2.68,2.68,0,0,1-2.292-1.291l-2.116-3.492a2.055,2.055,0,0,0-3.495-.034l-2.209,3.492a2.68,2.68,0,0,1-2.265,1.247h-1.6a2.68,2.68,0,0,1-2.314-1.328l-1.982-3.394a2.055,2.055,0,0,0-3.554.008l-2,3.453a2.681,2.681,0,0,1-2.32,1.338h-1.563a2.68,2.68,0,0,1-2.292-1.291l-2.116-3.492a2.055,2.055,0,0,0-3.495-.034l-2.209,3.492a2.68,2.68,0,0,1-2.265,1.247h-1.456a2.879,2.879,0,0,1-2.511-1.471l-3.255-6.15Z" transform="translate(-185.611 -763.176)" fill="#deb08e"/>
      <path id="Trazado_730920" data-name="Trazado 730920" d="M311.643,715.065,308.1,685.658h-1.078l-.924,2.309-5.235.154-2.617-4.311-2.925.154-1.848,3.541h-5.7l-2.463-4.157-3.695.154-2,4h-5.081l-2.31-3.849-3.541.154-1.954,3.533-6.667-.146-2.155-4.157-3.387.154-2.155,3.849-5.081.154-2.155-3.7H241.59l-2.463,4.311-3.387.308-2.155-2.925c-.77,6.159-4.424,29.8-4.424,29.8Z" transform="translate(-187.527 -558.947)" fill="#deb08e"/>
      <path id="Trazado_730921" data-name="Trazado 730921" d="M334.375,709.843c-.513,0-1.008-.021-1.48-.064l-.077-.007-.046-.062a18.583,18.583,0,0,1-1.158-1.83,15.358,15.358,0,0,0-1.538-2.317,5.538,5.538,0,0,1-1.2-.066c-.963-.122-1.566-.154-1.82.44l-.015.028a26.311,26.311,0,0,0-1.615,2.907l-.035.069-.075.02a8.8,8.8,0,0,1-2.747.169,9.472,9.472,0,0,0-2.784.157l-.042.005a1.423,1.423,0,0,1-.935-.376l-.016-.019a10.756,10.756,0,0,1-.945-1.614,6.105,6.105,0,0,0-1.576-2.218,28.7,28.7,0,0,0-3.567.15c-.628,1.256-1.28,2.553-2.08,3.833l-.024.031a.761.761,0,0,1-.61.213h-.019a18.256,18.256,0,0,0-4.188,0h-.019a1.423,1.423,0,0,1-.935-.376l-.02-.02-.012-.025a18.829,18.829,0,0,0-1.048-1.772c-.344-.536-.7-1.089-1.017-1.709-.3,0-.585-.011-.865-.021a9.6,9.6,0,0,0-2.671.165,17.81,17.81,0,0,0-1.651,2.615c-.137.247-.273.492-.409.73l-.05.087h-.1c-.562,0-1.148.01-1.714.02a33.767,33.767,0,0,1-5.3-.184l-.071-.01-.043-.057a20.827,20.827,0,0,1-1.971-3.438q-.138-.282-.274-.557c-.168,0-.34-.01-.52-.019a4.624,4.624,0,0,0-1.909.17l-.072.029-.069-.035c-.743-.372-1.086.156-1.563,1.069a5.415,5.415,0,0,1-.489.82c-.162.323-.325.609-.484.886s-.323.565-.483.886l-.033.067-.072.021a7.987,7.987,0,0,1-2.621.225,9.222,9.222,0,0,0-2.108.1l-.034,0a1.424,1.424,0,0,1-.935-.376,7.074,7.074,0,0,1-1.242-1.936,7.9,7.9,0,0,0-.84-1.438,7.637,7.637,0,0,0-1.3-.019,5.763,5.763,0,0,1-1.881-.133.414.414,0,0,0-.328.1c-.175.28-.35.552-.523.822a22.036,22.036,0,0,0-1.73,3.04l-.013.029-.023.022a.855.855,0,0,0-.094.118.626.626,0,0,1-.471.3.173.173,0,1,1-.054-.342.29.29,0,0,0,.242-.162,1.242,1.242,0,0,1,.11-.14,22.464,22.464,0,0,1,1.742-3.059c.176-.274.354-.551.532-.836l.024-.031a.761.761,0,0,1,.61-.213l.047.007a5.365,5.365,0,0,0,1.794.126,7.529,7.529,0,0,1,1.434.031l.066.01.043.051a7.911,7.911,0,0,1,.926,1.558,6.826,6.826,0,0,0,1.176,1.845,1.067,1.067,0,0,0,.674.274,9.6,9.6,0,0,1,2.169-.107,7.771,7.771,0,0,0,2.441-.19c.154-.3.308-.573.458-.836.159-.277.322-.564.483-.885l.02-.031a4.956,4.956,0,0,0,.464-.778c.4-.771.9-1.727,1.954-1.252a5.153,5.153,0,0,1,1.982-.167c.215.01.417.019.611.019h.107l.048.1q.16.322.323.655a20.914,20.914,0,0,0,1.894,3.325,33.992,33.992,0,0,0,5.174.171c.534-.009,1.085-.019,1.62-.02.119-.209.238-.423.357-.639a17.683,17.683,0,0,1,1.724-2.713l.036-.043.055-.014a9.719,9.719,0,0,1,2.821-.189c.311.01.632.021.96.021h.107l.048.1a18.8,18.8,0,0,0,1.048,1.772,19.42,19.42,0,0,1,1.052,1.778,1.077,1.077,0,0,0,.663.256,18.551,18.551,0,0,1,4.245,0,.43.43,0,0,0,.343-.1c.8-1.288,1.459-2.6,2.094-3.869l.041-.083.092-.011a28.85,28.85,0,0,1,3.76-.164h.058l.046.035a6.341,6.341,0,0,1,1.723,2.373,10.572,10.572,0,0,0,.905,1.553,1.073,1.073,0,0,0,.662.266,9.8,9.8,0,0,1,2.861-.162,8.665,8.665,0,0,0,2.566-.137,26.11,26.11,0,0,1,1.593-2.862c.38-.859,1.333-.739,2.176-.632a4.8,4.8,0,0,0,1.2.056l.093-.013.062.071a15.135,15.135,0,0,1,1.636,2.44A18.8,18.8,0,0,0,333,709.441a20.923,20.923,0,0,0,5.4-.33l.031,0a.615.615,0,0,0,.315-.477,1.825,1.825,0,0,1,.29-.922,1.175,1.175,0,0,0,.2-.546.173.173,0,0,1,.346,0,1.469,1.469,0,0,1-.24.712,1.5,1.5,0,0,0-.248.756.884.884,0,0,1-.642.823,23.124,23.124,0,0,1-4.082.389" transform="translate(-218.958 -576.388)" fill="#382118"/>
      <path id="Trazado_730922" data-name="Trazado 730922" d="M239.416,741.187l-2.329-3a.173.173,0,1,1,.273-.212l2.213,2.851,3.387-.292,2.6-4.319h3.926l2.269,3.692,5.158-.148,2.27-3.848,3.77-.163,2.275,4.164,6.823.142,2.056-3.527,3.926-.162,2.436,3.853h5.153l2.107-4,4.093-.162,2.6,4.161h5.8l1.944-3.536,3.279-.164,2.759,4.313,5.306-.148.93-2.207a.173.173,0,1,1,.319.134l-1.016,2.412-5.725.16-2.756-4.309-2.885.144-1.949,3.546h-6.2l-2.593-4.153-3.693.146-2.111,4.007h-5.553l-2.431-3.845-3.537.146-2.063,3.539-7.227-.15-2.268-4.15-3.367.145-2.272,3.851-5.549.159-2.273-3.7h-3.537l-2.59,4.3Z" transform="translate(-193.983 -602.079)" fill="#382118"/>
      <path id="Trazado_730923" data-name="Trazado 730923" d="M526.174,774.589a.177.177,0,0,1-.062-.011,4.11,4.11,0,0,0-1.469-.182c-.207,0-.422,0-.632-.015a.173.173,0,0,1,.022-.345c.2.013.41.014.612.015a4.431,4.431,0,0,1,1.591.2.173.173,0,0,1-.062.335" transform="translate(-428.677 -633.41)" fill="#382118"/>
      <path id="Trazado_730924" data-name="Trazado 730924" d="M606.5,780.572a14.073,14.073,0,0,1-2.317-.18l-.055-.009-.039-.039a8.194,8.194,0,0,1-1.4-2.086,8.764,8.764,0,0,0-1.034-1.651,3.1,3.1,0,0,0-3.3-.059.173.173,0,1,1-.145-.314c1.49-.685,2.76-.645,3.673.116l.021.02a9.089,9.089,0,0,1,1.087,1.726,8.077,8.077,0,0,0,1.3,1.964,18.118,18.118,0,0,0,5.763-.149,3.87,3.87,0,0,1,.6-1.615c.08-.145.159-.288.231-.432a.173.173,0,0,1,.31.154c-.074.148-.155.3-.238.445a3.354,3.354,0,0,0-.557,1.6v.146l-.145.024a22.925,22.925,0,0,1-3.755.343" transform="translate(-489.446 -634.811)" fill="#382118"/>
      <path id="Trazado_730925" data-name="Trazado 730925" d="M232.41,726.613c0,4.571,2.647,8.276,5.911,8.276s5.911-3.705,5.911-8.276-2.646-8.276-5.911-8.276-5.911,3.705-5.911,8.276" transform="translate(-190.186 -587.831)" fill="#fff"/>
      <path id="Trazado_730926" data-name="Trazado 730926" d="M307.881,729.9c0,4.571,2.646,8.276,5.911,8.276s5.911-3.705,5.911-8.276-2.646-8.276-5.911-8.276-5.911,3.705-5.911,8.276" transform="translate(-251.946 -590.517)" fill="#fff"/>
      <path id="Trazado_730927" data-name="Trazado 730927" d="M385.895,730.716c0,4.571,2.646,8.276,5.911,8.276s5.911-3.705,5.911-8.276-2.646-8.276-5.911-8.276-5.911,3.705-5.911,8.276" transform="translate(-315.786 -591.188)" fill="#fff"/>
      <path id="Trazado_730928" data-name="Trazado 730928" d="M459.622,728.174c0,4.571,2.646,8.276,5.911,8.276s5.911-3.705,5.911-8.276-2.646-8.276-5.911-8.276-5.911,3.705-5.911,8.276" transform="translate(-376.118 -589.108)" fill="#fff"/>
      <path id="Trazado_730929" data-name="Trazado 730929" d="M229.868,761.358c0,4.571,2.646,8.276,5.911,8.276s5.911-3.706,5.911-8.276-2.646-8.276-5.911-8.276-5.911,3.705-5.911,8.276" transform="translate(-188.106 -616.263)" fill="#fff"/>
      <path id="Trazado_730930" data-name="Trazado 730930" d="M305.338,764.641c0,4.571,2.646,8.276,5.911,8.276s5.911-3.705,5.911-8.276-2.646-8.276-5.911-8.276-5.911,3.705-5.911,8.276" transform="translate(-249.865 -618.95)" fill="#fff"/>
      <path id="Trazado_730931" data-name="Trazado 730931" d="M383.353,765.461c0,4.571,2.646,8.276,5.911,8.276s5.911-3.705,5.911-8.276-2.646-8.276-5.911-8.276-5.911,3.705-5.911,8.276" transform="translate(-313.706 -619.621)" fill="#fff"/>
      <path id="Trazado_730932" data-name="Trazado 730932" d="M457.927,768c0,4.571,2.647,8.276,5.911,8.276s5.911-3.705,5.911-8.276-2.646-8.276-5.911-8.276-5.911,3.705-5.911,8.276" transform="translate(-374.731 -621.702)" fill="#fff"/>
      <path id="Trazado_730933" data-name="Trazado 730933" d="M537.586,763.767c0,4.571,2.646,8.276,5.911,8.276s5.911-3.705,5.911-8.276-2.646-8.276-5.911-8.276-5.911,3.705-5.911,8.276" transform="translate(-439.918 -618.235)" fill="#fff"/>
      <path id="Trazado_730934" data-name="Trazado 730934" d="M229.868,805.424c0,4.571,2.646,8.276,5.911,8.276s5.911-3.705,5.911-8.276-2.646-8.276-5.911-8.276-5.911,3.705-5.911,8.276" transform="translate(-188.106 -652.323)" fill="#fff"/>
      <path id="Trazado_730935" data-name="Trazado 730935" d="M244.309,800.385a.173.173,0,0,1-.166-.124c-.673-2.281-3.321-4.358-5.858-3.723a5.642,5.642,0,0,0-3.824,3.577.173.173,0,0,1-.325-.119A5.986,5.986,0,0,1,238.2,796.2c2.725-.682,5.56,1.529,6.277,3.96a.173.173,0,0,1-.166.222" transform="translate(-191.589 -651.448)" fill="#382118"/>
      <path id="Trazado_730936" data-name="Trazado 730936" d="M243.478,757.216a.173.173,0,0,1-.168-.132,7.493,7.493,0,0,0-3.088-4.865,4.613,4.613,0,0,0-3.529-.535,5.881,5.881,0,0,0-3.781,3.793.173.173,0,0,1-.325-.119,6.226,6.226,0,0,1,4.019-4.009,4.955,4.955,0,0,1,3.8.573,7.823,7.823,0,0,1,3.245,5.08.173.173,0,0,1-.128.209.166.166,0,0,1-.041,0" transform="translate(-190.322 -614.722)" fill="#382118"/>
      <path id="Trazado_730937" data-name="Trazado 730937" d="M305.338,808.707c0,4.571,2.646,8.276,5.911,8.276s5.911-3.705,5.911-8.276-2.646-8.276-5.911-8.276-5.911,3.705-5.911,8.276" transform="translate(-249.865 -655.01)" fill="#fff"/>
      <path id="Trazado_730938" data-name="Trazado 730938" d="M383.353,809.528c0,4.571,2.646,8.276,5.911,8.276s5.911-3.705,5.911-8.276-2.646-8.276-5.911-8.276-5.911,3.705-5.911,8.276" transform="translate(-313.706 -655.682)" fill="#fff"/>
      <path id="Trazado_730939" data-name="Trazado 730939" d="M457.927,812.07c0,4.571,2.647,8.276,5.911,8.276s5.911-3.705,5.911-8.276-2.646-8.276-5.911-8.276-5.911,3.705-5.911,8.276" transform="translate(-374.731 -657.762)" fill="#fff"/>
      <path id="Trazado_730940" data-name="Trazado 730940" d="M537.586,807.833c0,4.571,2.646,8.276,5.911,8.276s5.911-3.705,5.911-8.276-2.646-8.276-5.911-8.276-5.911,3.705-5.911,8.276" transform="translate(-439.918 -654.295)" fill="#fff"/>
      <path id="Trazado_730941" data-name="Trazado 730941" d="M613.856,806.986c0,4.571,2.647,8.276,5.911,8.276s5.911-3.705,5.911-8.276-2.646-8.276-5.911-8.276-5.911,3.705-5.911,8.276" transform="translate(-502.331 -653.602)" fill="#fff"/>
      <path id="Trazado_730942" data-name="Trazado 730942" d="M309.8,858.345l-3.757,6.113a2.68,2.68,0,0,1-2.284,1.277h-1.61a2.68,2.68,0,0,1-2.292-1.291l-2.116-3.491a2.055,2.055,0,0,0-3.495-.034l-2.209,3.492a2.68,2.68,0,0,1-2.265,1.247h-1.589a2.681,2.681,0,0,1-2.326-1.348l-2.036-3.554a2.055,2.055,0,0,0-3.541-.043l-2.26,3.731a2.681,2.681,0,0,1-2.293,1.292h-1.6a2.68,2.68,0,0,1-2.292-1.291l-2.116-3.491a2.055,2.055,0,0,0-3.495-.034l-2.209,3.492a2.681,2.681,0,0,1-2.265,1.247h-1.6a2.68,2.68,0,0,1-2.314-1.328l-1.982-3.394a2.055,2.055,0,0,0-3.554.007l-2,3.453a2.68,2.68,0,0,1-2.32,1.338h-1.563a2.68,2.68,0,0,1-2.292-1.291l-2.116-3.491a2.055,2.055,0,0,0-3.495-.034l-2.209,3.492a2.68,2.68,0,0,1-2.265,1.247h-1.456a2.879,2.879,0,0,1-2.511-1.471l-3.255-6.15Z" transform="translate(-185.611 -702.15)" fill="#deb08e"/>
      <path id="Trazado_730943" data-name="Trazado 730943" d="M228.505,862.088a.173.173,0,0,1-.153-.092l-2.466-4.658a.173.173,0,1,1,.306-.162l2.466,4.658a.173.173,0,0,1-.153.254" transform="translate(-184.831 -701.37)" fill="#382118"/>
      <path id="Trazado_730944" data-name="Trazado 730944" d="M289.934,870.627a.173.173,0,0,1-.155-.1l-.119-.242c-.527-1.077-1.321-2.7-2.625-2.53-1.426.19-2.364,2.085-2.618,2.661a.173.173,0,0,1-.317-.14c.348-.792,1.328-2.656,2.889-2.864s2.411,1.555,2.981,2.721l.118.24a.173.173,0,0,1-.155.25" transform="translate(-232.474 -709.811)" fill="#382118"/>
      <path id="Trazado_730945" data-name="Trazado 730945" d="M365.615,871.031a.173.173,0,0,1-.151-.089c-.178-.322-.334-.673-.485-1.013-.478-1.079-.929-2.1-2.078-2.328-1.411-.234-2.455.74-3.279,3.07a.173.173,0,1,1-.326-.115c.322-.912,1.3-3.688,3.668-3.295,1.33.266,1.839,1.416,2.331,2.528.148.333.3.677.471.985a.173.173,0,0,1-.067.235.171.171,0,0,1-.084.022" transform="translate(-294.011 -709.668)" fill="#382118"/>
      <path id="Trazado_730946" data-name="Trazado 730946" d="M435.762,870.927a.171.171,0,0,1-.052-.008.173.173,0,0,1-.113-.217c.632-2.018,1.788-3.21,3.254-3.357,1.006-.146,1.565.648,2.058,1.347.12.171.244.347.371.505a6.538,6.538,0,0,1,.457.834,6.885,6.885,0,0,0,.321.612.173.173,0,1,1-.295.181,7.162,7.162,0,0,1-.337-.642A6.344,6.344,0,0,0,441,869.4c-.124-.155-.251-.335-.374-.51-.477-.678-.927-1.318-1.733-1.2-1.787.179-2.625,2.03-2.965,3.117a.173.173,0,0,1-.165.121" transform="translate(-356.452 -709.753)" fill="#382118"/>
      <path id="Trazado_730947" data-name="Trazado 730947" d="M511.6,871.18l-.027,0a.173.173,0,0,1-.145-.2,4.259,4.259,0,0,1,.823-1.643,8.06,8.06,0,0,0,.448-.7,2.792,2.792,0,0,1,2.123-1.578c1.887-.147,2.649,1.783,3.208,3.195.042.106.082.208.122.307a.173.173,0,0,1-.321.129c-.04-.1-.081-.2-.123-.309-.547-1.384-1.228-3.111-2.858-2.977A2.451,2.451,0,0,0,513,868.8a8.342,8.342,0,0,1-.468.73,4.033,4.033,0,0,0-.767,1.5.173.173,0,0,1-.171.147" transform="translate(-418.509 -709.529)" fill="#382118"/>
      <path id="Trazado_730948" data-name="Trazado 730948" d="M597.074,869.968a.173.173,0,0,1-.159-.1c-.062-.144-.125-.3-.19-.458-.474-1.164-1.063-2.611-2.373-2.692-1.433-.085-2.432,1.924-2.759,2.585a.173.173,0,1,1-.31-.153c.61-1.236,1.6-2.867,3.09-2.777,1.527.094,2.189,1.72,2.672,2.907.064.158.126.31.188.452a.173.173,0,0,1-.159.241" transform="translate(-483.845 -708.965)" fill="#382118"/>
      <path id="Trazado_730949" data-name="Trazado 730949" d="M289.934,944.891a.173.173,0,0,1-.155-.1l-.119-.242c-.526-1.077-1.322-2.7-2.625-2.53-1.426.19-2.364,2.085-2.618,2.661a.173.173,0,0,1-.317-.14c.348-.792,1.328-2.656,2.889-2.864s2.411,1.555,2.981,2.721l.118.24a.173.173,0,0,1-.155.25" transform="translate(-232.474 -770.583)" fill="#382118"/>
      <path id="Trazado_730950" data-name="Trazado 730950" d="M365.615,945.294a.173.173,0,0,1-.151-.089c-.178-.322-.334-.673-.485-1.013-.478-1.079-.929-2.1-2.078-2.328-1.411-.234-2.455.74-3.279,3.07a.173.173,0,1,1-.326-.115c.322-.912,1.3-3.69,3.668-3.295,1.33.266,1.839,1.416,2.331,2.528.148.333.3.677.471.985a.173.173,0,0,1-.067.235.171.171,0,0,1-.084.022" transform="translate(-294.011 -770.438)" fill="#382118"/>
      <path id="Trazado_730951" data-name="Trazado 730951" d="M435.762,945.191a.17.17,0,0,1-.052-.008.173.173,0,0,1-.113-.217c.632-2.018,1.788-3.21,3.254-3.357,1.006-.146,1.565.648,2.058,1.347.12.171.244.347.371.505a6.538,6.538,0,0,1,.457.834,6.893,6.893,0,0,0,.321.612.173.173,0,1,1-.295.181,7.152,7.152,0,0,1-.337-.642,6.34,6.34,0,0,0-.425-.781c-.124-.155-.251-.335-.374-.51-.477-.678-.927-1.319-1.733-1.2-1.787.179-2.625,2.03-2.965,3.117a.173.173,0,0,1-.165.121" transform="translate(-356.452 -770.525)" fill="#382118"/>
      <path id="Trazado_730952" data-name="Trazado 730952" d="M511.6,945.443l-.027,0a.173.173,0,0,1-.145-.2,4.26,4.26,0,0,1,.823-1.643,8.069,8.069,0,0,0,.448-.7,2.792,2.792,0,0,1,2.123-1.578c1.887-.148,2.649,1.783,3.208,3.195.042.106.082.208.122.307a.173.173,0,0,1-.321.129c-.04-.1-.081-.2-.123-.309-.547-1.384-1.228-3.107-2.858-2.977a2.451,2.451,0,0,0-1.846,1.4,8.342,8.342,0,0,1-.468.73,4.033,4.033,0,0,0-.767,1.5.173.173,0,0,1-.171.147" transform="translate(-418.509 -770.3)" fill="#382118"/>
      <path id="Trazado_730953" data-name="Trazado 730953" d="M597.074,944.231a.173.173,0,0,1-.159-.1c-.062-.144-.125-.3-.19-.458-.474-1.163-1.063-2.611-2.373-2.692-1.433-.085-2.432,1.924-2.759,2.585a.173.173,0,1,1-.31-.153c.61-1.236,1.6-2.87,3.09-2.777,1.527.094,2.189,1.72,2.672,2.907.064.158.126.31.188.452a.174.174,0,0,1-.091.227.177.177,0,0,1-.068.014" transform="translate(-483.845 -769.735)" fill="#382118"/>
      <path id="Trazado_730954" data-name="Trazado 730954" d="M320.362,803.965a.173.173,0,0,1-.166-.124c-.673-2.281-3.32-4.358-5.858-3.723a5.642,5.642,0,0,0-3.825,3.576.173.173,0,1,1-.325-.119,5.985,5.985,0,0,1,4.062-3.792c2.725-.681,5.561,1.529,6.277,3.96a.173.173,0,0,1-.166.222" transform="translate(-253.825 -654.378)" fill="#382118"/>
      <path id="Trazado_730955" data-name="Trazado 730955" d="M319.532,760.093a.173.173,0,0,1-.168-.132,7.788,7.788,0,0,0-3.156-5.056,4.252,4.252,0,0,0-3.3-.506,6.391,6.391,0,0,0-3.943,3.955.173.173,0,1,1-.325-.119,6.751,6.751,0,0,1,4.181-4.171,4.6,4.6,0,0,1,3.566.545,8.117,8.117,0,0,1,3.313,5.271.173.173,0,0,1-.128.209.163.163,0,0,1-.041,0" transform="translate(-252.559 -616.949)" fill="#382118"/>
      <path id="Trazado_730956" data-name="Trazado 730956" d="M397.31,803.965a.173.173,0,0,1-.166-.124c-.673-2.281-3.321-4.358-5.858-3.723a5.642,5.642,0,0,0-3.825,3.576.173.173,0,1,1-.325-.119,5.986,5.986,0,0,1,4.062-3.792c2.724-.681,5.56,1.529,6.277,3.96a.173.173,0,0,1-.117.215.17.17,0,0,1-.049.007" transform="translate(-316.793 -654.378)" fill="#382118"/>
      <path id="Trazado_730957" data-name="Trazado 730957" d="M398.269,760.788a.173.173,0,0,1-.168-.132,7.437,7.437,0,0,0-3.116-4.827,4.79,4.79,0,0,0-3.664-.572,5.649,5.649,0,0,0-3.618,3.793.173.173,0,1,1-.325-.119,5.982,5.982,0,0,1,3.856-4.009,5.134,5.134,0,0,1,3.931.611,7.63,7.63,0,0,1,3.273,5.042.173.173,0,0,1-.128.209.166.166,0,0,1-.041,0" transform="translate(-316.991 -617.643)" fill="#382118"/>
      <path id="Trazado_730958" data-name="Trazado 730958" d="M472.469,807.545a.173.173,0,0,1-.166-.124c-.673-2.281-3.32-4.357-5.858-3.723a5.642,5.642,0,0,0-3.825,3.577.173.173,0,0,1-.325-.119,5.984,5.984,0,0,1,4.062-3.792c2.725-.681,5.561,1.529,6.277,3.96a.173.173,0,0,1-.166.222" transform="translate(-378.297 -657.307)" fill="#382118"/>
      <path id="Trazado_730959" data-name="Trazado 730959" d="M540.543,803.329a.173.173,0,0,1-.162-.233,6.953,6.953,0,0,1,4.344-4.171c2.7-.676,5.654,1.693,6.388,4.182a.173.173,0,1,1-.332.1c-.677-2.294-3.491-4.565-5.969-3.945a6.588,6.588,0,0,0-4.106,3.956.173.173,0,0,1-.162.114" transform="translate(-442.196 -653.682)" fill="#382118"/>
      <path id="Trazado_730960" data-name="Trazado 730960" d="M471.639,764.366a.173.173,0,0,1-.168-.132,7.437,7.437,0,0,0-3.116-4.827,4.789,4.789,0,0,0-3.664-.573,5.649,5.649,0,0,0-3.618,3.793.173.173,0,1,1-.325-.119A5.982,5.982,0,0,1,464.6,758.5a5.133,5.133,0,0,1,3.931.611,7.63,7.63,0,0,1,3.273,5.042.173.173,0,0,1-.128.209.166.166,0,0,1-.041,0" transform="translate(-377.031 -620.572)" fill="#382118"/>
    </g>
  </g>
</svg>
