<svg id="Grupo_997223" data-name="Grupo 997223" xmlns="http://www.w3.org/2000/svg" xmlns:xlink="http://www.w3.org/1999/xlink" width="224.356" height="190.014" viewBox="0 0 224.356 190.014">
  <defs>
    <clipPath id="clip-path">
      <rect id="Rectángulo_349650" data-name="Rectángulo 349650" width="224.357" height="190.014" fill="none"/>
    </clipPath>
  </defs>
  <g id="Grupo_997222" data-name="Grupo 997222" clip-path="url(#clip-path)">
    <path id="Trazado_731257" data-name="Trazado 731257" d="M218.392,36.019s-1.032-22.308-3.046-25.954c0,0-4.04-5.468-8.7-7.7l-2.228,8.507s5.469,1.216,6.076,5.064l2.228,21.673Z" transform="translate(-48.434 -0.561)" fill="#353535"/>
    <path id="Trazado_731258" data-name="Trazado 731258" d="M224.783,45.635l-17.179.636,4.556,42.912h11.647Z" transform="translate(-49.189 -10.813)" fill="#4d4c4c"/>
    <path id="Trazado_731259" data-name="Trazado 731259" d="M28.6,176.1c14.022,9.782,37.467,8,53.731,8.754,8.754.407,17.663.877,26.652,1.276,28.831,1.289,58.465,1.868,86.321-2.6,5.293-.851,14.792-2.979,18.275-7.468,2.568-3.309,2.607-12.393,2.844-17.467.413-8.906,1.473-17.969.119-26.616-1.691-10.823-.719-20.135-11.2-26.1-15.518-8.827-39.592-9.246-57.45-10.5q-7.805-.547-15.626-.776-4.716-.145-9.438-.2c-1.68-.018-3.488.069-5.372.2a4.685,4.685,0,0,1-.211,1.355,4.454,4.454,0,0,1-.344.8c-2.5,4.492-10.654,4.488-14.887,4.711a125.46,125.46,0,0,0-14.447,2c-7.064,1.206-14.077,2.153-21.251.282C58.9,101.817,50.4,99.03,45.105,93.141A14.057,14.057,0,0,1,43.4,90.8a34.752,34.752,0,0,0-6.572,1.438c-9.092,2.981-10.8,10.986-11.118,19.641-.148,4.031.008,8.2-.142,12.076,0,.077-.006.153-.008.229-.361,9.848.6,20.164-.978,29.841C23.4,161.221,21.349,171.037,28.6,176.1" transform="translate(-5.54 -21.515)" fill="#e9242a"/>
    <path id="Trazado_731260" data-name="Trazado 731260" d="M29.57,182.191c16.626,9.782,44.423,8,63.707,8.754,10.379.407,20.943.877,31.6,1.276,1.3-6.4.063-14.546,0-18.433-.264-16.031-10.382-28.213-24.116-39.348-13.652-11.068-32.516-14.749-50.4-17.119-9.277-1.229-17.156-1.059-24.224.656-.176,4.031.009,8.2-.169,12.076,0,.077-.007.153-.009.229-.428,9.848.713,20.164-1.16,29.841-1.393,7.193-3.828,17.008,4.771,22.069" transform="translate(-5.54 -27.608)" fill="#9f1d21"/>
    <path id="Trazado_731261" data-name="Trazado 731261" d="M51.008,82.872c-.53-6.057-.153-12.418-.472-17.018-.253-3.658-1.824-14.292,5.4-9.724C59.91,58.638,60.59,68.5,61.254,72.6l0,.007c1.892,11.661,3.193,15.77,15.816,17.488,4.378.6,10.472-.707,14.617.711,5.6,1.916,6.117,6.62,1.17,9.62-7.377,4.473-29.642,3.5-36.27-2.639-3.695-3.421-5.064-9.023-5.58-14.911" transform="translate(-11.899 -13.034)" fill="#2e1d1f"/>
    <path id="Trazado_731262" data-name="Trazado 731262" d="M90.405,69.684H90.4C87.891,64.037,92.643,58.867,95.011,54c2.771-5.7,11.3-12.8,9.207-1.646-.873,4.639-7.905,17.871-13.813,17.329" transform="translate(-21.25 -11.01)" fill="#2e1d1f"/>
    <path id="Trazado_731263" data-name="Trazado 731263" d="M108.273,71.209l.368.422c.23.271.579.646.96,1.119l1.321,1.6c.48.587.96,1.229,1.458,1.863s.956,1.286,1.4,1.891l.633.875c.2.278.37.55.537.8l1.1,1.651,8.2-5.22L123,74.32c-.19-.28-.388-.593-.613-.907l-.712-.986c-.5-.681-1.011-1.422-1.568-2.118s-1.089-1.421-1.617-2.066l-1.451-1.756c-.42-.52-.793-.923-1.044-1.218l-.4-.458Z" transform="translate(-25.654 -15.356)" fill="#2e1d1f"/>
    <path id="Trazado_731264" data-name="Trazado 731264" d="M99.423,62.71l1.256,1.275c.764.76,1.733,1.8,2.719,2.829.952,1.048,1.927,2.084,2.608,2.888l1.158,1.328,3.7-3.151L109.66,66.5c-.714-.841-1.721-1.911-2.709-3-1.016-1.062-2.019-2.137-2.8-2.915l-1.29-1.309Z" transform="translate(-23.557 -14.044)" fill="#2e1d1f"/>
    <path id="Trazado_731265" data-name="Trazado 731265" d="M127.563,62.365c-1.124,1.376-6.161,4.8-7.765,8.033-1.78,3.584-1.566,8-1.927,12.053-.826,9.277,2.862,17.157,12.713,20.5a17.473,17.473,0,0,0,17.033-2.9c4.824-3.8,4-6.155,1.38-11.683-2.04-4.3-17.693-28.081-20.826-26.6Z" transform="translate(-27.901 -14.617)" fill="#231f20"/>
    <path id="Trazado_731266" data-name="Trazado 731266" d="M25.812,100.274a37.455,37.455,0,0,0,.318,5.094c1.545,11.237,8.758,13.2,22.12,16.8,22.879,6.174,54.363,6.7,76.615-2.43a70.086,70.086,0,0,1,10.937-3.662l-2.963-40.292-.076-1.031C117.053,50,103.958,15.623,70.781,12.127c-5.976-.63-12.205.326-18.215.031-5.169-.253-11.779-2.018-16.408.763-8.671,5.209-6.307,18.711-7.445,27.192-2.635,19.655-2.933,40.63-2.9,60.162m16.233-46.08c-.06-7.53-6.32-29.675,2.662-34.268,4.762-2.436,11.754-.6,16.787-.206a66.194,66.194,0,0,1,19.337,4.59c8.5,3.455,13.682,9.884,18.111,17.761,4.677,8.317,10.654,15.679,14.883,24.021,1.418,2.8,4.241,6.49,4.2,9.694a4.489,4.489,0,0,1-.555,2.153c-2.5,4.492-10.654,4.488-14.887,4.711-12.124.636-23.681,5.414-35.7,2.279-7.095-1.85-15.762-4.324-20.771-10.1q-.224-.26-.433-.521c-4.7-5.9-3.581-12.97-3.638-20.117" transform="translate(-6.115 -2.695)" fill="#9f1d21"/>
    <path id="Trazado_731267" data-name="Trazado 731267" d="M240.578,129.469c-.384,3.6-1.492,11.908-4.121,5.335-1.406-3.515-1.018-11.084-.948-15.145.06-3.517.668-6.959,3.3-4.606,3.126,2.794,2.195,10.427,1.77,14.415" transform="translate(-55.776 -27.077)" fill="#9f1d21"/>
    <path id="Trazado_731268" data-name="Trazado 731268" d="M254.64,129.469c-.384,3.6-1.493,11.908-4.121,5.335-1.406-3.515-1.018-11.084-.948-15.145.06-3.517.668-6.959,3.3-4.606,3.126,2.794,2.194,10.427,1.77,14.415" transform="translate(-59.108 -27.077)" fill="#9f1d21"/>
    <path id="Trazado_731269" data-name="Trazado 731269" d="M227.9,129.469c-.384,3.6-1.493,11.908-4.121,5.335-1.406-3.515-1.018-11.084-.948-15.145.06-3.517.668-6.959,3.3-4.606,3.126,2.794,2.195,10.427,1.77,14.415" transform="translate(-52.773 -27.077)" fill="#9f1d21"/>
    <path id="Trazado_731270" data-name="Trazado 731270" d="M107.493,105.069c1.027,2.388,8.669,11.248,10.514,13.686,5.752,7.591,8.705,17.4,14.583,24.915,3.4,4.344,5.617,3.787,10.939,1.063,5.612-2.872,5.451-4.984,4.863-10.785-.713-7.03-3.188-13.451-4.922-20.23-1.1-4.31-.926-11.211-4.233-14.6a8.258,8.258,0,0,0-2.066-1.557,4.4,4.4,0,0,1-.344.8c-2.5,4.492-10.654,4.488-14.887,4.711a125.45,125.45,0,0,0-14.448,2" transform="translate(-25.469 -23.116)" fill="#4d4c4c"/>
    <path id="Trazado_731271" data-name="Trazado 731271" d="M94.342,145.847c2.594,4.371,3.41,9.717,5.276,14.4,2.066,5.192,3.484,9.246,6.6,3.111,3.76-7.393-.82-19.2-4.423-25.689C93.114,122.033,76.727,109.2,60.207,102.7,47.97,97.894.16,88.31,4.967,113.415c9.15.3,19.4-4.244,29.077-2.812,10.442,1.547,21.095,5.918,31.008,10.365,11.716,5.256,22.86,14.045,29.29,24.88" transform="translate(-1.097 -22.944)" fill="#e9242a"/>
    <path id="Trazado_731272" data-name="Trazado 731272" d="M204.291,153.733A41.161,41.161,0,0,0,179.933,179.6c-1.4,4.526-3.978,10.13,1.182,12.852,4.849,2.558,12.52-2.382,14.562-6.76,3.494-7.5,4.13-14.564,12.014-19.792,5.844-3.876,15.354-5.868,22.27-5.951,4.578-.054,8.563,2.129,12.723,2.578,7.535.812,3.277-3.288-.074-5.823-10.774-8.15-26.18-7.573-38.319-2.972" transform="translate(-42.184 -35.634)" fill="#9f1d21"/>
    <path id="Trazado_731273" data-name="Trazado 731273" d="M264.671,143.983c11.316,13.046,21.2-2.552,18.482-14.682-2.043-9.129-12.812-23.691-20.323-10.124-4.4,7.948-4.374,17.641,1.841,24.806" transform="translate(-61.541 -26.928)" fill="#9f1d21"/>
    <path id="Trazado_731274" data-name="Trazado 731274" d="M276.83,146.693c-5.937-1.143-8.556-12.424-8.211-18.605.465-8.332,8.954-11.7,15.457-5.277,5.084,5.019,5.368,16.008-.023,20.929-2.8,2.558-5.2,3.342-7.224,2.953" transform="translate(-63.638 -28.303)" fill="#ecdb61"/>
    <path id="Trazado_731275" data-name="Trazado 731275" d="M71.332,23.325c6.67,0,13.4.214,20.009.61,4.1.245,10.588,1.742,14.136,1.284,5.078-.655,5.586-3.068,3.8-5.922a46.68,46.68,0,0,0-5.322-7.347,4.712,4.712,0,0,0-2.09-2.129c-2.42-1.488-6.239-2.556-8.357-3.384C88.453,4.464,82.409,3.443,76.647,2.7,62.48.859,35.893-4.134,26.5,7.152A13.59,13.59,0,0,0,25.435,8.62C13.44,27.747,57.972,23.333,71.332,23.325" transform="translate(-5.546 0)" fill="#231f20"/>
    <path id="Trazado_731276" data-name="Trazado 731276" d="M168.233,217.373c3.084.157,6.165.232,9.232.149,3.447-.094,8.126.749,10.03-3.082,3.123-6.286-6.759-5.2-10.051-5.528-7.135-.715-14.391-.678-21.567-.912-15.843-.518-31.642-2.8-47.467-3.577-4.748-.233-15.692-1.134-14.813,6.313,1,8.5,16.4,5.417,21.676,5.112,17.772-1.027,35.244.624,52.96,1.526" transform="translate(-22.164 -48.397)" fill="#231f20"/>
    <path id="Trazado_731277" data-name="Trazado 731277" d="M6.371,176.158A41.019,41.019,0,1,0,47.39,135.139,41.019,41.019,0,0,0,6.371,176.158" transform="translate(-1.51 -32.019)" fill="#2e1d1f"/>
    <path id="Trazado_731278" data-name="Trazado 731278" d="M12.552,202.941l-.226-.577-.261-.661-.16-.407q-.073-.219-.154-.459L11.4,199.8c-.121-.367-.22-.764-.339-1.168-.059-.2-.118-.41-.177-.618s-.1-.426-.151-.642c-.1-.433-.208-.869-.3-1.31s-.158-.887-.236-1.324c-.02-.109-.04-.218-.059-.326s-.027-.218-.041-.326q-.041-.324-.081-.639c-.126-.836-.163-1.626-.218-2.3-.034-.337-.038-.647-.043-.923s-.013-.515-.018-.713c-.011-.4-.018-.621-.018-.621H0s.007.285.018.785c.007.25.014.552.023.9s.016.74.055,1.167c.068.855.122,1.854.277,2.916.034.266.069.536.1.81.018.137.036.274.054.412L.6,196.3l.3,1.681c.113.561.251,1.117.375,1.667.066.274.122.548.195.814s.15.529.222.787c.15.515.28,1.018.434,1.485l.443,1.314q.1.3.2.583l.2.518.331.841.289.731Z" transform="translate(0 -44.756)" fill="#2e1d1f"/>
    <path id="Trazado_731279" data-name="Trazado 731279" d="M20.477,216.011l-.092-.106c-.062-.067-.148-.17-.251-.306l-.874-1.113c-.178-.233-.355-.5-.551-.768s-.407-.556-.606-.863c-.386-.621-.836-1.261-1.207-1.947-.192-.34-.4-.673-.575-1.012l-.514-1c-.082-.163-.168-.321-.244-.479l-.211-.471c-.138-.3-.269-.594-.39-.86s-.214-.517-.3-.737l-.225-.572-.2-.5-4.562,1.681.223.566.256.649c.1.25.2.538.346.837l.441.977.241.533c.087.179.183.359.277.545.188.369.385.751.583,1.139s.434.763.652,1.148c.424.778.929,1.506,1.37,2.209.227.347.469.668.687.98s.424.606.625.87l.991,1.261c.118.154.216.27.285.347l.1.121Z" transform="translate(-2.292 -48.637)" fill="#2e1d1f"/>
    <path id="Trazado_731280" data-name="Trazado 731280" d="M32.726,228.284,32.174,228c-.353-.178-.832-.475-1.421-.806-.3-.16-.6-.369-.927-.576l-.5-.321c-.172-.109-.349-.219-.518-.346l-1.062-.755c-.361-.259-.706-.55-1.064-.825a34.917,34.917,0,0,1-3.654-3.351c-.232-.246-.451-.465-.635-.671l-.465-.539-.407-.469L14.075,225.6l.514.6.591.681c.233.259.508.539.8.852a44.675,44.675,0,0,0,4.63,4.246c.452.349.894.715,1.349,1.044l1.348.958c.216.159.439.3.656.439l.636.408c.416.262.8.523,1.177.73.746.424,1.358.794,1.8,1.022l.7.359Z" transform="translate(-3.335 -51.97)" fill="#2e1d1f"/>
    <path id="Trazado_731281" data-name="Trazado 731281" d="M47.518,234.241l-.528-.094c-.167-.033-.373-.059-.6-.114l-.777-.181c-.285-.067-.6-.132-.919-.214l-1.013-.288-.536-.151c-.182-.051-.359-.12-.541-.179l-1.1-.372c-.367-.13-.726-.284-1.084-.421s-.711-.272-1.041-.431c-.664-.3-1.293-.569-1.807-.851l-.71-.363-.3-.152-.245-.141-.465-.268-2.418,4.217.527.3.278.159.337.173.806.413c.584.317,1.3.622,2.052.966.374.179.777.328,1.181.489s.814.33,1.232.478l1.251.423c.208.068.41.144.615.2l.608.172,1.151.327c.369.094.72.169,1.043.245l.883.2c.262.062.5.093.686.13l.6.108Z" transform="translate(-7.921 -54.5)" fill="#2e1d1f"/>
    <path id="Trazado_731282" data-name="Trazado 731282" d="M65.7,235.086l-.6.14c-.385.085-.942.17-1.606.295-.33.069-.7.1-1.08.153s-.789.109-1.21.147c-.844.059-1.742.15-2.647.151-.9.046-1.806-.007-2.653-.021-.423-.02-.829-.061-1.216-.088s-.753-.047-1.087-.1c-.67-.091-1.232-.147-1.62-.214l-.61-.11-1.677,9.577.775.137c.494.083,1.2.162,2.055.272.425.063.889.089,1.379.128s1.006.082,1.541.108c1.07.024,2.212.08,3.354.028,1.142-.006,2.282-.113,3.35-.194.534-.049,1.047-.126,1.535-.185s.949-.112,1.371-.2c.844-.153,1.551-.268,2.04-.375l.767-.176Z" transform="translate(-11.774 -55.7)" fill="#2e1d1f"/>
    <path id="Trazado_731283" data-name="Trazado 731283" d="M80.193,229.929l-.465.268c-.291.179-.728.4-1.248.662a34.253,34.253,0,0,1-8.031,2.941c-.571.127-1.042.253-1.38.3l-.528.094.858,4.785.6-.107c.383-.056.919-.2,1.567-.341a39.142,39.142,0,0,0,9.119-3.339c.591-.3,1.086-.55,1.416-.752l.528-.3Z" transform="translate(-16.24 -54.478)" fill="#2e1d1f"/>
    <path id="Trazado_731284" data-name="Trazado 731284" d="M94.561,217.5l-.384.488-.439.56c-.168.217-.381.444-.6.7a35.153,35.153,0,0,1-3.483,3.528,36.152,36.152,0,0,1-3.928,3.023c-.572.36-1.039.676-1.38.875l-.537.308L88.68,235.4l.681-.393c.431-.254,1.027-.65,1.75-1.111a45.926,45.926,0,0,0,4.981-3.831,44.93,44.93,0,0,0,4.414-4.472c.278-.326.543-.616.758-.89l.559-.709.485-.619Z" transform="translate(-19.858 -51.533)" fill="#2e1d1f"/>
    <path id="Trazado_731285" data-name="Trazado 731285" d="M102.741,205.1a1.213,1.213,0,0,1-.048.131c-.034.085-.083.21-.146.368-.128.316-.3.773-.523,1.312l-.39.86c-.14.3-.274.632-.449.953l-.514,1c-.084.173-.179.342-.278.509l-.292.506c-.373.686-.809,1.334-1.2,1.951-.189.314-.41.591-.6.868l-.547.771-.874,1.113c-.105.134-.186.241-.246.311l-.092.106,3.734,3.113.1-.121c.067-.079.159-.2.279-.352l.99-1.263.621-.873c.216-.313.464-.63.68-.984.446-.7.938-1.436,1.364-2.213l.33-.575c.112-.19.22-.382.315-.577l.584-1.138c.2-.366.352-.736.51-1.082l.442-.977c.256-.612.449-1.13.594-1.49l.165-.418c.039-.1.055-.15.055-.15Z" transform="translate(-22.874 -48.596)" fill="#2e1d1f"/>
    <path id="Trazado_731286" data-name="Trazado 731286" d="M106.792,186.379s.005.226.014.621c.005.2.011.437.018.713,0,.137.008.284.012.438s-.008.317-.011.486c-.02.678-.021,1.469-.1,2.311q-.024.316-.048.643c-.009.108-.014.217-.026.327s-.028.218-.043.329c-.056.44-.112.887-.169,1.335s-.157.887-.232,1.324c-.04.218-.072.436-.118.649s-.1.42-.146.626c-.1.411-.179.811-.28,1.184l-.3,1.049-.132.466c-.043.148-.095.285-.137.415-.089.259-.165.486-.228.673l-.2.587,9.137,3.326s.092-.272.253-.746c.08-.237.177-.526.289-.856.054-.166.118-.34.173-.527s.111-.386.169-.593c.118-.413.244-.86.378-1.334s.234-.983.359-1.5c.06-.262.121-.528.182-.8s.1-.546.153-.823c.1-.555.206-1.116.291-1.683s.144-1.135.216-1.693c.018-.14.034-.279.052-.417s.023-.278.034-.415c.021-.275.042-.546.063-.813.1-1.068.109-2.067.131-2.923,0-.214.011-.42.012-.615s-.009-.38-.013-.554c-.008-.348-.016-.651-.022-.9-.014-.5-.021-.785-.021-.785Z" transform="translate(-24.799 -44.047)" fill="#2e1d1f"/>
    <path id="Trazado_731287" data-name="Trazado 731287" d="M104.666,172.168l.171.508.2.582c.072.226.172.475.245.759a35.933,35.933,0,0,1,.99,4.168,36.75,36.75,0,0,1,.5,4.259c.031.291.021.562.031.8s.011.446.016.617c.009.342.015.537.015.537l4.861-.018s-.006-.221-.015-.608c-.005-.194-.011-.429-.018-.7s0-.575-.036-.9-.052-.69-.081-1.069-.052-.78-.113-1.19-.106-.837-.161-1.269l-.041-.325-.057-.325c-.038-.217-.078-.435-.117-.652a40.725,40.725,0,0,0-1.126-4.733c-.084-.322-.195-.606-.277-.862s-.162-.478-.224-.662l-.195-.577Z" transform="translate(-24.799 -40.399)" fill="#2e1d1f"/>
    <path id="Trazado_731288" data-name="Trazado 731288" d="M94.856,154.619l.112.117c.074.076.182.188.308.34.256.3.633.721,1.066,1.24a40,40,0,0,1,2.872,4.04c.234.385.45.781.675,1.163.108.194.227.379.324.575s.2.385.292.573l.285.553c.094.18.185.357.261.536l.449.994c.069.155.14.3.2.443s.11.279.159.407l.261.661.169.426c.04.1.056.151.056.151l9.136-3.326s-.021-.068-.072-.192l-.212-.542-.331-.84-.2-.517c-.074-.181-.163-.367-.25-.563l-.572-1.263c-.1-.226-.213-.451-.331-.68l-.359-.7q-.184-.358-.374-.726c-.124-.247-.272-.485-.409-.73-.283-.487-.56-.987-.858-1.476a49.621,49.621,0,0,0-3.641-5.123c-.549-.659-1.025-1.192-1.351-1.572-.162-.191-.3-.333-.39-.43l-.141-.149Z" transform="translate(-22.475 -35.067)" fill="#2e1d1f"/>
    <path id="Trazado_731289" data-name="Trazado 731289" d="M83.811,146.553l.465.267c.15.081.325.192.524.322l.672.431c.5.3,1.045.718,1.646,1.136.3.2.591.452.9.686l.456.358c.154.119.308.239.452.37.588.514,1.19,1.013,1.708,1.531.262.255.526.491.761.732l.652.685c.2.214.393.4.547.581l.4.466.352.406,3.711-3.142-.4-.459L96.2,150.4c-.175-.2-.393-.418-.62-.661l-.739-.775c-.266-.272-.563-.542-.862-.83-.588-.586-1.268-1.154-1.936-1.734-.165-.148-.339-.285-.513-.42l-.517-.407c-.346-.265-.672-.544-1.016-.777-.68-.476-1.3-.945-1.866-1.289l-.763-.489c-.226-.147-.424-.272-.594-.366l-.527-.3Z" transform="translate(-19.858 -33.726)" fill="#2e1d1f"/>
    <path id="Trazado_731290" data-name="Trazado 731290" d="M66.026,138.894l.615.078c.394.035.945.154,1.611.267l.519.092c.179.037.361.083.55.126l1.187.272,1.252.354c.212.063.43.114.643.188l.639.217c.86.269,1.691.62,2.478.925.388.166.757.341,1.111.5l.514.232c.165.077.319.163.47.238l.821.42.342.176.283.163.536.31,4.869-8.417-.682-.391-.359-.206-.433-.224-1.042-.534c-.192-.1-.389-.2-.6-.3l-.652-.3c-.449-.2-.919-.42-1.412-.631-1-.395-2.056-.832-3.149-1.178L75.323,131c-.269-.092-.546-.161-.816-.241-.543-.153-1.074-.308-1.593-.447l-1.507-.349c-.24-.053-.472-.111-.7-.157l-.659-.118c-.845-.147-1.547-.289-2.045-.34l-.781-.1Z" transform="translate(-15.644 -30.623)" fill="#2e1d1f"/>
    <path id="Trazado_731291" data-name="Trazado 731291" d="M51.632,140.557l.527-.1c.168-.034.373-.062.609-.089l.792-.1A38.428,38.428,0,0,1,57.846,140c.391,0,.781.019,1.166.027s.765.008,1.129.046l1.052.08c.167.014.331.021.488.04l.453.059c.58.077,1.065.128,1.4.182l.527.1.82-4.792-.6-.107c-.382-.061-.932-.122-1.591-.208l-.514-.066c-.177-.021-.362-.029-.552-.045l-1.193-.091c-.414-.041-.842-.04-1.278-.053s-.878-.026-1.32-.029a43.488,43.488,0,0,0-4.855.3l-.9.114c-.268.031-.5.063-.691.1l-.6.107Z" transform="translate(-12.035 -32.02)" fill="#2e1d1f"/>
    <path id="Trazado_731292" data-name="Trazado 731292" d="M32.789,144.5l.522-.335c.324-.224.823-.49,1.406-.831l.456-.263.5-.256,1.084-.555c.772-.341,1.583-.736,2.43-1.047.419-.166.836-.337,1.259-.469l1.233-.417,1.171-.331c.186-.052.366-.107.543-.153l.514-.118c.659-.146,1.2-.292,1.595-.347l.61-.108-1.677-9.577-.775.138c-.5.076-1.19.252-2.027.442l-.652.152c-.224.058-.453.126-.691.192l-1.488.423-1.569.527c-.537.171-1.068.386-1.6.6-1.074.4-2.108.893-3.087,1.333l-1.378.7-.637.328-.581.332c-.742.43-1.37.775-1.785,1.055l-.662.424Z" transform="translate(-6.517 -30.728)" fill="#2e1d1f"/>
    <path id="Trazado_731293" data-name="Trazado 731293" d="M22.676,154.654l.352-.405c.227-.255.531-.638.945-1.053s.866-.927,1.407-1.421c.269-.25.532-.522.823-.773l.881-.762c.289-.264.6-.494.9-.734s.594-.478.891-.691l.86-.61.4-.284.384-.247c.494-.313.9-.584,1.193-.759l.465-.266-2.45-4.2-.528.3c-.331.2-.793.5-1.353.861l-.435.281-.452.321-.975.693c-.337.242-.666.517-1.011.783s-.7.536-1.026.832l-1,.865c-.329.286-.63.592-.932.875l-.443.422-.214.2-.2.209-.739.776c-.467.472-.815.9-1.071,1.193l-.4.46Z" transform="translate(-4.491 -33.751)" fill="#2e1d1f"/>
    <path id="Trazado_731294" data-name="Trazado 731294" d="M11.953,169.076a1.254,1.254,0,0,1,.047-.155c.034-.1.084-.246.147-.433s.14-.414.228-.673.182-.556.313-.867l.4-1.015.108-.274.124-.274.257-.567c.33-.778.764-1.569,1.172-2.372a39.882,39.882,0,0,1,2.669-4.175c.4-.543.763-.977,1-1.291.121-.156.216-.278.288-.356l.106-.122-7.445-6.254-.134.156c-.09.1-.212.253-.366.451-.306.4-.76.948-1.271,1.637a49.559,49.559,0,0,0-3.385,5.3,48.3,48.3,0,0,0-2.62,5.718c-.163.4-.287.771-.4,1.1l-.289.855-.185.551c-.044.127-.06.2-.06.2Z" transform="translate(-0.63 -35.599)" fill="#2e1d1f"/>
    <path id="Trazado_731295" data-name="Trazado 731295" d="M11.232,184.584s.021-.781.054-1.954c.023-.291.047-.608.073-.942.012-.167.025-.34.038-.515s.026-.356.053-.536c.1-.723.167-1.5.325-2.268.07-.383.133-.768.207-1.145s.172-.742.254-1.1c.04-.179.081-.353.12-.525s.095-.335.139-.5l.258-.908c.04-.14.076-.276.115-.4s.084-.246.122-.358l.2-.583c.109-.323.171-.507.171-.507L8.785,170.7l-.2.577-.224.662q-.065.191-.137.407c-.046.144-.086.3-.132.458-.091.319-.189.665-.293,1.031-.05.183-.108.37-.156.564s-.091.393-.138.6c-.093.4-.189.822-.288,1.247s-.156.864-.236,1.3c-.176.868-.256,1.751-.368,2.573-.031.206-.047.409-.06.608s-.031.394-.045.584c-.028.379-.056.738-.081,1.068l-.061,2.212Z" transform="translate(-1.51 -40.445)" fill="#2e1d1f"/>
    <path id="Trazado_731296" data-name="Trazado 731296" d="M22.371,179.949a28.81,28.81,0,1,0,28.81-28.81,28.81,28.81,0,0,0-28.81,28.81" transform="translate(-5.3 -35.81)" fill="#5e5e5e"/>
    <path id="Trazado_731297" data-name="Trazado 731297" d="M209.091,200.956a25.718,25.718,0,1,0,25.718-25.718,25.718,25.718,0,0,0-25.718,25.718" transform="translate(-49.541 -41.52)" fill="#2e1d1f"/>
    <path id="Trazado_731298" data-name="Trazado 731298" d="M216.064,220.685s-.03-.039-.08-.115l-.213-.334-.332-.518-.4-.692a21.155,21.155,0,0,1-1.678-3.934,21.479,21.479,0,0,1-.827-4.2c-.022-.292-.043-.56-.061-.8s-.012-.446-.018-.617c-.01-.343-.015-.538-.015-.538H202.72s.006.285.018.784c.008.25.009.552.03.9s.056.739.088,1.166a31.22,31.22,0,0,0,1.217,6.164,30.875,30.875,0,0,0,2.464,5.782l.584,1.015c.183.3.35.55.484.762l.314.488c.074.111.117.169.117.169Z" transform="translate(-48.031 -49.505)" fill="#2e1d1f"/>
    <path id="Trazado_731299" data-name="Trazado 731299" d="M225.48,230.271l-.4-.23-.448-.289c-.172-.113-.373-.229-.576-.382a20.727,20.727,0,0,1-5.242-5.215l-.211-.3-.175-.277-.288-.448c-.083-.122-.137-.226-.176-.294l-.06-.105-4.194,2.459.074.13c.05.084.117.211.217.362l.355.552.218.34.259.366a25.592,25.592,0,0,0,6.458,6.423c.25.186.5.332.709.471l.553.355.5.286Z" transform="translate(-50.635 -52.774)" fill="#2e1d1f"/>
    <path id="Trazado_731300" data-name="Trazado 731300" d="M239.61,235.34l-.536.04-.618.014-.379.011-.421-.011a20.75,20.75,0,0,1-8.3-1.887c-.133-.061-.262-.115-.382-.174l-.336-.173-.548-.28-.464-.269-4.869,8.416.682.391.8.414.494.253c.175.085.365.168.559.257a30.474,30.474,0,0,0,12.182,2.774c.214,0,.419.012.613.012l.554-.013.9-.024c.5-.03.784-.054.784-.054Z" transform="translate(-52.778 -55.114)" fill="#2e1d1f"/>
    <path id="Trazado_731301" data-name="Trazado 731301" d="M253.254,232.611l-.4.232c-.126.076-.29.15-.472.246s-.386.206-.617.311a20.646,20.646,0,0,1-3.473,1.28,21.179,21.179,0,0,1-3.649.643l-.69.053c-.206.009-.386.009-.534.014l-.466.012.027,4.861.572-.015c.182-.005.4-.007.656-.019l.85-.064a25.975,25.975,0,0,0,4.5-.794,25.554,25.554,0,0,0,4.289-1.581c.284-.13.534-.269.762-.382s.425-.211.581-.3l.5-.285Z" transform="translate(-57.564 -55.114)" fill="#2e1d1f"/>
    <path id="Trazado_731302" data-name="Trazado 731302" d="M264.828,220.8l-.246.476c-.081.15-.163.34-.286.544l-.4.692a20.759,20.759,0,0,1-2.582,3.421,21.311,21.311,0,0,1-3.224,2.826c-.469.351-.894.593-1.177.784-.143.093-.263.153-.341.2l-.122.069,4.869,8.417.179-.1c.114-.069.289-.161.5-.3.418-.275,1.035-.639,1.725-1.147a31.076,31.076,0,0,0,4.717-4.137,30.632,30.632,0,0,0,3.779-5.01c.214-.372.411-.713.584-1.015s.3-.577.422-.8l.357-.7Z" transform="translate(-60.763 -52.315)" fill="#2e1d1f"/>
    <path id="Trazado_731303" data-name="Trazado 731303" d="M269.277,208.941s0,.169-.013.465c0,.148-.008.328-.013.535s-.033.437-.05.69a20.755,20.755,0,0,1-.618,3.654,20.074,20.074,0,0,1-1.264,3.479c-.1.234-.213.436-.3.62l-.242.474-.231.4,4.222,2.411.284-.5.3-.585c.114-.227.253-.478.375-.765a24.934,24.934,0,0,0,1.56-4.3,25.649,25.649,0,0,0,.764-4.507c.021-.311.05-.6.06-.85s.012-.475.017-.656c.009-.364.014-.572.014-.572Z" transform="translate(-63.153 -49.505)" fill="#2e1d1f"/>
    <path id="Trazado_731304" data-name="Trazado 731304" d="M265.38,191.846s.03.039.08.115l.213.334.332.518.4.692a21.154,21.154,0,0,1,1.678,3.934,21.492,21.492,0,0,1,.827,4.2c.022.292.043.56.061.8s.012.446.018.617c.01.343.015.538.015.538h9.723s-.006-.285-.018-.784c-.008-.25-.009-.552-.03-.9s-.056-.739-.088-1.166a31.223,31.223,0,0,0-1.217-6.164,30.826,30.826,0,0,0-2.464-5.782l-.584-1.015c-.183-.3-.349-.55-.484-.762l-.314-.488c-.074-.111-.117-.169-.117-.169Z" transform="translate(-62.878 -44.156)" fill="#2e1d1f"/>
    <path id="Trazado_731305" data-name="Trazado 731305" d="M256.453,183.964l.4.23.448.289c.172.113.373.229.576.382a20.728,20.728,0,0,1,5.242,5.215l.211.3.176.277.288.448c.082.122.136.226.176.294l.06.105,4.195-2.459-.075-.13c-.05-.084-.117-.211-.217-.362L267.58,188l-.218-.34-.259-.365a25.591,25.591,0,0,0-6.458-6.423c-.25-.186-.5-.332-.709-.471l-.553-.355-.5-.286Z" transform="translate(-60.763 -42.59)" fill="#2e1d1f"/>
    <path id="Trazado_731306" data-name="Trazado 731306" d="M240.523,178.656l.536-.04.618-.015.379-.011.421.011a20.749,20.749,0,0,1,8.3,1.887c.133.061.262.115.382.174l.336.173.548.28.464.269,4.869-8.416-.682-.391-.8-.414-.494-.253c-.176-.085-.365-.168-.559-.257a30.474,30.474,0,0,0-12.182-2.774c-.214,0-.419-.012-.613-.012l-.554.012-.9.024c-.5.03-.784.054-.784.054Z" transform="translate(-56.818 -40.011)" fill="#2e1d1f"/>
    <path id="Trazado_731307" data-name="Trazado 731307" d="M228.38,182.9l.4-.232c.126-.076.29-.15.472-.246s.386-.207.617-.311a20.647,20.647,0,0,1,3.473-1.28,21.179,21.179,0,0,1,3.649-.643l.69-.053c.206-.009.386-.009.535-.014l.465-.012-.027-4.861-.572.014c-.182.006-.4.008-.656.02l-.85.064a25.973,25.973,0,0,0-4.5.794,25.555,25.555,0,0,0-4.289,1.581c-.284.13-.534.269-.762.382s-.425.212-.581.3l-.5.285Z" transform="translate(-53.534 -41.521)" fill="#2e1d1f"/>
    <path id="Trazado_731308" data-name="Trazado 731308" d="M215.441,191.671l.246-.476c.081-.15.163-.341.286-.544l.4-.692a20.8,20.8,0,0,1,2.582-3.421,21.311,21.311,0,0,1,3.224-2.826c.469-.351.894-.593,1.177-.784.143-.093.263-.153.342-.2l.121-.069-4.869-8.417-.179.1c-.114.069-.289.161-.5.3-.418.275-1.035.639-1.725,1.147a31.12,31.12,0,0,0-4.717,4.137,30.632,30.632,0,0,0-3.779,5.01c-.214.372-.411.713-.584,1.015s-.3.578-.422.8l-.357.7Z" transform="translate(-48.971 -41.284)" fill="#2e1d1f"/>
    <path id="Trazado_731309" data-name="Trazado 731309" d="M213.952,204.989s0-.169.013-.465c0-.149.008-.328.013-.535s.033-.437.05-.69a20.753,20.753,0,0,1,.618-3.654,20.068,20.068,0,0,1,1.264-3.479c.1-.234.213-.436.3-.62l.242-.474.231-.4-4.222-2.411-.284.5-.3.585c-.114.227-.253.478-.375.765a24.949,24.949,0,0,0-1.56,4.3,25.664,25.664,0,0,0-.764,4.507c-.021.311-.05.6-.06.85s-.012.475-.017.656c-.009.364-.014.572-.014.572Z" transform="translate(-49.541 -45.553)" fill="#2e1d1f"/>
    <path id="Trazado_731310" data-name="Trazado 731310" d="M220.129,203.571a17.295,17.295,0,1,0,17.295-17.295,17.295,17.295,0,0,0-17.295,17.295" transform="translate(-52.156 -44.135)" fill="#5e5e5e"/>
    <path id="Trazado_731311" data-name="Trazado 731311" d="M27.458,7.152c3.992,1.112,8.934,1.4,11.518,1.7,17,1.973,34.305,2.9,51.339,3.729,3.656.178,8.254-.175,11.616-2.168q.353-.209.687-.443c.069-.049.136-.1.2-.148-2.42-1.488-6.239-2.556-8.357-3.384C89.412,4.464,83.369,3.443,77.606,2.7,63.44.859,36.852-4.134,27.458,7.152" transform="translate(-6.506 0)" fill="#3a3a3a"/>
  </g>
</svg>
